# https://github.com/mikedh/trimesh
v 0.03250509 0.00311422 -0.01467688
v 0.03251995 0.03594445 0.00825048
v 0.03251995 0.03594445 -0.01082525
v 0.03394116 -0.04001132 -0.02648648
v 0.03394116 -0.05594764 -0.02096160
v 0.03394116 -0.06337260 0.00824359
v 0.03821964 0.03594445 -0.01322434
v 0.06807992 0.03594445 -0.01722743
v 0.04601649 -0.05648477 -0.02168657
v 0.05727476 -0.05792844 -0.01669391
v 0.04938630 -0.04024464 -0.02637978
v 0.08030073 -0.03678007 0.00825048
v 0.08050933 0.03594445 0.00824359
v 0.07338346 0.01787178 -0.01671456
v 0.08280270 -0.00382831 0.00824402
v 0.05317702 -0.05460848 -0.02149726
v 0.08007031 -0.00689460 -0.00427270
v 0.08075569 0.01789122 0.00007738
v 0.07659419 0.00918725 -0.01248936
v 0.06310383 -0.03964432 -0.02126492
v 0.07018450 -0.05636325 -0.00871185
v 0.06698555 -0.05795761 -0.01032271
v 0.07760718 -0.03630674 -0.00252953
v 0.07446052 0.03594445 -0.01022978
v 0.07337852 -0.01790414 -0.01671456
v 0.06176123 -0.06110744 0.00825392
v 0.07513522 -0.05760763 0.00825392
v -0.05591901 -0.00201316 0.00825369
v -0.05555389 -0.00011211 -0.00851852
v 0.03394042 0.00312528 0.00825454
v -0.04384811 0.03593727 0.00825114
v -0.05261642 0.01936575 0.00825050
v -0.05374927 0.01605535 -0.01020862
v -0.05218842 -0.02051737 -0.01032044
v 0.03250202 0.03593727 0.00825114
v 0.03393159 -0.06337499 0.00825454
v -0.04293918 0.03593727 -0.01363050
v -0.04520709 -0.03295818 -0.01291534
v 0.03394042 0.00311554 -0.01404207
v -0.05323303 -0.01828041 0.00825454
v 0.03394042 -0.04050397 -0.02646848
v 0.03155779 0.03593727 -0.02475670
v -0.04183942 -0.03838262 -0.01198887
v 0.00281177 -0.04867775 -0.02307467
v 0.00334566 0.03593727 -0.02336550
v 0.03394042 -0.05617972 -0.02137904
v -0.02508709 -0.04754345 -0.01761531
v -0.04468313 -0.03422210 0.00825454
v 0.01182606 -0.06307316 0.00825454
v -0.00739383 -0.04990942 -0.02156272
v -0.00871311 0.03593727 -0.02167497
v 0.00838228 -0.05864914 -0.00524460
v -0.00413978 -0.06031530 0.00825412
v -0.01671258 -0.05625275 0.00825454
v -0.04669777 -0.02931477 0.00824989
v -0.06185544 0.01150193 0.01535789
v -0.04898406 0.02847342 0.00824989
v -0.05917325 -0.02934448 0.04343667
v -0.05853144 0.02846841 0.06990105
v 0.08149061 0.02847342 0.00824989
v -0.01478764 -0.05700445 0.00824989
v -0.05699751 -0.01561143 0.08868482
v 0.08505907 0.02846341 0.08436524
v -0.00721635 0.02845340 0.12647213
v 0.08057804 0.00687692 0.11261441
v 0.08861194 -0.01982678 0.03782402
v -0.04544677 0.02845340 0.10204810
v 0.02594041 0.01890256 0.13146625
v -0.02854529 0.01331816 0.12338455
v 0.09071270 -0.00916832 0.06860565
v -0.04335977 -0.04353782 0.07733538
v 0.00839322 -0.02193822 0.13192995
v 0.06101093 -0.02088281 0.12218484
v 0.07496921 -0.05766991 0.00824989
v 0.08300214 -0.05027990 0.06523837
v 0.01642800 -0.07043558 0.03305998
v -0.00219675 -0.07000826 0.06957662
v -0.02304323 -0.02301316 0.12228277
v 0.06166699 -0.06194038 0.09225525
v 0.03814027 -0.07128819 0.08085170
v -0.00520355 -0.05293127 0.10882048
v 0.08555570 0.02848563 0.08167965
v 0.08148830 0.02848784 0.00825514
v 0.08579085 0.04763787 0.05506207
v 0.07336454 0.05831395 0.00337289
v 0.06618873 0.02848784 0.10967144
v 0.01901874 0.02848784 0.12809246
v -0.00465077 0.02848784 0.12787201
v -0.05557584 0.02848784 0.08357682
v -0.05632539 0.02848784 0.01717983
v 0.07805644 0.05935835 0.06076383
v -0.02682887 0.04370323 0.10585623
v 0.06041282 0.06270711 0.09586832
v -0.04831472 0.04545528 0.04913104
v -0.04411219 0.03594935 -0.01248008
v 0.01048714 0.03594935 -0.02291927
v 0.06334854 0.05676538 -0.01432381
v -0.01677762 0.04844428 -0.01947899
v 0.04582008 0.04053346 -0.02595588
v 0.02467272 0.06473020 0.10759200
v 0.03958718 0.07081110 0.03157081
v 0.04268919 0.07109997 0.07192133
v 0.00090102 0.06344928 0.10081163
v -0.02990755 0.05834746 0.03770606
v 0.00024333 0.06895015 0.03245641
v 0.04347086 0.05549816 -0.02193347
v -0.02954609 0.05750463 0.07467217
v -0.00024902 0.07023509 0.07193044
f 1 2 3
f 1 3 4
f 1 4 5
f 1 5 6
f 1 6 2
f 4 3 7
f 4 7 8
f 4 9 5
f 6 5 10
f 2 6 26
f 2 26 27
f 2 27 12
f 7 3 2
f 7 2 13
f 7 13 24
f 7 24 8
f 5 9 10
f 4 8 11
f 4 11 9
f 8 14 11
f 13 2 12
f 12 15 13
f 13 15 18
f 11 14 20
f 10 9 16
f 16 21 10
f 10 21 22
f 15 12 17
f 15 17 18
f 8 24 14
f 14 25 20
f 11 16 9
f 14 24 19
f 25 14 19
f 10 26 6
f 18 17 19
f 20 16 11
f 16 20 21
f 22 21 27
f 10 22 26
f 12 23 17
f 19 24 18
f 23 12 27
f 23 25 17
f 19 17 25
f 18 24 13
f 20 25 21
f 22 27 26
f 21 25 23
f 27 21 23
f 28 40 48
f 28 48 54
f 28 54 53
f 28 53 49
f 28 49 36
f 28 36 30
f 28 30 35
f 28 35 31
f 28 31 32
f 28 33 29
f 30 36 46
f 30 46 41
f 30 41 39
f 31 35 42
f 31 42 45
f 31 45 51
f 31 51 37
f 32 31 33
f 32 33 28
f 33 34 29
f 29 34 28
f 30 39 35
f 33 38 34
f 34 40 28
f 39 41 42
f 39 42 35
f 37 33 31
f 33 37 38
f 34 38 43
f 41 44 45
f 41 45 42
f 34 48 40
f 36 49 46
f 38 47 43
f 47 38 50
f 43 48 34
f 45 44 51
f 38 37 51
f 47 50 52
f 47 52 53
f 47 53 54
f 47 54 43
f 50 44 46
f 50 51 44
f 43 54 48
f 38 51 50
f 50 46 52
f 44 41 46
f 53 52 49
f 46 49 52
f 55 57 60
f 55 60 74
f 55 74 61
f 56 57 55
f 55 58 56
f 56 59 57
f 55 61 58
f 58 62 56
f 60 57 59
f 60 59 63
f 63 59 64
f 60 63 66
f 59 67 64
f 64 68 63
f 67 69 64
f 63 68 65
f 63 70 66
f 56 62 59
f 63 65 70
f 61 71 58
f 58 71 62
f 64 69 72
f 64 72 68
f 68 72 73
f 66 74 60
f 59 62 67
f 67 62 69
f 65 68 73
f 70 65 75
f 61 76 77
f 66 70 75
f 65 73 75
f 75 74 66
f 71 61 77
f 78 72 69
f 73 79 75
f 69 62 78
f 79 74 75
f 72 78 81
f 72 79 73
f 79 80 74
f 77 81 71
f 71 78 62
f 79 72 80
f 80 76 74
f 76 80 77
f 81 78 71
f 77 80 81
f 61 74 76
f 80 72 81
f 82 83 84
f 82 86 87
f 82 87 88
f 82 88 89
f 82 89 90
f 82 90 83
f 83 85 84
f 84 85 91
f 88 92 89
f 84 91 82
f 87 86 93
f 89 94 90
f 90 95 96
f 90 96 83
f 91 93 82
f 95 98 96
f 96 98 99
f 96 99 83
f 82 93 86
f 97 85 83
f 87 100 88
f 91 102 93
f 98 95 104
f 98 106 99
f 99 97 83
f 97 101 85
f 91 85 102
f 94 95 90
f 98 104 105
f 85 101 102
f 93 100 87
f 88 100 92
f 89 107 94
f 100 103 92
f 104 108 105
f 105 106 98
f 99 106 97
f 92 107 89
f 95 94 104
f 97 106 101
f 93 102 100
f 92 103 107
f 94 107 104
f 106 105 101
f 107 103 108
f 100 102 108
f 100 108 103
f 102 101 108
f 107 108 104
f 101 105 108

