# https://github.com/mikedh/trimesh
v 0.03721150 -0.03730935 0.04706255
v 0.03717497 -0.02867500 0.05114532
v 0.03224433 -0.01134988 0.00895670
v 0.03224433 -0.01225954 0.02688954
v 0.03452064 -0.03623308 0.06353603
v 0.03456721 -0.03870944 0.06090879
v 0.03224433 -0.01848470 0.00895670
v -0.02917324 -0.01794993 0.00896434
v -0.02917324 -0.01822941 0.02385804
v 0.02692106 -0.03578564 0.07544124
v 0.03183710 -0.03815451 0.03170247
v 0.02281767 -0.02932130 0.00896434
v 0.01089281 -0.03552094 0.00896817
v -0.01723012 -0.03291424 0.00896434
v -0.02917324 -0.02309345 0.00896434
v -0.03723759 -0.03581520 0.04841774
v -0.03589901 -0.03581520 0.05906620
v -0.01638826 -0.03581520 0.08312893
v -0.00400047 -0.03579303 0.08662585
v 0.01112291 -0.03578564 0.08526779
v -0.00385164 -0.03690222 0.00897199
v -0.02893219 -0.03836009 0.02703098
v -0.03476564 -0.03861202 0.04530811
v -0.02931203 -0.03581520 0.07282070
v 0.00309144 -0.03880350 0.08524294
v 0.02208218 -0.03851461 0.07850284
v 0.00288497 -0.03877730 0.01480907
v 0.03715182 -0.00000026 0.00897225
v 0.03671824 0.03762361 0.05336553
v 0.03726148 -0.03581743 0.05114543
v 0.03515798 0.03781832 0.03827978
v 0.03383850 0.01465786 0.00896460
v -0.02506482 -0.03581012 0.02224503
v 0.03224672 -0.01846946 0.00897225
v 0.03432554 -0.03579734 0.06327711
v 0.02281663 0.02931599 0.00896460
v -0.03707813 -0.03581012 0.05140778
v -0.02916581 -0.02307123 0.00897989
v -0.03714118 0.00034670 0.00897607
v 0.01972626 0.03854876 0.01909503
v 0.02971752 0.03723054 0.07135565
v -0.03365424 0.01505413 0.00897225
v -0.01631640 0.03267419 0.00897989
v -0.00402439 -0.03579368 0.08620295
v -0.02462073 -0.03581012 0.07709177
v -0.03496275 -0.03581012 0.06253358
v -0.03678846 0.03730701 0.05393799
v -0.03400513 0.03795345 0.03622120
v 0.02601482 -0.03578090 0.07620106
v 0.01443189 -0.03578090 0.08392791
v -0.01167880 0.03695640 0.08473476
v -0.02828220 0.03711527 0.07293925
v 0.00328210 0.03693266 0.08681795
v -0.02704221 0.03880441 0.07214697
f 2 1 3
f 2 3 4
f 2 5 1
f 1 5 6
f 3 7 15
f 3 15 8
f 3 1 7
f 3 8 9
f 3 9 4
f 2 10 5
f 2 4 10
f 6 11 1
f 7 12 13
f 7 13 14
f 7 14 15
f 7 1 11
f 8 15 16
f 8 16 9
f 9 16 17
f 4 9 18
f 4 18 19
f 4 19 20
f 4 20 10
f 7 11 12
f 12 11 13
f 13 21 14
f 14 21 22
f 14 22 15
f 15 23 16
f 19 25 20
f 5 10 6
f 6 26 25
f 6 25 23
f 6 23 27
f 13 27 21
f 22 23 15
f 9 17 24
f 9 24 18
f 26 10 20
f 10 26 6
f 11 6 13
f 13 6 27
f 22 21 27
f 22 27 23
f 16 23 17
f 17 23 24
f 19 18 25
f 24 23 25
f 20 25 26
f 24 25 18
f 28 29 30
f 28 32 31
f 28 31 29
f 30 34 28
f 28 34 32
f 32 34 36
f 30 29 35
f 30 37 33
f 30 35 37
f 33 38 34
f 33 34 30
f 34 38 39
f 34 39 36
f 31 40 29
f 36 39 42
f 36 42 43
f 37 38 33
f 35 44 45
f 35 45 46
f 35 46 37
f 40 48 54
f 40 54 53
f 40 53 29
f 29 41 35
f 32 36 31
f 39 47 48
f 39 48 42
f 43 48 40
f 43 40 36
f 31 36 40
f 37 39 38
f 35 49 50
f 35 50 44
f 44 51 45
f 45 51 52
f 45 52 46
f 46 52 47
f 46 47 37
f 37 47 39
f 42 48 43
f 35 41 49
f 49 41 50
f 50 53 44
f 44 53 51
f 52 54 47
f 29 53 41
f 50 41 53
f 51 54 52
f 47 54 48
f 53 54 51

