# https://github.com/mikedh/trimesh
v 0.04419553 -0.05660050 1.02672815
v 0.02042284 -0.05369961 1.02674389
v 0.01425655 -0.04812805 1.02674389
v 0.02580483 0.05438166 1.02672815
v -0.04421506 -0.05661201 1.03860569
v -0.05354564 -0.05348089 1.03860569
v -0.05681809 -0.04417961 1.03860569
v -0.05684514 0.04418249 1.03860569
v -0.05354564 0.05349528 1.03860569
v -0.04421506 0.05663791 1.03860569
v -0.04424210 -0.06020359 1.12414277
v -0.05684514 -0.05976615 1.12414277
v -0.10198349 -0.05102894 1.11612463
v -0.11994147 -0.04307451 1.11160362
v -0.12678389 -0.03805551 1.10494030
v -0.12916386 -0.02677426 1.09123540
v -0.13140860 -0.01892343 1.08877802
v -0.12553981 -0.00947251 1.08046055
v -0.12678389 -0.00008490 1.07984626
v 0.04419553 0.05666094 1.02672815
v -0.13143565 0.01892631 1.08876216
v -0.12921795 0.02677714 1.09114087
v -0.12697321 0.03817350 1.10481417
v -0.11335598 0.04636967 1.11146188
v -0.09869750 0.05164193 1.11336792
v -0.08205122 0.05487666 1.12417424
v -0.04421506 0.05728256 1.13680792
v 0.11332292 -0.04627470 1.11150122
v 0.10207213 -0.05098290 1.11779439
v 0.05679856 -0.05967406 1.12417424
v 0.04422257 -0.06030719 1.12417424
v -0.04424210 -0.05526517 1.17466164
v -0.09581720 -0.05252543 1.12513518
v -0.13016453 -0.03943688 1.12417424
v -0.13738558 -0.01892343 1.09895420
v -0.13135451 -0.00003309 1.08535171
v 0.04422257 0.05728831 1.13049114
v 0.08208578 0.05488817 1.12417424
v 0.09587879 0.05257436 1.12513518
v 0.10193691 0.05100880 1.11615610
v 0.05341792 0.05346074 1.02672815
v -0.13741262 0.01892631 1.09895420
v -0.12939374 0.03904837 1.12838018
v -0.09883273 0.05179733 1.12239420
v -0.04421506 0.05530258 1.17464590
v -0.03790002 0.05671274 1.16202796
v 0.05339088 -0.05342333 1.02672815
v 0.09533790 -0.05250241 1.12417424
v 0.04422257 -0.05520761 1.17466164
v -0.05173361 -0.05158149 1.18211269
v -0.10731138 -0.04746038 1.13679218
v -0.12856887 -0.03881527 1.13257051
v -0.13611446 -0.03155152 1.12417424
v -0.13478926 -0.03155152 1.11160362
v -0.13822399 0.00000144 1.09895420
v 0.03790753 0.05668396 1.16204381
v 0.04422257 0.05525653 1.17466164
v 0.13003682 0.03945128 1.12417424
v 0.11994898 0.04308891 1.11154068
v 0.12676436 0.03805839 1.10497177
v 0.12909023 0.02681167 1.09121966
v 0.13128090 0.01892631 1.08876216
v 0.05655515 0.04419401 1.02672815
v -0.13616855 0.03156591 1.12417424
v -0.13497856 0.03156591 1.11157215
v -0.13816990 0.01892631 1.13679218
v -0.10731138 0.04688769 1.13680792
v -0.05173361 0.05160740 1.18211269
v 0.05655515 -0.04419113 1.02672815
v 0.13125385 -0.01893494 1.08877802
v 0.12903614 -0.02676275 1.09117246
v 0.12684549 -0.03811307 1.10490870
v 0.12921193 -0.03903398 1.12835658
v 0.10731889 -0.04673516 1.13677645
v 0.05163294 -0.05155847 1.18208122
v 0.04422257 -0.05215707 1.18266404
v -0.04424210 -0.04419113 1.18598783
v -0.10998885 -0.01242520 1.16738391
v -0.12962362 -0.01579231 1.15733373
v -0.12510709 -0.02420720 1.15508103
v -0.13016453 -0.02845493 1.14668489
v -0.12013078 -0.03833178 1.14277029
v -0.13816990 -0.01893494 1.13679218
v 0.10731889 0.04750931 1.13677645
v 0.04422257 0.05218297 1.18272698
v 0.05163294 0.05157286 1.18208122
v 0.12849525 0.03882965 1.13257051
v 0.13458040 0.03156591 1.11154068
v 0.13712265 0.01892631 1.09896994
v 0.13122681 0.00567660 1.08534384
v 0.12676436 -0.00093099 1.07984626
v -0.13016453 0.02846932 1.14665341
v -0.11664196 0.04057940 1.14548767
v -0.04421506 0.04419401 1.18600357
v -0.12508005 0.02419857 1.15504956
v -0.11482994 0.01455195 1.16924274
v 0.13709560 -0.01893494 1.09896994
v 0.13460745 -0.03156303 1.11154068
v 0.13582449 -0.03156303 1.12417424
v 0.11662243 -0.04054199 1.14544046
v 0.04422257 -0.04419113 1.18594062
v 0.12503347 -0.02414964 1.15487623
v 0.11481040 -0.01450302 1.16922700
v -0.04424210 -0.03156303 1.18759465
v -0.13765603 -0.00628383 1.14941013
v 0.04422257 0.04418249 1.18594062
v 0.11186924 0.01241081 1.16650569
v 0.12946887 0.01578368 1.15731800
v 0.12514165 0.02419857 1.15509677
v 0.13003682 0.02846932 1.14666915
v 0.12015182 0.03834617 1.14276242
v 0.13587858 0.03156591 1.12417424
v 0.13787991 0.01892631 1.13677645
v 0.13796104 -0.00000432 1.09896994
v -0.13131395 0.01766580 1.15383661
v -0.13765603 0.00629822 1.14941013
v -0.04421506 0.03156591 1.18759465
v -0.13167906 0.00000720 1.15865695
v 0.13798809 -0.01893494 1.11154068
v 0.12992863 -0.02824773 1.14646435
v 0.13779877 -0.01893494 1.13677645
v 0.04422257 -0.03156303 1.18754733
v 0.13110510 -0.01763414 1.15378141
v 0.04422257 0.03155440 1.18754733
v 0.13144316 -0.00000432 1.15865695
v 0.13731195 -0.00630685 1.14941013
v 0.13731195 0.00629822 1.14941013
v -0.20274754 0.28556809 0.01282187
v -0.20589118 0.28556809 -0.00072315
v -0.20961115 0.28556809 0.02090145
v 0.17024469 0.27458581 0.01271918
v -0.21134014 0.28556809 -0.00685199
v -0.22108541 0.28556809 0.02244157
v 0.17024469 0.26916987 0.02098046
v 0.17024469 0.27162710 0.00010217
v -0.23339798 0.28556809 -0.01322562
v -0.21961838 0.28556809 -0.00937932
v -0.23360756 0.28556809 0.02286804
v 0.13252109 0.25888962 0.02371316
v 0.17024469 0.25888962 0.02294310
v 0.17024469 0.26622120 -0.00657951
v -0.24623449 0.28531733 -0.01481313
v -0.24623449 0.28556809 -0.01401939
v -0.24623449 0.28556809 0.02293519
v 0.13252109 0.24627252 0.02520189
v 0.13252109 0.23366545 0.02552967
v 0.17024469 0.24603182 0.02294705
v 0.17024469 0.25888962 -0.00695069
v -0.23355515 0.28333151 -0.01481313
v -0.25687045 0.28328136 -0.01481313
v -0.35552818 0.28556809 -0.00635047
v -0.30931675 0.28556809 0.02308527
v -0.13259210 0.24627252 0.02519399
v -0.33462301 0.28556809 0.02308527
v -0.13259210 0.23367548 0.02550204
v -0.11996517 0.18311679 0.02509134
v 0.06933403 0.18311679 0.02509529
v 0.08196096 0.18311679 0.02509134
v 0.13252109 0.18313687 0.02505976
v 0.17024469 0.18313687 0.02294310
v 0.17024469 0.22406724 0.02294705
v 0.17024469 0.23390616 -0.00811168
v -0.22077106 0.27743417 -0.01481313
v -0.25823268 0.28301057 -0.01481313
v -0.27761844 0.26440585 -0.01481313
v -0.28291023 0.25827783 -0.01481313
v -0.28521556 0.24625248 -0.01481313
v -0.28327698 0.23355514 -0.01481313
v -0.27740887 0.22078758 -0.01481313
v -0.27106920 0.20827077 -0.01481313
v -0.35254171 0.27885836 -0.00593977
v -0.36087236 0.28556809 -0.00246073
v -0.26436278 0.27767488 -0.01481313
v -0.27127880 0.27134627 -0.01481313
v -0.34724993 0.28556809 0.02276144
v -0.25880903 0.18310677 0.02293519
v -0.13259210 0.18311679 0.02505976
v -0.17047289 0.18310677 0.02293915
v 0.09458789 0.18311679 0.02507158
v 0.10716243 0.18311679 0.02492154
v 0.17024469 0.18313687 -0.00693887
v 0.17024469 0.23366545 -0.00811564
v -0.19598871 0.25911027 -0.01481313
v -0.20824890 0.27108550 -0.01481313
v -0.25907099 0.19602476 -0.01481313
v -0.26651093 0.18310677 -0.00661109
v -0.27311257 0.18310677 0.00046548
v -0.27337453 0.18310677 0.00076559
v -0.36233938 0.28556809 -0.00022952
v -0.35930052 0.28556809 0.02090145
v -0.34724993 0.28416395 0.02259556
v -0.27007371 0.18310677 0.02098046
v -0.16968699 0.18310677 0.02102390
v 0.10716243 0.18311679 0.00400772
v -0.21767980 0.18889378 -0.01481313
v -0.20730580 0.19531266 -0.01481313
v -0.19986588 0.19992623 -0.01481313
v -0.23360756 0.18310677 -0.01347443
v -0.23360756 0.18505248 -0.01481313
v -0.22690114 0.18633626 -0.01481313
v -0.22098061 0.18762004 -0.01481313
v -0.18886316 0.21777873 -0.01481313
v -0.18760571 0.22104836 -0.01481313
v -0.18629584 0.22701590 -0.01481313
v -0.18503840 0.23368551 -0.01481313
v -0.18870597 0.24625248 -0.01481313
v -0.24623449 0.18870322 -0.01481313
v -0.24623449 0.18310677 -0.01115638
v -0.27625620 0.18310677 0.01309826
v -0.36459231 0.28556809 0.00776319
v -0.35510904 0.27626070 0.00248341
v -0.36061040 0.28556809 0.02060925
v -0.35930052 0.28478578 0.02076719
v -0.35474229 0.27667195 0.01985500
v -0.17047289 0.18310677 -0.00693887
v -0.36501148 0.28556809 0.01271918
v -0.38210604 0.32209852 0.01271177
v -0.38019681 0.32209852 0.02036748
v -0.38006178 0.33467492 0.02023103
v -0.38175890 0.33467492 0.01271177
v -0.38156602 0.32204068 -0.07565513
v -0.38015822 0.31187537 -0.06710496
v -0.38013896 0.31156677 0.01271177
v -0.37956038 0.31337991 0.01977625
v -0.35576245 0.34478232 0.05958606
v -0.35572389 0.30944496 0.05949511
v -0.37936753 0.34248695 0.01956400
v -0.38085252 0.33567792 -0.07682241
v -0.37983036 0.34381789 0.01271177
v -0.37996539 0.34389508 -0.06739299
v -0.37996539 0.34389508 -0.07338113
v -0.37892398 0.31550169 -0.08203742
v -0.37988824 0.31264693 -0.07565513
v -0.37934822 0.33212876 -0.08243159
v -0.37927109 0.32204068 -0.08237091
v -0.37753543 0.30632016 -0.07565513
v -0.37772831 0.30523998 0.01271177
v -0.36708286 0.28944233 0.01979142
v -0.35402679 0.30267456 0.05750918
v -0.34731552 0.32207924 0.06425530
v -0.34731552 0.33467492 0.06411885
v -0.34833768 0.34831223 0.06217842
v -0.34480846 0.35593134 0.05967703
v -0.36590648 0.36592302 0.01704747
v -0.34731552 0.30944496 0.06404308
v -0.37711117 0.35014465 0.01271177
v -0.37871182 0.34051946 -0.08181003
v -0.37728477 0.34777212 -0.07682241
v -0.36692861 0.36692604 -0.07185001
v -0.37020704 0.36063787 -0.07589769
v -0.37282988 0.31054446 -0.08359891
v -0.36881855 0.29897106 -0.08329568
v -0.36615720 0.29056108 -0.08188584
v -0.37254056 0.32204068 -0.08432659
v -0.37097847 0.34728989 -0.08394755
v -0.37371698 0.33567792 -0.08382627
v -0.37105563 0.29559550 -0.07688309
v -0.36872211 0.29106259 -0.07453328
v -0.36764213 0.28899869 -0.07347211
v -0.37294558 0.29683000 0.01271177
v -0.36777714 0.28859362 0.01271177
v -0.36501935 0.28560382 0.01271177
v -0.25914362 0.19602591 -0.01481858
v -0.34731552 0.30088067 0.05941930
v -0.24628039 0.18871540 -0.01481858
v -0.33468372 0.32207924 0.06693861
v -0.33468372 0.33467492 0.06693861
v -0.33468372 0.34730917 0.06452820
v -0.30942014 0.34730917 0.06407338
v -0.30942014 0.35548770 0.05929803
v -0.32203266 0.38021615 0.02036748
v -0.33468372 0.38006184 0.02023103
v -0.34249422 0.37936741 0.01956400
v -0.35011187 0.37712988 0.01271177
v -0.36098877 0.36999300 0.01280271
v -0.36638862 0.36640525 0.00861858
v -0.36999491 0.36100432 0.01280271
v -0.33468372 0.30944496 0.06507395
v -0.36692861 0.36692604 -0.06825711
v -0.36850998 0.35689580 -0.08328055
v -0.36530861 0.36532506 -0.08026374
v -0.34390205 0.37998465 -0.07339630
v -0.36064160 0.37022448 -0.07589769
v -0.35992807 0.30942568 -0.08591834
v -0.36114305 0.29559550 -0.08434172
v -0.35923377 0.29106259 -0.08376566
v -0.35772952 0.28751343 -0.08329568
v -0.25362805 0.21361743 -0.08255287
v -0.24629968 0.20516889 -0.08026374
v -0.25534445 0.20011517 -0.07160746
v -0.35992807 0.34728989 -0.08591834
v -0.36064160 0.36063787 -0.08432659
v -0.35410392 0.27759892 -0.07077363
v -0.25671369 0.19909285 -0.06304211
v -0.33468372 0.30039844 0.06007117
v -0.23370643 0.18503122 -0.01481858
v -0.24629968 0.19400059 -0.06304211
v -0.32205191 0.32207924 0.06693861
v -0.32205191 0.30944496 0.06513459
v -0.32205191 0.33467492 0.06683250
v -0.30043322 0.34730917 0.05972250
v -0.30267030 0.35404104 0.05750918
v -0.30942014 0.33467492 0.06542262
v -0.31335431 0.37956032 0.01977625
v -0.32203266 0.38208717 0.01271177
v -0.33468372 0.38177854 0.01271177
v -0.34382489 0.37983036 0.01271177
v -0.34390205 0.37998465 -0.06737786
v -0.32205191 0.30018628 0.06013181
v -0.35688099 0.36852705 -0.08328055
v -0.34779766 0.37730351 -0.07683758
v -0.34060431 0.37875018 -0.08182520
v -0.33570588 0.38089129 -0.07683758
v -0.25891221 0.25892720 -0.08793462
v -0.34729627 0.29679140 -0.08591834
v -0.34729627 0.28363636 -0.08393241
v -0.24629968 0.21147639 -0.08288637
v -0.23370643 0.20329785 -0.08162811
v -0.24629968 0.19814768 -0.07395723
v -0.34729627 0.35992417 -0.08591834
v -0.34729627 0.37099600 -0.08394755
v -0.23370643 0.19172449 -0.06304211
v -0.22105536 0.19324830 -0.06304211
v -0.22697592 0.18632358 -0.01481858
v -0.30942014 0.30012840 0.06013181
v -0.30942014 0.32207924 0.06524070
v -0.30942014 0.30944496 0.06471012
v -0.20971565 0.28558454 0.02089807
v -0.27673170 0.35477400 0.01986719
v -0.28944066 0.36709964 0.01979142
v -0.21326414 0.29173771 0.01997334
v -0.30521595 0.37772787 0.01271177
v -0.31152222 0.38013899 0.01271177
v -0.31190792 0.38017756 -0.06712013
v -0.32205191 0.38160494 -0.07565513
v -0.33217666 0.37940601 -0.08247706
v -0.21148990 0.24629292 -0.08288637
v -0.20961924 0.23365867 -0.08294705
v -0.22105536 0.22106297 -0.08391728
v -0.23370643 0.20960535 -0.08294705
v -0.30943942 0.35992417 -0.08591834
v -0.29680762 0.34728989 -0.08591834
v -0.22105536 0.21095556 -0.08294705
v -0.22105536 0.20462878 -0.08068822
v -0.22105536 0.19774264 -0.07436653
v -0.23370643 0.19700965 -0.07530647
v -0.33570588 0.37375432 -0.08384147
v -0.32205191 0.37255844 -0.08437206
v -0.21775760 0.18892758 -0.01481858
v -0.22105536 0.18761595 -0.01481858
v -0.21133563 0.19976798 -0.07200159
v -0.20959994 0.19859135 -0.06304211
v -0.20734359 0.19533151 -0.01481858
v -0.19993807 0.19994158 -0.01481858
v -0.20285013 0.28558454 0.01283305
v -0.18896478 0.21776456 -0.01481858
v -0.18767267 0.22106297 -0.01481858
v -0.18638057 0.22700398 -0.01481858
v -0.18508847 0.23365867 -0.01481858
v -0.28228587 0.36198807 0.01271177
v -0.28857285 0.36779404 0.01271177
v -0.29680762 0.37296349 0.01271177
v -0.30635378 0.37755427 -0.07565513
v -0.31266004 0.37988824 -0.07565513
v -0.31551427 0.37894306 -0.08203742
v -0.32205191 0.37930956 -0.08240125
v -0.21363056 0.25364202 -0.08255287
v -0.20329370 0.23365867 -0.08162811
v -0.21094991 0.22106297 -0.08294705
v -0.21332198 0.21330881 -0.08261348
v -0.31055796 0.37284777 -0.08359891
v -0.29900613 0.36881638 -0.08329568
v -0.29561192 0.36112007 -0.08434172
v -0.28365511 0.34734777 -0.08394755
v -0.28419510 0.33467492 -0.08526649
v -0.20809570 0.20812009 -0.07621602
v -0.19976451 0.21132205 -0.07200159
v -0.20327440 0.20327856 -0.06304211
v -0.19858810 0.20958605 -0.06304211
v -0.18875267 0.24629292 -0.01481858
v -0.19399823 0.24629292 -0.06304211
v -0.19910881 0.25672826 -0.06304211
v -0.20593576 0.28558454 -0.00073504
v -0.28901640 0.36762044 -0.07342664
v -0.19326539 0.22106297 -0.06304211
v -0.19172257 0.23365867 -0.06304211
v -0.29561192 0.37107316 -0.07686792
v -0.29059777 0.36615449 -0.08185550
v -0.20516436 0.24629292 -0.08026374
v -0.28751215 0.35772523 -0.08329568
v -0.19814454 0.24629292 -0.07395723
v -0.19702598 0.23365867 -0.07530647
v -0.19773954 0.22106297 -0.07436653
v -0.20466293 0.22106297 -0.08068822
v -0.20011164 0.25533944 -0.07160746
v -0.27758026 0.35413745 -0.07083427
v -0.28406009 0.36015564 -0.07635247
v 0.06061151 0.00633054 0.99765986
v 0.06061151 -0.00841295 0.99765986
v 0.05743662 0.00195916 0.06775617
v 0.06057583 0.03155740 0.99765986
v 0.05683017 0.03155740 1.02662361
v 0.05683017 -0.00841295 1.02662361
v 0.05703232 -0.01441367 0.97185940
v 0.05660425 -0.01450109 0.06775617
v 0.05743662 -0.00629879 0.06775617
v 0.02177560 0.01632909 0.02870950
v 0.02176371 0.06396129 0.02870950
v 0.05742473 0.00633054 0.06775617
v 0.06020721 0.04419468 0.99765986
v 0.05656858 0.04419468 1.02662361
v 0.02578285 0.04418673 1.03690422
v 0.03056302 -0.00841295 1.02662361
v -0.03169810 0.00630670 1.03838706
v 0.01070510 -0.01441367 0.97185940
v 0.05667559 -0.01450109 0.88882351
v 0.05667559 -0.01450109 0.87142551
v 0.05661613 -0.01450109 0.11392017
v -0.01291037 -0.01515283 0.04511899
v 0.02177560 0.00053647 0.02870950
v 0.04077737 0.05277054 0.06775617
v 0.04709148 0.04541072 0.06775617
v 0.05114629 0.03910003 0.06775617
v 0.05348882 0.03155740 0.06775617
v 0.05440442 0.02718602 0.06775617
v 0.05611672 0.01895192 0.06775617
v 0.01893365 0.06439843 0.02870950
v 0.04419008 0.06033701 0.99765986
v 0.05516544 0.05521852 0.99765986
v 0.05340558 0.05344612 1.02662361
v -0.03440924 0.05461447 1.03838706
v -0.03218563 0.05391505 1.03838706
v -0.02801190 0.04416289 1.03838706
v -0.02840430 0.02817157 1.03838706
v -0.03021173 0.01613834 1.03838706
v 0.02578285 0.05290566 1.03285134
v -0.05709722 0.00630670 1.03838706
v -0.05707343 -0.00559937 1.02652478
v -0.05671670 -0.01443751 0.88862574
v 0.01436752 -0.01450109 0.88882351
v -0.01291037 -0.01515283 0.06775617
v -0.05663346 -0.01515283 0.04511899
v 0.01657924 0.00053647 0.02870950
v 0.01216769 0.06540782 0.02870950
v 0.00630544 0.06598802 0.02870950
v 0.01736405 0.06156100 0.98510563
v 0.00630544 0.06198225 0.98500675
v 0.03157375 0.06075826 0.99765986
v 0.04419008 0.05664916 1.02662361
v -0.04419551 0.05664121 1.03838706
v -0.05709722 0.03154946 1.03838706
v -0.06086665 -0.00559937 0.99765986
v -0.05655023 -0.01515283 0.06775617
v -0.06054560 0.00056031 0.02880835
v -0.01522911 0.01025684 0.02870950
v -0.00629899 0.06603571 0.02870950
v -0.00005623 0.06199814 0.98500675
v -0.00631088 0.06200609 0.98500675
v 0.01895744 0.06076621 0.99765986
v -0.05352992 0.05350970 1.03838706
v -0.01494372 0.06076621 0.99765986
v -0.03157919 0.06075031 0.99765986
v -0.04419551 0.06039265 0.99765986
v -0.05682372 0.04418673 1.03838706
v -0.06084286 0.03154946 0.99765986
v -0.06086665 0.00633849 0.99765986
v -0.06053370 0.00633849 0.02880835
v -0.01522911 0.06475608 0.02870950
v -0.01896287 0.06432690 0.02880835
v -0.01893909 0.06150536 0.98510563
v -0.01494372 0.06166432 0.98500675
v -0.05609837 0.04626115 1.03838706
v -0.05531356 0.05525826 0.99765986
v -0.06047425 0.04417878 0.99765986
v -0.03159108 0.06126693 0.02880835
v -0.04391013 0.05635508 0.02880835
v -0.05967755 0.01896782 0.02880835
v -0.05819118 0.03157330 0.02880835
v -0.05544436 0.04306607 0.02880835
v -0.21709692 0.18315990 -0.01081344
v -0.22087081 0.18315990 -0.01177546
v -0.24753541 0.18315990 -0.01081344
v -0.11984220 0.18311498 0.02508833
v -0.09460052 0.18311498 0.02505762
v 0.27629131 0.18298022 0.01311426
v 0.27338356 0.18298022 0.00078196
v 0.26645449 0.18298022 -0.00657646
v -0.23355350 0.18315990 -0.01345387
v 0.24616216 0.18298022 -0.01113071
v 0.23354131 0.18298022 -0.01344364
v -0.24611247 0.18315990 -0.01114091
v -0.26640481 0.18311498 -0.00658670
v -0.27308643 0.18311498 0.00048516
v -0.27333391 0.18311498 0.00078196
v -0.27630350 0.18311498 0.01311426
v -0.26999310 0.18311498 0.02096390
v -0.25867143 0.18311498 0.02291867
v -0.13246304 0.18311498 0.02503714
v 0.00624246 0.06008096 0.06761163
v 0.06934666 0.18298022 0.02508833
v 0.08277176 0.18298022 0.02507809
v 0.13257459 0.18298022 0.02502690
v 0.25872114 0.18298022 0.02292891
v 0.27004278 0.18298022 0.02096390
v 0.27641505 -0.18365124 0.01311426
v 0.27022833 -0.18365124 0.02098438
v 0.27344543 -0.18365124 0.00079220
v 0.26670194 -0.18365124 -0.00666857
v -0.34460452 -0.27573586 -0.00647412
v 0.03148414 0.16739322 -0.03417822
v -0.09460052 0.16739322 -0.03417822
v -0.10715950 0.16662958 -0.03348231
v -0.10715950 0.15782541 -0.03552915
v 0.25383365 -0.18365124 -0.00954437
v 0.04410498 -0.03155444 -0.03659352
v 0.04410498 0.15778048 -0.03659352
v 0.04410498 0.16725847 -0.03402472
v -0.35054374 -0.27573586 -0.00420211
v -0.35431761 -0.27573586 0.00203055
v -0.35561684 -0.27573586 0.01273559
v -0.35400829 -0.27573586 0.01889659
v -0.35301840 -0.27573586 0.02006330
v -0.35023439 -0.27573586 0.02078993
v -0.34683174 -0.27573586 0.02134257
v -0.33885089 -0.27573586 0.02258092
v 0.00624246 -0.06043756 0.06761163
v 0.01886330 0.05940718 0.06761163
v 0.02715346 0.05783501 0.06761163
v 0.03154601 0.05693662 0.06761163
v 0.04076417 0.05271420 0.06761163
v 0.04701272 0.04534743 0.06761163
v 0.05109593 0.03901381 0.06761163
v 0.05344687 0.03151229 0.06761163
v 0.05604528 0.01888995 0.06761163
v 0.05740635 0.00626763 0.06761163
v 0.15695013 -0.27443320 0.01273559
v 0.25872114 -0.18365124 0.02292891
v 0.15695013 -0.26908779 0.02097414
v 0.05740635 -0.00635470 0.06761163
v 0.05697328 -0.01071187 0.06761163
v 0.05610715 -0.01897703 0.06761163
v 0.05344687 -0.03159936 0.06761163
v 0.05264261 -0.03424960 0.06761163
v 0.05109593 -0.03923564 0.06761163
v 0.15695013 -0.27155834 0.00010650
v 0.15695013 -0.26621294 -0.00657646
v -0.28100538 -0.27573586 -0.00835722
v -0.10715950 -0.03155444 -0.03552915
v -0.09460052 -0.03155444 -0.03694148
v 0.03148414 0.15778048 -0.03694148
v -0.02580458 0.15782541 -0.03694148
v -0.09460052 0.15782541 -0.03694148
v 0.03148414 -0.03155444 -0.03694148
v -0.32616818 -0.27573586 0.02293911
v 0.01886330 -0.05976377 0.06761163
v -0.30822679 -0.27573586 0.02293911
v -0.22520147 -0.27573586 0.02292891
v -0.21251877 -0.27573586 0.02282656
v -0.19841313 -0.27573586 0.02130165
v -0.19618592 -0.27573586 0.02088203
v -0.18814322 -0.27573586 0.01842581
v -0.17867757 -0.27573586 0.01299144
v -0.18591601 -0.27573586 0.00308468
v -0.19934113 -0.27573586 -0.00712911
v -0.20181580 -0.27573586 -0.00835722
v 0.15695013 -0.25889111 0.02292891
v 0.04719832 -0.04552435 0.06761163
v 0.04503298 -0.04803982 0.06761163
v 0.04088790 -0.05284620 0.06761163
v 0.03154601 -0.05724829 0.06761163
v 0.23367858 -0.17390347 -0.00958314
v 0.25894517 -0.18372534 0.02291916
v 0.27022374 -0.18372534 0.02099390
v 0.27601722 -0.18372534 0.01356565
v 0.27636966 -0.18372534 0.01309570
v 0.27346191 -0.18372534 0.00078607
v 0.24627885 -0.17769365 -0.00958314
v 0.24627885 -0.19399552 -0.06303613
v 0.23367858 -0.19171326 -0.06303613
v 0.22526373 -0.17473894 -0.00958314
v 0.15706374 -0.18372534 0.02291916
v 0.32205659 -0.30943310 0.06513885
v 0.33467886 -0.30943310 0.06506304
v 0.34730116 -0.30943310 0.06404733
v 0.34730116 -0.30089501 0.05940846
v 0.35401982 -0.30264744 0.05749834
v 0.36708272 -0.28940219 0.01978111
v 0.36774352 -0.28856671 0.01271670
v 0.36743513 -0.28897426 0.00266585
v 0.26702961 -0.18372534 -0.00639962
v 0.26694149 -0.21211097 -0.07134363
v 0.25531048 -0.20008834 -0.07158618
v 0.24627885 -0.19811174 -0.07396626
v 0.23367858 -0.19699098 -0.07531546
v 0.22105630 -0.19770418 -0.07437557
v 0.22105630 -0.19326194 -0.06303613
v 0.15706374 -0.18372534 -0.00694538
v 0.15706374 -0.25893807 0.02291916
v 0.30941227 -0.33468062 0.06542687
v 0.30941227 -0.32204670 0.06522979
v 0.30941227 -0.30943310 0.06471436
v 0.32205659 -0.32204670 0.06694283
v 0.33467886 -0.32204670 0.06694283
v 0.34730116 -0.32204670 0.06424442
v 0.35571602 -0.30943310 0.05948427
v 0.37957278 -0.31334555 0.01976594
v 0.37772241 -0.30521500 0.01271670
v 0.37296429 -0.29677877 0.01270157
v 0.37983716 -0.31251007 0.00271132
v 0.36974815 -0.29641199 -0.00088150
v 0.36476970 -0.29190859 -0.00574776
v 0.27559868 -0.24345130 -0.08040911
v 0.25363633 -0.21361889 -0.08254662
v 0.25868085 -0.20864682 -0.07569447
v 0.24627885 -0.20514192 -0.08027266
v 0.23367858 -0.20328757 -0.08162186
v 0.22105630 -0.20461211 -0.08069713
v 0.21129771 -0.19976230 -0.07201067
v 0.19975480 -0.21131626 -0.07201067
v 0.19772820 -0.22105660 -0.07437557
v 0.19700126 -0.23367019 -0.07531546
v 0.15706374 -0.23285510 -0.00696055
v 0.15706374 -0.26912674 0.02096356
v 0.30941227 -0.34731457 0.06407763
v 0.32205659 -0.33468062 0.06683671
v 0.33467886 -0.33468062 0.06694283
v 0.34730116 -0.33468062 0.06412314
v 0.35573804 -0.34476739 0.05959038
v 0.38021162 -0.32204670 0.02037234
v 0.38210607 -0.32204670 0.01271670
v 0.38012353 -0.31153196 0.01271670
v 0.38036582 -0.32243383 -0.00083603
v 0.37897804 -0.32689649 -0.00629352
v 0.37725982 -0.31850103 -0.00568712
v 0.27802178 -0.25188750 -0.08215245
v 0.27143529 -0.24711922 -0.08375941
v 0.25890112 -0.25891769 -0.08792830
v 0.24627885 -0.21145888 -0.08289526
v 0.23367858 -0.20958418 -0.08295593
v 0.22105630 -0.21094945 -0.08295593
v 0.21330230 -0.21329285 -0.08262243
v 0.20810358 -0.20809664 -0.07622506
v 0.20462310 -0.22105660 -0.08069713
v 0.20327935 -0.23367019 -0.08162186
v 0.19810268 -0.24628374 -0.07396626
v 0.15706374 -0.26623315 -0.00658154
v 0.15706374 -0.25893807 -0.00694538
v 0.15706374 -0.23369054 -0.00696055
v 0.15706374 -0.27448598 0.01271670
v 0.30264956 -0.35403907 0.05749834
v 0.30042470 -0.34731457 0.05971166
v 0.30941227 -0.35548589 0.05930236
v 0.32205659 -0.34731457 0.06430506
v 0.33467886 -0.34731457 0.06451728
v 0.34831449 -0.34831306 0.06216754
v 0.36591515 -0.36591908 0.01703720
v 0.37935251 -0.34248516 0.01955372
v 0.38005742 -0.33468062 0.02022076
v 0.34478995 -0.35593417 0.05966619
v 0.38177565 -0.33468062 0.01271670
v 0.38029975 -0.33394703 -0.00048736
v 0.37897804 -0.32926023 -0.00629352
v 0.27802178 -0.25657430 -0.08215245
v 0.27277902 -0.26003844 -0.08438094
v 0.25890112 -0.27155164 -0.08500247
v 0.24709389 -0.27147013 -0.08378968
v 0.21361069 -0.25363997 -0.08254662
v 0.21145192 -0.24628374 -0.08289526
v 0.20957948 -0.23367019 -0.08295593
v 0.21094525 -0.22105660 -0.08295593
v 0.22105630 -0.22105660 -0.08391096
v 0.26837334 -0.27155164 -0.08327430
v 0.20515178 -0.24628374 -0.08027266
v 0.20010728 -0.25533128 -0.07158618
v 0.15706374 -0.27159238 0.00008869
v 0.28855139 -0.36775303 0.01271670
v 0.28943253 -0.36708060 0.01978111
v 0.28896990 -0.36742696 0.00266585
v 0.31331131 -0.37957188 0.01976594
v 0.32201254 -0.38020357 0.02037234
v 0.34247693 -0.37936810 0.01955372
v 0.35012081 -0.37712657 0.01271670
v 0.36095878 -0.36997417 0.01279251
v 0.36639982 -0.36640811 0.00862359
v 0.36999044 -0.36098772 0.01279251
v 0.37708360 -0.35012662 0.01271670
v 0.37983716 -0.34380966 0.01271670
v 0.33465686 -0.38004056 0.02022076
v 0.37966090 -0.34325945 0.00333289
v 0.37659898 -0.33767608 -0.00508072
v 0.36688441 -0.35467076 -0.00644509
v 0.27782354 -0.26499012 -0.08195540
v 0.26306450 -0.27568823 -0.08303174
v 0.25892314 -0.27799088 -0.08213732
v 0.25183001 -0.27805200 -0.08218279
v 0.21213479 -0.26694638 -0.07134363
v 0.20865428 -0.25869355 -0.07569447
v 0.24339312 -0.27562711 -0.08040911
v 0.26632470 -0.27568823 -0.08242535
v 0.26522329 -0.27786863 -0.08198570
v 0.29194376 -0.36477795 -0.00574776
v 0.29676798 -0.37294924 0.01271670
v 0.30518284 -0.37771755 0.01271670
v 0.29637146 -0.36972961 -0.00086633
v 0.31247425 -0.37985718 0.00271132
v 0.31150499 -0.38012204 0.01271670
v 0.32201254 -0.38207829 0.01271670
v 0.34379864 -0.37983680 0.01271670
v 0.33465686 -0.38175225 0.01271670
v 0.36639982 -0.36640811 0.00580390
v 0.34324795 -0.37965339 0.00333289
v 0.36882293 -0.35929644 0.00101346
v 0.37492481 -0.34739608 -0.00048736
v 0.36307350 -0.36310700 -0.00260971
v 0.35463661 -0.36687681 -0.00644509
v 0.32921585 -0.37896055 -0.00629352
v 0.32688084 -0.37896055 -0.00629352
v 0.31846598 -0.37728959 -0.00568712
v 0.32240906 -0.38040736 -0.00083603
v 0.33388585 -0.38028508 -0.00048736
v 0.35930666 -0.36883301 0.00101346
v 0.33763072 -0.37659678 -0.00508072
v 0.34736726 -0.37494624 -0.00048736
v 0.32201293 0.38209775 0.01269927
v 0.31187218 0.38015032 -0.06708945
v 0.31149891 0.38015032 0.01269927
v 0.31332383 0.37956610 0.01976395
v 0.32201293 0.38020873 0.02037038
v 0.33468363 0.38009191 0.02020359
v 0.33468363 0.38178617 0.01269927
v 0.32205442 0.38151354 -0.07565502
v 0.31263947 0.37987769 -0.07565502
v 0.30631450 0.37754080 -0.07565502
v 0.30519468 0.37771603 0.01269927
v 0.28939259 0.36710259 0.01979428
v 0.30266467 0.35403535 0.05749796
v 0.30940440 0.35572961 0.05948397
v 0.34478286 0.35576856 0.05957491
v 0.34246027 0.37939084 0.01955173
v 0.34380817 0.37983873 0.01269927
v 0.34389114 0.37997505 -0.06739265
v 0.34389114 0.37997505 -0.07336581
v 0.33565828 0.38083193 -0.07682234
v 0.33211216 0.37933242 -0.08243167
v 0.32205442 0.37925449 -0.08235586
v 0.31548056 0.37892345 -0.08203749
v 0.29055387 0.36616781 -0.08187074
v 0.29557240 0.37105584 -0.07685268
v 0.29096866 0.36866051 -0.07450283
v 0.28899854 0.36760888 -0.07347193
v 0.29667148 0.37292537 0.01277504
v 0.28856307 0.36780363 0.01269927
v 0.17023396 0.27463877 0.01269927
v 0.30086049 0.34727779 0.05940816
v 0.30940440 0.34727779 0.06404722
v 0.17023396 0.26918599 0.02096161
v 0.32203367 0.34727779 0.06424431
v 0.33468363 0.34727779 0.06410786
v 0.34828752 0.34832940 0.06215219
v 0.35593972 0.34480456 0.05966589
v 0.36591455 0.36595359 0.01703509
v 0.35013318 0.37713182 0.01269927
v 0.34051090 0.37870923 -0.08179493
v 0.36693072 0.36690784 -0.07184975
v 0.36062646 0.37021846 -0.07589758
v 0.34776908 0.37728763 -0.07682234
v 0.32205442 0.37253588 -0.08434187
v 0.34729213 0.37097794 -0.08394770
v 0.33565828 0.37372380 -0.08382642
v 0.31054500 0.37282798 -0.08358385
v 0.29897335 0.36881629 -0.08329583
v 0.28748471 0.35773546 -0.08329583
v 0.21363789 0.25362605 -0.08255295
v 0.20517692 0.24632323 -0.08026374
v 0.20011693 0.25533980 -0.07159206
v 0.17023396 0.27165923 0.00008587
v 0.17023396 0.26899126 0.02100711
v 0.17023396 0.25892305 0.02291732
v 0.30940440 0.33467793 0.06506296
v 0.32203367 0.33467793 0.06694283
v 0.33468363 0.33467793 0.06694283
v 0.34731287 0.33467793 0.06450204
v 0.34731287 0.32205862 0.06430495
v 0.35548350 0.30943930 0.05928688
v 0.38018206 0.32207808 0.02037038
v 0.38003692 0.33467793 0.02020359
v 0.37935257 0.34248710 0.01955173
v 0.37711290 0.35014048 0.01269927
v 0.36995840 0.36100712 0.01277504
v 0.36643299 0.36642098 0.00863631
v 0.36099970 0.37000424 0.01277504
v 0.36693072 0.36690784 -0.06825677
v 0.36533391 0.36531094 -0.08026374
v 0.35689369 0.36848524 -0.08326549
v 0.37999544 0.34388927 -0.07339612
v 0.37022799 0.36063710 -0.07589758
v 0.34729213 0.35989708 -0.08590337
v 0.33468363 0.35989708 -0.08593371
v 0.30942515 0.35989708 -0.08593371
v 0.36062646 0.36063710 -0.08434187
v 0.29557240 0.36114347 -0.08434187
v 0.28366897 0.34727779 -0.08393256
v 0.21150190 0.24632323 -0.08287132
v 0.20328979 0.23370390 -0.08161302
v 0.29679590 0.34727779 -0.08593371
v 0.19814686 0.24632323 -0.07394191
v 0.17023396 0.26624539 -0.00658467
v 0.17023396 0.25868937 0.02293245
v 0.30940440 0.32205862 0.06513877
v 0.32203367 0.32205862 0.06694283
v 0.33468363 0.32205862 0.06683671
v 0.34731287 0.30943930 0.06404722
v 0.35403183 0.30266225 0.05749796
v 0.37958065 0.31331468 0.01976395
v 0.38208991 0.32207808 0.01269927
v 0.38173738 0.33467793 0.01269927
v 0.37987098 0.34381136 0.01269927
v 0.37999544 0.34388927 -0.06737748
v 0.37729952 0.34776464 -0.07682234
v 0.37873042 0.34057865 -0.08181006
v 0.36850673 0.35687858 -0.08326549
v 0.38088715 0.33569059 -0.07682234
v 0.35994211 0.34727779 -0.08590337
v 0.25892895 0.25892305 -0.08793484
v 0.37099525 0.34727779 -0.08394770
v 0.20961480 0.23370390 -0.08294712
v 0.20465848 0.22110407 -0.08067308
v 0.19775283 0.22110407 -0.07436638
v 0.19702703 0.23370390 -0.07530632
v 0.21096273 0.22110407 -0.08294712
v 0.17023396 0.25905937 -0.00696367
v 0.19173890 0.23370390 -0.06302649
v 0.17023396 0.18316820 0.02293245
v 0.30940440 0.30943930 0.06469908
v 0.32203367 0.30943930 0.06522971
v 0.33468363 0.30943930 0.06542680
v 0.34731287 0.30044219 0.05971136
v 0.25897044 0.18314873 0.02291732
v 0.27021024 0.18314873 0.02096161
v 0.27609971 0.18314873 0.01345728
v 0.36705512 0.28941974 0.01979428
v 0.37773502 0.30519390 0.01269927
v 0.38016132 0.31152305 0.01269927
v 0.38016132 0.31189305 -0.06708945
v 0.38159224 0.32205862 -0.07565502
v 0.37939402 0.33214629 -0.08246201
v 0.37373266 0.33569059 -0.08385675
v 0.37255058 0.32205862 -0.08437221
v 0.35994211 0.33467793 -0.08593371
v 0.24629970 0.21146430 -0.08287132
v 0.23371196 0.20963371 -0.08294712
v 0.22108272 0.21097745 -0.08294712
v 0.22108272 0.22110407 -0.08390222
v 0.35994211 0.30943930 -0.08593371
v 0.34729213 0.29680049 -0.08593371
v 0.19978513 0.21134746 -0.07200137
v 0.21332683 0.21331435 -0.08262876
v 0.20814241 0.20811473 -0.07621595
v 0.17023396 0.18314873 -0.00696367
v 0.17023396 0.23389862 -0.00811583
v 0.17023396 0.23368442 -0.00811583
v 0.17023396 0.18314873 0.02235635
v 0.17054503 0.18314873 0.02291732
v 0.27626562 0.18314873 0.01307828
v 0.36776021 0.28852394 0.01269927
v 0.37292385 0.29672259 0.01269927
v 0.37754840 0.30632341 -0.07565502
v 0.37989172 0.31265256 -0.07565502
v 0.37893778 0.31549576 -0.08203749
v 0.37931108 0.32205862 -0.08238620
v 0.37284094 0.31056881 -0.08358385
v 0.25364086 0.21364540 -0.08255295
v 0.23371196 0.20330457 -0.08161302
v 0.22108272 0.20464832 -0.08067308
v 0.36881781 0.29902056 -0.08329583
v 0.36112416 0.29559308 -0.08434187
v 0.34731287 0.28363588 -0.08394770
v 0.21135676 0.19977975 -0.07200137
v 0.22108272 0.19775441 -0.07436638
v 0.22108272 0.19327533 -0.06302649
v 0.23371196 0.19171740 -0.06302649
v 0.23373269 0.18314873 -0.01343712
v 0.27344531 0.18314873 0.00076811
v 0.36761501 0.28899130 -0.07342646
v 0.37105748 0.29559308 -0.07685268
v 0.36612192 0.29058820 -0.08185557
v 0.24629970 0.20517410 -0.08026374
v 0.35770243 0.28749180 -0.08329583
v 0.23371196 0.19701439 -0.07530632
v 0.24629970 0.19812442 -0.07394191
v 0.24629970 0.19401535 -0.06302649
v 0.26658115 0.18314873 -0.00661497
v 0.24632044 0.18314873 -0.01113275
v 0.25534132 0.20013027 -0.07159206
v -0.23368396 -0.17103760 -0.00837382
v -0.22106165 -0.17277284 -0.00837382
v -0.22106165 -0.19324465 -0.06303127
v -0.23368396 -0.19169532 -0.06303127
v -0.24444704 -0.17235970 -0.00837382
v -0.33466262 -0.29971460 0.06050118
v -0.32206091 -0.30944440 0.06523031
v -0.30941793 -0.30944440 0.06469980
v -0.19579631 -0.18917508 -0.00837382
v -0.21131083 -0.19975184 -0.07200442
v -0.22106165 -0.19770673 -0.07436898
v -0.23368396 -0.19700436 -0.07530873
v -0.24628563 -0.19811988 -0.07395971
v -0.25467297 -0.17475599 -0.00837382
v -0.34728494 -0.30045828 0.05971302
v -0.33466262 -0.30944440 0.06542733
v -0.32206091 -0.32206625 0.06692792
v -0.30941793 -0.32206625 0.06513937
v -0.18817334 -0.27577227 0.01842438
v -0.19625081 -0.27577227 0.02089502
v -0.18918560 -0.19580622 -0.00837382
v -0.20327468 -0.20326366 -0.06303127
v -0.19976275 -0.21132018 -0.07200442
v -0.20810875 -0.20809756 -0.07621817
v -0.22106165 -0.20462707 -0.08068957
v -0.23368396 -0.20328432 -0.08162935
v -0.24628563 -0.20516416 -0.08028034
v -0.25531340 -0.20010303 -0.07159518
v -0.36612546 -0.29060453 -0.08185671
v -0.36761287 -0.28903455 -0.07342920
v -0.35561028 -0.27577227 0.01269490
v -0.35404024 -0.27577227 0.01889425
v -0.35474265 -0.27672255 0.01984916
v -0.35404024 -0.30266866 0.05748490
v -0.34728494 -0.30944440 0.06406318
v -0.33466262 -0.32206625 0.06683698
v -0.33466262 -0.33468813 0.06692792
v -0.32206091 -0.33468813 0.06692792
v -0.30941793 -0.33468813 0.06506357
v -0.17879438 -0.27577227 0.01296773
v -0.17276213 -0.22104998 -0.00837382
v -0.30941793 -0.34731001 0.06403288
v -0.30086532 -0.34731001 0.05940986
v -0.20463815 -0.22104998 -0.08068957
v -0.19325534 -0.22104998 -0.06303127
v -0.19773822 -0.22104998 -0.07436898
v -0.21331471 -0.21330333 -0.08261460
v -0.22106165 -0.21094833 -0.08294803
v -0.23368396 -0.20960559 -0.08294803
v -0.24628563 -0.21146479 -0.08290256
v -0.25361940 -0.21361318 -0.08253879
v -0.35771745 -0.28750589 -0.08329666
v -0.36883172 -0.29903290 -0.08329666
v -0.37893373 -0.31551775 -0.08203862
v -0.37754959 -0.30638704 -0.07567248
v -0.36649731 -0.29097638 -0.08149290
v -0.36864579 -0.29097638 -0.07444476
v -0.37296343 -0.29682252 0.01269490
v -0.36779878 -0.28858009 0.01269490
v -0.36197311 -0.28225881 0.01269490
v -0.36707574 -0.28942707 0.01977339
v -0.37955344 -0.31336936 0.01975822
v -0.35550699 -0.30944440 0.05928862
v -0.34728494 -0.32206625 0.06430570
v -0.34728494 -0.33468813 0.06451792
v -0.34829721 -0.34832224 0.06216852
v -0.33466262 -0.34731001 0.06410865
v -0.32206091 -0.34731001 0.06424506
v -0.20011394 -0.25532115 -0.07159518
v -0.17474532 -0.25472206 -0.00837382
v -0.17239027 -0.24443452 -0.00837382
v -0.17102680 -0.23365118 -0.00837382
v -0.30266261 -0.35404441 0.05748490
v -0.28942052 -0.36707947 0.01977339
v -0.28855288 -0.36778182 0.01269490
v -0.28900737 -0.36763722 -0.07345954
v -0.29055676 -0.36617053 -0.08187187
v -0.30941793 -0.35571769 0.05947050
v -0.20329535 -0.23367184 -0.08162935
v -0.21095964 -0.22104998 -0.08294803
v -0.19172660 -0.23367184 -0.06303127
v -0.19701517 -0.23367184 -0.07530873
v -0.22106165 -0.22104998 -0.08391811
v -0.25890797 -0.25891557 -0.08791964
v -0.34730560 -0.29680187 -0.08593401
v -0.34732625 -0.28366354 -0.08394845
v -0.36114678 -0.29562438 -0.08434247
v -0.37283948 -0.31058055 -0.08358461
v -0.35992792 -0.30944440 -0.08593401
v -0.37932625 -0.32208693 -0.08238718
v -0.38157800 -0.32208693 -0.07567248
v -0.37990469 -0.31268764 -0.07567248
v -0.37773553 -0.30525088 0.01269490
v -0.37108350 -0.29562438 -0.07685479
v -0.38017324 -0.31190267 -0.06710857
v -0.38013190 -0.31157213 0.01269490
v -0.38207382 -0.32208693 0.01269490
v -0.38019386 -0.32208693 0.02036451
v -0.35594085 -0.34478974 0.05966755
v -0.34476462 -0.35575902 0.05959178
v -0.20515460 -0.24627306 -0.08028034
v -0.19813071 -0.24627306 -0.07395971
v -0.31330174 -0.37955672 0.01975822
v -0.30520362 -0.37771818 0.01269490
v -0.29681626 -0.37296692 0.01269490
v -0.30631918 -0.37755290 -0.07567248
v -0.29559743 -0.37108707 -0.07686992
v -0.28749931 -0.35774219 -0.08329666
v -0.21362458 -0.25362721 -0.08253879
v -0.31547087 -0.37893701 -0.08203862
v -0.29898542 -0.36883533 -0.08329666
v -0.32201964 -0.38019711 0.02036451
v -0.21147610 -0.24627306 -0.08290256
v -0.20959617 -0.23367184 -0.08294803
v -0.29679561 -0.34728938 -0.08593401
v -0.30941793 -0.35991120 -0.08593401
v -0.33466262 -0.35991120 -0.08593401
v -0.34730560 -0.35991120 -0.08591887
v -0.35992792 -0.34728938 -0.08591887
v -0.35992792 -0.33468813 -0.08593401
v -0.37252957 -0.32208693 -0.08435768
v -0.37938821 -0.33218855 -0.08246299
v -0.38087562 -0.33570036 -0.07683962
v -0.38176394 -0.33468813 0.01269490
v -0.38006991 -0.33468813 0.02021297
v -0.36591887 -0.36592260 0.01704507
v -0.37934688 -0.34249678 0.01956117
v -0.34249216 -0.37937081 0.01956117
v -0.33464193 -0.38007319 0.02021297
v -0.32201964 -0.38207698 0.01269490
v -0.31148377 -0.38013515 0.01269490
v -0.31187630 -0.38017648 -0.06709344
v -0.31264067 -0.37990791 -0.07567248
v -0.29559743 -0.36115068 -0.08434247
v -0.28363615 -0.34728938 -0.08393324
v -0.31053349 -0.37284297 -0.08359982
v -0.32206091 -0.38156053 -0.07567248
v -0.32206091 -0.37928820 -0.08237205
v -0.32206091 -0.37255374 -0.08432734
v -0.33565420 -0.37373126 -0.08382717
v -0.34730560 -0.37100443 -0.08394845
v -0.36065096 -0.36063424 -0.08432734
v -0.37100086 -0.34728938 -0.08394845
v -0.37374842 -0.33570036 -0.08385751
v -0.37876844 -0.34059626 -0.08181123
v -0.37998730 -0.34392214 -0.07341403
v -0.37998730 -0.34392214 -0.06738143
v -0.37984267 -0.34381884 0.01269490
v -0.37711576 -0.35014009 0.01269490
v -0.36994725 -0.36098543 0.01277068
v -0.36637336 -0.36639774 0.00861756
v -0.36096087 -0.36999220 0.01277068
v -0.35013577 -0.37711912 0.01269490
v -0.34381428 -0.37982529 0.01269490
v -0.33464193 -0.38178778 0.01269490
v -0.33565420 -0.38085815 -0.07682445
v -0.33210096 -0.37935016 -0.08243265
v -0.34050897 -0.37873042 -0.08179606
v -0.35689113 -0.36852548 -0.08328152
v -0.36850116 -0.35689518 -0.08328152
v -0.36531976 -0.36532354 -0.08026517
v -0.37732235 -0.34778515 -0.07683962
v -0.37023649 -0.36063424 -0.07589984
v -0.36693111 -0.36693487 -0.07185283
v -0.36693111 -0.36693487 -0.06824540
v -0.34389696 -0.37996989 -0.06739660
v -0.34389696 -0.37996989 -0.07338373
v -0.34778073 -0.37728438 -0.07682445
v -0.36065096 -0.37021944 -0.07589984
v 0.06061384 -0.00842718 0.99785984
v -0.03141517 0.00629632 1.02662885
v -0.03168868 0.00629632 1.03859127
v 0.05683232 -0.00842718 1.02662885
v 0.05683232 -0.03157614 1.02662885
v 0.06057817 -0.03157614 0.99785984
v 0.05660638 -0.01451458 0.06776027
v 0.06028088 -0.00842718 0.98728156
v -0.01657447 0.00052487 0.02861066
v -0.05710100 0.00629632 1.02662885
v -0.02837092 -0.03108466 1.03859127
v -0.05711289 0.00629632 1.03859127
v -0.02802607 -0.04420732 1.03859127
v 0.05676097 -0.03516398 1.02662885
v 0.05657071 -0.04420029 1.02662885
v 0.06019764 -0.04420029 0.99785984
v 0.05614261 -0.01896603 0.06776027
v 0.01397503 -0.06449863 0.02861066
v 0.01397503 -0.01344033 0.02861066
v -0.06054957 0.00052487 0.02861066
v -0.05707722 -0.02874659 1.03859127
v -0.06087064 -0.00562571 0.99776095
v -0.02837092 -0.04502880 1.03859127
v 0.05340754 -0.05342618 1.02662885
v 0.05515560 -0.05519552 0.99785984
v 0.05111246 -0.03918714 0.06776027
v 0.05349078 -0.03158316 0.06776027
v 0.00629306 -0.06543246 0.02861066
v 0.04722391 -0.04550624 0.06776027
v 0.04090948 -0.05289958 0.06776027
v 0.03156269 -0.05730189 0.06776027
v 0.04419156 -0.06029293 0.99785984
v -0.06056146 -0.00633486 0.02861066
v -0.05706533 -0.03155508 1.03859127
v -0.06083497 -0.03156912 0.99776095
v -0.03217623 -0.05388958 1.03859127
v 0.04680771 -0.05570105 1.02662885
v -0.00630013 -0.06543246 0.02861066
v 0.00630495 -0.06197100 0.98520541
v -0.00630013 -0.06198504 0.98520541
v 0.04419156 -0.05659977 1.02662885
v 0.03156269 -0.06070016 0.99785984
v -0.05975283 -0.01844646 0.02861066
v -0.06047821 -0.04418625 0.99776095
v -0.05679182 -0.04419328 1.03859127
v -0.04419863 -0.05660679 1.03859127
v -0.01136595 -0.06503928 0.02861066
v -0.04418674 -0.06034208 0.99776095
v 0.01923111 -0.06071420 0.99785984
v -0.03159355 -0.06070016 0.99776095
v -0.05970526 -0.01896603 0.02861066
v -0.05530538 -0.05523765 0.99776095
v -0.05352163 -0.05348937 1.03859127
v -0.05425892 -0.05141811 1.03859127
v -0.05848043 -0.03046679 0.02861066
v -0.05826638 -0.03158316 0.02861066
v -0.05573347 -0.04206584 0.02861066
v -0.05542429 -0.04308392 0.02861066
v -0.01894089 -0.06414758 0.02861066
v -0.04382999 -0.05622062 0.02861066
v -0.04281921 -0.05668402 0.02861066
v -0.03212867 -0.06076335 0.02861066
v -0.02213973 -0.06360694 0.02861066
v -0.05488917 -0.04387732 0.02861066
v -0.05022767 -0.04950131 0.02861066
v 0.27272588 -0.32209298 -0.07567286
v 0.27445206 -0.32209298 -0.06426092
v 0.27575204 -0.30945995 -0.06598014
v 0.27713722 -0.30188015 -0.06804319
v 0.27713722 -0.30188015 -0.07231153
v 0.27562416 -0.30891624 -0.07618271
v 0.27696675 -0.31276482 -0.08278090
v 0.27617824 -0.32209298 -0.08340928
v 0.27631676 -0.33469403 -0.08330253
v 0.27299228 -0.33469403 -0.07567286
v 0.27455860 -0.33469403 -0.06437358
v 0.27933225 -0.32209298 -0.05795325
v 0.28100514 -0.30945995 -0.05967246
v 0.28926310 -0.30141106 -0.05600284
v 0.28459603 -0.29743460 -0.06312270
v 0.28725988 -0.29099548 -0.06560666
v 0.28835741 -0.28835160 -0.06662632
v 0.27862898 -0.30435345 -0.08073561
v 0.28840002 -0.28839424 -0.07567881
v 0.28643942 -0.29099548 -0.07582109
v 0.28169775 -0.29732800 -0.07618271
v 0.28985980 -0.28985476 -0.08243702
v 0.28946558 -0.29099548 -0.08258525
v 0.28741974 -0.29682693 -0.08330847
v 0.28338131 -0.30891624 -0.08404955
v 0.28420177 -0.32209298 -0.08537745
v 0.28420177 -0.33469403 -0.08527672
v 0.28366902 -0.34734839 -0.08396064
v 0.27714789 -0.34316939 -0.08265044
v 0.27608234 -0.34734839 -0.07529939
v 0.27757409 -0.35415000 -0.07084131
v 0.27757409 -0.35415000 -0.06874271
v 0.27618888 -0.34731638 -0.06662041
v 0.27948141 -0.33469403 -0.05806590
v 0.31348288 -0.33236998 -0.02538330
v 0.31348288 -0.32287121 -0.02538330
v 0.31658363 -0.31659204 -0.02538330
v 0.29299250 -0.29298905 -0.05821410
v 0.29744649 -0.28458837 -0.06313456
v 0.30191112 -0.27713645 -0.06805506
v 0.30191112 -0.27713645 -0.07228190
v 0.29735056 -0.28169927 -0.07616491
v 0.29099995 -0.29099548 -0.08290534
v 0.30431923 -0.27863961 -0.08070003
v 0.31273702 -0.27691257 -0.08282238
v 0.29682848 -0.28742412 -0.08330847
v 0.29682848 -0.29100612 -0.08406731
v 0.29682848 -0.29682693 -0.08528259
v 0.29682848 -0.34731638 -0.08594657
v 0.29682848 -0.30945995 -0.08594657
v 0.29562441 -0.36114347 -0.08436370
v 0.28752628 -0.35773203 -0.08330847
v 0.29061633 -0.36615402 -0.08187386
v 0.27909783 -0.35159138 -0.07926542
v 0.28407392 -0.36015201 -0.07635462
v 0.28903934 -0.36763588 -0.07344979
v 0.28903934 -0.36763588 -0.06736144
v 0.28518209 -0.35859555 -0.06384597
v 0.28975326 -0.35460839 -0.05629927
v 0.28151661 -0.34731638 -0.06031269
v 0.31905571 -0.33856389 -0.02538330
v 0.32285964 -0.31320190 -0.02538330
v 0.30142096 -0.28925776 -0.05600284
v 0.29747844 -0.29099548 -0.05703435
v 0.30946580 -0.28099567 -0.05969022
v 0.30946580 -0.27575055 -0.06599794
v 0.30966824 -0.27569723 -0.06616393
v 0.32208180 -0.27269089 -0.07567881
v 0.30889040 -0.27559063 -0.07616491
v 0.32208180 -0.27569723 -0.08239553
v 0.32209250 -0.27615565 -0.08341523
v 0.32209250 -0.28419390 -0.08538935
v 0.30890107 -0.28338367 -0.08406731
v 0.30945513 -0.29682693 -0.08594657
v 0.30945513 -0.35993880 -0.08594657
v 0.29903412 -0.36884055 -0.08330847
v 0.31552875 -0.37895763 -0.08205760
v 0.30637571 -0.37757173 -0.07567286
v 0.29562441 -0.37108997 -0.07686446
v 0.29400477 -0.36304107 -0.05894922
v 0.31191656 -0.38018364 -0.06713022
v 0.29765958 -0.36983201 -0.06311679
v 0.31926879 -0.33878779 -0.02538330
v 0.33250284 -0.31320190 -0.02538330
v 0.32209250 -0.27932191 -0.05795325
v 0.30994529 -0.27569723 -0.06593271
v 0.32208180 -0.27442861 -0.06426092
v 0.33468720 -0.27454588 -0.06438544
v 0.33468720 -0.27300006 -0.07567881
v 0.33468720 -0.27569723 -0.08180863
v 0.33468720 -0.27633691 -0.08326105
v 0.33468720 -0.28419390 -0.08523516
v 0.34731388 -0.29682693 -0.08594657
v 0.32885867 -0.29099548 -0.08569168
v 0.32209250 -0.29099548 -0.08569168
v 0.33468720 -0.35993880 -0.08594657
v 0.32208180 -0.37257180 -0.08438154
v 0.31057397 -0.37285966 -0.08361081
v 0.32208180 -0.37933075 -0.08240743
v 0.32208180 -0.38159084 -0.07567286
v 0.31269437 -0.37990645 -0.07567286
v 0.30242255 -0.36675102 -0.05644155
v 0.32208180 -0.38114309 -0.06557109
v 0.32208180 -0.37623912 -0.05926932
v 0.30840024 -0.37536496 -0.06296856
v 0.32548091 -0.34226322 -0.02538330
v 0.33870432 -0.31931052 -0.02538330
v 0.36305195 -0.29399115 -0.05893737
v 0.35463417 -0.28972685 -0.05628741
v 0.34731388 -0.28150737 -0.06034235
v 0.33468720 -0.27948183 -0.05807776
v 0.33468720 -0.27569723 -0.06290928
v 0.33163974 -0.27569723 -0.06283222
v 0.34354183 -0.27569723 -0.06597423
v 0.34568360 -0.27569723 -0.07532310
v 0.34014279 -0.27569723 -0.08016651
v 0.34731388 -0.27619830 -0.06665598
v 0.35412270 -0.27757356 -0.06876052
v 0.35412270 -0.27757356 -0.07078797
v 0.34309432 -0.27716845 -0.08261491
v 0.34731388 -0.28366083 -0.08394280
v 0.36115527 -0.29561159 -0.08436370
v 0.35994056 -0.30945995 -0.08594657
v 0.34731388 -0.35993880 -0.08593468
v 0.35994056 -0.33469403 -0.08594657
v 0.33572078 -0.37375516 -0.08385984
v 0.33219382 -0.37941605 -0.08247857
v 0.33572078 -0.38090855 -0.07684666
v 0.33468720 -0.38101515 -0.06577266
v 0.30945513 -0.36826485 -0.05543966
v 0.33468720 -0.37605789 -0.05946498
v 0.33042502 -0.34226322 -0.02538330
v 0.33892804 -0.31953442 -0.02538330
v 0.36674941 -0.30240253 -0.05644155
v 0.36983946 -0.29764780 -0.06309899
v 0.36582237 -0.29099548 -0.06400011
v 0.36764443 -0.28902322 -0.06734959
v 0.35858732 -0.28516403 -0.06384597
v 0.34731388 -0.27610236 -0.07526977
v 0.36764443 -0.28902322 -0.07347941
v 0.36015368 -0.28406596 -0.07634276
v 0.35151213 -0.27910870 -0.07920614
v 0.36617398 -0.29057971 -0.08189758
v 0.35775620 -0.28752005 -0.08330847
v 0.35921597 -0.29100612 -0.08376499
v 0.36883783 -0.29901239 -0.08330847
v 0.37285495 -0.31055802 -0.08361081
v 0.37256727 -0.32209298 -0.08435188
v 0.36065447 -0.36065307 -0.08434594
v 0.34731388 -0.37102601 -0.08396064
v 0.35994056 -0.34731638 -0.08593468
v 0.34061161 -0.37875509 -0.08183829
v 0.34392545 -0.38000238 -0.07342013
v 0.34392545 -0.38000238 -0.06738516
v 0.34877366 -0.37327543 -0.06207342
v 0.35362190 -0.36626062 -0.05673797
v 0.34520411 -0.36821157 -0.05548118
v 0.33063811 -0.34225252 -0.02538330
v 0.34199682 -0.32573900 -0.02538330
v 0.36826244 -0.30945995 -0.05543966
v 0.37536961 -0.30839390 -0.06296265
v 0.38018590 -0.31190127 -0.06711836
v 0.37756464 -0.30635765 -0.07567286
v 0.37108612 -0.29561159 -0.07688223
v 0.37894985 -0.31550461 -0.08206354
v 0.37930149 -0.32209298 -0.08238371
v 0.37936538 -0.33213544 -0.08243702
v 0.37373936 -0.33568549 -0.08383612
v 0.37100089 -0.34731638 -0.08396064
v 0.36851817 -0.35692179 -0.08329666
v 0.35691443 -0.36853141 -0.08329666
v 0.34780404 -0.37732655 -0.07684666
v 0.36533222 -0.36533314 -0.08029099
v 0.36065447 -0.37023708 -0.07592186
v 0.36694118 -0.36695361 -0.07186691
v 0.35994056 -0.36953351 -0.06538138
v 0.36694118 -0.36695361 -0.06826253
v 0.36119792 -0.36120740 -0.05861128
v 0.36624858 -0.35362762 -0.05673797
v 0.33691418 -0.33659166 -0.02538330
v 0.34199682 -0.33010989 -0.02538330
v 0.37623271 -0.32209298 -0.05925747
v 0.38157108 -0.32209298 -0.07567286
v 0.37990886 -0.31266886 -0.07567286
v 0.38114488 -0.32209298 -0.06556515
v 0.38086784 -0.33568549 -0.07683480
v 0.37873676 -0.34054682 -0.08181458
v 0.37730891 -0.34779614 -0.07683480
v 0.37023371 -0.36065307 -0.07592186
v 0.37998343 -0.34391561 -0.07339641
v 0.36951980 -0.35993880 -0.06538138
v 0.37998343 -0.34391561 -0.06740292
v 0.37327051 -0.34876630 -0.06207933
v 0.37605155 -0.33469403 -0.05947089
v 0.36819854 -0.34520558 -0.05547523
v 0.34198618 -0.33032313 -0.02538330
v 0.38099569 -0.33469403 -0.06577857
f 1 2 3
f 1 3 4
f 1 4 20
f 1 20 41
f 1 41 63
f 1 63 69
f 1 69 47
f 2 1 5
f 2 5 6
f 2 6 3
f 3 6 7
f 3 7 8
f 4 3 8
f 4 8 9
f 4 9 10
f 5 11 12
f 5 12 13
f 5 13 6
f 5 1 11
f 6 13 14
f 6 14 15
f 6 15 16
f 6 16 17
f 6 17 18
f 6 18 7
f 7 18 19
f 7 19 8
f 4 10 20
f 8 19 9
f 9 19 21
f 9 21 22
f 9 22 23
f 9 23 24
f 9 24 10
f 10 24 25
f 10 25 26
f 10 26 27
f 10 27 20
f 1 28 29
f 1 29 30
f 1 30 31
f 1 31 11
f 11 32 12
f 12 32 33
f 12 33 13
f 13 33 34
f 13 34 14
f 14 34 15
f 16 35 17
f 17 35 36
f 17 36 18
f 18 36 19
f 20 37 38
f 20 38 39
f 20 39 40
f 20 40 41
f 20 27 37
f 19 36 21
f 21 36 42
f 21 42 22
f 24 23 43
f 24 43 44
f 24 44 25
f 25 44 26
f 26 44 45
f 26 45 46
f 26 46 27
f 1 47 28
f 29 48 30
f 30 48 49
f 30 49 31
f 31 49 11
f 32 50 51
f 32 51 33
f 34 51 52
f 34 33 51
f 34 52 53
f 34 53 54
f 34 54 15
f 15 54 16
f 16 54 35
f 35 54 53
f 35 55 36
f 38 37 56
f 38 56 57
f 38 57 39
f 40 58 59
f 40 59 41
f 41 59 60
f 41 60 61
f 41 61 62
f 41 62 63
f 36 55 42
f 42 64 65
f 42 65 22
f 42 55 66
f 42 66 64
f 22 65 23
f 23 65 43
f 43 67 44
f 43 65 64
f 44 67 45
f 45 67 68
f 27 46 37
f 47 69 70
f 47 70 71
f 47 71 72
f 47 72 28
f 28 72 73
f 28 73 29
f 29 74 48
f 29 73 74
f 49 48 75
f 49 75 76
f 11 49 32
f 32 76 50
f 32 49 76
f 50 77 78
f 50 78 79
f 50 79 80
f 50 80 81
f 50 81 82
f 50 82 51
f 51 82 52
f 52 81 53
f 52 82 81
f 53 81 83
f 53 83 35
f 39 84 40
f 37 46 56
f 57 85 86
f 57 86 84
f 57 84 39
f 40 84 58
f 58 84 87
f 59 58 60
f 60 58 88
f 60 88 61
f 61 89 62
f 62 90 63
f 62 89 90
f 63 90 91
f 64 92 43
f 64 66 92
f 43 92 93
f 43 93 67
f 67 93 68
f 68 93 95
f 68 95 96
f 45 68 85
f 45 85 57
f 45 57 46
f 46 57 56
f 70 69 91
f 70 97 71
f 72 71 98
f 72 98 73
f 73 98 99
f 74 73 100
f 74 100 75
f 74 75 48
f 75 101 76
f 75 100 102
f 75 102 103
f 75 103 101
f 76 77 50
f 76 101 77
f 77 101 104
f 77 104 96
f 77 96 78
f 80 79 81
f 83 81 105
f 35 83 55
f 55 83 66
f 85 106 86
f 86 106 107
f 86 107 108
f 86 108 109
f 86 109 110
f 86 110 111
f 86 111 84
f 84 111 87
f 87 110 112
f 87 112 58
f 87 111 110
f 58 112 88
f 88 112 89
f 88 89 61
f 89 112 113
f 89 113 114
f 89 114 90
f 90 114 70
f 90 70 91
f 91 69 63
f 92 66 115
f 66 116 115
f 92 115 95
f 92 95 93
f 68 96 94
f 94 96 117
f 95 115 96
f 96 115 118
f 96 104 117
f 68 94 85
f 85 94 106
f 70 114 97
f 97 114 119
f 97 119 99
f 97 99 98
f 97 98 71
f 73 99 120
f 73 120 100
f 99 119 121
f 99 121 120
f 100 120 102
f 101 103 122
f 102 120 123
f 102 123 103
f 103 124 122
f 103 123 125
f 101 122 104
f 96 118 78
f 78 118 79
f 79 118 105
f 79 105 81
f 105 118 116
f 105 116 83
f 106 124 103
f 106 103 107
f 109 108 110
f 110 113 112
f 113 119 114
f 66 83 116
f 116 118 115
f 117 124 106
f 117 106 94
f 104 122 124
f 104 124 117
f 120 121 123
f 119 113 121
f 121 113 126
f 121 126 123
f 123 126 125
f 125 126 127
f 103 125 107
f 107 125 108
f 108 125 127
f 108 127 110
f 110 127 113
f 113 127 126
f 128 129 132
f 128 132 137
f 128 137 136
f 128 136 143
f 128 143 151
f 128 151 172
f 128 172 189
f 128 189 210
f 128 210 216
f 128 216 212
f 128 212 190
f 128 190 175
f 128 175 154
f 128 154 152
f 128 152 144
f 128 144 138
f 128 138 133
f 128 133 130
f 128 130 131
f 128 131 129
f 129 131 132
f 130 133 131
f 131 134 140
f 131 140 147
f 131 147 161
f 131 161 160
f 131 160 181
f 131 181 182
f 131 182 162
f 131 162 148
f 131 148 141
f 131 141 135
f 131 135 136
f 131 136 137
f 131 137 132
f 131 133 134
f 133 138 134
f 134 139 140
f 134 138 139
f 135 141 142
f 135 142 136
f 136 142 143
f 138 144 145
f 138 145 139
f 139 145 140
f 140 145 146
f 140 146 147
f 141 148 149
f 141 149 142
f 142 149 163
f 142 163 184
f 142 184 183
f 142 183 206
f 142 206 205
f 142 205 204
f 142 204 203
f 142 203 202
f 142 202 197
f 142 197 196
f 142 196 195
f 142 195 201
f 142 201 200
f 142 200 199
f 142 199 207
f 142 207 185
f 142 185 170
f 142 170 169
f 142 169 168
f 142 168 167
f 142 167 166
f 142 166 165
f 142 165 174
f 142 174 173
f 142 173 164
f 142 164 150
f 142 150 151
f 142 151 143
f 144 152 145
f 145 153 146
f 145 152 154
f 145 154 153
f 146 153 155
f 146 155 156
f 146 156 157
f 146 157 158
f 146 158 159
f 146 159 160
f 146 160 161
f 146 161 147
f 148 162 163
f 148 163 149
f 150 164 151
f 151 165 166
f 151 166 167
f 151 167 168
f 151 168 169
f 151 169 170
f 151 170 171
f 151 171 172
f 151 164 173
f 151 173 174
f 151 174 165
f 153 154 155
f 154 175 176
f 154 176 177
f 154 177 155
f 155 177 156
f 156 177 176
f 156 176 178
f 156 178 157
f 157 178 158
f 158 179 159
f 158 178 179
f 159 179 180
f 159 180 160
f 160 180 194
f 160 194 181
f 162 182 183
f 162 183 184
f 162 184 163
f 170 185 186
f 170 186 171
f 171 187 188
f 171 188 172
f 171 186 187
f 172 188 189
f 175 190 191
f 175 191 176
f 176 191 190
f 176 190 192
f 176 192 209
f 176 209 188
f 176 188 187
f 176 187 186
f 176 186 208
f 176 208 198
f 176 198 215
f 176 215 193
f 176 193 178
f 178 193 180
f 178 180 179
f 180 193 194
f 181 195 196
f 181 196 197
f 181 197 182
f 181 194 198
f 181 198 199
f 181 199 200
f 181 200 201
f 181 201 195
f 182 197 202
f 182 202 203
f 182 203 204
f 182 204 205
f 182 205 206
f 182 206 183
f 185 207 186
f 186 207 208
f 188 209 210
f 188 210 211
f 188 211 189
f 189 211 210
f 190 212 213
f 190 213 192
f 192 213 212
f 192 212 214
f 192 214 209
f 193 215 194
f 194 215 198
f 198 208 199
f 199 208 207
f 209 214 216
f 209 216 210
f 212 216 214
f 217 218 219
f 217 219 220
f 217 220 221
f 217 221 222
f 217 222 223
f 217 223 224
f 217 224 218
f 218 225 219
f 218 224 226
f 218 226 225
f 219 227 220
f 219 225 227
f 220 228 221
f 220 227 229
f 220 229 230
f 220 230 231
f 220 231 228
f 221 232 233
f 221 233 222
f 221 228 234
f 221 234 235
f 221 235 232
f 222 233 236
f 222 236 237
f 222 237 223
f 223 237 224
f 224 237 238
f 224 238 239
f 224 239 226
f 225 226 240
f 225 240 241
f 225 241 242
f 225 242 243
f 225 243 244
f 225 244 227
f 226 239 245
f 226 245 240
f 227 244 246
f 227 246 229
f 228 231 247
f 228 247 234
f 229 246 230
f 230 246 231
f 231 248 247
f 231 246 249
f 231 249 250
f 231 250 248
f 232 251 252
f 232 252 253
f 232 253 236
f 232 236 233
f 232 235 251
f 234 254 235
f 234 247 255
f 234 255 256
f 234 256 254
f 235 254 251
f 236 253 257
f 236 257 258
f 236 258 259
f 236 259 260
f 236 260 237
f 237 260 238
f 238 260 261
f 238 261 262
f 238 262 263
f 238 263 239
f 239 264 245
f 239 263 265
f 239 265 264
f 240 266 267
f 240 267 241
f 240 245 266
f 241 267 242
f 242 267 268
f 242 268 243
f 243 268 269
f 243 269 270
f 243 270 271
f 243 271 272
f 243 272 273
f 243 273 244
f 244 273 274
f 244 274 275
f 244 275 276
f 244 276 277
f 244 277 246
f 245 264 278
f 245 278 266
f 246 277 279
f 246 279 249
f 247 248 280
f 247 280 255
f 248 250 281
f 248 281 280
f 249 281 250
f 249 279 274
f 249 274 282
f 249 282 283
f 249 283 281
f 251 254 284
f 251 284 252
f 252 285 286
f 252 286 287
f 252 287 253
f 252 284 285
f 253 259 258
f 253 258 257
f 253 287 288
f 253 288 289
f 253 289 290
f 253 290 259
f 254 256 291
f 254 291 284
f 255 280 292
f 255 292 291
f 255 291 256
f 259 262 261
f 259 261 260
f 259 290 293
f 259 293 263
f 259 263 262
f 263 293 294
f 263 294 265
f 264 295 278
f 264 265 296
f 264 296 295
f 265 294 297
f 265 297 296
f 266 298 267
f 266 278 299
f 266 299 298
f 267 298 300
f 267 300 268
f 268 300 269
f 269 301 302
f 269 302 270
f 269 300 303
f 269 303 301
f 270 302 304
f 270 304 271
f 271 304 305
f 271 305 272
f 272 305 306
f 272 306 273
f 273 306 307
f 273 307 274
f 274 307 308
f 274 308 282
f 274 279 275
f 275 279 276
f 276 279 277
f 278 295 309
f 278 309 299
f 280 281 310
f 280 310 292
f 281 283 311
f 281 311 312
f 281 312 310
f 282 308 306
f 282 306 313
f 282 313 312
f 282 312 311
f 282 311 283
f 284 314 315
f 284 315 285
f 284 291 314
f 285 315 316
f 285 316 286
f 286 316 287
f 287 316 288
f 288 317 318
f 288 318 289
f 288 316 315
f 288 315 317
f 289 318 319
f 289 319 290
f 290 319 297
f 290 297 294
f 290 294 293
f 291 292 320
f 291 320 314
f 292 310 321
f 292 321 320
f 295 296 309
f 296 297 322
f 296 322 323
f 296 323 324
f 296 324 325
f 296 325 309
f 297 319 322
f 298 326 303
f 298 303 300
f 298 299 327
f 298 327 326
f 299 309 325
f 299 325 327
f 301 303 328
f 301 328 302
f 302 329 330
f 302 330 304
f 302 328 331
f 302 331 329
f 303 326 328
f 304 332 333
f 304 333 305
f 304 330 332
f 305 333 334
f 305 334 335
f 305 335 306
f 306 335 313
f 306 308 307
f 310 312 321
f 312 313 336
f 312 336 321
f 313 335 336
f 314 337 338
f 314 338 339
f 314 339 340
f 314 340 317
f 314 317 315
f 314 320 341
f 314 341 342
f 314 342 337
f 317 340 318
f 318 340 343
f 318 343 344
f 318 344 345
f 318 345 346
f 318 346 319
f 319 346 322
f 320 321 347
f 320 347 348
f 320 348 341
f 321 336 347
f 322 346 345
f 322 345 323
f 323 349 350
f 323 350 324
f 323 345 351
f 323 351 352
f 323 352 349
f 324 350 325
f 325 350 349
f 325 349 327
f 326 327 328
f 327 349 353
f 327 353 354
f 327 354 328
f 328 355 331
f 328 354 356
f 328 356 357
f 328 357 358
f 328 358 359
f 328 359 355
f 329 331 355
f 329 355 330
f 330 360 361
f 330 361 362
f 330 362 332
f 330 355 360
f 332 362 363
f 332 363 334
f 332 334 333
f 334 363 364
f 334 364 335
f 335 364 365
f 335 365 366
f 335 366 336
f 336 366 348
f 336 348 347
f 337 367 368
f 337 368 338
f 337 342 367
f 338 368 369
f 338 369 339
f 339 369 370
f 339 370 343
f 339 343 340
f 341 348 371
f 341 371 372
f 341 372 373
f 341 373 342
f 342 373 374
f 342 374 375
f 342 375 367
f 343 370 344
f 344 370 376
f 344 376 351
f 344 351 345
f 348 366 371
f 349 352 353
f 351 376 377
f 351 377 378
f 351 378 352
f 352 378 354
f 352 354 353
f 354 378 379
f 354 379 356
f 355 359 380
f 355 380 381
f 355 381 382
f 355 382 383
f 355 383 384
f 355 384 360
f 356 379 385
f 356 385 357
f 357 385 358
f 358 385 359
f 359 385 386
f 359 386 381
f 359 381 380
f 360 384 361
f 361 384 362
f 362 384 363
f 363 365 364
f 363 384 387
f 363 387 388
f 363 388 365
f 365 388 372
f 365 372 371
f 365 371 366
f 367 389 368
f 367 375 374
f 367 374 390
f 367 390 388
f 367 388 389
f 368 389 391
f 368 391 392
f 368 392 393
f 368 393 394
f 368 394 369
f 369 394 370
f 370 394 376
f 372 388 390
f 372 390 373
f 373 390 374
f 376 394 377
f 377 379 378
f 377 394 393
f 377 393 385
f 377 385 379
f 381 391 395
f 381 395 382
f 381 386 391
f 382 395 383
f 383 395 396
f 383 396 384
f 384 396 397
f 384 397 388
f 384 388 387
f 385 393 386
f 386 393 392
f 386 392 391
f 388 397 395
f 388 395 389
f 389 395 391
f 395 397 396
f 398 399 406
f 398 406 400
f 398 400 401
f 398 401 402
f 398 402 403
f 398 403 399
f 399 403 404
f 399 404 405
f 399 405 406
f 400 406 420
f 400 420 407
f 400 407 408
f 400 408 409
f 400 409 401
f 401 409 410
f 401 410 411
f 401 411 402
f 402 411 412
f 402 412 403
f 403 413 415
f 403 415 404
f 403 412 414
f 403 414 437
f 403 437 413
f 404 415 440
f 404 440 416
f 404 416 417
f 404 417 418
f 404 418 405
f 405 418 419
f 405 419 420
f 405 420 406
f 407 420 443
f 407 443 455
f 407 455 468
f 407 468 456
f 407 456 445
f 407 445 444
f 407 444 427
f 407 427 408
f 408 421 422
f 408 422 423
f 408 423 424
f 408 424 425
f 408 425 426
f 408 426 409
f 408 427 428
f 408 428 429
f 408 429 421
f 409 426 410
f 410 426 425
f 410 425 424
f 410 424 423
f 410 423 429
f 410 429 430
f 410 430 411
f 411 430 412
f 412 431 432
f 412 432 433
f 412 433 434
f 412 434 435
f 412 435 414
f 412 430 436
f 412 436 431
f 413 437 438
f 413 438 415
f 414 435 434
f 414 434 433
f 414 433 432
f 414 432 431
f 414 431 450
f 414 450 460
f 414 460 472
f 414 472 464
f 414 464 451
f 414 451 437
f 415 439 440
f 415 438 439
f 416 440 453
f 416 453 441
f 416 441 419
f 416 419 417
f 417 419 418
f 419 441 453
f 419 453 442
f 419 442 443
f 419 443 420
f 421 429 422
f 422 429 423
f 427 444 428
f 428 444 445
f 428 445 446
f 428 446 447
f 428 447 448
f 428 448 449
f 428 449 430
f 428 430 429
f 430 449 436
f 431 436 450
f 436 449 450
f 437 451 466
f 437 466 452
f 437 452 438
f 438 452 439
f 439 452 442
f 439 442 453
f 439 453 440
f 442 452 454
f 442 454 443
f 443 454 455
f 445 456 447
f 445 447 446
f 447 456 457
f 447 457 448
f 448 457 458
f 448 458 459
f 448 459 450
f 448 450 449
f 450 459 461
f 450 461 462
f 450 462 463
f 450 463 460
f 451 464 465
f 451 465 466
f 452 466 454
f 454 466 465
f 454 465 467
f 454 467 468
f 454 468 455
f 456 468 469
f 456 469 463
f 456 463 470
f 456 470 471
f 456 471 458
f 456 458 457
f 458 471 470
f 458 470 463
f 458 463 462
f 458 462 461
f 458 461 459
f 460 463 473
f 460 473 474
f 460 474 472
f 463 469 475
f 463 475 476
f 463 476 473
f 464 472 474
f 464 474 465
f 465 474 467
f 467 477 468
f 467 474 477
f 468 477 478
f 468 478 479
f 468 479 476
f 468 476 475
f 468 475 469
f 473 476 479
f 473 479 474
f 474 479 478
f 474 478 477
f 480 481 488
f 480 488 491
f 480 491 482
f 480 482 483
f 480 483 484
f 480 484 485
f 480 485 486
f 480 486 487
f 480 487 481
f 481 487 489
f 481 489 490
f 481 490 488
f 482 491 492
f 482 492 493
f 482 493 494
f 482 494 495
f 482 495 496
f 482 496 497
f 482 497 498
f 482 498 483
f 483 498 499
f 483 499 500
f 483 500 501
f 483 501 502
f 483 502 484
f 484 502 503
f 484 503 504
f 484 504 485
f 485 505 486
f 485 504 506
f 485 506 505
f 486 505 507
f 486 507 508
f 486 508 487
f 487 508 489
f 488 509 491
f 488 490 510
f 488 510 511
f 488 511 512
f 488 512 513
f 488 513 509
f 489 508 514
f 489 514 490
f 490 514 515
f 490 515 516
f 490 516 517
f 490 517 510
f 491 509 492
f 492 509 518
f 492 518 493
f 493 518 494
f 494 518 519
f 494 519 495
f 495 519 520
f 495 520 521
f 495 521 496
f 496 521 522
f 496 522 523
f 496 523 497
f 497 523 524
f 497 524 499
f 497 499 498
f 499 524 525
f 499 525 526
f 499 526 555
f 499 555 570
f 499 570 569
f 499 569 568
f 499 568 567
f 499 567 544
f 499 544 543
f 499 543 542
f 499 542 541
f 499 541 540
f 499 540 539
f 499 539 535
f 499 535 534
f 499 534 533
f 499 533 532
f 499 532 531
f 499 531 530
f 499 530 529
f 499 529 528
f 499 528 527
f 499 527 503
f 499 503 502
f 499 502 501
f 499 501 500
f 503 527 528
f 503 528 529
f 503 529 530
f 503 530 531
f 503 531 532
f 503 532 504
f 504 532 533
f 504 533 534
f 504 534 535
f 504 535 506
f 505 506 536
f 505 536 507
f 506 537 538
f 506 538 536
f 506 535 539
f 506 539 540
f 506 540 541
f 506 541 542
f 506 542 543
f 506 543 544
f 506 544 537
f 507 536 545
f 507 545 508
f 508 545 546
f 508 546 514
f 509 547 565
f 509 565 564
f 509 564 563
f 509 563 562
f 509 562 561
f 509 561 560
f 509 560 559
f 509 559 558
f 509 558 557
f 509 557 556
f 509 556 554
f 509 554 525
f 509 525 524
f 509 524 523
f 509 523 522
f 509 522 521
f 509 521 520
f 509 520 519
f 509 519 518
f 509 513 548
f 509 548 549
f 509 549 547
f 510 517 550
f 510 550 551
f 510 551 552
f 510 552 511
f 511 552 512
f 512 552 513
f 513 552 549
f 513 549 548
f 514 546 515
f 515 553 550
f 515 550 516
f 515 546 553
f 516 550 517
f 525 554 526
f 526 554 556
f 526 556 557
f 526 557 558
f 526 558 538
f 526 538 555
f 536 538 558
f 536 558 559
f 536 559 560
f 536 560 561
f 536 561 562
f 536 562 563
f 536 563 564
f 536 564 565
f 536 565 545
f 537 566 538
f 537 544 567
f 537 567 568
f 537 568 569
f 537 569 566
f 538 566 570
f 538 570 555
f 545 565 546
f 546 565 553
f 547 549 553
f 547 553 565
f 549 552 551
f 549 551 550
f 549 550 553
f 566 569 570
f 571 572 573
f 571 573 574
f 571 574 575
f 571 575 576
f 571 576 577
f 571 577 578
f 571 578 579
f 571 579 580
f 571 580 581
f 571 581 572
f 572 581 582
f 572 582 583
f 572 583 584
f 572 584 573
f 573 584 585
f 573 585 586
f 573 586 574
f 574 586 575
f 575 586 587
f 575 587 588
f 575 588 589
f 575 589 576
f 576 590 577
f 576 589 591
f 576 591 592
f 576 592 578
f 576 578 590
f 577 590 578
f 578 593 579
f 578 592 593
f 579 594 595
f 579 595 596
f 579 596 580
f 579 593 594
f 580 596 597
f 580 597 581
f 581 597 622
f 581 622 648
f 581 648 647
f 581 647 646
f 581 646 675
f 581 675 649
f 581 649 623
f 581 623 598
f 581 598 599
f 581 599 600
f 581 600 601
f 581 601 582
f 582 601 602
f 582 602 603
f 582 603 583
f 583 603 584
f 584 603 604
f 584 604 605
f 584 605 586
f 584 586 585
f 586 605 606
f 586 606 587
f 587 606 607
f 587 607 608
f 587 608 588
f 588 608 589
f 589 608 607
f 589 607 609
f 589 609 610
f 589 610 611
f 589 611 591
f 591 612 613
f 591 613 614
f 591 614 592
f 591 611 612
f 592 614 613
f 592 613 615
f 592 615 593
f 593 615 616
f 593 616 594
f 594 616 595
f 595 616 617
f 595 617 618
f 595 618 597
f 595 597 596
f 597 619 620
f 597 620 621
f 597 621 622
f 597 618 619
f 598 623 624
f 598 624 599
f 599 624 625
f 599 625 602
f 599 602 600
f 600 602 601
f 602 625 626
f 602 626 603
f 603 626 604
f 604 627 628
f 604 628 605
f 604 626 627
f 605 628 629
f 605 629 606
f 606 629 630
f 606 630 631
f 606 631 607
f 607 631 609
f 609 631 630
f 609 630 632
f 609 632 633
f 609 633 634
f 609 634 611
f 609 611 610
f 611 634 635
f 611 635 612
f 612 635 613
f 613 635 636
f 613 636 637
f 613 637 638
f 613 638 615
f 615 638 616
f 616 638 639
f 616 639 640
f 616 640 617
f 617 640 641
f 617 641 642
f 617 642 618
f 618 642 619
f 619 642 643
f 619 643 620
f 620 643 644
f 620 644 621
f 621 645 646
f 621 646 647
f 621 647 648
f 621 648 622
f 621 644 645
f 623 649 650
f 623 650 651
f 623 651 624
f 624 651 650
f 624 650 652
f 624 652 653
f 624 653 625
f 625 654 626
f 625 653 654
f 626 655 627
f 626 654 655
f 627 655 628
f 628 656 657
f 628 657 658
f 628 658 629
f 628 655 659
f 628 659 656
f 629 658 630
f 630 658 660
f 630 660 661
f 630 661 632
f 632 661 662
f 632 662 633
f 633 662 663
f 633 663 635
f 633 635 634
f 635 663 664
f 635 664 636
f 636 664 637
f 637 665 666
f 637 666 667
f 637 667 668
f 637 668 669
f 637 669 670
f 637 670 671
f 637 671 640
f 637 640 639
f 637 639 638
f 637 664 672
f 637 672 665
f 640 671 641
f 641 670 643
f 641 643 642
f 641 671 670
f 643 670 644
f 644 670 669
f 644 669 668
f 644 668 673
f 644 673 645
f 645 673 674
f 645 674 646
f 646 674 675
f 649 676 677
f 649 677 650
f 649 675 678
f 649 678 676
f 650 677 679
f 650 679 652
f 652 679 680
f 652 680 659
f 652 659 653
f 653 659 654
f 654 659 655
f 656 659 681
f 656 681 682
f 656 682 683
f 656 683 684
f 656 684 685
f 656 685 686
f 656 686 657
f 657 686 687
f 657 687 660
f 657 660 658
f 659 680 688
f 659 688 681
f 660 687 689
f 660 689 661
f 661 689 662
f 662 689 690
f 662 690 691
f 662 691 692
f 662 692 663
f 663 692 664
f 664 692 672
f 665 672 693
f 665 693 694
f 665 694 695
f 665 695 666
f 666 695 667
f 667 696 697
f 667 697 674
f 667 674 673
f 667 673 668
f 667 695 698
f 667 698 696
f 672 699 700
f 672 700 693
f 672 692 691
f 672 691 699
f 674 697 696
f 674 696 675
f 675 696 701
f 675 701 678
f 676 678 702
f 676 702 677
f 677 702 703
f 677 703 679
f 678 701 704
f 678 704 705
f 678 705 703
f 678 703 702
f 679 706 707
f 679 707 680
f 679 703 706
f 680 707 688
f 681 708 682
f 681 688 709
f 681 709 708
f 682 710 684
f 682 684 683
f 682 708 711
f 682 711 710
f 684 710 685
f 685 710 686
f 686 689 687
f 686 710 689
f 688 707 709
f 689 712 713
f 689 713 690
f 689 710 712
f 690 713 691
f 691 713 712
f 691 712 714
f 691 714 715
f 691 715 700
f 691 700 699
f 693 700 694
f 694 700 716
f 694 716 695
f 695 716 717
f 695 717 718
f 695 718 701
f 695 701 698
f 696 698 701
f 700 715 716
f 701 718 705
f 701 705 704
f 703 705 706
f 705 718 717
f 705 717 719
f 705 719 707
f 705 707 706
f 707 719 720
f 707 720 709
f 708 709 711
f 709 720 711
f 710 711 721
f 710 721 714
f 710 714 712
f 711 722 723
f 711 723 721
f 711 720 716
f 711 716 722
f 714 721 715
f 715 721 723
f 715 723 722
f 715 722 716
f 716 720 719
f 716 719 717
f 724 725 726
f 724 726 727
f 724 727 728
f 724 728 729
f 724 729 730
f 724 730 731
f 724 731 725
f 725 731 732
f 725 732 733
f 725 733 734
f 725 734 726
f 726 734 727
f 727 734 735
f 727 735 736
f 727 736 737
f 727 737 728
f 728 737 738
f 728 738 729
f 729 738 739
f 729 739 730
f 730 739 740
f 730 740 741
f 730 741 742
f 730 742 743
f 730 743 731
f 731 743 744
f 731 744 745
f 731 745 746
f 731 746 732
f 732 746 733
f 733 746 747
f 733 747 748
f 733 748 749
f 733 749 750
f 733 750 751
f 733 751 734
f 734 751 735
f 735 751 752
f 735 752 753
f 735 753 736
f 736 754 755
f 736 755 737
f 736 753 756
f 736 756 754
f 737 755 757
f 737 757 738
f 738 757 758
f 738 758 759
f 738 759 760
f 738 760 761
f 738 761 739
f 739 762 740
f 739 761 762
f 740 762 741
f 741 762 742
f 742 763 743
f 742 762 764
f 742 764 765
f 742 765 766
f 742 766 763
f 743 763 744
f 744 767 745
f 744 763 768
f 744 768 769
f 744 769 767
f 745 767 770
f 745 770 746
f 746 770 771
f 746 771 747
f 747 772 773
f 747 773 774
f 747 774 775
f 747 775 776
f 747 776 750
f 747 750 749
f 747 749 748
f 747 771 772
f 750 752 751
f 750 776 753
f 750 753 752
f 753 776 807
f 753 807 831
f 753 831 860
f 753 860 861
f 753 861 859
f 753 859 862
f 753 862 833
f 753 833 808
f 753 808 778
f 753 778 777
f 753 777 756
f 754 756 755
f 755 756 777
f 755 777 778
f 755 778 779
f 755 779 780
f 755 780 757
f 757 780 781
f 757 781 758
f 758 781 759
f 759 782 760
f 759 781 782
f 760 782 783
f 760 783 784
f 760 784 785
f 760 785 786
f 760 786 787
f 760 787 761
f 761 787 788
f 761 788 789
f 761 789 790
f 761 790 791
f 761 791 762
f 762 791 792
f 762 792 764
f 763 766 793
f 763 793 794
f 763 794 768
f 764 792 788
f 764 788 795
f 764 795 796
f 764 796 793
f 764 793 765
f 765 793 766
f 767 769 797
f 767 797 798
f 767 798 799
f 767 799 770
f 768 794 800
f 768 800 797
f 768 797 769
f 770 799 771
f 771 799 801
f 771 801 772
f 772 801 802
f 772 802 773
f 773 803 804
f 773 804 774
f 773 802 805
f 773 805 803
f 774 804 806
f 774 806 775
f 775 806 807
f 775 807 776
f 778 808 779
f 779 808 809
f 779 809 780
f 780 809 810
f 780 810 781
f 781 810 811
f 781 811 782
f 782 811 783
f 783 812 784
f 783 811 812
f 784 812 813
f 784 813 814
f 784 814 785
f 785 814 815
f 785 815 786
f 786 815 816
f 786 816 787
f 787 816 817
f 787 817 788
f 788 792 789
f 788 817 818
f 788 818 795
f 789 792 790
f 790 792 791
f 793 796 819
f 793 819 820
f 793 820 821
f 793 821 794
f 794 821 800
f 795 818 816
f 795 816 822
f 795 822 820
f 795 820 819
f 795 819 796
f 797 800 823
f 797 823 824
f 797 824 798
f 798 824 799
f 799 824 805
f 799 805 801
f 800 821 825
f 800 825 823
f 801 805 802
f 803 826 804
f 803 805 824
f 803 824 826
f 804 827 828
f 804 828 829
f 804 829 806
f 804 826 830
f 804 830 827
f 806 829 807
f 807 829 832
f 807 832 831
f 808 833 809
f 809 834 810
f 809 833 834
f 810 834 835
f 810 835 836
f 810 836 811
f 811 836 812
f 812 837 813
f 812 836 838
f 812 838 839
f 812 839 837
f 813 837 839
f 813 839 840
f 813 840 841
f 813 841 814
f 814 842 843
f 814 843 815
f 814 841 842
f 815 843 844
f 815 844 845
f 815 845 816
f 816 845 822
f 816 818 817
f 820 822 846
f 820 846 825
f 820 825 821
f 822 845 846
f 823 825 847
f 823 847 848
f 823 848 849
f 823 849 824
f 824 850 851
f 824 851 852
f 824 852 853
f 824 853 830
f 824 830 826
f 824 849 854
f 824 854 855
f 824 855 850
f 825 846 847
f 827 856 828
f 827 830 857
f 827 857 858
f 827 858 856
f 828 856 859
f 828 859 829
f 829 859 832
f 830 853 857
f 831 832 860
f 832 859 861
f 832 861 860
f 833 862 863
f 833 863 838
f 833 838 836
f 833 836 835
f 833 835 834
f 838 863 862
f 838 862 859
f 838 859 882
f 838 882 893
f 838 893 892
f 838 892 883
f 838 883 864
f 838 864 840
f 838 840 839
f 840 864 841
f 841 865 866
f 841 866 842
f 841 864 865
f 842 867 844
f 842 844 843
f 842 866 867
f 844 867 868
f 844 868 845
f 845 868 869
f 845 869 870
f 845 870 846
f 846 870 848
f 846 848 847
f 848 870 871
f 848 871 854
f 848 854 849
f 850 855 872
f 850 872 873
f 850 873 851
f 851 873 852
f 852 873 874
f 852 874 857
f 852 857 853
f 854 871 875
f 854 875 876
f 854 876 855
f 855 876 877
f 855 877 872
f 856 858 878
f 856 878 859
f 857 874 858
f 858 874 878
f 859 878 879
f 859 879 880
f 859 880 881
f 859 881 882
f 864 883 884
f 864 884 865
f 865 884 866
f 866 884 867
f 867 869 868
f 867 884 885
f 867 885 886
f 867 886 869
f 869 886 875
f 869 875 871
f 869 871 870
f 872 887 873
f 872 877 888
f 872 888 886
f 872 886 887
f 873 889 879
f 873 879 874
f 873 887 890
f 873 890 889
f 874 879 878
f 875 886 888
f 875 888 876
f 876 888 877
f 879 889 881
f 879 881 880
f 881 889 890
f 881 890 891
f 881 891 892
f 881 892 893
f 881 893 882
f 883 892 891
f 883 891 894
f 883 894 886
f 883 886 884
f 884 886 885
f 886 894 887
f 887 894 890
f 890 894 891
f 895 896 897
f 895 897 898
f 895 898 899
f 895 899 900
f 895 900 901
f 895 901 902
f 895 902 896
f 896 903 904
f 896 904 897
f 896 902 903
f 897 905 898
f 897 904 905
f 898 906 907
f 898 907 899
f 898 905 906
f 899 907 908
f 899 908 909
f 899 909 900
f 900 909 910
f 900 910 901
f 901 910 911
f 901 911 902
f 902 911 912
f 902 912 913
f 902 913 914
f 902 914 903
f 903 914 913
f 903 913 915
f 903 915 916
f 903 916 904
f 904 916 917
f 904 917 918
f 904 918 919
f 904 919 905
f 905 919 920
f 905 920 906
f 906 920 907
f 907 921 922
f 907 922 908
f 907 920 921
f 908 922 923
f 908 923 924
f 908 924 925
f 908 925 926
f 908 926 927
f 908 927 928
f 908 928 909
f 909 928 929
f 909 929 910
f 910 929 930
f 910 930 911
f 911 930 931
f 911 931 932
f 911 932 912
f 912 932 933
f 912 933 913
f 913 934 935
f 913 935 915
f 913 933 936
f 913 936 937
f 913 937 934
f 915 935 917
f 915 917 916
f 917 938 918
f 917 935 939
f 917 939 940
f 917 940 938
f 918 938 941
f 918 941 919
f 919 942 920
f 919 941 942
f 920 943 944
f 920 944 921
f 920 942 943
f 921 944 945
f 921 945 923
f 921 923 922
f 923 946 947
f 923 947 948
f 923 948 949
f 923 949 950
f 923 950 924
f 923 945 946
f 924 950 951
f 924 951 949
f 924 949 952
f 924 952 953
f 924 953 954
f 924 954 925
f 925 954 927
f 925 927 926
f 927 954 955
f 927 955 928
f 928 955 956
f 928 956 957
f 928 957 929
f 929 958 930
f 929 957 958
f 930 958 959
f 930 959 931
f 931 959 960
f 931 960 961
f 931 961 962
f 931 962 932
f 932 962 936
f 932 936 933
f 934 963 964
f 934 964 965
f 934 965 966
f 934 966 935
f 934 937 967
f 934 967 968
f 934 968 969
f 934 969 970
f 934 970 971
f 934 971 963
f 935 966 939
f 936 962 972
f 936 972 967
f 936 967 937
f 938 940 973
f 938 973 974
f 938 974 941
f 939 966 975
f 939 975 940
f 940 975 976
f 940 976 973
f 941 977 942
f 941 974 977
f 942 977 943
f 943 977 978
f 943 978 944
f 944 978 979
f 944 979 945
f 945 979 980
f 945 980 946
f 946 980 981
f 946 981 947
f 947 982 948
f 947 981 983
f 947 983 982
f 948 982 984
f 948 984 985
f 948 985 986
f 948 986 949
f 949 987 952
f 949 951 988
f 949 988 950
f 949 986 989
f 949 989 987
f 950 988 951
f 952 987 955
f 952 955 953
f 953 955 954
f 955 987 956
f 956 987 990
f 956 990 991
f 956 991 992
f 956 992 957
f 957 992 993
f 957 993 958
f 958 993 959
f 959 993 960
f 960 993 994
f 960 994 961
f 961 994 962
f 962 994 972
f 963 995 996
f 963 996 964
f 963 971 995
f 964 996 965
f 965 996 975
f 965 975 966
f 967 972 997
f 967 997 968
f 968 997 998
f 968 998 999
f 968 999 969
f 969 999 970
f 970 999 1000
f 970 1000 1001
f 970 1001 971
f 971 1002 1003
f 971 1003 995
f 971 1001 1000
f 971 1000 1004
f 971 1004 1005
f 971 1005 1002
f 972 994 1006
f 972 1006 997
f 973 995 1007
f 973 1007 1008
f 973 1008 974
f 973 976 996
f 973 996 995
f 974 1008 977
f 975 996 976
f 977 1008 978
f 978 1008 1007
f 978 1007 1009
f 978 1009 1010
f 978 1010 1011
f 978 1011 1012
f 978 1012 1013
f 978 1013 1014
f 978 1014 983
f 978 983 979
f 979 983 981
f 979 981 980
f 982 983 1015
f 982 1015 984
f 983 1014 1015
f 984 1015 1016
f 984 1016 985
f 985 1017 1018
f 985 1018 991
f 985 991 989
f 985 989 986
f 985 1016 1017
f 987 989 990
f 989 991 990
f 991 1018 1019
f 991 1019 992
f 992 1019 993
f 993 1020 994
f 993 1019 1021
f 993 1021 1020
f 994 1022 1023
f 994 1023 1006
f 994 1020 1022
f 995 1003 1007
f 997 1006 1024
f 997 1024 1025
f 997 1025 998
f 998 1000 999
f 998 1025 1026
f 998 1026 1000
f 1000 1026 1027
f 1000 1027 1004
f 1002 1005 1028
f 1002 1028 1029
f 1002 1029 1003
f 1003 1029 1009
f 1003 1009 1007
f 1004 1030 1005
f 1004 1027 1031
f 1004 1031 1032
f 1004 1032 1030
f 1005 1030 1010
f 1005 1010 1028
f 1006 1023 1024
f 1009 1029 1028
f 1009 1028 1010
f 1010 1030 1033
f 1010 1033 1011
f 1011 1033 1012
f 1012 1033 1034
f 1012 1034 1035
f 1012 1035 1036
f 1012 1036 1013
f 1013 1036 1037
f 1013 1037 1038
f 1013 1038 1015
f 1013 1015 1014
f 1015 1038 1016
f 1016 1039 1017
f 1016 1038 1037
f 1016 1037 1039
f 1017 1040 1018
f 1017 1039 1040
f 1018 1040 1041
f 1018 1041 1042
f 1018 1042 1021
f 1018 1021 1019
f 1020 1021 1043
f 1020 1043 1044
f 1020 1044 1045
f 1020 1045 1046
f 1020 1046 1047
f 1020 1047 1022
f 1021 1042 1043
f 1022 1047 1048
f 1022 1048 1049
f 1022 1049 1023
f 1023 1049 1024
f 1024 1031 1026
f 1024 1026 1025
f 1024 1049 1031
f 1026 1031 1027
f 1030 1032 1033
f 1031 1049 1050
f 1031 1050 1051
f 1031 1051 1032
f 1032 1051 1033
f 1033 1051 1034
f 1034 1051 1035
f 1035 1051 1052
f 1035 1052 1053
f 1035 1053 1036
f 1036 1053 1054
f 1036 1054 1037
f 1037 1054 1039
f 1039 1054 1055
f 1039 1055 1056
f 1039 1056 1040
f 1040 1056 1057
f 1040 1057 1058
f 1040 1058 1043
f 1040 1043 1041
f 1041 1043 1042
f 1043 1059 1044
f 1043 1058 1059
f 1044 1059 1045
f 1045 1059 1046
f 1046 1059 1047
f 1047 1060 1048
f 1047 1059 1058
f 1047 1058 1061
f 1047 1061 1060
f 1048 1060 1049
f 1049 1060 1061
f 1049 1061 1050
f 1050 1061 1052
f 1050 1052 1051
f 1052 1061 1062
f 1052 1062 1053
f 1053 1062 1055
f 1053 1055 1054
f 1055 1062 1063
f 1055 1063 1058
f 1055 1058 1057
f 1055 1057 1056
f 1058 1063 1061
f 1061 1063 1062
f 1064 1065 1066
f 1064 1066 1067
f 1064 1067 1068
f 1064 1068 1069
f 1064 1069 1070
f 1064 1070 1071
f 1064 1071 1072
f 1064 1072 1065
f 1065 1073 1075
f 1065 1075 1066
f 1065 1072 1083
f 1065 1083 1073
f 1066 1074 1067
f 1066 1075 1084
f 1066 1084 1097
f 1066 1097 1108
f 1066 1108 1117
f 1066 1117 1116
f 1066 1116 1109
f 1066 1109 1099
f 1066 1099 1086
f 1066 1086 1076
f 1066 1076 1074
f 1067 1074 1076
f 1067 1076 1068
f 1068 1077 1069
f 1068 1076 1077
f 1069 1077 1078
f 1069 1078 1079
f 1069 1079 1070
f 1070 1080 1081
f 1070 1081 1082
f 1070 1082 1072
f 1070 1072 1071
f 1070 1079 1080
f 1072 1082 1081
f 1072 1081 1091
f 1072 1091 1101
f 1072 1101 1110
f 1072 1110 1122
f 1072 1122 1126
f 1072 1126 1125
f 1072 1125 1124
f 1072 1124 1123
f 1072 1123 1128
f 1072 1128 1127
f 1072 1127 1121
f 1072 1121 1120
f 1072 1120 1119
f 1072 1119 1118
f 1072 1118 1114
f 1072 1114 1106
f 1072 1106 1096
f 1072 1096 1083
f 1073 1083 1075
f 1075 1083 1085
f 1075 1085 1084
f 1076 1086 1087
f 1076 1087 1078
f 1076 1078 1077
f 1078 1087 1079
f 1079 1087 1088
f 1079 1088 1089
f 1079 1089 1090
f 1079 1090 1080
f 1080 1090 1081
f 1081 1090 1089
f 1081 1089 1092
f 1081 1092 1093
f 1081 1093 1094
f 1081 1094 1095
f 1081 1095 1091
f 1083 1096 1085
f 1084 1085 1098
f 1084 1098 1097
f 1085 1096 1098
f 1086 1099 1087
f 1087 1100 1095
f 1087 1095 1088
f 1087 1099 1100
f 1088 1095 1094
f 1088 1094 1093
f 1088 1093 1092
f 1088 1092 1089
f 1091 1095 1102
f 1091 1102 1103
f 1091 1103 1101
f 1095 1100 1104
f 1095 1104 1105
f 1095 1105 1102
f 1096 1106 1107
f 1096 1107 1098
f 1097 1098 1108
f 1098 1107 1108
f 1099 1109 1104
f 1099 1104 1100
f 1101 1103 1111
f 1101 1111 1110
f 1102 1105 1112
f 1102 1112 1103
f 1103 1112 1109
f 1103 1109 1113
f 1103 1113 1111
f 1104 1109 1105
f 1105 1109 1112
f 1106 1114 1107
f 1107 1115 1116
f 1107 1116 1117
f 1107 1117 1108
f 1107 1114 1118
f 1107 1118 1119
f 1107 1119 1120
f 1107 1120 1121
f 1107 1121 1115
f 1109 1116 1111
f 1109 1111 1113
f 1110 1111 1122
f 1111 1116 1115
f 1111 1115 1123
f 1111 1123 1124
f 1111 1124 1125
f 1111 1125 1126
f 1111 1126 1122
f 1115 1121 1127
f 1115 1127 1128
f 1115 1128 1123
f 1129 1130 1131
f 1129 1131 1132
f 1129 1132 1133
f 1129 1133 1134
f 1129 1134 1135
f 1129 1135 1136
f 1129 1136 1137
f 1129 1137 1138
f 1129 1138 1139
f 1129 1139 1130
f 1130 1140 1131
f 1130 1139 1140
f 1131 1141 1132
f 1131 1140 1141
f 1132 1141 1142
f 1132 1142 1143
f 1132 1143 1144
f 1132 1144 1145
f 1132 1145 1133
f 1133 1146 1134
f 1133 1145 1147
f 1133 1147 1148
f 1133 1148 1149
f 1133 1149 1146
f 1134 1146 1135
f 1135 1146 1150
f 1135 1150 1151
f 1135 1151 1152
f 1135 1152 1153
f 1135 1153 1136
f 1136 1153 1154
f 1136 1154 1155
f 1136 1155 1137
f 1137 1155 1156
f 1137 1156 1157
f 1137 1157 1138
f 1138 1157 1158
f 1138 1158 1159
f 1138 1159 1160
f 1138 1160 1161
f 1138 1161 1139
f 1139 1162 1140
f 1139 1161 1162
f 1140 1162 1163
f 1140 1163 1164
f 1140 1164 1141
f 1141 1165 1142
f 1141 1164 1165
f 1142 1166 1143
f 1142 1165 1166
f 1143 1166 1144
f 1144 1166 1145
f 1145 1167 1168
f 1145 1168 1169
f 1145 1169 1147
f 1145 1166 1167
f 1146 1149 1150
f 1147 1169 1170
f 1147 1170 1150
f 1147 1150 1148
f 1148 1150 1149
f 1150 1171 1151
f 1150 1170 1172
f 1150 1172 1173
f 1150 1173 1174
f 1150 1174 1175
f 1150 1175 1171
f 1151 1171 1176
f 1151 1176 1152
f 1152 1176 1153
f 1153 1176 1154
f 1154 1177 1155
f 1154 1176 1178
f 1154 1178 1177
f 1155 1177 1156
f 1156 1177 1179
f 1156 1179 1180
f 1156 1180 1157
f 1157 1180 1181
f 1157 1181 1182
f 1157 1182 1158
f 1158 1182 1159
f 1159 1182 1183
f 1159 1183 1184
f 1159 1184 1185
f 1159 1185 1160
f 1160 1185 1186
f 1160 1186 1187
f 1160 1187 1188
f 1160 1188 1161
f 1161 1188 1162
f 1162 1188 1163
f 1163 1189 1211
f 1163 1211 1234
f 1163 1234 1260
f 1163 1260 1286
f 1163 1286 1308
f 1163 1308 1324
f 1163 1324 1309
f 1163 1309 1287
f 1163 1287 1261
f 1163 1261 1235
f 1163 1235 1212
f 1163 1212 1190
f 1163 1190 1165
f 1163 1165 1164
f 1163 1188 1187
f 1163 1187 1189
f 1165 1190 1191
f 1165 1191 1192
f 1165 1192 1166
f 1166 1192 1167
f 1167 1192 1191
f 1167 1191 1168
f 1168 1193 1194
f 1168 1194 1195
f 1168 1195 1196
f 1168 1196 1197
f 1168 1197 1169
f 1168 1191 1193
f 1169 1172 1170
f 1169 1197 1172
f 1171 1175 1176
f 1172 1197 1173
f 1173 1197 1196
f 1173 1196 1198
f 1173 1198 1199
f 1173 1199 1200
f 1173 1200 1201
f 1173 1201 1174
f 1174 1201 1175
f 1175 1201 1176
f 1176 1201 1200
f 1176 1200 1202
f 1176 1202 1178
f 1177 1203 1179
f 1177 1178 1202
f 1177 1202 1221
f 1177 1221 1251
f 1177 1251 1253
f 1177 1253 1224
f 1177 1224 1203
f 1179 1203 1204
f 1179 1204 1180
f 1180 1204 1181
f 1181 1184 1183
f 1181 1183 1182
f 1181 1204 1205
f 1181 1205 1206
f 1181 1206 1207
f 1181 1207 1184
f 1184 1207 1206
f 1184 1206 1185
f 1185 1208 1186
f 1185 1206 1209
f 1185 1209 1210
f 1185 1210 1208
f 1186 1208 1187
f 1187 1208 1211
f 1187 1211 1189
f 1190 1212 1213
f 1190 1213 1193
f 1190 1193 1191
f 1193 1213 1194
f 1194 1214 1195
f 1194 1213 1214
f 1195 1214 1196
f 1196 1214 1215
f 1196 1215 1216
f 1196 1216 1217
f 1196 1217 1218
f 1196 1218 1219
f 1196 1219 1198
f 1198 1219 1199
f 1199 1219 1220
f 1199 1220 1200
f 1200 1220 1221
f 1200 1221 1222
f 1200 1222 1223
f 1200 1223 1202
f 1202 1223 1222
f 1202 1222 1221
f 1203 1224 1225
f 1203 1225 1226
f 1203 1226 1204
f 1204 1226 1205
f 1205 1226 1227
f 1205 1227 1228
f 1205 1228 1229
f 1205 1229 1206
f 1206 1229 1209
f 1208 1210 1230
f 1208 1230 1211
f 1209 1229 1228
f 1209 1228 1231
f 1209 1231 1232
f 1209 1232 1233
f 1209 1233 1210
f 1210 1233 1230
f 1211 1230 1234
f 1212 1235 1236
f 1212 1236 1237
f 1212 1237 1238
f 1212 1238 1239
f 1212 1239 1213
f 1213 1239 1240
f 1213 1240 1241
f 1213 1241 1215
f 1213 1215 1214
f 1215 1241 1216
f 1216 1241 1240
f 1216 1240 1242
f 1216 1242 1217
f 1217 1243 1244
f 1217 1244 1218
f 1217 1242 1245
f 1217 1245 1246
f 1217 1246 1247
f 1217 1247 1243
f 1218 1244 1219
f 1219 1248 1249
f 1219 1249 1220
f 1219 1244 1248
f 1220 1249 1221
f 1221 1250 1251
f 1221 1249 1250
f 1224 1252 1225
f 1224 1253 1279
f 1224 1279 1252
f 1225 1254 1255
f 1225 1255 1227
f 1225 1227 1226
f 1225 1252 1254
f 1227 1255 1228
f 1228 1255 1256
f 1228 1256 1257
f 1228 1257 1231
f 1230 1233 1258
f 1230 1258 1234
f 1231 1257 1232
f 1232 1258 1233
f 1232 1257 1259
f 1232 1259 1260
f 1232 1260 1234
f 1232 1234 1258
f 1235 1261 1236
f 1236 1261 1262
f 1236 1262 1263
f 1236 1263 1264
f 1236 1264 1237
f 1237 1264 1265
f 1237 1265 1266
f 1237 1266 1246
f 1237 1246 1238
f 1238 1246 1245
f 1238 1245 1239
f 1239 1245 1242
f 1239 1242 1240
f 1243 1267 1248
f 1243 1248 1244
f 1243 1247 1267
f 1246 1266 1265
f 1246 1265 1268
f 1246 1268 1247
f 1247 1268 1269
f 1247 1269 1270
f 1247 1270 1267
f 1248 1267 1270
f 1248 1270 1271
f 1248 1271 1272
f 1248 1272 1249
f 1249 1272 1273
f 1249 1273 1250
f 1250 1273 1274
f 1250 1274 1251
f 1251 1274 1275
f 1251 1275 1276
f 1251 1276 1253
f 1252 1277 1278
f 1252 1278 1254
f 1252 1279 1277
f 1253 1276 1279
f 1254 1278 1255
f 1255 1280 1256
f 1255 1278 1280
f 1256 1281 1282
f 1256 1282 1257
f 1256 1280 1281
f 1257 1282 1259
f 1259 1282 1283
f 1259 1283 1284
f 1259 1284 1285
f 1259 1285 1286
f 1259 1286 1260
f 1261 1287 1262
f 1262 1287 1288
f 1262 1288 1289
f 1262 1289 1263
f 1263 1289 1290
f 1263 1290 1265
f 1263 1265 1264
f 1265 1290 1291
f 1265 1291 1268
f 1268 1291 1292
f 1268 1292 1271
f 1268 1271 1269
f 1269 1271 1270
f 1271 1292 1291
f 1271 1291 1293
f 1271 1293 1274
f 1271 1274 1272
f 1272 1274 1273
f 1274 1293 1275
f 1275 1293 1294
f 1275 1294 1276
f 1276 1294 1295
f 1276 1295 1296
f 1276 1296 1279
f 1277 1279 1297
f 1277 1297 1298
f 1277 1298 1299
f 1277 1299 1278
f 1278 1299 1280
f 1279 1296 1297
f 1280 1300 1281
f 1280 1299 1301
f 1280 1301 1300
f 1281 1300 1302
f 1281 1302 1303
f 1281 1303 1305
f 1281 1305 1282
f 1282 1304 1283
f 1282 1305 1304
f 1283 1304 1284
f 1284 1304 1305
f 1284 1305 1306
f 1284 1306 1307
f 1284 1307 1308
f 1284 1308 1286
f 1284 1286 1285
f 1287 1309 1310
f 1287 1310 1288
f 1288 1310 1289
f 1289 1310 1290
f 1290 1311 1312
f 1290 1312 1291
f 1290 1310 1313
f 1290 1313 1311
f 1291 1312 1293
f 1293 1312 1311
f 1293 1311 1294
f 1294 1311 1295
f 1295 1311 1314
f 1295 1314 1315
f 1295 1315 1297
f 1295 1297 1296
f 1297 1315 1298
f 1298 1316 1301
f 1298 1301 1299
f 1298 1315 1316
f 1300 1301 1302
f 1301 1316 1317
f 1301 1317 1303
f 1301 1303 1302
f 1303 1317 1318
f 1303 1318 1320
f 1303 1320 1305
f 1305 1319 1307
f 1305 1307 1306
f 1305 1320 1319
f 1307 1319 1321
f 1307 1321 1322
f 1307 1322 1323
f 1307 1323 1324
f 1307 1324 1308
f 1309 1324 1322
f 1309 1322 1310
f 1310 1322 1325
f 1310 1325 1313
f 1311 1325 1314
f 1311 1313 1325
f 1314 1325 1318
f 1314 1318 1315
f 1315 1318 1316
f 1316 1318 1317
f 1318 1325 1320
f 1319 1320 1321
f 1320 1325 1322
f 1320 1322 1321
f 1322 1324 1323

