# https://github.com/mikedh/trimesh
v -0.00692064 -0.07785328 0.08987611
v 0.00011782 -0.07782514 0.08987611
v 0.00690490 -0.07613710 1.04506505
v -0.00140439 -0.07613710 1.04506505
v -0.03074525 -0.07781108 0.08987611
v 0.00011782 0.06585529 0.08987611
v 0.06877071 -0.01290589 0.09501857
v 0.06874277 -0.02676190 0.09501857
v 0.06854726 -0.04060384 0.09501857
v 0.06789090 -0.05445984 0.09501857
v 0.06347790 -0.06457403 0.09501857
v 0.06205345 -0.06771097 0.09501857
v 0.04845135 -0.07138246 0.09501857
v 0.02075837 -0.07330964 1.04506505
v -0.00689271 -0.07612304 1.04506505
v -0.04457080 -0.07769854 0.08987611
v 0.04833963 0.05941260 0.09501857
v 0.04845135 0.05938447 0.09501857
v 0.06157863 0.05588178 0.09501857
v 0.06202552 0.05572705 0.09501857
v 0.06226293 0.05540351 0.09501857
v 0.06772332 0.04437497 0.09501857
v 0.06786297 0.04246186 0.09501857
v 0.06851933 0.03074404 0.09501857
v 0.06871484 0.01694430 0.09501857
v 0.06874277 0.00313050 0.09501857
v -0.00692064 0.06584123 0.08987611
v -0.00689271 0.06413912 1.04506505
v 0.00690490 0.06413912 1.04506505
v 0.06432977 0.00090791 1.04506505
v 0.06431580 -0.01290589 1.04506505
v 0.06379910 -0.02513012 1.04506505
v 0.06370134 -0.02674783 1.04506505
v 0.06152277 -0.03897206 1.04506505
v 0.06107588 -0.04074451 1.04506505
v 0.05748682 -0.04991620 1.04506505
v 0.05720752 -0.05047888 1.04506505
v 0.04940099 -0.05804693 1.04506505
v 0.04311665 -0.06297038 1.04506505
v 0.03579888 -0.06778130 1.04506505
v 0.03518442 -0.06803451 1.04506505
v -0.05817290 -0.07738906 0.08987611
v -0.01710126 -0.07409739 1.04506505
v 0.01707156 0.06215567 1.04506505
v 0.02075837 0.06131165 1.04506505
v 0.03517045 0.05602245 1.04506505
v 0.04940099 0.04602081 1.04506505
v 0.05719356 0.03848090 1.04506505
v 0.06106192 0.02874652 1.04506505
v 0.06370134 0.01474985 1.04506505
v -0.02077411 0.06579903 0.08987611
v -0.02074618 0.06126945 1.04506505
v -0.03461362 0.06570056 0.08987611
v -0.04842519 0.06554582 0.08987611
v -0.06232056 0.06419539 0.08987611
v -0.02074618 -0.07326743 1.04506505
v -0.06232056 -0.07619337 0.08987611
v -0.03517222 0.05602245 1.04506505
v -0.07155155 0.05624753 0.08987611
v -0.04940275 0.04599268 1.04506505
v -0.04307652 0.05097240 1.04506505
v -0.03578669 0.05578332 1.04506505
v -0.03518619 -0.06800637 1.04506505
v -0.06839541 -0.07395671 0.08987611
v -0.07373012 0.04246186 0.08987611
v -0.06361932 0.01474985 1.04506505
v -0.06144075 0.02697408 1.04506505
v -0.06100783 0.02874652 1.04506505
v -0.05744671 0.03784788 1.04506505
v -0.05715343 0.03843870 1.04506505
v -0.04940275 -0.05801879 1.04506505
v -0.07157948 -0.06823144 0.08987611
v -0.04973792 -0.05769525 1.04506505
v -0.05713947 -0.05040854 1.04506505
v -0.07382787 0.02861992 0.08987611
v -0.06424776 0.00090791 1.04506505
v -0.06373104 0.01313214 1.04506505
v -0.07303186 -0.06531957 0.08987611
v -0.06097990 -0.04074451 1.04506505
v -0.07386977 0.01476392 0.08987611
v -0.06426172 -0.01290589 1.04506505
v -0.07375805 -0.05445984 0.08987611
v -0.06361932 -0.02674783 1.04506505
v -0.07389770 -0.03864852 0.08987611
v -0.07385580 -0.05249046 0.08987611
v 0.02766841 -0.13310422 1.09516072
v -0.03459562 -0.13309178 1.10209227
v 0.00000379 -0.13080224 1.06729257
v 0.04295479 -0.13144928 1.09281576
v 0.03003593 -0.13144928 1.07975614
v -0.04289128 -0.13144928 1.09289348
v -0.02995378 -0.13144928 1.07978201
v -0.04244387 -0.13122530 1.15173936
v -0.05282743 -0.12761679 1.11592913
v 0.00003176 -0.13311666 1.15743995
v -0.03517352 -0.06796441 1.04500830
v 0.00004108 -0.07605245 1.04500830
v -0.01116272 -0.12973213 1.06845856
v 0.01115166 -0.12970725 1.06848454
v 0.02824631 -0.07051525 1.04500830
v 0.03926369 -0.12701952 1.08359110
v 0.05732772 -0.05015828 1.04500830
v 0.05591093 -0.11898126 1.10735238
v 0.05315193 -0.12811452 1.11592913
v 0.07006015 -0.06328579 1.07973027
v 0.04252603 -0.13127509 1.15189481
v -0.05258508 -0.12677066 1.12974024
v -0.05582878 -0.11865775 1.10758555
v -0.07001528 -0.06326091 1.07978201
v -0.05709643 -0.05036982 1.04500830
v -0.03918153 -0.12694487 1.08364296
v 0.00003176 -0.13187236 1.16746795
v -0.02879798 -0.13117553 1.16513586
v 0.10300043 -0.05445116 1.26821339
v 0.09781797 -0.06304937 1.27513182
v 0.05285365 -0.12721862 1.12974024
v 0.06237968 -0.03368357 1.04500830
v 0.07583915 -0.06826305 1.10211813
v 0.02891742 -0.13120042 1.16518772
v -0.07795674 -0.06826305 1.12971425
v -0.07703397 -0.06826305 1.10902369
v -0.06227888 -0.03368357 1.04500830
v 0.06230510 -0.07358871 1.29897070
v -0.07042541 -0.07204576 1.15293133
v 0.01355647 -0.04785630 1.28938341
v -0.06908318 -0.05982660 1.16409934
v 0.07820667 -0.06826305 1.11592913
v 0.10781005 -0.04061440 1.26821339
v 0.08310950 -0.07523120 1.28902054
v 0.09692317 -0.06136955 1.28896880
v 0.07995901 -0.04053974 1.10211813
v 0.07917605 -0.05437651 1.10211813
v -0.07827365 -0.05437651 1.14357722
v -0.08121908 -0.04745812 1.12971425
v -0.08118179 -0.05437651 1.11592913
v -0.07911254 -0.05437651 1.10211813
v -0.07577564 -0.04745812 1.08828115
v 0.05119452 -0.06475408 1.30495644
v 0.07615606 -0.06522692 1.30521560
v 0.02682952 -0.03630907 1.30329812
v 0.10861165 -0.02675275 1.26821339
v 0.10295383 -0.03368357 1.28205025
v 0.09752902 -0.00599760 1.28974617
v 0.08402295 -0.06281295 1.30355716
v 0.06429979 -0.00597271 1.04500830
v -0.06954923 -0.04556677 1.16481197
v -0.06423628 -0.00597271 1.04500830
v 0.07615606 -0.05445116 1.30757356
v 0.06230510 -0.05445116 1.30964649
v 0.01208376 -0.02675275 1.29145634
v 0.10861165 0.01475755 1.26821339
v 0.07997765 0.02856943 1.10211813
v -0.07825501 0.04240619 1.14357722
v -0.06962380 0.02856943 1.16492856
v -0.07806860 0.02856943 1.09519970
v 0.07615606 0.04245597 1.30757356
v 0.06230510 0.04245597 1.30964649
v 0.10300043 0.02167593 1.28205025
v 0.08402295 0.05081775 1.30355716
v 0.06235171 0.02172570 1.04500830
v -0.08097673 0.04240619 1.12971425
v -0.08120044 0.04240619 1.11592913
v -0.06241870 0.02128397 1.04500830
v 0.06923059 0.05394099 1.30573380
v 0.02681088 0.02428899 1.30329812
v 0.01208376 0.01475755 1.29145634
v 0.10794055 0.02859432 1.26821339
v 0.09694180 0.04944901 1.28902054
v 0.07002287 0.05129059 1.07978201
v 0.07919469 0.04240619 1.10211813
v -0.06964245 0.06385816 1.15140259
v -0.07795674 0.05626785 1.12971425
v -0.06908318 0.04783140 1.16409934
v -0.07715514 0.04240619 1.09519970
v 0.08292308 0.06318623 1.28876150
v 0.06230510 0.06159351 1.29899669
v 0.05119452 0.05275888 1.30495644
v 0.01355647 0.03588599 1.28938341
v 0.10314957 0.04245597 1.26821339
v 0.09785526 0.05107906 1.27513182
v 0.07704155 0.05626785 1.10902369
v 0.05715994 0.03849905 1.04500830
v -0.05258508 0.11450171 1.12974024
v -0.05282743 0.11539762 1.11592913
v -0.07702465 0.05626785 1.10902369
v -0.07001528 0.05129059 1.07978201
v 0.05281637 0.11517365 1.12974024
v 0.04250738 0.11927988 1.15186894
v 0.02889878 0.11920522 1.16518772
v 0.00003176 0.11985227 1.16746795
v -0.02879798 0.11918034 1.16513586
v 0.05591093 0.10698607 1.10735238
v 0.05311464 0.11606956 1.11592913
v 0.03003593 0.11945409 1.07975614
v 0.03928233 0.11512388 1.08359110
v 0.04295479 0.11942921 1.09281576
v -0.04244387 0.11923011 1.15173936
v -0.05575421 0.10643857 1.10781872
v -0.05713371 0.03839951 1.04500830
v 0.00003176 0.12112147 1.15741408
v 0.03516246 0.05601899 1.04500830
v 0.01111438 0.11766227 1.06853628
v 0.02765909 0.12110902 1.09518671
v -0.00002417 0.11878216 1.06729257
v -0.04289128 0.11942921 1.09291947
v -0.03918153 0.11477547 1.08366883
v -0.02993514 0.11945409 1.07978201
v -0.03457698 0.12109658 1.10211813
v 0.01383610 0.06268851 1.04500830
v -0.01116272 0.11776182 1.06845856
v -0.01379123 0.06268851 1.04500830
v -0.03548111 0.05586967 1.04500830
v -0.38229647 0.31946310 -0.07506671
v -0.37898502 0.31946310 -0.06208680
v -0.37833571 0.33327192 -0.06269857
v -0.38098705 0.33327192 -0.07506671
v -0.37653929 0.33327192 -0.08394112
v -0.37716696 0.31946310 -0.08428020
v -0.37616053 0.30562186 -0.08367573
v -0.38019708 0.30562186 -0.07506671
v -0.37793529 0.30562186 -0.06314819
v -0.35351047 0.31945232 -0.01131697
v -0.35086995 0.33103177 -0.01131697
v -0.37585753 0.34711319 -0.06558788
v -0.37403947 0.35423404 -0.06791705
v -0.37403947 0.35423404 -0.06888999
v -0.37623626 0.34744868 -0.07413062
v -0.37519738 0.34303331 -0.08305658
v -0.36757883 0.34744868 -0.08447178
v -0.36696199 0.33327192 -0.08625555
v -0.36696199 0.31946310 -0.08659455
v -0.36696199 0.30562186 -0.08598283
v -0.36705938 0.29219180 -0.08417694
v -0.37473205 0.29709414 -0.08271758
v -0.37606314 0.29489729 -0.07506671
v -0.37592244 0.29521114 -0.06548470
v -0.35059941 0.30812171 -0.01131697
v -0.35290447 0.31706065 -0.01131697
v -0.35025313 0.33282822 -0.01131697
v -0.36026329 0.36805367 -0.06789497
v -0.36026329 0.36805367 -0.06898582
v -0.36643171 0.36041337 -0.07355572
v -0.37260014 0.35226443 -0.07811821
v -0.36336917 0.35737237 -0.08352832
v -0.35343474 0.36159295 -0.08447178
v -0.35312089 0.34711319 -0.08660933
v -0.35312089 0.30562186 -0.08660933
v -0.35312089 0.29175892 -0.08649138
v -0.36249259 0.28258193 -0.08337355
v -0.37162617 0.28796044 -0.07506671
v -0.36383450 0.28129411 -0.06457809
v -0.33927980 0.30173677 -0.01131697
v -0.34892204 0.26966053 -0.06619965
v -0.33881447 0.34424537 -0.01131697
v -0.35312089 0.36985010 -0.06558053
v -0.33926898 0.37497970 -0.07506671
v -0.35343474 0.37023970 -0.07418960
v -0.35829374 0.36662516 -0.07821400
v -0.34904107 0.36918995 -0.08304923
v -0.33926898 0.37054271 -0.08393377
v -0.33926898 0.36097610 -0.08624812
v -0.32544953 0.36097610 -0.08659455
v -0.31160846 0.34711319 -0.08660933
v -0.33926898 0.29175892 -0.08660933
v -0.32544953 0.27789602 -0.08582063
v -0.33926898 0.27789602 -0.08525314
v -0.35201710 0.27795014 -0.08386005
v -0.34664947 0.27078599 -0.08218690
v -0.35551250 0.27356723 -0.07506671
v -0.36472186 0.28049329 -0.07506671
v -0.36913717 0.28524411 -0.07506671
v -0.32544953 0.30015677 -0.01131697
v -0.33926898 0.26821038 -0.06430540
v -0.34857574 0.26984450 -0.07506671
v -0.33926898 0.26711735 -0.07506671
v -0.33701804 0.34485143 -0.01131697
v -0.33926898 0.37233916 -0.06270592
v -0.32544953 0.37632161 -0.07506671
v -0.32544953 0.37119201 -0.08428020
v -0.31160846 0.36097610 -0.08593858
v -0.29775652 0.34711319 -0.08646926
v -0.29775652 0.33327192 -0.08660933
v -0.31160846 0.29175892 -0.08660933
v -0.31052625 0.27669477 -0.08440550
v -0.31443295 0.26989859 -0.08293871
v -0.32544953 0.26922765 -0.08350620
v -0.29775652 0.29175892 -0.08607866
v -0.33926898 0.26989859 -0.08293871
v -0.32525474 0.30020005 -0.01131697
v -0.32544953 0.26752859 -0.06350936
v -0.31160846 0.26862162 -0.06487294
v -0.32544953 0.26576462 -0.07506671
v -0.32544953 0.34694007 -0.01131697
v -0.32544953 0.37301010 -0.06208680
v -0.31160846 0.37193874 -0.06315553
v -0.31160846 0.37414640 -0.07506671
v -0.31160846 0.37009901 -0.08363158
v -0.29824352 0.36103022 -0.08412535
v -0.28863376 0.35645252 -0.08333673
v -0.28396955 0.34599853 -0.08383051
v -0.28392628 0.33327192 -0.08524571
v -0.28392628 0.31946310 -0.08584275
v -0.29775652 0.30562186 -0.08660933
v -0.29775652 0.28065562 -0.08377157
v -0.31052625 0.26843765 -0.07612070
v -0.30521277 0.27128381 -0.08144240
v -0.28270340 0.30452883 -0.08442754
v -0.28666419 0.29175892 -0.08377157
v -0.28900170 0.28524411 -0.08302711
v -0.29125264 0.28524411 -0.08349150
v -0.29125264 0.28299317 -0.08302711
v -0.31252831 0.30514568 -0.01131697
v -0.30309168 0.27005011 -0.06678934
v -0.31479007 0.34394237 -0.01131697
v -0.30119786 0.36993667 -0.06548470
v -0.30095980 0.37000161 -0.07506671
v -0.30318910 0.36868131 -0.08265856
v -0.28653434 0.35869268 -0.07506671
v -0.27959755 0.34950486 -0.07506671
v -0.27677307 0.34064168 -0.08217947
v -0.29402301 0.36561871 -0.07506671
v -0.27588567 0.33327192 -0.08293871
v -0.27519307 0.31946310 -0.08352832
v -0.27586403 0.30841389 -0.08297552
v -0.30309168 0.27005011 -0.07221422
v -0.29818940 0.27437890 -0.07612070
v -0.28959689 0.28358835 -0.08282810
v -0.27729249 0.29918277 -0.08144979
v -0.31140283 0.30563265 -0.01131697
v -0.28791952 0.28192177 -0.07506671
v -0.28819007 0.28220317 -0.06530781
v -0.30854589 0.33328274 -0.01131697
v -0.27565840 0.34292510 -0.06619231
v -0.28731349 0.35784858 -0.06457074
v -0.27584237 0.34257880 -0.07506671
v -0.27311528 0.33327192 -0.07506671
v -0.27174091 0.31946310 -0.07506671
v -0.27441391 0.30452883 -0.07612810
v -0.28036591 0.29217017 -0.07612810
v -0.27604800 0.29706168 -0.07222161
v -0.27604800 0.29706168 -0.06678195
v -0.30581880 0.31869477 -0.01131697
v -0.27420828 0.33327192 -0.06429063
v -0.30567810 0.31945232 -0.01131697
v -0.27353734 0.31946310 -0.06350197
v -0.27461952 0.30562186 -0.06486559
v -0.38231921 -0.33144712 -0.07506663
v -0.37900811 -0.33144712 -0.06208664
v -0.37793690 -0.31760606 -0.06315541
v -0.38014430 -0.31760606 -0.07506663
v -0.37610826 -0.31760606 -0.08363149
v -0.37717944 -0.33144712 -0.08428012
v -0.37653026 -0.34526658 -0.08393369
v -0.38096663 -0.34526658 -0.07506663
v -0.37832645 -0.34526658 -0.06270580
v -0.35282245 -0.33368725 -0.01131655
v -0.35294148 -0.33144712 -0.01131655
v -0.34986848 -0.31891549 -0.01131655
v -0.37591347 -0.30719545 -0.06548458
v -0.37600002 -0.30695739 -0.07506663
v -0.37467992 -0.30918670 -0.08265856
v -0.36702985 -0.30424112 -0.08412535
v -0.36696491 -0.31760606 -0.08593858
v -0.36696491 -0.33144712 -0.08659455
v -0.36696491 -0.34526658 -0.08624812
v -0.36758167 -0.35943234 -0.08447178
v -0.37517765 -0.35503867 -0.08304923
v -0.37622726 -0.35943234 -0.07418952
v -0.37404153 -0.36626089 -0.06898570
v -0.37404153 -0.36626089 -0.06789485
v -0.37584853 -0.35911849 -0.06558041
v -0.35085315 -0.34301564 -0.01131655
v -0.33927521 -0.31454349 -0.01131655
v -0.34890544 -0.28165600 -0.06619218
v -0.36383775 -0.29331109 -0.06457061
v -0.37161770 -0.30002061 -0.07506663
v -0.36245272 -0.29463136 -0.08333665
v -0.35311463 -0.30375412 -0.08646926
v -0.35311463 -0.35911849 -0.08661667
v -0.35311463 -0.31760606 -0.08661667
v -0.35343924 -0.37357643 -0.08447178
v -0.36337250 -0.36936677 -0.08352832
v -0.37261319 -0.36429134 -0.07821397
v -0.36641306 -0.37242931 -0.07355563
v -0.36022371 -0.38003707 -0.06888991
v -0.36022371 -0.38003707 -0.06791697
v -0.33702454 -0.35686755 -0.01131655
v -0.33872336 -0.31434867 -0.01131655
v -0.33926436 -0.28020588 -0.06429051
v -0.33926436 -0.27911288 -0.07506663
v -0.34856999 -0.28183997 -0.07506663
v -0.35549513 -0.28559515 -0.07506663
v -0.36469257 -0.29253194 -0.07506663
v -0.34664395 -0.28277066 -0.08217947
v -0.35200012 -0.28996715 -0.08383051
v -0.33926436 -0.28992388 -0.08524571
v -0.32545739 -0.28992388 -0.08584275
v -0.33926436 -0.30375412 -0.08661667
v -0.31160712 -0.35911849 -0.08661667
v -0.32545739 -0.37295958 -0.08659455
v -0.33926436 -0.37295958 -0.08625547
v -0.33926436 -0.38253689 -0.08394112
v -0.34903529 -0.38119498 -0.08305658
v -0.35826522 -0.37859774 -0.07812552
v -0.35343924 -0.38223386 -0.07413054
v -0.33926436 -0.38698465 -0.07506663
v -0.35311463 -0.38185513 -0.06558776
v -0.32766476 -0.35912931 -0.01131655
v -0.33926436 -0.38433331 -0.06269841
v -0.32625809 -0.31178391 -0.01131655
v -0.32545739 -0.27953494 -0.06350184
v -0.32545739 -0.27773851 -0.07506663
v -0.32544655 -0.31167570 -0.01131655
v -0.33926436 -0.28188327 -0.08293863
v -0.32545739 -0.28119066 -0.08352832
v -0.31440964 -0.28186163 -0.08297552
v -0.31052506 -0.28870100 -0.08442754
v -0.29775685 -0.30375412 -0.08607858
v -0.31160712 -0.30375412 -0.08661667
v -0.29775685 -0.34526658 -0.08661667
v -0.29775685 -0.35911849 -0.08649138
v -0.31160712 -0.37295958 -0.08598283
v -0.32545739 -0.38316455 -0.08428012
v -0.32545739 -0.38829407 -0.07506663
v -0.32544655 -0.35949725 -0.01131655
v -0.32545739 -0.38498262 -0.06208664
v -0.31160712 -0.28061712 -0.06486542
v -0.30306974 -0.28204560 -0.06678183
v -0.31052506 -0.28041151 -0.07612801
v -0.31163958 -0.31740043 -0.01131655
v -0.30517974 -0.28329009 -0.08144975
v -0.29775685 -0.29266179 -0.08377157
v -0.29121044 -0.30375412 -0.08472238
v -0.29121044 -0.30931655 -0.08535624
v -0.28390661 -0.33144712 -0.08582063
v -0.29775685 -0.31760606 -0.08661667
v -0.28958738 -0.29557285 -0.08282810
v -0.28390661 -0.34526658 -0.08525306
v -0.28393906 -0.35799301 -0.08385997
v -0.28858104 -0.36847937 -0.08337355
v -0.29121044 -0.36973470 -0.08359468
v -0.29818967 -0.37305698 -0.08417694
v -0.31160712 -0.38215813 -0.08367573
v -0.31160712 -0.38619468 -0.07506663
v -0.31160712 -0.38393289 -0.06314802
v -0.31254852 -0.35621825 -0.01131655
v -0.28820235 -0.29418766 -0.06530769
v -0.28792101 -0.29391712 -0.07506663
v -0.30306974 -0.28204560 -0.07222148
v -0.30614275 -0.33144712 -0.01131655
v -0.27606171 -0.30908927 -0.06679661
v -0.29817888 -0.28636351 -0.07612801
v -0.28666583 -0.30375412 -0.08377157
v -0.28270555 -0.31654552 -0.08440542
v -0.27589941 -0.32043055 -0.08293863
v -0.27522853 -0.33144712 -0.08351354
v -0.28552967 -0.29717448 -0.07539833
v -0.28038993 -0.30418700 -0.07612067
v -0.27729526 -0.31121036 -0.08144236
v -0.27589941 -0.34526658 -0.08294605
v -0.27678668 -0.35264707 -0.08218682
v -0.27957839 -0.36151010 -0.07506663
v -0.28649271 -0.37070867 -0.07506663
v -0.29121044 -0.37508065 -0.07506663
v -0.29396969 -0.37762377 -0.07506663
v -0.30309138 -0.38072965 -0.08271749
v -0.30089483 -0.38206074 -0.07506663
v -0.30120862 -0.38192004 -0.06548458
v -0.27567217 -0.35493046 -0.06619957
v -0.30773339 -0.34527740 -0.01131655
v -0.28730425 -0.36984292 -0.06457797
v -0.27606171 -0.30908927 -0.07220675
v -0.27354053 -0.33144712 -0.06350919
v -0.27462259 -0.31760606 -0.06487281
v -0.30616441 -0.33169603 -0.01131655
v -0.27422222 -0.34526658 -0.06430524
v -0.27178761 -0.33144712 -0.07506663
v -0.27443865 -0.31654552 -0.07612067
v -0.27312937 -0.34526658 -0.07506663
v -0.27584532 -0.35457334 -0.07506663
v -0.29121044 -0.37440971 -0.07071787
v -0.30765763 -0.34501767 -0.01131655
v -0.38337013 0.31940854 0.00800438
v -0.37748060 0.30556470 0.01872301
v -0.37857285 0.31940854 0.01927188
v -0.37793034 0.33325234 0.01893646
v -0.38199949 0.33325234 0.00800438
v -0.37793034 0.33325234 -0.00292771
v -0.37857285 0.31940854 -0.00326313
v -0.37748060 0.30556470 -0.00269898
v -0.38109997 0.30556470 0.00800438
v -0.36043322 0.31096715 0.05717580
v -0.37572446 0.29562265 0.01709158
v -0.36043322 0.31441873 0.05717580
v -0.35053885 0.34454501 0.06005748
v -0.37542465 0.34709617 0.01677139
v -0.37383983 0.35403684 0.01494174
v -0.37698802 0.34709617 0.00800438
v -0.37383983 0.35403684 0.00108225
v -0.37542465 0.34709617 -0.00076264
v -0.27783030 0.25848067 -0.08263875
v -0.27778748 0.25015184 -0.08259302
v -0.37572446 0.29562265 -0.00106755
v -0.27714500 0.24272346 -0.08215091
v -0.37664539 0.29412195 0.00800438
v -0.35405111 0.31918341 0.06106380
v -0.21300301 -0.00590276 0.01927188
v -0.34972504 0.29547256 0.05969156
v -0.35385838 0.30605242 0.06094180
v -0.21825001 -0.00590276 0.00800438
v -0.21561579 -0.00590276 0.01367626
v -0.35238066 0.33325234 0.06174991
v -0.33925241 0.33325234 0.06714734
v -0.33925241 0.34687108 0.06182613
v -0.35308740 0.36945641 0.01677139
v -0.36000490 0.36788070 0.01494174
v -0.37386125 0.35403684 0.00800438
v -0.36692235 0.34709617 -0.00510801
v -0.36000490 0.36788070 0.00108225
v -0.36555174 0.35955191 -0.00065591
v -0.26949936 0.26347044 -0.08411776
v -0.27003476 0.25015184 -0.08597787
v -0.21300301 -0.00590276 -0.00326313
v -0.26947793 0.23739600 -0.08370603
v -0.26223922 0.21713674 -0.08167823
v -0.33925241 0.31940854 0.06713206
v -0.20085992 -0.00590276 0.02360202
v -0.33925241 0.30556470 0.06664419
v -0.32541746 0.31940854 0.06743702
v -0.32541746 0.33325234 0.06714734
v -0.32541746 0.34702116 0.06168890
v -0.32539603 0.37260789 0.01927188
v -0.33923101 0.37197006 0.01893646
v -0.33923101 0.37602192 0.00800438
v -0.36002627 0.36788070 0.00800438
v -0.35308740 0.37103212 0.00800438
v -0.35308740 0.36945641 -0.00076264
v -0.35308740 0.36094004 -0.00510801
v -0.26450935 0.27183676 -0.08263875
v -0.25619981 0.25015184 -0.08832590
v -0.25619981 0.26403320 -0.08599314
v -0.24992481 0.20115444 -0.08234910
v -0.25949791 0.20865786 -0.07948266
v -0.20085992 -0.00590276 -0.00760850
v -0.16458061 -0.00590276 0.02360202
v -0.32541746 0.30556470 0.06681187
v -0.31156108 0.30556470 0.06603428
v -0.31156108 0.31940854 0.06664419
v -0.31156108 0.33325234 0.06647646
v -0.31156108 0.34630832 0.06146022
v -0.31156108 0.37144482 0.01872301
v -0.32539603 0.37737253 0.00800438
v -0.33923101 0.37197006 -0.00292771
v -0.32539603 0.37260789 -0.00326313
v -0.25619981 0.27176172 -0.08260829
v -0.20719917 0.24388647 -0.08234910
v -0.21467347 0.23630802 -0.08419394
v -0.21467347 0.22250170 -0.08445322
v -0.22852987 0.20865786 -0.08445322
v -0.24234341 0.20865786 -0.08417876
v -0.24874689 0.27116144 -0.08215091
v -0.24341424 0.26343292 -0.08372130
v -0.24234341 0.20025402 -0.08288275
v -0.16458061 -0.00590276 -0.00760850
v -0.22852987 0.19980383 -0.08317247
v -0.16458061 0.22238915 0.02360202
v -0.16458061 0.23630802 0.02335807
v -0.30145255 0.34371963 0.05970683
v -0.30162391 0.36975658 0.01709158
v -0.31156108 0.37512147 0.00800438
v -0.31156108 0.37144482 -0.00269898
v -0.19379254 0.24343626 -0.06830665
v -0.19936079 0.23630802 -0.07650948
v -0.20632109 0.23630802 -0.08288275
v -0.22317578 0.25619212 -0.08167823
v -0.21467347 0.25345334 -0.07948266
v -0.20625685 0.25836810 -0.06972463
v -0.20210208 0.24827598 -0.07362781
v -0.20584995 0.22250170 -0.08317247
v -0.20657809 0.21357262 -0.08273029
v -0.21486622 0.20884547 -0.08340111
v -0.21959925 0.20055416 -0.08273029
v -0.30162391 0.36975658 -0.00106755
v -0.21467347 0.26054409 -0.07254530
v -0.16458061 0.21379772 -0.00841660
v -0.19891103 0.22250170 -0.07730236
v -0.19240047 0.22250170 -0.07036500
v -0.16458061 0.24955156 0.01930238
v -0.28669670 0.35760099 0.01782341
v -0.30012473 0.37065697 0.00800438
v -0.29318583 0.36626747 0.00800438
v -0.19289304 0.23630802 -0.06958739
v -0.16458061 0.24955156 -0.00330885
v -0.16458061 0.25589198 0.00800438
v -0.16458061 0.25457889 0.00513793
v -0.28669670 0.35760099 -0.00179942
v -0.16458061 0.22287688 -0.00843183
v -0.16458061 0.23585781 -0.00809641
v -0.16458061 0.22685368 -0.00835560
v -0.28466213 0.35936427 0.00800438
v -0.16458061 0.24268594 -0.00583984
v 0.14540319 0.02860120 0.02371370
v 0.14542648 0.02860120 -0.00761036
v 0.20080963 0.02860120 0.02362060
v 0.32543340 0.30557671 0.06664143
v 0.31157598 0.30557671 0.06603205
v 0.31157598 0.31943741 0.06681072
v 0.14540319 0.09787069 0.02372217
v 0.14540319 0.02863534 -0.00761036
v 0.20080963 0.02860120 -0.00761036
v 0.22978216 0.27447543 -0.01902784
v 0.21371220 0.02860120 0.01927873
v 0.34974799 0.29547134 0.05970122
v 0.33924428 0.30557671 0.06648063
v 0.32543340 0.31943741 0.06743702
v 0.14540319 0.13791656 0.02362060
v 0.14540319 0.11173142 0.02369678
v 0.31157598 0.33326402 0.06664143
v 0.14540319 0.13791656 -0.00761036
v 0.21371220 0.02860120 -0.00326003
v 0.25207052 0.27447543 -0.01902784
v 0.35121521 0.30666918 -0.01033565
v 0.36688927 0.30554256 -0.00705174
v 0.24145034 0.27659208 -0.01902784
v 0.15935379 0.23634137 -0.00722950
v 0.22871083 0.27447543 -0.01874855
v 0.29727602 0.36170241 -0.00366627
v 0.31152940 0.36095133 -0.00706866
v 0.31229794 0.34555432 -0.01033565
v 0.32536355 0.34893414 -0.01033565
v 0.21972096 0.02860120 0.00801358
v 0.37573940 0.29564205 0.01709509
v 0.35228655 0.30557671 0.06145320
v 0.33924428 0.31943741 0.06714927
v 0.33924428 0.33326402 0.06714927
v 0.32543340 0.33326402 0.06714927
v 0.15935379 0.23634137 0.02322282
v 0.15935379 0.24825613 0.01883015
v 0.15935379 0.25317225 0.00798820
v 0.31201845 0.34787580 0.06094540
v 0.30151477 0.34374493 0.05969276
v 0.15935379 0.24818785 -0.00285375
v 0.36765781 0.29164770 -0.00375938
v 0.36833322 0.29164770 -0.00344621
v 0.37573940 0.29564205 -0.00105946
v 0.24242853 0.27652383 -0.01902784
v 0.33803320 0.34586158 -0.01033565
v 0.35186735 0.33203501 -0.01033565
v 0.35442922 0.31967640 -0.01033565
v 0.35447580 0.31940329 -0.01033565
v 0.36688927 0.31940329 -0.00763574
v 0.37858075 0.31940329 -0.00325157
v 0.37743956 0.30554256 -0.00270142
v 0.28667918 0.35757148 -0.00178733
v 0.30158466 0.36969107 -0.00105946
v 0.31152940 0.37143221 -0.00270142
v 0.32536355 0.37259299 -0.00325157
v 0.32536355 0.36095133 -0.00763574
v 0.33924428 0.36095133 -0.00728026
v 0.37664771 0.29413989 0.00801358
v 0.38109607 0.30554256 0.00801358
v 0.37743956 0.30554256 0.01872858
v 0.37858075 0.31940329 0.01927027
v 0.35303184 0.31943741 0.06169019
v 0.35284549 0.33326402 0.06181714
v 0.35053980 0.34456426 0.06005669
v 0.33924428 0.34640783 0.06174945
v 0.32517722 0.34808064 0.06107235
v 0.28667918 0.35757148 0.01783992
v 0.28465295 0.35931262 0.00801358
v 0.31695592 0.35439649 0.05717906
v 0.30158466 0.36969107 0.01709509
v 0.35305512 0.36095133 -0.00509662
v 0.35305512 0.34702232 -0.00763574
v 0.36688927 0.33322987 -0.00728026
v 0.36688927 0.34702232 -0.00509662
v 0.38333187 0.31940329 0.00801358
v 0.37795192 0.33322987 -0.00291302
v 0.29317704 0.36627713 0.00801358
v 0.30009410 0.37068114 0.00801358
v 0.31152940 0.37511930 0.00801358
v 0.32536355 0.37737253 0.00801358
v 0.33924428 0.37197843 -0.00291302
v 0.37790534 0.33322987 0.01894018
v 0.37543663 0.34702232 0.01678196
v 0.37385291 0.35402095 0.01495379
v 0.36001876 0.36788169 0.01495379
v 0.35305512 0.36941800 0.01678196
v 0.33924428 0.37194431 0.01894018
v 0.32040280 0.35439649 0.05717906
v 0.32536355 0.37259299 0.01927027
v 0.31152940 0.37143221 0.01872858
v 0.36551517 0.35958573 -0.00066169
v 0.35305512 0.36941800 -0.00073783
v 0.36001876 0.36788169 0.00109030
v 0.37385291 0.35402095 0.00109030
v 0.37543663 0.34702232 -0.00073783
v 0.38200435 0.33322987 0.00801358
v 0.33924428 0.37600693 0.00801358
v 0.37699702 0.34702232 0.00801358
v 0.36695912 0.36098549 0.00801358
v 0.35305512 0.37098840 0.00801358
v -0.16449712 -0.26156071 -0.00329210
v -0.16445643 -0.26797119 0.00803785
v -0.16449712 -0.26156071 0.01932731
v -0.16449712 -0.24786788 -0.00807697
v 0.22837175 -0.15027456 -0.00758130
v 0.00017164 -0.21889247 -0.00325165
v -0.16445643 -0.26663780 0.01091077
v 0.00017164 -0.22417471 0.00803785
v -0.16449712 -0.25468865 0.02183609
v 0.00017164 -0.21894373 0.01929697
v 0.04844083 -0.07124602 0.09491418
v 0.03464382 -0.07175887 0.09491418
v 0.02084681 -0.07211785 0.09491418
v 0.00692770 -0.07222041 0.09491418
v 0.00021234 -0.07222041 0.09491418
v -0.16449712 -0.23489305 -0.00842093
v 0.22731359 -0.15027456 -0.00759141
v 0.24330835 -0.15027456 -0.00381815
v 0.20073706 0.02855251 -0.00759141
v 0.22837175 -0.13745357 -0.00735876
v 0.00017164 -0.22150794 0.01378374
v 0.25006440 -0.15027456 0.00290902
v 0.25128540 -0.15027456 0.00801758
v 0.24338974 -0.15027456 0.01978253
v -0.16449712 -0.24827817 0.02337371
v -0.05810954 -0.07729752 0.08984607
v -0.06226085 -0.07606671 0.08984607
v -0.06828433 -0.07386150 0.08984607
v 0.22837175 -0.15027456 0.02360640
v 0.06203435 -0.06760486 0.09491418
v -0.07381941 -0.03857816 0.08984607
v -0.07377872 -0.05242482 0.08984607
v -0.07365662 -0.05437361 0.08984607
v -0.07296473 -0.06524580 0.08984607
v -0.07149956 -0.06816898 0.08984607
v 0.00021234 0.06024598 0.09491418
v -0.16449712 0.22286735 -0.00843104
v 0.21363868 0.02855251 -0.00325165
v 0.15922393 0.22240578 -0.00760152
v 0.15922393 0.23625243 -0.00721712
v 0.21958074 0.02855251 0.00801758
v 0.21363868 0.02855251 0.01930708
v 0.06765082 0.04434797 0.09491418
v 0.06781362 0.04245046 0.09491418
v 0.06842411 0.03070644 0.09491418
v 0.06866831 0.01691106 0.09491418
v 0.06866831 -0.02662900 0.09491418
v 0.06846482 -0.04047566 0.09491418
v 0.06785433 -0.05437361 0.09491418
v -0.16449712 -0.23971376 0.02362662
v -0.07381941 -0.02662900 0.08984607
v 0.00692770 0.06024598 0.09491418
v -0.16449712 0.24953498 0.01932731
v -0.06226085 0.06409228 0.08984607
v -0.07145887 0.05614327 0.08984607
v -0.07361592 0.04245046 0.08984607
v -0.07377872 0.02860380 0.08984607
v -0.16449712 0.22686750 -0.00834000
v 0.15922393 0.24815032 -0.00284698
v -0.16449712 0.23584218 -0.00807697
v 0.15914251 0.23630373 -0.00720701
v 0.15922393 0.25312486 0.00800747
v 0.15922393 0.24820161 0.01885186
v 0.15922393 0.23630373 0.02324222
v 0.06219715 0.05532273 0.09491418
v -0.16449712 0.22245708 0.02362662
v 0.02068401 0.06014342 0.09491418
v 0.15914251 0.24815032 0.01889230
v -0.16449712 0.25594547 0.00801758
v -0.16449712 0.23625243 0.02337371
v -0.07475550 0.05619455 0.08821740
v -0.16449712 0.24271421 -0.00582110
v -0.16449712 0.24953498 -0.00329210
v -0.16449712 0.25456080 0.00515477
v 0.15914251 0.25312486 0.00803785
v 0.04835943 0.05932287 0.09491418
v 0.06154596 0.05583557 0.09491418
v 0.06199365 0.05563043 0.09491418
v 0.03452173 0.05983571 0.09491418
v 0.32544199 0.37629887 -0.07505639
v 0.32544199 0.37115782 -0.08427484
v 0.31160372 0.37016216 -0.08366996
v 0.31160372 0.37418556 -0.07505639
v 0.31160372 0.37193003 -0.06314287
v 0.32544199 0.37296635 -0.06207859
v 0.33923966 0.37233642 -0.06269111
v 0.33923966 0.37497807 -0.07505639
v 0.33923966 0.37052789 -0.08393790
v 0.32544199 0.36093673 -0.08657945
v 0.31160372 0.36093673 -0.08597457
v 0.33923966 0.36093673 -0.08624250
v 0.29817182 0.36105865 -0.08416761
v 0.30308941 0.36871943 -0.08271287
v 0.30089480 0.37006053 -0.07505639
v 0.30121991 0.36991829 -0.06547810
v 0.31235558 0.34559488 -0.01035888
v 0.32544199 0.34894770 -0.01035888
v 0.35309827 0.36985737 -0.06557760
v 0.32568586 0.34890711 -0.01035888
v 0.33806106 0.34589967 -0.01035888
v 0.36021048 0.36802852 -0.06791284
v 0.36021048 0.36802852 -0.06888524
v 0.35342339 0.37022310 -0.07412992
v 0.34901384 0.36918679 -0.08304973
v 0.35342339 0.36156666 -0.08447385
v 0.29776543 0.34711888 -0.08647990
v 0.35309827 0.34711888 -0.08661007
v 0.25618958 0.25019100 -0.08833275
v 0.29114091 0.35384494 -0.08425181
v 0.29114091 0.35772613 -0.08358568
v 0.28858054 0.35648656 -0.08336364
v 0.29394516 0.36561039 -0.07505639
v 0.29114091 0.36235911 -0.07065390
v 0.28730032 0.35782769 -0.06456694
v 0.21441053 0.27451441 -0.01011390
v 0.25576285 0.27451441 -0.01011390
v 0.35189939 0.33206156 -0.01035888
v 0.37402844 0.35425133 -0.06788222
v 0.26966211 0.26366335 -0.01011390
v 0.35825968 0.36658576 -0.07811132
v 0.37402844 0.35425133 -0.06897711
v 0.36642855 0.36042872 -0.07354040
v 0.36336017 0.35736033 -0.08352444
v 0.36758685 0.34742373 -0.08446626
v 0.21467470 0.23633254 -0.08416761
v 0.20719674 0.24391200 -0.08233003
v 0.36695686 0.33326045 -0.08623483
v 0.36695686 0.31944263 -0.08657945
v 0.24235129 0.20867658 -0.08417529
v 0.22853331 0.20867658 -0.08445858
v 0.21467470 0.22253504 -0.08445858
v 0.35309827 0.29174605 -0.08644928
v 0.28648752 0.35872179 -0.07505639
v 0.29114091 0.36305001 -0.07505639
v 0.20211661 0.24830121 -0.07362460
v 0.19380550 0.24346496 -0.06830335
v 0.20140538 0.26343983 -0.01011390
v 0.35450041 0.31970680 -0.01035888
v 0.37831607 0.33326045 -0.06270642
v 0.37583697 0.34711888 -0.06556997
v 0.28244373 0.24889047 -0.01011390
v 0.28640625 0.23635285 -0.01011390
v 0.38095775 0.33326045 -0.07505639
v 0.37258565 0.35228023 -0.07821087
v 0.37622306 0.34742373 -0.07417586
v 0.37516639 0.34301421 -0.08304214
v 0.37650755 0.33326045 -0.08393030
v 0.20583527 0.22253504 -0.08317231
v 0.20630263 0.23633254 -0.08288902
v 0.19937332 0.23633254 -0.07651109
v 0.37715784 0.31944263 -0.08427484
v 0.36695686 0.30560449 -0.08592860
v 0.24991053 0.20119871 -0.08233003
v 0.24235129 0.20030461 -0.08288902
v 0.22853331 0.19983724 -0.08317231
v 0.21959227 0.20058911 -0.08272822
v 0.21485759 0.20885946 -0.08338667
v 0.20658712 0.21359411 -0.08272822
v 0.36701787 0.29223374 -0.08411404
v 0.36242539 0.28262222 -0.08333302
v 0.35200095 0.27796885 -0.08382308
v 0.17492770 0.23513363 -0.01011390
v 0.18789221 0.24982522 -0.01011390
v 0.19291139 0.23633254 -0.06959730
v 0.35452071 0.31944263 -0.01035888
v 0.37898666 0.31944263 -0.06208627
v 0.38231921 0.31944263 -0.07505639
v 0.28711745 0.22249438 -0.01011390
v 0.19890596 0.22253504 -0.07728440
v 0.19240338 0.22253504 -0.07036293
v 0.37608081 0.30560449 -0.08362398
v 0.25429976 0.19611864 -0.07362460
v 0.24946347 0.18780760 -0.06830335
v 0.24235129 0.19337539 -0.07651877
v 0.22853331 0.19290800 -0.07728440
v 0.21983612 0.18713705 -0.06932165
v 0.21510142 0.19500101 -0.07500278
v 0.21036674 0.20436868 -0.08066092
v 0.20101930 0.20912364 -0.07500278
v 0.19313492 0.21383794 -0.06932165
v 0.37465838 0.29717156 -0.08265162
v 0.37161028 0.28800708 -0.07505639
v 0.36468098 0.28052923 -0.07505639
v 0.17472450 0.22407939 -0.01011390
v 0.35124910 0.30668148 -0.01035888
v 0.37792999 0.30560449 -0.06314287
v 0.38014489 0.30560449 -0.07505639
v 0.28278917 0.21152142 -0.01011390
v 0.24115236 0.16893004 -0.01011390
v 0.24235129 0.18689319 -0.06959730
v 0.22853331 0.18640551 -0.07036293
v 0.23007768 0.16870651 -0.01011390
v 0.21201271 0.19020541 -0.06121341
v 0.20467697 0.19867899 -0.07143484
v 0.19622365 0.20601462 -0.06121341
v 0.37597919 0.29495665 -0.07505639
v 0.37589791 0.29518017 -0.06547810
v 0.36382753 0.28130138 -0.06456694
v 0.26943859 0.19542773 -0.01011390
v 0.25580350 0.18191473 -0.01011390
v 0.18651041 0.20849371 -0.01011390
v 0.28148866 0.20912364 -0.01011390
v 0.21451214 0.18061422 -0.01011390
v 0.20315294 0.19715497 -0.06121341
v 0.20016582 0.19455397 -0.01011390
v 0.20053160 0.19418819 -0.01011390
v 0.25127363 -0.15035145 0.00800120
v 0.25011081 -0.15035145 0.00289354
v 0.24347144 -0.15035145 0.01975641
v 0.25131115 -0.15437546 0.01730169
v 0.37228256 -0.29919314 0.00800120
v 0.37160736 -0.29994178 -0.07504781
v 0.36470544 -0.29247865 -0.07504781
v 0.24943562 -0.19980939 -0.06830876
v 0.24347144 -0.15039825 -0.00381505
v 0.24335891 -0.15035145 -0.00383028
v 0.36245483 -0.29456085 -0.08335728
v 0.24343392 -0.15039825 0.01981741
v 0.22842972 -0.15035145 0.02358337
v 0.34970126 -0.30752191 0.05970287
v 0.36358014 -0.29271260 0.01782007
v 0.37573352 -0.30763888 0.01708824
v 0.37667131 -0.30609480 0.00800120
v 0.37603363 -0.30686685 -0.07504781
v 0.37468326 -0.30906600 -0.08270165
v 0.36691856 -0.29718113 -0.07931691
v 0.25427446 -0.20811476 -0.07361460
v 0.24988574 -0.21319157 -0.08233573
v 0.24230862 -0.20540088 -0.07651151
v 0.24230862 -0.19889696 -0.06958946
v 0.22842972 -0.15035145 -0.00759624
v 0.36703107 -0.30415297 -0.08416539
v 0.35307720 -0.30373186 -0.08648288
v 0.33923581 -0.31758195 0.06664015
v 0.11781120 -0.15035145 0.02394928
v 0.32543194 -0.31758195 0.06680787
v 0.35386491 -0.31802645 0.06093789
v 0.36042926 -0.32296288 0.05717192
v 0.37745902 -0.31758195 0.01871962
v 0.38109753 -0.31758195 0.00800120
v 0.38015977 -0.31755856 -0.07504781
v 0.37610862 -0.31755856 -0.08366220
v 0.24230862 -0.22067809 -0.08418057
v 0.24230862 -0.21232595 -0.08289991
v 0.22850473 -0.20493299 -0.07728907
v 0.22850473 -0.19840565 -0.07036706
v 0.22730441 -0.15035145 -0.00761147
v 0.36691856 -0.31755856 -0.08596450
v 0.36691856 -0.33143201 -0.08658960
v 0.25618753 -0.26218158 -0.08832772
v 0.33923581 -0.33140865 0.06714329
v 0.32543194 -0.33140865 0.06743298
v 0.10389479 -0.15035145 0.02397978
v 0.00014070 -0.15035145 0.02397978
v 0.31159055 -0.31758195 0.06603027
v 0.35408998 -0.33119807 0.06105984
v 0.37862185 -0.33140865 0.01926854
v 0.36042926 -0.32642540 0.05717192
v 0.38334817 -0.33140865 0.00800120
v 0.38226038 -0.33143201 -0.07504781
v 0.37712142 -0.33143201 -0.08427212
v 0.22850473 -0.22067809 -0.08447030
v 0.22850473 -0.21185802 -0.08317429
v 0.00014070 -0.15035145 -0.00761147
v 0.36691856 -0.34523532 -0.08625414
v 0.35307720 -0.35910881 -0.08660487
v 0.29774916 -0.35910881 -0.08645234
v 0.21466337 -0.24833149 -0.08418057
v 0.21466337 -0.23452818 -0.08445503
v 0.32543194 -0.37295893 -0.08658960
v 0.33923581 -0.34528214 0.06714329
v 0.32543194 -0.34528214 0.06714329
v 0.31159055 -0.33140865 0.06664015
v 0.31159055 -0.34528214 0.06647242
v 0.00014070 -0.20685141 0.02361383
v 0.35240200 -0.34528214 0.06174594
v 0.37794665 -0.34525871 0.01893308
v 0.35056400 -0.35653532 0.06005355
v 0.38199779 -0.34525871 0.00800120
v 0.38098502 -0.34523532 -0.07504781
v 0.37652126 -0.34523532 -0.08393665
v 0.21485090 -0.22086526 -0.08337256
v 0.21957724 -0.21260667 -0.08273219
v 0.00014070 -0.20685141 -0.00761147
v 0.20656109 -0.22561453 -0.08273219
v 0.20584840 -0.23452818 -0.08317429
v 0.36755621 -0.35941297 -0.08445503
v 0.35341480 -0.37356719 -0.08445503
v 0.33923581 -0.37295893 -0.08623896
v 0.31155303 -0.37295893 -0.08593396
v 0.29823682 -0.37300569 -0.08411957
v 0.28859660 -0.36842018 -0.08332682
v 0.20719875 -0.25593498 -0.08233573
v 0.20629852 -0.24833149 -0.08289991
v 0.32543194 -0.38315931 -0.08427212
v 0.33923581 -0.35885146 0.06182217
v 0.32543194 -0.35903865 0.06168494
v 0.31159055 -0.35831338 0.06145626
v 0.00014070 -0.21899363 0.01926854
v 0.30142519 -0.35573986 0.05970287
v 0.37543344 -0.35908544 0.01676805
v 0.35307720 -0.38145143 0.01676805
v 0.36001661 -0.37983719 0.01493843
v 0.37389556 -0.36603385 0.01493843
v 0.37700891 -0.35908544 0.00800120
v 0.37400806 -0.36619762 -0.06887286
v 0.37622115 -0.35941297 -0.07411775
v 0.37517089 -0.35499120 -0.08303710
v 0.00014070 -0.21899363 -0.00326614
v 0.36335507 -0.36933261 -0.08352502
v 0.34902605 -0.38117072 -0.08303710
v 0.33923581 -0.38252765 -0.08392139
v 0.31155303 -0.38208309 -0.08361647
v 0.30315068 -0.38065600 -0.08264073
v 0.32543194 -0.38830629 -0.07504781
v 0.32539442 -0.38458642 0.01926854
v 0.33923581 -0.38393137 0.01893308
v 0.30161276 -0.38173220 0.01708824
v 0.31155303 -0.38346344 0.01871962
v 0.00014070 -0.22425759 0.00800120
v 0.33923581 -0.38800216 0.00800120
v 0.35307720 -0.38301894 0.00800120
v 0.36024171 -0.38002431 -0.06788184
v 0.37400806 -0.36619762 -0.06791235
v 0.36024171 -0.38002431 -0.06897959
v 0.36639342 -0.37239742 -0.07353838
v 0.37258264 -0.36423242 -0.07811239
v 0.35825366 -0.37859720 -0.07820389
v 0.33923581 -0.38694936 -0.07504781
v 0.35341480 -0.38222352 -0.07417875
v 0.31155303 -0.38613054 -0.07504781
v 0.30093756 -0.38196614 -0.07504781
v 0.32539442 -0.38935909 0.00800120
v 0.31155303 -0.38711312 0.00800120
v 0.30011234 -0.38266802 0.00800120
v -0.38337013 -0.33134821 0.00802188
v -0.37859383 -0.33134821 -0.00326044
v -0.37792987 -0.34519631 -0.00292499
v -0.38199931 -0.34519631 0.00802188
v -0.37792987 -0.34519631 0.01893828
v -0.37857237 -0.33134821 0.01927370
v -0.37748006 -0.31750008 0.01872486
v -0.38109976 -0.31750008 0.00802188
v -0.37748006 -0.31750008 -0.00271157
v -0.27777717 -0.26218265 -0.08260259
v -0.27784139 -0.27047652 -0.08264832
v -0.37542388 -0.35904446 -0.00076004
v -0.37386033 -0.36598727 0.00108481
v -0.37700883 -0.35904446 0.00802188
v -0.37386033 -0.36598727 0.01494376
v -0.37542388 -0.35904446 0.01678856
v -0.35284883 -0.34523386 0.06182634
v -0.35227054 -0.31753761 0.06144520
v -0.35302016 -0.33138573 0.06168911
v -0.37572372 -0.30755496 0.01709348
v -0.37664473 -0.30605379 0.00802188
v -0.37572372 -0.30755496 -0.00106495
v -0.27715603 -0.25471440 -0.08214514
v -0.27004510 -0.26218265 -0.08598728
v -0.26948822 -0.27546784 -0.08412717
v -0.36554998 -0.37150401 -0.00065331
v -0.36692074 -0.35904446 -0.00508998
v -0.36002401 -0.37983540 0.00108481
v -0.35053563 -0.35649252 0.06005776
v -0.36002401 -0.37983540 0.01494376
v -0.33924812 -0.34523386 0.06714734
v -0.33924812 -0.33138573 0.06714734
v -0.33924812 -0.31753761 0.06647650
v -0.34972173 -0.30744237 0.05970712
v -0.21298634 -0.00601111 0.01927370
v -0.21823384 -0.00601111 0.00800665
v -0.21564221 -0.00601111 0.00242647
v -0.21298634 -0.00601111 -0.00326044
v -0.26224875 -0.22911978 -0.08167253
v -0.26946679 -0.24938533 -0.08371552
v -0.25618735 -0.26218265 -0.08831996
v -0.24993317 -0.21317005 -0.08234341
v -0.25618735 -0.27603075 -0.08597201
v -0.26451913 -0.28379923 -0.08263305
v -0.35308442 -0.37289256 -0.00508998
v -0.35308442 -0.38137406 -0.00076004
v -0.33924812 -0.38794163 0.00802188
v -0.35308442 -0.38295031 0.00802188
v -0.35308442 -0.38137406 0.01678856
v -0.33924812 -0.38388848 0.01893828
v -0.32042131 -0.36640009 0.05717622
v -0.33924812 -0.35836893 0.06173488
v -0.32541180 -0.34523386 0.06713211
v -0.32541180 -0.33138573 0.06743702
v -0.32517618 -0.36002019 0.06106401
v -0.32541180 -0.31753761 0.06662896
v -0.20082064 -0.00601111 0.02361894
v -0.20696773 -0.00601111 -0.00542543
v -0.25948578 -0.22063826 -0.07947704
v -0.24235103 -0.22063826 -0.08418817
v -0.22853613 -0.22063826 -0.08446263
v -0.21467839 -0.23448640 -0.08446263
v -0.21467839 -0.24833453 -0.08418817
v -0.20720334 -0.25587782 -0.08234341
v -0.24235103 -0.21226935 -0.08289224
v -0.20082064 -0.00601111 -0.00762088
v -0.24875514 -0.28316125 -0.08214514
v -0.25618735 -0.28376168 -0.08260259
v -0.24342194 -0.27543032 -0.08370034
v -0.32541180 -0.38452652 -0.00326044
v -0.33924812 -0.38388848 -0.00292499
v -0.32541180 -0.38936773 0.00802188
v -0.32541180 -0.38452652 0.01927370
v -0.31697291 -0.36640009 0.05717622
v -0.31157547 -0.34523386 0.06664419
v -0.31204668 -0.35983256 0.06094205
v -0.31157547 -0.33138573 0.06681192
v -0.31157547 -0.31753761 0.06603436
v -0.16458061 -0.00601111 0.02361894
v -0.22853613 -0.21181899 -0.08318196
v -0.21487115 -0.22082591 -0.08339534
v -0.21960463 -0.21256958 -0.08272451
v -0.20658220 -0.22555456 -0.08272451
v -0.20583254 -0.23448640 -0.08318196
v -0.20630376 -0.24833453 -0.08289224
v -0.19936417 -0.24833453 -0.07651927
v -0.19379538 -0.25542745 -0.06831673
v -0.20212717 -0.26026866 -0.07362245
v -0.20626092 -0.27040145 -0.06971938
v -0.21467839 -0.26544765 -0.07947704
v -0.22316009 -0.26822478 -0.08167253
v -0.16458061 -0.00601111 -0.00762088
v -0.30165872 -0.38163680 -0.00106495
v -0.31159690 -0.38343817 -0.00271157
v -0.31159690 -0.38704091 0.00802188
v -0.31159690 -0.38343817 0.01872486
v -0.30153021 -0.35570437 0.05969185
v -0.30165872 -0.38163680 0.01709348
v -0.16458061 -0.24829699 0.02335976
v -0.16458061 -0.23970290 0.02361894
v -0.19889298 -0.23448640 -0.07728159
v -0.19289581 -0.24833453 -0.06959739
v -0.19240318 -0.23448640 -0.07035971
v -0.16458061 -0.26150712 -0.00330617
v -0.16458061 -0.26788700 0.00800665
v -0.28673005 -0.36955252 -0.00179678
v -0.16458061 -0.23486169 -0.00842894
v -0.29321983 -0.37822163 0.00802188
v -0.29499757 -0.37938508 0.00802188
v -0.30015942 -0.38261253 0.00802188
v -0.28673005 -0.36955252 0.01782531
v -0.16458061 -0.26150712 0.01930420
v -0.16458061 -0.25463936 0.02181987
v -0.29499757 -0.37897226 0.00994295
v -0.16458061 -0.24784665 -0.00809352
v -0.28469530 -0.37131640 0.00802188
v -0.16458061 -0.26653597 0.01088820
f 1 2 3
f 1 3 4
f 1 4 5
f 1 5 16
f 1 16 42
f 1 42 57
f 1 57 64
f 1 64 72
f 1 72 78
f 1 78 82
f 1 82 85
f 1 85 84
f 1 84 80
f 1 80 75
f 1 75 65
f 1 65 59
f 1 59 55
f 1 55 54
f 1 54 53
f 1 53 51
f 1 51 27
f 1 27 6
f 1 6 2
f 2 6 7
f 2 7 8
f 2 8 9
f 2 9 10
f 2 10 11
f 2 11 12
f 2 12 13
f 2 13 3
f 3 13 14
f 3 14 41
f 3 41 40
f 3 40 39
f 3 39 38
f 3 38 37
f 3 37 36
f 3 36 35
f 3 35 34
f 3 34 33
f 3 33 32
f 3 32 31
f 3 31 30
f 3 30 50
f 3 50 49
f 3 49 48
f 3 48 47
f 3 47 46
f 3 46 45
f 3 45 44
f 3 44 29
f 3 29 28
f 3 28 52
f 3 52 58
f 3 58 62
f 3 62 61
f 3 61 60
f 3 60 70
f 3 70 69
f 3 69 68
f 3 68 67
f 3 67 66
f 3 66 77
f 3 77 76
f 3 76 81
f 3 81 83
f 3 83 79
f 3 79 74
f 3 74 73
f 3 73 71
f 3 71 63
f 3 63 56
f 3 56 43
f 3 43 15
f 3 15 4
f 4 15 5
f 5 15 16
f 6 17 18
f 6 18 19
f 6 19 20
f 6 20 21
f 6 21 22
f 6 22 23
f 6 23 24
f 6 24 25
f 6 25 26
f 6 26 7
f 6 27 28
f 6 28 29
f 6 29 17
f 7 26 30
f 7 30 31
f 7 31 8
f 8 31 9
f 9 31 32
f 9 32 10
f 10 32 33
f 10 33 34
f 10 34 35
f 10 35 36
f 10 36 11
f 11 36 12
f 12 36 37
f 12 37 38
f 12 38 39
f 12 39 40
f 12 40 41
f 12 41 14
f 12 14 13
f 15 42 16
f 15 43 42
f 17 29 44
f 17 44 45
f 17 45 18
f 18 45 19
f 19 45 20
f 20 45 46
f 20 46 47
f 20 47 48
f 20 48 21
f 21 48 22
f 22 48 49
f 22 49 50
f 22 50 23
f 23 50 24
f 24 50 30
f 24 30 25
f 25 30 26
f 27 51 28
f 28 51 53
f 28 53 54
f 28 54 55
f 28 55 52
f 42 43 56
f 42 56 57
f 52 55 58
f 55 59 60
f 55 60 61
f 55 61 62
f 55 62 58
f 56 63 57
f 57 63 64
f 59 65 66
f 59 66 67
f 59 67 68
f 59 68 69
f 59 69 70
f 59 70 60
f 63 71 64
f 64 71 73
f 64 73 74
f 64 74 72
f 65 75 76
f 65 76 77
f 65 77 66
f 72 74 78
f 74 79 78
f 75 80 76
f 76 80 81
f 78 79 83
f 78 83 82
f 80 84 81
f 81 84 85
f 81 85 83
f 82 83 85
f 86 95 87
f 86 87 88
f 86 88 90
f 86 90 89
f 87 92 88
f 87 91 92
f 91 87 93
f 91 93 94
f 87 95 93
f 88 96 97
f 88 92 98
f 88 98 96
f 88 99 90
f 88 97 100
f 88 100 99
f 90 101 89
f 90 99 102
f 90 102 101
f 89 103 104
f 89 101 102
f 89 102 105
f 89 105 103
f 89 104 106
f 89 106 86
f 86 106 95
f 93 107 94
f 94 108 91
f 91 108 109
f 91 109 110
f 91 110 111
f 91 111 92
f 95 112 113
f 95 113 93
f 92 111 110
f 92 110 98
f 96 98 110
f 96 110 122
f 96 122 147
f 96 147 163
f 96 163 199
f 96 199 212
f 96 212 211
f 96 211 209
f 96 209 201
f 96 201 182
f 96 182 160
f 96 160 145
f 96 145 117
f 96 117 102
f 96 102 100
f 96 100 97
f 99 100 102
f 104 103 114
f 104 114 115
f 104 115 116
f 104 116 106
f 102 117 105
f 105 118 103
f 106 119 95
f 107 120 94
f 94 120 121
f 94 121 108
f 110 109 122
f 95 119 112
f 112 123 113
f 93 124 107
f 93 113 125
f 93 125 126
f 93 126 124
f 103 127 114
f 103 118 127
f 114 128 115
f 114 127 128
f 115 129 116
f 115 128 130
f 115 130 129
f 116 129 106
f 105 131 132
f 105 132 118
f 105 117 131
f 106 129 119
f 107 124 120
f 120 124 133
f 120 133 134
f 120 134 135
f 120 135 121
f 121 135 136
f 121 136 137
f 121 137 109
f 121 109 108
f 109 137 122
f 112 119 123
f 123 119 129
f 123 129 139
f 123 139 138
f 113 123 138
f 113 138 125
f 125 138 140
f 118 132 127
f 127 132 128
f 128 141 142
f 128 142 130
f 128 132 141
f 130 143 144
f 130 144 129
f 130 142 143
f 129 144 139
f 131 117 145
f 132 131 141
f 133 124 126
f 133 126 146
f 122 137 147
f 139 148 149
f 139 149 138
f 139 144 148
f 138 149 140
f 140 150 125
f 125 150 126
f 126 150 146
f 141 151 142
f 141 131 151
f 131 145 152
f 133 153 134
f 133 146 154
f 133 154 153
f 147 137 155
f 148 144 159
f 148 159 156
f 148 156 157
f 148 157 149
f 151 158 142
f 151 131 152
f 142 158 143
f 144 143 159
f 145 160 152
f 153 161 134
f 146 150 154
f 135 134 162
f 135 162 155
f 135 155 136
f 136 155 137
f 147 155 163
f 156 159 164
f 156 164 157
f 149 165 140
f 150 140 165
f 150 165 166
f 150 166 154
f 151 167 158
f 151 152 167
f 158 168 143
f 160 169 152
f 152 169 170
f 153 171 172
f 153 172 161
f 153 154 173
f 153 173 171
f 161 172 185
f 161 185 162
f 161 162 134
f 155 174 163
f 159 168 175
f 159 175 164
f 164 175 176
f 157 164 177
f 157 177 165
f 157 165 149
f 166 165 178
f 166 178 173
f 166 173 154
f 167 179 180
f 167 180 168
f 167 168 158
f 167 152 170
f 167 170 181
f 167 181 179
f 168 159 143
f 168 180 175
f 160 182 169
f 169 181 170
f 171 183 172
f 172 183 184
f 172 184 185
f 162 185 174
f 162 174 155
f 174 185 186
f 175 187 188
f 175 188 189
f 175 189 176
f 176 190 191
f 176 177 164
f 176 189 190
f 179 181 192
f 179 192 193
f 179 193 180
f 180 193 187
f 180 187 175
f 182 194 195
f 182 195 196
f 182 196 169
f 169 192 181
f 171 173 197
f 171 197 183
f 184 198 185
f 173 178 197
f 163 174 186
f 185 198 186
f 186 199 163
f 187 193 188
f 190 200 191
f 191 197 178
f 191 178 177
f 191 177 176
f 190 189 200
f 177 178 165
f 193 196 188
f 193 192 196
f 182 201 202
f 182 202 194
f 194 203 196
f 194 196 195
f 194 202 204
f 196 192 169
f 183 197 184
f 184 205 198
f 184 197 205
f 186 198 205
f 186 205 199
f 199 205 206
f 199 206 207
f 188 196 203
f 188 203 200
f 188 200 189
f 200 203 208
f 200 208 197
f 200 197 191
f 201 209 204
f 201 204 202
f 194 204 203
f 204 209 211
f 197 208 205
f 205 207 206
f 199 207 210
f 207 204 210
f 207 205 208
f 203 204 208
f 204 207 208
f 204 211 212
f 204 212 210
f 199 210 212
f 213 214 215
f 213 215 216
f 213 216 217
f 213 217 218
f 213 218 219
f 213 219 220
f 213 220 221
f 213 221 214
f 214 221 222
f 214 222 215
f 215 222 223
f 215 223 224
f 215 224 216
f 216 224 225
f 216 225 226
f 216 226 227
f 216 227 228
f 216 228 217
f 217 228 229
f 217 229 230
f 217 230 218
f 218 230 231
f 218 231 232
f 218 232 219
f 219 232 233
f 219 233 234
f 219 234 220
f 220 234 235
f 220 235 236
f 220 236 221
f 221 237 238
f 221 238 222
f 221 236 237
f 222 238 237
f 222 237 252
f 222 252 272
f 222 272 289
f 222 289 312
f 222 312 329
f 222 329 342
f 222 342 344
f 222 344 332
f 222 332 314
f 222 314 293
f 222 293 276
f 222 276 254
f 222 254 239
f 222 239 223
f 223 239 224
f 224 239 225
f 225 240 241
f 225 241 226
f 225 239 240
f 226 241 242
f 226 242 243
f 226 243 227
f 227 243 228
f 228 243 244
f 228 244 229
f 229 244 245
f 229 245 246
f 229 246 230
f 230 246 231
f 231 246 247
f 231 247 248
f 231 248 232
f 232 248 233
f 233 248 249
f 233 249 234
f 234 249 250
f 234 250 235
f 235 250 236
f 236 250 251
f 236 251 237
f 237 251 253
f 237 253 252
f 239 254 240
f 240 255 256
f 240 256 241
f 240 254 255
f 241 256 257
f 241 257 258
f 241 258 242
f 242 258 243
f 243 258 244
f 244 258 259
f 244 259 245
f 245 259 260
f 245 260 261
f 245 261 246
f 246 261 262
f 246 262 263
f 246 263 282
f 246 282 303
f 246 303 283
f 246 283 264
f 246 264 247
f 247 264 248
f 248 264 265
f 248 265 266
f 248 266 267
f 248 267 249
f 249 267 268
f 249 268 269
f 249 269 270
f 249 270 271
f 249 271 250
f 250 271 251
f 251 271 270
f 251 270 253
f 252 253 273
f 252 273 272
f 253 270 269
f 253 269 274
f 253 274 275
f 253 275 273
f 254 276 255
f 255 277 256
f 255 276 277
f 256 277 278
f 256 278 260
f 256 260 259
f 256 259 257
f 257 259 258
f 260 278 279
f 260 279 261
f 261 279 262
f 262 279 280
f 262 280 281
f 262 281 263
f 263 281 282
f 264 283 265
f 265 284 285
f 265 285 286
f 265 286 266
f 265 283 287
f 265 287 284
f 266 286 288
f 266 288 267
f 267 288 268
f 268 288 275
f 268 275 274
f 268 274 269
f 272 273 290
f 272 290 291
f 272 291 289
f 273 275 292
f 273 292 290
f 275 288 292
f 276 293 277
f 277 294 278
f 277 293 294
f 278 294 295
f 278 295 296
f 278 296 297
f 278 297 279
f 279 297 280
f 280 297 298
f 280 298 281
f 281 298 299
f 281 299 300
f 281 300 301
f 281 301 302
f 281 302 282
f 282 302 303
f 283 303 287
f 284 287 304
f 284 304 285
f 285 305 292
f 285 292 286
f 285 304 306
f 285 306 305
f 286 292 288
f 287 303 302
f 287 302 307
f 287 307 308
f 287 308 309
f 287 309 310
f 287 310 311
f 287 311 304
f 289 291 313
f 289 313 312
f 290 292 291
f 291 292 313
f 292 305 313
f 293 295 294
f 293 314 295
f 295 315 296
f 295 314 315
f 296 316 317
f 296 317 297
f 296 315 316
f 297 317 298
f 298 317 299
f 299 318 319
f 299 319 320
f 299 320 300
f 299 317 321
f 299 321 318
f 300 320 322
f 300 322 301
f 301 322 323
f 301 323 302
f 302 323 324
f 302 324 307
f 304 311 306
f 305 306 325
f 305 325 313
f 306 326 325
f 306 311 327
f 306 327 326
f 307 324 308
f 308 324 328
f 308 328 309
f 309 327 310
f 309 328 327
f 310 327 311
f 312 313 329
f 313 325 330
f 313 330 331
f 313 331 329
f 314 332 333
f 314 333 334
f 314 334 315
f 315 334 321
f 315 321 316
f 316 321 317
f 318 334 333
f 318 333 319
f 318 321 334
f 319 333 335
f 319 335 320
f 320 335 336
f 320 336 322
f 322 336 337
f 322 337 323
f 323 337 324
f 324 338 328
f 324 337 338
f 325 326 330
f 326 327 330
f 327 328 339
f 327 339 330
f 328 340 339
f 328 338 340
f 329 341 342
f 329 331 341
f 330 339 340
f 330 340 341
f 330 341 331
f 332 343 333
f 332 344 343
f 333 343 336
f 333 336 335
f 336 343 337
f 337 343 345
f 337 345 346
f 337 346 341
f 337 341 338
f 338 341 340
f 341 346 342
f 342 346 344
f 343 344 345
f 344 346 345
f 347 348 349
f 347 349 350
f 347 350 351
f 347 351 352
f 347 352 353
f 347 353 354
f 347 354 355
f 347 355 348
f 348 355 356
f 348 356 357
f 348 357 349
f 349 357 358
f 349 358 359
f 349 359 350
f 350 359 360
f 350 360 361
f 350 361 351
f 351 361 362
f 351 362 363
f 351 363 352
f 352 363 364
f 352 364 365
f 352 365 353
f 353 365 366
f 353 366 367
f 353 367 354
f 354 367 368
f 354 368 369
f 354 369 370
f 354 370 371
f 354 371 355
f 355 372 356
f 355 371 372
f 356 372 387
f 356 387 408
f 356 408 425
f 356 425 446
f 356 446 470
f 356 470 482
f 356 482 475
f 356 475 450
f 356 450 430
f 356 430 413
f 356 413 410
f 356 410 388
f 356 388 373
f 356 373 358
f 356 358 357
f 358 373 374
f 358 374 375
f 358 375 359
f 359 375 376
f 359 376 360
f 360 376 361
f 361 376 377
f 361 377 362
f 362 377 378
f 362 378 363
f 363 378 364
f 364 379 365
f 364 378 380
f 364 380 379
f 365 379 366
f 366 381 382
f 366 382 367
f 366 379 381
f 367 382 383
f 367 383 368
f 368 383 369
f 369 383 384
f 369 384 385
f 369 385 386
f 369 386 370
f 370 386 387
f 370 387 372
f 370 372 371
f 373 388 374
f 374 389 390
f 374 390 391
f 374 391 392
f 374 392 393
f 374 393 375
f 374 388 389
f 375 393 376
f 376 393 377
f 377 393 392
f 377 392 394
f 377 394 395
f 377 395 378
f 378 395 396
f 378 396 397
f 378 397 398
f 378 398 380
f 379 399 400
f 379 400 401
f 379 401 381
f 379 380 398
f 379 398 419
f 379 419 436
f 379 436 420
f 379 420 399
f 381 402 403
f 381 403 382
f 381 401 402
f 382 403 404
f 382 404 383
f 383 404 384
f 384 404 385
f 385 404 405
f 385 405 406
f 385 406 386
f 386 406 407
f 386 407 387
f 387 407 409
f 387 409 408
f 388 410 389
f 389 411 412
f 389 412 390
f 389 410 413
f 389 413 411
f 390 412 414
f 390 414 394
f 390 394 391
f 391 394 392
f 394 414 395
f 395 414 396
f 396 414 415
f 396 415 397
f 397 415 416
f 397 416 417
f 397 417 418
f 397 418 419
f 397 419 398
f 399 420 421
f 399 421 400
f 400 422 423
f 400 423 401
f 400 421 422
f 401 423 402
f 402 423 424
f 402 424 406
f 402 406 403
f 403 406 405
f 403 405 404
f 406 424 409
f 406 409 407
f 408 409 425
f 409 424 426
f 409 426 425
f 411 427 412
f 411 413 427
f 412 427 428
f 412 428 429
f 412 429 416
f 412 416 415
f 412 415 414
f 413 430 428
f 413 428 427
f 416 429 431
f 416 431 432
f 416 432 417
f 417 432 418
f 418 433 434
f 418 434 435
f 418 435 436
f 418 436 419
f 418 432 437
f 418 437 433
f 420 436 435
f 420 435 421
f 421 435 438
f 421 438 439
f 421 439 440
f 421 440 441
f 421 441 442
f 421 442 422
f 422 442 443
f 422 443 423
f 423 443 424
f 424 443 444
f 424 444 445
f 424 445 426
f 425 426 445
f 425 445 446
f 428 447 448
f 428 448 449
f 428 449 429
f 428 430 447
f 429 449 431
f 430 450 451
f 430 451 447
f 431 449 452
f 431 452 437
f 431 437 432
f 433 453 454
f 433 454 434
f 433 437 453
f 434 454 435
f 435 454 455
f 435 455 456
f 435 456 438
f 437 452 448
f 437 448 457
f 437 457 458
f 437 458 459
f 437 459 453
f 438 460 439
f 438 456 460
f 439 460 461
f 439 461 440
f 440 462 463
f 440 463 464
f 440 464 465
f 440 465 466
f 440 466 441
f 440 461 462
f 441 466 442
f 442 466 443
f 443 466 444
f 444 466 467
f 444 467 468
f 444 468 445
f 445 468 446
f 446 469 470
f 446 468 471
f 446 471 469
f 447 451 448
f 448 451 472
f 448 472 457
f 448 452 449
f 450 473 474
f 450 474 451
f 450 475 476
f 450 476 473
f 451 474 477
f 451 477 478
f 451 478 472
f 453 459 455
f 453 455 454
f 455 477 456
f 455 459 478
f 455 478 477
f 456 477 460
f 457 472 458
f 458 472 459
f 459 472 478
f 460 479 461
f 460 477 479
f 461 480 462
f 461 479 480
f 462 480 469
f 462 469 463
f 463 469 471
f 463 471 464
f 464 481 465
f 464 471 481
f 465 467 466
f 465 481 468
f 465 468 467
f 468 481 471
f 469 480 479
f 469 479 476
f 469 476 482
f 469 482 470
f 473 476 477
f 473 477 474
f 475 482 476
f 476 479 477
f 483 484 485
f 483 485 486
f 483 486 487
f 483 487 488
f 483 488 489
f 483 489 490
f 483 490 491
f 483 491 484
f 484 492 485
f 484 491 493
f 484 493 492
f 485 492 494
f 485 494 486
f 486 495 496
f 486 496 487
f 486 494 495
f 487 496 497
f 487 497 498
f 487 498 499
f 487 499 500
f 487 500 488
f 488 500 501
f 488 501 489
f 489 501 502
f 489 502 490
f 490 503 491
f 490 502 504
f 490 504 503
f 491 503 505
f 491 505 493
f 492 506 494
f 492 493 507
f 492 507 508
f 492 508 509
f 492 509 506
f 493 505 510
f 493 510 511
f 493 511 507
f 494 506 512
f 494 512 495
f 495 512 513
f 495 513 514
f 495 514 515
f 495 515 516
f 495 516 497
f 495 497 496
f 497 516 535
f 497 535 517
f 497 517 498
f 498 517 499
f 499 518 500
f 499 517 535
f 499 535 519
f 499 519 520
f 499 520 518
f 500 518 501
f 501 521 522
f 501 522 502
f 501 518 520
f 501 520 521
f 502 522 504
f 503 504 523
f 503 523 510
f 503 510 505
f 504 522 524
f 504 524 525
f 504 525 523
f 506 509 526
f 506 526 513
f 506 513 512
f 507 511 510
f 507 510 523
f 507 523 544
f 507 544 564
f 507 564 545
f 507 545 527
f 507 527 528
f 507 528 508
f 508 528 509
f 509 528 526
f 513 526 529
f 513 529 530
f 513 530 514
f 514 530 531
f 514 531 532
f 514 532 533
f 514 533 515
f 515 533 534
f 515 534 516
f 516 534 536
f 516 536 535
f 519 535 536
f 519 536 534
f 519 534 537
f 519 537 538
f 519 538 520
f 520 538 539
f 520 539 521
f 521 540 522
f 521 539 541
f 521 541 540
f 522 540 542
f 522 542 524
f 523 525 543
f 523 543 542
f 523 542 544
f 524 542 525
f 525 542 543
f 526 528 529
f 527 545 546
f 527 546 528
f 528 546 529
f 529 546 547
f 529 547 548
f 529 548 549
f 529 549 530
f 530 549 550
f 530 550 531
f 531 550 532
f 532 551 552
f 532 552 533
f 532 550 551
f 533 552 534
f 534 552 553
f 534 553 537
f 537 553 539
f 537 539 538
f 539 553 554
f 539 554 555
f 539 555 541
f 540 556 557
f 540 557 558
f 540 558 559
f 540 559 560
f 540 560 542
f 540 541 556
f 541 555 561
f 541 561 562
f 541 562 556
f 542 560 563
f 542 563 544
f 544 563 565
f 544 565 564
f 545 564 585
f 545 585 597
f 545 597 599
f 545 599 598
f 545 598 601
f 545 601 593
f 545 593 595
f 545 595 594
f 545 594 588
f 545 588 567
f 545 567 566
f 545 566 548
f 545 548 547
f 545 547 546
f 548 566 549
f 549 566 567
f 549 567 568
f 549 568 550
f 550 568 569
f 550 569 551
f 551 569 570
f 551 570 552
f 552 570 571
f 552 571 554
f 552 554 553
f 554 571 555
f 555 571 561
f 556 572 573
f 556 573 574
f 556 574 557
f 556 562 575
f 556 575 576
f 556 576 577
f 556 577 578
f 556 578 572
f 557 574 579
f 557 579 558
f 558 579 580
f 558 580 581
f 558 581 559
f 559 581 582
f 559 582 565
f 559 565 560
f 560 565 563
f 561 571 583
f 561 583 577
f 561 577 584
f 561 584 576
f 561 576 575
f 561 575 562
f 564 565 582
f 564 582 580
f 564 580 586
f 564 586 587
f 564 587 585
f 567 588 568
f 568 589 569
f 568 588 589
f 569 590 570
f 569 589 591
f 569 591 590
f 570 590 583
f 570 583 571
f 572 592 573
f 572 578 577
f 572 577 593
f 572 593 592
f 573 592 587
f 573 587 586
f 573 586 574
f 574 586 579
f 576 584 577
f 577 594 595
f 577 595 593
f 577 583 596
f 577 596 594
f 579 586 580
f 580 582 581
f 583 590 591
f 583 591 596
f 585 587 597
f 587 592 598
f 587 598 599
f 587 599 597
f 588 594 589
f 589 600 591
f 589 594 600
f 591 600 596
f 592 593 601
f 592 601 598
f 594 596 600
f 602 603 610
f 602 610 620
f 602 620 631
f 602 631 612
f 602 612 604
f 602 604 605
f 602 605 606
f 602 606 607
f 602 607 608
f 602 608 617
f 602 617 616
f 602 616 619
f 602 619 609
f 602 609 603
f 603 609 611
f 603 611 621
f 603 621 610
f 604 612 613
f 604 613 614
f 604 614 605
f 605 614 615
f 605 615 606
f 606 615 607
f 607 616 617
f 607 617 608
f 607 615 618
f 607 618 616
f 609 619 611
f 610 621 622
f 610 622 623
f 610 623 620
f 611 624 646
f 611 646 621
f 611 619 625
f 611 625 626
f 611 626 627
f 611 627 628
f 611 628 629
f 611 629 630
f 611 630 624
f 612 631 632
f 612 632 613
f 613 632 633
f 613 633 614
f 614 633 634
f 614 634 615
f 615 634 635
f 615 635 636
f 615 636 618
f 616 637 638
f 616 638 639
f 616 639 619
f 616 618 637
f 618 636 640
f 618 640 641
f 618 641 637
f 619 639 642
f 619 642 625
f 620 623 643
f 620 643 644
f 620 644 645
f 620 645 631
f 621 646 630
f 621 630 647
f 621 647 648
f 621 648 649
f 621 649 650
f 621 650 622
f 622 650 623
f 623 650 651
f 623 651 652
f 623 652 653
f 623 653 643
f 624 630 646
f 625 642 626
f 626 642 654
f 626 654 627
f 627 654 655
f 627 655 656
f 627 656 628
f 628 656 657
f 628 657 658
f 628 658 630
f 628 630 629
f 630 658 659
f 630 659 647
f 631 645 660
f 631 660 632
f 632 661 662
f 632 662 633
f 632 660 661
f 633 662 663
f 633 663 664
f 633 664 634
f 634 664 665
f 634 665 635
f 635 665 666
f 635 666 667
f 635 667 668
f 635 668 636
f 636 668 640
f 637 641 638
f 638 641 669
f 638 669 639
f 639 669 670
f 639 670 654
f 639 654 642
f 640 668 671
f 640 671 641
f 641 671 672
f 641 672 669
f 643 653 645
f 643 645 644
f 645 653 661
f 645 661 660
f 647 659 673
f 647 673 674
f 647 674 648
f 648 675 649
f 648 674 676
f 648 676 675
f 649 675 650
f 650 675 651
f 651 675 652
f 652 677 653
f 652 675 678
f 652 678 677
f 653 677 661
f 654 670 679
f 654 679 655
f 655 679 680
f 655 680 681
f 655 681 656
f 656 681 682
f 656 682 657
f 657 682 683
f 657 683 659
f 657 659 658
f 659 683 673
f 661 677 662
f 662 677 663
f 663 677 684
f 663 684 665
f 663 665 664
f 665 685 666
f 665 684 685
f 666 685 686
f 666 686 687
f 666 687 688
f 666 688 689
f 666 689 690
f 666 690 667
f 667 690 668
f 668 690 671
f 669 672 679
f 669 679 670
f 671 690 691
f 671 691 692
f 671 692 672
f 672 692 681
f 672 681 680
f 672 680 679
f 673 693 676
f 673 676 674
f 673 683 694
f 673 694 695
f 673 695 693
f 675 676 678
f 676 696 697
f 676 697 678
f 676 693 696
f 677 678 698
f 677 698 684
f 678 697 698
f 681 692 682
f 682 699 683
f 682 692 691
f 682 691 689
f 682 689 699
f 683 699 694
f 684 698 685
f 685 698 686
f 686 698 700
f 686 700 696
f 686 696 701
f 686 701 687
f 687 695 702
f 687 702 699
f 687 699 688
f 687 701 695
f 688 699 689
f 689 691 690
f 693 695 696
f 694 699 695
f 695 699 702
f 695 701 696
f 696 700 698
f 696 698 697
f 703 704 705
f 703 705 711
f 703 711 727
f 703 727 752
f 703 752 768
f 703 768 772
f 703 772 755
f 703 755 771
f 703 771 776
f 703 776 775
f 703 775 774
f 703 774 762
f 703 762 760
f 703 760 739
f 703 739 718
f 703 718 706
f 703 706 707
f 703 707 708
f 703 708 704
f 704 709 705
f 704 708 710
f 704 710 723
f 704 723 709
f 705 709 712
f 705 712 713
f 705 713 714
f 705 714 715
f 705 715 716
f 705 716 717
f 705 717 711
f 706 718 719
f 706 719 707
f 707 720 708
f 707 719 721
f 707 721 722
f 707 722 720
f 708 720 710
f 709 723 712
f 710 720 724
f 710 724 725
f 710 725 726
f 710 726 723
f 711 717 728
f 711 728 729
f 711 729 730
f 711 730 727
f 712 723 726
f 712 726 731
f 712 731 713
f 713 732 751
f 713 751 750
f 713 750 749
f 713 749 748
f 713 748 747
f 713 747 746
f 713 746 745
f 713 745 767
f 713 767 780
f 713 780 779
f 713 779 778
f 713 778 781
f 713 781 769
f 713 769 754
f 713 754 738
f 713 738 717
f 713 717 716
f 713 716 715
f 713 715 714
f 713 731 732
f 717 733 734
f 717 734 735
f 717 735 736
f 717 736 737
f 717 737 730
f 717 730 729
f 717 729 728
f 717 738 753
f 717 753 733
f 718 739 719
f 719 739 721
f 720 722 721
f 720 721 740
f 720 740 724
f 721 739 741
f 721 741 742
f 721 742 740
f 724 740 743
f 724 743 725
f 725 743 744
f 725 744 726
f 726 744 745
f 726 745 746
f 726 746 747
f 726 747 748
f 726 748 749
f 726 749 750
f 726 750 751
f 726 751 732
f 726 732 731
f 727 730 737
f 727 737 736
f 727 736 735
f 727 735 734
f 727 734 752
f 733 753 768
f 733 768 752
f 733 752 734
f 738 754 755
f 738 755 756
f 738 756 757
f 738 757 758
f 738 758 759
f 738 759 753
f 739 760 741
f 740 742 761
f 740 761 743
f 741 760 742
f 742 760 762
f 742 762 763
f 742 763 761
f 743 761 764
f 743 764 765
f 743 765 744
f 744 765 766
f 744 766 745
f 745 766 767
f 753 759 768
f 754 769 755
f 755 770 765
f 755 765 771
f 755 772 756
f 755 769 770
f 756 772 757
f 757 772 773
f 757 773 758
f 758 773 772
f 758 772 768
f 758 768 759
f 761 763 774
f 761 774 775
f 761 775 776
f 761 776 771
f 761 771 764
f 762 774 763
f 764 771 777
f 764 777 765
f 765 777 771
f 765 770 766
f 766 770 778
f 766 778 779
f 766 779 780
f 766 780 767
f 769 781 770
f 770 781 778
f 782 783 784
f 782 784 785
f 782 785 786
f 782 786 787
f 782 787 788
f 782 788 789
f 782 789 790
f 782 790 783
f 783 791 792
f 783 792 784
f 783 790 793
f 783 793 791
f 784 792 794
f 784 794 795
f 784 795 785
f 785 795 796
f 785 796 797
f 785 797 786
f 786 798 799
f 786 799 787
f 786 797 798
f 787 799 788
f 788 800 789
f 788 799 801
f 788 801 802
f 788 802 800
f 789 800 803
f 789 803 804
f 789 804 805
f 789 805 806
f 789 806 790
f 790 806 807
f 790 807 793
f 791 808 792
f 791 793 809
f 791 809 810
f 791 810 808
f 792 808 794
f 793 807 809
f 794 808 811
f 794 811 812
f 794 812 795
f 795 812 813
f 795 813 814
f 795 814 796
f 796 814 797
f 797 814 815
f 797 815 816
f 797 816 817
f 797 817 798
f 798 817 799
f 799 817 818
f 799 818 801
f 800 802 803
f 801 818 802
f 802 819 820
f 802 820 803
f 802 818 821
f 802 821 819
f 803 820 823
f 803 823 804
f 804 822 805
f 804 823 824
f 804 824 822
f 805 822 806
f 806 822 825
f 806 825 807
f 807 825 826
f 807 826 809
f 808 810 827
f 808 827 828
f 808 828 811
f 809 826 829
f 809 829 830
f 809 830 810
f 810 831 832
f 810 832 833
f 810 833 827
f 810 830 834
f 810 834 831
f 811 813 812
f 811 828 813
f 813 835 836
f 813 836 814
f 813 828 837
f 813 837 838
f 813 838 835
f 814 836 815
f 815 836 835
f 815 835 816
f 816 835 839
f 816 839 817
f 817 839 865
f 817 865 864
f 817 864 886
f 817 886 903
f 817 903 907
f 817 907 908
f 817 908 905
f 817 905 894
f 817 894 891
f 817 891 902
f 817 902 901
f 817 901 904
f 817 904 890
f 817 890 870
f 817 870 844
f 817 844 843
f 817 843 821
f 817 821 818
f 819 840 841
f 819 841 842
f 819 842 820
f 819 821 843
f 819 843 844
f 819 844 840
f 820 842 845
f 820 845 823
f 822 824 846
f 822 846 825
f 823 846 824
f 823 845 847
f 823 847 846
f 825 846 848
f 825 848 826
f 826 848 849
f 826 849 829
f 827 833 850
f 827 850 851
f 827 851 828
f 828 851 852
f 828 852 838
f 828 838 837
f 829 849 853
f 829 853 830
f 830 853 854
f 830 854 834
f 831 855 856
f 831 856 857
f 831 857 832
f 831 834 855
f 832 857 858
f 832 858 859
f 832 859 833
f 833 859 860
f 833 860 850
f 834 854 861
f 834 861 862
f 834 862 863
f 834 863 855
f 835 838 864
f 835 864 865
f 835 865 839
f 838 852 866
f 838 866 864
f 840 844 867
f 840 867 841
f 841 868 869
f 841 869 845
f 841 845 842
f 841 867 868
f 844 870 867
f 845 869 849
f 845 849 848
f 845 848 847
f 846 847 848
f 849 869 853
f 850 860 871
f 850 871 851
f 851 871 852
f 852 871 872
f 852 872 866
f 853 869 873
f 853 873 854
f 854 873 861
f 855 874 875
f 855 875 876
f 855 876 856
f 855 863 862
f 855 862 874
f 856 876 877
f 856 877 857
f 857 877 858
f 858 878 879
f 858 879 880
f 858 880 860
f 858 860 859
f 858 877 878
f 860 880 881
f 860 881 882
f 860 882 871
f 861 873 883
f 861 883 862
f 862 883 884
f 862 884 885
f 862 885 875
f 862 875 874
f 864 866 872
f 864 872 886
f 867 870 887
f 867 887 888
f 867 888 868
f 868 888 869
f 869 888 889
f 869 889 873
f 870 890 887
f 871 882 872
f 872 882 886
f 873 889 883
f 875 891 892
f 875 892 876
f 875 885 891
f 876 892 893
f 876 893 877
f 877 893 878
f 878 893 894
f 878 894 895
f 878 895 896
f 878 896 879
f 879 896 880
f 880 896 881
f 881 896 882
f 882 896 897
f 882 897 886
f 883 889 898
f 883 898 884
f 884 898 899
f 884 899 900
f 884 900 885
f 885 900 901
f 885 901 902
f 885 902 891
f 886 897 903
f 887 899 888
f 887 890 904
f 887 904 899
f 888 899 889
f 889 899 898
f 891 894 893
f 891 893 892
f 894 905 895
f 895 905 906
f 895 906 896
f 896 906 897
f 897 906 903
f 899 904 900
f 900 904 901
f 903 906 907
f 905 908 906
f 906 908 907
f 909 910 918
f 909 918 933
f 909 933 949
f 909 949 966
f 909 966 956
f 909 956 955
f 909 955 937
f 909 937 921
f 909 921 911
f 909 911 912
f 909 912 913
f 909 913 914
f 909 914 915
f 909 915 910
f 910 916 917
f 910 917 918
f 910 915 919
f 910 919 916
f 911 920 912
f 911 921 920
f 912 920 922
f 912 922 923
f 912 923 913
f 913 923 924
f 913 924 925
f 913 925 926
f 913 926 914
f 914 927 928
f 914 928 915
f 914 926 927
f 915 928 919
f 916 929 930
f 916 930 931
f 916 931 932
f 916 932 918
f 916 918 917
f 916 919 929
f 918 932 933
f 919 928 927
f 919 927 934
f 919 934 935
f 919 935 930
f 919 930 929
f 920 921 936
f 920 936 922
f 921 937 938
f 921 938 936
f 922 936 939
f 922 939 940
f 922 940 924
f 922 924 923
f 924 941 942
f 924 942 925
f 924 940 941
f 925 942 943
f 925 943 926
f 926 943 927
f 927 943 944
f 927 944 934
f 930 945 946
f 930 946 931
f 930 935 945
f 931 946 947
f 931 947 948
f 931 948 932
f 932 948 933
f 933 948 949
f 934 944 950
f 934 950 935
f 935 950 951
f 935 951 952
f 935 952 945
f 936 953 939
f 936 938 954
f 936 954 953
f 937 955 938
f 938 955 956
f 938 956 957
f 938 957 954
f 939 953 958
f 939 958 940
f 940 959 941
f 940 958 960
f 940 960 959
f 941 959 961
f 941 961 942
f 942 961 943
f 943 961 962
f 943 962 944
f 944 962 963
f 944 963 950
f 945 952 964
f 945 964 965
f 945 965 946
f 946 965 947
f 947 965 966
f 947 966 948
f 948 966 949
f 950 963 951
f 951 963 967
f 951 967 968
f 951 968 952
f 952 969 970
f 952 970 971
f 952 971 964
f 952 968 972
f 952 972 969
f 953 954 973
f 953 973 958
f 954 974 973
f 954 957 975
f 954 975 976
f 954 976 974
f 956 966 986
f 956 986 1011
f 956 1011 1022
f 956 1022 1001
f 956 1001 977
f 956 977 975
f 956 975 957
f 958 973 978
f 958 978 960
f 959 960 979
f 959 979 961
f 960 978 980
f 960 980 979
f 961 979 981
f 961 981 982
f 961 982 962
f 962 982 983
f 962 983 963
f 963 983 967
f 964 971 984
f 964 984 985
f 964 985 965
f 965 985 966
f 966 985 987
f 966 987 988
f 966 988 986
f 967 983 989
f 967 989 968
f 968 990 991
f 968 991 972
f 968 989 990
f 969 972 992
f 969 992 993
f 969 993 994
f 969 994 995
f 969 995 970
f 970 995 996
f 970 996 988
f 970 988 971
f 971 988 987
f 971 987 984
f 972 991 997
f 972 997 992
f 973 974 998
f 973 998 980
f 973 980 978
f 974 999 998
f 974 976 1000
f 974 1000 999
f 975 977 976
f 976 977 1001
f 976 1001 1002
f 976 1002 1000
f 979 1003 981
f 979 980 1003
f 980 1004 1005
f 980 1005 1006
f 980 1006 1003
f 980 998 1004
f 981 1003 1006
f 981 1006 1007
f 981 1007 1008
f 981 1008 982
f 982 1008 1009
f 982 1009 1010
f 982 1010 983
f 983 1010 989
f 984 987 985
f 986 988 996
f 986 996 995
f 986 995 994
f 986 994 1011
f 989 1012 990
f 989 1010 1012
f 990 1013 1014
f 990 1014 991
f 990 1012 1013
f 991 1014 997
f 992 1015 993
f 992 997 1015
f 993 1015 1016
f 993 1016 994
f 994 1016 1011
f 997 1014 1017
f 997 1017 1015
f 998 999 1018
f 998 1018 1019
f 998 1019 1004
f 999 1000 1018
f 1000 1002 1020
f 1000 1020 1021
f 1000 1021 1018
f 1001 1022 1020
f 1001 1020 1002
f 1004 1019 1023
f 1004 1023 1005
f 1005 1023 1024
f 1005 1024 1025
f 1005 1025 1006
f 1006 1026 1007
f 1006 1025 1026
f 1007 1026 1008
f 1008 1026 1025
f 1008 1025 1027
f 1008 1027 1028
f 1008 1028 1029
f 1008 1029 1009
f 1009 1029 1010
f 1010 1029 1012
f 1011 1016 1022
f 1012 1029 1030
f 1012 1030 1013
f 1013 1031 1014
f 1013 1030 1032
f 1013 1032 1031
f 1014 1031 1017
f 1015 1033 1016
f 1015 1017 1033
f 1016 1033 1034
f 1016 1034 1022
f 1017 1031 1023
f 1017 1023 1035
f 1017 1035 1033
f 1018 1021 1035
f 1018 1035 1019
f 1019 1035 1023
f 1020 1036 1021
f 1020 1022 1037
f 1020 1037 1036
f 1021 1036 1035
f 1022 1034 1037
f 1023 1031 1027
f 1023 1027 1024
f 1024 1027 1025
f 1027 1031 1032
f 1027 1032 1030
f 1027 1030 1028
f 1028 1030 1029
f 1033 1035 1036
f 1033 1036 1037
f 1033 1037 1034
f 1038 1039 1040
f 1038 1040 1041
f 1038 1041 1042
f 1038 1042 1043
f 1038 1043 1044
f 1038 1044 1045
f 1038 1045 1046
f 1038 1046 1039
f 1039 1046 1047
f 1039 1047 1048
f 1039 1048 1040
f 1040 1049 1041
f 1040 1048 1049
f 1041 1049 1050
f 1041 1050 1051
f 1041 1051 1052
f 1041 1052 1053
f 1041 1053 1042
f 1042 1053 1054
f 1042 1054 1043
f 1043 1055 1044
f 1043 1054 1056
f 1043 1056 1055
f 1044 1055 1057
f 1044 1057 1045
f 1045 1057 1058
f 1045 1058 1059
f 1045 1059 1046
f 1046 1059 1060
f 1046 1060 1047
f 1047 1060 1061
f 1047 1061 1048
f 1048 1061 1062
f 1048 1062 1063
f 1048 1063 1064
f 1048 1064 1049
f 1049 1064 1050
f 1050 1052 1051
f 1050 1064 1063
f 1050 1063 1065
f 1050 1065 1067
f 1050 1067 1052
f 1052 1066 1053
f 1052 1067 1066
f 1053 1066 1054
f 1054 1068 1069
f 1054 1069 1056
f 1054 1066 1068
f 1055 1056 1069
f 1055 1069 1070
f 1055 1070 1071
f 1055 1071 1057
f 1057 1071 1072
f 1057 1072 1073
f 1057 1073 1058
f 1058 1073 1059
f 1059 1073 1074
f 1059 1074 1075
f 1059 1075 1060
f 1060 1075 1076
f 1060 1076 1077
f 1060 1077 1061
f 1061 1078 1062
f 1061 1077 1079
f 1061 1079 1078
f 1062 1078 1080
f 1062 1080 1081
f 1062 1081 1063
f 1063 1082 1065
f 1063 1081 1082
f 1065 1082 1083
f 1065 1083 1084
f 1065 1084 1085
f 1065 1085 1067
f 1066 1067 1086
f 1066 1086 1087
f 1066 1087 1088
f 1066 1088 1089
f 1066 1089 1068
f 1067 1085 1084
f 1067 1084 1086
f 1068 1090 1091
f 1068 1091 1069
f 1068 1089 1092
f 1068 1092 1090
f 1069 1091 1070
f 1070 1093 1094
f 1070 1094 1072
f 1070 1072 1071
f 1070 1091 1093
f 1072 1094 1116
f 1072 1116 1129
f 1072 1129 1103
f 1072 1103 1095
f 1072 1095 1075
f 1072 1075 1074
f 1072 1074 1073
f 1075 1095 1079
f 1075 1079 1096
f 1075 1096 1076
f 1076 1096 1079
f 1076 1079 1077
f 1078 1079 1097
f 1078 1097 1098
f 1078 1098 1099
f 1078 1099 1100
f 1078 1100 1101
f 1078 1101 1080
f 1079 1102 1097
f 1079 1095 1103
f 1079 1103 1102
f 1080 1104 1105
f 1080 1105 1081
f 1080 1101 1106
f 1080 1106 1104
f 1081 1105 1107
f 1081 1107 1108
f 1081 1108 1083
f 1081 1083 1082
f 1083 1108 1084
f 1084 1109 1087
f 1084 1087 1086
f 1084 1108 1109
f 1087 1109 1110
f 1087 1110 1088
f 1088 1111 1092
f 1088 1092 1089
f 1088 1110 1111
f 1090 1112 1091
f 1090 1092 1113
f 1090 1113 1112
f 1091 1114 1115
f 1091 1115 1093
f 1091 1112 1114
f 1092 1111 1113
f 1093 1115 1116
f 1093 1116 1094
f 1097 1102 1117
f 1097 1117 1098
f 1098 1118 1099
f 1098 1117 1119
f 1098 1119 1118
f 1099 1118 1120
f 1099 1120 1121
f 1099 1121 1100
f 1100 1122 1101
f 1100 1121 1122
f 1101 1122 1123
f 1101 1123 1124
f 1101 1124 1125
f 1101 1125 1126
f 1101 1126 1127
f 1101 1127 1128
f 1101 1128 1106
f 1102 1103 1117
f 1103 1129 1117
f 1104 1130 1131
f 1104 1131 1105
f 1104 1106 1128
f 1104 1128 1127
f 1104 1127 1126
f 1104 1126 1130
f 1105 1131 1107
f 1107 1131 1109
f 1107 1109 1108
f 1109 1131 1132
f 1109 1132 1133
f 1109 1133 1110
f 1110 1133 1111
f 1111 1134 1113
f 1111 1133 1135
f 1111 1135 1134
f 1112 1113 1134
f 1112 1134 1136
f 1112 1136 1137
f 1112 1137 1114
f 1114 1137 1116
f 1114 1116 1115
f 1116 1137 1136
f 1116 1136 1150
f 1116 1150 1149
f 1116 1149 1154
f 1116 1154 1142
f 1116 1142 1141
f 1116 1141 1152
f 1116 1152 1144
f 1116 1144 1129
f 1117 1129 1119
f 1118 1119 1120
f 1119 1129 1120
f 1120 1138 1121
f 1120 1129 1138
f 1121 1138 1122
f 1122 1138 1123
f 1123 1139 1124
f 1123 1138 1140
f 1123 1140 1139
f 1124 1139 1141
f 1124 1141 1126
f 1124 1126 1125
f 1126 1141 1142
f 1126 1142 1143
f 1126 1143 1130
f 1129 1144 1140
f 1129 1140 1138
f 1130 1143 1145
f 1130 1145 1146
f 1130 1146 1147
f 1130 1147 1132
f 1130 1132 1131
f 1132 1147 1135
f 1132 1135 1133
f 1134 1135 1148
f 1134 1148 1149
f 1134 1149 1150
f 1134 1150 1136
f 1135 1147 1146
f 1135 1146 1151
f 1135 1151 1148
f 1139 1152 1141
f 1139 1140 1152
f 1140 1144 1152
f 1142 1153 1143
f 1142 1154 1148
f 1142 1148 1153
f 1143 1153 1145
f 1145 1151 1146
f 1145 1153 1148
f 1145 1148 1151
f 1148 1154 1149

