# https://github.com/mikedh/trimesh
v -0.00153897 -0.04720970 -0.13667427
v 0.00509512 -0.04653583 -0.11236859
v 0.00026186 -0.04661972 -0.14050739
v 0.01316858 -0.04533391 -0.13667427
v -0.01211889 -0.04552532 -0.13718535
v 0.01588932 -0.04383643 -0.14050739
v -0.01796728 -0.04302125 -0.14053577
v 0.03226135 -0.03369407 -0.14053577
v 0.00333541 -0.04567394 -0.08692452
v -0.00370723 -0.04543918 -0.08293968
v -0.03352467 -0.03164939 -0.14051802
v 0.03956860 -0.02467765 -0.14053577
v 0.02941075 -0.03678137 -0.13667427
v 0.01457982 -0.04406837 -0.10105203
v -0.01201933 -0.04453900 -0.09091824
v -0.02562517 -0.03964798 -0.13724923
v -0.04120934 -0.02316440 -0.13667427
v -0.04521793 -0.01125660 -0.14052157
v 0.03956860 -0.01125660 -0.14053577
v 0.04149930 -0.00094311 -0.05084089
v 0.02055591 -0.04256638 -0.13667427
v -0.03566614 -0.03083366 -0.13714986
v 0.00038307 0.04475151 -0.06912626
v -0.04590190 -0.01125660 -0.13667427
v -0.04692353 0.00160599 -0.11505266
v -0.01578442 0.04173966 -0.06912626
v -0.00628998 0.04424485 -0.06912626
v 0.00698253 0.04413000 -0.06912626
v 0.01515232 0.04205267 -0.06912626
v 0.02491948 0.03696911 -0.06912626
v 0.03321588 0.02951772 -0.06912626
v 0.03641497 0.02132097 -0.06912626
v 0.04030235 0.01118087 -0.05084089
v -0.02450830 0.02955600 0.00448374
v -0.02450830 -0.02455155 0.00448374
v 0.00952578 -0.04273752 -0.05796764
v -0.01940341 -0.04262380 -0.11242627
v -0.03936088 -0.02524512 -0.10763487
v -0.04514867 0.00773103 -0.08536731
v -0.04410972 0.01236985 -0.08576483
v -0.03630032 0.02613319 -0.06912626
v -0.03207529 0.03123138 -0.06912626
v -0.02432216 0.03752756 -0.06912626
v -0.03180689 0.02927677 0.00448374
v -0.00922717 0.04249065 -0.05325433
v 0.00039173 0.04355803 -0.05625694
v 0.00952578 0.04274286 -0.05796764
v 0.02076370 0.03875257 -0.06011135
v 0.03676344 0.01983700 -0.05084089
v 0.03206222 0.02485413 -0.05084089
v -0.02933940 -0.02929846 0.00448374
v 0.03363362 -0.02337158 -0.05084089
v 0.03843008 -0.01681418 -0.05084089
v 0.04109887 -0.00682270 -0.05084089
v 0.03619852 -0.02977585 -0.11522125
v -0.02613112 -0.03844718 -0.10150278
v -0.03304848 -0.03308579 -0.11069515
v -0.04422282 -0.01433376 -0.10421435
v 0.02076370 -0.03876525 -0.06011135
v 0.02672897 -0.03502717 -0.06184335
v 0.03233495 -0.03095132 -0.06912626
v 0.03957725 -0.02175925 -0.07557157
v 0.02439243 -0.03898030 -0.08840542
v -0.00177490 -0.04355720 -0.05577070
v -0.04320931 0.00392090 -0.05223217
v -0.04131323 0.00792019 -0.03840456
v -0.04536241 -0.00172000 -0.08001959
v -0.00962110 -0.04232768 -0.05294200
v -0.03178957 -0.02925342 0.00448374
v -0.03386963 0.01961069 0.00448374
v -0.01801057 -0.04070635 -0.06686899
v -0.04248908 -0.01633566 -0.08183943
v -0.04186517 -0.00491763 -0.04045954
v -0.03974792 0.00259258 -0.02008125
v -0.04368116 -0.00820759 -0.06521507
v -0.03433932 -0.01597874 0.00448374
v -0.03646266 0.00062418 -0.00222777
v 0.00474849 -0.03118469 -0.05082370
v 0.02946953 -0.02948722 0.04746214
v -0.00491852 -0.02946127 0.04067259
v -0.03179741 -0.02927352 0.00448334
v -0.02132949 -0.02484667 -0.02552676
v 0.00474849 0.03119415 -0.05082370
v 0.03651956 -0.02916361 -0.04664090
v 0.04987483 -0.02911476 -0.03884568
v 0.05666470 -0.02912086 -0.03207615
v 0.06245981 -0.02910560 -0.02335530
v 0.06436260 -0.02949944 0.01451006
v 0.03085709 -0.02916971 0.04852284
v 0.01978721 -0.02883999 0.05027402
v -0.00317642 -0.02914529 0.04511056
v -0.01615674 -0.02913918 0.03687504
v -0.02866010 -0.02900790 0.01844770
v -0.03450494 -0.01330634 0.00448334
v -0.03467329 0.00713424 0.00448334
v -0.02132949 0.02956385 -0.02552676
v -0.02284458 0.02955164 0.02517220
v 0.02075263 0.02955622 0.04503051
v 0.06693368 0.02943715 0.00237443
v 0.05759824 0.02908758 -0.03106046
v 0.04990544 0.02912422 -0.03887570
v 0.02560272 0.02809841 -0.05082370
v -0.03180762 0.02925855 0.00448334
v 0.03049234 -0.02566258 -0.05082370
v 0.06729076 -0.02910255 -0.00985626
v 0.06731117 -0.02911476 0.00983693
v 0.06150587 -0.02912086 0.02525726
v 0.05000620 -0.02815116 0.03862997
v -0.03363899 0.02210232 0.00448334
v -0.01130028 0.02911506 0.04072763
v 0.00205499 0.02914864 0.04754219
v 0.01979741 0.02810146 0.05036408
v 0.03087749 0.02916696 0.04853285
v 0.06393154 0.02907995 0.02003126
v 0.06731117 0.02911811 -0.00992631
v -0.01999294 0.02910590 0.03296242
v 0.03821192 -0.01683484 -0.05082370
v 0.01386457 -0.02718221 0.05037409
v 0.04269025 -0.01389977 0.04475470
v -0.01238176 -0.02059995 0.04081768
v -0.02191104 -0.02732570 0.03102112
v 0.04993605 0.02914253 0.03882635
v 0.05760844 0.02908758 0.03102112
v 0.06761725 0.02860215 0.00831091
v -0.02867540 0.02904179 0.01849773
v 0.06877844 -0.01937894 -0.00234936
v 0.00458653 -0.02000977 0.04901661
v -0.00404237 -0.00713432 0.04623068
v -0.03162461 0.00716782 0.01419172
v 0.03832033 0.01653747 -0.05082370
v 0.04130716 0.00289439 -0.05082370
v 0.06534206 -0.01387420 -0.01945269
v 0.06826002 -0.01354142 0.00966682
v 0.05728196 -0.00730834 0.03275729
v 0.03247166 -0.01354447 0.04905320
v 0.02369100 -0.00664851 0.05096198
v -0.01709539 -0.00314367 0.03735912
v -0.02492593 0.02033158 0.02731114
v 0.01761149 0.00713577 0.05127218
v 0.04793633 0.02743286 0.04069760
v 0.06911322 0.01008019 0.00130184
v 0.06173032 0.02010566 -0.02574878
v 0.06112071 -0.00690191 -0.02769759
v 0.06546513 -0.00670118 0.01902902
v 0.05066012 -0.00688493 0.03947522
v -0.02866520 -0.01063802 0.02129460
v -0.00709998 0.01364094 0.04458458
v 0.00537883 0.00674975 0.04964516
v 0.05613416 0.00702433 -0.03426762
v 0.03989409 0.00719969 0.04626884
v 0.06552252 0.01370277 0.01879480
v 0.06810698 0.00345404 -0.01058738
v 0.06555313 0.00698197 -0.01904992
v -0.02690970 0.00276349 0.02484448
v 0.00437714 0.04707124 -0.13668405
v -0.00051822 0.04651983 -0.14349921
v -0.00838411 0.04651064 -0.13769890
v -0.00125391 0.04667492 -0.10646861
v 0.01301111 0.04459910 -0.14347699
v -0.01632403 0.04320680 -0.14361773
v -0.00830545 0.04360657 -0.14454001
v -0.00850210 0.04577256 -0.10484677
v 0.04304031 -0.00580642 -0.14453074
v 0.00725831 0.04595536 -0.10301404
v 0.02917320 0.03549858 -0.14364181
v -0.04320225 -0.00629349 -0.14455852
v 0.01882724 0.04331018 -0.13668405
v 0.04601083 0.00629468 -0.14358069
v -0.00830545 -0.04360768 -0.14454001
v -0.04524275 -0.01015564 -0.14364736
v -0.04379681 0.01444401 -0.14364366
v -0.03227791 0.03267262 -0.14370108
v 0.01317537 0.04439692 -0.09505969
v -0.02102159 0.04216946 -0.13711740
v -0.01736684 0.04325303 -0.10750200
v -0.00471606 0.04431765 -0.06915466
v 0.04115249 0.02140323 -0.14356588
v 0.02316505 -0.03560079 -0.14449926
v -0.00051822 -0.04652095 -0.14349921
v -0.02479953 -0.03869097 -0.14367886
v -0.03750642 -0.02729522 -0.14363997
v 0.02588341 0.03944919 -0.13685258
v 0.04508544 -0.01015105 -0.14363997
v 0.03625713 -0.02906891 -0.14350662
v 0.01593190 -0.04309418 -0.14374459
v -0.04710280 0.00402472 -0.13772854
v 0.03358967 0.03318037 -0.13669887
v -0.03235888 0.03422575 -0.13748224
v 0.00025911 -0.04662204 -0.14054351
v -0.04332718 0.01819588 -0.13727666
v 0.02574258 0.03885011 -0.10530814
v -0.01708749 0.04119416 -0.06915466
v 0.01218751 0.04304827 -0.06914726
v 0.03896971 0.02668870 -0.13669887
v 0.04305419 0.01937222 -0.13725074
v 0.04631622 0.00930444 -0.13670628
v 0.03957006 -0.02159275 -0.07513645
v -0.00924936 -0.04571681 -0.14054351
v 0.01308630 -0.04449338 -0.14054351
v -0.02097416 -0.04161343 -0.14054351
v -0.04589053 -0.01124927 -0.13669145
v -0.04513170 0.01156061 -0.10140817
v -0.02904364 0.03622977 -0.10059285
v 0.04645792 -0.00772830 -0.13670534
v 0.04219588 -0.02126305 -0.13724704
v 0.03957006 -0.02584318 -0.13668405
v 0.02526339 -0.03919642 -0.14054351
v 0.00235977 -0.01123089 -0.06914726
v -0.02818765 -0.03720217 -0.14054351
v -0.04215018 0.01899715 -0.09443606
v 0.02158030 0.03920450 -0.06914726
v 0.03957006 0.00000404 -0.06889169
v -0.02135126 0.04019301 -0.08173309
v 0.04621327 -0.00337218 -0.10045650
v 0.03957006 -0.02396035 -0.09465320
v 0.03870019 -0.01124927 -0.06915466
v -0.04298477 0.01236935 -0.06913985
v -0.04577949 0.00212236 -0.08578515
v -0.04555738 -0.01124008 -0.11504591
v -0.03752261 0.02731248 -0.10134150
v 0.03651856 0.01987997 -0.06915096
v 0.02829870 0.03472891 -0.06914726
v -0.02823739 0.03448308 -0.06915466
v -0.03648848 0.02585585 -0.06914726
v 0.04401198 -0.00966857 -0.07567352
v 0.04302932 0.01197934 -0.07566704
v 0.03644799 0.02816946 -0.09262300
v 0.04443534 -0.01365191 -0.10055558
v 0.03942199 0.02185470 -0.07506052
v 0.04402123 0.01453592 -0.09615050
v 0.04534223 0.00771914 -0.08987795
f 1 3 4
f 1 4 2
f 1 5 3
f 4 3 6
f 3 7 8
f 3 8 6
f 2 9 10
f 2 10 1
f 5 7 3
f 7 19 12
f 7 12 8
f 8 13 6
f 4 14 2
f 1 15 5
f 7 5 16
f 7 16 11
f 11 18 7
f 7 18 19
f 13 21 6
f 1 10 15
f 11 16 22
f 11 22 17
f 11 17 18
f 18 23 19
f 18 25 26
f 18 26 27
f 18 27 23
f 19 23 28
f 19 28 29
f 19 29 30
f 19 30 31
f 19 31 32
f 19 32 33
f 19 33 20
f 19 20 12
f 20 34 35
f 12 13 8
f 6 21 4
f 4 21 14
f 14 36 2
f 2 36 9
f 5 37 16
f 22 38 17
f 18 17 24
f 18 24 25
f 25 39 40
f 25 40 41
f 25 41 42
f 25 42 43
f 25 43 26
f 27 26 45
f 27 45 46
f 23 27 46
f 23 46 28
f 28 46 47
f 29 48 30
f 30 48 31
f 31 49 33
f 31 33 32
f 33 34 20
f 34 44 70
f 34 70 76
f 34 76 69
f 34 69 51
f 34 51 35
f 34 33 49
f 34 49 50
f 34 50 48
f 34 48 47
f 34 47 46
f 34 46 44
f 35 51 52
f 35 52 53
f 35 53 54
f 35 54 20
f 12 55 13
f 22 16 57
f 17 58 24
f 41 44 42
f 42 44 43
f 43 44 26
f 44 45 26
f 44 41 40
f 47 29 28
f 48 29 47
f 49 31 50
f 50 31 48
f 51 36 59
f 51 59 52
f 52 60 61
f 52 61 62
f 52 62 53
f 53 62 54
f 54 62 12
f 54 12 20
f 13 63 21
f 9 64 10
f 56 57 16
f 22 57 38
f 39 25 67
f 40 66 44
f 44 46 45
f 36 51 64
f 52 59 60
f 12 62 55
f 55 61 13
f 14 21 63
f 9 36 64
f 15 37 5
f 17 38 58
f 39 66 40
f 51 68 64
f 13 61 63
f 10 64 68
f 10 68 15
f 16 37 56
f 57 56 69
f 38 57 69
f 24 58 25
f 39 67 65
f 39 65 66
f 44 66 70
f 51 69 68
f 59 63 60
f 62 61 55
f 14 63 59
f 14 59 36
f 37 15 71
f 69 71 68
f 69 72 38
f 69 56 71
f 58 67 25
f 37 71 56
f 69 75 72
f 38 72 58
f 73 65 67
f 66 65 74
f 63 61 60
f 68 71 15
f 58 75 67
f 58 72 75
f 67 75 73
f 66 74 70
f 65 73 74
f 69 76 75
f 75 76 73
f 74 77 70
f 74 73 76
f 70 77 76
f 74 76 77
f 78 79 80
f 78 80 81
f 78 81 82
f 78 82 96
f 78 96 83
f 78 83 102
f 78 102 130
f 78 130 131
f 78 131 117
f 78 117 104
f 78 84 85
f 78 85 86
f 78 86 87
f 78 87 88
f 78 88 79
f 79 89 90
f 79 90 80
f 80 90 91
f 80 92 81
f 81 92 93
f 82 81 94
f 82 94 95
f 82 95 96
f 83 97 98
f 83 98 99
f 83 99 100
f 83 100 101
f 83 101 102
f 83 96 103
f 83 103 97
f 84 78 104
f 87 105 106
f 87 106 88
f 88 107 79
f 79 108 89
f 80 91 92
f 96 95 109
f 97 110 98
f 98 111 112
f 98 112 113
f 99 115 100
f 96 109 103
f 97 103 116
f 85 84 117
f 106 107 88
f 107 108 79
f 89 108 119
f 91 90 118
f 91 120 92
f 92 121 93
f 98 110 111
f 98 122 99
f 99 122 114
f 99 124 115
f 103 125 116
f 84 104 117
f 105 126 106
f 118 127 91
f 91 127 128
f 93 94 81
f 97 116 110
f 113 122 98
f 114 122 123
f 114 124 99
f 101 130 102
f 85 117 131
f 85 131 86
f 87 132 105
f 89 135 136
f 89 136 90
f 119 135 89
f 92 137 121
f 94 129 95
f 95 125 109
f 113 140 122
f 115 124 141
f 100 115 142
f 101 100 131
f 101 131 130
f 125 138 116
f 87 143 132
f 106 126 133
f 108 107 134
f 108 134 145
f 108 145 119
f 91 128 120
f 110 116 147
f 112 111 148
f 100 149 131
f 103 109 125
f 86 143 87
f 106 133 144
f 106 144 107
f 127 148 128
f 92 120 137
f 121 146 93
f 93 146 94
f 129 125 95
f 110 147 111
f 111 147 148
f 148 139 112
f 112 139 136
f 114 151 124
f 141 124 133
f 115 141 152
f 115 153 142
f 100 142 149
f 126 105 152
f 126 141 133
f 107 144 134
f 136 139 90
f 90 139 118
f 135 119 150
f 118 139 148
f 118 148 127
f 128 137 120
f 121 137 154
f 94 146 129
f 123 151 114
f 115 152 153
f 86 131 149
f 86 149 143
f 132 143 153
f 153 152 132
f 105 132 152
f 126 152 141
f 135 112 136
f 128 147 137
f 121 154 146
f 129 154 125
f 113 112 135
f 113 150 140
f 113 135 150
f 140 145 122
f 123 122 134
f 123 134 144
f 123 144 151
f 151 144 133
f 151 133 124
f 153 143 142
f 142 143 149
f 138 125 154
f 145 140 119
f 119 140 150
f 128 148 147
f 137 147 116
f 137 116 154
f 154 116 138
f 146 154 129
f 134 122 145
f 155 156 157
f 155 157 158
f 156 155 159
f 159 161 156
f 156 161 160
f 160 157 156
f 157 162 158
f 159 165 161
f 158 164 155
f 163 161 165
f 163 166 161
f 159 155 167
f 165 168 163
f 163 169 166
f 166 171 172
f 166 172 161
f 161 172 160
f 155 164 173
f 160 174 157
f 157 175 162
f 165 177 168
f 163 178 169
f 169 180 181
f 169 181 166
f 166 170 171
f 155 173 167
f 167 165 159
f 165 167 182
f 174 175 157
f 162 176 158
f 163 168 183
f 163 184 178
f 178 185 179
f 178 179 169
f 166 181 170
f 170 186 171
f 165 182 187
f 174 160 172
f 174 172 188
f 163 183 184
f 179 180 169
f 171 186 190
f 167 191 182
f 176 164 158
f 165 187 194
f 165 194 177
f 177 194 195
f 177 195 168
f 168 195 196
f 168 196 204
f 184 185 178
f 179 189 198
f 179 185 199
f 179 199 189
f 170 201 186
f 171 190 172
f 190 186 202
f 172 190 188
f 162 192 176
f 175 192 162
f 168 204 183
f 184 183 205
f 184 205 206
f 184 206 207
f 184 207 185
f 197 189 199
f 197 208 198
f 197 198 189
f 179 198 180
f 180 200 209
f 180 198 200
f 180 209 181
f 170 181 201
f 167 173 211
f 182 191 187
f 174 203 175
f 188 203 174
f 176 212 193
f 164 176 193
f 164 193 173
f 196 214 204
f 183 204 205
f 206 215 207
f 185 207 199
f 197 199 207
f 197 207 215
f 197 216 208
f 208 217 218
f 208 218 200
f 208 200 198
f 200 218 209
f 209 218 219
f 209 219 181
f 201 181 219
f 186 201 219
f 186 219 218
f 202 210 190
f 190 220 188
f 167 211 191
f 192 212 176
f 212 221 222
f 212 222 211
f 212 211 193
f 212 192 223
f 212 223 224
f 212 224 217
f 212 225 226
f 192 175 213
f 187 227 194
f 197 215 228
f 216 197 225
f 208 212 217
f 218 202 186
f 190 210 220
f 191 222 187
f 212 226 221
f 221 226 229
f 221 229 222
f 192 213 223
f 212 208 216
f 195 230 196
f 173 193 211
f 203 213 175
f 229 227 222
f 224 210 217
f 212 216 225
f 226 225 231
f 194 227 230
f 194 230 195
f 230 231 196
f 214 196 231
f 205 228 215
f 205 204 228
f 215 206 205
f 197 228 214
f 197 214 225
f 217 202 218
f 222 227 187
f 188 220 203
f 231 225 214
f 217 210 202
f 211 222 191
f 203 223 213
f 226 231 230
f 229 226 230
f 223 203 220
f 223 220 224
f 227 229 230
f 204 214 228
f 210 224 220

