# https://github.com/mikedh/trimesh
v 0.00015355 0.00957117 0.05760207
v -0.02056265 -0.01076989 0.05673560
v 0.02120771 0.00984659 0.05660928
v -0.04065585 -0.00119663 0.05442680
v -0.01383724 -0.03887410 0.05449172
v 0.01337540 -0.03196093 0.05527819
v 0.03817979 -0.01741977 0.05432709
v -0.02401230 0.02653182 0.05520776
v -0.03333426 -0.02645748 0.05407730
v 0.03582000 0.02467719 0.05343011
v 0.00473099 0.04142286 0.05434838
v 0.01425785 -0.12099161 0.04070773
v 0.02538981 -0.12099161 0.04017408
v 0.04424415 0.01083827 0.05096625
v -0.04032790 -0.02113427 0.05131255
v -0.00060263 -0.12100000 0.03617741
v 0.03889897 -0.12100000 0.03503915
v 0.04492165 -0.00831390 0.05098683
v 0.02243004 0.03869387 0.05187281
v -0.01661036 0.04107232 0.05189676
v -0.03441605 0.03003527 0.05042888
v -0.04516180 0.00347665 0.05060682
v -0.01119354 -0.12100000 0.02858145
v 0.04836624 -0.12100000 0.02749144
v 0.04217348 0.02705145 0.04338165
v -0.04979649 0.00663953 0.04287354
v -0.04738314 0.01649313 0.04306941
v -0.04920186 -0.01171694 0.04188289
v -0.01812021 -0.12100000 0.01908366
v 0.05088941 -0.00378037 0.04245060
v 0.04599842 0.01988253 0.04321701
v 0.02890806 0.04060487 0.04340151
v 0.01796895 0.04669363 0.04341713
v -0.03723654 0.03278418 0.04332807
v -0.00184547 0.05006415 0.04348383
v -0.02434109 0.04371741 0.04334900
v -0.02297371 -0.12098322 0.00051955
v 0.05688529 -0.12097903 -0.01237314
v 0.05890357 -0.12098322 0.00256330
v 0.05604290 -0.12098322 0.01516646
v 0.03562180 0.03544526 -0.00000842
v -0.04939471 -0.01086120 -0.04182026
v -0.04793759 0.01439992 -0.04309193
v 0.01846046 -0.12096644 -0.04080122
v 0.03015224 -0.12096644 -0.03900442
v 0.04058243 -0.12096644 -0.03403695
v 0.04947783 -0.12096644 -0.02594851
v 0.05088941 -0.00544990 -0.04236526
v 0.05858215 -0.09579761 -0.00449901
v 0.05001755 0.00525000 -0.04259802
v 0.02677060 0.04222197 -0.04340133
v -0.01313681 0.04819327 0.04343132
v -0.04191894 0.02732831 -0.04314018
v 0.00878176 -0.03049282 -0.05574973
v -0.02642365 -0.03208167 -0.05441136
v 0.03764676 -0.01859642 -0.05440071
v 0.04261409 -0.00637905 -0.05341148
v 0.05740895 -0.05918116 0.00091978
v 0.04679796 0.01753554 -0.04315437
v 0.03956459 0.03071771 -0.04340984
v 0.01064183 0.04891478 -0.04338146
v -0.03668844 0.03426127 -0.03457841
v -0.05026256 0.00004530 -0.04228578
v -0.01764075 -0.12096644 -0.01985840
v -0.00862483 -0.12096644 -0.03074140
v 0.00452139 -0.12096644 -0.03857296
v -0.00197404 0.05001382 -0.04338146
v -0.02127485 0.04505660 -0.04329559
v -0.03673599 -0.02321070 -0.05344696
v 0.02214653 0.00111301 -0.05678296
v -0.04253132 0.00327844 -0.05319025
v -0.00054370 0.04090270 -0.05449155
v 0.00132185 0.00516951 -0.05769520
v 0.03684052 0.02419374 -0.05254288
v 0.02206559 0.03590196 -0.05390680
v -0.02423797 0.03442985 -0.05389190
v -0.02108978 0.00991587 -0.05667616
v 0.04418587 -0.05243424 -0.03544687
v 0.04407925 -0.05078916 -0.03602185
v 0.04407925 -0.04917312 -0.03656066
v 0.04469725 -0.04917312 -0.03593650
v 0.04547017 -0.05243424 -0.03406837
v 0.04418587 -0.05243424 -0.02917275
v 0.04407925 -0.05078916 -0.02997844
v 0.04407925 -0.04917312 -0.03115082
v 0.04471240 -0.04917312 -0.03591914
v 0.04530867 -0.04917312 -0.03522700
v 0.04630255 -0.05243424 -0.03302474
v 0.04554478 -0.05243424 -0.02917275
v 0.04418587 -0.05214341 -0.02917275
v 0.04407925 -0.05078373 -0.02995458
v 0.04418587 -0.05167698 -0.02917492
v 0.04573486 -0.05243424 -0.02930077
v 0.04661183 -0.05243424 -0.03002473
v 0.04430450 -0.04917312 -0.03140467
v 0.04540471 -0.04917312 -0.03508886
v 0.04645890 -0.05243424 -0.03281499
v 0.04641432 -0.05243424 -0.03287864
v 0.04449458 -0.05187524 -0.02917275
v 0.04668787 -0.05243424 -0.03011730
v 0.04464237 -0.04917312 -0.03180680
v 0.04546846 -0.04917312 -0.03497893
v 0.04655838 -0.05243424 -0.03265733
v 0.04652551 -0.05243424 -0.03271230
v 0.04676647 -0.05243424 -0.03022290
v 0.04495165 -0.04917312 -0.03223712
v 0.04547532 -0.04917312 -0.03496591
v 0.04662927 -0.05243424 -0.03253148
v 0.04678363 -0.05243424 -0.03025400
v 0.04550733 -0.04917312 -0.03312454
v 0.04524064 -0.04917312 -0.03268915
v 0.04553420 -0.04917312 -0.03484441
v 0.04665014 -0.05243424 -0.03249026
v 0.04686423 -0.05243424 -0.03040154
v 0.04562081 -0.04917312 -0.03334730
v 0.04559137 -0.04917312 -0.03470410
v 0.04673303 -0.05243424 -0.03231090
v 0.04672217 -0.05243424 -0.03233693
v 0.04692941 -0.05243424 -0.03057801
v 0.04565368 -0.04917312 -0.03343409
v 0.04563911 -0.04917312 -0.03456669
v 0.04680421 -0.05243424 -0.03212358
v 0.04697257 -0.05243424 -0.03076461
v 0.04569713 -0.04917312 -0.03361635
v 0.04564282 -0.04917312 -0.03455367
v 0.04687767 -0.05243424 -0.03190082
v 0.04699658 -0.05243424 -0.03096856
v 0.04572171 -0.04917312 -0.03379571
v 0.04567798 -0.04917312 -0.03441915
v 0.04694570 -0.05243424 -0.03161731
v 0.04699915 -0.05243424 -0.03104595
v 0.04572915 -0.04917312 -0.03395627
v 0.04568455 -0.04917312 -0.03438587
v 0.04695742 -0.05243424 -0.03156596
v 0.04699486 -0.05243424 -0.03126943
v 0.04572629 -0.04917312 -0.03408717
v 0.04570885 -0.04917312 -0.03425425
v 0.00310938 -0.04789888 0.05092445
v 0.00205400 -0.04789888 0.05098368
v 0.00187296 -0.04876683 0.05053671
v 0.00310938 -0.04876683 0.05046670
v 0.00310938 -0.04789888 0.02983037
v 0.00279387 -0.04789880 0.02842482
v 0.00161974 -0.04789888 0.05100254
v 0.00158423 -0.04876683 0.05054748
v 0.00310938 -0.04876683 0.02967420
v 0.00169309 -0.04789880 0.02350000
v -0.00268619 -0.04789880 0.02842482
v 0.00038623 -0.04789888 0.05100792
v 0.00149458 -0.04876683 0.05055017
v 0.00000028 -0.04800008 0.02350000
v -0.00283755 -0.04876683 0.02985461
v -0.00169310 -0.04789880 0.02350000
v -0.00267106 -0.04789880 0.02824172
v -0.00283755 -0.04789888 0.02993269
v -0.00283755 -0.04789888 0.05089483
v -0.00055680 -0.04789888 0.05097830
v -0.00283755 -0.04876683 0.05046131
v 0.00076752 -0.04876683 0.05055017
v -0.00283755 -0.04866861 0.02986269
f 2 1 4
f 2 5 6
f 1 6 3
f 2 6 1
f 6 7 3
f 1 8 4
f 2 9 5
f 7 10 3
f 2 4 9
f 3 11 1
f 7 6 13
f 1 11 8
f 9 4 15
f 9 16 12
f 9 12 5
f 12 16 23
f 12 23 29
f 12 29 37
f 12 37 24
f 12 24 17
f 12 17 13
f 13 17 7
f 11 3 10
f 11 10 19
f 4 8 22
f 13 6 12
f 12 6 5
f 7 18 10
f 10 18 14
f 8 11 20
f 22 8 21
f 15 16 9
f 7 17 18
f 8 20 21
f 4 22 15
f 15 23 16
f 18 17 24
f 10 14 25
f 10 25 19
f 22 21 27
f 27 26 22
f 15 29 23
f 18 30 14
f 14 31 25
f 25 32 19
f 19 33 11
f 21 34 27
f 22 26 28
f 22 28 15
f 14 30 31
f 11 33 35
f 15 28 29
f 24 37 38
f 24 38 39
f 24 39 40
f 32 25 41
f 32 33 19
f 20 11 35
f 20 36 21
f 36 34 21
f 26 27 43
f 28 37 29
f 38 44 45
f 38 45 46
f 38 46 47
f 38 49 39
f 40 39 30
f 24 40 18
f 18 40 30
f 32 41 51
f 20 52 36
f 28 42 37
f 27 53 43
f 37 44 38
f 44 55 54
f 44 54 56
f 44 56 45
f 45 56 46
f 46 56 57
f 46 57 47
f 47 57 48
f 47 48 38
f 49 38 48
f 30 39 58
f 31 30 50
f 31 50 59
f 31 60 25
f 31 59 60
f 41 25 60
f 32 51 33
f 33 61 35
f 35 52 20
f 27 34 53
f 26 63 28
f 28 63 42
f 26 43 63
f 37 64 65
f 37 65 66
f 37 66 44
f 37 42 64
f 44 66 55
f 48 58 49
f 39 49 58
f 30 58 50
f 41 60 51
f 35 61 67
f 52 68 36
f 36 68 62
f 36 62 34
f 62 53 34
f 64 42 69
f 64 69 65
f 65 69 66
f 66 69 55
f 48 57 50
f 48 50 58
f 33 51 61
f 35 67 52
f 52 67 68
f 62 68 53
f 63 43 42
f 69 42 71
f 54 70 56
f 56 70 57
f 57 59 50
f 54 73 70
f 60 59 74
f 60 74 51
f 51 75 61
f 61 72 67
f 54 55 73
f 61 75 72
f 43 71 42
f 59 57 74
f 51 74 75
f 72 68 67
f 69 77 55
f 57 75 74
f 70 75 57
f 68 72 76
f 68 76 53
f 53 71 43
f 69 71 77
f 55 77 73
f 73 75 70
f 53 76 71
f 77 72 73
f 73 72 75
f 76 77 71
f 77 76 72
f 78 79 80
f 78 80 81
f 78 81 82
f 78 82 88
f 78 88 98
f 78 98 97
f 78 97 104
f 78 104 103
f 78 103 108
f 78 108 113
f 78 113 118
f 78 118 117
f 78 117 122
f 78 122 126
f 78 126 130
f 78 130 134
f 78 134 135
f 78 135 131
f 78 131 127
f 78 127 123
f 78 123 119
f 78 119 114
f 78 114 109
f 78 109 105
f 78 105 100
f 78 100 94
f 78 94 93
f 78 93 89
f 78 89 83
f 78 83 84
f 78 84 79
f 79 84 91
f 79 91 85
f 79 85 80
f 80 85 95
f 80 95 101
f 80 101 106
f 80 106 111
f 80 111 110
f 80 110 115
f 80 115 120
f 80 120 124
f 80 124 128
f 80 128 132
f 80 132 136
f 80 136 137
f 80 137 133
f 80 133 129
f 80 129 125
f 80 125 121
f 80 121 116
f 80 116 112
f 80 112 107
f 80 107 102
f 80 102 96
f 80 96 87
f 80 87 86
f 80 86 81
f 81 86 82
f 82 86 87
f 82 87 88
f 83 89 99
f 83 99 90
f 83 90 91
f 83 91 84
f 85 91 92
f 85 92 89
f 85 89 93
f 85 93 94
f 85 94 95
f 87 96 97
f 87 97 98
f 87 98 88
f 89 92 99
f 90 99 92
f 90 92 91
f 94 100 101
f 94 101 95
f 96 102 103
f 96 103 104
f 96 104 97
f 100 105 101
f 101 105 106
f 102 107 108
f 102 108 103
f 105 109 110
f 105 110 111
f 105 111 106
f 107 112 113
f 107 113 108
f 109 114 110
f 110 114 115
f 112 116 117
f 112 117 118
f 112 118 113
f 114 119 120
f 114 120 115
f 116 121 122
f 116 122 117
f 119 123 124
f 119 124 120
f 121 125 126
f 121 126 122
f 123 127 128
f 123 128 124
f 125 129 126
f 126 129 130
f 127 131 132
f 127 132 128
f 129 133 134
f 129 134 130
f 131 135 132
f 132 135 136
f 133 137 134
f 134 137 135
f 135 137 136
f 138 139 140
f 138 140 141
f 138 141 146
f 138 146 142
f 138 142 143
f 138 143 139
f 139 143 144
f 139 144 140
f 140 145 150
f 140 150 159
f 140 159 158
f 140 158 152
f 140 152 146
f 140 146 141
f 140 144 145
f 142 146 147
f 142 147 143
f 143 147 153
f 143 153 154
f 143 154 148
f 143 148 149
f 143 149 144
f 144 149 150
f 144 150 145
f 146 151 147
f 146 152 151
f 147 151 153
f 148 154 155
f 148 155 156
f 148 156 157
f 148 157 149
f 149 157 158
f 149 158 159
f 149 159 150
f 151 152 153
f 152 158 156
f 152 156 155
f 152 155 160
f 152 160 154
f 152 154 153
f 154 160 155
f 156 158 157

