# https://github.com/mikedh/trimesh
v -0.05014736 -0.00267860 -0.03074780
v -0.04971150 -0.00441494 -0.04328753
v -0.04908149 0.00980293 -0.03062565
v -0.04786966 0.01034711 -0.04551270
v -0.04945910 -0.00959041 -0.03128479
v -0.01891037 -0.12099303 0.01780939
v -0.01879923 -0.06089425 0.02343280
v -0.02208120 -0.12099303 0.00785089
v -0.00965764 -0.12099303 0.03014402
v -0.00124583 -0.11701707 0.03617305
v -0.04282016 -0.00773663 -0.05341428
v -0.00124583 -0.12099303 0.03616382
v -0.04526122 0.02091195 -0.03068096
v 0.05159782 -0.12099303 0.02343280
v 0.05131126 -0.05639192 0.02343280
v 0.04413136 -0.05460945 0.02343280
v 0.01105186 -0.05400550 0.02343280
v -0.04208637 -0.02098147 -0.04965765
v -0.04740502 -0.01846923 -0.04162932
v -0.02287927 -0.12099303 -0.00168354
v -0.01077975 0.04830440 -0.03014167
v -0.02626166 0.04206364 -0.03021542
v -0.03959443 0.03000991 -0.03030530
v 0.05442050 -0.05810939 0.01755473
v 0.04762892 0.01588432 -0.03100131
v 0.04094848 0.02858393 -0.03101860
v 0.02755278 0.04116821 -0.03033987
v 0.01610805 0.04690358 -0.03023616
v 0.00216335 0.04949551 -0.03017393
v -0.04474837 0.02261159 -0.04329215
v -0.03943509 0.01821621 -0.05344654
v 0.05733424 -0.09923844 0.01114888
v -0.02029359 -0.12099303 -0.01392252
v -0.01477275 -0.12099303 -0.02448830
v 0.05690240 -0.05897127 0.00772299
v 0.04973388 0.00796174 -0.03144611
v 0.04743074 0.01632889 -0.04309855
v -0.03065638 0.02784158 -0.05449286
v -0.00696350 -0.12099303 -0.03216978
v -0.02151546 0.04509385 -0.04350763
v 0.05793948 -0.12097626 -0.00919218
v 0.05864381 -0.12097626 0.00470732
v -0.03173831 0.03869162 -0.04347191
v 0.00452809 -0.12098464 -0.03857678
v 0.04058828 -0.12097626 -0.03404579
v 0.04739325 -0.12097626 -0.02852840
v 0.05274135 -0.12097626 -0.02149453
v 0.05090152 -0.00382777 -0.04245324
v 0.05743065 -0.05921452 -0.00360103
v 0.03550798 0.03523571 -0.04335898
v 0.01733461 0.04687003 -0.04329215
v -0.02670798 -0.00088301 -0.05638529
v -0.03017299 -0.02913473 -0.05427738
v -0.03269305 0.03259660 -0.05047581
v 0.01297471 -0.12097626 -0.04065559
v 0.02171057 -0.12097626 -0.04069478
v 0.03086421 -0.12097626 -0.03884412
v 0.03956793 -0.01491686 -0.05427161
v 0.04735040 -0.00665456 -0.04865743
v 0.00321048 0.04964650 -0.04357101
v -0.01076368 0.04880769 -0.04346960
v -0.01656036 -0.03666306 -0.05469568
v 0.00443971 -0.03649530 -0.05531333
v 0.02927478 -0.02883066 -0.05446867
v 0.04145262 0.00144836 -0.05437274
v 0.02961238 0.03519010 -0.05017333
v -0.00736019 0.02257790 -0.05666934
v 0.01417700 -0.01889178 -0.05681338
v 0.04650949 0.00734731 -0.04944793
v 0.03730765 0.01851818 -0.05449286
v -0.02132598 0.03591515 -0.05445138
v -0.01436301 0.04449200 -0.04992500
v -0.00731626 -0.00554943 -0.05756096
v 0.01270456 0.04213127 -0.05269983
v 0.00003161 0.04179103 -0.05441681
v 0.02052151 0.03626116 -0.05444447
v 0.01552842 0.00682331 -0.05728008
v 0.00310938 -0.04789888 0.05092445
v 0.00205400 -0.04789888 0.05098368
v 0.00187296 -0.04876683 0.05053671
v 0.00310938 -0.04876683 0.05046670
v 0.00310938 -0.04789888 0.02983037
v 0.00279387 -0.04789880 0.02842482
v 0.00161974 -0.04789888 0.05100254
v 0.00158423 -0.04876683 0.05054748
v 0.00310938 -0.04876683 0.02967420
v 0.00169309 -0.04789880 0.02350000
v -0.00268619 -0.04789880 0.02842482
v 0.00038623 -0.04789888 0.05100792
v 0.00149458 -0.04876683 0.05055017
v 0.00000028 -0.04800008 0.02350000
v -0.00283755 -0.04876683 0.02985461
v -0.00169310 -0.04789880 0.02350000
v -0.00267106 -0.04789880 0.02824172
v -0.00283755 -0.04789888 0.02993269
v -0.00283755 -0.04789888 0.05089483
v -0.00055680 -0.04789888 0.05097830
v -0.00283755 -0.04876683 0.05046131
v 0.00076752 -0.04876683 0.05055017
v -0.00283755 -0.04866861 0.02986269
v -0.05023865 -0.00097863 0.03136585
v -0.04694704 -0.00990515 0.02351065
v -0.04738810 0.00657199 0.02351065
v -0.04971365 -0.00899908 0.04218049
v -0.04956830 0.00827508 0.04293811
v -0.01560227 -0.11702333 0.02344977
v -0.04841054 -0.01408316 0.03121196
v -0.04804529 -0.00475499 0.04763262
v 0.05160807 -0.12099999 0.02344300
v -0.00123800 -0.12099999 0.03618382
v -0.04140883 -0.02244757 0.04953850
v -0.04696709 -0.02022433 0.04111509
v -0.04845439 0.01347452 0.03133329
v -0.04291994 0.02067488 0.02351065
v -0.03189113 -0.02756522 0.05431589
v -0.04549483 0.00517827 0.05096157
v 0.05194889 -0.05735663 0.02344300
v 0.05091642 -0.00374720 0.04213652
v 0.04618514 -0.00671711 0.05033163
v -0.03999045 -0.01171730 0.05448161
v -0.04226838 0.02689890 0.03131004
v 0.04837536 -0.12099999 0.02749490
v 0.04783908 0.00328327 0.02351065
v 0.05024983 0.00288896 0.03126438
v 0.00596919 -0.12099999 0.03917032
v -0.04150657 0.00374051 0.05446978
v 0.04424801 0.01767560 0.02351065
v 0.04877131 0.01230312 0.03144470
v -0.04292244 0.02576316 0.04316007
v -0.03230712 0.03529792 0.02351065
v -0.04027488 0.01901846 0.05228212
v 0.04220314 -0.01060987 0.05343651
v 0.04866167 0.01136349 0.04291676
v 0.04550602 0.00949995 0.05022044
v 0.01426148 -0.12099160 0.04071937
v -0.03222943 0.03851532 0.03137346
v 0.03890276 -0.12099580 0.03504655
v 0.04196507 0.00133689 0.05440721
v 0.03200130 0.03495814 0.02351065
v 0.04452868 0.02339310 0.03135613
v -0.01887508 -0.03669308 0.05448753
v -0.01518126 0.04488302 0.02351065
v -0.03448106 0.03602781 0.04338456
v 0.03772370 0.03315018 0.03137261
v -0.01467090 -0.01981141 0.05670585
v -0.02130587 0.04547029 0.03136289
v -0.03010452 0.02118271 0.05513433
v -0.03465773 0.02890716 0.05156107
v 0.02761646 0.04194771 0.03138720
v 0.02540807 -0.12098322 0.04018329
v -0.01453738 0.01179267 0.05725081
v -0.02356376 0.04411117 0.04332706
v 0.00908413 0.04655674 0.02351065
v 0.01669791 0.04739570 0.03130539
v 0.04211543 0.02719358 0.04318162
v 0.03838402 0.02286246 0.05223667
v 0.03443210 -0.02332848 0.05447147
v 0.00723221 -0.03630297 0.05525952
v -0.01092110 0.04909459 0.03136796
v -0.02854815 0.03784101 0.04877729
v 0.02362843 -0.00077184 0.05679014
v 0.03299367 0.03769734 0.04347588
v 0.02305746 0.04419088 0.04338160
v -0.00389684 -0.00518811 0.05784861
v 0.00241572 0.05010029 0.03128806
v -0.00683886 0.04958538 0.04338202
v -0.02222181 0.03553283 0.05438945
v 0.02729444 0.03123736 0.05444272
v 0.00728092 -0.02063569 0.05696147
v -0.01064294 0.04635539 0.04882316
v 0.00708013 0.01381115 0.05739392
v 0.00832732 0.04928755 0.04346235
v 0.01653127 0.04365657 0.04945162
v 0.00192642 0.04735690 0.04877750
v -0.00505460 0.04136778 0.05446386
v 0.01364939 0.03986605 0.05406898
v 0.00642497 0.03081893 0.05593375
f 3 4 1
f 2 1 4
f 1 5 6
f 1 7 3
f 1 2 5
f 5 8 6
f 6 8 20
f 6 20 33
f 6 33 34
f 6 34 39
f 6 39 44
f 6 44 14
f 6 14 12
f 6 12 9
f 6 7 1
f 7 6 9
f 7 9 10
f 4 11 2
f 9 12 10
f 7 13 3
f 10 12 14
f 10 14 15
f 10 15 16
f 10 16 17
f 10 17 7
f 11 18 2
f 5 20 8
f 7 17 21
f 7 21 22
f 7 22 23
f 7 23 13
f 15 14 24
f 15 24 25
f 15 25 26
f 15 26 27
f 15 27 28
f 15 28 29
f 15 29 16
f 16 29 17
f 17 29 21
f 13 30 3
f 3 30 4
f 18 19 2
f 2 19 5
f 5 19 20
f 14 32 24
f 4 31 11
f 19 33 20
f 4 30 31
f 18 34 33
f 18 33 19
f 24 35 25
f 25 35 36
f 25 37 26
f 18 39 34
f 14 41 42
f 32 14 42
f 32 35 24
f 31 38 11
f 14 44 45
f 14 45 46
f 14 46 47
f 14 47 41
f 41 49 42
f 36 48 25
f 25 48 37
f 37 50 26
f 38 52 11
f 11 53 18
f 31 30 54
f 13 23 30
f 21 40 22
f 22 43 23
f 43 30 23
f 44 55 56
f 44 56 57
f 44 57 45
f 45 58 46
f 46 59 47
f 47 59 48
f 47 48 41
f 41 48 49
f 42 49 32
f 36 35 49
f 35 32 49
f 26 50 27
f 28 27 51
f 28 51 60
f 28 60 29
f 29 61 21
f 31 54 38
f 11 52 53
f 18 53 39
f 40 43 22
f 44 53 55
f 55 53 62
f 55 62 56
f 56 62 63
f 56 63 64
f 56 64 57
f 57 64 58
f 57 58 45
f 58 59 46
f 36 49 48
f 27 50 51
f 29 60 61
f 38 67 52
f 53 44 39
f 30 43 54
f 61 40 21
f 63 68 64
f 58 65 59
f 37 48 69
f 37 70 66
f 37 66 50
f 58 64 65
f 59 65 69
f 59 69 48
f 50 66 51
f 61 72 40
f 38 54 71
f 38 71 67
f 67 73 52
f 53 73 62
f 69 70 37
f 51 66 74
f 61 60 75
f 61 75 72
f 72 43 40
f 43 71 54
f 62 73 63
f 70 69 65
f 70 76 66
f 60 74 75
f 53 52 73
f 72 71 43
f 63 73 68
f 68 65 64
f 65 68 77
f 51 74 60
f 75 71 72
f 68 73 77
f 66 76 74
f 73 67 77
f 71 75 67
f 67 76 77
f 67 75 76
f 65 77 70
f 70 77 76
f 74 76 75
f 78 79 80
f 78 80 81
f 78 81 86
f 78 86 82
f 78 82 83
f 78 83 79
f 79 83 84
f 79 84 80
f 80 85 90
f 80 90 99
f 80 99 98
f 80 98 92
f 80 92 86
f 80 86 81
f 80 84 85
f 82 86 87
f 82 87 83
f 83 87 93
f 83 93 94
f 83 94 88
f 83 88 89
f 83 89 84
f 84 89 90
f 84 90 85
f 86 91 87
f 86 92 91
f 87 91 93
f 88 94 95
f 88 95 96
f 88 96 97
f 88 97 89
f 89 97 98
f 89 98 99
f 89 99 90
f 91 92 93
f 92 98 96
f 92 96 95
f 92 95 100
f 92 100 94
f 92 94 93
f 94 100 95
f 96 98 97
f 101 103 102
f 102 103 106
f 101 107 104
f 104 108 105
f 101 104 105
f 106 117 109
f 106 109 110
f 106 111 112
f 106 112 107
f 106 107 102
f 102 107 101
f 101 113 103
f 103 113 114
f 103 114 106
f 101 105 113
f 109 122 137
f 109 137 135
f 109 135 125
f 109 125 110
f 110 115 111
f 108 116 105
f 109 117 118
f 110 111 106
f 115 120 111
f 107 112 104
f 114 113 121
f 109 119 122
f 117 123 124
f 117 124 118
f 110 125 115
f 111 120 108
f 104 112 108
f 117 127 123
f 123 127 128
f 123 128 124
f 118 119 109
f 108 120 126
f 111 108 112
f 105 129 121
f 105 121 113
f 114 121 130
f 114 130 106
f 116 108 126
f 105 116 131
f 122 119 132
f 124 133 118
f 119 118 134
f 125 135 115
f 130 121 136
f 116 126 131
f 131 129 105
f 122 132 137
f 132 119 138
f 117 139 127
f 127 140 128
f 128 133 124
f 118 133 134
f 135 141 115
f 106 130 142
f 130 136 142
f 121 129 143
f 136 121 143
f 139 140 127
f 139 144 140
f 120 115 145
f 142 136 146
f 139 149 144
f 128 140 133
f 119 134 138
f 135 137 150
f 120 145 151
f 136 143 152
f 136 152 146
f 129 131 148
f 126 147 131
f 117 153 139
f 139 153 154
f 139 154 149
f 140 155 133
f 134 133 155
f 134 155 156
f 150 157 158
f 150 158 135
f 135 158 141
f 141 158 145
f 141 145 115
f 146 159 142
f 129 148 143
f 131 147 148
f 149 162 144
f 144 162 155
f 144 155 140
f 134 156 138
f 137 132 157
f 137 157 150
f 151 145 164
f 106 142 153
f 142 159 165
f 142 165 153
f 146 152 166
f 146 166 159
f 143 160 152
f 148 160 143
f 148 167 160
f 138 161 132
f 153 165 154
f 149 163 162
f 156 168 138
f 120 151 126
f 106 153 117
f 152 160 170
f 126 151 147
f 147 167 148
f 132 161 157
f 149 154 163
f 157 169 158
f 164 161 171
f 164 171 151
f 159 166 165
f 165 166 172
f 166 152 170
f 170 160 167
f 154 165 172
f 154 172 163
f 163 173 162
f 162 168 156
f 162 156 155
f 158 169 145
f 172 166 174
f 167 175 170
f 162 173 168
f 138 168 161
f 157 161 169
f 145 169 164
f 164 169 161
f 172 173 163
f 173 176 168
f 161 168 171
f 166 170 174
f 172 174 173
f 147 151 167
f 174 175 176
f 174 176 173
f 170 175 174
f 168 177 171
f 168 176 177
f 175 167 177
f 167 151 177
f 171 177 151
f 175 177 176

