# https://github.com/mikedh/trimesh
v 0.05600778 0.00097315 -0.03461048
v 0.04703422 0.00387368 -0.13693659
v 0.05566981 -0.01451131 -0.03461048
v 0.05457639 0.02831193 -0.03461048
v 0.04645644 -0.00798289 -0.13762122
v 0.04575441 0.00774254 -0.14057891
v 0.05465591 -0.02809513 -0.03461048
v 0.04477529 -0.01433116 -0.13846277
v 0.04569477 0.01137720 -0.13834347
v 0.05412907 -0.02920309 -0.03461048
v 0.04211131 -0.02139330 -0.13780406
v 0.05413901 0.02919470 -0.03461048
v 0.04212125 0.02139391 -0.13783517
v 0.00988500 -0.04283194 -0.05916407
v 0.01458674 -0.04228247 -0.06914319
v 0.03956660 -0.02584317 -0.13668375
v 0.03956660 -0.02465414 -0.14056335
v 0.03951069 0.02421449 -0.14056335
v 0.01156242 0.04495841 -0.09870838
v 0.00922894 0.04401033 -0.07390907
v 0.00679483 0.04319625 -0.05791669
v 0.03837377 0.02737512 -0.13815674
v 0.03282462 0.03338334 -0.13958308
v 0.02630257 0.03913878 -0.13701828
v 0.01784714 0.04375136 -0.13667336
v 0.00185328 -0.04332963 -0.05590427
v 0.00378417 -0.04444885 -0.06914319
v -0.00614863 0.04264339 -0.05234881
v 0.02444747 0.03959312 -0.14054261
v 0.01041681 0.04607088 -0.13667336
v -0.00115862 -0.02453703 -0.03461048
v -0.02284825 -0.03496810 -0.04183029
v -0.01615846 -0.03976478 -0.04836547
v -0.00614863 -0.04266080 -0.05233844
v -0.00569138 -0.04434976 -0.06914319
v -0.01506504 -0.04212032 -0.06914319
v 0.00237017 -0.01124147 -0.14053224
v -0.04429932 0.01452094 -0.14053224
v -0.00115862 0.02952799 -0.03461048
v 0.00446384 0.04620824 -0.14053743
v -0.04109856 -0.01088116 -0.04325143
v -0.03020404 -0.02971653 -0.04183029
v -0.04222430 0.00384665 -0.04325143
v -0.04511442 0.01269235 -0.13912146
v -0.02108883 -0.03942698 -0.06914319
v -0.00083618 0.04517797 -0.07676416
v -0.02436911 0.03365358 -0.04029504
v -0.01614852 0.03975638 -0.04837066
v -0.04554185 0.01269235 -0.13669410
v -0.03835505 0.02737174 -0.13684842
v -0.02963745 0.03683334 -0.13767958
v -0.01559684 0.04365847 -0.14053224
v -0.00105176 0.04723288 -0.13669410
v -0.04448819 -0.00484591 -0.06914319
v -0.03552208 -0.02335700 -0.04325143
v -0.02786808 -0.03502215 -0.06914319
v -0.03481632 -0.02799829 -0.06914319
v -0.00972463 0.04350589 -0.06773371
v -0.02618818 0.03329326 -0.04183029
v -0.03703797 0.02058096 -0.04325143
v -0.04420987 0.00678321 -0.06914319
v 0.00428864 0.04671494 -0.11342680
v -0.02184802 0.04181918 -0.13756806
v -0.01124239 0.04577531 -0.13738523
v -0.04017908 -0.01954219 -0.06914319
v -0.03810531 0.02328894 -0.07000158
v -0.04193479 0.01536289 -0.06947643
v -0.04485598 0.01236806 -0.10022160
v -0.04314626 -0.01184499 -0.06914319
v -0.03212251 0.03157277 -0.07276347
v -0.03030717 0.03557562 -0.10822330
v -0.02427965 0.03986673 -0.10659469
v -0.01756843 0.04316134 -0.10525572
v -0.00610141 0.04624202 -0.10472880
v -0.01956797 0.04053556 -0.07276347
v -0.02594962 0.03696846 -0.07469290
v -0.03925962 0.02510514 -0.10183983
v 0.00025888 0.04663197 -0.14054956
v -0.00052728 0.04653086 -0.14350307
v -0.04298457 0.01236449 -0.06914863
v 0.00234611 0.01236449 -0.06914125
v 0.01255011 0.04360553 -0.14402546
v -0.01632636 0.04321488 -0.14362121
v -0.01365755 0.04446268 -0.14054956
v -0.02819003 0.03720106 -0.14054956
v -0.03441955 0.03140785 -0.14054956
v -0.03947328 0.02461502 -0.14054956
v -0.03349777 -0.02958744 -0.06913386
v 0.01136627 0.04520952 -0.14054956
v 0.03869341 -0.01125875 -0.06914125
v 0.02526891 0.03919571 -0.14054956
v -0.00831074 0.04361702 -0.14454047
v -0.02794177 0.03700803 -0.14370243
v -0.03993417 0.02300874 -0.14364335
v -0.04470401 -0.00097299 -0.06914125
v -0.04271792 -0.01290295 -0.06914125
v -0.03946294 -0.02107572 -0.06914125
v 0.02684123 0.03747222 -0.14368027
v 0.03956693 -0.01125875 -0.07051463
v 0.04303339 0.00579916 -0.14453125
v -0.04464884 0.01236449 -0.09617687
v -0.04652976 0.00153303 -0.10608495
v -0.04591715 -0.00677884 -0.10165285
v 0.03421551 -0.02788694 -0.06914125
v -0.01287139 -0.04286058 -0.06914863
v 0.04648721 0.00084988 -0.14057909
v 0.04491833 0.01255752 -0.14057909
v 0.04103810 0.02185745 -0.14056987
v 0.03500167 0.03072995 -0.14054956
v 0.03556716 0.02790573 -0.14402731
v -0.04248000 0.00823272 -0.14454047
v -0.00063762 -0.04472654 -0.06914863
v 0.02394715 -0.03754764 -0.06914863
v 0.03957612 -0.02066668 -0.07394438
v -0.02558789 -0.03672037 -0.06914863
v 0.04507924 -0.01014653 -0.14364704
v 0.04507924 0.01014924 -0.14364704
v 0.00186108 -0.04311795 -0.14453310
v -0.02285701 -0.03777744 -0.14455894
v -0.04558672 -0.00629511 -0.14395902
v -0.04580739 0.00604274 -0.14308958
v -0.04553154 0.01268621 -0.13668786
v -0.04246161 -0.01919253 -0.10320529
v -0.03731134 -0.02705966 -0.09021449
v 0.01117835 -0.04495806 -0.09605920
v 0.01873596 -0.04261699 -0.10058128
v 0.03230298 -0.03287815 -0.09021449
v 0.03957152 -0.02321974 -0.08825964
v -0.00735706 -0.04570749 -0.09780222
v 0.00572063 -0.04577671 -0.09165986
v -0.00052728 -0.04652815 -0.14350307
v -0.03993417 -0.02301062 -0.14364335
v 0.02482296 -0.03890805 -0.09116330
v -0.01908252 -0.04219416 -0.09553264
v 0.02496548 -0.03898159 -0.14373934
v 0.01306732 -0.04457946 -0.14352521
v -0.01633096 -0.04320757 -0.14362121
v -0.02996464 -0.03518073 -0.14376150
v -0.03495630 -0.03164988 -0.13730532
v -0.02762397 -0.03731411 -0.10028478
v 0.04016459 -0.02329098 -0.14355475
v 0.00136916 -0.04720146 -0.13668786
v -0.01403684 -0.04508962 -0.13668786
v -0.04663493 -0.00607106 -0.13709211
v -0.04021692 -0.02476628 -0.13668047
v 0.03956693 -0.02584633 -0.13668047
v 0.03339257 -0.03201411 -0.14355105
v 0.00971809 -0.04617829 -0.13699798
v -0.02214211 -0.04168861 -0.13757206
v -0.02849346 -0.03768552 -0.13717519
v -0.04373855 -0.01788153 -0.13668786
v 0.02514593 -0.03996167 -0.13701551
v 0.03295581 -0.03382951 -0.13668047
v 0.02007841 -0.04278704 -0.13668786
v -0.04254257 -0.00096219 -0.04323741
v -0.03967220 0.00288319 -0.01948538
v -0.04110721 -0.01091630 -0.04323741
v -0.03718805 -0.01243697 -0.00976385
v -0.04042515 0.01282134 -0.04323741
v -0.03162946 0.02911524 0.00807651
v -0.03345927 -0.01839701 0.00748361
v -0.03381948 0.01977612 0.00512010
v -0.03173355 -0.02921144 0.00545014
v -0.03545344 0.00743261 0.00186956
v -0.02868204 0.02904467 0.01849864
v -0.02565793 0.03367894 -0.04180147
v -0.01862357 0.03367894 -0.04180147
v -0.03274707 0.02679306 -0.04323741
v -0.03555205 -0.02339759 -0.04323741
v -0.02971200 -0.02914423 0.01570088
v -0.02198735 0.02914212 0.03018532
v -0.01414218 0.02908163 0.03875000
v 0.00092361 0.02954540 -0.04323741
v 0.05757647 0.02954540 0.02613691
v 0.06483270 0.02954540 -0.00851204
v 0.05414147 0.02922950 -0.03459399
v -0.02791780 -0.03176718 -0.04251944
v -0.02189422 -0.03498160 -0.04180147
v -0.03167329 0.01450332 0.01385732
v -0.00046792 -0.02758155 -0.04323741
v 0.05587267 0.00629840 -0.03459399
v 0.01784112 0.02955212 0.04745363
v 0.05760386 0.02909508 0.03102372
v 0.06393424 0.02908836 0.02002490
v 0.06731171 0.02911524 -0.00992366
v 0.06003904 0.02910180 -0.02721976
v 0.03658845 -0.02917784 0.04660597
v 0.00492289 -0.02913751 0.04849584
v -0.01998223 -0.02911062 0.03296919
v -0.02581681 -0.02681197 0.02528924
v -0.02911758 -0.00431061 0.02007760
v 0.05414147 -0.02921816 -0.03460326
v 0.06120870 0.00654121 -0.02741662
v 0.04660036 0.02873885 0.04125594
v 0.06731171 0.02910852 0.00988301
v 0.06861559 0.02616463 -0.00100232
v 0.06245779 -0.02910726 -0.02335662
v 0.06628176 -0.02951389 -0.00003422
v 0.04991209 -0.02913079 0.03879631
v -0.00843362 -0.02914423 0.04269651
v -0.00080759 0.02914885 0.04658743
v 0.03085797 0.02916229 0.04853290
v 0.06727885 -0.02910390 -0.00985881
v 0.06783217 -0.02812597 0.00634876
v 0.06150454 -0.02912406 0.02526145
v 0.01783565 -0.02878128 0.05026529
v -0.02454580 -0.00603754 0.02856873
v -0.01974940 0.00689617 0.03465525
v 0.01685500 0.02905475 0.05036719
v 0.06828791 0.01036978 -0.00902272
v 0.06526276 0.02116909 -0.01867130
v 0.04408300 -0.02057132 0.04362755
v -0.01381964 0.00001134 0.04025136
v 0.00848253 0.01695699 0.05001747
v 0.04312975 0.01355563 0.04458639
v 0.05229660 0.00024637 0.03804245
v 0.06040816 0.00689407 0.02861274
v 0.06845398 0.00726290 0.00893113
v 0.02510010 -0.02034280 0.05035098
v -0.00150061 -0.01988660 0.04697711
v -0.00812768 0.00335304 0.04401158
v -0.00083019 0.00708437 0.04764412
v 0.02014414 0.00690163 0.05117360
v 0.02719356 0.01694207 0.05012806
v 0.06573939 0.00000567 0.01904523
v 0.06917508 -0.00715095 -0.00162185
v 0.06515320 -0.01484821 -0.01978531
v 0.05885980 -0.01641929 0.03033818
v 0.03323648 0.00008160 0.04886684
v 0.01251468 -0.00725156 0.05095778
v 0.06825127 -0.01404167 0.00963057
f 1 4 12
f 1 12 39
f 1 39 31
f 1 31 10
f 1 10 7
f 1 7 3
f 1 3 2
f 1 2 4
f 2 5 6
f 2 3 5
f 3 7 5
f 5 8 6
f 6 8 17
f 6 17 18
f 2 9 4
f 7 10 11
f 7 11 8
f 7 8 5
f 6 9 2
f 4 9 13
f 4 13 12
f 10 14 15
f 10 15 16
f 10 16 11
f 11 16 17
f 11 17 8
f 6 13 9
f 12 19 20
f 12 20 21
f 12 13 22
f 12 22 23
f 12 23 24
f 12 24 25
f 12 25 19
f 10 26 14
f 14 27 15
f 16 15 27
f 18 13 6
f 21 28 12
f 13 18 22
f 22 18 23
f 24 23 29
f 24 29 25
f 10 31 32
f 10 32 33
f 10 33 34
f 10 34 26
f 16 27 35
f 16 35 17
f 17 35 36
f 17 36 37
f 17 37 38
f 17 38 18
f 12 28 39
f 25 29 30
f 18 38 40
f 18 40 29
f 18 29 23
f 31 41 42
f 31 42 32
f 31 39 43
f 31 43 41
f 34 27 26
f 26 27 14
f 27 34 35
f 37 44 38
f 37 36 45
f 37 45 44
f 21 20 46
f 21 46 28
f 39 47 43
f 39 28 48
f 39 48 47
f 29 40 30
f 25 30 19
f 38 49 50
f 38 50 51
f 38 51 52
f 38 52 40
f 42 41 55
f 42 33 32
f 34 33 35
f 35 33 36
f 36 33 45
f 44 45 56
f 44 56 57
f 38 44 49
f 47 59 60
f 47 60 43
f 28 58 48
f 52 51 63
f 52 63 64
f 52 64 53
f 52 53 40
f 53 30 40
f 54 41 43
f 41 65 55
f 55 57 42
f 42 56 33
f 44 57 65
f 44 65 49
f 19 62 20
f 47 48 59
f 60 66 67
f 60 67 43
f 19 30 62
f 49 68 50
f 30 53 62
f 54 69 41
f 41 69 65
f 42 57 56
f 33 56 45
f 57 55 65
f 49 65 69
f 49 69 54
f 20 62 46
f 28 46 58
f 60 59 70
f 43 67 61
f 63 73 64
f 64 74 53
f 43 61 54
f 68 77 50
f 50 77 51
f 51 72 63
f 63 72 73
f 73 74 64
f 46 62 74
f 62 53 74
f 46 74 58
f 48 75 59
f 60 70 66
f 61 67 68
f 61 68 54
f 54 68 49
f 58 75 48
f 51 71 72
f 59 75 76
f 66 77 67
f 68 67 77
f 58 74 75
f 75 72 76
f 59 76 70
f 66 70 77
f 75 73 72
f 77 71 51
f 74 73 75
f 77 70 71
f 71 76 72
f 76 71 70
f 78 80 81
f 80 84 85
f 80 85 86
f 80 86 87
f 80 78 84
f 81 80 88
f 81 89 78
f 81 88 90
f 81 90 91
f 81 91 89
f 78 89 79
f 79 89 82
f 79 82 92
f 79 92 83
f 79 83 84
f 79 84 78
f 84 83 85
f 85 83 93
f 85 93 86
f 87 86 94
f 88 80 95
f 88 95 96
f 88 96 97
f 89 91 98
f 89 98 82
f 90 99 91
f 82 100 92
f 93 94 86
f 87 101 80
f 95 103 96
f 88 104 90
f 88 105 104
f 99 106 107
f 99 107 108
f 99 108 109
f 99 109 91
f 82 110 100
f 100 111 92
f 80 101 102
f 95 80 102
f 104 112 113
f 104 105 112
f 104 114 90
f 90 114 99
f 88 115 105
f 99 114 106
f 106 116 117
f 106 117 107
f 107 117 108
f 108 110 109
f 109 110 98
f 109 98 91
f 98 110 82
f 100 118 119
f 100 119 111
f 111 94 92
f 92 94 93
f 92 93 83
f 94 122 87
f 87 122 101
f 95 102 103
f 96 123 97
f 97 124 88
f 112 125 113
f 113 125 126
f 113 127 104
f 114 104 128
f 105 129 112
f 108 117 110
f 100 110 117
f 111 119 132
f 111 132 120
f 111 120 121
f 94 111 121
f 94 121 122
f 124 97 123
f 114 128 116
f 114 116 106
f 105 115 134
f 117 116 100
f 100 116 135
f 100 135 118
f 118 136 131
f 131 137 118
f 119 138 132
f 121 144 122
f 96 103 123
f 130 125 112
f 126 133 113
f 127 113 133
f 127 128 104
f 88 140 115
f 116 141 135
f 118 135 136
f 131 142 143
f 131 143 137
f 118 137 119
f 138 119 137
f 121 120 144
f 101 122 102
f 124 145 139
f 124 139 88
f 123 145 124
f 128 146 116
f 134 129 105
f 116 146 141
f 131 148 142
f 138 149 150
f 120 132 144
f 144 103 102
f 144 102 122
f 129 142 112
f 141 146 147
f 141 147 135
f 136 148 131
f 142 148 130
f 149 137 143
f 149 138 137
f 150 139 138
f 138 139 132
f 132 145 151
f 132 151 144
f 133 152 127
f 115 140 134
f 112 142 130
f 146 153 147
f 136 154 148
f 136 135 154
f 135 152 154
f 143 142 129
f 132 139 145
f 151 145 123
f 144 123 103
f 88 139 140
f 126 152 133
f 127 152 153
f 127 153 146
f 127 146 128
f 140 139 150
f 140 150 149
f 140 149 134
f 134 149 143
f 134 143 129
f 147 153 152
f 147 152 135
f 130 148 125
f 151 123 144
f 125 154 126
f 148 154 125
f 154 152 126
f 155 159 168
f 155 168 173
f 155 173 180
f 155 180 177
f 155 177 169
f 155 169 157
f 155 158 156
f 155 156 159
f 158 155 157
f 159 156 160
f 158 161 156
f 156 162 160
f 158 157 163
f 156 164 162
f 158 163 161
f 156 161 164
f 160 165 166
f 166 167 173
f 166 173 168
f 160 168 159
f 163 157 169
f 160 162 165
f 166 165 171
f 166 171 172
f 167 174 175
f 167 175 176
f 167 176 173
f 168 160 166
f 163 177 178
f 163 178 170
f 163 170 161
f 162 164 179
f 165 162 179
f 173 176 181
f 173 181 180
f 167 182 174
f 176 175 186
f 163 169 177
f 178 177 180
f 178 187 188
f 178 188 189
f 178 189 170
f 172 182 166
f 166 182 167
f 180 181 192
f 176 186 181
f 182 194 174
f 183 184 174
f 174 184 175
f 175 195 185
f 185 195 196
f 185 186 175
f 178 180 192
f 178 192 197
f 178 197 198
f 178 198 199
f 178 199 187
f 188 200 189
f 170 189 190
f 165 179 191
f 165 191 171
f 172 201 182
f 182 202 194
f 174 194 183
f 184 195 175
f 197 203 198
f 198 203 204
f 198 204 199
f 199 204 205
f 187 206 188
f 164 161 191
f 164 191 179
f 171 208 172
f 201 209 182
f 182 209 202
f 185 211 186
f 185 196 210
f 161 170 191
f 170 190 191
f 171 207 208
f 171 191 207
f 172 208 213
f 186 193 181
f 194 202 215
f 183 216 217
f 195 218 196
f 185 210 211
f 187 199 212
f 187 219 206
f 188 220 200
f 172 221 222
f 172 222 201
f 201 222 214
f 201 214 209
f 209 214 223
f 193 197 181
f 181 197 192
f 202 209 224
f 209 223 224
f 194 215 216
f 194 216 183
f 217 184 183
f 196 226 210
f 186 211 193
f 197 227 203
f 199 205 228
f 206 230 188
f 220 188 230
f 220 221 200
f 189 207 190
f 221 172 213
f 202 224 229
f 215 202 229
f 184 217 225
f 184 225 195
f 195 225 218
f 196 218 226
f 210 227 211
f 204 203 226
f 204 226 231
f 205 204 231
f 228 216 199
f 187 212 229
f 229 219 187
f 219 230 206
f 190 207 191
f 207 189 208
f 226 203 210
f 211 227 193
f 205 225 228
f 205 231 225
f 199 216 212
f 189 213 208
f 214 222 230
f 223 214 230
f 193 227 197
f 224 223 229
f 210 203 227
f 226 218 231
f 225 217 228
f 228 217 216
f 212 215 229
f 219 223 230
f 230 222 220
f 221 213 200
f 200 213 189
f 212 216 215
f 219 229 223
f 221 220 222
f 225 231 218

