# https://github.com/mikedh/trimesh
v -0.05099932 -0.02359265 0.00025269
v -0.05082241 -0.02382285 0.00587195
v -0.05085989 0.02369580 0.00012801
v -0.04189208 -0.00129372 -0.00600000
v -0.03829864 -0.01620115 -0.00600000
v -0.05073626 0.02359348 0.00599722
v -0.04093453 0.00895428 -0.00600000
v -0.04733485 -0.00724729 0.00607108
v -0.04616159 -0.03218979 0.00012624
v -0.03551280 0.02197858 -0.00600000
v -0.04626419 0.03225976 0.00574787
v -0.03008055 -0.02916185 -0.00600000
v -0.03760678 -0.04169947 0.00012595
v -0.04014797 -0.03918448 0.00587284
v -0.04616422 0.03219063 0.00012624
v -0.03449475 -0.04462510 0.00574669
v -0.03864193 0.04071173 0.00587225
v -0.02087860 -0.03616898 -0.00600000
v -0.02822858 0.03096562 -0.00600000
v -0.02475089 -0.05055102 0.00012595
v -0.03431850 0.04461902 0.00012639
v -0.02079969 -0.05216592 0.00587314
v -0.02849954 0.04854152 0.00574817
v -0.01627237 0.03845944 -0.00600000
v -0.01684848 -0.05378358 0.00012565
v -0.00384527 -0.04158886 -0.00600000
v 0.01589498 -0.05372275 0.00599811
v -0.01812565 0.05316224 0.00587373
v -0.02731313 0.04929920 0.00012565
v -0.00850412 -0.05564183 0.00012565
v 0.02926384 0.04777278 0.00599722
v -0.01951331 0.05280276 0.00012565
v -0.00852516 -0.05576350 0.00574787
v -0.00514743 0.04157863 -0.00600000
v -0.00568408 0.05607957 0.00012565
v 0.00294438 -0.05621424 0.00012595
v 0.01142817 -0.04017305 -0.00600000
v 0.04125820 -0.00118587 0.00607285
v 0.00221044 -0.05631655 0.00581050
v -0.00852516 0.05576987 0.00574905
v 0.01170964 -0.05513855 0.00012624
v 0.03359912 -0.04500255 0.00587255
v 0.04506078 -0.03362495 0.00580977
v 0.05266330 -0.02018587 0.00574787
v 0.00075570 0.05625932 0.00587373
v 0.00892907 0.04079330 -0.00600000
v 0.02014344 -0.05254752 0.00012654
v 0.02558359 -0.05026620 0.00574669
v 0.00950386 0.05540762 0.00012624
v 0.03978636 -0.03978869 0.00012683
v 0.04720211 -0.03063573 0.00012654
v 0.05554910 -0.00803953 0.00587314
v 0.01238966 0.05485734 0.00581139
v 0.02206380 -0.03562699 -0.00600000
v 0.03064492 -0.04720784 0.00012683
v 0.05254755 -0.02013886 0.00012683
v 0.05409962 0.01523553 0.00587314
v 0.04798340 0.02938391 0.00574728
v 0.02016712 0.05261472 0.00018917
v 0.03086589 -0.02812765 -0.00600000
v 0.05632513 -0.00293074 0.00574787
v 0.05570956 0.00879943 0.00574787
v 0.03979689 0.03978122 0.00587314
v 0.02402625 0.03394103 -0.00600000
v 0.03980215 -0.01264228 -0.00600000
v 0.05558855 -0.00876817 0.00012683
v 0.05636722 0.00000042 0.00012683
v 0.05558855 0.00876901 0.00012683
v 0.05254755 0.02013416 0.00012683
v 0.04892254 0.02821697 0.00025269
v 0.03071332 0.04731375 0.00574669
v 0.02817213 0.04881251 0.00012683
v 0.04188823 -0.00128819 -0.00600000
v 0.03542741 0.04372446 0.00012683
v 0.04374546 0.03539831 0.00012772
v 0.04094120 0.00894875 -0.00600000
v 0.03493285 0.02312892 -0.00600000
v 0.00238786 0.03591257 0.07829311
v -0.00000704 0.03591257 0.06605297
v -0.00478981 0.03558880 0.07829311
v -0.00234207 0.03433596 0.08419473
v 0.00699100 0.03369194 0.08419473
v 0.00948452 0.03463861 0.07829665
v 0.00719175 0.03527207 0.06605297
v -0.00717766 0.03526503 0.06605297
v -0.01401370 0.03305496 0.07829311
v -0.01151314 0.03242150 0.08419473
v 0.01582045 0.03054927 0.08419473
v 0.01402075 0.03306200 0.06605297
v -0.01400842 0.03305672 0.06605297
v 0.01623604 0.03211885 0.07829665
v -0.02034963 0.02968354 0.06605297
v -0.02224794 0.02817379 0.07829311
v -0.02069654 0.02730454 0.08419473
v 0.02348062 0.02514374 0.08419473
v 0.02225147 0.02818083 0.07829665
v 0.02226556 0.02817379 0.06605297
v -0.02580860 0.02495370 0.06605297
v 0.02890789 0.02130074 0.07829665
v 0.02939744 0.01786245 0.08419473
v 0.02892198 0.02128314 0.06605297
v -0.02748504 0.02322927 0.07829311
v -0.02939744 0.01786245 0.08419473
v -0.03032370 0.01937220 0.06605297
v -0.03148945 0.01724659 0.07829311
v 0.03264816 0.01514913 0.07829665
v 0.03351456 0.01290386 0.06605297
v -0.03350751 0.01289682 0.06605297
v 0.03313067 0.00927202 0.08419473
v 0.03493741 0.00832183 0.07829665
v -0.03313066 0.00927202 0.08419473
v -0.03493036 0.00830775 0.07829311
v 0.03573688 0.00359198 0.06605297
v -0.03549387 0.00596394 0.06605297
v 0.03589537 -0.00119065 0.07829665
v -0.03589537 -0.00119065 0.06605297
v -0.03597990 0.00119891 0.07829311
v 0.03408511 -0.00467116 0.08419473
v 0.03541287 -0.00597680 0.06605297
v -0.03409215 -0.00467116 0.08419473
v -0.03540935 -0.00595568 0.07829311
v 0.03501489 -0.00833820 0.07829665
v -0.03501489 -0.00831004 0.06605297
v 0.03155637 -0.01370150 0.08419473
v 0.03257068 -0.01510567 0.07829665
v 0.03358499 -0.01295543 0.06605297
v -0.03358499 -0.01291319 0.07829311
v -0.03257068 -0.01509864 0.06605297
v -0.03155637 -0.01370150 0.08419473
v 0.03026735 -0.01932171 0.06605297
v -0.03026735 -0.01931115 0.07829311
v 0.02742516 -0.02318582 0.07829665
v -0.02667852 -0.02170422 0.08419473
v -0.02742516 -0.02317174 0.06605297
v 0.02347357 -0.02514251 0.08419473
v 0.02408991 -0.02663466 0.06605297
v -0.02407934 -0.02662411 0.07829311
v 0.02230782 -0.02824999 0.07829665
v -0.01983543 -0.02811274 0.08419473
v -0.02031441 -0.02960489 0.06605297
v 0.01582045 -0.03055156 0.08419473
v 0.01619729 -0.03205075 0.07829665
v 0.01619729 -0.03205075 0.06605297
v -0.01834214 -0.03096684 0.07829488
v -0.01178081 -0.03392299 0.07829488
v -0.01151314 -0.03242379 0.08419473
v -0.01405245 -0.03313468 0.06605297
v 0.00699100 -0.03369072 0.08419473
v 0.00715301 -0.03518991 0.07829665
v 0.00714245 -0.03519342 0.06605297
v -0.00714597 -0.03518991 0.06605297
v -0.00239138 -0.03583040 0.07829488
v -0.00234207 -0.03433121 0.08419473
v -0.00000352 -0.03599229 0.06605297
v 0.00279189 0.04841314 0.05098458
v 0.00558812 0.04808111 0.00607313
v -0.00559204 0.04808111 0.05098458
v -0.00684061 0.04677198 0.06599225
v 0.01222975 0.04563599 0.06599225
v 0.01113310 0.04709927 0.05098458
v -0.00559204 0.04808111 0.00607313
v 0.02928009 0.03708162 0.06599225
v 0.01653566 0.04548183 0.00607313
v -0.01652533 0.04548183 0.05098458
v 0.02169135 0.04325253 0.05098458
v -0.01652533 0.04548658 0.00607313
v 0.02657169 0.04043981 0.00607313
v -0.02127274 0.04236080 0.06599225
v 0.02893115 0.03888878 0.05098458
v -0.02423038 0.04199083 0.05098458
v -0.02658035 0.04043981 0.00607313
v -0.04105522 0.02369155 0.06599225
v -0.03109989 0.03708162 0.05098458
v -0.03142272 0.03530292 0.06599225
v 0.03517875 0.03322539 0.05098458
v 0.03517875 0.03322065 0.00607313
v -0.03326946 0.03527446 0.00607313
v 0.03802245 0.02828298 0.06599225
v -0.03879545 0.02891382 0.05098458
v 0.04486347 0.01484074 0.06599225
v 0.04191533 0.02420382 0.05098458
v 0.04191533 0.02420382 0.00607313
v -0.04244858 0.02292078 0.00607460
v 0.04556609 0.01658623 0.05098458
v -0.04443063 0.01918077 0.05098458
v 0.04637315 0.01388261 0.00607313
v 0.04766919 0.00840421 0.05098458
v -0.04629162 0.00954021 0.06599225
v 0.04105130 -0.02368831 0.06599225
v 0.04732738 0.00274082 0.06599225
v 0.04832909 0.00281197 0.00607313
v -0.04765887 0.00840421 0.05098458
v 0.04832909 -0.00281821 0.05098458
v -0.04765887 0.00840895 0.00607313
v 0.04628532 -0.00953222 0.06599225
v -0.03142272 -0.03529018 0.06599225
v -0.04849916 -0.00000549 0.05098458
v -0.04733130 -0.00274232 0.06599225
v -0.04833300 -0.00281584 0.00607313
v 0.04637790 -0.01388410 0.05098458
v 0.04815818 -0.00563093 0.00607313
v -0.04767786 -0.00841045 0.05098458
v 0.04637790 -0.01388410 0.00607313
v -0.04541335 -0.01356631 0.06599225
v 0.04192008 -0.02418634 0.05098458
v -0.04444962 -0.01917278 0.05098458
v 0.03880578 -0.02891057 0.00607900
v -0.04105522 -0.02367882 0.06599225
v -0.04444962 -0.01917278 0.00607313
v 0.03447613 -0.03251541 0.06599225
v 0.03518825 -0.03321740 0.05098458
v 0.03109597 -0.03708311 0.00607900
v 0.02171508 -0.04326351 0.00607900
v 0.01390084 -0.04646043 0.00607900
v -0.03521590 -0.03321266 0.00607313
v -0.04051401 -0.02663384 0.05098458
v 0.02658118 -0.04044604 0.05098458
v 0.01918946 -0.04452520 0.05098458
v -0.00139532 -0.04845257 0.00607900
v -0.00840251 -0.04775058 0.00607900
v -0.02288924 -0.04248325 0.00607900
v -0.03207074 -0.03605858 0.05098458
v -0.04051401 -0.02663384 0.00607313
v 0.02475106 -0.04026818 0.06599225
v 0.00824192 -0.04677348 0.06599225
v 0.01115209 -0.04710550 0.05098458
v 0.00283937 -0.04840514 0.05098458
v -0.00974840 -0.04726914 0.05098458
v -0.02171426 -0.04325876 0.05098458
v -0.00684061 -0.04676399 0.06599225
v -0.01880884 -0.04360502 0.06599225
f 1 2 6
f 1 6 3
f 1 4 5
f 1 3 4
f 4 3 7
f 4 7 10
f 4 10 19
f 4 19 24
f 4 24 34
f 4 34 46
f 4 46 64
f 4 64 77
f 4 77 76
f 4 76 73
f 4 73 65
f 4 65 60
f 4 60 54
f 4 54 37
f 4 37 26
f 4 26 18
f 4 18 12
f 4 12 5
f 2 8 6
f 1 5 9
f 1 9 2
f 8 14 27
f 8 27 38
f 8 38 31
f 8 31 6
f 3 6 11
f 3 10 7
f 5 12 9
f 9 13 14
f 2 14 8
f 2 9 14
f 11 15 3
f 3 15 10
f 9 12 13
f 13 16 14
f 6 17 11
f 13 12 18
f 11 17 15
f 15 19 10
f 13 18 20
f 17 21 15
f 15 21 19
f 20 22 16
f 20 16 13
f 14 16 22
f 17 23 21
f 19 21 24
f 20 18 25
f 18 26 25
f 22 27 14
f 17 6 28
f 17 28 23
f 23 29 21
f 21 29 24
f 25 26 30
f 20 25 22
f 6 31 28
f 24 29 32
f 30 33 25
f 29 23 32
f 24 32 35
f 24 35 34
f 30 26 36
f 33 22 25
f 30 36 39
f 30 39 33
f 26 37 36
f 27 22 39
f 28 40 35
f 28 35 32
f 28 32 23
f 33 39 22
f 37 41 36
f 27 42 38
f 38 43 44
f 28 31 45
f 28 45 40
f 34 35 46
f 36 41 27
f 36 27 39
f 37 47 41
f 41 47 27
f 42 43 38
f 35 40 45
f 46 35 49
f 48 47 55
f 48 42 27
f 48 27 47
f 42 50 43
f 43 50 51
f 38 44 52
f 45 53 49
f 45 49 35
f 37 54 47
f 48 55 42
f 50 42 55
f 43 51 44
f 44 51 56
f 38 57 58
f 45 31 53
f 49 53 59
f 54 55 47
f 55 54 60
f 55 60 50
f 50 60 51
f 44 56 66
f 44 66 52
f 52 61 62
f 52 62 57
f 52 57 38
f 38 58 63
f 46 49 59
f 46 59 64
f 60 65 51
f 51 65 56
f 56 65 66
f 61 52 66
f 61 66 67
f 62 61 67
f 62 67 68
f 57 69 58
f 58 69 70
f 62 68 57
f 31 63 71
f 31 71 53
f 38 63 31
f 64 59 72
f 53 71 59
f 65 73 66
f 68 69 57
f 63 74 71
f 71 74 72
f 58 75 63
f 72 74 64
f 72 59 71
f 73 67 66
f 67 73 68
f 68 73 76
f 68 76 69
f 69 76 77
f 69 77 70
f 70 75 58
f 74 63 75
f 70 77 75
f 75 77 64
f 75 64 74
f 78 79 80
f 78 80 81
f 78 81 82
f 79 84 89
f 79 89 97
f 79 97 101
f 79 101 107
f 79 107 113
f 79 113 119
f 79 119 126
f 79 126 130
f 79 130 136
f 79 136 143
f 79 143 150
f 79 150 154
f 79 154 151
f 79 151 147
f 79 147 140
f 79 140 134
f 79 134 128
f 79 128 123
f 79 123 116
f 79 116 114
f 79 114 108
f 79 108 104
f 79 104 98
f 79 98 92
f 79 92 90
f 79 90 85
f 80 79 85
f 81 87 94
f 81 94 103
f 81 103 111
f 81 111 120
f 81 120 129
f 81 129 133
f 81 133 139
f 81 139 146
f 81 146 153
f 81 153 148
f 81 148 141
f 81 141 135
f 81 135 124
f 81 124 118
f 81 118 109
f 81 109 100
f 81 100 95
f 81 95 88
f 81 88 82
f 82 83 78
f 78 83 84
f 78 84 79
f 80 85 86
f 80 86 87
f 80 87 81
f 82 88 83
f 84 83 89
f 85 90 86
f 88 91 83
f 83 91 89
f 86 90 92
f 86 92 93
f 86 93 94
f 86 94 87
f 88 95 96
f 88 96 91
f 91 96 97
f 91 97 89
f 92 98 93
f 96 95 99
f 96 99 97
f 95 100 99
f 97 99 101
f 98 102 93
f 93 102 94
f 94 102 103
f 98 104 102
f 102 104 105
f 102 105 103
f 99 100 106
f 99 106 101
f 101 106 107
f 104 108 105
f 100 109 106
f 106 109 110
f 106 110 107
f 108 112 105
f 105 111 103
f 105 112 111
f 110 113 107
f 108 114 112
f 110 115 113
f 110 109 115
f 114 116 117
f 114 117 112
f 112 117 111
f 109 118 115
f 115 119 113
f 116 121 117
f 111 117 120
f 117 121 120
f 115 118 122
f 115 122 119
f 116 123 121
f 118 124 122
f 122 124 125
f 122 125 126
f 122 126 119
f 123 127 121
f 123 128 127
f 120 121 129
f 121 127 129
f 126 125 130
f 127 128 131
f 127 131 129
f 125 124 132
f 125 132 130
f 131 128 134
f 131 133 129
f 132 124 135
f 132 136 130
f 131 134 137
f 131 137 133
f 132 135 138
f 132 138 136
f 137 134 140
f 137 139 133
f 135 141 138
f 138 141 142
f 138 142 143
f 138 143 136
f 137 140 144
f 137 144 139
f 144 140 147
f 144 147 145
f 144 145 146
f 144 146 139
f 141 148 142
f 142 148 149
f 142 149 143
f 143 149 150
f 145 147 151
f 145 151 152
f 145 152 153
f 145 153 146
f 148 153 149
f 152 151 154
f 153 152 149
f 149 152 154
f 149 154 150
f 155 156 161
f 155 161 157
f 155 157 158
f 155 158 159
f 155 159 160
f 155 160 156
f 156 163 167
f 156 167 176
f 156 176 182
f 156 182 186
f 156 186 191
f 156 191 201
f 156 201 203
f 156 203 215
f 156 215 223
f 156 223 209
f 156 209 199
f 156 199 194
f 156 194 183
f 156 183 177
f 156 177 171
f 156 171 166
f 156 166 161
f 158 162 159
f 160 163 156
f 157 161 166
f 157 166 164
f 157 164 158
f 162 158 172
f 162 172 196
f 162 196 189
f 160 159 165
f 160 165 163
f 159 162 165
f 163 165 167
f 158 164 168
f 162 169 165
f 168 164 170
f 166 171 170
f 166 170 164
f 169 167 165
f 158 168 172
f 170 171 173
f 170 173 174
f 170 174 168
f 168 174 172
f 169 162 175
f 169 175 176
f 169 176 167
f 173 171 177
f 162 178 175
f 173 177 179
f 173 179 174
f 162 180 178
f 178 180 181
f 178 181 175
f 175 182 176
f 175 181 182
f 179 177 183
f 174 179 172
f 180 184 181
f 172 179 185
f 184 186 182
f 184 182 181
f 184 180 187
f 184 187 186
f 179 183 185
f 172 185 188
f 162 189 190
f 162 190 180
f 180 190 187
f 187 191 186
f 188 185 192
f 190 193 187
f 187 193 191
f 185 183 194
f 185 194 192
f 190 189 195
f 190 195 193
f 193 201 191
f 172 188 196
f 188 192 197
f 188 197 198
f 188 198 196
f 194 199 197
f 194 197 192
f 195 200 193
f 193 200 201
f 197 199 202
f 197 202 198
f 200 203 201
f 198 202 204
f 198 204 196
f 195 189 200
f 200 189 205
f 200 205 203
f 202 206 204
f 202 199 209
f 202 209 206
f 205 207 203
f 196 204 208
f 204 206 208
f 189 210 211
f 189 211 205
f 205 211 207
f 203 207 212
f 203 212 213
f 203 213 214
f 203 214 215
f 206 209 223
f 206 223 216
f 206 216 208
f 207 211 212
f 212 211 217
f 212 217 213
f 213 217 218
f 215 219 220
f 215 220 221
f 215 221 222
f 215 214 219
f 208 216 196
f 210 189 224
f 210 224 211
f 211 224 217
f 217 224 218
f 218 224 225
f 218 225 226
f 218 226 214
f 218 214 213
f 221 220 228
f 214 227 219
f 219 227 228
f 216 215 222
f 216 222 196
f 216 223 215
f 224 189 225
f 214 226 227
f 219 228 220
f 221 228 229
f 229 228 231
f 221 229 222
f 222 229 196
f 227 226 225
f 227 225 230
f 227 230 228
f 189 196 225
f 228 230 231
f 231 230 196
f 229 231 196
f 225 196 230

