# https://github.com/mikedh/trimesh
v -0.05086847 -0.02356013 0.00586964
v -0.05078692 -0.02389473 0.00012861
v -0.05086847 0.02357109 0.00586964
v -0.05080796 0.02388633 0.00012920
v -0.04188744 -0.00129420 -0.00599882
v -0.03829924 -0.01619899 -0.00599882
v -0.02119806 -0.03642900 0.00607171
v -0.03922522 0.01380693 -0.00599882
v -0.04625957 -0.03225413 0.00574557
v -0.04615961 -0.03218224 0.00012684
v -0.03753109 0.04159233 0.00599549
v -0.04615961 0.03217383 0.00012802
v -0.02716634 -0.03170938 -0.00599882
v -0.04625957 0.03224296 0.00574498
v -0.03181732 0.02724889 -0.00599882
v -0.03882537 -0.04090389 0.00025150
v -0.03449532 -0.04461488 0.00574498
v -0.03667350 0.04277863 0.00013038
v -0.02480928 -0.05064869 0.00574734
v -0.02731366 -0.04928265 0.00012625
v -0.02420423 0.03420077 -0.00599882
v -0.01751186 -0.03806673 -0.00599882
v -0.03223823 0.04637901 0.00574675
v -0.02475667 0.05054903 0.00012595
v -0.01411833 -0.05461409 0.00574793
v -0.01952168 -0.05279177 0.00012566
v -0.02225229 0.05193167 0.00574911
v -0.01020393 0.04063832 -0.00599882
v -0.00384302 -0.04159521 -0.00599882
v -0.00779688 -0.05566904 0.00012566
v -0.01684368 0.05378993 0.00012507
v -0.01411833 0.05462504 0.00574911
v -0.00511889 0.04772846 0.00607171
v -0.00284338 -0.05620965 0.00587319
v 0.00294142 -0.05627325 0.00018858
v 0.00953645 -0.05552109 0.00580938
v -0.00568974 0.05607957 0.00012507
v 0.00510907 0.04127433 -0.00599882
v 0.01141999 -0.04016833 -0.00599882
v -0.00284864 0.05635057 0.00574911
v 0.00294668 0.05621230 0.00012507
v 0.03549568 -0.04381848 0.00574675
v 0.04631553 -0.03090468 0.00599578
v 0.04683639 0.03039024 0.00599608
v 0.02560970 -0.05025603 0.00574675
v 0.01455836 -0.05436245 0.00012625
v 0.05448500 -0.01380427 0.00587141
v 0.05566748 0.00729610 0.00587141
v 0.01240122 0.05485732 0.00581174
v 0.02555183 -0.05014265 0.00012772
v 0.01740734 0.05361295 0.00012507
v 0.04384009 -0.03547844 0.00574616
v 0.05026413 -0.02556772 0.00574675
v 0.05633040 -0.00293124 0.00574675
v 0.05448895 0.01456738 0.00574675
v 0.03547989 0.04381837 0.00574498
v 0.02087191 0.03616964 -0.00599882
v 0.03311757 -0.04558272 0.00012802
v 0.03977574 -0.03978396 0.00012743
v 0.04559736 -0.03310584 0.00012802
v 0.05015101 -0.02551518 0.00012743
v 0.05597789 -0.00438300 0.00012684
v 0.05359979 -0.01738252 0.00012684
v 0.05559382 0.00876584 0.00012684
v 0.05254753 0.02014215 0.00012684
v 0.05026413 0.02558420 0.00574675
v 0.04384009 0.03547833 0.00574616
v 0.02559918 0.05025038 0.00574321
v 0.02205307 -0.03561117 -0.00599882
v 0.02818248 0.04879586 0.00012861
v 0.04881201 0.02815590 0.00012802
v 0.04373749 0.03539537 0.00012802
v 0.03541676 0.04371053 0.00012832
v 0.03086047 -0.02813389 -0.00599882
v 0.03980730 -0.01264839 -0.00599882
v 0.04141463 0.00382984 -0.00599882
v 0.03467228 0.02296549 -0.00599882
v -0.00276404 0.04740923 0.06600090
v 0.00234094 0.03433447 0.08419293
v 0.00549784 0.04707481 0.06600090
v 0.00136923 0.04724202 0.05103832
v -0.00699029 0.03368886 0.08419293
v -0.01093758 0.04612265 0.06600090
v 0.01151409 0.03242087 0.08419293
v 0.01620992 0.04453881 0.06600090
v 0.01744200 0.04391875 0.05103832
v -0.01093758 0.04612265 0.05103832
v -0.01582869 0.03055371 0.08419293
v -0.02127771 0.04234653 0.06600090
v 0.02348149 0.02513802 0.08419293
v 0.02601306 0.03961779 0.06600090
v -0.02604794 0.03960153 0.05103832
v -0.02836331 0.03808272 0.06600090
v -0.02348150 0.02513802 0.08419293
v -0.03258491 0.03454348 0.05103832
v -0.03448184 0.03251376 0.06600090
v 0.03448183 0.03252305 0.06600090
v 0.02828891 0.03812452 0.05103832
v -0.03802929 0.02829175 0.05103832
v -0.02939081 0.01786911 0.08419293
v 0.02939545 0.01786911 0.08419293
v 0.03448183 0.03252305 0.05103832
v -0.04106066 0.02369353 0.06600090
v 0.04106065 0.02369353 0.06600090
v -0.04392930 0.01744412 0.05103832
v -0.03312888 0.00927647 0.08419293
v 0.03249656 0.01154307 0.08419293
v 0.04106065 0.02369353 0.05103832
v -0.04462670 0.01621561 0.06600090
v -0.04669101 0.00821284 0.06600090
v 0.03408664 0.00467824 0.08419293
v 0.04542173 0.01358672 0.06600090
v -0.03440745 0.00000570 0.08419293
v 0.04716988 0.00550500 0.06600090
v 0.04542173 0.01359137 0.05103832
v -0.04717454 0.00551429 0.05103832
v -0.04750000 -0.00000358 0.06600090
v 0.03329160 -0.00810621 0.08419293
v 0.04733261 -0.00275787 0.06600090
v 0.04733261 0.00274142 0.05103832
v -0.04677702 -0.00683590 0.05103832
v -0.03312888 -0.00927435 0.08419293
v -0.04669101 -0.00820608 0.06600090
v 0.04542173 -0.01358460 0.06600090
v 0.04669100 -0.00822465 0.05103832
v -0.02939081 -0.01786699 0.08419293
v -0.04353411 -0.01877270 0.06600090
v -0.04353411 -0.01877270 0.05103832
v 0.02939545 -0.01786699 0.08419293
v 0.04244615 -0.02130405 0.06600090
v -0.03802929 -0.02829428 0.06600090
v -0.03708780 -0.02929288 0.05103832
v 0.03802928 -0.02830357 0.06600090
v 0.04353875 -0.01876806 0.05103832
v 0.03707849 -0.02931146 0.05103832
v -0.02348150 -0.02514519 0.08419293
v 0.02348149 -0.02514519 0.08419293
v -0.03258491 -0.03453207 0.06600090
v 0.03046945 -0.03630634 0.06600090
v -0.02482051 -0.04022876 0.05103832
v -0.02605258 -0.03960870 0.06600090
v 0.01582403 -0.03054230 0.08419293
v 0.02604793 -0.03959941 0.05103832
v -0.01151875 -0.03240946 0.08419293
v 0.02127305 -0.04235370 0.06600090
v -0.01621923 -0.04455063 0.06600090
v 0.01361094 -0.04549350 0.06600090
v 0.00699028 -0.03367746 0.08419293
v -0.00957300 -0.04629006 0.05103832
v -0.00550715 -0.04708662 0.06600090
v -0.00234095 -0.03432306 0.08419293
v 0.00549784 -0.04708662 0.06600090
v 0.01486626 -0.04485950 0.05103832
v 0.00275938 -0.04740710 0.05103832
v 0.00279155 0.04840507 0.05099031
v 0.00558301 0.04807311 0.00607313
v -0.00280087 0.04840507 0.05099031
v 0.00837447 0.04774114 0.05099031
v -0.00280087 0.04840507 0.00607313
v -0.00839328 0.04774114 0.05099031
v 0.02168138 0.04324540 0.05099031
v 0.01389093 0.04644174 0.05099031
v 0.01389093 0.04644174 0.00607313
v -0.01113727 0.04709144 0.00607313
v -0.01651605 0.04547430 0.05099031
v 0.01918901 0.04450686 0.00607313
v -0.01915085 0.04451635 0.00607313
v -0.02423055 0.04198394 0.05099031
v 0.02657593 0.04043319 0.00607313
v -0.02423055 0.04198394 0.00607313
v 0.02894013 0.03888245 0.05099031
v -0.02893995 0.03888245 0.00607313
v -0.02893995 0.03888245 0.05099031
v 0.03519243 0.03321534 0.05099031
v -0.03519225 0.03321534 0.00607313
v -0.03519225 0.03321534 0.05099031
v 0.03326024 0.03525930 0.00607313
v 0.04191947 0.02420015 0.05099031
v 0.03881943 0.02889981 0.00607313
v -0.04048559 0.02665668 0.00607313
v -0.04048559 0.02664719 0.05099031
v 0.04555596 0.01658394 0.05099031
v 0.04332470 0.02176258 0.00607313
v 0.04636302 0.01388080 0.00607313
v -0.04443066 0.01917326 0.00607974
v -0.04555579 0.01658394 0.05099031
v 0.04717008 0.01117767 0.05099031
v -0.04849917 -0.00001427 0.05099031
v 0.04556546 -0.01658402 0.05099031
v 0.04814804 0.00562912 0.05099031
v 0.04814804 0.00562912 0.00607313
v -0.04716990 0.01117767 0.00607313
v -0.04716990 0.01117767 0.05099031
v -0.04814786 0.00562912 0.05099031
v 0.04832844 -0.00282174 0.05098591
v -0.04832351 0.00281454 0.00607313
v 0.04849934 -0.00001427 0.00607313
v -0.04815736 -0.00563869 0.05099031
v 0.04815753 -0.00562920 0.00607313
v 0.04718907 -0.01117775 0.05098591
v -0.04637234 -0.01388563 0.05099031
v -0.04767312 -0.00841296 0.00607313
v 0.04637726 -0.01388088 0.00607313
v 0.01115169 -0.04709627 0.05099031
v 0.02658543 -0.04043802 0.05099031
v 0.03712462 -0.03116199 0.05099031
v 0.04191947 -0.02418600 0.05098811
v -0.04192404 -0.02419548 0.05099031
v 0.01919850 -0.04451643 0.05099031
v 0.03326024 -0.03525937 0.05099031
v -0.03110001 -0.03707569 0.05099031
v -0.02170494 -0.04325023 0.05099031
v -0.00559708 -0.04806845 0.05099031
v 0.04332470 -0.02176266 0.00608194
v -0.04444490 -0.01917334 0.00607313
v 0.00282953 -0.04839567 0.05099031
v 0.01654946 -0.04548387 0.00608194
v 0.02423073 -0.04199350 0.00608194
v 0.03110019 -0.03707569 0.00608194
v 0.03712462 -0.03116199 0.00608194
v 0.04048576 -0.02664728 0.00608194
v -0.03714343 -0.03116199 0.05099031
v -0.02657576 -0.04043327 0.00608194
v -0.01389075 -0.04645131 0.05099031
v -0.03326007 -0.03525937 0.00607313
v -0.00068354 -0.04841938 0.00608194
v 0.00842194 -0.04774123 0.00608194
v -0.03882875 -0.02889515 0.00607313
v -0.01386227 -0.04645131 0.00608194
v -0.01917933 -0.04451643 0.00608194
v -0.00839328 -0.04774123 0.00608194
f 1 3 4
f 1 4 2
f 2 5 6
f 2 9 1
f 2 4 5
f 5 4 8
f 5 8 15
f 5 15 21
f 5 21 28
f 5 28 38
f 5 38 57
f 5 57 77
f 5 77 76
f 5 76 75
f 5 75 74
f 5 74 69
f 5 69 39
f 5 39 29
f 5 29 22
f 5 22 13
f 5 13 6
f 7 33 11
f 7 11 1
f 3 1 11
f 1 9 7
f 6 10 2
f 2 10 9
f 4 3 12
f 4 12 8
f 6 13 10
f 3 14 12
f 12 15 8
f 9 10 16
f 10 13 16
f 16 17 9
f 12 18 15
f 12 11 18
f 17 19 9
f 9 19 7
f 16 13 20
f 16 20 17
f 15 18 21
f 12 14 11
f 17 20 19
f 13 22 20
f 3 11 14
f 18 11 23
f 18 23 24
f 18 24 21
f 19 25 7
f 22 26 20
f 24 23 27
f 20 26 19
f 21 24 28
f 23 11 27
f 26 25 19
f 25 26 30
f 22 29 26
f 26 29 30
f 24 31 28
f 27 11 33
f 27 32 31
f 27 31 24
f 25 34 7
f 25 30 34
f 34 30 35
f 31 32 37
f 31 37 28
f 28 37 38
f 35 36 34
f 7 34 36
f 29 39 35
f 29 35 30
f 32 40 37
f 37 40 41
f 37 41 38
f 33 40 27
f 27 40 32
f 36 35 46
f 7 36 42
f 7 42 43
f 7 43 44
f 7 44 33
f 39 46 35
f 36 45 42
f 43 47 44
f 44 47 48
f 33 49 40
f 45 36 46
f 45 46 50
f 40 49 41
f 41 51 38
f 45 50 58
f 45 58 42
f 43 42 52
f 43 52 53
f 43 53 47
f 47 54 48
f 44 56 49
f 44 49 33
f 46 39 50
f 41 49 51
f 38 51 57
f 42 58 59
f 42 59 52
f 52 59 60
f 52 60 61
f 52 61 53
f 53 61 63
f 53 63 47
f 47 62 54
f 47 63 62
f 48 62 64
f 48 64 55
f 48 54 62
f 55 64 65
f 55 65 66
f 55 66 44
f 55 44 48
f 44 66 67
f 44 67 56
f 49 56 68
f 50 39 69
f 50 69 58
f 57 51 70
f 66 65 71
f 66 71 67
f 56 67 73
f 56 73 70
f 56 70 68
f 49 68 51
f 51 68 70
f 69 74 58
f 57 70 73
f 58 74 59
f 59 74 60
f 60 74 61
f 61 74 75
f 61 75 63
f 62 63 75
f 62 75 76
f 62 76 64
f 64 76 65
f 65 76 77
f 71 72 67
f 72 73 67
f 65 77 71
f 71 77 72
f 72 77 73
f 73 77 57
f 78 79 80
f 78 80 81
f 79 78 82
f 79 82 88
f 79 88 94
f 79 94 100
f 79 100 106
f 79 106 113
f 79 113 122
f 79 122 126
f 79 126 136
f 79 136 144
f 79 144 151
f 79 151 148
f 79 148 142
f 79 142 137
f 79 137 129
f 79 129 118
f 79 118 111
f 79 111 107
f 79 107 101
f 79 101 90
f 79 90 84
f 81 86 98
f 81 98 102
f 81 102 108
f 81 108 115
f 81 115 120
f 81 120 125
f 81 125 134
f 81 134 135
f 81 135 143
f 81 143 153
f 81 153 154
f 81 154 149
f 81 149 140
f 81 140 132
f 81 132 128
f 81 128 121
f 81 121 116
f 81 116 105
f 81 105 99
f 81 99 95
f 81 95 92
f 81 92 87
f 78 81 87
f 78 87 83
f 78 83 82
f 79 84 80
f 80 84 85
f 80 85 86
f 80 86 81
f 82 83 88
f 83 87 89
f 83 89 88
f 84 90 91
f 84 91 85
f 89 87 92
f 89 92 93
f 89 93 88
f 88 93 94
f 91 98 86
f 91 86 85
f 93 92 95
f 93 95 96
f 93 96 94
f 90 97 91
f 95 99 96
f 94 96 100
f 90 101 97
f 97 102 98
f 97 98 91
f 99 103 96
f 96 103 100
f 101 104 97
f 97 104 102
f 99 105 103
f 100 103 106
f 101 107 104
f 104 108 102
f 105 109 103
f 103 109 106
f 106 109 110
f 107 111 112
f 107 112 104
f 104 112 115
f 104 115 108
f 109 105 110
f 106 110 113
f 110 105 116
f 111 114 112
f 112 114 115
f 113 110 117
f 110 116 117
f 111 118 119
f 111 119 114
f 114 119 120
f 115 114 120
f 116 121 117
f 113 117 123
f 113 123 122
f 117 121 123
f 119 125 120
f 118 124 119
f 119 124 125
f 122 123 127
f 122 127 126
f 123 121 127
f 121 128 127
f 118 129 130
f 118 130 124
f 126 127 131
f 127 132 131
f 127 128 132
f 129 133 130
f 130 134 124
f 130 133 135
f 130 135 134
f 124 134 125
f 126 131 136
f 129 137 133
f 131 132 138
f 131 138 136
f 133 139 135
f 133 137 139
f 138 132 140
f 138 140 141
f 138 141 136
f 139 143 135
f 137 142 139
f 136 141 144
f 142 145 139
f 140 146 141
f 141 146 144
f 139 145 143
f 142 147 145
f 142 148 147
f 145 153 143
f 140 149 146
f 146 149 150
f 146 150 144
f 144 150 151
f 147 148 152
f 147 152 153
f 147 153 145
f 152 154 153
f 148 151 152
f 149 154 150
f 151 150 152
f 152 150 154
f 155 156 159
f 155 159 157
f 155 157 158
f 155 158 156
f 156 163 166
f 156 166 169
f 156 169 177
f 156 177 179
f 156 179 183
f 156 183 184
f 156 184 191
f 156 191 197
f 156 197 199
f 156 199 203
f 156 203 225
f 156 225 228
f 156 228 215
f 156 215 202
f 156 202 196
f 156 196 192
f 156 192 185
f 156 185 180
f 156 180 175
f 156 175 172
f 156 172 170
f 156 170 167
f 156 167 164
f 156 164 159
f 157 159 164
f 157 164 160
f 157 168 176
f 157 176 188
f 157 188 208
f 157 208 189
f 157 189 182
f 157 182 174
f 157 174 161
f 157 161 158
f 158 161 162
f 158 162 163
f 158 163 156
f 160 164 165
f 160 165 157
f 162 161 166
f 162 166 163
f 165 164 167
f 165 168 157
f 166 161 169
f 167 170 168
f 167 168 165
f 170 172 173
f 170 173 168
f 161 174 171
f 171 174 177
f 171 177 169
f 171 169 161
f 172 175 176
f 172 176 173
f 173 176 168
f 174 178 179
f 174 179 177
f 175 180 181
f 175 181 176
f 174 182 178
f 178 183 179
f 178 182 183
f 182 184 183
f 180 185 181
f 181 185 186
f 181 186 176
f 182 187 184
f 176 186 188
f 182 189 190
f 182 190 187
f 187 190 191
f 187 191 184
f 185 192 186
f 186 192 193
f 186 193 188
f 188 193 194
f 189 195 190
f 190 195 197
f 190 197 191
f 193 192 196
f 193 196 194
f 194 196 188
f 195 199 197
f 188 196 202
f 188 202 198
f 195 200 199
f 195 189 200
f 198 201 188
f 198 202 201
f 200 203 199
f 200 189 203
f 189 204 205
f 189 205 206
f 189 206 207
f 189 208 204
f 189 207 214
f 189 214 203
f 201 208 188
f 201 202 215
f 204 209 205
f 206 205 210
f 208 211 212
f 208 212 213
f 208 213 204
f 201 215 208
f 204 227 217
f 204 217 209
f 209 217 218
f 209 218 205
f 205 219 210
f 205 218 219
f 210 220 206
f 210 219 220
f 206 220 221
f 206 221 207
f 208 222 211
f 211 225 223
f 211 223 212
f 212 224 213
f 213 216 204
f 203 214 221
f 203 221 220
f 203 220 219
f 203 219 218
f 203 218 217
f 203 217 225
f 207 221 214
f 208 215 228
f 216 226 227
f 216 227 204
f 222 208 228
f 222 228 225
f 222 225 211
f 212 223 230
f 224 229 231
f 224 231 213
f 224 212 230
f 224 230 229
f 213 231 226
f 213 226 216
f 217 227 225
f 225 226 231
f 225 231 229
f 225 229 230
f 225 230 223
f 225 227 226

