# https://github.com/mikedh/trimesh
v 0.00000000 0.04499415 -0.02300175
v 0.00654125 0.04451030 -0.02300175
v 0.00000000 0.04499415 -0.03197278
v -0.00653244 0.04451030 -0.02300175
v 0.00654125 0.04451030 -0.03197278
v 0.01295924 0.04308512 -0.02300175
v -0.00653244 0.04451030 -0.03197278
v -0.00984268 0.04378011 -0.02300175
v 0.01295924 0.04308512 -0.03197278
v 0.01907791 0.04073622 -0.02300175
v 0.01910432 0.04072742 -0.03197278
v -0.00984268 0.04378011 -0.03197278
v -0.01295924 0.04308512 -0.02300175
v 0.02480040 0.03751637 -0.02300175
v 0.02482681 0.03750758 -0.03197278
v -0.01295924 0.04308512 -0.03197278
v -0.01908671 0.04073622 -0.02300175
v 0.03001227 0.03350477 -0.02300175
v 0.03002988 0.03348717 -0.03197278
v -0.01908671 0.04073622 -0.03197278
v -0.02480920 0.03751637 -0.02300175
v 0.03457265 0.02878057 -0.02300175
v 0.03459026 0.02876297 -0.03197278
v -0.02480920 0.03751637 -0.03197278
v -0.03001226 0.03350477 -0.02300175
v 0.03839352 0.02344055 -0.02300175
v 0.03840232 0.02342296 -0.03197278
v -0.03001226 0.03350477 -0.03197278
v -0.03457265 0.02878057 -0.02300175
v 0.04140443 0.01759909 -0.02300175
v 0.04140443 0.01759909 -0.03197278
v -0.03457265 0.02878057 -0.03197278
v -0.03838471 0.02345815 -0.03197278
v -0.03839351 0.02344055 -0.02300175
v 0.04143084 0.01752871 -0.02300175
v 0.04141323 0.01758150 -0.03197278
v -0.04139562 0.01761669 -0.03197278
v -0.04140443 0.01759909 -0.02300175
v 0.04353496 0.01137934 -0.02300175
v 0.04353496 0.01137934 -0.03197278
v -0.04140443 0.01759909 -0.03197278
v -0.04143083 0.01752871 -0.02300175
v 0.04472347 0.00492206 -0.02300175
v 0.04472347 0.00492206 -0.03197278
v -0.04143083 0.01752871 -0.03197278
v -0.04353495 0.01137934 -0.02300175
v 0.04496998 -0.00163200 -0.02300175
v 0.04496998 -0.00163200 -0.03197278
v -0.04353495 0.01137934 -0.03197278
v -0.04472347 0.00493965 -0.03197278
v -0.04472347 0.00492206 -0.02300175
v 0.04424807 -0.00816845 -0.02300175
v 0.04424807 -0.00816845 -0.03197278
v -0.04496998 -0.00163200 -0.03197278
v -0.04496998 -0.00163200 -0.02300175
v 0.04258414 -0.01452017 -0.02300175
v 0.04258414 -0.01452017 -0.03197278
v -0.04424806 -0.00816845 -0.03197278
v -0.04424806 -0.00816845 -0.02300175
v 0.04247849 -0.01478409 -0.02300175
v 0.04247849 -0.01478409 -0.03197278
v -0.04259294 -0.01450257 -0.03197278
v -0.04258414 -0.01452017 -0.02300175
v 0.04001342 -0.02057278 -0.02300175
v 0.04001342 -0.02057278 -0.03197278
v -0.04247849 -0.01478409 -0.03197278
v -0.04247849 -0.01478409 -0.02300175
v 0.03658873 -0.02618551 -0.02300175
v 0.03657993 -0.02619431 -0.03197278
v -0.04002222 -0.02055518 -0.03197278
v -0.04001342 -0.02057278 -0.02300175
v 0.03238930 -0.03122641 -0.02300175
v 0.03238930 -0.03122641 -0.03197278
v -0.04001342 -0.02057278 -0.03197278
v -0.03658872 -0.02618551 -0.02300175
v 0.02749437 -0.03560751 -0.02300175
v 0.02748557 -0.03562511 -0.03197278
v -0.03658872 -0.02618551 -0.03197278
v -0.03238930 -0.03122641 -0.02300175
v 0.02201839 -0.03924083 -0.02300175
v 0.02201839 -0.03924083 -0.03197278
v -0.03238930 -0.03122641 -0.03197278
v -0.02749437 -0.03560751 -0.02300175
v 0.02200078 -0.03924963 -0.03197278
v 0.01606700 -0.04202080 -0.02300175
v -0.02749437 -0.03560751 -0.03197278
v -0.02201838 -0.03924083 -0.02300175
v 0.01604939 -0.04202960 -0.03197278
v 0.00977226 -0.04392104 -0.02300175
v -0.02201838 -0.03924083 -0.03197278
v -0.01606699 -0.04202080 -0.02300175
v 0.00977226 -0.04392104 -0.03197278
v 0.00327503 -0.04487995 -0.02300175
v -0.01606699 -0.04202080 -0.03197278
v -0.00977225 -0.04392104 -0.02300175
v 0.00327503 -0.04487995 -0.03197278
v -0.00327502 -0.04487995 -0.02300175
v -0.00977225 -0.04392104 -0.03197278
v -0.00327502 -0.04487995 -0.03197278
v -0.05680262 -0.00826220 0.04532603
v -0.05749196 0.00687579 0.04461382
v -0.05653564 0.00883984 0.03364840
v -0.05411411 -0.00175488 0.05221459
v -0.05431506 0.01310688 0.05059286
v -0.05467668 0.02330845 0.04287814
v -0.05285444 -0.01599811 0.03253206
v -0.05194756 -0.02447286 0.04610756
v -0.04760810 -0.03140723 0.03425007
v -0.04710910 -0.01536940 0.05689006
v -0.03584409 0.08113544 0.02651723
v -0.04620964 -0.02730457 0.05351238
v -0.04844576 0.01799669 0.05549248
v -0.04818444 0.03231702 0.04952907
v -0.03549377 0.08114900 0.03033743
v -0.04342685 -0.03735193 0.04606225
v -0.04352714 0.01427786 0.05920961
v 0.03582486 0.08113544 0.02651723
v -0.03050875 0.07034244 0.02655710
v 0.03053049 0.07035092 0.02655710
v 0.03536718 0.08114900 0.03048649
v 0.05456775 0.02304324 0.04320843
v 0.05602695 0.01259087 0.03398751
v 0.05643166 -0.00208364 0.03335617
v 0.04756627 -0.02845860 0.03251575
v 0.00540059 -0.05405319 0.03250125
v -0.03418218 -0.04263150 0.03250669
v -0.03760558 0.03973264 0.05400576
v -0.02928969 0.08114900 0.03695755
v -0.03276182 -0.04681635 0.03441362
v -0.03349920 -0.03796877 0.05646633
v -0.03835778 -0.01670730 0.05978522
v 0.03431410 -0.04332459 0.03253750
v -0.03094136 -0.04814153 0.04624869
v -0.02461403 0.01493706 0.06213140
v -0.02546723 0.03818377 0.05915389
v 0.03739565 -0.04342543 0.03450559
v 0.05109773 0.02436928 0.05003333
v 0.05755148 0.00288709 0.04469571
v 0.05317705 -0.02121921 0.03448565
v -0.01750873 0.08114900 0.04366602
v 0.05153352 0.00367085 0.05527286
v 0.05585673 -0.00004671 0.04982447
v -0.01970459 -0.02619226 0.06128724
v -0.02513739 -0.04625119 0.05455034
v 0.02292371 -0.05227130 0.03446980
v 0.04577228 0.03374049 0.05132636
v 0.00650523 -0.05685354 0.03450559
v -0.01223696 -0.05565375 0.03450559
v 0.04773578 -0.03179360 0.04627066
v -0.01768954 -0.05443363 0.04643195
v 0.00836702 -0.04488618 0.05924450
v -0.00879307 -0.05052204 0.05550120
v -0.00408651 -0.02237896 0.06260530
v 0.05616609 -0.01210219 0.04541710
v -0.00811644 0.04448264 0.05926874
v -0.00374449 0.08114900 0.04639933
v -0.00244491 0.01388301 0.06321602
v -0.00553159 0.03007186 0.06171560
v 0.03756940 0.03972756 0.05400712
v 0.04299232 0.01571150 0.05900732
v 0.02384613 0.08114900 0.04060922
v 0.04359832 -0.01394932 0.05920961
v 0.04744620 -0.02272996 0.05416207
v 0.03261546 -0.04679092 0.04634689
v -0.00221325 -0.05726025 0.04621267
v 0.01691881 -0.05188832 0.05241054
v 0.01829679 -0.00651759 0.06280394
v 0.04143282 -0.03644531 0.05114016
v 0.01082562 -0.05594607 0.04641791
v 0.02636053 0.03842440 0.05890380
v 0.03057251 -0.04578475 0.05114016
v 0.01256663 0.04394884 0.05925446
v 0.01234345 0.08114900 0.04514753
v 0.03399803 -0.03740658 0.05624433
v 0.02461104 -0.03849240 0.05910110
v 0.02180848 0.01833434 0.06191755
v -0.05620221 -0.01075916 -0.04534243
v -0.05730974 0.00157755 -0.03423035
v -0.05729843 0.00923837 -0.04447946
v -0.05396030 0.01309768 -0.05101915
v -0.05630109 -0.00973906 -0.03360740
v -0.03518457 0.08114558 0.03085640
v -0.04551398 0.14797990 0.00947634
v -0.04644634 0.14797990 0.00007537
v -0.05245582 -0.02128683 -0.03324872
v -0.04786465 -0.01637350 -0.05600684
v -0.04808573 -0.03052680 -0.04598426
v -0.04243578 0.14797990 -0.01858769
v -0.04453421 -0.03446431 -0.03313512
v -0.03397250 0.14797990 0.03138767
v -0.03610563 0.14797990 -0.02910108
v -0.04565666 0.00159953 -0.05907645
v -0.02690352 0.08114558 0.03862987
v -0.02746294 0.14797990 -0.03736131
v -0.03642242 -0.02561850 -0.05924803
v -0.03364829 -0.03958461 -0.05497195
v -0.02286895 0.14797990 0.04031670
v -0.03843935 0.02457006 -0.05915802
v -0.03684021 -0.04199040 -0.03200011
v -0.01898412 0.08114558 0.04311056
v -0.03499245 -0.04539744 -0.04614202
v -0.02471389 -0.05007082 -0.03201090
v -0.01772402 0.14797990 -0.04291128
v -0.01088107 0.14797990 0.04510079
v -0.01217604 -0.01823987 -0.06256203
v -0.00836370 0.14797990 -0.04561076
v -0.02031414 -0.05059908 -0.05198931
v -0.01013518 0.08114558 0.04566172
v -0.00508914 0.01061274 -0.06341220
v -0.00319052 -0.04518638 -0.05939939
v -0.01085847 -0.05477434 -0.03201090
v -0.01131476 0.02912284 -0.06174019
v -0.00093308 0.14797990 0.04647614
v 0.00650037 0.14797990 -0.04601797
v -0.01072003 -0.05597787 -0.04653845
v 0.00390106 0.08114558 0.04636828
v 0.00365808 -0.05573917 -0.03200011
v 0.01941213 0.00486242 -0.06265727
v 0.01798816 0.02932636 -0.06136264
v -0.00344197 -0.05369645 -0.05299926
v 0.01795426 -0.05289494 -0.03200011
v 0.01017506 -0.05591002 -0.04641170
v 0.04022917 0.02215046 -0.05919443
v 0.01416267 0.14797990 0.04415422
v 0.03103554 -0.04645272 -0.03200011
v 0.01840066 0.08114558 0.04335867
v 0.01215315 -0.02467503 -0.06205032
v 0.02186310 0.14797990 -0.04079566
v 0.02761124 -0.03578937 -0.05939399
v 0.02562574 -0.04687357 -0.05350962
v 0.03247646 -0.04698287 -0.04624248
v 0.04200348 -0.03681450 -0.03200551
v 0.02639917 0.08114558 0.03894944
v 0.02935023 0.14797990 0.03548947
v 0.03919369 -0.02369136 -0.05918769
v 0.04873907 0.01601979 -0.05604460
v 0.04084606 -0.03456120 -0.05301106
v 0.05102052 -0.02436221 -0.03321232
v 0.05198272 -0.00245387 -0.05437832
v 0.04620969 -0.03344012 -0.04610157
v 0.03533570 0.08114558 0.03058673
v 0.05396169 0.01310521 -0.05102724
v 0.03335796 0.14797990 -0.03238845
v 0.05577414 -0.01103555 -0.03346312
v 0.05490394 -0.01637601 -0.04559930
v 0.04225776 0.14797990 0.01885574
v 0.03932507 0.14797990 -0.02457858
v 0.05185541 -0.01536596 -0.05240967
v 0.04508309 0.14797990 -0.00993642
v 0.05731677 0.00950721 -0.04455632
v 0.05730264 0.00167805 -0.03422226
v 0.04284825 0.08840188 0.01643134
v 0.04616236 0.14797990 0.00446842
f 1 2 5
f 1 5 3
f 1 3 7
f 1 7 4
f 1 4 8
f 1 8 13
f 1 13 17
f 1 17 21
f 1 21 25
f 1 25 29
f 1 29 34
f 1 34 38
f 1 38 42
f 1 42 46
f 1 46 51
f 1 51 55
f 1 55 59
f 1 59 63
f 1 63 67
f 1 67 71
f 1 71 75
f 1 75 79
f 1 79 83
f 1 83 87
f 1 87 91
f 1 91 95
f 1 95 97
f 1 97 93
f 1 93 89
f 1 89 85
f 1 85 80
f 1 80 76
f 1 76 72
f 1 72 68
f 1 68 64
f 1 64 60
f 1 60 56
f 1 56 52
f 1 52 47
f 1 47 43
f 1 43 39
f 1 39 35
f 1 35 30
f 1 30 26
f 1 26 22
f 1 22 18
f 1 18 14
f 1 14 10
f 1 10 6
f 1 6 2
f 2 6 9
f 2 9 5
f 3 5 9
f 3 9 11
f 3 11 15
f 3 15 19
f 3 19 23
f 3 23 27
f 3 27 31
f 3 31 36
f 3 36 40
f 3 40 44
f 3 44 48
f 3 48 53
f 3 53 57
f 3 57 61
f 3 61 65
f 3 65 69
f 3 69 73
f 3 73 77
f 3 77 81
f 3 81 84
f 3 84 88
f 3 88 92
f 3 92 96
f 3 96 99
f 3 99 98
f 3 98 94
f 3 94 90
f 3 90 86
f 3 86 82
f 3 82 78
f 3 78 74
f 3 74 70
f 3 70 66
f 3 66 62
f 3 62 58
f 3 58 54
f 3 54 50
f 3 50 49
f 3 49 45
f 3 45 41
f 3 41 37
f 3 37 33
f 3 33 32
f 3 32 28
f 3 28 24
f 3 24 20
f 3 20 16
f 3 16 12
f 3 12 7
f 4 7 12
f 4 12 8
f 6 10 11
f 6 11 9
f 8 12 16
f 8 16 13
f 10 14 15
f 10 15 11
f 13 16 20
f 13 20 17
f 14 18 15
f 15 18 19
f 17 20 24
f 17 24 21
f 18 22 23
f 18 23 19
f 21 24 28
f 21 28 25
f 22 26 23
f 23 26 27
f 25 28 32
f 25 32 29
f 26 30 31
f 26 31 27
f 29 32 33
f 29 33 34
f 30 35 36
f 30 36 31
f 33 37 38
f 33 38 34
f 35 39 36
f 36 39 40
f 37 41 38
f 38 41 45
f 38 45 42
f 39 43 44
f 39 44 40
f 42 45 49
f 42 49 46
f 43 47 48
f 43 48 44
f 46 49 50
f 46 50 51
f 47 52 53
f 47 53 48
f 50 54 55
f 50 55 51
f 52 56 57
f 52 57 53
f 54 58 59
f 54 59 55
f 56 60 61
f 56 61 57
f 58 62 59
f 59 62 63
f 60 64 65
f 60 65 61
f 62 66 67
f 62 67 63
f 64 68 65
f 65 68 69
f 66 70 67
f 67 70 71
f 68 72 73
f 68 73 69
f 70 74 71
f 71 74 78
f 71 78 75
f 72 76 77
f 72 77 73
f 75 78 82
f 75 82 79
f 76 80 77
f 77 80 81
f 79 82 86
f 79 86 83
f 80 84 81
f 80 85 88
f 80 88 84
f 83 86 90
f 83 90 87
f 85 89 88
f 87 90 94
f 87 94 91
f 88 89 92
f 89 93 96
f 89 96 92
f 91 94 98
f 91 98 95
f 93 97 99
f 93 99 96
f 95 98 99
f 95 99 97
f 100 101 102
f 103 101 100
f 101 104 105
f 101 105 102
f 100 106 107
f 100 107 103
f 103 104 101
f 102 106 100
f 103 107 109
f 102 105 110
f 103 112 104
f 104 114 105
f 106 108 107
f 107 108 115
f 107 115 111
f 107 111 109
f 103 116 112
f 110 106 102
f 110 105 114
f 110 117 119
f 110 119 118
f 110 118 106
f 104 112 113
f 104 113 114
f 103 109 116
f 110 114 128
f 110 128 140
f 110 140 156
f 110 156 173
f 110 173 161
f 110 161 120
f 110 120 117
f 117 121 122
f 117 122 123
f 117 123 124
f 117 124 119
f 118 119 125
f 118 125 126
f 118 126 106
f 112 127 113
f 113 127 128
f 113 128 114
f 115 108 129
f 111 115 130
f 112 116 127
f 119 124 132
f 119 132 125
f 120 121 117
f 125 129 126
f 108 126 129
f 109 131 116
f 106 126 108
f 115 129 133
f 131 111 130
f 111 131 109
f 127 116 135
f 124 136 132
f 121 120 137
f 122 121 138
f 123 139 124
f 127 140 128
f 116 131 134
f 134 135 116
f 137 141 142
f 137 142 121
f 121 142 138
f 133 130 115
f 131 130 143
f 131 143 134
f 122 138 123
f 125 147 148
f 127 135 140
f 130 133 144
f 132 145 125
f 120 146 137
f 124 139 149
f 133 150 144
f 133 129 150
f 143 130 151
f 144 152 130
f 142 154 138
f 138 154 123
f 139 123 154
f 124 149 136
f 135 155 156
f 135 156 140
f 129 148 150
f 134 143 157
f 135 134 158
f 146 120 159
f 146 160 137
f 137 160 141
f 125 148 129
f 130 152 151
f 144 150 152
f 143 153 157
f 159 120 161
f 146 159 160
f 141 160 162
f 141 162 163
f 141 163 154
f 141 154 142
f 154 149 139
f 135 158 155
f 125 145 147
f 149 164 136
f 150 148 165
f 157 158 134
f 136 145 132
f 154 163 149
f 143 151 153
f 152 166 151
f 150 165 152
f 157 153 167
f 159 170 160
f 149 163 168
f 149 168 164
f 136 164 145
f 147 169 165
f 147 165 148
f 155 172 156
f 152 165 169
f 152 169 166
f 161 173 159
f 159 173 170
f 163 162 174
f 164 168 171
f 168 174 171
f 147 145 169
f 156 172 173
f 151 166 175
f 157 167 176
f 145 164 169
f 170 176 160
f 160 176 162
f 163 174 168
f 155 158 172
f 173 172 170
f 151 175 153
f 153 175 167
f 176 158 157
f 176 167 162
f 162 175 174
f 171 174 166
f 169 164 166
f 175 166 174
f 176 170 158
f 158 170 172
f 164 171 166
f 162 167 175
f 177 178 179
f 177 181 178
f 179 180 177
f 178 181 182
f 178 182 183
f 178 183 184
f 183 190 197
f 183 197 204
f 183 204 213
f 183 213 224
f 183 224 234
f 183 234 246
f 183 246 253
f 183 253 249
f 183 249 247
f 183 247 243
f 183 243 228
f 183 228 214
f 183 214 206
f 183 206 203
f 183 203 194
f 183 194 191
f 183 191 188
f 183 188 184
f 178 184 179
f 180 186 177
f 177 185 181
f 185 177 187
f 179 184 188
f 180 179 188
f 177 186 187
f 182 181 185
f 180 188 191
f 180 192 186
f 182 190 183
f 185 189 193
f 185 193 182
f 187 189 185
f 182 193 190
f 180 191 194
f 180 194 192
f 186 195 196
f 193 197 190
f 192 194 198
f 186 196 187
f 189 199 193
f 192 195 186
f 199 200 193
f 199 189 202
f 199 202 200
f 200 197 193
f 194 203 198
f 196 201 187
f 187 201 189
f 200 204 197
f 192 205 195
f 198 203 206
f 202 208 200
f 200 208 204
f 196 195 207
f 201 202 189
f 192 209 205
f 192 198 209
f 195 205 210
f 207 201 196
f 202 211 208
f 208 213 204
f 198 212 209
f 206 214 212
f 206 212 198
f 211 216 208
f 208 216 213
f 195 210 207
f 201 207 215
f 202 201 215
f 202 215 211
f 211 217 216
f 205 209 218
f 214 219 212
f 212 219 209
f 210 220 207
f 215 207 220
f 217 221 216
f 217 211 222
f 211 215 222
f 214 223 219
f 215 220 222
f 213 216 224
f 217 222 221
f 221 225 226
f 221 226 216
f 216 226 224
f 205 227 210
f 205 218 227
f 214 228 223
f 223 218 219
f 219 218 209
f 210 229 230
f 210 230 222
f 210 222 220
f 221 222 231
f 225 232 226
f 226 233 234
f 226 234 224
f 226 232 233
f 225 221 232
f 222 230 231
f 210 227 229
f 227 218 235
f 223 228 236
f 229 237 230
f 231 232 221
f 232 238 233
f 223 235 218
f 230 237 231
f 227 235 229
f 232 231 240
f 233 241 234
f 233 238 241
f 236 228 243
f 239 223 236
f 239 235 223
f 237 240 231
f 238 244 241
f 236 243 242
f 229 235 237
f 240 238 232
f 242 239 236
f 240 245 238
f 241 246 234
f 242 243 247
f 238 245 244
f 248 235 239
f 235 248 237
f 237 248 240
f 240 248 245
f 242 247 249
f 245 250 244
f 244 250 251
f 242 249 250
f 242 250 239
f 239 250 248
f 245 248 250
f 244 251 252
f 244 252 241
f 241 252 246
f 251 253 246
f 251 246 252
f 250 249 253
f 250 253 251

