# https://github.com/mikedh/trimesh
v 0.05548288 0.00380796 -0.00444731
v 0.05414418 -0.03098771 0.00778492
v 0.04866643 -0.00075756 -0.07998830
v 0.05437913 0.03099841 -0.00761321
v 0.05444470 0.03099841 0.00673517
v 0.01770966 -0.04508955 -0.07998830
v 0.05422067 -0.03098771 -0.00869813
v 0.04542077 0.00637084 -0.09148182
v 0.02231588 0.04301537 -0.07998830
v 0.00790436 0.04797783 -0.07998830
v 0.00947801 -0.04467949 -0.09149663
v 0.02562439 -0.03802552 -0.09149663
v 0.04593302 -0.01535648 -0.07998830
v 0.04408753 -0.01263028 -0.09148182
v 0.03886933 -0.01017230 -0.09549566
v 0.04665019 0.01398560 -0.07998830
v 0.02007834 0.04122612 -0.09148182
v 0.01009272 -0.03865015 -0.09549566
v 0.02974431 -0.02665584 -0.09549566
v 0.03004483 -0.03817095 -0.07998830
v 0.04189643 0.01865363 -0.09148182
v 0.03066774 0.03408818 -0.09148182
v 0.02554789 0.03070755 -0.09549566
v -0.00425050 0.03897793 -0.09549566
v 0.00160973 0.04585123 -0.09149663
v 0.04927841 0.03099841 0.02429389
v 0.04967183 -0.03098771 0.02332746
v 0.00274899 -0.04853932 -0.07998830
v 0.03514282 -0.02947144 -0.09148923
v -0.00061415 0.04867876 -0.07998830
v -0.01097679 -0.04408347 -0.09149663
v -0.01561853 0.04291643 -0.09149663
v -0.00842233 0.04788009 -0.07998830
v 0.02025319 0.03099841 0.05107630
v 0.03472209 0.03099841 0.04259687
v 0.04141149 -0.03098771 0.03565596
v -0.01753369 -0.03566170 -0.09549566
v -0.00817918 -0.04793853 -0.07998830
v 0.02055713 -0.03098771 0.05036444
v -0.04360284 0.03099841 0.03338799
v -0.01930132 0.03099841 0.05144658
v -0.00098571 0.03099841 0.05497165
v 0.03439561 -0.00760941 0.04364106
v -0.02661227 -0.03098771 0.04792151
v -0.03571543 -0.03098771 0.04166377
v -0.04510820 -0.03098771 0.03088119
v -0.00138459 -0.03098771 0.05491982
v -0.02026027 0.04405006 -0.07998830
v -0.05444359 0.03099841 0.00674998
v -0.05001631 0.03099841 0.02242212
v -0.03380027 0.00761414 0.04386138
v 0.02310066 -0.00761060 0.05044590
v -0.01785607 -0.04521353 -0.07998830
v -0.05295326 -0.03098771 0.01434444
v -0.04457067 -0.00951667 0.03300660
v 0.01052712 -0.00760941 0.05466062
v -0.00683091 -0.00380680 0.05516791
v -0.02823510 0.03614802 -0.09149663
v -0.05438894 0.03099841 -0.00759099
v -0.05529735 0.00000058 0.00609459
v -0.03172939 -0.03284968 -0.09149663
v -0.02767777 -0.03996617 -0.07998830
v -0.05425917 -0.03098771 -0.00844264
v -0.05071162 -0.00761418 0.02292015
v -0.01878224 -0.00760941 0.05234266
v -0.03160644 0.02441357 -0.09549566
v -0.03344784 0.03516817 -0.07998830
v -0.05551728 -0.00761418 -0.00394743
v -0.03954849 0.02281624 -0.09149663
v -0.04702609 0.01166470 -0.07998830
v -0.04868171 -0.00040471 -0.07998830
v -0.03640391 -0.03202002 -0.07998830
v -0.04469293 -0.01855592 -0.07998830
v -0.04530764 0.00316426 -0.09149663
v -0.03730549 -0.01426576 -0.09549566
v -0.04234337 -0.01710044 -0.09149663
v -0.03993371 0.00438491 -0.09549566
v -0.00000901 0.02760200 -0.06425186
v -0.00000901 0.02529442 -0.06425186
v -0.00000901 0.02760200 -0.06533442
v -0.03427208 0.02760200 -0.06425186
v -0.00000901 0.02529442 -0.06533442
v -0.03594750 0.02529442 -0.06425186
v -0.03540949 0.02760200 -0.06533442
v -0.03526144 0.02760200 -0.06518488
v -0.03550337 0.02597664 -0.06425186
v -0.03689354 0.02529442 -0.06533442
v -0.03602694 0.02664983 -0.06533442
v 0.00001667 -0.00185714 -0.01389380
v 0.00001667 -0.02406122 -0.01389380
v 0.00001667 -0.00185714 -0.01502871
v -0.03412281 -0.00185714 -0.01389380
v 0.00001667 -0.02406122 -0.01502871
v -0.03412281 -0.02406122 -0.01389380
v -0.03412281 -0.00185714 -0.01502871
v -0.03412281 -0.02406122 -0.01502871
f 1 4 5
f 1 5 2
f 2 7 1
f 2 6 7
f 1 7 3
f 1 3 4
f 4 9 5
f 5 9 10
f 6 11 12
f 7 13 3
f 8 14 15
f 8 3 13
f 8 13 14
f 4 3 16
f 3 8 16
f 9 17 10
f 11 18 12
f 12 18 19
f 12 20 6
f 7 6 20
f 15 19 18
f 15 18 37
f 15 37 75
f 15 75 77
f 15 77 66
f 15 66 24
f 15 24 23
f 15 23 8
f 8 21 16
f 4 16 21
f 4 21 22
f 4 22 9
f 9 22 17
f 17 22 23
f 17 23 24
f 17 24 25
f 17 25 10
f 10 26 5
f 5 26 27
f 5 27 2
f 6 28 11
f 6 2 27
f 6 27 28
f 12 19 29
f 12 29 20
f 7 20 29
f 7 29 13
f 25 30 10
f 11 31 18
f 11 28 31
f 29 14 13
f 14 29 19
f 14 19 15
f 21 8 23
f 21 23 22
f 25 24 32
f 25 32 33
f 25 33 30
f 10 30 34
f 10 34 35
f 10 35 26
f 28 27 36
f 31 37 18
f 31 28 38
f 28 36 39
f 33 40 41
f 33 41 30
f 30 42 34
f 27 26 36
f 38 28 44
f 38 44 45
f 38 45 46
f 36 43 39
f 28 39 47
f 32 48 33
f 33 48 49
f 33 49 50
f 33 50 40
f 30 41 42
f 40 51 41
f 34 52 35
f 35 52 43
f 35 43 36
f 35 36 26
f 31 38 53
f 38 46 54
f 38 54 53
f 28 47 44
f 45 55 46
f 43 52 39
f 39 52 56
f 39 56 47
f 47 57 44
f 32 24 58
f 32 58 48
f 48 59 49
f 51 40 55
f 34 56 52
f 31 61 37
f 31 53 62
f 31 62 61
f 53 54 63
f 46 55 64
f 46 64 54
f 54 60 63
f 44 57 65
f 44 65 51
f 44 51 45
f 45 51 55
f 56 57 47
f 24 66 58
f 58 67 48
f 49 59 60
f 49 60 54
f 50 49 54
f 50 54 64
f 50 64 55
f 50 55 40
f 41 51 65
f 42 57 56
f 42 56 34
f 53 63 62
f 57 42 41
f 57 41 65
f 58 66 69
f 58 69 67
f 67 59 48
f 59 70 71
f 59 68 60
f 61 62 72
f 63 68 71
f 63 71 73
f 60 68 63
f 59 67 69
f 59 69 70
f 70 74 71
f 71 68 59
f 37 61 75
f 62 63 72
f 63 73 72
f 71 74 73
f 73 74 76
f 70 69 74
f 74 69 77
f 61 76 75
f 61 72 76
f 73 76 72
f 74 77 75
f 74 75 76
f 66 77 69
f 78 79 82
f 78 82 80
f 78 80 84
f 78 84 85
f 78 85 81
f 78 81 86
f 78 86 83
f 78 83 79
f 79 83 87
f 79 87 82
f 80 82 87
f 80 87 88
f 80 88 84
f 81 85 86
f 83 86 84
f 83 84 88
f 83 88 87
f 84 86 85
f 89 90 93
f 89 93 91
f 89 91 95
f 89 95 92
f 89 92 94
f 89 94 90
f 90 94 96
f 90 96 93
f 91 93 96
f 91 96 95
f 92 95 96
f 92 96 94

