# https://github.com/mikedh/trimesh
v -0.05727249 -0.00374206 -0.04510847
v -0.05689105 0.00945271 -0.03437353
v -0.05347861 0.00568225 -0.05260929
v -0.05517035 -0.01017908 -0.04986975
v -0.05353300 0.02611381 -0.04276951
v -0.05054295 0.02824140 -0.04822280
v -0.05233924 -0.02350991 -0.04586647
v -0.05163288 -0.02295594 -0.03324746
v -0.04459184 -0.00489858 -0.02300263
v -0.05338042 0.02277705 -0.03354659
v -0.04352947 0.01135757 -0.02300263
v -0.04879894 -0.01603258 -0.05548352
v -0.03786160 -0.02314060 -0.02300263
v -0.04694827 0.02089811 -0.05597140
v -0.04438558 -0.03580083 -0.03399057
v -0.03354995 0.07503455 -0.03008253
v -0.04519931 -0.00517678 -0.05910854
v -0.03933472 0.04168440 -0.05188639
v -0.03894657 -0.02286523 -0.05939428
v -0.03789833 -0.03557083 -0.05508443
v -0.02406630 0.03628444 -0.02300263
v 0.00486779 0.04438822 -0.02300263
v 0.03353771 0.07503455 -0.03008253
v -0.03421111 0.07503455 -0.03398362
v -0.04192037 0.01723253 -0.05931292
v -0.04100633 -0.03997664 -0.04609565
v 0.05353064 0.02168532 -0.03301926
v 0.03432036 0.07503455 -0.03329210
v 0.02711544 0.03511658 -0.02300263
v 0.04351722 0.01135757 -0.02300263
v -0.02473452 -0.03739794 -0.02300263
v 0.05332297 0.02704033 -0.04265293
v 0.04293518 -0.01121574 -0.02300263
v -0.03105790 -0.04787795 -0.03450846
v 0.05244567 -0.01776291 -0.03200728
v -0.00644816 -0.04391595 -0.02300263
v -0.01519896 -0.05422913 -0.03314031
v -0.02716865 0.03748875 -0.05898403
v -0.02142185 -0.00342499 -0.06262159
v 0.05656536 -0.00780752 -0.03437136
v -0.01468579 0.07503455 -0.04582182
v -0.00825981 -0.04119674 -0.05970550
v -0.02321010 -0.04675129 -0.05440314
v 0.05743260 0.00648526 -0.04451121
v -0.01369034 -0.02814330 -0.06167459
v 0.05298886 0.01450401 -0.05188503
v 0.03097784 -0.03213688 -0.02300263
v -0.02120765 -0.05286283 -0.04626407
v 0.00462763 -0.05692283 -0.03450747
v 0.03651574 -0.04163854 -0.03200728
v 0.05461209 -0.01628405 -0.04558445
v 0.01437828 -0.04226054 -0.02300263
v 0.04683148 -0.03301157 -0.04598949
v 0.01955452 -0.05304506 -0.03325738
v 0.00504580 -0.00032290 -0.06327047
v 0.04134127 0.04041529 -0.05109144
v 0.05499494 -0.00428873 -0.05100376
v -0.00281886 -0.05646929 -0.04814095
v -0.00038668 0.02124474 -0.06278789
v -0.00709237 0.04526290 -0.05920379
v 0.00355113 -0.04957710 -0.05668277
v 0.05117845 -0.01099707 -0.05471089
v 0.04426385 -0.02934599 -0.05350941
v -0.00000047 0.07503455 -0.04753624
v 0.04189708 0.02910930 -0.05582137
v 0.02626639 0.07503455 -0.04074009
v 0.03519696 -0.04484976 -0.04619586
v 0.01708295 -0.05443686 -0.04632186
v 0.04276989 0.01309803 -0.05928291
v 0.04254526 -0.01634722 -0.05930300
v 0.01777166 0.04236795 -0.05905125
v 0.01323446 -0.02363494 -0.06204757
v 0.01359845 0.07503455 -0.04619586
v 0.02262155 -0.03965511 -0.05923405
v 0.02461491 -0.04753213 -0.05351090
v 0.03322126 -0.00863705 -0.06139046
v 0.03166778 0.02328567 -0.06030203
v -0.05749620 -0.00313952 0.04501597
v -0.05651622 0.00840117 0.03359957
v -0.05484477 -0.01659684 0.04568479
v -0.05692269 0.01268665 0.04418130
v -0.05238123 -0.01681712 0.05121548
v -0.04546238 -0.03470882 0.03429671
v -0.05481229 0.01926111 0.03400761
v -0.04877843 -0.01199387 0.05636621
v -0.05005364 0.01666606 0.05431874
v -0.05376627 0.02593894 0.04315428
v -0.04632265 -0.03345154 0.04607131
v -0.04783270 0.00705429 0.05770589
v -0.03584409 0.08113565 0.02651192
v -0.05086658 -0.01974767 0.03252587
v -0.04456963 -0.02908494 0.05406861
v -0.04009297 -0.02035894 0.05908874
v -0.03527905 0.08113565 0.03074054
v 0.03582486 0.08113565 0.02651192
v 0.05540894 0.01936278 0.04343114
v 0.05498234 0.01872567 0.03439549
v 0.05591182 0.00229458 0.03264142
v 0.04029993 -0.03805875 0.03251138
v 0.03032142 0.07012851 0.02655542
v -0.02979822 0.06995228 0.02655542
v -0.03418712 -0.03783932 0.05598264
v -0.03760558 0.03974023 0.05401288
v 0.05707544 -0.00217411 0.03455692
v -0.00336027 -0.05517947 0.03250956
v -0.02720471 -0.04832712 0.03251500
v -0.03933459 0.02428346 0.05893501
v -0.02698717 0.08113565 0.03860598
v 0.03537283 0.08113565 0.03061185
v 0.05491913 -0.01536921 0.03390996
v -0.03536805 -0.04502378 0.04625596
v -0.02645022 -0.00242573 0.06219823
v 0.04917097 0.02917026 0.05018075
v 0.04706198 -0.03220950 0.03422103
v -0.02875079 -0.04902523 0.03444828
v -0.02643203 -0.04659623 0.05352893
v -0.01828671 -0.04316370 0.05835155
v -0.01569920 -0.02666865 0.06167441
v 0.05556715 0.00817263 0.04950196
v 0.02273019 -0.05233619 0.03448136
v -0.02202794 0.02183795 0.06167362
v -0.01729684 0.08113565 0.04374448
v -0.01905339 -0.05367480 0.04639553
v -0.02236520 0.04019096 0.05905396
v 0.04750941 0.01383633 0.05688969
v 0.04286377 0.03662245 0.05226062
v 0.04975330 -0.00329202 0.05660014
v -0.00284750 -0.05677564 0.03445055
v 0.00452425 -0.04815216 0.05749315
v 0.00093845 -0.00875715 0.06328790
v 0.05616609 -0.01211332 0.04541835
v -0.00216540 -0.05408740 0.05224754
v -0.00117200 -0.03334203 0.06135382
v -0.00780214 0.00918570 0.06335688
v -0.00468245 0.08113565 0.04625120
v 0.04840252 -0.03075906 0.04610167
v 0.02385178 0.08113565 0.04060701
v 0.04898627 -0.02058981 0.05377068
v -0.00886653 0.04479647 0.05925605
v 0.03806239 0.02430380 0.05940921
v 0.02199070 -0.04095456 0.05880224
v 0.03669006 -0.04393510 0.04609759
v -0.00221325 -0.05726026 0.04621404
v 0.01257511 0.04396111 0.05925424
v 0.02519021 0.03844906 0.05901907
v 0.04076079 0.00519675 0.06004767
v 0.04206637 -0.01749829 0.05924246
v 0.03827710 -0.03635752 0.05464046
v 0.01416144 0.02093046 0.06234708
v 0.01851044 -0.05062945 0.05274139
v 0.01556167 -0.01991034 0.06242655
v 0.01234345 0.08113565 0.04515009
v 0.02048206 -0.05304234 0.04631713
v 0.02558520 0.00567957 0.06221907
v 0.04651227 0.14298393 -0.00068673
v 0.04609328 0.14800000 -0.00561142
v 0.04525301 0.08927818 0.00762643
v 0.04553310 0.08927818 -0.00586746
v 0.04564240 0.14800000 0.00893200
v 0.04398238 0.08884583 0.01321313
v 0.04536687 0.08850933 0.00434177
v 0.03295423 0.06805568 -0.03138821
v 0.04401881 0.08883506 -0.01306189
v 0.04173485 0.14800000 -0.02049161
v 0.04357021 0.14800000 0.01617948
v 0.03077273 0.07063024 0.02653633
v -0.03295507 0.06805568 -0.03138821
v -0.00337969 0.07504377 -0.04752552
v 0.00460849 0.07504377 -0.04746093
v 0.01438194 0.07504377 -0.04606772
v 0.02228814 0.07504377 -0.04336894
v 0.02989376 0.07504377 -0.03845578
v 0.03415655 0.07504377 -0.03410083
v 0.02925617 0.06980857 0.02653633
v 0.03538620 0.08115540 0.03048070
v -0.03415740 0.07504377 -0.03408238
v -0.02876287 0.07504377 -0.03924465
v -0.02305410 0.07504377 -0.04294913
v -0.01738860 0.07504377 -0.04525116
v -0.00973744 0.07504377 -0.04692579
v -0.02956670 0.06986335 0.02653633
v -0.03073259 0.07057546 0.02653633
v -0.04519921 0.08839194 0.00525289
v -0.04587324 0.08949142 -0.00111115
v -0.04378056 0.08868931 -0.01375389
v -0.00616462 0.14800000 -0.04602158
v 0.00424415 0.14800000 -0.04623610
v 0.01453679 0.14800000 -0.04409092
v 0.02194657 0.14800000 -0.04093312
v 0.02842274 0.14800000 -0.03674425
v 0.03279483 0.14800000 -0.03294750
v 0.03780907 0.14800000 -0.02705633
v 0.04148892 0.08799481 -0.01991956
v 0.03330490 0.08115540 0.03313335
v 0.02891460 0.08115540 0.03722073
v 0.02391401 0.08115540 0.04068531
v 0.01840791 0.08115540 0.04336563
v 0.01013964 0.08115540 0.04565614
v -0.00000042 0.08115540 0.04664108
v 0.03704396 0.14800000 0.02794339
v 0.04102438 0.14298393 0.02191381
v 0.04205820 0.08814741 0.01857840
v -0.04148976 0.08799481 -0.01993801
v -0.03751161 0.14800000 -0.02736080
v -0.03043656 0.14800000 -0.03505347
v -0.02312242 0.14800000 -0.04025958
v -0.01702426 0.14800000 -0.04323976
v -0.00928884 0.08115540 0.04585681
v -0.01491563 0.08115540 0.04459739
v -0.02347310 0.08115540 0.04099440
v -0.02928889 0.08115540 0.03693009
v -0.03519577 0.08115540 0.03085438
v -0.04539732 0.08959901 -0.00693774
v 0.03044255 0.14800000 0.03505940
v 0.02180767 0.14800000 0.04099440
v 0.01204560 0.14800000 0.04484189
v 0.00319895 0.14800000 0.04631815
v -0.04234141 0.14800000 -0.01891386
v -0.00502833 0.14800000 0.04622588
v -0.01453308 0.14800000 0.04408992
v -0.02195425 0.14800000 0.04093904
v -0.02690246 0.14800000 0.03791733
v -0.03280023 0.14800000 0.03294420
v -0.03661670 0.14800000 0.02858694
v -0.04084761 0.14800000 0.02212371
v -0.04088632 0.08757615 0.02097731
v -0.04404015 0.08894560 0.01308396
v -0.04542009 0.08942490 0.00612942
v -0.04564325 0.14800000 -0.00893068
v -0.04394906 0.14800000 0.01505845
v -0.04587324 0.14800000 0.00715818
f 1 3 4
f 2 5 1
f 1 5 3
f 3 5 6
f 1 4 7
f 1 7 8
f 1 9 2
f 1 8 9
f 9 13 31
f 9 31 36
f 9 36 52
f 9 52 47
f 9 47 33
f 9 33 30
f 9 30 29
f 9 29 22
f 9 22 21
f 9 21 11
f 9 11 10
f 9 10 2
f 9 8 13
f 10 5 2
f 3 12 4
f 3 6 14
f 12 7 4
f 11 16 10
f 3 17 12
f 6 18 14
f 7 12 20
f 8 7 15
f 16 21 22
f 16 22 23
f 16 23 28
f 16 28 66
f 16 66 73
f 16 73 64
f 16 64 41
f 16 41 24
f 16 11 21
f 10 16 24
f 3 14 25
f 5 10 24
f 12 19 20
f 23 27 28
f 23 22 29
f 23 29 30
f 23 30 27
f 8 15 13
f 3 25 17
f 5 24 6
f 6 24 18
f 12 17 19
f 20 26 7
f 13 15 31
f 7 26 15
f 30 33 27
f 15 34 31
f 17 25 19
f 32 28 27
f 33 35 27
f 31 34 37
f 31 37 36
f 14 18 25
f 19 25 39
f 35 40 27
f 25 18 38
f 24 41 18
f 18 41 38
f 15 26 34
f 27 40 32
f 19 45 42
f 19 39 45
f 42 43 19
f 19 43 20
f 20 43 26
f 44 46 32
f 33 47 35
f 34 26 48
f 36 37 49
f 32 40 44
f 47 50 35
f 36 49 52
f 39 25 38
f 43 48 26
f 40 35 51
f 40 51 44
f 48 37 34
f 52 49 54
f 45 39 55
f 46 56 32
f 46 44 57
f 47 52 50
f 50 53 35
f 53 51 35
f 51 57 44
f 37 48 58
f 37 58 49
f 39 59 55
f 39 38 59
f 38 41 60
f 42 61 43
f 32 56 28
f 52 54 50
f 57 51 63
f 57 63 62
f 41 64 60
f 43 58 48
f 46 65 56
f 57 62 46
f 56 66 28
f 53 50 67
f 51 53 63
f 49 58 68
f 46 69 65
f 46 62 69
f 62 63 70
f 49 68 54
f 60 59 38
f 43 61 58
f 54 67 50
f 60 64 71
f 55 72 45
f 54 68 67
f 53 67 63
f 58 61 68
f 64 73 71
f 60 71 59
f 61 42 74
f 42 72 74
f 67 75 63
f 68 75 67
f 42 45 72
f 61 74 75
f 61 75 68
f 65 73 56
f 62 76 69
f 62 70 76
f 63 75 74
f 70 63 74
f 73 66 56
f 77 69 76
f 69 77 65
f 73 65 71
f 71 65 77
f 72 76 70
f 59 71 55
f 74 72 70
f 55 77 76
f 71 77 55
f 55 76 72
f 78 79 80
f 78 80 82
f 78 81 79
f 79 83 80
f 79 81 84
f 81 86 87
f 80 83 88
f 80 88 82
f 82 85 78
f 78 89 86
f 78 86 81
f 81 87 84
f 79 91 83
f 85 82 92
f 78 85 89
f 84 90 79
f 90 94 108
f 90 108 122
f 90 122 135
f 90 135 152
f 90 152 137
f 90 137 109
f 90 109 95
f 90 91 79
f 90 84 87
f 82 88 92
f 85 92 93
f 87 86 94
f 95 96 97
f 95 97 98
f 95 98 99
f 95 99 100
f 90 95 100
f 90 100 101
f 90 101 91
f 86 103 94
f 97 104 98
f 101 100 105
f 101 105 106
f 101 106 91
f 92 102 93
f 85 93 89
f 86 107 103
f 94 103 108
f 87 94 90
f 96 95 109
f 98 110 99
f 100 99 105
f 92 111 102
f 89 93 107
f 89 107 86
f 106 83 91
f 88 83 111
f 88 111 92
f 93 112 107
f 102 117 93
f 93 117 118
f 109 113 96
f 104 110 98
f 99 110 114
f 99 120 105
f 115 111 83
f 111 116 102
f 102 116 117
f 103 122 108
f 113 119 96
f 96 104 97
f 115 83 106
f 107 112 121
f 107 124 103
f 96 119 104
f 105 115 106
f 111 115 123
f 116 111 123
f 118 112 93
f 107 121 124
f 103 124 122
f 119 113 125
f 113 109 126
f 118 130 112
f 119 125 127
f 119 131 104
f 104 131 110
f 116 132 117
f 117 133 118
f 117 129 133
f 121 112 134
f 122 124 135
f 113 126 125
f 110 136 114
f 115 105 128
f 117 132 129
f 112 130 134
f 126 109 137
f 127 138 119
f 119 138 131
f 110 131 136
f 105 120 128
f 115 128 123
f 123 132 116
f 135 124 139
f 126 140 125
f 131 138 136
f 129 141 133
f 118 133 130
f 126 137 140
f 136 142 114
f 114 142 99
f 123 128 143
f 135 139 144
f 140 137 145
f 125 140 146
f 127 147 138
f 99 142 120
f 143 132 123
f 129 132 150
f 130 133 151
f 121 149 124
f 137 152 145
f 125 146 127
f 127 146 147
f 138 148 136
f 120 153 128
f 128 153 143
f 134 149 121
f 132 143 150
f 150 143 153
f 135 144 152
f 136 148 142
f 120 142 153
f 129 150 141
f 141 151 133
f 124 149 139
f 152 144 145
f 145 149 140
f 140 149 154
f 138 147 148
f 148 153 142
f 130 149 134
f 139 149 144
f 154 146 140
f 146 154 147
f 141 148 147
f 141 150 148
f 144 149 145
f 147 154 151
f 148 150 153
f 141 147 151
f 151 154 130
f 149 130 154
f 155 157 158
f 156 164 192
f 156 192 191
f 156 191 190
f 156 190 189
f 156 189 188
f 156 188 187
f 156 187 186
f 156 186 207
f 156 207 206
f 156 206 205
f 156 205 204
f 156 204 218
f 156 218 229
f 156 229 231
f 156 231 230
f 156 230 225
f 156 225 224
f 156 224 223
f 156 223 222
f 156 222 221
f 156 221 220
f 156 220 219
f 156 219 217
f 156 217 216
f 156 216 215
f 156 215 214
f 156 214 200
f 156 200 165
f 156 165 159
f 156 159 155
f 155 159 157
f 155 158 156
f 157 160 161
f 157 161 158
f 158 162 163
f 156 158 163
f 156 163 164
f 157 159 160
f 161 160 166
f 162 167 168
f 162 168 169
f 162 169 170
f 162 170 171
f 162 171 172
f 162 172 173
f 162 173 163
f 162 158 161
f 162 161 166
f 162 166 174
f 159 165 160
f 167 176 177
f 167 177 178
f 167 178 179
f 167 179 180
f 167 180 168
f 167 181 182
f 167 182 183
f 167 183 184
f 167 185 176
f 168 186 187
f 168 187 169
f 169 187 170
f 170 187 188
f 170 188 171
f 171 188 189
f 171 189 172
f 172 189 190
f 172 190 191
f 172 191 173
f 173 191 192
f 173 192 164
f 173 164 193
f 173 193 163
f 166 175 194
f 166 194 195
f 166 195 196
f 166 196 174
f 174 196 197
f 174 197 198
f 174 198 199
f 165 200 201
f 165 201 202
f 165 202 160
f 160 202 175
f 160 175 166
f 175 201 200
f 176 185 203
f 176 203 204
f 176 204 205
f 176 205 177
f 177 205 206
f 177 206 178
f 178 206 207
f 178 207 179
f 179 207 186
f 179 186 180
f 180 186 168
f 181 174 199
f 181 199 208
f 181 167 162
f 181 162 174
f 181 208 209
f 181 209 210
f 181 210 211
f 181 211 182
f 182 211 212
f 167 184 213
f 167 213 185
f 175 200 194
f 194 200 214
f 194 214 195
f 195 215 196
f 195 214 215
f 196 215 197
f 197 215 216
f 197 216 198
f 198 216 217
f 198 217 199
f 163 193 164
f 204 203 218
f 199 217 219
f 199 219 208
f 208 219 220
f 208 220 209
f 209 220 210
f 210 220 221
f 210 221 222
f 210 222 211
f 211 222 223
f 211 223 212
f 212 223 224
f 212 224 225
f 212 225 226
f 182 227 183
f 202 201 175
f 203 185 218
f 212 226 227
f 212 227 182
f 227 228 183
f 183 228 184
f 185 229 218
f 226 225 230
f 213 229 185
f 231 228 227
f 228 231 184
f 213 184 229
f 226 230 227
f 227 230 231
f 184 231 229

