# https://github.com/mikedh/trimesh
v -0.04858131 0.00191094 -0.07998981
v -0.04594008 -0.00475247 -0.03517205
v -0.04591148 0.02302643 -0.03237287
v -0.04497942 -0.00793755 -0.09149240
v -0.04827619 -0.00623534 -0.07998981
v 0.04591180 0.02302643 -0.03237287
v -0.04375654 -0.02591325 -0.03517205
v -0.04224999 -0.03098650 -0.03517205
v -0.03994964 -0.00438771 -0.09549961
v -0.04485784 0.00953750 -0.09149549
v 0.04225984 -0.03098650 -0.03514116
v 0.04417164 -0.02402747 -0.03514734
v 0.04552563 -0.01255068 -0.03514734
v 0.04865315 -0.00112872 -0.07998981
v 0.04784624 0.00831448 -0.07998981
v -0.04443353 0.03099868 -0.03237287
v -0.04730360 0.01153533 -0.07998981
v -0.04658847 -0.01389766 -0.07998826
v -0.03783522 -0.03042506 -0.07998363
v -0.03040736 -0.03803374 -0.07998981
v -0.02291036 -0.04284474 -0.07998981
v -0.01542291 -0.04619194 -0.07998981
v -0.00285144 -0.04629088 -0.06418843
v -0.04347048 -0.02186991 -0.07998363
v 0.04443385 0.03099868 -0.03237287
v 0.01065090 -0.04542428 -0.06473336
v 0.01330822 -0.04665206 -0.07998981
v 0.02488684 -0.04180291 -0.07998981
v 0.03173783 -0.03682741 -0.07998981
v 0.03973185 -0.02802433 -0.07998981
v 0.04406675 -0.02060875 -0.07998981
v 0.04729201 -0.01109403 -0.07998981
v 0.04543504 -0.00637839 -0.09149549
v 0.04410489 0.01264153 -0.09149549
v -0.03299614 -0.03186383 -0.09148622
v -0.02294135 -0.03972641 -0.09148313
v -0.01108919 -0.04448973 -0.09148313
v -0.00125132 -0.04854023 -0.07998981
v -0.04049552 -0.02153615 -0.09148931
v 0.02009067 -0.04121406 -0.09149549
v 0.02830995 -0.03624094 -0.09149549
v 0.03515141 -0.02947978 -0.09149240
v 0.04190228 -0.01865622 -0.09149549
v 0.03887488 -0.01017140 -0.09549961
v 0.03867821 0.00933128 -0.09549961
v -0.03520830 -0.01976242 -0.09549961
v -0.02324409 -0.03249083 -0.09549961
v -0.00292712 -0.04008402 -0.09549961
v -0.04048599 0.02153878 -0.09149549
v -0.03162070 0.02441156 -0.09549961
v 0.00318251 -0.04556732 -0.09148931
v 0.01562347 -0.03676781 -0.09549961
v 0.03088682 -0.02571061 -0.09549961
v 0.03785700 0.02553683 -0.09149549
v 0.04514899 0.01819158 -0.07998981
v 0.04119906 0.02579669 -0.07998981
v 0.03446965 0.03422786 -0.07998981
v 0.02416456 0.04210833 -0.07998981
v 0.01574742 0.04606584 -0.07998981
v 0.01076532 0.04537447 -0.06473954
v 0.00198585 0.04640378 -0.06417762
v -0.03086981 0.03762155 -0.07998363
v -0.03794845 0.03027750 -0.07998826
v -0.04323210 0.02232552 -0.07998363
v -0.00906178 0.04591207 -0.06647705
v -0.01668631 0.04571300 -0.07998363
v -0.02377806 0.04238964 -0.07998363
v 0.02420031 0.03873252 -0.09149549
v 0.00793815 0.04517898 -0.09148931
v 0.00551266 0.04826035 -0.07998981
v -0.02819044 0.03614821 -0.09148931
v -0.00512020 0.04842128 -0.07998363
v -0.01715353 0.04252792 -0.09148931
v 0.02555430 0.03070782 -0.09549961
v 0.00440539 0.04014387 -0.09549961
v -0.00475787 0.04563194 -0.09148931
v -0.01289371 0.03781227 -0.09549961
v -0.04594830 -0.00398761 -0.03516405
v -0.05286174 0.00761676 -0.01733176
v -0.04435962 0.02302478 -0.03516405
v -0.05058867 -0.03100000 -0.02149400
v -0.05212408 0.03099316 -0.01697832
v -0.05342727 -0.03100000 -0.01243926
v -0.04441426 0.03099316 -0.03235880
v -0.00614381 0.03099619 0.05450058
v 0.04443176 0.03099316 -0.03236770
v -0.05485613 0.03099316 -0.00248728
v -0.05512660 0.00761600 -0.00777274
v -0.04691681 0.03099316 0.02832154
v -0.04028341 0.03099316 0.03730949
v -0.03362269 0.03099316 0.04346769
v -0.02144734 0.03099316 0.05029604
v -0.05406656 0.03099316 0.00987588
v -0.05238089 0.03099316 0.01663966
v 0.05485451 0.03099316 -0.00256075
v 0.05320435 0.03099316 -0.01336767
v 0.04997235 0.03099316 -0.02287436
v 0.04432249 0.02302478 -0.03511952
v -0.05556782 0.00761600 0.00259780
v -0.04144453 0.00760993 0.03701561
v -0.04817901 0.01141509 0.02768702
v -0.03121303 0.00761600 0.04607034
v -0.02316170 0.00761600 0.05059437
v -0.01656655 0.00761600 0.05317476
v 0.00084476 0.01523239 0.05557482
v -0.05374692 -0.00000039 0.01452347
v 0.01077847 0.03099316 0.05389166
v 0.02379392 0.03099316 0.04937542
v 0.04027906 0.03099316 0.03707905
v 0.05034937 0.03099316 0.02147538
v 0.05439006 0.03099316 0.00759828
v 0.05248582 0.01523239 -0.01837705
v 0.04590434 0.00488806 -0.03511952
v 0.04222428 -0.03099393 -0.03511952
v -0.05488345 -0.03100000 -0.00265426
v -0.04662175 -0.00761071 0.03041880
v -0.00938401 -0.00761374 0.05488909
v -0.00043930 -0.00761223 0.05559151
v -0.05120065 -0.01141587 0.02166463
v 0.01918359 0.00761600 0.05221741
v 0.03048469 0.00760993 0.04659132
v 0.03745003 0.00760918 0.04112552
v 0.04465033 0.00760690 0.03319400
v 0.04848065 0.00760690 0.02732634
v 0.05158425 0.00760690 0.02101452
v 0.05487636 0.00760993 0.00935045
v 0.05560718 -0.00761602 0.00041148
v 0.05442558 -0.00761071 -0.01146410
v 0.05225633 -0.00761071 -0.01925425
v 0.04510522 -0.01627549 -0.03511952
v 0.04955161 -0.03099697 -0.02377382
v -0.04223955 -0.03100000 -0.03516405
v -0.05512387 -0.01523317 0.00610437
v -0.04225594 -0.01522103 0.03599146
v -0.02733353 -0.01522710 0.04829006
v -0.01829593 -0.03098787 0.05178104
v 0.00965013 -0.00761678 0.05480894
v -0.05428513 -0.03100000 0.00788325
v -0.04536501 -0.03100000 0.03104887
v -0.03881903 -0.03099393 0.03878336
v -0.04912976 -0.03100000 0.02448992
v -0.02954375 -0.03098787 0.04621729
v -0.00877476 -0.03098787 0.05421672
v 0.00562447 -0.03099317 0.05447609
v 0.01914671 -0.01523317 0.05212168
v 0.03022514 -0.03099393 0.04588110
v 0.03623291 -0.03099393 0.04125020
v 0.04270511 -0.03099393 0.03457103
v 0.04707365 -0.03099393 0.02825698
v 0.05145038 -0.01523317 0.02094773
v 0.05286831 -0.03099393 0.01505001
v 0.05483675 -0.03099393 0.00298296
v 0.05422614 -0.03099393 -0.00869001
v 0.02129410 -0.03099393 0.05055653
v 0.02583217 0.02286625 -0.09030472
v 0.02583275 0.02286625 -0.09152776
v 0.02583333 0.02286443 -0.09030472
v 0.03173782 0.02286534 -0.09030472
v 0.03173782 0.02286625 -0.09104142
v 0.03173782 0.02286625 -0.09152776
v 0.03173782 0.01352595 -0.09152776
v 0.03173782 0.01352595 -0.09030472
f 1 2 3
f 1 4 5
f 1 5 2
f 3 6 25
f 3 25 16
f 3 2 7
f 3 7 8
f 3 8 11
f 3 11 6
f 4 1 10
f 4 10 9
f 5 7 2
f 6 11 12
f 6 12 13
f 6 14 15
f 3 16 17
f 3 17 1
f 1 17 10
f 7 5 18
f 7 18 8
f 8 19 20
f 8 20 21
f 8 21 22
f 8 18 24
f 8 24 19
f 8 23 11
f 9 10 50
f 9 50 77
f 9 77 75
f 9 75 74
f 9 74 45
f 9 45 44
f 9 44 53
f 9 53 52
f 9 52 48
f 9 48 47
f 9 47 46
f 4 18 5
f 6 15 25
f 11 23 26
f 11 26 27
f 11 27 28
f 11 28 29
f 11 29 30
f 11 30 31
f 11 31 32
f 11 32 12
f 12 32 13
f 13 32 14
f 13 14 6
f 14 33 15
f 15 33 34
f 19 35 20
f 20 35 36
f 20 36 21
f 21 36 37
f 21 37 22
f 8 22 23
f 23 22 38
f 18 39 24
f 18 4 39
f 24 39 19
f 19 39 35
f 27 40 28
f 28 40 41
f 28 41 29
f 29 41 42
f 29 42 30
f 30 43 31
f 30 42 43
f 31 43 32
f 32 43 33
f 32 33 14
f 33 44 45
f 33 45 34
f 4 9 39
f 35 39 46
f 35 46 47
f 35 47 36
f 36 47 37
f 37 47 48
f 39 9 46
f 10 17 49
f 10 49 50
f 23 38 26
f 26 38 27
f 27 51 40
f 40 51 52
f 40 52 41
f 41 52 53
f 41 53 42
f 42 53 43
f 43 53 44
f 43 44 33
f 34 45 54
f 34 54 55
f 34 55 15
f 15 55 25
f 25 55 56
f 25 56 57
f 25 57 58
f 25 58 59
f 25 59 60
f 25 60 61
f 25 61 16
f 16 62 63
f 16 63 64
f 16 64 17
f 16 61 65
f 16 65 66
f 16 66 67
f 16 67 62
f 37 51 38
f 37 38 22
f 37 48 51
f 17 64 49
f 27 38 51
f 54 56 55
f 56 54 57
f 57 54 68
f 57 68 58
f 58 68 59
f 59 68 69
f 59 69 70
f 59 70 60
f 60 70 61
f 62 71 63
f 63 71 49
f 63 49 64
f 65 72 66
f 66 72 73
f 66 73 67
f 67 73 71
f 67 71 62
f 51 48 52
f 45 74 54
f 54 74 68
f 68 74 75
f 68 75 69
f 71 50 49
f 61 72 65
f 72 76 73
f 73 76 77
f 73 77 71
f 71 77 50
f 69 75 76
f 69 76 70
f 72 61 70
f 75 77 76
f 76 72 70
f 78 80 98
f 78 98 114
f 78 114 132
f 78 79 80
f 78 81 79
f 80 79 82
f 79 81 83
f 84 85 86
f 84 82 87
f 84 87 85
f 82 84 80
f 81 132 114
f 81 114 131
f 81 131 140
f 81 140 139
f 81 139 141
f 81 141 138
f 81 138 115
f 81 115 83
f 79 83 88
f 79 88 82
f 85 89 90
f 85 90 91
f 85 91 92
f 85 87 93
f 85 93 94
f 85 94 89
f 85 95 96
f 85 96 97
f 85 97 86
f 86 98 80
f 86 80 84
f 82 88 87
f 87 88 99
f 89 100 90
f 89 101 100
f 90 100 91
f 91 102 92
f 92 102 103
f 92 103 104
f 92 104 85
f 87 99 93
f 93 106 94
f 89 94 101
f 85 105 107
f 85 107 108
f 85 108 109
f 85 109 110
f 85 110 111
f 85 111 95
f 96 112 97
f 97 112 113
f 97 113 86
f 86 113 98
f 98 113 114
f 83 115 88
f 100 101 116
f 91 100 102
f 104 117 85
f 85 117 105
f 105 117 118
f 93 99 106
f 94 106 119
f 94 119 101
f 107 120 108
f 108 120 121
f 108 121 109
f 109 121 122
f 109 122 123
f 109 123 124
f 109 124 110
f 110 124 125
f 110 125 126
f 110 126 111
f 95 111 127
f 96 95 128
f 96 128 112
f 112 128 129
f 113 112 129
f 114 113 130
f 88 115 99
f 99 115 133
f 81 78 132
f 100 116 134
f 102 135 103
f 103 135 136
f 104 103 136
f 104 136 117
f 99 133 106
f 101 119 116
f 118 107 105
f 107 118 137
f 120 107 137
f 111 126 127
f 127 128 95
f 113 129 130
f 130 129 131
f 130 131 114
f 115 138 133
f 134 116 139
f 116 141 139
f 116 119 141
f 134 140 100
f 100 140 102
f 102 140 135
f 135 140 142
f 135 142 136
f 136 143 117
f 117 143 118
f 118 143 144
f 133 138 106
f 106 138 141
f 106 141 119
f 118 144 137
f 137 145 120
f 120 145 121
f 121 145 146
f 121 146 122
f 122 146 147
f 122 147 148
f 122 148 123
f 123 148 149
f 123 149 124
f 124 149 150
f 124 150 125
f 125 150 151
f 125 151 126
f 126 151 127
f 127 151 152
f 127 152 153
f 127 153 128
f 128 153 131
f 128 131 129
f 134 139 140
f 142 140 136
f 136 140 144
f 136 144 143
f 145 137 144
f 145 144 154
f 145 154 146
f 150 149 151
f 152 151 131
f 153 152 131
f 140 154 144
f 154 140 131
f 146 154 131
f 146 131 147
f 147 131 148
f 148 131 149
f 149 131 151
f 155 156 161
f 155 161 157
f 155 157 162
f 155 162 158
f 155 158 159
f 155 159 160
f 155 160 156
f 156 160 161
f 157 161 162
f 158 162 161
f 158 161 160
f 158 160 159

