# https://github.com/mikedh/trimesh
v 0.03846369 -0.02549412 -0.00076306
v 0.03693506 0.03399231 -0.00635661
v 0.03717980 0.03399231 0.00423591
v -0.00175124 -0.02550596 0.03840065
v 0.03628747 -0.02549412 -0.01275177
v 0.03613875 -0.02549412 0.01269671
v 0.02951784 -0.02549412 0.02465019
v 0.01962882 -0.02549412 0.03297005
v 0.01048436 -0.02549412 0.03683104
v -0.03846465 -0.02549412 -0.00075425
v 0.03048170 -0.02549412 -0.02345440
v 0.03381004 -0.02549412 -0.01833652
v 0.00316785 -0.01182763 0.04499840
v 0.03602580 -0.00005323 0.01263065
v 0.03393429 0.03399231 0.01547808
v 0.01249210 0.00001191 0.04499840
v 0.01127974 -0.00524682 0.04499840
v 0.00193478 -0.02549412 -0.03814189
v 0.01484151 -0.02549412 -0.03531318
v 0.02283480 -0.02549412 -0.03090660
v 0.01249210 0.00001191 -0.04499179
v 0.03147192 0.03398639 -0.02021718
v 0.03403124 0.03499313 0.01103626
v -0.00525654 -0.01126652 0.04499840
v 0.02896437 0.03399231 0.02367242
v -0.03752338 -0.02549412 -0.00832537
v -0.03538669 -0.02549412 -0.01485045
v -0.03047513 -0.02549412 -0.02344559
v -0.02276610 -0.02549412 -0.03079869
v -0.01192829 -0.02549412 -0.03639225
v 0.00053981 -0.01234433 -0.04499179
v 0.00702706 -0.01002883 -0.04499179
v 0.02761270 0.03399231 -0.02533066
v 0.03451788 0.03399231 -0.01457518
v -0.01040060 -0.02550596 0.03685251
v 0.01127974 0.00525584 0.04499840
v 0.02191612 0.03399231 0.03016887
v 0.01785358 0.03499313 0.03056967
v -0.03590062 0.03399231 -0.01051875
v -0.01249305 0.00001191 -0.04499179
v -0.00702614 -0.01002735 -0.04499179
v -0.03782458 0.00266053 0.00450678
v 0.01127974 0.00525880 -0.04499179
v 0.02691898 0.03499313 -0.02400715
v -0.02756094 0.03399231 -0.02529102
v -0.03715816 -0.02550596 0.00981625
v 0.01930691 0.03399231 -0.03203412
v 0.01154706 0.03399231 0.03558185
v -0.03256852 0.03399231 -0.01837615
v -0.02330169 0.03499313 -0.02687990
v -0.02111134 0.03399231 -0.03088018
v -0.01003821 0.00702800 -0.04499179
v 0.01049471 0.03399231 -0.03579326
v 0.01412426 0.03499313 -0.03344132
v -0.01127693 -0.00524682 0.04499840
v -0.03543940 0.03499313 -0.00663189
v 0.00077984 0.01162272 0.04499840
v -0.03728994 0.03399231 -0.00106916
v -0.01356987 0.03398935 -0.03486173
v -0.03409338 -0.02550596 0.01762301
v -0.03649927 0.03399231 0.00845970
v 0.00077984 0.01162420 -0.04499179
v -0.02158575 -0.02550596 0.03178528
v 0.00317349 0.03398935 0.03728634
v -0.03470521 0.03499313 0.01017301
v -0.00258804 0.03499313 -0.03600467
v -0.00514359 0.03499313 0.03581748
v -0.00425127 0.03398639 -0.03707052
v -0.03362274 0.03399231 0.01651971
v -0.01249305 0.00001191 0.04499840
v -0.02839868 -0.02550596 0.02570724
v -0.03020592 0.00346444 0.02324519
v -0.02221452 0.03499313 0.02798210
v -0.00530926 0.03398639 0.03703970
v -0.02674957 0.03399231 0.02598692
v -0.01003633 0.00702207 0.04499840
v -0.01745920 0.03399231 0.03307576
v 0.03839820 -0.03049756 -0.00227252
v 0.03836806 -0.02550516 -0.00227252
v 0.03827387 -0.03049756 0.00381221
v 0.03754295 -0.03049805 -0.00833841
v 0.03839443 -0.02550516 0.00228632
v 0.03752035 -0.02550467 -0.00833841
v 0.03718126 -0.03049756 0.00982158
v 0.03577971 -0.03049756 0.01418450
v 0.03380548 -0.03049756 0.01832513
v 0.03140928 -0.03049756 0.02224723
v 0.02851199 -0.03049756 0.02580011
v 0.02525301 -0.03049756 0.02903651
v 0.02160220 -0.03049756 0.03180949
v 0.01629364 -0.03049756 0.03483867
v 0.01057441 -0.03049756 0.03698245
v 0.00457637 -0.03049756 0.03818432
v -0.03793733 -0.03049805 0.00633275
v -0.03790719 -0.02550467 0.00633275
v 0.01346793 -0.02550565 0.03599910
v 0.01891777 -0.02550516 0.03345218
v 0.02285681 -0.02550516 0.03093540
v 0.02634938 -0.02550516 0.02796273
v 0.03044854 -0.02550516 0.02343781
v 0.03305196 -0.02550516 0.01965510
v 0.03512792 -0.02550516 0.01557853
v 0.03676682 -0.02550516 0.01130603
v 0.03782175 -0.02550516 0.00683385
v 0.00910504 -0.02550613 0.03737051
v 0.00319743 -0.02550613 0.03832749
v 0.00099714 -0.03049756 0.03847820
v -0.00099215 -0.02550613 0.03847066
v 0.03631471 -0.03049805 -0.01276161
v 0.03572319 -0.02550491 -0.01417071
v -0.00099215 -0.02750153 0.03847820
v 0.03450626 -0.03049805 -0.01698136
v -0.03839698 -0.02550467 0.00228632
v -0.03845726 -0.03049805 0.00076796
v 0.03302559 -0.02550516 -0.01965638
v 0.02744576 -0.02550491 -0.02689023
v 0.03138291 -0.03049805 -0.02222214
v 0.03048245 -0.02550516 -0.02346169
v -0.03837060 -0.02550467 -0.00223296
v -0.03809180 -0.03049805 -0.00532430
v 0.02853836 -0.03049805 -0.02582776
v 0.02527373 -0.03049805 -0.02896997
v 0.02283797 -0.02550467 -0.03090653
v 0.02162857 -0.03049805 -0.03184091
v -0.03784690 -0.02550516 -0.00684643
v 0.01765751 -0.02550467 -0.03413539
v 0.01766505 -0.03049805 -0.03416177
v -0.03628712 -0.02550516 -0.01273900
v -0.02949788 -0.02550467 -0.02463342
v -0.03448620 -0.02550516 -0.01696252
v -0.03676184 -0.03049805 -0.01130354
v -0.03224824 -0.02550516 -0.02095998
v -0.03450880 -0.03049805 -0.01698136
v 0.01202494 -0.03049780 -0.03653160
v 0.01347546 -0.02550467 -0.03603051
v -0.02854091 -0.03049805 -0.02582776
v -0.03138169 -0.03049805 -0.02222214
v -0.02637077 -0.02550467 -0.02799792
v -0.02527251 -0.03049805 -0.02898127
v 0.00304672 -0.03049780 -0.03834384
v 0.00759799 -0.03049756 -0.03773348
v 0.00758292 -0.02550467 -0.03771088
v -0.02283298 -0.02550467 -0.03090653
v -0.00012749 -0.02550516 -0.03846440
v 0.00450855 -0.02550467 -0.03820820
v -0.00126719 -0.03049805 -0.03847570
v -0.00593526 -0.02550516 -0.03797273
v -0.01030568 -0.02550516 -0.03705531
v -0.02031622 -0.03049805 -0.03265094
v -0.00608973 -0.03049756 -0.03797838
v -0.01202371 -0.03049780 -0.03653160
v -0.01628865 -0.02550467 -0.03483994
v -0.01900886 -0.02550467 -0.03343838
v -0.01630372 -0.03049805 -0.03487008
v -0.03794535 -0.03049854 0.00634613
v -0.03791641 -0.02550868 0.00634613
v -0.03594158 -0.03049854 0.00634613
v -0.02006330 -0.03049902 0.03048860
v -0.02006330 -0.03049902 0.03284182
v -0.03758004 -0.03049854 0.00835643
v -0.03755473 -0.02550868 0.00835328
v -0.03594158 -0.02550868 0.00634613
v -0.00099852 -0.02703192 0.03644085
v -0.00100576 -0.03049902 0.03648490
v -0.01768337 -0.03049902 0.03419775
v -0.02034542 -0.03049854 0.03268137
v -0.02287727 -0.03049854 0.03096050
v -0.02526443 -0.03049854 0.02904773
v -0.02749246 -0.03049854 0.02694934
v -0.02954325 -0.03049854 0.02468107
v -0.03140958 -0.03049854 0.02225864
v -0.03171340 -0.03049854 0.02179933
v -0.03308060 -0.03049854 0.01968835
v -0.03453821 -0.03049854 0.01700166
v -0.03578243 -0.03049854 0.01420486
v -0.03588732 -0.03049854 0.01390914
v -0.03679879 -0.03049854 0.01131682
v -0.03696155 -0.02550868 0.01059010
v -0.01392539 -0.02550868 0.03367551
v -0.00099852 -0.02550917 0.03644085
v -0.00099852 -0.02750140 0.03648490
v -0.00100576 -0.03049902 0.03848576
v -0.02006330 -0.02550868 0.03281350
v -0.01490919 -0.03049902 0.03549390
v -0.01490196 -0.02550868 0.03546873
v -0.01767252 -0.02550868 0.03417258
v -0.02033096 -0.02550868 0.03265935
v -0.02285918 -0.02550868 0.03094163
v -0.02747437 -0.02550868 0.02693047
v -0.02524635 -0.02550868 0.02902571
v -0.03139149 -0.02550868 0.02224291
v -0.02952155 -0.02550868 0.02466534
v -0.03305889 -0.02550868 0.01967577
v -0.03168085 -0.02550868 0.02179933
v -0.03451651 -0.02550868 0.01698908
v -0.03575711 -0.02550868 0.01419228
v -0.03587647 -0.02841886 0.01390914
v -0.03676985 -0.02550868 0.01131053
v -0.03585839 -0.02550868 0.01390914
v -0.01392539 -0.02550868 0.03583367
v -0.00099852 -0.02550917 0.03847317
v -0.00099852 -0.02750140 0.03848261
v -0.00306017 -0.03049902 0.03837565
v -0.01392539 -0.03049902 0.03586199
v -0.01203374 -0.02550917 0.03654153
v -0.01156716 -0.02550917 0.03667995
v -0.00909319 -0.02550917 0.03738151
v -0.00891234 -0.02550917 0.03742870
v -0.00863022 -0.02550917 0.03748848
v -0.00610561 -0.02550917 0.03798869
v -0.00579456 -0.02550917 0.03803588
v -0.00546180 -0.02550917 0.03807678
v -0.00306017 -0.02550917 0.03835363
v -0.00122277 -0.02550917 0.03846374
v -0.00104554 -0.02550917 0.03847317
v -0.00610200 -0.03049902 0.03801071
v -0.01204098 -0.03049902 0.03656669
v -0.00910404 -0.03049902 0.03740668
f 1 5 2
f 1 4 5
f 3 1 2
f 4 35 63
f 4 63 71
f 4 71 60
f 4 60 46
f 4 46 10
f 4 1 6
f 4 6 7
f 4 7 8
f 4 8 9
f 4 10 11
f 4 11 12
f 4 12 5
f 1 3 14
f 1 14 6
f 6 14 15
f 6 15 7
f 7 16 17
f 7 17 8
f 8 17 9
f 10 18 19
f 10 19 20
f 10 20 11
f 11 20 21
f 11 22 12
f 3 2 23
f 13 17 16
f 13 16 36
f 13 36 57
f 13 57 76
f 13 76 70
f 13 70 55
f 13 55 24
f 13 24 4
f 9 17 13
f 9 13 4
f 16 7 25
f 10 26 27
f 10 27 28
f 10 28 29
f 10 29 30
f 10 30 18
f 18 31 32
f 18 32 19
f 19 32 21
f 19 21 20
f 21 32 31
f 21 31 41
f 21 41 40
f 21 40 52
f 21 52 62
f 21 62 43
f 21 33 11
f 11 33 22
f 5 34 2
f 23 2 34
f 23 34 44
f 23 44 54
f 23 54 66
f 23 66 50
f 23 50 56
f 23 56 65
f 23 65 73
f 23 73 67
f 23 67 38
f 24 35 4
f 16 25 37
f 16 37 36
f 25 38 37
f 26 39 27
f 28 40 29
f 29 40 41
f 29 41 30
f 30 41 18
f 18 41 31
f 21 43 33
f 33 44 22
f 3 23 15
f 25 15 23
f 25 23 38
f 40 28 45
f 10 46 42
f 43 47 33
f 33 47 44
f 5 12 34
f 34 22 44
f 3 15 14
f 15 25 7
f 36 37 48
f 37 38 48
f 28 49 45
f 45 49 50
f 45 50 51
f 45 51 40
f 40 51 52
f 43 53 47
f 47 53 54
f 47 54 44
f 22 34 12
f 24 55 35
f 27 49 28
f 50 49 56
f 36 48 57
f 26 10 58
f 39 56 49
f 39 49 27
f 51 50 59
f 51 59 52
f 42 61 58
f 42 58 10
f 42 46 61
f 43 62 53
f 55 63 35
f 57 48 64
f 38 64 48
f 58 56 39
f 26 58 39
f 58 61 65
f 58 65 56
f 54 53 66
f 64 38 67
f 50 66 59
f 59 66 68
f 59 68 52
f 52 68 62
f 46 60 69
f 61 46 69
f 61 69 65
f 53 68 66
f 53 62 68
f 55 70 71
f 55 71 63
f 60 72 69
f 60 71 72
f 65 69 73
f 57 64 74
f 64 67 74
f 73 69 75
f 70 75 72
f 70 72 71
f 69 72 75
f 70 76 75
f 67 77 74
f 76 77 75
f 75 77 73
f 74 77 76
f 74 76 57
f 77 67 73
f 78 79 82
f 78 82 80
f 78 80 81
f 79 83 82
f 81 83 78
f 81 80 84
f 81 84 85
f 81 85 86
f 81 86 87
f 81 87 88
f 81 88 89
f 81 89 90
f 81 90 91
f 81 91 92
f 81 92 93
f 81 93 94
f 81 94 114
f 81 114 120
f 81 120 131
f 81 131 133
f 81 133 137
f 81 137 136
f 81 136 139
f 81 139 149
f 81 149 154
f 81 154 151
f 81 151 146
f 81 146 140
f 81 140 134
f 81 134 127
f 81 127 124
f 81 124 122
f 81 122 121
f 81 121 117
f 81 117 112
f 81 112 109
f 78 83 79
f 83 110 116
f 83 116 123
f 83 123 126
f 83 126 135
f 83 135 142
f 83 142 145
f 83 145 148
f 83 148 152
f 83 152 153
f 83 153 143
f 83 143 138
f 83 138 129
f 83 129 125
f 83 125 119
f 83 119 113
f 83 113 95
f 83 95 96
f 83 96 97
f 83 97 98
f 83 98 99
f 83 99 100
f 83 100 101
f 83 101 102
f 83 102 103
f 83 103 104
f 83 104 82
f 82 104 80
f 80 104 84
f 84 104 103
f 84 103 85
f 85 103 102
f 85 102 86
f 86 102 101
f 86 101 87
f 87 101 100
f 87 100 88
f 88 100 99
f 88 99 89
f 89 99 98
f 89 98 90
f 90 98 97
f 90 97 91
f 91 96 92
f 91 97 96
f 92 96 105
f 92 105 93
f 93 105 106
f 94 93 107
f 96 108 106
f 96 106 105
f 96 95 108
f 81 109 83
f 83 109 110
f 93 106 107
f 94 111 108
f 94 108 95
f 94 107 111
f 107 106 111
f 108 111 106
f 109 112 110
f 95 113 114
f 95 114 94
f 110 115 116
f 112 115 110
f 115 117 118
f 115 118 116
f 115 112 117
f 113 119 114
f 114 119 120
f 118 117 121
f 118 121 116
f 116 121 122
f 116 122 123
f 120 119 125
f 122 124 123
f 124 126 123
f 124 127 126
f 125 129 130
f 125 130 128
f 120 125 131
f 128 131 125
f 129 132 130
f 130 133 128
f 128 133 131
f 127 134 135
f 127 135 126
f 129 136 137
f 129 137 132
f 132 137 133
f 132 133 130
f 129 138 136
f 136 138 139
f 134 140 141
f 135 134 142
f 134 141 142
f 141 140 142
f 138 143 139
f 140 144 145
f 140 145 142
f 140 146 144
f 145 144 147
f 145 147 148
f 143 149 139
f 144 146 147
f 147 146 150
f 148 151 152
f 143 153 149
f 148 147 150
f 148 150 151
f 151 154 152
f 153 152 154
f 153 154 149
f 146 151 150
f 155 156 162
f 155 162 157
f 155 157 158
f 155 158 159
f 155 159 160
f 155 160 161
f 155 161 156
f 156 161 178
f 156 178 198
f 156 198 199
f 156 199 196
f 156 196 195
f 156 195 193
f 156 193 194
f 156 194 191
f 156 191 192
f 156 192 189
f 156 189 190
f 156 190 188
f 156 188 187
f 156 187 183
f 156 183 186
f 156 186 185
f 156 185 200
f 156 200 179
f 156 179 162
f 157 162 180
f 157 180 163
f 157 163 164
f 157 164 158
f 158 164 182
f 158 182 203
f 158 203 216
f 158 216 218
f 158 218 217
f 158 217 204
f 158 204 184
f 158 184 165
f 158 165 159
f 159 165 166
f 159 166 167
f 159 167 168
f 159 168 169
f 159 169 170
f 159 170 171
f 159 171 172
f 159 172 173
f 159 173 174
f 159 174 175
f 159 175 176
f 159 176 177
f 159 177 160
f 160 177 161
f 161 177 178
f 162 179 180
f 163 180 201
f 163 201 202
f 163 202 181
f 163 181 164
f 164 181 202
f 164 202 182
f 165 183 166
f 165 184 185
f 165 185 186
f 165 186 183
f 166 187 188
f 166 188 167
f 166 183 187
f 167 188 168
f 168 189 169
f 168 188 190
f 168 190 189
f 169 189 170
f 170 191 171
f 170 189 192
f 170 192 191
f 171 191 172
f 172 193 173
f 172 191 194
f 172 194 193
f 173 193 195
f 173 195 174
f 174 195 175
f 175 195 196
f 175 196 197
f 175 197 176
f 176 197 177
f 177 198 178
f 177 197 199
f 177 199 198
f 179 200 201
f 179 201 180
f 182 202 203
f 184 204 185
f 185 204 205
f 185 205 200
f 196 199 197
f 200 205 206
f 200 206 207
f 200 207 208
f 200 208 209
f 200 209 210
f 200 210 211
f 200 211 212
f 200 212 213
f 200 213 214
f 200 214 215
f 200 215 201
f 201 215 202
f 202 215 214
f 202 214 203
f 203 214 213
f 203 213 212
f 203 212 216
f 204 217 205
f 205 217 206
f 206 217 218
f 206 218 207
f 207 218 208
f 208 218 209
f 209 218 216
f 209 216 210
f 210 216 211
f 211 216 212

