# https://github.com/mikedh/trimesh
v 0.01874009 -0.03268365 -0.19882087
v -0.03489454 -0.01561935 -0.19862914
v -0.02601707 -0.03268365 -0.19247726
v 0.02946437 -0.02617070 -0.19814160
v 0.03660729 -0.01462726 -0.19809777
v 0.02839239 -0.03267461 -0.17888063
v -0.03816994 0.00287998 -0.19845384
v 0.03761104 0.00478787 -0.19851959
v 0.03318441 -0.02547918 -0.19162814
v -0.03773630 -0.01792668 -0.19176510
v -0.02838997 -0.03267461 -0.17888063
v -0.03598854 -0.02546109 -0.17118938
v -0.04207268 -0.00243751 -0.19143641
v -0.03326344 0.02110134 -0.19804299
v 0.04207509 0.00000768 -0.19143641
v 0.03990910 -0.01345665 -0.19163363
v 0.03326146 0.02110134 -0.19804299
v 0.03599976 -0.02546109 -0.17118938
v -0.00833697 0.03963682 0.02263647
v -0.03833943 0.01279404 -0.06208770
v -0.04479337 0.01279404 -0.07415047
v 0.01050537 0.03320521 -0.19919337
v 0.04256816 -0.01098887 -0.15714355
v 0.04479579 0.01279404 -0.07413951
v 0.03783556 0.01279404 -0.06193432
v 0.00996387 0.03944247 0.02179284
v -0.02227942 0.03973173 0.01258965
v -0.04255694 -0.01098887 -0.15714355
v -0.02670935 0.04968422 0.00124999
v -0.04061328 0.01043699 -0.19129398
v 0.04437260 0.01682255 -0.12255214
v 0.02666664 0.04898817 0.00389044
v 0.02556163 0.03976337 0.00598307
v 0.01709358 0.03961874 0.01770618
v -0.04347705 0.02877135 -0.07289050
v -0.04468771 0.01279404 -0.12157978
v -0.04313036 0.02658831 -0.12651554
v 0.04067072 0.01060648 -0.19093242
v 0.04340682 0.02883688 -0.07289324
v 0.01288144 0.04830089 0.02055856
v -0.01497664 0.05038421 0.01859226
v -0.03998153 0.04132720 -0.06846420
v -0.03665330 0.02015897 -0.19234577
v -0.01495050 0.03767073 -0.19551758
v 0.04152451 0.03462647 -0.11937442
v 0.01148711 0.03777016 -0.19816351
v 0.03665351 0.02016123 -0.19234030
v 0.03900661 0.04312380 -0.06735763
v -0.00431619 0.04983647 0.02359855
v -0.02731358 0.03122783 -0.19267994
v 0.03067284 0.02841428 -0.19244438
v 0.02203530 0.05310114 0.00774701
v -0.01818077 0.05423108 0.00951644
v -0.03824037 0.04050687 -0.12681136
v -0.03107104 0.04766389 -0.13058576
v 0.01305877 0.03981309 -0.19236769
v 0.03538342 0.04424244 -0.12911764
v 0.00374436 0.05387430 0.01897436
v -0.02202187 0.05441187 -0.00510870
v -0.03613932 0.04703112 -0.06403516
v -0.02787158 0.05231781 -0.11476435
v -0.00246855 0.04209104 -0.19145831
v 0.02615266 0.05058958 -0.12922721
v 0.03416285 0.04906388 -0.06209318
v 0.02459750 0.05331809 -0.00643029
v -0.03265151 0.05054297 -0.10053296
v -0.02164299 0.05196640 -0.13065493
v 0.01243445 0.05444210 -0.12562124
v 0.03124515 0.05109889 -0.10990049
v 0.01082455 0.05825817 -0.00282571
v -0.02733779 0.05328306 -0.06787805
v -0.00440836 0.05439605 -0.12869856
v -0.00615970 0.05766898 0.00718551
v -0.00221431 0.05630169 -0.11174934
v -0.01446513 0.05702654 -0.05238053
v 0.02323275 0.05444803 -0.11051404
v 0.00109741 0.05966382 -0.00423906
v 0.04456757 -0.01835689 -0.07433120
v 0.04474234 0.01278336 -0.11935060
v 0.04460960 0.01278336 -0.07316168
v 0.04454102 -0.01280704 -0.12157460
v 0.02513388 -0.04016761 0.00738955
v 0.02667149 -0.04898214 0.00390019
v 0.03888392 0.01278336 -0.06287435
v 0.04187065 -0.03589508 -0.07068571
v 0.01722014 -0.03922269 0.01786861
v 0.02553432 -0.05210587 -0.00218019
v 0.03621577 0.01278336 -0.06081469
v 0.04297160 -0.02869450 -0.12035920
v 0.01735067 -0.04931011 0.01768921
v 0.00995463 -0.03891244 0.02202079
v 0.02937504 -0.05230486 -0.05589014
v 0.03683966 -0.04640621 -0.06515312
v 0.01218064 -0.05707949 0.00381203
v 0.03760958 -0.04538328 -0.10608334
v 0.04327774 0.00020688 -0.15684076
v 0.04243260 0.01278336 -0.15570137
v -0.00000116 -0.03893372 0.02403663
v 0.03214717 -0.05033037 -0.11020540
v 0.01357411 -0.05306142 0.01717841
v 0.04160959 -0.01100096 -0.16965884
v 0.00913383 -0.04963808 0.02243710
v 0.02603432 -0.03268625 -0.19244653
v 0.02090156 -0.03268625 -0.19853786
v -0.03618711 0.01278336 -0.06082565
v -0.00098457 -0.04933315 0.02401745
v -0.04243491 0.01278336 -0.15570137
v 0.03318479 -0.04647889 -0.12921067
v 0.01655531 -0.03823256 -0.19252871
v 0.03491046 -0.02546728 -0.17695528
v 0.00471125 -0.05305965 0.02108956
v 0.02434737 -0.05452755 -0.08173994
v 0.03919587 -0.03754371 -0.12945631
v -0.04159420 -0.01100096 -0.16965884
v -0.02091272 -0.03268625 -0.19853786
v 0.02646795 -0.05090389 -0.12916684
v -0.01329323 -0.04873393 0.02125390
v 0.01742810 -0.05558771 -0.10828542
v -0.03714729 -0.02187020 -0.17373160
v -0.04313403 0.00027336 -0.15681884
v -0.02603663 -0.03268625 -0.19244653
v -0.00000116 -0.03801539 -0.19835162
v -0.01705873 -0.03933083 0.01830683
v -0.01216214 -0.05303837 0.01769743
v 0.01019467 -0.05845969 -0.00810170
v -0.04402397 -0.01587271 -0.13144150
v -0.04478669 0.01278336 -0.11809618
v -0.03062127 -0.04774425 -0.13155517
v -0.03825349 -0.03832918 -0.13343406
v -0.01654877 -0.03823079 -0.19253144
v 0.01803540 -0.05301356 -0.13045686
v 0.00030913 -0.04175607 -0.19210143
v -0.02241715 -0.03939465 0.01275233
v -0.02103662 -0.04803189 0.01468052
v -0.04208093 -0.03546960 -0.11107910
v -0.03864840 -0.04329200 -0.11092504
v -0.02549017 -0.05206066 -0.12456274
v -0.00193147 -0.05432722 -0.12986252
v -0.04478448 0.01278336 -0.07413673
v -0.00401555 -0.05782679 0.00860563
v 0.00028203 -0.05954423 -0.00550864
v -0.04483979 -0.01057682 -0.07419151
v -0.01717156 -0.05314917 -0.13068968
v -0.02682867 -0.04839710 0.00317712
v -0.04331102 -0.02989227 -0.07289875
v -0.03215501 -0.05047442 -0.10798414
v -0.02547468 -0.05206332 -0.00076691
v 0.00828869 -0.05634116 -0.11049846
v -0.00744919 -0.05605485 -0.11492179
v -0.02186516 -0.05473763 -0.10110675
v -0.03975349 -0.04189080 -0.06847268
v -0.00829322 -0.05887543 -0.00640632
v -0.03579662 -0.04749472 -0.06404661
v -0.02834637 -0.05294619 -0.05519446
v 0.01180345 0.01661121 -0.05985449
v 0.00996183 0.01661594 -0.05984421
v 0.01180345 0.01482768 -0.06010118
v 0.01180345 0.01661594 -0.06159166
v -0.00110578 0.01661594 -0.05983393
v 0.00596768 0.01482768 -0.06009091
v 0.01180345 0.01482768 -0.09214106
v 0.01180345 0.01661594 -0.09214106
v -0.00775074 0.01661594 -0.05984421
v -0.00855794 0.01661121 -0.05984421
v -0.00775074 0.01482768 -0.06009091
v 0.01169183 0.01482768 -0.16484496
v 0.01169183 0.01661594 -0.16484496
v -0.00855794 0.01661594 -0.06061514
v -0.00855794 0.01580530 -0.05995728
v -0.00855794 0.01482768 -0.06010118
v -0.00855794 0.01482768 -0.16484496
v -0.00855794 0.01661594 -0.16484496
f 1 6 3
f 1 2 22
f 1 22 8
f 1 3 2
f 1 5 4
f 1 8 5
f 4 9 6
f 4 6 1
f 3 10 2
f 4 5 9
f 3 11 12
f 3 12 10
f 2 13 7
f 2 7 14
f 8 15 5
f 9 5 16
f 9 18 6
f 3 6 11
f 11 19 20
f 11 20 21
f 11 21 12
f 14 22 2
f 5 15 16
f 8 22 17
f 18 23 24
f 18 24 6
f 6 24 25
f 6 25 26
f 6 26 11
f 11 26 19
f 20 19 27
f 20 27 21
f 12 21 28
f 21 27 29
f 2 10 13
f 13 10 28
f 7 13 30
f 15 31 23
f 15 23 16
f 16 23 18
f 16 18 9
f 24 32 33
f 24 33 25
f 25 33 34
f 25 34 26
f 29 35 21
f 12 28 10
f 28 21 36
f 28 36 13
f 13 36 37
f 13 37 30
f 15 38 31
f 23 31 24
f 24 39 32
f 26 34 40
f 19 41 27
f 29 42 35
f 7 30 14
f 14 30 43
f 38 45 31
f 17 47 8
f 32 39 48
f 33 32 34
f 26 40 49
f 26 49 19
f 19 49 41
f 43 50 14
f 22 14 44
f 8 47 38
f 8 38 15
f 22 46 17
f 17 51 47
f 24 31 39
f 32 40 34
f 29 27 41
f 29 41 53
f 35 37 21
f 30 37 54
f 30 54 43
f 43 54 50
f 50 54 55
f 14 50 44
f 38 47 45
f 22 44 46
f 46 56 17
f 17 56 51
f 51 57 47
f 47 57 45
f 48 39 45
f 40 58 49
f 29 53 59
f 29 60 42
f 46 44 62
f 46 62 56
f 51 63 57
f 51 56 63
f 48 64 32
f 52 32 65
f 21 37 36
f 59 60 29
f 42 37 35
f 55 54 61
f 50 55 44
f 44 55 67
f 56 62 68
f 56 68 63
f 57 63 69
f 64 48 69
f 32 64 65
f 32 52 40
f 31 45 39
f 59 71 60
f 60 71 66
f 60 54 42
f 37 42 54
f 62 67 72
f 62 44 67
f 62 72 68
f 52 65 70
f 49 58 41
f 61 67 55
f 52 58 40
f 58 73 41
f 41 73 53
f 60 66 54
f 45 57 48
f 66 61 54
f 67 61 74
f 67 74 72
f 57 69 48
f 64 69 65
f 53 73 59
f 59 73 75
f 66 71 61
f 63 76 69
f 52 70 58
f 72 74 68
f 61 75 74
f 68 76 63
f 69 76 65
f 70 73 58
f 59 75 71
f 65 76 70
f 75 73 77
f 71 75 61
f 68 74 76
f 77 73 70
f 77 74 75
f 74 77 76
f 70 76 77
f 78 81 79
f 78 79 80
f 80 82 83
f 80 79 97
f 80 97 107
f 80 107 127
f 80 127 139
f 80 139 105
f 80 105 88
f 80 88 84
f 80 83 78
f 82 80 84
f 83 85 78
f 82 84 86
f 82 86 83
f 84 88 86
f 83 87 85
f 85 89 78
f 86 90 83
f 88 91 86
f 83 90 87
f 87 92 93
f 87 93 85
f 81 78 89
f 81 96 79
f 79 96 97
f 88 98 91
f 86 91 90
f 92 99 93
f 93 95 85
f 85 95 89
f 91 102 90
f 93 99 95
f 100 87 90
f 101 97 96
f 101 103 104
f 101 104 97
f 98 88 105
f 98 106 102
f 98 102 91
f 87 94 92
f 87 100 94
f 81 89 101
f 97 104 115
f 97 115 107
f 96 81 101
f 103 101 110
f 99 92 112
f 90 102 100
f 107 115 114
f 103 110 108
f 103 108 109
f 109 104 103
f 102 106 111
f 112 118 99
f 102 111 100
f 114 120 107
f 114 115 121
f 114 121 119
f 101 89 113
f 116 109 108
f 104 109 122
f 101 113 110
f 98 105 123
f 94 125 92
f 95 113 89
f 120 127 107
f 121 128 129
f 115 104 122
f 115 130 121
f 110 113 108
f 109 116 131
f 122 109 132
f 98 117 106
f 98 123 117
f 106 124 111
f 106 117 124
f 95 99 113
f 114 126 120
f 119 121 129
f 115 122 130
f 108 113 99
f 108 99 116
f 109 131 132
f 105 133 123
f 123 134 117
f 112 92 125
f 100 111 94
f 114 135 126
f 126 127 120
f 121 130 128
f 122 132 130
f 130 137 128
f 131 138 132
f 105 139 133
f 123 133 134
f 117 134 124
f 112 125 118
f 118 116 99
f 125 94 141
f 119 129 114
f 128 136 129
f 116 118 131
f 132 138 143
f 133 139 144
f 133 144 134
f 124 140 111
f 125 141 118
f 114 129 135
f 135 145 126
f 126 142 127
f 128 137 146
f 132 143 130
f 130 143 137
f 134 144 147
f 124 134 147
f 118 148 131
f 111 140 94
f 126 145 142
f 128 146 136
f 143 138 149
f 131 148 138
f 144 139 142
f 141 148 118
f 140 141 94
f 141 149 148
f 127 142 139
f 129 136 135
f 143 149 150
f 144 142 145
f 145 151 144
f 147 152 124
f 124 152 140
f 141 152 150
f 141 150 149
f 146 153 136
f 143 150 137
f 138 148 149
f 145 135 151
f 144 151 147
f 141 140 152
f 137 150 146
f 151 153 147
f 136 151 135
f 151 136 153
f 153 146 154
f 152 147 154
f 153 154 147
f 152 154 150
f 150 154 146
f 155 156 157
f 155 157 161
f 155 161 162
f 155 162 158
f 155 158 156
f 156 158 162
f 156 162 167
f 156 167 172
f 156 172 168
f 156 168 163
f 156 163 159
f 156 159 160
f 156 160 157
f 157 160 165
f 157 165 170
f 157 170 171
f 157 171 166
f 157 166 161
f 159 163 164
f 159 164 165
f 159 165 160
f 161 166 167
f 161 167 162
f 163 168 164
f 164 168 172
f 164 172 171
f 164 171 170
f 164 170 169
f 164 169 165
f 165 169 170
f 166 171 172
f 166 172 167

