# https://github.com/mikedh/trimesh
v -0.03669991 -0.00497468 -0.03876249
v -0.03606629 0.00248427 -0.04206479
v -0.03521836 -0.00461942 -0.03544727
v -0.03466870 0.00906212 -0.03542367
v -0.01394155 -0.05133941 -0.03174983
v -0.03475606 -0.01253028 -0.03661980
v -0.03455676 0.01216678 -0.03971693
v -0.03398070 -0.00547723 -0.04672285
v -0.01132609 0.03233546 -0.03528371
v -0.02603238 0.02403686 -0.03541636
v -0.01896499 -0.05133941 -0.03378910
v -0.03334367 0.00643672 -0.04744120
v 0.01466293 -0.05133941 -0.03184426
v 0.00732434 0.03366983 -0.03527528
v -0.00643824 0.03571469 -0.03601752
v -0.03334003 -0.01379533 -0.04343011
v 0.03200835 0.01471366 -0.03542086
v 0.00141452 0.03704905 -0.03669512
v -0.02136750 0.03036858 -0.03672772
v -0.02714901 0.02515785 -0.03696633
v -0.02881905 -0.00164256 -0.04999275
v -0.01937269 -0.05133941 -0.03665690
v 0.03525539 -0.00472340 -0.03543716
v 0.02135357 0.03035992 -0.03672772
v -0.02924484 -0.01752981 -0.04735576
v 0.03600891 0.00906212 -0.03674346
v -0.00913470 0.03588799 -0.03809585
v -0.02400299 -0.00962761 -0.05142307
v 0.01886733 -0.05133941 -0.03399146
v 0.03540099 -0.01051574 -0.03664565
v 0.03706728 -0.00114163 -0.03809585
v 0.03072155 0.02075728 -0.03739549
v 0.00761464 0.03617609 -0.03829989
v -0.00404756 0.03566270 -0.04344360
v -0.02869585 0.02046241 -0.04476627
v -0.02400424 0.00631108 -0.05173271
v -0.02589770 0.02026556 -0.04803983
v -0.01732327 -0.05133941 -0.03885693
v 0.00706339 0.03500311 -0.04335423
v -0.02261198 0.02694332 -0.04494664
v 0.03532091 0.00193974 -0.04467683
v -0.01303378 0.03275164 -0.04468920
v -0.02223477 -0.02349761 -0.04834982
v 0.03361731 -0.01241981 -0.04367293
v 0.01877814 -0.05133941 -0.03772487
v 0.03386120 0.01186623 -0.04273867
v 0.02623709 0.02384691 -0.04397534
v 0.01885595 0.03152207 -0.03933752
v 0.00359862 0.03364383 -0.04735970
v -0.00699246 0.03310229 -0.04750753
v -0.01849905 0.00102995 -0.05405366
v -0.00791433 -0.05133941 -0.04199565
v 0.01481900 0.03028897 -0.04744457
v -0.01607105 -0.00848387 -0.05410874
v -0.01606286 0.02812443 -0.04826551
v -0.01778648 0.01891603 -0.05135112
v 0.02927458 -0.01681714 -0.04733258
v 0.03342893 -0.00509815 -0.04750781
v 0.03242242 0.00843501 -0.04749797
v 0.02876496 0.01783078 -0.04749966
v -0.01140207 -0.02001386 -0.05240265
v -0.00382369 0.02552718 -0.05136517
v -0.00816824 0.01641844 -0.05410987
v 0.01250795 -0.05133941 -0.04093217
v 0.02535048 0.00511102 -0.05142756
v 0.01898927 0.02498239 -0.04886442
v 0.00994629 0.02279876 -0.05172273
v -0.00200178 0.00149243 -0.05462334
v 0.00541689 -0.01767711 -0.05409413
v 0.01606622 -0.01504304 -0.05277040
v 0.02400361 -0.00964494 -0.05142307
v 0.02163022 0.01157812 -0.05190618
v 0.00948660 0.01575992 -0.05410987
v -0.00067312 -0.02028409 -0.05344154
v 0.01329240 -0.02115381 -0.05168894
v 0.01772386 -0.00237744 -0.05405886
v 0.00232820 -0.05133941 -0.04288263
v -0.00231774 -0.05133276 -0.04287975
v 0.00331722 -0.06899134 -0.04139494
v -0.00549659 -0.06916193 -0.04117339
v 0.00576721 -0.05133928 -0.04249166
v -0.00028017 -0.09234779 -0.03809536
v -0.00729529 -0.09184363 -0.03729088
v 0.00764553 -0.09184200 -0.03723432
v 0.01141033 -0.09367337 -0.03476435
v -0.00944311 -0.09367337 -0.03543055
v -0.01071710 -0.05133276 -0.04142008
v 0.00598362 -0.09572478 -0.02940330
v 0.01259960 -0.06916410 -0.03947647
v 0.01500364 -0.09203052 -0.03491204
v -0.01490657 -0.09245210 -0.03485547
v -0.01574875 -0.06928471 -0.03838564
v 0.02071211 -0.09367120 -0.03010093
v -0.02070895 -0.09367555 -0.03010093
v 0.02999346 -0.09568566 -0.00541374
v -0.02833248 -0.09570196 0.00878390
v -0.02138270 -0.09237386 -0.03145847
v 0.01806204 -0.05133276 -0.03840646
v 0.02137768 -0.09237386 -0.03145219
v -0.02765669 -0.09564275 -0.01224939
v -0.01792005 -0.05133276 -0.03849130
v 0.03602859 -0.09368207 -0.00642562
v 0.02865414 -0.09571174 0.00883418
v 0.02144098 -0.06883813 -0.03561281
v 0.03099999 -0.09366577 -0.01910388
v 0.03651042 -0.09280413 0.00884046
v 0.03174111 -0.07301157 0.02122177
v -0.03174612 -0.07301157 0.02122805
v 0.02734237 -0.06875230 -0.03131549
v -0.03603768 -0.09316270 0.00878390
v -0.03733209 -0.09229563 -0.00741864
v -0.03333045 -0.09366468 -0.01543191
v -0.02635004 -0.06869145 -0.03210582
v 0.04000981 -0.09099829 -0.00031667
v -0.02733615 -0.05663511 0.02122805
v 0.03581626 -0.06900004 0.02122177
v 0.03197794 -0.09231737 -0.02076153
v -0.03787619 -0.09218644 -0.00019647
v -0.03471060 -0.09239994 -0.01553876
v -0.03057830 -0.09198705 -0.02264701
v -0.01957787 -0.05133276 -0.03606532
v 0.04000624 -0.08719714 -0.00626869
v 0.03481993 -0.06153762 0.02122177
v 0.02733523 -0.05663294 0.02122177
v -0.03578043 -0.06917388 0.02122805
v 0.03598775 -0.06966066 -0.02074896
v -0.03700849 -0.06952430 -0.01877157
v -0.02704216 -0.05966876 -0.03176643
v 0.04153211 -0.06837635 0.00080205
v 0.04002002 -0.08739965 0.00627307
v -0.01393474 -0.05133276 -0.03172872
v 0.03953308 -0.06358957 0.01187923
v 0.03291302 -0.05800851 0.00622594
v 0.01955653 -0.05133276 -0.03615960
v 0.01398690 -0.05133276 -0.03174758
v -0.03718100 -0.09200009 0.00803285
v 0.03217190 -0.06919236 -0.02630326
v 0.04000419 -0.06749190 -0.01121552
v -0.04066407 -0.06960307 -0.00778473
v -0.03333861 -0.06968673 -0.02477131
v -0.03535577 -0.06228951 -0.02147173
v -0.03933699 -0.06968456 0.01327762
v -0.04147358 -0.06933252 0.00242120
v 0.03939731 -0.06833072 0.01343160
v 0.03668600 -0.06295882 -0.01946684
v -0.04003523 -0.06422792 -0.01154783
v -0.04001074 -0.06298490 -0.00885160
v -0.03411648 -0.05850153 -0.00338587
v -0.03287312 -0.05813890 0.00923956
v 0.04143488 -0.06446261 0.00149339
v -0.03484127 -0.06155066 0.02122805
v 0.04034464 -0.06274477 -0.00241741
v 0.03935240 -0.06297186 -0.01152583
v -0.04068856 -0.06363683 0.00670359
v -0.03901636 0.00034925 0.03725855
v -0.03866504 0.00071850 0.03255919
v -0.03717575 -0.07299855 0.00879708
v -0.03703828 -0.09164541 0.00879273
v -0.03808078 0.00797152 0.03687799
v -0.03611797 0.00802426 0.02568955
v -0.03308019 0.01649381 0.02573631
v -0.02707338 0.02408970 0.02523940
v -0.01148260 0.03331752 0.02482459
v 0.00466954 0.03500549 0.02477186
v -0.02864478 -0.09572028 0.00879273
v -0.02021691 0.03080204 0.02568520
v -0.00619847 0.03637698 0.02580263
v -0.03473178 -0.09241027 0.01543838
v -0.03734377 -0.00453005 0.04863182
v -0.03470887 0.01445967 0.04865792
v 0.03716666 -0.07299855 0.00885797
v 0.02866624 -0.09572028 0.00885797
v 0.00599463 -0.09562798 0.02991484
v -0.03497809 0.01664547 0.03481210
v -0.03599959 -0.01100502 0.04861008
v 0.03701391 -0.09165860 0.00886232
v 0.01664880 0.03165592 0.02484797
v 0.02548383 0.02564993 0.02525626
v 0.03306729 0.01648722 0.02573631
v 0.03560577 0.00932322 0.02553026
v 0.03867887 0.00120643 0.03253961
v -0.01369840 -0.09564611 0.02596260
v -0.03010734 0.02445235 0.03465987
v -0.02028183 0.03297300 0.03600352
v -0.01018806 0.03738251 0.03450221
v 0.00348431 0.03854794 0.03470038
v 0.03900727 -0.00098267 0.03722810
v 0.03685878 0.01137054 0.03588772
v 0.03473797 -0.09241027 0.01543838
v 0.00973314 0.03574399 0.02570695
v -0.02998132 -0.09213334 0.02326920
v -0.03036737 0.00132614 0.05101732
v 0.03735759 -0.00454324 0.04863182
v -0.01069690 -0.09233115 0.03658441
v -0.02335970 -0.09217290 0.02994094
v -0.02399361 0.02900527 0.04860138
v -0.01413755 0.03472527 0.04866445
v -0.02998896 -0.02098781 0.04931466
v -0.02502346 -0.00867519 0.05178442
v -0.03034219 0.02203248 0.04861334
v 0.03601342 -0.01101821 0.04861008
v 0.01479387 0.03573574 0.03602825
v 0.02362174 0.03062566 0.03475991
v 0.03199615 0.02234568 0.03655832
v 0.03733468 0.00501756 0.04859268
v 0.02268234 -0.09464222 0.02460876
v -0.00678655 0.03699678 0.04861877
v -0.01731088 -0.09218609 0.03390093
v 0.02999133 -0.09212674 0.02326920
v 0.01069545 -0.09234434 0.03658876
v 0.00674691 0.03700997 0.04861877
v 0.03176321 -0.01885147 0.04904718
v 0.03472270 0.01445967 0.04865792
v 0.02336207 -0.09216630 0.02994311
v 0.01731707 -0.09219927 0.03390093
v -0.00000073 -0.08498581 0.03999857
v -0.02338261 -0.02611685 0.04983385
v -0.02434397 0.01437066 0.05158034
v 0.01201672 0.03566486 0.04860138
v 0.02401507 0.02901846 0.04860138
v -0.00151866 -0.02846172 0.05154528
v -0.01229693 -0.02662539 0.05141317
v 0.02525686 -0.00979879 0.05177905
v 0.01781350 -0.02650670 0.05064933
v -0.01398862 0.02432378 0.05168935
v 0.02433011 0.01132274 0.05185843
v 0.00973743 -0.01619855 0.05244819
v -0.01166494 -0.01295674 0.05262226
v 0.00564713 0.02632166 0.05185027
v -0.01226304 0.01045856 0.05265637
v 0.00238196 0.00885774 0.05294356
f 3 4 1
f 1 4 2
f 3 1 6
f 4 3 5
f 5 11 22
f 5 22 38
f 5 38 52
f 5 52 77
f 5 77 64
f 5 64 45
f 5 45 29
f 5 29 13
f 2 4 7
f 2 8 1
f 5 9 10
f 5 10 4
f 3 11 5
f 2 12 8
f 5 13 14
f 5 14 9
f 9 15 10
f 2 7 12
f 14 15 9
f 6 11 3
f 8 16 1
f 1 16 6
f 13 17 14
f 14 18 15
f 15 19 10
f 4 20 7
f 11 6 22
f 13 23 17
f 17 24 14
f 14 24 18
f 10 19 20
f 10 20 4
f 8 12 21
f 6 16 22
f 17 23 26
f 8 21 28
f 8 28 25
f 8 25 16
f 22 16 25
f 13 29 23
f 23 31 26
f 18 34 27
f 18 27 15
f 15 27 19
f 12 36 21
f 22 25 38
f 23 29 30
f 30 31 23
f 17 26 32
f 32 24 17
f 33 39 18
f 18 39 34
f 20 19 40
f 7 20 35
f 7 35 12
f 31 41 26
f 34 42 27
f 19 27 42
f 20 40 35
f 12 35 37
f 37 36 12
f 25 43 38
f 29 45 30
f 31 30 44
f 26 46 32
f 32 47 24
f 24 47 48
f 24 48 18
f 18 48 33
f 30 45 44
f 31 44 41
f 26 41 46
f 33 48 39
f 39 49 34
f 40 19 42
f 35 40 37
f 43 52 38
f 48 53 39
f 34 50 42
f 36 51 21
f 25 28 43
f 46 47 32
f 34 49 50
f 51 28 21
f 45 57 44
f 44 58 41
f 41 59 46
f 39 53 49
f 42 50 55
f 55 40 42
f 37 56 36
f 58 59 41
f 46 60 47
f 48 47 53
f 55 37 40
f 56 37 55
f 56 51 36
f 51 56 63
f 28 51 54
f 28 61 43
f 58 44 57
f 59 60 46
f 49 62 50
f 28 54 61
f 43 61 52
f 45 64 57
f 58 65 59
f 47 60 53
f 53 60 66
f 49 53 67
f 51 63 68
f 49 67 62
f 62 55 50
f 51 68 54
f 64 70 57
f 53 66 67
f 56 55 63
f 69 54 68
f 54 69 61
f 57 71 58
f 59 72 60
f 55 62 63
f 57 70 71
f 64 75 70
f 59 65 72
f 60 72 66
f 63 73 68
f 63 62 73
f 69 74 61
f 58 71 65
f 66 72 67
f 62 67 73
f 61 74 52
f 71 70 76
f 74 77 52
f 72 65 76
f 72 73 67
f 73 76 68
f 65 71 76
f 64 77 75
f 76 73 72
f 74 69 77
f 77 69 75
f 76 69 68
f 69 70 75
f 70 69 76
f 78 79 80
f 78 87 101
f 78 101 121
f 78 121 131
f 78 131 135
f 78 135 134
f 78 134 98
f 78 98 81
f 78 81 79
f 79 82 80
f 80 82 83
f 82 79 84
f 82 84 85
f 82 86 83
f 80 87 78
f 82 88 86
f 82 85 88
f 85 84 90
f 86 91 83
f 80 83 92
f 81 89 79
f 79 89 84
f 88 85 93
f 86 94 91
f 83 91 92
f 92 87 80
f 88 95 96
f 84 89 90
f 85 90 93
f 88 94 86
f 91 94 97
f 81 98 89
f 90 99 93
f 96 100 88
f 92 101 87
f 88 93 95
f 95 103 96
f 90 89 104
f 100 94 88
f 95 102 106
f 103 107 108
f 93 105 95
f 98 104 89
f 90 104 99
f 99 104 109
f 93 99 105
f 96 110 111
f 96 111 100
f 94 100 112
f 94 112 97
f 91 97 92
f 97 113 92
f 102 95 105
f 95 106 103
f 103 106 107
f 108 115 151
f 108 151 125
f 108 107 116
f 108 116 115
f 103 108 96
f 105 117 102
f 105 99 117
f 110 118 111
f 111 112 100
f 112 119 120
f 101 92 113
f 114 106 102
f 107 106 116
f 115 116 123
f 115 123 124
f 108 125 110
f 108 110 96
f 117 126 122
f 117 114 102
f 104 98 109
f 99 109 117
f 111 119 112
f 112 120 97
f 97 120 113
f 113 128 101
f 101 128 121
f 114 117 122
f 114 129 130
f 114 130 106
f 115 124 131
f 124 123 133
f 124 133 134
f 124 134 135
f 110 125 136
f 116 106 130
f 117 137 126
f 122 126 138
f 109 137 117
f 118 139 111
f 119 127 120
f 127 119 139
f 120 140 113
f 121 128 141
f 122 129 114
f 115 131 121
f 124 135 131
f 116 132 123
f 133 123 132
f 136 125 142
f 136 142 143
f 130 144 116
f 126 145 138
f 122 138 129
f 134 145 98
f 110 136 118
f 118 143 139
f 111 139 119
f 120 127 140
f 127 139 146
f 113 140 128
f 121 141 147
f 121 147 148
f 121 148 149
f 121 149 115
f 115 149 151
f 134 133 152
f 134 152 153
f 143 118 136
f 130 129 144
f 137 145 126
f 145 109 98
f 109 145 137
f 141 146 147
f 129 138 150
f 116 144 132
f 150 152 132
f 134 153 145
f 153 152 150
f 129 150 132
f 129 132 144
f 143 146 139
f 127 141 140
f 146 141 127
f 140 141 128
f 148 147 154
f 148 154 149
f 149 154 151
f 152 133 132
f 153 138 145
f 150 138 153
f 142 151 154
f 142 154 143
f 143 154 146
f 142 125 151
f 146 154 147
f 155 156 157
f 155 157 158
f 156 155 159
f 157 156 160
f 157 160 161
f 157 161 162
f 157 162 163
f 157 163 164
f 158 157 165
f 163 162 166
f 163 166 167
f 163 167 164
f 158 169 155
f 155 169 170
f 155 170 159
f 156 159 160
f 157 164 171
f 165 172 173
f 165 168 158
f 160 159 174
f 160 174 161
f 158 168 169
f 171 176 157
f 171 164 177
f 171 177 178
f 171 178 179
f 171 179 180
f 171 180 181
f 171 181 176
f 165 173 182
f 162 183 166
f 166 183 184
f 166 184 185
f 166 185 167
f 167 185 186
f 168 175 169
f 176 181 187
f 181 188 187
f 157 176 172
f 157 172 165
f 174 183 161
f 161 183 162
f 167 190 164
f 167 186 190
f 168 191 175
f 169 192 170
f 176 187 193
f 164 190 177
f 180 188 181
f 180 179 188
f 176 189 172
f 165 182 195
f 165 195 168
f 168 195 191
f 175 191 195
f 175 198 199
f 169 175 192
f 177 190 202
f 177 202 203
f 178 203 204
f 178 204 179
f 176 193 189
f 189 193 201
f 182 173 194
f 182 194 195
f 159 170 174
f 174 170 200
f 184 183 196
f 197 185 184
f 190 186 202
f 175 195 198
f 198 195 208
f 187 205 193
f 177 203 178
f 179 204 188
f 187 188 205
f 189 201 209
f 173 172 206
f 173 210 194
f 174 200 183
f 183 200 196
f 185 197 207
f 185 207 211
f 185 211 186
f 208 194 198
f 175 199 192
f 188 204 213
f 189 206 172
f 189 209 206
f 201 212 214
f 201 214 209
f 206 210 173
f 194 217 198
f 195 194 208
f 202 186 211
f 203 202 220
f 203 220 204
f 213 205 188
f 206 214 210
f 210 216 194
f 216 221 222
f 194 216 217
f 184 196 197
f 202 211 219
f 170 192 218
f 170 218 200
f 201 223 212
f 212 215 214
f 209 214 206
f 210 212 224
f 210 215 212
f 216 224 221
f 216 222 217
f 193 205 226
f 201 193 223
f 204 220 213
f 214 215 210
f 210 224 216
f 200 197 196
f 198 217 199
f 205 213 226
f 202 219 220
f 217 222 199
f 200 225 197
f 218 225 200
f 212 223 224
f 224 227 221
f 221 227 228
f 221 228 222
f 207 219 211
f 199 222 228
f 220 226 213
f 192 199 218
f 220 219 226
f 207 229 219
f 218 230 225
f 199 230 218
f 193 226 223
f 225 207 197
f 224 223 227
f 228 230 199
f 207 225 229
f 227 231 228
f 219 229 226
f 231 230 228
f 226 231 223
f 227 223 231
f 225 230 231
f 225 231 229
f 226 229 231

