# https://github.com/mikedh/trimesh
v -0.03654288 -0.00481107 -0.03771044
v -0.03663707 0.00226686 -0.03955137
v -0.03467595 0.00844980 -0.03567196
v -0.03459246 0.00760516 -0.04407806
v -0.03339417 -0.01187105 -0.03539758
v -0.03331409 -0.00687844 -0.04740464
v -0.03275351 -0.01584879 -0.03630321
v -0.00865587 -0.04430706 -0.03455804
v -0.02800678 0.02235942 -0.03542027
v -0.03503405 0.01215488 -0.03749248
v -0.03098896 0.01116194 -0.04794994
v 0.00865658 -0.04430706 -0.03456001
v 0.00000036 0.03300261 -0.03527031
v -0.03356116 -0.01357330 -0.04223768
v 0.03197705 -0.01463453 -0.03542767
v 0.03283248 0.00934355 -0.03527426
v -0.01162257 0.03510015 -0.03661298
v -0.03067136 0.02102753 -0.03815887
v -0.01608901 -0.04430706 -0.03796749
v -0.03062768 -0.01492564 -0.04739083
v 0.03470533 0.01312389 -0.03668895
v 0.01496128 0.03380015 -0.03656760
v -0.02004036 0.03011252 -0.03602834
v -0.02990557 0.01770627 -0.04582422
v 0.01608972 -0.04430706 -0.03796354
v 0.02897031 0.02200053 -0.03604351
v -0.00365297 0.03671816 -0.03767375
v -0.02936091 -0.02169676 -0.04350587
v 0.03214996 -0.01798321 -0.03735584
v 0.03605218 -0.00851340 -0.03667316
v -0.02524347 0.00251111 -0.05144285
v -0.02642333 -0.02120228 -0.04747961
v -0.02423447 0.02797586 -0.03830341
v 0.03665621 0.00388712 -0.03829452
v -0.01595796 -0.04430706 -0.04070018
v 0.02226247 0.02959711 -0.03743994
v 0.01067981 0.03479135 -0.04107278
v 0.00374059 0.03566191 -0.04280395
v -0.02338018 0.02437720 -0.04745298
v -0.01900020 -0.01484289 -0.05209460
v 0.03498562 -0.00864500 -0.04311027
v 0.03531505 -0.00014221 -0.04466578
v 0.02860857 0.02253388 -0.04090834
v 0.02936162 -0.02169676 -0.04350192
v -0.00431774 0.03270154 -0.04797831
v -0.01670055 0.00776441 -0.05409726
v -0.01924773 -0.02611315 -0.04833740
v 0.01519425 -0.04430706 -0.04125066
v 0.03063567 -0.01492564 -0.04739083
v 0.03399641 0.00743294 -0.04575257
v 0.03201346 0.01601498 -0.04337565
v 0.02412621 0.02478794 -0.04597491
v -0.01336255 0.03285806 -0.04405253
v -0.01742129 -0.00590544 -0.05411107
v -0.00842199 -0.04430706 -0.04355717
v 0.02314065 -0.02451109 -0.04757531
v 0.03331480 -0.00687844 -0.04740069
v 0.01809406 0.02918039 -0.04674070
v 0.00665451 0.03311826 -0.04752993
v -0.01616545 0.03006367 -0.04679053
v 0.03098694 0.01364429 -0.04741401
v 0.02307222 -0.01451116 -0.05063650
v -0.01486501 0.02499280 -0.04990624
v -0.00685036 0.01703982 -0.05410516
v -0.01113388 -0.02064600 -0.05225196
v -0.00201929 -0.00159149 -0.05460978
v 0.00832169 -0.04430706 -0.04360058
v 0.01772414 0.02645280 -0.04858996
v 0.01851768 -0.00031468 -0.05406372
v 0.02534292 0.00510860 -0.05142968
v 0.00551833 0.02484301 -0.05144800
v 0.00835263 0.01582756 -0.05408838
v 0.01073145 -0.01502932 -0.05409726
v 0.01670126 0.00777638 -0.05409726
v -0.00455344 -0.01699525 -0.05418013
v -0.00033272 -0.04430706 -0.04443765
v 0.00578179 -0.02147146 -0.05273462
v 0.00299416 -0.04430460 -0.04426361
v 0.00099817 -0.08499060 -0.03993973
v 0.00000426 -0.09288918 -0.03732717
v -0.00500818 -0.07733366 -0.04030832
v -0.00727561 -0.04430460 -0.04379072
v 0.01017402 -0.06945899 -0.04023541
v 0.01245778 -0.09221838 -0.03576773
v -0.01245744 -0.09221712 -0.03577381
v 0.01119243 -0.04430460 -0.04292898
v 0.01142101 -0.09367450 -0.03475511
v -0.01483712 -0.06928908 -0.03882179
v -0.01266969 -0.09569320 -0.02640505
v -0.01594736 -0.04430460 -0.04069312
v 0.01846311 -0.06899711 -0.03720059
v 0.02115811 -0.09563971 -0.02123765
v -0.02651918 -0.06870009 -0.03195218
v 0.01595587 -0.04430460 -0.04069312
v 0.02376433 -0.09225865 -0.02948746
v -0.02376602 -0.09225614 -0.02949354
v -0.03414396 -0.06262890 -0.02360415
v -0.03901557 -0.06329341 -0.01317011
v 0.02596747 -0.06417313 -0.03256583
v -0.04074268 -0.06337333 -0.00133765
v 0.03472392 -0.09240590 -0.01553154
v -0.02864988 -0.09563782 -0.01074387
v -0.03132345 -0.09365940 -0.01875167
v -0.03321000 -0.05839723 0.00920727
v -0.02731105 -0.05663827 0.02121441
v -0.03229899 -0.09212399 -0.01974404
v -0.03333577 -0.06231679 0.02489224
v -0.03496848 -0.06933188 -0.02242140
v -0.03973396 -0.06851131 -0.01245115
v 0.03533619 -0.06232686 -0.02142094
v 0.03194423 -0.06899459 -0.02658935
v 0.03082174 -0.09186221 -0.02228774
v 0.03667501 -0.09299993 -0.00689997
v -0.03934824 -0.06297123 0.01135554
v -0.00200806 -0.07300932 0.03820617
v -0.00997979 -0.04430460 -0.03479157
v -0.01749028 -0.07300932 0.03399772
v -0.01138801 -0.07300932 0.03637130
v -0.03999520 -0.08722135 -0.00630961
v 0.04002208 -0.06362441 -0.00986087
v 0.02898799 -0.09567180 0.00623877
v -0.04000643 -0.09099948 -0.00017617
v 0.00266558 -0.07300932 0.03819402
v 0.02734405 -0.05663827 0.02122251
v -0.03402150 -0.06899711 0.02396063
v -0.02663347 -0.09216929 0.02721722
v -0.00565106 -0.09173951 0.03756822
v -0.04001561 -0.08740447 0.00627827
v 0.03833732 -0.06955967 -0.01542116
v -0.03745021 -0.06899207 0.01816845
v 0.00932297 -0.04430460 -0.03458499
v -0.01086758 -0.09304272 0.03528982
v 0.04076955 -0.06347213 0.00244550
v 0.03761179 -0.09226935 0.00360799
v -0.03597260 -0.09365940 0.00721595
v 0.01195164 -0.09032679 0.03623358
v -0.03336842 -0.09238828 0.01801453
v -0.02134348 -0.09366444 0.02990673
v 0.03601377 -0.09367702 0.00623168
v 0.03433922 -0.05875261 0.00573449
v 0.04130376 -0.06954583 -0.00466005
v -0.02934378 -0.09366947 0.02195159
v 0.03332795 -0.06231679 0.02489224
v -0.01100024 -0.09569194 0.02790175
v 0.00721473 -0.09367576 0.03560778
v 0.01748246 -0.07300932 0.03401392
v 0.03375756 -0.09222844 0.01703431
v 0.01733756 -0.09567936 0.02456618
v 0.03934858 -0.06297375 0.01136364
v 0.04086497 -0.06948542 0.00707216
v 0.01971520 -0.09219321 0.03244638
v 0.02534806 -0.09366947 0.02592511
v 0.02664199 -0.09216426 0.02722532
v 0.03769750 -0.06951059 0.01732797
v -0.03892715 -0.00229504 0.03726143
v -0.03731580 -0.00498103 0.04851999
v -0.03866749 0.00118031 0.03254570
v -0.03734253 0.01040039 0.03478457
v -0.03620657 0.00702371 0.02563415
v -0.03539899 -0.06229685 0.02123546
v -0.03672252 0.00702577 0.04867656
v -0.03602520 0.01306446 0.04475461
v -0.03174101 -0.07300793 0.02123233
v -0.03370745 -0.06935717 0.02433231
v -0.03465059 0.00865997 0.02483958
v -0.02331009 0.02700970 0.02480827
v -0.03600993 -0.01102178 0.04861237
v -0.03094870 0.01985070 0.02569834
v -0.02021150 0.03081943 0.02568425
v 0.03173526 -0.07300793 0.02123233
v -0.03333708 0.01966159 0.03464132
v 0.03370934 -0.06935717 0.02433231
v -0.03284451 -0.01798892 0.04877050
v -0.02509708 -0.06974089 0.03301774
v -0.02931254 0.02363302 0.04853721
v -0.02770883 0.02736601 0.03726143
v -0.00973203 0.03576933 0.02570382
v 0.03539324 -0.06229685 0.02124173
v 0.03509541 -0.01319524 0.04868595
v -0.02802032 -0.00219243 0.05155549
v -0.02061433 0.03299015 0.03721994
v 0.00599098 0.03400972 0.02477304
v 0.02732888 0.02300811 0.02481767
v 0.03352988 0.01373733 0.02527405
v 0.03683658 0.00148454 0.02597624
v 0.03866174 -0.00027232 0.03257701
v 0.03885648 0.00086785 0.03707277
v 0.03732532 -0.00500296 0.04851843
v 0.02400691 -0.06966415 0.03393599
v -0.01489826 -0.06976829 0.03868147
v -0.01080165 -0.07300793 0.03622008
v 0.03732532 0.00500648 0.04859358
v 0.03672202 0.00921636 0.02909658
v 0.02390191 -0.07300793 0.02961168
v 0.02865767 -0.02227006 0.04945155
v -0.02665115 -0.02428182 0.04954705
v -0.02313635 -0.01609913 0.05157105
v -0.02308337 0.01790884 0.05140685
v -0.01400095 0.03633393 0.03697726
v 0.02022102 0.03080846 0.02568425
v 0.02850302 0.02353709 0.02565920
v -0.00233016 0.03888289 0.03725830
v 0.00424122 0.03852110 0.03508988
v 0.00972628 0.03576933 0.02570695
v 0.01106080 -0.07300793 0.03618583
v -0.02144291 0.03069883 0.04864290
v -0.00938074 0.03633394 0.04860923
v 0.01964636 0.03365342 0.03718706
v 0.03271466 0.02073599 0.03446283
v 0.02698332 -0.00450139 0.05176254
v 0.01345299 -0.06970800 0.03929364
v -0.00522686 -0.06929962 0.04106575
v 0.01322664 0.03639646 0.03478790
v 0.02759712 0.02740986 0.03726143
v 0.03643231 0.01373459 0.03698666
v -0.01322773 -0.02997619 0.05040449
v -0.01528224 -0.00126801 0.05269971
v 0.03066612 0.02167608 0.04858418
v 0.00833640 -0.06975186 0.04065575
v 0.02199655 -0.02824914 0.04960147
v 0.00674797 0.03698624 0.04861863
v 0.02400691 0.02899405 0.04860610
v -0.00749448 0.01566274 0.05263921
v 0.02730597 0.00831737 0.05159022
v 0.01536814 -0.02244530 0.05172776
v 0.00274682 -0.02808264 0.05158455
v -0.00569126 -0.01294720 0.05285174
v -0.00425079 0.02939283 0.05129119
v 0.02190682 0.02791108 0.04960714
v 0.00661606 0.00265752 0.05298850
v 0.00553851 0.02572220 0.05186157
f 1 3 2
f 2 6 1
f 3 1 5
f 1 7 5
f 5 8 9
f 5 9 3
f 2 3 10
f 2 10 4
f 4 11 6
f 2 4 6
f 8 19 35
f 8 35 55
f 8 55 76
f 8 76 67
f 8 67 48
f 8 48 25
f 8 25 12
f 8 12 13
f 8 13 9
f 6 14 1
f 12 15 16
f 12 16 13
f 3 9 18
f 10 3 18
f 8 5 7
f 8 7 19
f 1 14 7
f 16 15 21
f 16 22 13
f 13 23 9
f 15 12 25
f 21 26 16
f 16 26 22
f 13 22 17
f 17 22 27
f 13 17 23
f 18 4 10
f 11 4 24
f 14 20 28
f 15 25 29
f 21 15 30
f 18 24 4
f 20 14 6
f 14 28 7
f 28 19 7
f 9 23 18
f 18 23 33
f 11 31 6
f 6 31 20
f 28 35 19
f 29 30 15
f 30 34 21
f 26 36 22
f 22 38 27
f 22 37 38
f 24 18 39
f 20 40 32
f 32 28 20
f 35 28 32
f 11 24 39
f 25 44 29
f 29 41 30
f 30 41 34
f 34 41 42
f 43 36 26
f 27 38 45
f 39 18 33
f 11 39 46
f 35 32 47
f 25 48 44
f 29 44 41
f 42 50 34
f 21 43 26
f 43 52 36
f 17 27 53
f 23 17 33
f 11 46 31
f 35 47 55
f 48 56 44
f 44 49 41
f 41 57 42
f 34 50 21
f 21 50 51
f 36 52 58
f 22 36 58
f 38 37 59
f 45 53 27
f 17 53 33
f 39 33 60
f 31 54 20
f 20 54 40
f 56 49 44
f 21 51 43
f 22 58 37
f 33 53 60
f 42 57 50
f 51 50 61
f 37 58 59
f 31 46 54
f 32 40 47
f 56 62 49
f 49 57 41
f 51 61 43
f 43 61 52
f 38 59 45
f 39 60 63
f 39 64 46
f 55 47 65
f 57 61 50
f 45 60 53
f 48 67 56
f 61 68 52
f 52 68 58
f 59 58 68
f 46 66 54
f 54 65 40
f 40 65 47
f 57 70 61
f 68 71 59
f 59 71 45
f 39 63 64
f 46 64 72
f 62 56 73
f 61 74 68
f 46 72 66
f 55 65 75
f 57 69 70
f 60 45 63
f 54 75 65
f 54 66 75
f 55 75 76
f 67 73 56
f 49 62 57
f 57 62 69
f 64 63 45
f 64 71 72
f 64 45 71
f 73 67 77
f 61 70 74
f 74 72 68
f 68 72 71
f 62 73 69
f 76 75 77
f 70 69 74
f 66 72 74
f 75 73 77
f 66 73 75
f 67 76 77
f 69 73 66
f 66 74 69
f 78 82 90
f 78 90 116
f 78 116 131
f 78 131 94
f 78 94 86
f 79 80 81
f 79 81 82
f 79 82 78
f 79 83 84
f 79 84 80
f 81 80 85
f 78 83 79
f 83 78 86
f 84 87 80
f 85 88 81
f 80 87 89
f 80 89 85
f 88 90 82
f 88 82 81
f 83 86 91
f 83 91 84
f 85 93 88
f 90 88 93
f 87 92 89
f 89 92 121
f 89 121 148
f 89 148 144
f 89 144 102
f 91 86 94
f 87 84 95
f 87 95 92
f 85 89 96
f 85 96 93
f 90 93 97
f 90 97 98
f 94 99 91
f 91 95 84
f 95 91 99
f 90 98 100
f 92 95 101
f 89 102 103
f 89 103 96
f 90 104 105
f 90 100 104
f 96 106 93
f 97 93 108
f 97 108 98
f 98 108 109
f 94 110 99
f 95 99 111
f 101 95 112
f 92 101 113
f 103 106 96
f 106 108 93
f 105 104 114
f 105 114 107
f 105 116 90
f 105 107 115
f 107 117 118
f 107 118 115
f 104 100 114
f 94 120 110
f 95 111 112
f 113 121 92
f 103 122 106
f 115 124 105
f 105 124 116
f 107 125 126
f 107 126 117
f 118 127 115
f 98 109 100
f 100 109 119
f 100 119 128
f 108 119 109
f 110 111 99
f 112 111 129
f 112 129 101
f 102 122 103
f 106 122 119
f 106 119 108
f 115 127 123
f 115 123 124
f 124 131 116
f 117 126 132
f 117 132 118
f 118 132 127
f 94 133 120
f 110 120 129
f 110 129 111
f 102 135 122
f 130 125 107
f 123 127 136
f 125 137 126
f 119 122 128
f 121 113 139
f 94 124 140
f 94 140 133
f 113 101 129
f 113 129 141
f 113 134 139
f 102 142 135
f 124 94 131
f 124 123 143
f 137 125 130
f 137 142 126
f 138 132 126
f 120 133 141
f 129 120 141
f 113 141 134
f 102 144 142
f 114 130 107
f 127 132 145
f 127 145 136
f 143 123 146
f 142 138 126
f 100 128 114
f 139 134 147
f 124 143 149
f 124 149 140
f 140 149 133
f 133 150 141
f 134 141 150
f 135 142 137
f 142 144 138
f 132 144 145
f 132 138 144
f 136 145 151
f 143 146 151
f 123 136 146
f 146 136 151
f 130 128 137
f 121 139 152
f 139 147 152
f 137 122 135
f 122 137 128
f 130 114 128
f 145 144 148
f 143 151 153
f 134 150 147
f 121 152 148
f 145 148 152
f 143 153 147
f 143 147 154
f 147 153 152
f 147 150 154
f 152 151 145
f 151 152 153
f 143 154 149
f 149 150 133
f 154 150 149
f 155 158 157
f 157 158 159
f 157 160 155
f 155 156 162
f 155 162 158
f 157 159 160
f 160 163 164
f 160 156 155
f 160 159 165
f 156 161 162
f 160 165 166
f 160 178 170
f 160 170 163
f 164 167 156
f 164 156 160
f 159 158 168
f 159 168 165
f 166 165 168
f 166 168 169
f 163 170 194
f 163 194 205
f 163 205 191
f 156 167 161
f 158 171 168
f 167 164 174
f 167 174 173
f 161 175 162
f 162 175 171
f 162 171 158
f 168 176 169
f 166 169 177
f 170 178 172
f 164 163 174
f 168 171 176
f 167 180 161
f 169 176 181
f 166 177 182
f 160 166 182
f 178 183 184
f 178 185 186
f 178 186 187
f 178 187 188
f 178 188 172
f 178 184 185
f 172 188 179
f 179 189 172
f 173 174 190
f 174 163 191
f 160 182 178
f 187 192 188
f 172 189 194
f 172 194 170
f 179 195 189
f 190 174 191
f 173 190 196
f 167 173 197
f 175 176 171
f 181 199 169
f 169 199 177
f 183 178 182
f 183 200 201
f 183 201 184
f 184 193 185
f 185 193 186
f 186 193 187
f 173 196 197
f 198 161 180
f 177 199 202
f 177 202 203
f 182 177 204
f 182 204 200
f 182 200 183
f 189 205 194
f 167 197 180
f 161 198 175
f 176 175 206
f 181 176 206
f 199 181 207
f 177 203 204
f 200 208 201
f 201 209 184
f 184 209 193
f 188 192 179
f 195 211 189
f 205 189 211
f 190 212 196
f 200 204 213
f 200 213 208
f 201 208 214
f 209 215 193
f 187 215 192
f 195 179 210
f 190 191 212
f 212 216 196
f 180 197 217
f 198 206 175
f 206 207 181
f 199 207 202
f 203 213 204
f 214 209 201
f 209 218 215
f 193 215 187
f 211 195 220
f 211 220 219
f 198 180 217
f 202 221 203
f 214 208 222
f 214 218 209
f 211 219 205
f 213 221 208
f 214 222 218
f 192 215 218
f 218 224 192
f 179 192 210
f 210 225 195
f 196 216 197
f 217 223 198
f 202 207 221
f 203 221 213
f 225 220 195
f 220 225 219
f 219 226 212
f 212 226 216
f 197 227 217
f 206 228 207
f 208 221 222
f 219 225 226
f 212 191 205
f 212 205 219
f 197 216 227
f 207 228 221
f 218 222 229
f 216 226 227
f 198 228 206
f 222 221 229
f 210 192 224
f 217 230 223
f 218 229 224
f 228 231 221
f 221 231 229
f 210 224 230
f 210 230 225
f 198 223 228
f 227 230 217
f 225 227 226
f 225 230 227
f 223 231 228
f 224 229 231
f 230 224 231
f 223 230 231

