# https://github.com/mikedh/trimesh
v 0.03845801 -0.03049359 0.00076086
v 0.03800227 -0.00022722 0.00375033
v -0.00791664 -0.03049520 -0.03737553
v 0.03754278 -0.03049359 -0.00834739
v 0.03794201 -0.03049359 0.00632799
v -0.00106275 -0.01220843 -0.04499179
v 0.00606892 -0.03049359 -0.03785671
v 0.01854886 -0.03049359 -0.03339507
v 0.03049962 -0.03049359 -0.02348083
v 0.03541100 -0.03049359 -0.01487688
v 0.03716237 0.03398533 -0.00422930
v 0.03691944 0.03398533 0.00528415
v -0.02345018 -0.03049359 -0.03050140
v 0.03666309 -0.00012885 0.01044498
v 0.03052975 -0.02549915 0.02301286
v 0.02151677 -0.02549915 0.03167957
v 0.00935980 -0.02549915 0.03700226
v -0.00724151 -0.02550557 0.03757483
v 0.00751333 -0.00980738 -0.04499179
v 0.01248873 0.00000519 -0.04499179
v 0.03261633 0.03398533 -0.01840699
v 0.03592323 0.03499832 -0.00619806
v 0.03451459 0.03398533 0.01457298
v -0.03826717 -0.02550557 -0.00300158
v -0.03718998 -0.02550557 -0.00980964
v -0.03302435 -0.02550557 -0.01963580
v -0.02851222 -0.02550557 -0.02578872
v -0.01248998 0.00000519 -0.04499179
v -0.01096459 -0.00569931 -0.04499179
v -0.01893239 -0.02550557 0.03329378
v -0.02860449 -0.02550557 0.02537691
v -0.03762500 -0.02550557 0.00757443
v 0.03355793 0.00004045 0.01819338
v 0.02987063 -0.00006213 0.02376931
v 0.01248873 0.00000519 0.04499840
v 0.01127595 -0.00525212 0.04499840
v 0.00208784 -0.01183497 0.04499840
v 0.02757690 0.03398533 -0.02533947
v 0.03522644 0.03398533 -0.01256238
v -0.03782321 0.00264746 -0.00451889
v -0.03444428 0.03398533 -0.01453554
v -0.00866144 -0.00866295 0.04499840
v -0.01248998 0.00000519 0.04499840
v -0.03357330 0.00019753 0.01814933
v -0.03588304 0.03398533 0.01050774
v -0.03749223 0.00510061 0.00679485
v -0.03735194 0.03398533 0.00212181
v 0.02952224 0.03398533 0.02276732
v 0.01127595 0.00525608 -0.04499179
v 0.01470337 0.03499832 -0.03225214
v -0.03025982 0.03398533 -0.02197893
v -0.02900185 0.03398533 0.02370765
v 0.01127595 0.00525929 0.04499840
v 0.02282371 0.03398533 0.02960952
v 0.02601385 0.03499832 0.02528882
v 0.01643780 0.03398533 -0.03346334
v -0.01003618 0.00702561 -0.04499179
v -0.02448218 0.03398533 -0.02825957
v -0.02367428 0.03499832 -0.02732144
v -0.01003618 0.00702561 0.04499840
v -0.02110372 0.03398533 0.03086036
v -0.02831730 0.03499832 0.02182809
v -0.03256485 0.03398533 0.01836514
v -0.03685854 0.03398533 -0.00634340
v -0.03331437 0.03499832 -0.01405106
v -0.01644658 0.03398533 -0.03346775
v 0.01049066 0.03398533 0.03579106
v -0.00763228 0.03499832 -0.03508415
v -0.01355587 0.03398533 0.03484632
v -0.01310579 0.03499832 0.03369677
v -0.03610903 0.03499832 0.00206015
v 0.00407273 0.03499832 0.03571839
v 0.00078090 0.01162896 -0.04499179
v 0.00421585 0.03398533 -0.03706172
v 0.00078090 0.01162896 0.04499840
v -0.00529994 0.03398533 -0.03702868
v -0.00424912 0.03398533 0.03706172
v -0.02004461 -0.02550916 -0.03050274
v -0.02004461 -0.03049902 -0.03050274
v -0.02341090 -0.02550916 -0.03050274
v -0.02006628 -0.02550916 0.03280400
v -0.02006628 -0.03049902 0.03284120
v -0.02345605 -0.03049902 -0.03050274
v -0.02341271 -0.02569135 -0.03050274
v -0.02407549 -0.02550916 -0.03000670
v -0.02033356 -0.02550916 0.03264898
v -0.02034801 -0.03049902 0.03267999
v -0.02409174 -0.03049902 -0.03002531
v -0.02582365 -0.02550916 -0.02848759
v -0.02286550 -0.02550916 0.03093766
v -0.02287995 -0.03049902 0.03095626
v -0.02640155 -0.03049902 -0.02801635
v -0.02638349 -0.02550916 -0.02799775
v -0.02525117 -0.02550916 0.02902791
v -0.02526742 -0.03049902 0.02904031
v -0.02654422 -0.03049902 -0.02787375
v -0.02654422 -0.02550916 -0.02783654
v -0.02749596 -0.03049902 0.02694456
v -0.02747609 -0.02550916 0.02692596
v -0.02854521 -0.03049902 -0.02583379
v -0.02852535 -0.02550916 -0.02581519
v -0.02952223 -0.02550916 0.02465659
v -0.02954391 -0.03049902 0.02466899
v -0.03050106 -0.03049902 -0.02348382
v -0.03047939 -0.02550916 -0.02346522
v -0.02997733 -0.02550916 0.02406754
v -0.03141126 -0.03049902 0.02224461
v -0.03227270 -0.03049853 -0.02098503
v -0.03160630 -0.02550916 -0.02187790
v -0.03160630 -0.03049902 -0.02191510
v -0.03138959 -0.02550916 0.02223220
v -0.03171105 -0.03049902 0.02178577
v -0.03383845 -0.03049853 -0.01834983
v -0.03343392 -0.02550916 -0.01898228
v -0.03234855 -0.02550916 -0.02080522
v -0.03225103 -0.02550916 -0.02096643
v -0.03721739 -0.03049853 -0.00984280
v -0.03631802 -0.03049853 -0.01275701
v -0.03518750 -0.03049853 -0.01560303
v -0.03794518 -0.03049902 0.00633422
v -0.03168035 -0.02550916 0.02178577
v -0.03305828 -0.02550916 0.01966521
v -0.03307996 -0.03049902 0.01967761
v -0.03516402 -0.02550916 -0.01559683
v -0.03381498 -0.02550916 -0.01833743
v -0.03788198 -0.03049853 -0.00685417
v -0.03719210 -0.02550916 -0.00983659
v -0.03601824 -0.02550916 -0.01344527
v -0.03629274 -0.02550916 -0.01275081
v -0.03758038 -0.03049902 0.00834937
v -0.03768693 -0.02550916 0.00761151
v -0.03809869 -0.02550916 0.00532354
v -0.03812397 -0.03049853 0.00532974
v -0.03842918 -0.03049853 0.00228531
v -0.03849239 -0.03049853 -0.00076532
v -0.03830637 -0.03049853 -0.00381594
v -0.03451749 -0.02550916 0.01698041
v -0.03454097 -0.03049902 0.01699281
v -0.03785669 -0.02550916 -0.00684797
v -0.03679841 -0.03049902 0.01130699
v -0.03696275 -0.02550916 0.01058153
v -0.03755329 -0.02550916 0.00834317
v -0.03840209 -0.02550916 0.00228531
v -0.03845808 -0.02550916 -0.00057310
v -0.03846169 -0.02550916 -0.00076532
v -0.03829192 -0.02550916 -0.00362993
v -0.03827928 -0.02550916 -0.00381594
v -0.03568053 -0.02550916 0.01435762
v -0.03578346 -0.03049902 0.01419020
v -0.03588821 -0.03049902 0.01389878
v -0.03677132 -0.02550916 0.01130079
v -0.03575638 -0.02550916 0.01418400
v -0.03587557 -0.02841878 0.01389878
v -0.03585751 -0.02550916 0.01389878
v 0.03594223 -0.03049902 0.00633390
v 0.03594223 -0.02550916 0.00633390
v 0.03794688 -0.03049902 0.00633390
v -0.02006862 -0.03049902 0.03048505
v 0.03791848 -0.02550916 0.00633390
v -0.02006862 -0.02550916 0.03048505
v 0.03755503 -0.02550916 0.00835200
v 0.03757775 -0.03049902 0.00835830
v -0.02006862 -0.03049902 0.03284318
v -0.02006862 -0.02550916 0.03281170
v 0.03682246 -0.02550916 0.01112257
v 0.03679406 -0.03049902 0.01131462
v -0.01766077 -0.02550916 0.03417495
v -0.01767213 -0.03049902 0.03419698
v 0.03677135 -0.02550916 0.01130832
v 0.03588544 -0.03049902 0.01390888
v -0.01490083 -0.03049902 0.03549411
v -0.01488947 -0.02550916 0.03546577
v 0.03585705 -0.02550916 0.01390888
v 0.03575482 -0.02550916 0.01419223
v 0.03577754 -0.03049902 0.01420483
v -0.01391839 -0.03049902 0.03586247
v -0.01391839 -0.02550916 0.03583413
v 0.03451683 -0.02550916 0.01699113
v 0.03453955 -0.03049902 0.01700373
v -0.01202732 -0.02550965 0.03653937
v -0.01203300 -0.03049902 0.03656456
v -0.01155597 -0.02550965 0.03667790
v -0.00908566 -0.02550965 0.03737998
v -0.00889825 -0.02550965 0.03742406
v -0.00861999 -0.02550965 0.03748388
v -0.00609288 -0.02550965 0.03798447
v -0.00578622 -0.02550965 0.03803485
v -0.00545117 -0.02550965 0.03807577
v -0.00304900 -0.02550965 0.03835598
v -0.00120904 -0.02550965 0.03846302
v -0.00103867 -0.02550965 0.03847247
v -0.00098756 -0.02550965 0.03847247
v 0.01392519 -0.02550916 0.03583099
v 0.03305736 -0.02550916 0.01967669
v 0.03308007 -0.03049902 0.01968929
v -0.00909133 -0.03049902 0.03740517
v -0.00608720 -0.03049902 0.03801281
v -0.00304900 -0.03049902 0.03837487
v -0.00098189 -0.02750100 0.03848191
v -0.00085127 -0.02551014 0.03847562
v -0.00002215 -0.02551014 0.03848191
v 0.00000624 -0.02551014 0.03848191
v 0.00100005 -0.02551014 0.03847247
v 0.00117609 -0.02551014 0.03846617
v 0.00306148 -0.02551014 0.03835283
v 0.00320345 -0.02551014 0.03834338
v 0.00563970 -0.02551014 0.03805058
v 0.00596907 -0.02551014 0.03800966
v 0.00921739 -0.02551014 0.03734850
v 0.01163660 -0.02551014 0.03665901
v 0.01173314 -0.02551014 0.03663067
v 0.01202844 -0.02551014 0.03653937
v 0.01419778 -0.02550916 0.03573024
v 0.00628141 -0.02551014 0.03795613
v 0.00871765 -0.02551014 0.03746814
v 0.00897888 -0.02551014 0.03740832
v 0.03149566 -0.02550916 0.02208520
v 0.03171714 -0.03049902 0.02178925
v -0.00099324 -0.03049902 0.03848191
v 0.00000624 -0.02750100 0.03849766
v 0.00101140 -0.02750491 0.03848191
v 0.00306148 -0.03049853 0.03837487
v 0.00314667 -0.02750491 0.03835598
v 0.00610536 -0.03049853 0.03801281
v 0.00909814 -0.03049853 0.03740517
v 0.01203980 -0.03049853 0.03656456
v 0.01489060 -0.02550916 0.03546577
v 0.01490196 -0.03049853 0.03549411
v 0.00842803 -0.03049853 0.03754370
v 0.03138776 -0.02550916 0.02224262
v 0.03141048 -0.03049902 0.02225836
v 0.00100573 -0.03049853 0.03848191
v 0.02002999 -0.03049902 0.03286207
v 0.01766190 -0.02550916 0.03417495
v 0.01767325 -0.03049853 0.03419698
v 0.02951941 -0.02550916 0.02466371
v 0.02954213 -0.03049902 0.02467946
v 0.02034233 -0.03049902 0.03268262
v 0.02002999 -0.03049853 0.03286207
v 0.02002999 -0.02814916 0.03284948
v 0.02002999 -0.02550916 0.03283059
v 0.02749205 -0.03049902 0.02694943
v 0.02746933 -0.02550916 0.02693054
v 0.02033097 -0.02550916 0.03265743
v 0.02287511 -0.03049902 0.03096361
v 0.02583382 -0.03049902 0.02851103
v 0.02583382 -0.02550916 0.02847639
v 0.02285808 -0.02550916 0.03093842
v 0.02526025 -0.03049902 0.02904625
v 0.02524321 -0.02550916 0.02902421
f 1 3 4
f 1 2 5
f 1 5 3
f 3 6 7
f 3 7 8
f 3 8 9
f 3 9 10
f 3 10 4
f 1 11 12
f 1 12 2
f 3 5 13
f 5 15 16
f 5 16 17
f 5 17 18
f 5 2 14
f 6 29 28
f 6 28 57
f 6 57 73
f 6 73 49
f 6 49 20
f 6 20 19
f 7 6 19
f 7 19 8
f 8 19 20
f 8 20 9
f 9 21 10
f 1 4 11
f 11 22 23
f 11 23 12
f 13 24 25
f 13 25 26
f 13 26 27
f 13 27 28
f 13 28 29
f 13 5 30
f 13 30 31
f 13 31 32
f 13 32 24
f 5 18 30
f 5 14 33
f 5 33 15
f 15 34 35
f 15 35 16
f 16 35 36
f 16 36 17
f 17 36 37
f 17 37 18
f 6 3 29
f 20 38 9
f 21 39 10
f 10 39 4
f 11 39 22
f 22 21 50
f 22 50 68
f 22 68 59
f 22 59 65
f 22 65 71
f 22 71 62
f 22 62 70
f 22 70 72
f 22 72 55
f 22 55 23
f 2 12 14
f 24 40 25
f 25 41 26
f 30 42 43
f 30 43 31
f 31 44 32
f 32 44 45
f 32 45 46
f 32 47 24
f 13 29 3
f 18 37 42
f 18 42 30
f 15 33 34
f 35 53 75
f 35 75 60
f 35 60 43
f 35 43 42
f 35 42 37
f 35 37 36
f 35 34 48
f 20 49 38
f 38 50 21
f 38 21 9
f 4 39 11
f 22 39 21
f 28 27 51
f 43 52 31
f 32 46 47
f 14 23 33
f 35 48 54
f 35 54 53
f 48 55 54
f 49 56 38
f 38 56 50
f 12 23 14
f 26 41 51
f 28 51 58
f 28 58 57
f 27 26 51
f 51 59 58
f 43 60 61
f 43 61 52
f 52 62 63
f 31 52 44
f 47 40 24
f 33 23 48
f 48 23 55
f 34 33 48
f 40 64 25
f 25 64 41
f 41 65 51
f 57 58 66
f 58 59 66
f 51 65 59
f 61 62 52
f 63 44 52
f 45 44 63
f 53 54 67
f 54 55 67
f 41 64 65
f 66 59 68
f 60 69 61
f 61 69 70
f 61 70 62
f 45 71 47
f 45 62 71
f 45 63 62
f 46 45 47
f 67 55 72
f 49 73 74
f 49 74 56
f 56 74 50
f 40 47 64
f 64 71 65
f 64 47 71
f 53 67 75
f 57 66 76
f 57 76 73
f 66 68 76
f 60 75 77
f 60 77 69
f 69 77 70
f 50 74 68
f 77 72 70
f 74 76 68
f 74 73 76
f 75 67 77
f 67 72 77
f 78 79 83
f 78 83 84
f 78 84 80
f 78 80 85
f 78 85 89
f 78 89 93
f 78 93 97
f 78 97 101
f 78 101 105
f 78 105 109
f 78 109 116
f 78 116 115
f 78 115 114
f 78 114 125
f 78 125 124
f 78 124 128
f 78 128 129
f 78 129 127
f 78 127 139
f 78 139 147
f 78 147 146
f 78 146 145
f 78 145 144
f 78 144 143
f 78 143 132
f 78 132 131
f 78 131 142
f 78 142 141
f 78 141 151
f 78 151 154
f 78 154 152
f 78 152 148
f 78 148 137
f 78 137 122
f 78 122 121
f 78 121 111
f 78 111 106
f 78 106 102
f 78 102 99
f 78 99 94
f 78 94 90
f 78 90 86
f 78 86 81
f 78 81 82
f 78 82 79
f 79 82 87
f 79 87 91
f 79 91 95
f 79 95 98
f 79 98 103
f 79 103 107
f 79 107 112
f 79 112 123
f 79 123 138
f 79 138 149
f 79 149 150
f 79 150 140
f 79 140 130
f 79 130 120
f 79 120 110
f 79 110 104
f 79 104 100
f 79 100 96
f 79 96 92
f 79 92 88
f 79 88 83
f 80 84 85
f 81 86 87
f 81 87 82
f 83 88 85
f 83 85 84
f 85 88 89
f 86 90 87
f 87 90 91
f 88 92 89
f 89 92 93
f 90 94 91
f 91 94 95
f 92 96 93
f 93 96 97
f 94 98 95
f 94 99 98
f 96 100 97
f 97 100 101
f 98 99 102
f 98 102 103
f 100 104 101
f 101 104 105
f 102 106 103
f 103 106 107
f 104 108 109
f 104 109 105
f 104 110 108
f 106 111 107
f 107 111 112
f 108 113 114
f 108 114 115
f 108 115 116
f 108 116 109
f 108 110 113
f 110 117 118
f 110 118 119
f 110 119 113
f 110 120 117
f 111 121 112
f 112 122 123
f 112 121 122
f 113 119 124
f 113 124 125
f 113 125 114
f 117 126 139
f 117 139 127
f 117 127 129
f 117 129 118
f 117 120 126
f 118 128 124
f 118 124 119
f 118 129 128
f 120 130 131
f 120 131 132
f 120 132 133
f 120 133 134
f 120 134 135
f 120 135 136
f 120 136 126
f 122 137 138
f 122 138 123
f 126 136 139
f 130 140 141
f 130 141 142
f 130 142 131
f 132 143 134
f 132 134 133
f 134 143 135
f 135 143 144
f 135 144 145
f 135 145 146
f 135 146 136
f 136 146 147
f 136 147 139
f 137 148 138
f 138 148 149
f 140 150 151
f 140 151 141
f 148 152 149
f 149 152 150
f 150 152 153
f 150 153 151
f 151 153 154
f 152 154 153
f 155 156 159
f 155 159 157
f 155 157 162
f 155 162 166
f 155 166 170
f 155 170 175
f 155 175 179
f 155 179 195
f 155 195 218
f 155 218 231
f 155 231 237
f 155 237 242
f 155 242 246
f 155 246 249
f 155 249 245
f 155 245 238
f 155 238 233
f 155 233 219
f 155 219 198
f 155 198 197
f 155 197 196
f 155 196 181
f 155 181 176
f 155 176 171
f 155 171 168
f 155 168 163
f 155 163 158
f 155 158 160
f 155 160 156
f 156 160 164
f 156 164 167
f 156 167 172
f 156 172 177
f 156 177 193
f 156 193 213
f 156 213 227
f 156 227 234
f 156 234 241
f 156 241 244
f 156 244 248
f 156 248 250
f 156 250 247
f 156 247 243
f 156 243 236
f 156 236 230
f 156 230 217
f 156 217 194
f 156 194 178
f 156 178 174
f 156 174 173
f 156 173 169
f 156 169 165
f 156 165 161
f 156 161 159
f 157 159 161
f 157 161 162
f 158 163 164
f 158 164 160
f 161 165 162
f 162 165 166
f 163 167 164
f 163 168 167
f 165 169 166
f 166 169 170
f 167 168 171
f 167 171 172
f 169 173 170
f 170 173 174
f 170 174 175
f 171 176 177
f 171 177 172
f 174 178 179
f 174 179 175
f 176 180 177
f 176 181 180
f 177 180 182
f 177 182 183
f 177 183 184
f 177 184 185
f 177 185 186
f 177 186 187
f 177 187 188
f 177 188 189
f 177 189 190
f 177 190 191
f 177 191 192
f 177 192 193
f 178 194 195
f 178 195 179
f 180 181 182
f 181 196 182
f 182 196 183
f 183 196 184
f 184 196 185
f 185 196 197
f 185 197 186
f 186 197 187
f 187 197 188
f 188 197 198
f 188 198 189
f 189 198 190
f 190 198 199
f 190 199 191
f 191 199 200
f 191 200 201
f 191 201 202
f 191 202 192
f 192 202 203
f 192 203 204
f 192 204 205
f 192 205 206
f 192 206 207
f 192 207 208
f 192 208 193
f 193 209 210
f 193 210 211
f 193 211 212
f 193 212 213
f 193 208 214
f 193 214 215
f 193 215 216
f 193 216 209
f 194 217 195
f 195 217 218
f 198 219 199
f 199 219 220
f 199 220 200
f 200 220 201
f 201 220 202
f 202 220 203
f 203 220 221
f 203 221 204
f 204 221 222
f 204 222 205
f 205 222 223
f 205 223 206
f 206 223 224
f 206 224 207
f 207 224 208
f 208 224 214
f 209 225 210
f 209 216 225
f 210 225 226
f 210 226 211
f 211 226 212
f 212 226 213
f 213 226 228
f 213 228 227
f 214 224 215
f 215 224 229
f 215 229 225
f 215 225 216
f 217 230 231
f 217 231 218
f 219 229 224
f 219 224 222
f 219 222 232
f 219 232 220
f 219 233 225
f 219 225 229
f 220 232 221
f 221 232 222
f 222 224 223
f 225 233 226
f 226 233 228
f 227 228 234
f 228 233 235
f 228 235 234
f 230 236 237
f 230 237 231
f 233 238 239
f 233 239 235
f 234 235 240
f 234 240 241
f 235 239 240
f 236 242 237
f 236 243 242
f 238 244 240
f 238 240 239
f 238 245 244
f 240 244 241
f 242 243 247
f 242 247 246
f 244 245 248
f 245 249 250
f 245 250 248
f 246 247 249
f 247 250 249

