# https://github.com/mikedh/trimesh
v 0.04461014 -0.01383543 -0.07319874
v 0.04468492 -0.01383543 -0.12048616
v 0.02692384 -0.04839282 0.00281613
v 0.02556470 -0.03976862 0.00599346
v 0.04311686 -0.03001227 -0.07234414
v 0.02071098 -0.03968450 0.01432025
v 0.03628821 -0.01383543 -0.06082906
v 0.04208541 -0.03550025 -0.11000098
v 0.02435952 -0.05094756 0.00796559
v 0.03975422 -0.04188598 -0.06844370
v 0.01893729 -0.04651546 0.01688677
v 0.01189531 -0.03965535 0.02097621
v 0.04302669 -0.02769248 -0.12596431
v 0.02447828 -0.05323314 -0.00361522
v 0.03152025 -0.05126158 -0.05956909
v -0.00005867 -0.03894881 0.02236218
v 0.03265891 -0.04996865 -0.11135818
v 0.03708928 -0.04551299 -0.10970242
v 0.01321376 -0.05203820 0.01870004
v 0.00165454 -0.04429717 0.02448771
v 0.00575503 -0.04988664 0.02347973
v -0.03629119 -0.01383543 -0.06082906
v 0.00871851 -0.05755534 0.00785603
v 0.03977181 -0.01383543 -0.19107765
v 0.03985978 -0.03767817 -0.12716950
v 0.02499345 -0.05412129 -0.09424957
v 0.03547449 -0.02220394 -0.19263345
v 0.03758137 -0.01383543 -0.19520818
v -0.01018618 -0.04889076 0.02241696
v 0.00234125 -0.05311623 0.02118986
v -0.01914590 -0.03963180 0.01605135
v 0.00829625 -0.05887028 -0.00612696
v 0.02916267 -0.02971788 -0.19244172
v 0.03427371 -0.04535585 -0.12916355
v 0.02397905 -0.02858070 -0.19873063
v -0.01089874 -0.05310978 0.01894382
v -0.02498928 -0.03978656 0.00702883
v -0.03757115 -0.01383543 -0.19520818
v -0.00277185 -0.05727673 0.01033216
v -0.04460873 -0.01383543 -0.07319874
v -0.02166293 -0.04805413 0.01353140
v 0.01660059 -0.05567798 -0.10940933
v 0.01461688 -0.03662846 -0.19808969
v 0.01674244 -0.03827424 -0.19216780
v -0.02479795 -0.02844163 -0.19875802
v -0.03981438 -0.01383543 -0.19119817
v 0.01782337 -0.05292362 -0.13112473
v 0.02689745 -0.05097027 -0.12709692
v 0.00193274 -0.03747855 -0.19888949
v -0.03547307 -0.02220170 -0.19262248
v -0.02682345 -0.04839731 0.00318865
v 0.00000291 -0.05956280 -0.00609957
v -0.01148813 -0.03779032 -0.19816639
v -0.02893252 -0.03008573 -0.19244719
v -0.01920857 -0.05258212 0.01243166
v -0.04430963 -0.02243945 -0.07387803
v -0.04424805 -0.01383543 -0.13078509
v 0.00399893 -0.04178504 -0.19194320
v -0.02003659 -0.03662286 -0.19270466
v -0.03388577 -0.04562500 -0.12887870
v -0.03946071 -0.03981277 -0.12146230
v -0.01447031 -0.05587970 0.00786630
v -0.04311324 -0.03098292 -0.07290292
v -0.00337403 -0.04171775 -0.19226094
v -0.02712324 -0.05220888 -0.11889886
v -0.04251615 -0.03118843 -0.12173175
v -0.02444827 -0.05322193 -0.00324819
v -0.03976160 -0.04188149 -0.06844370
v 0.00281134 -0.05482944 -0.12627108
v -0.01931964 -0.04554145 -0.16087659
v -0.00911048 -0.05861248 -0.00118840
v -0.02324089 -0.05451388 -0.10830274
v -0.01105708 -0.05619386 -0.11051592
v -0.01681855 -0.05323371 -0.13007566
v -0.03382419 -0.04930319 -0.10762619
v -0.03284828 -0.05020906 -0.06012238
v -0.02660133 -0.05365370 -0.05237627
v 0.04517444 0.00112011 -0.07511683
v 0.04491777 -0.01382298 -0.07511683
v 0.04331577 0.02990260 -0.07292563
v 0.02693067 0.04839824 0.00279651
v 0.04428936 -0.01382298 -0.12983091
v 0.04429821 0.01791708 -0.12527323
v 0.04101898 0.03833773 -0.06957310
v 0.01996729 0.05098504 0.01465634
v 0.02422011 0.05307173 0.00080801
v 0.02355187 0.03934874 0.01072315
v 0.02819855 -0.02842980 -0.19519418
v 0.03999228 0.04154321 -0.10167408
v 0.03718546 0.04578125 -0.06517429
v 0.03627051 -0.01382298 -0.06081929
v -0.02819892 -0.02842980 -0.19519418
v 0.04208551 0.00246525 -0.19142534
v 0.03241155 0.05060133 -0.06015646
v 0.01759526 0.03932503 0.01775688
v -0.02249899 -0.02842980 -0.19920407
v -0.02711027 -0.01382298 -0.06026602
v -0.03729757 -0.01382298 -0.06145474
v -0.04463712 -0.01382298 -0.07387880
v 0.00109732 0.03893916 0.02403465
v 0.03992590 -0.01346083 -0.19162254
v 0.01127909 0.05811276 -0.00219804
v -0.03979350 -0.01381436 -0.19120622
v -0.03660721 -0.01462489 -0.19809753
v -0.04449108 -0.01382298 -0.12327103
v -0.00663388 0.03896503 0.02298287
v -0.01693679 0.03936491 0.01818416
v -0.02355666 0.03934012 0.01071220
v 0.03776630 -0.01149486 -0.19817421
v -0.04207702 0.00247387 -0.19142534
v -0.02682483 0.04839824 0.00319640
v -0.04515710 0.00221950 -0.07511683
v 0.00491424 0.04832926 0.02402095
v 0.03777515 0.01151043 -0.19817421
v 0.03096886 0.05092468 -0.11589492
v 0.02414377 0.05433064 -0.03425930
v -0.00707199 0.04902769 0.02359640
v -0.01995880 0.05097642 0.01463443
v -0.04431628 0.02240950 -0.07386784
v -0.00355296 0.05256083 0.02115597
v 0.03889478 0.01581315 -0.19183071
v 0.03776630 0.04121986 -0.12816560
v -0.00036970 0.05758569 0.01020822
v -0.03746463 0.00198022 -0.19888635
v -0.03974040 0.04187950 -0.06845560
v 0.02615180 0.02948656 -0.19813038
v -0.04431849 0.01866941 -0.12324637
v -0.02435766 0.05314933 -0.00083539
v 0.00829304 0.03487357 -0.19917668
v 0.03358429 0.02469019 -0.19253188
v -0.03660721 0.01463615 -0.19809753
v -0.01557985 0.05473806 0.01028491
v -0.03991742 0.01347640 -0.19162254
v -0.04203276 0.03308006 -0.12231512
v -0.02703559 0.02621587 -0.19865628
v -0.03273607 0.05033511 -0.06043857
v 0.03104188 0.04819776 -0.12833542
v 0.01209890 0.05591290 -0.11050459
v 0.00224793 0.05950640 -0.00586966
v -0.03297837 0.04960972 -0.11319976
v 0.02385169 0.05226659 -0.12687828
v -0.03067715 0.02841950 -0.19243328
v 0.01358473 0.03830755 -0.19518872
v -0.03529728 0.04412139 -0.12868053
v -0.01770626 0.05650355 -0.01419071
v -0.01461732 0.03661966 -0.19809753
v 0.01086366 0.05381597 -0.12980078
v -0.01402542 0.05586386 -0.10952677
v 0.00420728 0.04154860 -0.19225252
v -0.02520734 0.05330858 -0.11566074
v -0.01993003 0.03655500 -0.19306873
v -0.00400518 0.04178033 -0.19194026
v -0.01280982 0.05398870 -0.12833679
v -0.02283864 0.04789219 -0.14584441
v 0.00557797 0.02279524 -0.13842115
v 0.00557797 0.02471475 -0.13842115
v 0.00669981 0.02279524 -0.13842115
v 0.00557797 0.02279524 -0.05843995
v 0.00669981 0.02471475 -0.13842115
v 0.00557797 0.02471475 -0.05775290
v 0.00669981 0.02279524 -0.05843995
v 0.00557797 0.02280896 -0.05843205
v 0.00669981 0.02471475 -0.05774501
f 1 2 24
f 1 24 28
f 1 28 38
f 1 38 46
f 1 46 57
f 1 57 40
f 1 40 22
f 1 22 7
f 1 4 3
f 1 3 5
f 4 1 7
f 4 7 6
f 5 2 1
f 8 2 5
f 3 10 5
f 9 3 4
f 6 11 4
f 7 12 6
f 4 11 9
f 5 10 8
f 3 9 14
f 3 14 15
f 3 15 10
f 6 12 11
f 7 16 12
f 10 15 18
f 2 8 13
f 15 17 18
f 9 11 19
f 11 12 21
f 11 21 19
f 16 7 22
f 12 16 20
f 19 23 9
f 10 18 8
f 13 24 2
f 12 20 21
f 13 8 25
f 24 13 25
f 23 14 9
f 14 26 15
f 24 25 27
f 24 27 28
f 20 29 21
f 20 16 29
f 23 19 30
f 15 26 17
f 21 30 19
f 22 31 16
f 18 25 8
f 27 25 34
f 27 34 33
f 27 35 28
f 29 36 21
f 21 36 30
f 22 37 31
f 16 31 29
f 23 32 14
f 14 32 26
f 27 33 35
f 25 18 34
f 28 35 45
f 28 45 38
f 36 39 30
f 22 40 37
f 37 41 31
f 35 33 44
f 35 44 43
f 35 49 45
f 31 41 29
f 26 42 47
f 26 48 17
f 17 48 18
f 18 48 34
f 33 34 44
f 35 43 49
f 45 50 38
f 40 51 37
f 39 23 30
f 23 39 32
f 42 26 32
f 26 47 48
f 44 34 48
f 45 49 53
f 45 54 50
f 50 46 38
f 41 55 29
f 37 51 41
f 51 40 56
f 43 44 58
f 44 48 47
f 45 53 59
f 45 59 54
f 50 54 60
f 50 60 61
f 50 61 46
f 36 29 55
f 39 36 62
f 40 57 56
f 51 56 63
f 32 39 52
f 32 52 42
f 58 64 49
f 58 49 43
f 44 47 58
f 46 66 57
f 51 63 68
f 51 67 55
f 51 55 41
f 58 47 69
f 53 49 64
f 59 53 70
f 59 60 54
f 55 62 36
f 51 68 67
f 39 62 71
f 52 71 72
f 52 39 71
f 52 72 73
f 52 69 42
f 42 69 47
f 58 69 64
f 53 64 70
f 70 60 59
f 61 66 46
f 67 68 76
f 64 69 74
f 64 74 70
f 65 60 70
f 60 65 75
f 60 75 61
f 67 62 55
f 73 69 52
f 74 73 65
f 70 74 65
f 68 63 61
f 68 75 76
f 66 61 63
f 63 56 66
f 68 61 75
f 76 75 77
f 73 74 69
f 66 56 57
f 62 67 71
f 67 76 77
f 72 65 73
f 65 72 77
f 65 77 75
f 77 71 67
f 71 77 72
f 78 80 81
f 78 83 80
f 81 80 84
f 78 81 79
f 79 82 78
f 78 82 83
f 81 86 85
f 81 85 87
f 81 87 79
f 84 80 89
f 81 84 90
f 81 90 86
f 87 91 79
f 88 92 96
f 88 79 91
f 88 91 97
f 88 97 92
f 88 82 79
f 82 93 83
f 86 90 94
f 85 95 87
f 87 95 91
f 92 97 98
f 92 98 99
f 91 95 100
f 91 100 97
f 88 101 82
f 84 89 90
f 92 103 104
f 92 104 96
f 92 99 105
f 92 105 103
f 97 100 98
f 98 100 106
f 98 106 107
f 98 107 108
f 98 108 99
f 88 96 109
f 88 109 101
f 80 83 89
f 99 111 112
f 100 95 113
f 82 101 93
f 94 90 115
f 86 102 85
f 85 113 95
f 105 110 103
f 100 113 117
f 100 117 106
f 107 117 118
f 107 118 108
f 108 118 111
f 108 111 99
f 111 119 112
f 105 99 112
f 113 120 117
f 96 124 135
f 96 135 129
f 96 129 109
f 101 109 93
f 93 109 114
f 93 114 121
f 83 93 89
f 94 116 86
f 86 116 102
f 102 123 85
f 103 110 104
f 110 124 104
f 106 117 107
f 111 125 119
f 109 126 114
f 121 122 93
f 89 122 90
f 96 104 124
f 111 118 128
f 109 129 126
f 114 130 121
f 121 130 122
f 89 93 122
f 122 115 90
f 94 115 116
f 113 85 120
f 110 131 124
f 128 125 111
f 114 126 130
f 112 127 105
f 110 105 127
f 110 127 134
f 110 133 131
f 124 131 135
f 118 117 120
f 128 136 125
f 130 137 122
f 115 138 116
f 123 102 139
f 85 123 120
f 110 134 133
f 120 132 118
f 130 126 137
f 122 137 115
f 115 141 138
f 133 142 131
f 118 132 128
f 136 140 125
f 125 134 119
f 112 119 127
f 129 143 126
f 115 137 141
f 138 102 116
f 133 134 144
f 133 144 142
f 142 135 131
f 129 146 143
f 141 147 138
f 102 138 139
f 139 138 148
f 139 148 123
f 127 119 134
f 135 146 129
f 132 120 123
f 140 136 145
f 143 146 149
f 143 137 126
f 143 141 137
f 128 145 136
f 140 145 150
f 143 149 141
f 148 145 123
f 134 140 144
f 146 135 151
f 146 152 149
f 128 132 145
f 125 140 134
f 149 152 147
f 149 147 141
f 135 142 151
f 132 123 145
f 152 153 147
f 138 153 148
f 140 154 144
f 144 151 142
f 151 154 146
f 151 144 154
f 146 154 152
f 148 150 145
f 152 154 153
f 147 153 138
f 154 150 153
f 154 140 150
f 153 150 148
f 155 156 159
f 155 159 157
f 155 157 161
f 155 161 158
f 155 158 162
f 155 162 160
f 155 160 156
f 156 160 163
f 156 163 159
f 157 159 163
f 157 163 161
f 158 161 162
f 160 162 163
f 161 163 162

