# Blender v3.0.1 OBJ File: ''
# www.blender.org
mtllib arml4.mtl
o left_j4
v -0.043405 0.002126 0.043774
v -0.043457 0.002935 0.035369
v -0.043422 -0.006317 0.042172
v -0.042637 -0.007548 0.035356
v -0.034799 0.123266 0.034589
v -0.039304 -0.018106 0.043829
v -0.028434 0.122457 0.048840
v -0.032647 0.124092 0.040653
v -0.033650 -0.004310 0.049773
v 0.033768 0.115005 -0.000147
v 0.034936 0.108116 -0.000147
v -0.032557 0.124886 0.034589
v 0.029216 0.124902 0.013596
v 0.039222 0.124853 0.013596
v 0.039008 0.115005 -0.000147
v 0.039033 0.108116 -0.000147
v -0.039360 -0.018213 0.035330
v -0.039955 -0.017575 0.039597
v -0.031518 0.004166 0.050826
v -0.025875 0.119797 0.050156
v -0.016470 0.123944 0.050406
v -0.026704 0.124840 0.045431
v 0.040762 0.119078 0.011151
v 0.004999 -0.043079 0.035317
v -0.005980 -0.043021 0.035356
v -0.015117 -0.040588 0.035328
v -0.026017 -0.034702 0.035353
v -0.034709 -0.025966 0.035366
v -0.016276 0.119797 0.051762
v 0.002081 0.124282 0.050908
v 0.043379 -0.004533 0.035452
v 0.041833 -0.011654 0.035343
v 0.036817 -0.023071 0.035353
v 0.032609 -0.028812 0.035387
v 0.026029 -0.034711 0.035351
v 0.013566 -0.041344 0.035364
v -0.028909 -0.015396 0.050494
v 0.030045 0.124819 0.042932
v 0.043821 0.000820 0.039183
v 0.040077 0.123622 0.019707
v 0.043405 0.002175 0.043779
v -0.021681 -0.037916 0.037613
v -0.031213 -0.030778 0.041267
v -0.028357 -0.032934 0.043743
v -0.019760 0.009199 0.052063
v -0.006264 0.119797 0.052732
v 0.000414 0.119380 0.052894
v 0.038475 0.124109 0.025626
v 0.042424 -0.010287 0.042016
v 0.004442 -0.043036 0.043810
v -0.005131 -0.043017 0.043805
v -0.013403 -0.041328 0.043779
v -0.023513 -0.036354 0.043837
v 0.028443 0.122457 0.048840
v 0.031904 0.124192 0.042515
v 0.032153 0.006240 0.050661
v 0.033592 -0.027290 0.043722
v 0.028374 -0.032934 0.043759
v 0.018561 -0.039692 0.041857
v 0.013412 -0.041328 0.043785
v 0.031136 -0.009266 0.050562
v 0.040551 -0.014805 0.043824
v -0.000829 0.016252 0.052986
v 0.011677 0.122292 0.052112
v 0.025866 0.119797 0.050146
v 0.016388 0.120045 0.051758
v -0.018214 -0.030847 0.048660
v -0.009690 -0.009954 0.052299
v 0.025110 -0.021319 0.050474
v 0.002250 -0.032910 0.050429
v 0.007090 0.119797 0.052675
v 0.004227 -0.007186 0.052507
v -0.010088 -0.031282 0.050453
v 0.019004 0.013484 0.052155
v 0.024518 -0.010704 0.051388
v -0.007194 -0.029049 0.051019
v 0.011679 -0.029537 0.050756
v -0.024497 0.041411 -0.001057
v -0.021348 0.047665 -0.021697
v -0.021108 0.041259 -0.010491
v -0.023896 0.041239 0.031982
v -0.024497 0.042173 0.014045
v -0.024497 0.105886 0.014045
v -0.024497 0.105902 -0.001057
v -0.021348 0.050513 -0.022862
v -0.018037 0.042940 -0.017368
v 0.021714 0.041304 -0.010495
v 0.027542 0.041214 0.021043
v -0.023896 0.105820 0.031982
v -0.009526 0.124902 -0.015513
v -0.009526 0.124910 -0.025355
v -0.021348 0.105960 -0.022828
v -0.018180 0.049706 -0.024606
v 0.030792 0.041966 -0.000069
v 0.030041 0.041624 0.021043
v 0.010797 0.044813 0.034586
v -0.014179 0.043706 0.034586
v -0.014179 0.104640 0.034586
v 0.034227 0.124919 -0.005488
v 0.017121 0.124835 -0.022601
v -0.009526 0.123156 -0.027663
v 0.018068 0.042919 -0.017390
v -0.008457 0.045534 -0.024705
v 0.010213 0.045516 -0.024293
v 0.026248 0.041780 -0.007749
v 0.034967 0.043944 0.021043
v 0.039844 0.049722 0.021043
v 0.010797 0.104640 0.034586
v 0.029219 0.124902 0.013585
v 0.007110 0.124123 -0.028123
v -0.014563 0.105960 -0.026190
v -0.013584 0.048763 -0.026439
v 0.039844 0.106001 0.021043
v 0.040619 0.123775 0.013585
v 0.039230 0.124861 0.013585
v 0.000005 0.123156 -0.028857
v -0.005832 0.123156 -0.028434
v -0.003583 0.048555 -0.028254
v 0.035293 0.043706 0.006189
v 0.040244 0.048628 0.017665
v 0.040568 0.051386 0.017038
v -0.001040 0.050544 -0.028840
v -0.006679 0.050526 -0.028288
v 0.007745 0.049333 -0.028069
v 0.016166 0.048686 -0.025238
v 0.020483 0.044583 -0.018579
v 0.027327 0.045935 -0.014674
v 0.031669 0.045147 -0.007906
v 0.040832 0.050554 0.012653
v 0.040055 0.123156 0.003772
v 0.040715 0.123156 0.008685
v 0.005849 0.123156 -0.028434
v 0.004801 0.050961 -0.028587
v 0.038481 0.124107 -0.001542
v 0.032344 0.124187 -0.012432
v 0.024431 0.123599 -0.020678
v 0.019856 0.123681 -0.023557
v 0.025244 0.048673 -0.019851
v 0.037540 0.046386 0.002445
v 0.040254 0.048600 0.006398
v 0.017300 0.123156 -0.024997
v 0.012532 0.123156 -0.026855
v 0.010810 0.051378 -0.027440
v 0.019806 0.050550 -0.023720
v 0.033443 0.048796 -0.011411
v 0.040345 0.050958 0.005423
v 0.033475 0.123156 -0.011461
v 0.029744 0.123156 -0.016017
v 0.036657 0.114812 -0.006172
v 0.031699 0.051378 -0.013820
v 0.027623 0.051378 -0.018094
v 0.038474 0.048747 -0.001548
v 0.039422 0.051378 0.001180
v 0.035994 0.050538 -0.007302
v -0.032259 0.114831 0.039714
v -0.031160 0.050475 0.039668
v -0.020163 0.050475 0.039668
v -0.019260 0.114831 0.039714
v -0.019214 0.039678 0.039165
v -0.014198 0.043700 0.034582
v -0.014191 0.104643 0.034582
v -0.014766 0.123150 0.034582
v -0.015815 0.124443 0.034582
v -0.019214 0.124902 0.034582
v -0.032563 0.124902 0.034582
v -0.034060 0.124443 0.034582
v -0.034894 0.121481 0.034582
v -0.036806 0.050135 0.029728
v -0.031297 0.039678 0.039165
v -0.009175 0.107130 -0.027832
v -0.009175 0.107138 -0.023534
v -0.009539 0.118152 -0.013257
v -0.009539 0.123809 -0.013608
v -0.009539 0.124910 -0.015512
v -0.038483 0.124101 0.025615
v -0.038084 0.051389 0.026782
v -0.038461 0.048790 0.025549
v -0.040143 0.048773 0.019127
v -0.037292 0.045018 0.010355
v -0.021355 0.041289 -0.010499
v -0.014194 0.043775 0.031970
v -0.009539 0.124677 -0.026262
v -0.019216 0.124883 -0.021763
v -0.030677 0.124894 -0.011543
v -0.038402 0.124799 0.019547
v -0.040292 0.124247 0.016434
v -0.040038 0.123150 0.020225
v -0.035286 0.043708 0.006192
v -0.031376 0.042179 -0.000057
v -0.021355 0.042152 -0.013991
v -0.021355 0.044680 -0.018085
v -0.021355 0.049674 -0.022840
v -0.038213 0.124612 0.000761
v -0.039398 0.051393 0.022884
v -0.028389 0.041397 -0.002712
v -0.040454 0.051385 0.017878
v -0.040714 0.050554 0.015368
v -0.040848 0.050542 0.011819
v -0.027871 0.042144 -0.006653
v -0.014576 0.105970 -0.026192
v -0.009539 0.123158 -0.027667
v -0.040095 0.123625 0.004324
v -0.040779 0.123158 0.014538
v -0.040156 0.048748 0.004949
v -0.034981 0.045594 -0.002782
v -0.024217 0.043871 -0.014659
v -0.025674 0.048681 -0.019442
v -0.023534 0.051385 -0.021451
v -0.020978 0.122324 -0.023064
v -0.017308 0.123158 -0.025002
v -0.018748 0.124218 -0.024053
v -0.040714 0.123158 0.008689
v -0.038349 0.047263 0.002244
v -0.031295 0.044286 -0.006723
v -0.026761 0.050548 -0.018863
v -0.024371 0.124122 -0.020631
v -0.033448 0.124067 -0.011419
v -0.038483 0.124109 -0.001545
v -0.040457 0.051385 0.006047
v -0.030000 0.045586 -0.011260
v -0.025850 0.123158 -0.019632
v -0.033442 0.048815 -0.011405
v -0.029948 0.050550 -0.015816
v -0.029754 0.123158 -0.016021
v -0.035335 0.123158 -0.008449
v -0.038476 0.048756 -0.001532
v -0.039304 0.080173 0.000773
v -0.033490 0.083104 -0.011478
v -0.036654 0.114814 -0.006161
v -0.037715 0.051376 -0.003698
v -0.035126 0.050546 -0.008872
vn -1.0000 0.0009 0.0062
vn -0.9919 -0.0775 -0.1004
vn -0.9973 0.0718 0.0130
vn -0.6786 -0.1356 0.7219
vn -0.8782 0.0895 0.4698
vn -0.5105 0.0273 0.8595
vn -0.9424 0.0914 0.3219
vn -0.4492 0.0265 -0.8930
vn -0.3828 -0.0288 -0.9234
vn -0.3426 -0.0581 -0.9377
vn -0.5739 -0.1142 0.8109
vn -0.5828 0.8068 0.0968
vn -0.3487 0.4828 -0.8033
vn -0.2096 0.7592 -0.6162
vn 0.0040 0.8121 -0.5835
vn 0.0000 0.8129 -0.5825
vn 0.0000 0.0000 -1.0000
vn -0.3004 -0.0900 -0.9496
vn -0.9578 -0.2813 -0.0596
vn -0.9433 -0.3147 0.1057
vn -0.4352 0.0265 0.8999
vn -0.5301 0.0280 0.8475
vn -0.1610 0.3088 0.9374
vn -0.1712 0.8462 0.5046
vn -0.5292 0.7978 0.2890
vn 0.1282 0.9831 0.1305
vn 0.0010 1.0000 0.0037
vn 0.0050 0.9999 0.0106
vn 0.8974 0.3520 -0.2662
vn 0.0000 -0.2284 -0.9736
vn -0.0047 -0.2275 -0.9738
vn -0.0542 -0.2144 -0.9752
vn -0.1081 -0.1961 -0.9746
vn -0.1707 -0.1684 -0.9708
vn -0.2242 -0.1390 -0.9646
vn -0.9522 -0.2923 -0.0891
vn -0.1574 0.3003 0.9408
vn -0.0239 0.9742 0.2246
vn 0.7814 -0.1604 -0.6030
vn 0.5236 -0.2308 -0.8201
vn 0.3356 -0.2513 -0.9079
vn 0.2334 -0.2545 -0.9385
vn 0.1323 -0.2504 -0.9591
vn 0.0538 -0.2395 -0.9694
vn -0.8567 -0.5141 -0.0426
vn -0.5030 -0.1598 0.8494
vn -0.1650 0.0138 0.9862
vn 0.0004 1.0000 0.0013
vn 0.9975 0.0397 0.0588
vn 0.9961 0.0427 0.0775
vn 0.9879 0.0037 -0.1547
vn 0.9550 0.2867 -0.0758
vn 0.9929 0.0008 -0.1186
vn -0.4507 -0.8333 -0.3202
vn -0.5977 -0.8017 0.0067
vn -0.7006 -0.6969 -0.1532
vn -0.4456 -0.3338 0.8307
vn -0.8358 -0.5458 0.0602
vn -0.7438 -0.5513 0.3779
vn -0.1072 0.0061 0.9942
vn -0.0918 0.3057 0.9477
vn 0.0111 0.5098 0.8602
vn 0.2345 0.9692 0.0745
vn 0.0039 0.9967 0.0809
vn 0.5665 0.8195 0.0858
vn 0.9896 -0.0084 -0.1433
vn 0.9925 -0.1133 0.0452
vn 0.9765 -0.2113 -0.0431
vn 0.9155 -0.4022 0.0014
vn -0.0053 -1.0000 0.0048
vn -0.0019 -1.0000 0.0007
vn -0.2571 -0.9658 -0.0324
vn -0.3783 -0.9257 -0.0043
vn -0.5769 -0.8161 0.0350
vn -0.6004 -0.7997 -0.0039
vn -0.8356 -0.5471 0.0489
vn -0.2682 -0.0521 0.9620
vn -0.0964 0.0057 0.9953
vn 0.0941 0.9153 0.3915
vn 0.3737 0.8219 0.4299
vn 0.3430 0.9305 0.1289
vn 0.9640 0.0769 0.2545
vn 0.9282 0.0912 0.3607
vn 0.8637 0.0866 0.4964
vn 0.5294 0.0302 0.8478
vn 0.9886 -0.0944 0.1172
vn 0.8065 -0.5911 0.0128
vn 0.7339 -0.6782 0.0373
vn 0.6673 -0.7442 -0.0289
vn 0.4654 -0.8747 -0.1354
vn 0.3053 -0.9522 0.0075
vn 0.1871 -0.9822 0.0173
vn -0.2001 -0.9796 0.0206
vn -0.0922 -0.0292 0.9953
vn -0.0320 0.3845 0.9226
vn 0.5111 -0.0390 0.8587
vn 0.9201 -0.3909 -0.0242
vn 0.8696 -0.4855 0.0904
vn 0.5649 -0.8250 0.0167
vn 0.1984 -0.9801 0.0056
vn -0.4390 -0.8935 0.0950
vn -0.0241 0.0012 0.9997
vn 0.1008 0.8235 0.5582
vn 0.1808 0.2867 0.9408
vn 0.4288 0.0278 0.9030
vn 0.8416 -0.1401 0.5216
vn -0.0357 0.3855 0.9220
vn 0.1694 0.2033 0.9644
vn 0.5444 -0.0893 0.8341
vn 0.4258 -0.7576 0.4948
vn -0.3204 -0.4307 0.8437
vn -0.0844 -0.0321 0.9959
vn -0.0487 -0.0001 0.9988
vn 0.1680 0.0138 0.9857
vn 0.4751 -0.2717 0.8370
vn 0.1030 -0.5285 0.8426
vn -0.0015 -0.5474 0.8369
vn -0.3506 -0.3460 0.8702
vn 0.0327 0.0005 0.9995
vn 0.0799 -0.0031 0.9968
vn 0.0207 0.1838 0.9827
vn 0.0968 0.0464 0.9942
vn 0.4676 -0.2400 0.8507
vn -0.0660 -0.5128 0.8560
vn -0.1098 -0.5246 0.8442
vn -0.2404 -0.4983 0.8330
vn 0.0980 0.0061 0.9952
vn 0.1165 0.0066 0.9932
vn 0.1270 -0.0147 0.9918
vn 0.4055 -0.3694 0.8361
vn -0.1677 -0.2299 0.9587
vn -0.0718 -0.0760 0.9945
vn -0.0446 -0.0111 0.9989
vn 0.1093 -0.0066 0.9940
vn 0.1400 -0.0772 0.9871
vn 0.2444 -0.4329 0.8677
vn -0.2127 -0.4910 0.8448
vn -0.2139 0.0296 0.9764
vn 0.2953 -0.4537 0.8408
vn 0.1447 -0.4877 0.8609
vn -0.0263 -0.2134 0.9766
vn -0.0105 -0.0227 0.9997
vn 0.0265 -0.0019 0.9996
vn 0.0106 -0.1256 0.9920
vn 0.0516 -0.0199 0.9985
vn -0.0016 -0.0671 0.9977
vn 0.0404 -0.0835 0.9957
vn 0.0571 -0.0591 0.9966
vn 0.0120 -0.0741 0.9972
vn -0.8055 -0.5217 -0.2810
vn -0.0563 -0.9984 -0.0042
vn -0.9503 -0.3108 0.0157
vn -1.0000 0.0000 0.0000
vn -0.9897 0.0000 -0.1429
vn -0.9828 -0.0700 -0.1712
vn -0.5215 -0.7455 -0.4150
vn 0.0011 -1.0000 -0.0004
vn -0.0010 -1.0000 -0.0027
vn -0.9994 0.0000 0.0335
vn -0.7853 0.6192 0.0005
vn -0.8493 0.5137 -0.1215
vn -0.9897 0.0001 -0.1432
vn -0.5181 -0.3239 -0.7916
vn 0.0010 -0.9715 -0.2369
vn 0.1618 -0.9868 -0.0102
vn 0.1469 -0.8957 0.4196
vn 0.0713 -0.9386 0.3376
vn -0.2589 0.0000 0.9659
vn -0.7638 0.6448 0.0280
vn -0.7852 0.6192 0.0007
vn -0.0006 1.0000 0.0008
vn 0.0037 1.0000 -0.0086
vn -0.8148 0.4616 -0.3507
vn -0.0007 -0.9737 -0.2277
vn 0.0063 -0.9453 -0.3261
vn -0.0007 -0.9363 -0.3513
vn 0.3165 -0.8727 -0.3717
vn 0.1191 -0.9926 -0.0248
vn 0.0801 -0.9965 -0.0232
vn 0.0349 -0.7872 0.6157
vn 0.3297 -0.7001 0.6334
vn 0.4431 -0.3740 0.8148
vn 0.4226 0.0000 0.9063
vn 0.0000 0.0000 1.0000
vn -0.0693 0.7857 0.6148
vn -0.2275 0.9254 0.3030
vn -0.0005 1.0000 0.0007
vn -0.0629 0.7947 -0.6037
vn -0.4434 0.0532 -0.8947
vn -0.4820 0.0005 -0.8762
vn -0.4084 -0.4760 -0.7789
vn -0.2671 -0.7460 -0.6101
vn -0.2645 -0.7473 -0.6096
vn 0.3837 0.3430 0.8574
vn 0.3276 0.4189 0.8469
vn 0.0000 0.7196 0.6943
vn 0.0041 1.0000 0.0019
vn 0.0029 0.7183 0.6957
vn -0.0640 0.8573 -0.5109
vn 0.0000 1.0000 -0.0000
vn 0.0133 -0.7703 -0.6376
vn 0.4259 -0.9044 0.0238
vn 0.3631 -0.9317 -0.0022
vn 0.7321 -0.6179 0.2869
vn 0.9862 -0.0829 0.1436
vn 0.0196 0.9865 -0.1626
vn -0.0722 0.0008 -0.9974
vn -0.2043 0.0004 -0.9789
vn -0.4440 0.0033 -0.8960
vn -0.3709 -0.0023 -0.9287
vn -0.2586 -0.0002 -0.9660
vn -0.1766 -0.2937 -0.9394
vn -0.1498 -0.6417 -0.7522
vn 0.2079 -0.6166 -0.7593
vn 0.2509 -0.7768 -0.5777
vn 0.2849 -0.7226 -0.6298
vn 0.3863 -0.8372 -0.3872
vn 0.3910 -0.8148 -0.4280
vn 0.4760 -0.7849 -0.3968
vn 0.9921 -0.0984 0.0784
vn 0.9841 0.0000 0.1777
vn 0.6138 0.7849 -0.0847
vn 0.6323 0.7700 -0.0849
vn 0.0703 0.2208 -0.9728
vn 0.0721 0.0011 -0.9974
vn -0.0975 -0.0009 -0.9952
vn -0.2730 -0.0024 -0.9620
vn -0.0956 -0.1672 -0.9813
vn 0.0587 -0.6825 -0.7285
vn 0.9982 0.0021 0.0597
vn 0.9934 0.0048 0.1145
vn 0.9998 0.0027 0.0193
vn 0.2407 0.9687 -0.0602
vn 0.3530 0.9156 -0.1922
vn 0.1353 0.9809 -0.1400
vn 0.2332 0.9282 -0.2900
vn 0.1984 0.8599 -0.4704
vn 0.0434 -0.0008 -0.9991
vn 0.0379 -0.3269 -0.9443
vn 0.0572 -0.2075 -0.9766
vn 0.3861 -0.6523 -0.6522
vn 0.5012 -0.8199 -0.2766
vn 0.5887 -0.7816 -0.2062
vn 0.7014 -0.7122 0.0268
vn 0.6647 -0.7471 0.0025
vn 0.9576 -0.2879 0.0015
vn 0.6781 0.7316 -0.0700
vn 0.2486 0.8953 -0.3695
vn 0.2828 0.6236 -0.7288
vn 0.2299 0.0130 -0.9731
vn 0.3029 -0.1650 -0.9386
vn 0.3825 0.0054 -0.9239
vn 0.4533 -0.6995 -0.5524
vn 0.5627 -0.6984 -0.4423
vn 0.7015 -0.7075 -0.0855
vn 0.9959 -0.0034 -0.0909
vn 0.9973 -0.0084 0.0730
vn 0.7812 0.4458 -0.4370
vn 0.5548 0.6010 -0.5753
vn 0.2816 0.6312 -0.7227
vn 0.2299 0.0024 -0.9732
vn 0.1731 -0.0004 -0.9849
vn 0.3818 -0.0031 -0.9242
vn 0.4891 -0.2834 -0.8249
vn 0.5934 -0.7668 -0.2448
vn 0.9911 0.0009 -0.1330
vn 0.8896 0.0515 -0.4539
vn 0.7501 0.2444 -0.6145
vn 0.7736 0.0017 -0.6337
vn 0.7237 -0.0014 -0.6901
vn 0.6596 0.0023 -0.7516
vn 0.4907 0.0016 -0.8713
vn 0.2009 0.0003 -0.9796
vn 0.3631 -0.0011 -0.9318
vn 0.5791 -0.0027 -0.8152
vn 0.5958 -0.0024 -0.8031
vn 0.5763 -0.6035 -0.5511
vn 0.6380 -0.7190 -0.2757
vn 0.6701 -0.6572 -0.3451
vn 0.7677 -0.6140 -0.1833
vn 0.9673 -0.1279 -0.2190
vn 0.9589 0.0018 -0.2838
vn 0.8571 0.0002 -0.5152
vn 0.5326 0.0015 -0.8463
vn 0.7090 -0.1613 -0.6865
vn 0.8678 -0.2238 -0.4438
vn 0.9678 -0.1180 -0.2223
vn 0.9771 -0.0009 -0.2127
vn 0.9304 -0.0000 -0.3665
vn 0.8498 -0.0007 -0.5271
vn 0.7112 -0.1851 -0.6782
vn 0.9447 -0.0001 -0.3280
vn 0.9180 -0.0025 -0.3965
vn 0.8095 -0.0007 -0.5871
vn 0.0000 -0.0007 1.0000
vn 0.4098 -0.0064 0.9121
vn 0.6767 -0.0050 0.7363
vn 0.7114 -0.0001 0.7028
vn 0.7335 0.0228 0.6793
vn 0.3935 0.3192 0.8621
vn 0.0612 0.4529 0.8894
vn 0.0000 0.4540 0.8910
vn -0.1369 0.4465 0.8843
vn -0.7349 0.2071 0.6458
vn -0.8930 -0.0067 0.4499
vn -0.8706 -0.0147 0.4918
vn -0.8389 -0.0147 0.5440
vn 0.0000 -0.0465 0.9989
vn 0.9969 -0.0788 0.0002
vn 0.9979 -0.0236 0.0605
vn 0.9953 -0.0001 0.0968
vn 0.9951 0.0061 0.0985
vn 0.9937 0.0308 0.1082
vn 0.9762 0.1876 0.1085
vn 0.7725 0.6267 0.1026
vn 0.1338 0.9907 0.0260
vn -0.8730 0.2461 0.4212
vn -0.9178 -0.0024 0.3971
vn -0.9093 -0.1194 0.3985
vn -0.9040 -0.3554 0.2377
vn -0.7543 -0.6556 0.0355
vn 0.5862 -0.8086 -0.0515
vn 0.6131 -0.7897 -0.0220
vn 0.9968 -0.0800 -0.0011
vn 0.9998 0.0218 -0.0000
vn 0.9994 0.0021 0.0331
vn 0.9999 0.0146 0.0084
vn 0.9998 0.0207 -0.0005
vn 0.0112 0.9997 -0.0217
vn -0.0012 1.0000 -0.0024
vn -0.0008 1.0000 -0.0002
vn 0.0000 1.0000 0.0002
vn -0.2916 0.9506 0.1067
vn -0.2878 0.9519 0.1056
vn -0.8882 0.4220 0.1818
vn -0.9235 -0.0467 0.3807
vn -0.5865 -0.8095 -0.0280
vn -0.4404 -0.8961 -0.0562
vn 0.0000 -0.9995 -0.0324
vn 0.8696 -0.4793 -0.1186
vn 0.9628 -0.2298 -0.1419
vn 0.9671 -0.2108 -0.1422
vn 0.9473 -0.2210 -0.2321
vn -0.2616 0.9651 -0.0122
vn 0.0077 0.9999 -0.0099
vn -0.4240 0.9003 0.0979
vn -0.9609 0.0017 0.2769
vn -0.9283 0.0009 0.3717
vn -0.3024 -0.9513 -0.0600
vn -0.0657 -0.9968 -0.0455
vn -0.9475 -0.0141 0.3195
vn -0.9635 -0.0883 0.2527
vn -0.9783 -0.0176 0.2063
vn -0.9907 -0.0591 0.1225
vn -0.9718 -0.2327 0.0374
vn -0.2490 -0.9451 -0.2118
vn -0.2599 -0.9374 -0.2318
vn -0.2912 0.0033 -0.9567
vn 0.9994 0.0229 -0.0247
vn -0.2860 -0.0226 -0.9579
vn -0.0403 0.9992 -0.0018
vn -0.5389 0.8408 -0.0519
vn -0.8856 0.4628 -0.0382
vn -0.9993 -0.0005 0.0376
vn -0.9947 0.0003 0.1032
vn -0.9688 0.2130 0.1267
vn -0.9916 0.0015 0.1293
vn -0.9476 -0.0001 0.3195
vn -0.7944 -0.6073 0.0018
vn -0.9311 -0.3648 0.0015
vn -0.5990 -0.7793 -0.1841
vn -0.4270 -0.8766 -0.2221
vn -0.3620 -0.7931 -0.4898
vn -0.3803 -0.6377 -0.6698
vn -0.5374 0.0002 -0.8433
vn -0.4668 -0.0003 -0.8844
vn -0.4188 -0.0037 -0.9081
vn -0.1190 0.9467 -0.2994
vn -0.6336 0.7737 -0.0071
vn -0.9999 0.0014 -0.0111
vn -0.9785 -0.0011 0.2063
vn -0.6906 -0.7151 -0.1079
vn -0.5075 -0.8198 -0.2652
vn -0.5552 -0.7911 -0.2567
vn -0.4139 -0.8324 -0.3685
vn -0.3006 0.3763 -0.8764
vn -0.2054 0.6647 -0.7183
vn -0.6049 -0.1076 -0.7890
vn -0.5974 -0.1168 -0.7934
vn -0.5820 0.0025 -0.8132
vn -0.4844 0.1179 -0.8668
vn -0.1809 0.9682 -0.1726
vn -0.2839 0.9042 -0.3192
vn -0.2886 0.9454 -0.1512
vn -0.3091 0.9361 -0.1679
vn -0.9936 -0.0805 -0.0791
vn -0.7156 -0.6916 -0.0981
vn -0.6382 -0.7488 -0.1790
vn -0.9977 -0.0011 -0.0678
vn -0.4625 -0.7994 -0.3836
vn -0.3244 0.0139 -0.9458
vn -0.4662 -0.6908 -0.5527
vn -0.6256 -0.0004 -0.7802
vn -0.5609 0.0029 -0.8279
vn -0.5147 0.1671 -0.8409
vn -0.2055 0.9277 -0.3116
vn -0.6053 0.7895 -0.1012
vn -0.4881 -0.7922 -0.3664
vn -0.5111 -0.6789 -0.5271
vn -0.6898 -0.2934 -0.6619
vn -0.6804 -0.1756 -0.7115
vn -0.6910 0.0010 -0.7228
vn -0.6536 0.2707 -0.7068
vn -0.6010 0.5402 -0.5891
vn -0.8376 0.3389 -0.4285
vn -0.9680 -0.0061 -0.2508
vn -0.7859 -0.5837 -0.2044
vn -0.6972 -0.6744 -0.2432
vn -0.6258 -0.6840 -0.3747
vn -0.6789 -0.0003 -0.7342
vn -0.9643 0.0041 -0.2646
vn -0.9901 0.0016 -0.1403
vn -0.9681 -0.0071 -0.2505
vn -0.6342 -0.6803 -0.3673
vn -0.5654 -0.6269 -0.5361
vn -0.7834 -0.0024 -0.6215
vn -0.7736 0.0003 -0.6337
vn -0.7798 0.0017 -0.6261
vn -0.8442 0.0016 -0.5360
vn -0.9080 0.0289 -0.4179
vn -0.9767 -0.0002 -0.2147
vn -0.9432 -0.0005 -0.3321
vn -0.6937 -0.6254 -0.3574
vn -0.8731 -0.1963 -0.4463
vn -0.8670 0.0004 -0.4983
vn -0.9423 -0.0000 -0.3347
vn -0.8962 -0.0974 -0.4328
vn -0.8335 -0.0023 -0.5526
vn -0.8945 -0.0024 -0.4471
vn -0.8503 0.0006 -0.5262
vn -0.9289 0.0012 -0.3702
usemtl Default_OBJ.006
s off
f 1//1 2//1 3//1
f 2//2 4//2 3//2
f 1//3 5//3 2//3
f 1//4 3//4 6//4
f 1//5 7//5 8//5
f 1//6 9//6 7//6
f 1//7 8//7 5//7
f 5//8 10//8 2//8
f 2//9 10//9 4//9
f 4//10 10//10 11//10
f 6//11 9//11 1//11
f 5//12 8//12 12//12
f 5//13 12//13 10//13
f 10//14 12//14 13//14
f 10//15 13//15 14//15
f 10//16 14//16 15//16
f 10//17 15//17 16//17
f 10//17 16//17 11//17
f 4//18 11//18 17//18
f 4//19 18//19 3//19
f 3//20 18//20 6//20
f 7//21 19//21 20//21
f 7//22 9//22 19//22
f 20//23 21//23 7//23
f 7//24 21//24 22//24
f 22//25 12//25 7//25
f 7//26 12//26 8//26
f 12//27 22//27 13//27
f 13//28 22//28 14//28
f 15//29 14//29 23//29
f 11//30 16//30 24//30
f 11//31 24//31 25//31
f 11//32 25//32 26//32
f 11//33 26//33 27//33
f 11//34 27//34 28//34
f 11//35 28//35 17//35
f 4//36 17//36 18//36
f 20//37 29//37 21//37
f 22//38 21//38 30//38
f 16//39 31//39 32//39
f 16//40 32//40 33//40
f 16//41 33//41 34//41
f 16//42 34//42 35//42
f 16//43 35//43 36//43
f 16//44 36//44 24//44
f 17//45 28//45 18//45
f 6//46 37//46 9//46
f 20//47 19//47 29//47
f 22//48 38//48 14//48
f 39//49 23//49 40//49
f 39//50 40//50 41//50
f 23//51 16//51 15//51
f 23//52 14//52 40//52
f 31//53 16//53 39//53
f 26//54 42//54 27//54
f 27//55 42//55 43//55
f 28//56 27//56 43//56
f 44//57 37//57 6//57
f 6//58 18//58 43//58
f 6//59 43//59 44//59
f 45//60 29//60 19//60
f 21//61 29//61 46//61
f 21//62 46//62 47//62
f 14//63 38//63 48//63
f 38//64 22//64 30//64
f 14//65 48//65 40//65
f 39//66 16//66 23//66
f 31//67 39//67 49//67
f 31//68 49//68 32//68
f 32//69 49//69 33//69
f 24//70 50//70 25//70
f 25//71 50//71 51//71
f 25//72 52//72 26//72
f 26//73 52//73 42//73
f 42//74 53//74 44//74
f 42//75 44//75 43//75
f 28//76 43//76 18//76
f 37//77 19//77 9//77
f 29//78 45//78 46//78
f 38//79 30//79 54//79
f 38//80 54//80 55//80
f 38//81 55//81 48//81
f 41//82 40//82 48//82
f 41//83 48//83 55//83
f 41//84 55//84 54//84
f 41//85 54//85 56//85
f 39//86 41//86 49//86
f 33//87 57//87 34//87
f 34//88 57//88 58//88
f 34//89 58//89 35//89
f 35//90 59//90 36//90
f 36//91 59//91 60//91
f 24//92 60//92 50//92
f 25//93 51//93 52//93
f 19//94 37//94 45//94
f 21//95 47//95 30//95
f 41//96 56//96 61//96
f 49//97 62//97 33//97
f 33//98 62//98 57//98
f 58//99 59//99 35//99
f 60//100 24//100 36//100
f 52//101 53//101 42//101
f 46//102 63//102 47//102
f 54//103 30//103 64//103
f 54//104 64//104 65//104
f 54//105 65//105 56//105
f 41//106 62//106 49//106
f 30//107 47//107 64//107
f 64//108 66//108 65//108
f 61//109 62//109 41//109
f 58//110 60//110 59//110
f 44//111 53//111 67//111
f 37//112 68//112 45//112
f 46//113 45//113 63//113
f 66//114 56//114 65//114
f 57//115 62//115 69//115
f 50//116 60//116 70//116
f 50//117 70//117 51//117
f 67//118 37//118 44//118
f 47//119 63//119 71//119
f 63//120 72//120 71//120
f 47//121 71//121 64//121
f 64//122 71//122 66//122
f 62//123 61//123 69//123
f 51//124 70//124 73//124
f 51//125 73//125 52//125
f 53//126 52//126 67//126
f 71//127 74//127 66//127
f 66//128 74//128 56//128
f 61//129 56//129 75//129
f 57//130 69//130 58//130
f 37//131 67//131 76//131
f 37//132 76//132 68//132
f 63//133 45//133 68//133
f 56//134 74//134 75//134
f 75//135 69//135 61//135
f 58//136 69//136 60//136
f 52//137 73//137 67//137
f 73//138 76//138 67//138
f 60//139 69//139 77//139
f 77//140 70//140 60//140
f 73//141 70//141 76//141
f 63//142 68//142 72//142
f 72//143 74//143 71//143
f 77//144 76//144 70//144
f 72//145 75//145 74//145
f 76//146 72//146 68//146
f 75//147 72//147 69//147
f 69//148 72//148 77//148
f 77//149 72//149 76//149
f 78//150 79//150 80//150
f 78//151 80//151 81//151
f 78//152 81//152 82//152
f 78//153 82//153 83//153
f 78//153 83//153 84//153
f 78//154 84//154 85//154
f 78//155 85//155 79//155
f 79//156 86//156 80//156
f 80//157 87//157 81//157
f 81//158 87//158 88//158
f 82//159 81//159 89//159
f 82//159 89//159 83//159
f 84//160 90//160 91//160
f 84//161 91//161 92//161
f 84//162 92//162 85//162
f 85//163 93//163 79//163
f 80//164 86//164 87//164
f 88//165 94//165 95//165
f 88//166 95//166 96//166
f 88//167 96//167 81//167
f 81//168 97//168 98//168
f 81//168 98//168 89//168
f 83//169 89//169 90//169
f 83//170 90//170 84//170
f 91//171 90//171 99//171
f 91//172 99//172 100//172
f 91//173 101//173 92//173
f 86//174 102//174 87//174
f 86//175 103//175 104//175
f 86//176 104//176 102//176
f 87//177 102//177 105//177
f 87//178 105//178 88//178
f 88//179 105//179 94//179
f 81//180 96//180 97//180
f 96//181 95//181 106//181
f 96//182 106//182 107//182
f 96//183 107//183 108//183
f 97//184 96//184 108//184
f 97//184 108//184 98//184
f 89//185 98//185 109//185
f 89//186 109//186 90//186
f 90//187 109//187 99//187
f 91//188 110//188 101//188
f 101//189 111//189 92//189
f 85//190 92//190 93//190
f 79//191 93//191 112//191
f 79//192 112//192 86//192
f 86//193 112//193 103//193
f 108//183 107//183 113//183
f 108//194 113//194 114//194
f 108//195 114//195 115//195
f 98//196 108//196 109//196
f 109//197 115//197 99//197
f 109//198 108//198 115//198
f 110//199 116//199 101//199
f 101//200 116//200 117//200
f 103//201 118//201 104//201
f 95//202 119//202 106//202
f 95//203 94//203 119//203
f 107//204 106//204 120//204
f 107//205 120//205 121//205
f 91//206 100//206 110//206
f 116//207 122//207 117//207
f 101//208 117//208 123//208
f 111//209 93//209 92//209
f 93//210 111//210 112//210
f 112//211 111//211 123//211
f 112//212 123//212 118//212
f 103//213 112//213 118//213
f 104//214 124//214 125//214
f 104//215 126//215 102//215
f 104//216 125//216 126//216
f 102//217 126//217 127//217
f 102//218 127//218 105//218
f 105//219 127//219 128//219
f 120//220 129//220 121//220
f 107//221 121//221 113//221
f 114//222 130//222 115//222
f 114//223 131//223 130//223
f 110//224 132//224 116//224
f 116//225 132//225 133//225
f 117//226 122//226 123//226
f 123//227 111//227 101//227
f 123//228 122//228 118//228
f 104//229 118//229 124//229
f 129//230 114//230 121//230
f 113//231 121//231 114//231
f 114//232 129//232 131//232
f 115//233 134//233 99//233
f 99//234 134//234 135//234
f 99//235 135//235 100//235
f 100//236 135//236 136//236
f 137//237 110//237 100//237
f 116//238 133//238 122//238
f 118//239 122//239 124//239
f 124//240 122//240 133//240
f 125//241 138//241 126//241
f 105//242 128//242 94//242
f 119//243 94//243 139//243
f 106//244 119//244 140//244
f 106//245 140//245 120//245
f 129//246 120//246 140//246
f 130//247 134//247 115//247
f 100//248 136//248 137//248
f 137//249 141//249 110//249
f 110//250 142//250 132//250
f 125//251 124//251 143//251
f 125//252 143//252 144//252
f 127//253 126//253 138//253
f 128//254 127//254 145//254
f 139//255 140//255 119//255
f 131//256 129//256 140//256
f 131//257 140//257 146//257
f 135//258 134//258 147//258
f 135//259 148//259 136//259
f 110//260 141//260 142//260
f 142//261 143//261 132//261
f 132//262 124//262 133//262
f 143//263 141//263 144//263
f 125//264 144//264 138//264
f 94//265 128//265 139//265
f 131//266 146//266 130//266
f 134//267 149//267 147//267
f 135//268 147//268 148//268
f 148//269 147//269 150//269
f 148//270 150//270 151//270
f 136//271 148//271 151//271
f 137//272 144//272 141//272
f 143//273 124//273 132//273
f 143//274 142//274 141//274
f 138//275 144//275 136//275
f 138//276 136//276 151//276
f 127//277 138//277 145//277
f 128//278 152//278 139//278
f 145//279 152//279 128//279
f 152//280 140//280 139//280
f 140//281 152//281 146//281
f 130//282 153//282 134//282
f 149//283 154//283 147//283
f 137//284 136//284 144//284
f 138//285 150//285 145//285
f 145//286 154//286 152//286
f 152//287 153//287 146//287
f 130//288 146//288 153//288
f 149//289 134//289 152//289
f 147//290 154//290 145//290
f 151//291 150//291 138//291
f 153//292 152//292 134//292
f 149//293 152//293 154//293
f 150//294 147//294 145//294
f 155//295 156//295 157//295
f 155//295 157//295 158//295
f 158//296 157//296 159//296
f 158//297 159//297 160//297
f 158//298 160//298 161//298
f 158//299 161//299 162//299
f 158//300 162//300 163//300
f 158//301 163//301 164//301
f 158//302 164//302 165//302
f 158//302 165//302 155//302
f 155//303 165//303 166//303
f 155//304 166//304 167//304
f 155//305 167//305 168//305
f 155//306 168//306 169//306
f 155//307 169//307 156//307
f 156//308 169//308 159//308
f 156//308 159//308 157//308
f 160//309 170//309 171//309
f 160//310 171//310 172//310
f 160//311 172//311 161//311
f 161//312 172//312 173//312
f 161//313 173//313 162//313
f 162//314 173//314 174//314
f 162//315 174//315 163//315
f 163//316 174//316 164//316
f 166//317 175//317 167//317
f 167//318 176//318 168//318
f 169//319 168//319 177//319
f 169//320 177//320 178//320
f 169//321 178//321 179//321
f 159//322 180//322 181//322
f 159//323 181//323 160//323
f 160//324 181//324 170//324
f 171//325 170//325 173//325
f 171//326 173//326 172//326
f 173//327 170//327 174//327
f 174//328 170//328 182//328
f 174//329 182//329 183//329
f 174//330 183//330 184//330
f 174//331 184//331 165//331
f 174//332 165//332 164//332
f 165//333 185//333 166//333
f 166//334 185//334 175//334
f 175//335 186//335 187//335
f 176//336 177//336 168//336
f 169//337 179//337 188//337
f 169//338 188//338 189//338
f 180//339 159//339 169//339
f 181//340 180//340 190//340
f 181//341 190//341 191//341
f 181//342 191//342 170//342
f 170//343 191//343 192//343
f 185//344 193//344 186//344
f 185//345 165//345 193//345
f 185//346 186//346 175//346
f 175//347 187//347 194//347
f 167//348 175//348 176//348
f 169//349 189//349 195//349
f 169//350 195//350 180//350
f 177//351 176//351 194//351
f 177//352 194//352 178//352
f 178//353 194//353 196//353
f 178//354 196//354 197//354
f 178//355 197//355 198//355
f 180//356 195//356 199//356
f 180//357 199//357 190//357
f 170//358 200//358 201//358
f 170//359 201//359 182//359
f 192//360 200//360 170//360
f 165//361 184//361 193//361
f 193//362 202//362 186//362
f 186//363 202//363 203//363
f 203//364 198//364 197//364
f 203//365 197//365 196//365
f 203//366 187//366 186//366
f 203//367 196//367 187//367
f 175//368 194//368 176//368
f 178//369 204//369 179//369
f 178//370 198//370 204//370
f 189//371 188//371 205//371
f 195//372 189//372 199//372
f 190//373 206//373 191//373
f 207//374 192//374 191//374
f 192//375 208//375 209//375
f 192//376 209//376 210//376
f 192//377 210//377 200//377
f 183//378 182//378 211//378
f 202//379 212//379 203//379
f 203//380 212//380 198//380
f 187//381 196//381 194//381
f 188//382 179//382 213//382
f 189//383 214//383 199//383
f 189//384 205//384 214//384
f 190//385 199//385 206//385
f 201//386 210//386 211//386
f 201//387 211//387 182//387
f 215//388 208//388 207//388
f 207//389 208//389 192//389
f 209//390 208//390 216//390
f 209//391 211//391 210//391
f 183//392 216//392 217//392
f 183//393 217//393 184//393
f 184//394 217//394 218//394
f 184//395 218//395 193//395
f 198//396 219//396 204//396
f 204//397 213//397 179//397
f 188//398 213//398 205//398
f 198//399 212//399 219//399
f 199//400 220//400 206//400
f 200//401 210//401 201//401
f 206//402 207//402 191//402
f 208//403 215//403 221//403
f 208//404 221//404 216//404
f 209//405 216//405 211//405
f 183//406 211//406 216//406
f 193//407 218//407 202//407
f 214//408 220//408 199//408
f 206//409 220//409 207//409
f 207//410 222//410 223//410
f 207//411 223//411 215//411
f 215//412 223//412 221//412
f 216//413 221//413 224//413
f 216//414 224//414 217//414
f 217//415 225//415 218//415
f 204//416 219//416 226//416
f 204//417 226//417 213//417
f 205//418 213//418 226//418
f 214//419 222//419 220//419
f 223//420 224//420 221//420
f 218//421 227//421 202//421
f 212//422 202//422 219//422
f 219//423 227//423 226//423
f 214//424 205//424 222//424
f 207//425 220//425 222//425
f 223//426 222//426 228//426
f 223//427 228//427 224//427
f 224//428 228//428 217//428
f 217//429 228//429 225//429
f 225//430 229//430 218//430
f 219//431 202//431 227//431
f 226//432 227//432 230//432
f 205//433 226//433 222//433
f 222//434 226//434 231//434
f 229//435 225//435 231//435
f 218//436 230//436 227//436
f 226//437 230//437 231//437
f 231//438 228//438 222//438
f 229//439 231//439 230//439
f 228//440 231//440 225//440
f 229//441 230//441 218//441
