# Blender v3.0.1 OBJ File: ''
# www.blender.org
mtllib arml2.mtl
o left_j2
v -0.034766 -0.012014 -0.043857
v -0.054700 0.042656 0.002135
v -0.052922 0.044526 -0.018259
v -0.029320 -0.024216 -0.043823
v -0.000124 0.125091 0.031300
v -0.018637 0.136691 0.025028
v -0.053388 0.122549 0.002144
v -0.016890 -0.033537 -0.043265
v 0.012287 -0.034919 -0.041905
v 0.019110 0.051894 0.002135
v -0.038987 0.045413 -0.040847
v 0.055403 0.076057 0.002144
v -0.043678 0.123885 -0.031106
v 0.018174 0.137005 0.023991
v 0.013370 -0.035126 -0.045680
v -0.008842 0.136893 -0.030102
v 0.029293 0.136983 0.002038
v 0.053829 0.122368 0.002144
v 0.050242 0.071473 -0.024023
v 0.037492 0.123850 -0.038294
v -0.012593 -0.007046 -0.054612
v -0.031018 0.122754 -0.043921
v 0.047582 0.121722 -0.025778
v 0.017186 -0.009187 -0.053679
v 0.009092 0.122550 -0.052794
v -0.010511 0.122786 -0.052975
v 0.039438 0.067044 -0.039719
v -0.055435 0.043998 0.002154
v -0.052830 0.123951 0.002154
v 0.053825 0.122376 0.002154
v 0.055431 0.076064 0.002154
v -0.022955 -0.037714 0.033138
v -0.043742 -0.010011 0.034020
v 0.003234 -0.043040 0.032728
v -0.049293 0.045369 0.026481
v -0.032884 -0.022388 0.041170
v 0.008188 0.047955 0.002160
v -0.047135 0.122218 0.024692
v -0.014510 -0.037148 0.041412
v -0.000141 0.126547 0.031305
v 0.027237 -0.033680 0.032903
v -0.034461 0.122973 0.040464
v 0.006675 0.121459 0.052828
v 0.010912 -0.037618 0.042384
v 0.026703 0.122075 0.046514
v 0.039317 -0.020628 0.033653
v -0.029773 0.032504 0.047098
v -0.010994 0.121673 0.052419
v 0.044640 0.121761 0.029568
v -0.010044 -0.003513 0.054630
v 0.044737 -0.000782 0.033903
v -0.007565 -0.024059 0.051090
v 0.018155 0.000446 0.053022
v 0.014544 -0.023643 0.050085
v 0.013377 -0.018245 -0.053279
v 0.013379 -0.035527 -0.045015
v 0.013376 -0.009189 -0.050643
v 0.013376 -0.009189 -0.054793
v 0.021383 -0.031378 -0.042793
v 0.013379 -0.034141 -0.042091
v 0.027040 0.056556 -0.039732
v 0.027040 0.123961 -0.039732
v 0.018710 0.123961 -0.043999
v 0.018710 0.123898 -0.049451
v 0.022968 -0.025751 -0.047260
v 0.032117 -0.013725 -0.041122
v 0.039470 0.067044 -0.039732
v 0.037043 0.121159 -0.039732
v 0.018710 0.121159 -0.051082
v 0.018048 0.057866 -0.053216
v 0.022199 -0.008735 -0.051841
v 0.024139 -0.017588 -0.049205
v 0.032146 -0.018738 -0.041881
v 0.030155 0.121899 -0.045115
v 0.021501 0.016281 -0.052513
v 0.035733 -0.006090 -0.043726
v 0.024529 0.076074 -0.050120
v 0.031762 -0.019380 -0.043831
v 0.032843 0.000698 -0.046308
v 0.032119 0.077239 -0.045521
v 0.028498 -0.002176 -0.049121
vn -0.9597 -0.2595 -0.1075
vn -0.9097 -0.4057 0.0880
vn -0.3670 -0.0848 0.9264
vn -0.5525 0.0090 0.8335
vn -0.4873 -0.6126 0.6223
vn -0.0646 -0.5343 0.8428
vn -0.9962 0.0164 -0.0854
vn 0.0450 -0.3595 0.9320
vn -0.8499 -0.0349 -0.5257
vn 0.2089 -0.3141 0.9261
vn 0.0570 -0.4552 0.8885
vn -0.8512 0.0142 -0.5246
vn 0.2996 -0.4503 0.8411
vn 0.0201 0.5002 0.8657
vn -0.3410 0.9380 -0.0619
vn -0.9585 0.0668 -0.2772
vn 0.4113 -0.0744 0.9085
vn 0.8566 -0.4399 0.2697
vn -0.0492 -0.9980 0.0406
vn -0.0085 1.0000 0.0022
vn -0.0011 1.0000 -0.0015
vn -0.3477 0.9358 -0.0583
vn 0.5277 0.0179 0.8492
vn 0.9446 -0.2996 -0.1338
vn -0.0875 -0.1753 -0.9806
vn 0.2184 0.9401 -0.2617
vn -0.3965 -0.1795 -0.9003
vn -0.4628 0.0125 -0.8864
vn 0.4947 0.8324 0.2498
vn 0.5076 0.8512 -0.1333
vn 0.9045 -0.2415 -0.3515
vn 0.9794 0.0333 -0.1990
vn 0.0151 0.8506 -0.5257
vn -0.2221 0.8370 -0.5000
vn -0.3130 0.8679 -0.3858
vn -0.7087 0.0450 -0.7041
vn 0.8337 -0.1458 -0.5327
vn 0.1754 0.8889 -0.4232
vn 0.4320 0.8797 -0.1986
vn -0.4385 0.0118 -0.8987
vn 0.8204 0.0235 -0.5713
vn 0.9747 0.0439 -0.2191
vn 0.7813 0.0424 -0.6227
vn 0.4532 0.0338 -0.8907
vn -0.4039 0.0180 -0.9146
vn -0.1463 -0.4202 -0.8956
vn 0.4357 0.0375 -0.8993
vn 0.0086 -0.2958 -0.9552
vn 0.0093 0.0073 -0.9999
vn 0.0322 0.0121 -0.9994
vn 0.0000 0.0000 -1.0000
vn -0.6652 -0.4810 -0.5711
vn -0.0927 -0.3850 -0.9182
vn -0.9668 -0.0632 0.2476
vn -0.7866 -0.5954 0.1637
vn 0.0001 -0.0004 -1.0000
vn -0.9695 0.0329 0.2429
vn 0.0199 -0.3194 -0.9474
vn -0.5181 -0.6356 0.5723
vn -0.9685 0.0316 0.2471
vn -0.1056 0.9891 0.1027
vn 0.1835 -0.3087 -0.9333
vn 0.1325 -0.3221 -0.9374
vn -0.1887 -0.9477 0.2575
vn -0.0958 0.9950 0.0294
vn -0.0367 0.9699 0.2409
vn 0.0147 0.9933 -0.1150
vn -0.0354 -0.8591 0.5106
vn 0.0388 0.9751 0.2182
vn 0.1196 0.9896 0.0799
vn 0.4233 -0.3436 -0.8383
vn -0.5910 -0.0534 0.8049
vn 0.0100 0.9960 0.0887
vn 0.0565 0.9975 0.0413
vn -0.4517 0.0419 0.8912
vn -0.0229 0.0175 0.9996
vn 0.9239 -0.2487 -0.2907
vn 0.3522 -0.9074 0.2295
vn -0.6599 0.0360 0.7505
vn 0.6868 0.0262 0.7264
vn 0.9475 0.0329 0.3182
vn 0.5194 -0.5197 0.6784
vn -0.3541 -0.4272 0.8319
vn -0.7798 0.0241 0.6255
vn -0.7076 0.0151 0.7065
vn 0.9376 0.0130 0.3474
vn -0.0418 -0.5796 0.8139
vn -0.3688 -0.2009 0.9075
vn -0.4635 -0.0691 0.8834
vn 0.0560 0.0069 0.9984
vn 0.2997 0.0300 0.9536
vn -0.3340 0.0141 0.9425
vn 0.5707 -0.1660 0.8042
vn 0.5172 -0.5122 0.6857
vn 0.0488 -0.4917 0.8694
vn 0.5588 -0.1824 0.8090
vn 0.5840 0.0024 0.8118
vn 0.0479 -0.1640 0.9853
vn 0.0749 -0.1318 0.9885
vn -1.0000 -0.0001 -0.0001
vn -1.0000 -0.0001 0.0000
vn 0.3299 -0.8531 0.4041
vn -0.1702 0.0000 0.9854
vn -0.4558 0.0261 0.8897
vn -0.9942 0.0348 0.1017
vn -0.9992 0.0400 -0.0005
vn -0.9992 0.0400 0.0000
vn 0.2228 -0.4205 -0.8795
vn -0.0279 -0.0218 0.9994
vn 0.0000 0.0000 1.0000
vn 0.0059 0.9999 -0.0115
vn -0.9965 0.0428 -0.0719
vn -0.1694 0.0350 -0.9849
vn 0.3577 -0.1937 -0.9135
vn 0.4916 -0.6222 -0.6093
vn 0.1481 -0.1820 0.9721
vn 0.0911 -0.1486 0.9847
vn 0.3206 -0.1562 -0.9343
vn 0.3556 -0.2645 -0.8964
vn 0.8079 -0.0836 0.5834
vn 0.0157 -0.0186 0.9997
vn 0.2477 0.9439 -0.2183
vn 0.3833 0.4725 -0.7937
vn 0.2560 0.0049 -0.9667
vn 0.6512 -0.0745 0.7552
vn 0.2638 0.9418 -0.2082
vn 0.3669 0.0275 -0.9299
vn 0.3917 0.0170 -0.9199
vn 0.6254 -0.5856 -0.5157
vn 0.7575 -0.6497 0.0645
vn 0.4599 0.0404 -0.8871
vn 0.3180 -0.0166 -0.9479
vn 0.9541 -0.2843 -0.0945
vn 0.6741 0.0059 -0.7387
vn 0.6177 0.0343 -0.7857
vn 0.4618 0.0121 -0.8869
vn 0.4079 -0.0131 -0.9129
vn 0.5120 -0.1402 -0.8475
vn 0.6428 0.0288 -0.7655
vn 0.5146 0.0304 -0.8569
vn 0.5122 -0.2679 -0.8160
vn 0.5443 -0.1561 -0.8242
vn 0.5386 -0.1479 -0.8295
vn 0.6305 0.0140 -0.7760
vn 0.5730 -0.0669 -0.8168
vn 0.5164 0.0153 -0.8562
vn 0.5369 0.0138 -0.8435
usemtl Default_OBJ.002
s off
f 1//1 2//1 3//1
f 2//2 1//2 4//2
f 2//3 5//3 6//3
f 2//4 6//4 7//4
f 2//5 4//5 8//5
f 2//6 8//6 9//6
f 2//7 7//7 3//7
f 5//8 2//8 10//8
f 1//9 3//9 11//9
f 5//10 10//10 12//10
f 2//11 9//11 10//11
f 3//12 13//12 11//12
f 10//13 9//13 12//13
f 5//14 14//14 6//14
f 7//15 6//15 13//15
f 7//16 13//16 3//16
f 12//17 14//17 5//17
f 9//18 15//18 12//18
f 8//19 15//19 9//19
f 6//20 14//20 16//20
f 16//21 14//21 17//21
f 6//22 16//22 13//22
f 12//23 18//23 14//23
f 15//24 19//24 12//24
f 8//25 4//25 15//25
f 17//26 20//26 16//26
f 1//27 21//27 4//27
f 1//28 11//28 22//28
f 14//29 18//29 17//29
f 17//30 18//30 23//30
f 19//31 15//31 24//31
f 19//32 18//32 12//32
f 16//33 25//33 26//33
f 16//34 26//34 22//34
f 16//35 22//35 13//35
f 22//36 11//36 13//36
f 24//37 27//37 19//37
f 20//38 25//38 16//38
f 23//39 20//39 17//39
f 1//40 22//40 21//40
f 27//41 23//41 19//41
f 19//42 23//42 18//42
f 27//43 20//43 23//43
f 20//44 24//44 25//44
f 21//45 22//45 26//45
f 4//46 21//46 15//46
f 20//47 27//47 24//47
f 21//48 24//48 15//48
f 25//49 24//49 26//49
f 21//50 26//50 24//50
f 28//51 29//51 30//51
f 28//51 30//51 31//51
f 28//52 32//52 33//52
f 28//53 34//53 32//53
f 33//54 35//54 28//54
f 32//55 36//55 33//55
f 28//56 31//56 37//56
f 35//57 38//57 28//57
f 37//58 34//58 28//58
f 32//59 39//59 36//59
f 28//60 38//60 29//60
f 29//61 38//61 40//61
f 31//62 41//62 37//62
f 37//63 41//63 34//63
f 34//64 39//64 32//64
f 40//65 38//65 42//65
f 40//66 42//66 43//66
f 40//67 30//67 29//67
f 34//68 44//68 39//68
f 40//69 43//69 45//69
f 40//70 45//70 30//70
f 31//71 46//71 41//71
f 36//72 47//72 33//72
f 42//73 48//73 43//73
f 45//74 49//74 30//74
f 42//75 47//75 48//75
f 48//76 50//76 43//76
f 31//77 51//77 46//77
f 34//78 41//78 44//78
f 35//79 33//79 38//79
f 45//80 51//80 49//80
f 49//81 31//81 30//81
f 41//82 46//82 44//82
f 39//83 52//83 36//83
f 42//84 38//84 33//84
f 42//85 33//85 47//85
f 31//86 49//86 51//86
f 39//87 44//87 52//87
f 36//88 52//88 50//88
f 36//89 50//89 47//89
f 43//90 50//90 53//90
f 43//91 53//91 45//91
f 47//92 50//92 48//92
f 51//93 53//93 46//93
f 44//94 46//94 54//94
f 44//95 54//95 52//95
f 46//96 53//96 54//96
f 45//97 53//97 51//97
f 52//98 54//98 50//98
f 50//99 54//99 53//99
f 55//100 56//100 57//100
f 55//101 57//101 58//101
f 56//102 59//102 60//102
f 56//101 60//101 57//101
f 60//103 61//103 62//103
f 60//104 62//104 63//104
f 60//105 63//105 57//105
f 57//106 63//106 64//106
f 57//107 64//107 58//107
f 65//108 56//108 55//108
f 60//109 66//109 61//109
f 61//110 67//110 68//110
f 61//110 68//110 62//110
f 63//111 62//111 64//111
f 58//112 64//112 69//112
f 58//113 69//113 70//113
f 55//114 71//114 72//114
f 56//115 65//115 59//115
f 59//116 66//116 60//116
f 66//117 59//117 73//117
f 58//118 71//118 55//118
f 55//119 72//119 65//119
f 66//120 73//120 67//120
f 66//121 67//121 61//121
f 62//122 74//122 64//122
f 69//123 64//123 74//123
f 70//124 75//124 58//124
f 73//125 76//125 67//125
f 62//126 68//126 74//126
f 69//127 77//127 70//127
f 70//128 77//128 75//128
f 65//129 78//129 59//129
f 59//130 78//130 73//130
f 74//131 77//131 69//131
f 58//132 75//132 71//132
f 73//133 78//133 76//133
f 76//134 79//134 67//134
f 68//135 80//135 74//135
f 75//136 77//136 81//136
f 75//137 81//137 71//137
f 72//138 71//138 81//138
f 68//139 67//139 80//139
f 74//140 80//140 77//140
f 65//141 72//141 78//141
f 78//142 72//142 76//142
f 72//143 81//143 76//143
f 79//144 80//144 67//144
f 76//145 81//145 79//145
f 77//146 80//146 81//146
f 81//147 80//147 79//147
