# Blender v3.0.1 OBJ File: ''
# www.blender.org
mtllib arml3.mtl
o left_j3_left_j3.001
v 0.001469 -0.053554 -0.134714
v -0.004923 -0.035782 0.042969
v -0.029536 -0.035787 0.031355
v -0.018453 -0.050439 -0.135560
v 0.025054 -0.047406 -0.135064
v 0.042944 -0.035777 0.005471
v 0.032246 -0.035798 0.028681
v 0.015748 -0.017395 0.040722
v -0.042948 -0.035787 0.005489
v -0.049251 -0.021393 -0.135253
v -0.031711 0.043426 -0.135082
v 0.044366 0.029866 -0.135147
v 0.045214 -0.027829 -0.135468
v -0.016040 0.032406 0.037661
v -0.035476 0.032800 0.020339
v -0.037710 -0.037707 -0.135839
v 0.037765 0.032364 0.017083
v 0.053834 0.001744 -0.134754
v 0.014864 0.033044 0.037714
v -0.053813 0.002484 -0.134617
v 0.041824 0.033082 0.000921
v -0.041792 0.033082 0.001806
v -0.046230 0.026928 -0.135070
v -0.012142 0.052407 -0.133612
v 0.002857 0.046742 -0.056715
v 0.012217 0.052090 -0.134417
v 0.031875 0.043271 -0.135082
v -0.041984 -0.001074 -0.092054
v -0.041984 0.000062 -0.092054
v -0.041989 -0.000800 -0.092054
v -0.041989 -0.000895 -0.092054
v -0.041990 -0.000895 -0.098054
v -0.041984 -0.000975 -0.098054
v -0.041984 -0.000319 -0.098054
v -0.023837 -0.031916 -0.087954
v -0.026448 -0.028108 -0.094213
v -0.027789 -0.028108 -0.094213
v -0.028082 -0.031916 -0.087954
v -0.028740 -0.032693 -0.087954
v -0.028740 -0.038186 -0.087954
v -0.027882 -0.038823 -0.087954
v -0.026987 -0.039476 -0.087954
v -0.026279 -0.039928 -0.087954
v -0.020568 -0.039928 -0.087954
v -0.017479 -0.039926 -0.087954
v -0.016555 -0.038774 -0.087954
v -0.016555 -0.037308 -0.087954
v -0.016555 -0.037308 -0.092055
v -0.026448 -0.028108 -0.095929
v -0.027789 -0.028108 -0.095929
v -0.016555 -0.038769 -0.088572
v -0.016555 -0.038730 -0.090360
v -0.016555 -0.038687 -0.092055
v -0.027320 -0.031764 -0.099642
v -0.027423 -0.031764 -0.099642
v -0.024410 -0.037640 -0.101879
v -0.028758 -0.032928 -0.096510
v -0.028758 -0.032942 -0.095929
v -0.028758 -0.034511 -0.095929
v -0.024410 -0.042309 -0.101879
v -0.028661 -0.034504 -0.101879
v -0.028758 -0.033206 -0.097475
v -0.025686 -0.041556 -0.101879
v -0.026580 -0.040997 -0.101879
v -0.027832 -0.040142 -0.101879
v -0.028661 -0.039559 -0.101879
v -0.028758 -0.033940 -0.098215
v -0.028758 -0.034512 -0.098216
v -0.028758 -0.039060 -0.098216
v -0.028758 -0.038837 -0.095931
v -0.017845 -0.039926 -0.090360
v -0.018169 -0.039926 -0.092055
v -0.024410 -0.041708 -0.095931
vn -0.0459 -0.9941 0.0978
vn 0.0208 -0.1361 -0.9905
vn 0.1659 -0.9832 0.0756
vn 0.0383 -0.9942 0.1008
vn 0.3446 -0.2778 0.8967
vn -0.1515 -0.9855 0.0769
vn -0.1495 -0.9857 0.0775
vn -0.1550 -0.9850 0.0757
vn -0.1572 -0.9847 0.0750
vn -0.0021 0.0049 -1.0000
vn -0.0060 0.0043 -1.0000
vn -0.0042 0.0044 -1.0000
vn -0.0001 0.0052 -1.0000
vn 0.2526 -0.9664 0.0478
vn 0.0138 -0.0349 -0.9993
vn -0.4267 0.0008 0.9044
vn -0.8878 -0.0030 0.4603
vn 0.0714 0.0862 -0.9937
vn 0.9082 -0.0023 0.4186
vn 0.9600 -0.2798 -0.0003
vn 0.6294 0.0572 0.7749
vn -0.9818 -0.1882 0.0247
vn -0.5514 -0.8342 -0.0091
vn -0.6633 0.0623 0.7457
vn -0.0519 0.0167 -0.9985
vn 0.6961 -0.7174 -0.0292
vn 0.9963 0.0217 0.0832
vn 0.9690 0.0319 0.2448
vn 0.6688 0.0718 0.7400
vn 0.0546 0.0604 0.9967
vn -0.0033 0.0771 0.9970
vn -0.9963 0.0212 0.0830
vn -0.8165 -0.5768 -0.0224
vn -0.9459 0.0331 0.3229
vn -0.0005 0.0056 -1.0000
vn 0.0606 0.0064 -0.9981
vn 0.0312 -0.0282 -0.9991
vn -0.2212 0.9711 0.0902
vn -0.9549 0.2965 0.0176
vn -0.4192 0.9071 0.0377
vn -0.0964 0.9867 0.1306
vn 0.9476 0.3192 0.0102
vn 0.2061 0.9742 0.0920
vn 0.1993 0.9755 0.0934
vn 0.2012 0.9751 0.0930
vn 0.1413 0.9821 0.1245
vn -0.0207 0.9891 0.1461
vn 0.0153 0.9974 0.0705
vn -0.7507 0.6606 -0.0054
vn -0.1523 0.9830 0.1021
vn 0.4101 0.9112 0.0383
vn 0.7316 0.6817 -0.0024
vn 0.2068 0.9741 0.0920
vn -0.0293 0.2233 -0.9743
vn 0.0002 0.0756 -0.9971
vn 0.0000 0.0049 -1.0000
vn 0.0013 0.0000 1.0000
vn 0.0000 0.0000 1.0000
vn 0.0038 0.0000 1.0000
vn -0.9996 -0.0294 -0.0000
vn -0.9977 -0.0672 -0.0011
vn 1.0000 0.0000 0.0000
vn -1.0000 0.0083 -0.0005
vn -1.0000 0.0093 -0.0006
vn -1.0000 0.0047 -0.0001
vn -1.0000 0.0052 -0.0002
vn -1.0000 0.0019 0.0000
vn 0.0000 0.0000 -1.0000
vn 0.0000 0.8543 0.5198
vn 0.5786 0.7814 0.2336
vn 0.6810 0.7323 0.0000
vn 0.0000 1.0000 0.0000
vn -0.7186 0.6085 0.3366
vn -0.9792 0.2031 0.0000
vn -0.9793 0.2023 -0.0006
vn -0.9794 0.2018 -0.0008
vn 0.0000 0.7126 -0.7016
vn 0.0000 0.7125 -0.7016
vn 0.6727 0.4899 -0.5544
vn 0.5581 0.5220 -0.6450
vn -0.9803 0.1975 -0.0034
vn -0.9992 0.0408 0.0010
vn -1.0000 0.0000 0.0023
vn -1.0000 0.0000 0.0011
vn 0.7810 0.0000 -0.6245
vn 0.7804 -0.6253 -0.0056
vn 0.7785 -0.6274 -0.0165
vn 0.7809 -0.6246 -0.0077
vn -0.2496 0.6776 -0.6918
vn -0.9740 0.2105 -0.0835
vn -0.9773 0.2035 -0.0586
vn 0.0000 0.6324 -0.7746
vn 0.3548 0.4809 -0.8018
vn -1.0000 -0.0000 0.0000
vn -1.0000 0.0000 -0.0001
vn -0.9906 -0.1361 0.0133
vn -0.8749 -0.4825 0.0426
vn -0.5944 -0.8006 0.0756
vn -0.5910 -0.8031 0.0755
vn 0.7759 -0.6307 -0.0160
vn 0.7776 -0.6286 -0.0145
vn 0.6221 -0.7772 -0.0946
vn 0.6048 -0.7879 -0.1156
vn 0.5979 -0.7785 -0.1911
vn 0.0004 -0.9760 0.2177
vn 0.0001 -0.9760 0.2179
vn 0.0002 -0.9760 0.2177
vn 0.1387 -0.9853 0.0996
vn 0.4427 -0.8941 -0.0673
vn -0.9996 0.0000 -0.0265
vn -0.9990 0.0316 -0.0313
vn 0.4771 -0.8741 -0.0911
vn -0.4609 -0.8830 0.0891
vn -0.5069 -0.8584 0.0787
vn -0.5734 -0.8159 0.0738
vn -0.5627 -0.8234 0.0732
vn -0.5724 -0.8166 0.0737
vn -0.5873 -0.8058 0.0756
vn -0.0000 -0.9759 0.2183
vn -0.5305 -0.8442 0.0762
vn -0.5365 -0.8404 0.0761
vn -0.5345 -0.8417 0.0761
vn -0.5282 -0.8457 0.0763
vn -0.5624 -0.8236 0.0735
usemtl Default_OBJ.005
s 1
f 1//1 2//1 3//1
f 1//2 4//2 5//2
f 1//3 6//3 7//3
f 7//4 2//4 1//4
f 7//5 8//5 2//5
f 1//6 3//7 9//8
f 1//6 9//8 4//9
f 4//10 10//11 11//12
f 4//10 11//12 12//13
f 1//14 5//14 6//14
f 4//15 13//15 5//15
f 2//16 14//16 3//16
f 3//17 15//17 9//17
f 4//18 16//18 10//18
f 6//19 17//19 7//19
f 6//20 13//20 18//20
f 8//21 7//21 19//21
f 9//22 20//22 10//22
f 9//23 16//23 4//23
f 3//24 14//24 15//24
f 10//25 20//25 11//25
f 13//26 6//26 5//26
f 6//27 18//27 21//27
f 21//28 17//28 6//28
f 7//29 17//29 19//29
f 8//30 19//30 2//30
f 2//31 19//31 14//31
f 9//32 22//32 20//32
f 9//33 10//33 16//33
f 15//34 22//34 9//34
f 4//10 12//13 13//35
f 18//36 13//36 12//36
f 11//37 20//37 23//37
f 15//38 24//38 22//38
f 22//39 23//39 20//39
f 22//40 24//40 11//40
f 15//41 14//41 25//41
f 21//42 18//42 12//42
f 17//43 21//44 26//45
f 19//46 17//46 25//46
f 19//47 25//47 14//47
f 25//48 26//48 24//48
f 22//49 11//49 23//49
f 15//50 25//50 24//50
f 21//51 27//51 26//51
f 21//52 12//52 27//52
f 17//43 26//45 25//53
f 26//54 11//54 24//54
f 27//55 11//55 26//55
f 11//12 27//56 12//13
f 28//57 29//58 30//58
f 28//57 30//58 31//59
f 28//60 31//60 32//60
f 28//61 32//61 33//61
f 28//62 33//62 34//62
f 28//62 34//62 29//62
f 29//63 34//64 32//65
f 29//63 32//65 30//66
f 31//67 30//66 32//65
f 32//68 34//68 33//68
f 35//69 36//69 37//69
f 35//69 37//69 38//69
f 35//58 38//58 39//58
f 35//58 39//58 40//58
f 35//58 40//58 41//58
f 35//58 41//58 42//58
f 35//58 42//58 43//58
f 35//58 43//58 44//58
f 35//58 44//58 45//58
f 35//58 45//58 46//58
f 35//58 46//58 47//58
f 35//70 47//70 36//70
f 36//71 47//71 48//71
f 36//71 48//71 49//71
f 36//72 49//72 50//72
f 36//72 50//72 37//72
f 38//73 37//73 39//73
f 47//62 46//62 51//62
f 47//62 51//62 52//62
f 47//62 52//62 53//62
f 47//62 53//62 48//62
f 37//74 50//75 39//76
f 49//77 54//78 55//78
f 49//77 55//78 50//77
f 49//79 48//79 56//79
f 49//80 56//80 54//80
f 39//76 50//75 57//81
f 39//82 57//82 58//82
f 39//83 58//84 59//83
f 39//83 59//83 40//83
f 48//85 53//85 60//85
f 48//85 60//85 56//85
f 46//86 45//87 51//88
f 50//89 55//89 61//89
f 50//90 61//90 62//90
f 50//91 62//91 57//91
f 54//92 61//92 55//92
f 54//93 56//93 61//93
f 56//68 60//68 63//68
f 56//68 63//68 64//68
f 56//68 64//68 65//68
f 56//68 65//68 66//68
f 56//68 66//68 61//68
f 57//94 62//94 67//94
f 57//94 67//94 68//94
f 57//94 68//94 69//94
f 57//94 69//94 70//95
f 57//94 70//95 59//83
f 57//94 59//83 58//84
f 40//96 70//96 69//96
f 40//97 69//97 66//97
f 40//98 66//99 41//99
f 40//83 59//83 70//95
f 53//100 52//101 45//87
f 53//102 45//102 71//102
f 53//103 71//103 72//103
f 53//104 72//104 60//104
f 45//105 44//106 73//107
f 45//108 73//108 60//108
f 45//109 60//109 71//109
f 45//87 52//101 51//88
f 61//110 68//110 67//110
f 61//111 67//111 62//111
f 61//110 66//110 69//110
f 61//110 69//110 68//110
f 60//112 72//112 71//112
f 60//113 73//113 43//113
f 60//114 43//114 63//114
f 66//115 65//116 42//117
f 66//99 42//118 41//99
f 44//106 43//119 73//107
f 43//120 42//121 64//122
f 43//120 64//122 63//123
f 65//116 64//124 42//117
