# Blender v3.0.1 OBJ File: ''
# www.blender.org
mtllib arml1.mtl
o left_j1
v 0.043302 -0.037771 0.093714
v 0.040150 -0.006326 0.000319
v 0.042970 0.030042 0.092653
v 0.009855 0.038829 0.000527
v -0.000372 0.040389 0.019344
v 0.035658 0.031191 0.119242
v 0.030154 0.026364 0.000510
v 0.034974 -0.037071 0.119848
v 0.028382 -0.027287 0.000413
v 0.030774 -0.006166 -0.010272
v 0.024932 0.019939 -0.010131
v -0.014810 -0.027877 -0.010246
v -0.030073 -0.011779 -0.010203
v -0.011878 0.030055 -0.010177
v -0.002034 -0.037294 0.138134
v -0.042485 -0.037931 0.090335
v -0.000720 -0.040776 0.001171
v -0.006213 0.030181 0.138011
v -0.032802 0.023946 0.000275
v -0.013346 0.038056 0.000532
v 0.017748 0.029357 0.134657
v -0.035657 0.031191 0.119242
v -0.040312 -0.001404 0.000529
v -0.019008 0.029372 0.134451
v -0.027994 -0.027609 0.000292
v -0.042822 0.029400 0.097910
v -0.038643 -0.036952 0.115006
v -0.040927 -0.009843 0.093418
v -0.040927 -0.009843 0.104686
v -0.040927 -0.008295 0.104686
v -0.040927 -0.008295 0.093418
v 0.006889 -0.008295 0.093418
v 0.024519 -0.008295 0.093418
v 0.024519 -0.009844 0.093418
v 0.006889 -0.009844 0.093418
v 0.006889 -0.009844 0.104686
v 0.024519 -0.009844 0.104686
v 0.024519 -0.008295 0.104686
v 0.006889 -0.008295 0.104686
v 0.026011 -0.004959 -0.000328
v 0.026011 -0.004959 -0.000803
v 0.025988 -0.004959 -0.000817
v 0.025750 -0.004959 -0.000817
v 0.015967 -0.004959 -0.000817
v 0.015967 -0.004959 -0.000328
v 0.023399 -0.004959 -0.000328
v 0.023399 -0.009073 -0.000328
v 0.026011 -0.009073 -0.000328
v 0.026011 -0.009073 -0.000918
v 0.026011 -0.004964 -0.000820
v 0.015967 -0.014214 -0.000328
v 0.023398 -0.014214 -0.000328
v 0.023398 -0.014214 -0.000892
v 0.015967 -0.014214 -0.000817
vn 0.9995 0.0044 -0.0322
vn 0.1937 0.9808 0.0239
vn 0.2081 0.9780 0.0150
vn 0.9643 0.0089 0.2648
vn 0.5203 0.8474 -0.1062
vn 0.9527 -0.0069 0.3038
vn 0.8556 -0.4812 -0.1909
vn 0.7393 0.1690 -0.6519
vn 0.8019 0.2484 -0.5435
vn 0.9462 0.2902 -0.1432
vn 0.6870 -0.3885 -0.6141
vn -0.0013 0.0015 -1.0000
vn -0.0012 0.0012 -1.0000
vn 0.0029 0.0060 -1.0000
vn 0.4140 0.6750 -0.6107
vn 0.0229 -0.9992 0.0341
vn 0.0014 -0.9999 0.0121
vn 0.0006 -0.9995 0.0322
vn 0.4111 -0.8963 -0.1664
vn 0.1601 0.5789 -0.7995
vn 0.0147 0.9962 0.0864
vn 0.2187 -0.4601 -0.8605
vn -0.4855 0.2117 -0.8482
vn -0.0268 0.7991 -0.6006
vn 0.0598 0.9807 0.1862
vn 0.6523 0.0002 0.7579
vn 0.2131 -0.5067 -0.8354
vn -0.0331 0.9944 -0.1005
vn -0.0199 0.9962 0.0847
vn -0.6214 0.1765 -0.7634
vn -0.4788 0.6706 -0.5666
vn -0.1327 0.9566 0.2596
vn -0.3764 -0.8097 -0.4503
vn -0.2097 0.9775 0.0234
vn 0.1389 0.0104 0.9902
vn -0.5424 -0.5125 -0.6656
vn -0.8246 -0.3838 -0.4156
vn -0.5829 0.8057 -0.1048
vn -0.2475 0.9689 0.0018
vn -0.8890 -0.4162 -0.1908
vn -0.9997 -0.0022 -0.0251
vn -0.4240 -0.8895 -0.1702
vn -0.9529 0.2812 -0.1135
vn -0.2671 -0.0148 0.9635
vn -0.9483 0.0219 0.3167
vn 0.4418 -0.0845 0.8931
vn -0.6753 -0.0162 0.7373
vn -0.9877 -0.0223 0.1547
vn -0.5326 -0.0891 0.8417
vn -0.0381 -0.9982 0.0455
vn -1.0000 0.0000 0.0000
vn 0.0000 0.0000 -1.0000
vn -0.0000 -1.0000 0.0000
vn 0.0000 0.0000 1.0000
vn -0.0000 1.0000 0.0000
vn 1.0000 0.0000 0.0000
vn 1.0000 -0.0002 0.0000
vn 0.1794 0.9391 -0.2932
vn 0.8915 -0.4531 0.0000
vn 0.0000 0.4774 -0.8787
vn -0.0003 0.0239 -0.9997
vn -0.0000 0.4759 -0.8795
vn -0.0101 0.0001 -0.9999
vn -0.0102 0.0000 -0.9999
usemtl Default_OBJ.001
s off
f 1//1 2//1 3//1
f 3//2 4//2 5//2
f 3//3 5//3 6//3
f 6//4 1//4 3//4
f 3//5 7//5 4//5
f 6//6 8//6 1//6
f 1//7 9//7 2//7
f 10//8 11//8 2//8
f 2//9 11//9 7//9
f 3//10 2//10 7//10
f 9//11 10//11 2//11
f 10//12 12//12 13//12
f 10//13 13//13 14//13
f 10//14 14//14 11//14
f 7//15 11//15 4//15
f 1//16 8//16 15//16
f 1//17 15//17 16//17
f 1//18 16//18 17//18
f 1//19 17//19 9//19
f 4//20 11//20 14//20
f 5//21 18//21 6//21
f 12//22 10//22 9//22
f 13//23 19//23 14//23
f 4//24 14//24 20//24
f 6//25 18//25 21//25
f 21//26 8//26 6//26
f 17//27 12//27 9//27
f 5//28 4//28 20//28
f 5//29 22//29 18//29
f 19//30 13//30 23//30
f 14//31 19//31 20//31
f 18//32 22//32 24//32
f 12//33 17//33 25//33
f 26//34 5//34 20//34
f 21//35 18//35 15//35
f 13//36 12//36 25//36
f 13//37 25//37 23//37
f 19//38 26//38 20//38
f 5//39 26//39 22//39
f 25//40 16//40 23//40
f 23//41 16//41 26//41
f 17//42 16//42 25//42
f 23//43 26//43 19//43
f 18//44 24//44 15//44
f 22//45 26//45 27//45
f 15//46 8//46 21//46
f 22//47 27//47 24//47
f 26//48 16//48 27//48
f 24//49 27//49 15//49
f 15//50 27//50 16//50
f 28//51 29//51 30//51
f 28//51 30//51 31//51
f 28//52 31//52 32//52
f 28//52 32//52 33//52
f 28//52 33//52 34//52
f 28//52 34//52 35//52
f 28//53 35//53 36//53
f 28//53 36//53 29//53
f 29//54 36//54 37//54
f 29//54 37//54 38//54
f 29//54 38//54 39//54
f 29//54 39//54 30//54
f 31//55 30//55 39//55
f 31//55 39//55 32//55
f 35//53 34//53 37//53
f 35//53 37//53 36//53
f 32//55 39//55 38//55
f 32//55 38//55 33//55
f 34//56 33//56 38//56
f 34//56 38//56 37//56
f 40//55 41//55 42//55
f 40//55 42//55 43//55
f 40//55 43//55 44//55
f 40//55 44//55 45//55
f 40//55 45//55 46//55
f 40//54 46//54 47//54
f 40//54 47//54 48//54
f 40//56 48//56 49//56
f 40//56 49//56 50//56
f 40//57 50//57 41//57
f 41//58 50//58 42//58
f 46//54 45//54 51//54
f 46//54 51//54 47//54
f 48//54 47//54 51//54
f 48//54 51//54 52//54
f 48//59 52//59 53//59
f 48//59 53//59 49//59
f 50//60 43//60 42//60
f 50//61 49//61 44//61
f 50//62 44//62 43//62
f 45//51 44//51 54//51
f 45//51 54//51 51//51
f 49//63 53//63 44//63
f 52//53 51//53 54//53
f 52//53 54//53 53//53
f 44//64 53//64 54//64
