# Blender v3.0.1 OBJ File: ''
# www.blender.org
mtllib arml6.mtl
o arml6
v -0.037959 -0.037538 0.007145
v -0.037460 -0.038232 -0.003958
v -0.029532 -0.038215 -0.003354
v -0.029530 -0.037998 0.006294
v -0.038783 -0.038036 0.000249
v -0.007600 -0.037064 0.001276
v -0.007598 -0.036464 -0.006562
v -0.007005 -0.017691 -0.032572
v -0.041805 -0.030332 0.023276
v -0.037463 -0.036372 -0.012340
v -0.007598 -0.035631 0.009773
v -0.007598 -0.034211 -0.014161
v -0.007598 -0.031274 -0.019959
v -0.007595 -0.023495 -0.028707
v -0.029756 -0.013138 -0.052455
v -0.007005 -0.009120 -0.035801
v -0.007005 0.001699 -0.036991
v -0.007005 0.016851 -0.033017
v -0.007595 0.022638 0.029448
v -0.007598 -0.022696 0.029430
v -0.007598 -0.031026 0.020197
v -0.037564 -0.034753 0.016425
v -0.038771 -0.034113 -0.016891
v -0.029533 -0.035677 -0.014454
v -0.029530 -0.033069 -0.019706
v -0.029756 0.013125 -0.052455
v -0.007598 0.025804 -0.026643
v -0.007595 0.032299 -0.018143
v -0.007595 0.035578 -0.010368
v -0.007595 0.037061 0.001087
v -0.007598 0.036060 0.008422
v -0.007598 0.034179 0.014438
v -0.007598 0.029770 0.022105
v -0.023416 0.000484 0.038385
v -0.029303 -0.009044 0.037376
v -0.029279 -0.016390 0.034767
v -0.029526 -0.022647 0.031132
v -0.029462 -0.029975 0.024048
v -0.029392 -0.034701 0.016489
v -0.041720 -0.025372 0.028907
v -0.037313 -0.033069 -0.019706
v -0.037682 -0.012912 -0.052324
v -0.029756 -0.010722 -0.053500
v -0.029756 0.011203 -0.053473
v -0.037684 0.012903 -0.052324
v -0.029530 0.033350 -0.019229
v -0.029530 0.036219 -0.012804
v -0.029284 0.038197 -0.004485
v -0.029530 0.038216 0.004195
v -0.029002 0.037044 0.010402
v -0.029402 0.033135 0.019351
v -0.029267 0.028793 0.025524
v -0.037934 -0.009761 0.037063
v -0.037807 -0.018535 0.033763
v -0.041935 -0.023103 0.029725
v -0.042021 -0.022182 0.022065
v -0.038906 -0.011711 -0.051072
v -0.037114 0.010868 -0.053281
v -0.037313 0.033350 -0.019238
v -0.037313 0.036720 -0.011553
v -0.038753 0.037979 -0.003130
v -0.037865 0.037051 0.010429
v -0.037848 0.032167 0.021096
v -0.029394 0.023988 0.030042
v -0.029026 0.018515 0.033754
v -0.029357 0.012868 0.036224
v -0.037313 0.005014 0.038159
v -0.037313 -0.001175 0.038436
v -0.038781 0.005866 0.037646
v -0.038874 0.017794 0.033140
v -0.038899 0.029001 0.023781
v -0.039021 0.011203 -0.050554
v -0.038158 0.024085 0.029683
v -0.037653 0.015832 0.034934
v -0.038826 -0.003012 0.037736
v -0.039000 0.035685 0.002928
v -0.038785 0.033882 -0.017202
v -0.007005 -0.000000 -0.037108
v -0.007592 -0.018602 -0.032068
v -0.007592 0.018606 -0.032068
v -0.007005 0.004135 -0.036859
v 0.006636 -0.000000 -0.037102
v -0.007005 -0.004374 -0.036847
v -0.007005 0.016011 -0.033466
v -0.007005 0.009995 -0.035679
v -0.007592 -0.023485 -0.028703
v -0.007592 -0.029269 -0.022793
v -0.007592 -0.031275 -0.019959
v -0.007592 -0.033331 -0.016297
v -0.007592 -0.035097 -0.012055
v -0.007592 -0.036143 -0.008407
v -0.007592 -0.036913 -0.003768
v -0.007592 -0.037109 0.000122
v -0.007592 -0.036528 0.006459
v -0.007592 -0.035545 0.010555
v -0.007592 -0.034188 0.014417
v -0.007592 -0.032270 0.018327
v -0.007592 -0.030310 0.021368
v -0.007592 -0.027365 0.025057
v -0.007592 -0.022664 0.029455
v -0.007592 0.022664 0.029436
v -0.007592 0.027358 0.025057
v -0.007592 0.030057 0.021705
v -0.007592 0.032255 0.018320
v -0.007592 0.034181 0.014430
v -0.007592 0.035609 0.010368
v -0.007592 0.036517 0.006475
v -0.007592 0.037062 0.001341
v -0.007592 0.036906 -0.003748
v -0.007592 0.036136 -0.008420
v -0.007592 0.033324 -0.016304
v -0.007592 0.031275 -0.019965
v -0.007592 0.026548 -0.025842
v -0.007592 0.022373 -0.029576
v 0.006636 0.004382 -0.036841
v 0.006636 0.011728 -0.035179
v 0.006636 0.019518 -0.031557
v 0.006636 0.023492 -0.028709
v 0.006636 0.026486 -0.025960
v 0.006636 0.029233 -0.022832
v 0.006636 0.031267 -0.019952
v 0.006636 0.035097 -0.012056
v 0.006636 0.036136 -0.008420
v 0.006636 0.036855 -0.004234
v 0.006636 0.037068 0.001310
v 0.006636 0.036528 0.006452
v 0.006636 0.035474 0.010840
v 0.006636 0.034076 0.014662
v 0.006636 0.031318 0.019809
v 0.006636 0.027358 0.025057
v 0.006636 0.023071 0.029403
v 0.006636 -0.023100 0.029455
v 0.006636 -0.030918 -0.020474
v 0.006636 -0.029298 -0.022764
v 0.006636 -0.026065 -0.026409
v 0.006636 -0.023470 -0.028742
v 0.006635 -0.018885 -0.031922
v 0.006636 -0.002848 -0.036965
v -0.007005 -0.012460 -0.034925
v -0.007005 -0.015775 -0.033583
v -0.007005 -0.008767 -0.036043
v 0.005305 -0.012186 -0.035036
v 0.005305 -0.007830 -0.036248
v 0.005903 -0.036741 0.004774
v 0.005903 -0.037117 0.000122
v 0.005903 -0.036804 -0.004725
v 0.005902 -0.036150 -0.008394
v 0.005902 -0.035104 -0.012042
v 0.005902 -0.033338 -0.016291
v 0.005902 -0.032277 0.018327
v 0.005902 -0.034196 0.014417
v 0.005902 -0.035482 0.010847
v -0.000420 0.023071 0.029442
v 0.005903 -0.027380 0.025051
v 0.036279 0.023090 0.029455
v 0.037718 0.022912 0.029455
v 0.039312 0.021713 0.029455
v 0.042760 0.013734 0.029455
v 0.043946 0.009978 0.029455
v 0.044781 0.005276 0.029455
v 0.044775 -0.005364 0.029455
v 0.044139 -0.009262 0.029455
v 0.042967 -0.013148 0.029455
v 0.040396 -0.019538 0.029455
v 0.038900 -0.022091 0.029455
v 0.036768 -0.023090 0.029455
v -0.000660 -0.023076 0.029455
v -0.000248 0.023077 0.029455
v 0.000716 0.022532 0.041084
v 0.037343 0.022455 0.041714
v 0.035797 0.021813 0.042791
v 0.037464 0.020944 0.042728
v 0.000716 0.022292 0.042272
v -0.002461 0.022256 0.041819
v -0.023413 0.022523 0.029457
v 0.037845 0.020944 0.042060
v -0.023413 -0.022538 0.029457
v -0.023409 -0.017822 0.032550
v -0.023409 -0.004142 0.037667
v -0.023413 0.002708 0.038116
v -0.023409 0.016138 0.033361
v -0.018258 0.012606 0.042478
v -0.016450 0.014731 0.042625
v -0.013983 0.017114 0.042593
v -0.011111 0.019077 0.042604
v -0.007087 0.020949 0.042547
v 0.036761 0.020944 0.042972
v -0.001718 0.021313 0.042889
v 0.044527 0.000474 0.030367
v -0.008523 -0.020463 0.042535
v -0.011104 -0.019083 0.042602
v -0.014502 -0.016669 0.042617
v -0.016905 -0.014218 0.042599
v 0.000716 -0.022529 0.041084
v 0.000277 -0.022382 0.041981
v -0.003181 -0.022100 0.042060
v -0.005624 -0.021448 0.042548
v -0.019791 0.009805 0.042578
v -0.000875 0.013144 0.045000
v 0.036768 -0.020965 0.042971
v 0.011421 0.006321 0.045031
v 0.013369 -0.000485 0.044995
v 0.037658 -0.020965 0.042394
v 0.005583 0.011688 0.045036
v -0.018776 -0.011697 0.042523
v -0.013424 0.016560 0.042943
v -0.007090 0.019977 0.042980
v 0.011910 -0.005357 0.045028
v -0.006110 0.011686 0.045006
v -0.012935 -0.000003 0.045036
v -0.006110 -0.011692 0.045005
v -0.000262 -0.013164 0.045033
v 0.005583 -0.011695 0.045036
v 0.037337 -0.022452 0.041702
v -0.012450 -0.017062 0.042981
v 0.035797 -0.021815 0.042789
v -0.007090 -0.019988 0.042978
v -0.019272 0.009001 0.042938
v -0.012446 0.004858 0.044964
v -0.009521 0.009732 0.044918
v -0.009521 -0.009743 0.044915
v -0.012446 -0.004867 0.044963
v -0.019272 -0.009012 0.042936
v -0.020746 -0.007598 0.042550
v -0.000744 -0.020965 0.043027
v -0.021220 0.006345 0.042526
v -0.022084 0.002931 0.042197
v -0.020735 0.003637 0.043004
v -0.020735 -0.003650 0.043003
v -0.022084 -0.002945 0.042196
v -0.022201 -0.000001 0.042547
v 0.037750 0.000458 -0.037110
v 0.005307 -0.002856 -0.036974
v 0.037883 0.007430 -0.036276
v 0.041656 0.006816 -0.033009
v 0.039209 -0.004811 -0.036400
v 0.005307 -0.011138 -0.035237
v 0.005307 -0.018886 -0.031911
v 0.005307 -0.018886 0.029455
v 0.005307 -0.002856 0.029455
v 0.006641 0.037117 0.000108
v 0.006641 0.035620 -0.010242
v 0.006647 0.031274 -0.019593
v 0.006648 0.024898 -0.027398
v 0.006649 0.019510 -0.031552
v 0.006649 0.010015 -0.035636
v 0.044334 -0.004370 -0.030139
v 0.038177 -0.008342 -0.036026
v 0.006645 0.023085 0.029442
v 0.006645 0.030555 0.020754
v 0.006642 0.035682 0.009541
v 0.038279 0.022351 0.029442
v 0.038672 0.036524 -0.004340
v 0.038072 0.035623 -0.010126
v 0.037375 0.031845 -0.018910
v 0.037507 0.026529 -0.025732
v 0.038276 0.019496 -0.031552
v 0.038632 0.013549 -0.034285
v 0.038001 0.029189 0.022764
v 0.037750 0.034243 0.014179
v 0.038025 0.036425 0.006052
v 0.005905 -0.036772 0.003421
v 0.005905 -0.033553 0.015482
v 0.005905 -0.027373 0.025057
v 0.006649 -0.023078 0.029442
v 0.036769 -0.023086 0.029442
v 0.044645 0.006476 0.029442
v 0.039161 0.025529 -0.026364
v 0.045054 0.008066 -0.028073
v 0.042976 -0.013152 0.029442
v 0.006648 -0.027449 -0.024841
v 0.005905 -0.032310 -0.018130
v 0.005905 -0.035804 -0.009188
v 0.037900 -0.035460 0.010672
v 0.038673 -0.033280 0.015727
v 0.037873 -0.029169 0.022808
v 0.045053 0.012774 0.026141
v 0.039195 0.031403 -0.018838
v 0.039273 -0.016201 -0.032807
v 0.037885 -0.017114 -0.032787
v 0.039273 0.033676 0.014391
v 0.039301 -0.024012 0.027546
v 0.038591 -0.023553 -0.028243
v 0.037750 -0.029832 -0.021912
v 0.038493 -0.034393 -0.013010
v 0.037904 -0.036307 -0.007515
v 0.038272 -0.037059 0.001776
v 0.045052 0.022286 0.018998
v 0.045056 -0.012662 -0.026174
v 0.044957 -0.016954 0.023886
v 0.045054 -0.005025 0.028827
v 0.039403 -0.036133 0.003623
v 0.039267 -0.029917 0.021042
v 0.046035 0.005876 0.012946
v 0.044156 0.019605 -0.023838
v 0.045848 -0.007544 -0.015197
v 0.044247 0.029945 0.006801
v 0.045049 0.029122 -0.002526
v 0.039221 -0.030214 -0.020808
v 0.045840 0.012218 -0.012136
v 0.044237 0.027992 -0.012415
v 0.045054 0.022838 -0.018296
v 0.045052 -0.024639 -0.015544
v 0.045052 -0.029160 -0.002804
v 0.046094 -0.010269 0.004657
v 0.044106 -0.022028 -0.021645
v 0.045050 -0.027436 0.009266
v 0.046144 0.010756 0.001680
v -0.017797 0.023492 -0.050202
v 0.018242 0.023347 -0.052464
v -0.017797 0.023454 -0.052220
v -0.018894 0.022756 -0.048842
v 0.019496 0.023309 -0.049763
v -0.022178 0.022415 -0.052996
v -0.022709 0.022427 -0.049573
v 0.019459 0.022752 -0.048843
v 0.000223 0.022750 -0.053229
v -0.023679 0.021219 -0.048871
v -0.003186 0.015103 -0.043598
v -0.000268 0.017752 -0.044894
v 0.021161 0.021920 -0.053429
v 0.023136 0.022422 -0.052531
v -0.008066 0.013149 -0.043633
v 0.003885 0.015267 -0.043762
v -0.026591 0.018996 -0.052990
v -0.026096 0.020013 -0.050502
v -0.029756 0.013489 -0.047594
v -0.003186 -0.015114 -0.043595
v 0.015323 -0.000006 -0.043600
v -0.014890 0.004378 -0.043618
v 0.022710 0.022445 -0.049068
v 0.025328 0.020237 -0.053221
v -0.028883 0.015412 -0.051766
v -0.029756 -0.013490 -0.047594
v -0.014159 -0.006094 -0.043643
v -0.008066 -0.013165 -0.043631
v 0.003620 -0.015114 -0.043618
v 0.028803 0.013151 -0.048847
v 0.027497 0.016317 -0.048596
v 0.013377 0.007789 -0.043654
v 0.008500 0.013154 -0.043656
v -0.029744 0.010225 -0.053533
v 0.027004 0.015098 -0.053526
v -0.028677 -0.019500 -0.051050
v -0.027574 -0.021471 -0.049090
v -0.024632 -0.023890 -0.048577
v -0.018775 -0.026732 -0.048820
v 0.019217 -0.026737 -0.048818
v 0.021654 -0.025824 -0.048595
v 0.008987 -0.012678 -0.043645
v 0.013371 -0.007800 -0.043655
v 0.026525 -0.021721 -0.048561
v 0.028826 -0.016089 -0.048836
v 0.026148 0.020088 -0.049019
v 0.027511 0.019024 -0.051934
v -0.019747 -0.025345 -0.053514
v -0.029744 -0.010231 -0.053533
v -0.023488 -0.025882 -0.049286
v -0.017797 -0.027249 -0.049216
v 0.018242 -0.027249 -0.049216
v 0.021793 -0.026859 -0.049506
v 0.028512 -0.020557 -0.049068
v 0.029470 -0.016856 -0.050008
v 0.029364 0.012541 -0.049686
v 0.028495 0.016612 -0.049082
v 0.028483 -0.020492 -0.053003
v 0.028466 0.016547 -0.052990
v 0.028359 0.013151 -0.053336
v -0.028073 -0.020097 -0.053020
v -0.027619 -0.021804 -0.052290
v -0.019068 -0.027424 -0.050520
v 0.026360 -0.023724 -0.049046
v 0.021166 -0.025824 -0.053457
v -0.024870 -0.025346 -0.051050
v 0.018877 -0.027299 -0.052421
v 0.029467 0.012926 -0.052076
v 0.028774 -0.015190 -0.053215
v 0.026325 -0.023680 -0.053023
v -0.017797 -0.027008 -0.052909
v -0.024157 -0.025370 -0.053012
v -0.021461 -0.026980 -0.051838
v 0.023673 -0.026364 -0.052131
v 0.028486 -0.021471 -0.051042
v 0.029362 -0.016858 -0.052324
v 0.026640 -0.024095 -0.050807
vn -0.0026 -0.9981 0.0623
vn -0.0523 -0.9984 0.0224
vn 0.0590 -0.9961 0.0649
vn 0.0477 -0.9986 0.0224
vn 0.9994 -0.0350 -0.0025
vn 0.0683 -0.9948 -0.0760
vn -0.7162 -0.6847 0.1351
vn -0.6398 -0.7504 -0.1663
vn 0.9997 -0.0240 0.0038
vn 0.9984 -0.0536 -0.0159
vn 0.9958 -0.0821 -0.0416
vn 0.9490 -0.2358 -0.2093
vn 0.5041 -0.5136 -0.6944
vn 1.0000 -0.0000 -0.0000
vn 1.0000 0.0001 0.0094
vn 1.0000 -0.0001 0.0096
vn 0.9999 -0.0097 0.0088
vn 0.9998 -0.0162 0.0071
vn 0.0798 -0.9829 0.1658
vn -0.4447 -0.8525 0.2748
vn -0.6713 -0.7224 -0.1659
vn 0.0452 -0.9738 -0.2227
vn 0.0677 -0.9565 -0.2837
vn 0.0657 -0.8937 -0.4438
vn 0.0676 -0.8901 -0.4508
vn 0.0637 -0.8523 -0.5192
vn 0.3410 -0.7025 -0.6246
vn 0.5024 0.5233 -0.6883
vn 0.9835 0.1435 -0.1100
vn 0.9976 0.0641 -0.0270
vn 0.9993 0.0373 -0.0048
vn 0.9997 0.0231 0.0036
vn 0.9998 0.0184 0.0058
vn 0.9999 0.0133 0.0076
vn 0.9999 0.0093 0.0086
vn 0.4922 -0.0004 0.8705
vn 0.2053 -0.2276 0.9519
vn 0.1336 -0.3312 0.9341
vn 0.0658 -0.5032 0.8616
vn 0.0542 -0.6938 0.7181
vn 0.0820 -0.7400 0.6676
vn 0.0526 -0.8465 0.5298
vn 0.0852 -0.9114 0.4026
vn 0.0540 -0.9503 0.3066
vn -0.0209 -0.9512 0.3079
vn 0.0038 -0.9578 0.2873
vn -0.0196 -0.7501 0.6610
vn -0.0092 -0.8428 0.5381
vn -0.9729 -0.2253 -0.0523
vn 0.0186 -0.9761 -0.2166
vn 0.0261 -0.9745 -0.2229
vn 0.0000 -0.8956 -0.4448
vn 0.0000 -0.8542 -0.5199
vn -0.0329 -0.8504 -0.5251
vn -0.0264 -0.3969 -0.9175
vn 0.5958 -0.3188 -0.7371
vn 0.5986 -0.2825 -0.7496
vn -0.0277 0.4678 -0.8834
vn 0.2449 0.7704 -0.5887
vn 0.0665 0.8521 -0.5191
vn 0.0638 0.9112 -0.4069
vn 0.0699 0.9191 -0.3877
vn 0.0542 0.9711 -0.2325
vn 0.0846 0.9882 -0.1279
vn 0.0525 0.9986 -0.0007
vn 0.0712 0.9883 0.1349
vn 0.0618 0.9817 0.1801
vn 0.0713 0.9520 0.2976
vn 0.0467 0.9146 0.4016
vn 0.0706 0.8647 0.4973
vn 0.0537 0.8173 0.5737
vn 0.0774 0.7152 0.6946
vn -0.0217 -0.3522 0.9357
vn -0.9794 -0.1439 0.1417
vn -0.9996 -0.0253 0.0083
vn -0.9983 -0.0335 -0.0473
vn -0.9923 -0.1053 -0.0651
vn -0.1409 -0.9023 -0.4075
vn -0.0292 -0.9118 -0.4095
vn 0.6155 -0.0861 -0.7834
vn 0.5614 0.3873 -0.7313
vn -0.0426 0.4154 -0.9086
vn -0.0325 0.8504 -0.5252
vn 0.0006 0.8542 -0.5200
vn 0.0005 0.9131 -0.4078
vn -0.0057 0.9158 -0.4016
vn 0.0252 0.9724 -0.2319
vn -0.0450 0.9869 -0.1552
vn -0.0235 0.9997 -0.0028
vn -0.0839 0.9938 0.0735
vn 0.0020 0.9164 0.4003
vn 0.0250 0.8180 0.5747
vn 0.0621 0.6828 0.7280
vn 0.0573 0.5630 0.8244
vn 0.1079 0.3930 0.9132
vn 0.1821 0.2532 0.9501
vn 0.0473 0.1937 0.9799
vn -0.0016 0.0447 0.9990
vn -0.0288 -0.0876 0.9957
vn -0.0064 -0.3346 0.9423
vn 0.0247 -0.5029 0.8640
vn 0.0241 -0.6948 0.7188
vn 0.0012 -0.8479 0.5302
vn -0.9826 0.0588 0.1761
vn -0.9942 0.0674 0.0834
vn -0.9980 0.0603 0.0185
vn -0.9991 -0.0040 -0.0431
vn -0.3701 -0.7921 -0.4853
vn -0.8096 -0.4924 -0.3195
vn -0.1367 -0.0366 -0.9899
vn 0.6279 0.1974 -0.7529
vn 0.0014 0.9827 0.1854
vn -0.0182 0.9090 0.4163
vn -0.0661 0.7278 0.6826
vn -0.0222 0.6851 0.7281
vn 0.0007 0.4006 0.9162
vn -0.2802 -0.1319 0.9508
vn 0.0227 -0.1596 0.9869
vn -0.4366 -0.3413 0.8324
vn -0.0224 -0.5704 0.8211
vn -0.4589 -0.3185 0.8294
vn -0.7120 -0.1622 0.6832
vn -0.9390 0.0082 0.3438
vn -0.8842 0.2983 0.3595
vn -0.9979 0.0601 0.0241
vn -0.9988 0.0454 -0.0204
vn -0.0261 0.0012 -0.9997
vn 0.5870 0.0010 -0.8096
vn -0.8163 0.0423 -0.5761
vn -0.8732 0.4059 -0.2698
vn -0.3831 0.7877 -0.4825
vn -0.2193 0.8935 -0.3918
vn -0.6178 0.7553 -0.2185
vn -0.4429 0.6608 0.6059
vn -0.0286 0.5353 0.8442
vn -0.0601 0.5575 0.8280
vn -0.0474 0.2840 0.9576
vn -0.3244 0.0112 0.9458
vn -0.4593 0.0397 0.8874
vn -0.9559 0.2783 0.0938
vn -0.9995 0.0300 -0.0133
vn -0.8197 -0.0035 -0.5728
vn -0.7091 0.0124 -0.7050
vn -0.9428 0.3225 0.0838
vn -0.8575 0.4673 0.2154
vn -0.3901 0.4771 0.7875
vn -0.1704 0.2766 0.9458
vn -0.6334 0.2691 0.7255
vn -0.9978 0.0639 -0.0163
vn -0.9933 0.0000 -0.1158
vn -0.9889 0.0089 -0.1483
vn 0.0005 0.0602 -0.9982
vn -0.9890 -0.0088 -0.1478
vn -0.5776 0.2819 -0.7661
vn -0.9527 0.0600 -0.2981
vn -1.0000 0.0000 0.0000
vn 0.0002 0.0594 -0.9982
vn 1.0000 -0.0003 -0.0009
vn 1.0000 0.0000 0.0003
vn 0.0005 -0.0480 -0.9988
vn -0.0019 -0.0595 -0.9982
vn -0.5045 -0.3240 -0.8003
vn -0.9642 -0.0478 -0.2608
vn -0.8519 -0.1517 -0.5013
vn 0.5856 -0.2432 -0.7733
vn 0.4357 -0.2412 -0.8672
vn -0.0054 0.5517 -0.8340
vn 0.0012 0.4745 -0.8802
vn 0.0185 0.4216 -0.9066
vn -0.0095 0.3453 -0.9385
vn 0.0077 0.2206 -0.9753
vn -0.0023 0.1973 -0.9803
vn 0.0043 -0.2680 -0.9634
vn -0.0058 -0.1409 -0.9900
vn 0.0117 -0.1802 -0.9836
vn -0.0022 -0.2896 -0.9571
vn 0.0000 -0.3753 -0.9269
vn 0.0150 -0.4190 -0.9078
vn -0.0003 -0.4723 -0.8814
vn 0.0037 0.5823 -0.8129
vn -0.0029 -0.5699 -0.8217
vn -0.0017 -0.5675 -0.8234
vn -0.0070 0.6667 -0.7453
vn -0.0032 0.6764 -0.7365
vn -0.0022 0.7514 -0.6599
vn -0.0014 -0.6686 -0.7436
vn -0.0168 -0.7146 -0.6994
vn -0.0145 0.7791 -0.6267
vn -0.0002 -0.7481 -0.6636
vn 0.0009 0.8167 -0.5770
vn 0.0009 0.8727 -0.4883
vn -0.0005 -0.8163 -0.5776
vn 0.9971 -0.0748 0.0117
vn 0.9957 -0.0926 0.0076
vn 0.9888 -0.1487 -0.0096
vn 0.9715 -0.2331 -0.0419
vn 0.9180 -0.3812 -0.1093
vn 0.6506 -0.7012 -0.2915
vn 0.0181 0.8996 -0.4363
vn 0.9766 -0.1929 0.0946
vn 0.9907 -0.1280 0.0461
vn 0.9961 -0.0861 0.0180
vn -0.0005 -0.9967 0.0806
vn -0.0005 -0.9987 -0.0504
vn 0.0035 -0.9979 -0.0643
vn 0.0041 -0.8719 -0.4897
vn 0.0000 0.0003 1.0000
vn 0.7640 -0.5216 0.3797
vn -0.0005 -0.8977 0.4405
vn -0.0005 -0.9408 0.3389
vn -0.0043 -0.9958 0.0914
vn -0.0037 -0.9865 -0.1638
vn -0.0004 -0.9845 -0.1755
vn -0.0003 -0.9613 -0.2757
vn -0.0003 -0.9234 -0.3838
vn -0.0002 -0.8656 -0.5007
vn -0.0171 0.9417 -0.3359
vn -0.0004 -0.7171 0.6969
vn 0.0148 -0.8082 0.5887
vn -0.0027 -0.9435 0.3315
vn 0.0099 -0.9791 0.2030
vn -0.0001 -0.9232 -0.3843
vn -0.0005 -0.8405 0.5418
vn -0.0005 -0.9724 0.2333
vn 0.0000 0.9615 -0.2748
vn 0.0055 0.0011 1.0000
vn 0.0000 0.7150 0.6991
vn 0.0039 0.7119 0.7023
vn -0.0209 -0.6830 0.7301
vn -0.0005 -0.7816 0.6238
vn 0.0095 0.7982 0.6023
vn 0.0000 0.7789 0.6272
vn -0.0020 0.9867 -0.1627
vn 0.0000 0.9856 -0.1694
vn -0.0393 0.6816 0.7307
vn -0.0009 0.0004 1.0000
vn 0.0025 0.9995 -0.0307
vn -0.0005 0.9993 -0.0383
vn -0.0017 0.8387 0.5446
vn 0.0087 0.8814 0.4722
vn -0.0006 0.8962 0.4436
vn -0.0006 0.9944 0.1056
vn -0.0002 0.9945 0.1043
vn -0.0004 0.9738 0.2272
vn 0.0016 0.9434 0.3316
vn -0.0025 0.9391 0.3437
vn 0.0014 0.9724 0.2335
vn 0.0000 0.0000 -1.0000
vn -0.0004 0.9989 0.0468
vn 0.0012 0.9987 0.0517
vn 0.1230 0.9916 0.0407
vn 0.3137 0.5465 0.7765
vn -0.0013 0.9803 0.1977
vn -0.0393 0.9795 0.1976
vn -0.0239 0.9985 0.0488
vn 0.0041 0.8563 0.5165
vn 0.8055 0.3733 0.4602
vn 0.9273 0.3428 0.1506
vn 0.9338 0.2948 0.2029
vn 0.9110 0.3938 0.1225
vn 0.6004 0.7983 0.0481
vn -0.0583 0.9910 0.1201
vn -0.0001 0.0000 -1.0000
vn -1.0000 0.0000 0.0011
vn -1.0000 -0.0001 0.0002
vn -1.0000 -0.0004 -0.0010
vn -1.0000 0.0013 0.0030
vn -0.6208 0.4856 0.6155
vn -0.5402 0.5674 0.6214
vn -0.4538 0.6608 0.5978
vn -0.3513 0.7712 0.5308
vn -0.2008 0.9111 0.3599
vn 0.2859 0.4897 0.8237
vn -0.0002 0.2044 0.9789
vn 0.8683 0.0001 0.4960
vn 0.8944 0.0373 0.4458
vn 0.9365 0.1664 0.3085
vn -0.0050 0.5416 0.8406
vn -0.3817 -0.7412 0.5522
vn -0.4605 -0.6518 0.6025
vn -0.5608 -0.5453 0.6230
vn -0.0236 -0.9985 0.0498
vn -0.0629 -0.9893 0.1313
vn -0.0769 -0.9845 0.1577
vn -0.1824 -0.9280 0.3250
vn -0.2877 -0.8396 0.4608
vn -0.3189 0.2075 0.9248
vn -0.0926 0.7140 0.6940
vn -0.1077 0.7073 0.6986
vn 0.0003 0.2503 0.9682
vn 0.3279 0.0000 0.9447
vn 0.0722 0.0153 0.9973
vn 0.0862 -0.0000 0.9963
vn 0.9640 -0.0006 0.2657
vn 0.0252 0.1360 0.9904
vn 0.0501 0.0536 0.9973
vn -0.6446 -0.4602 0.6105
vn -0.0400 -0.6910 0.7217
vn -0.7017 0.4049 0.5862
vn -0.2765 0.2982 0.9136
vn -0.2348 0.3387 0.9111
vn -0.1739 0.4012 0.8993
vn -0.0854 0.4057 0.9100
vn 0.5440 -0.0042 0.8391
vn 0.0209 0.0006 0.9998
vn -0.0076 -0.0091 0.9999
vn -0.0001 0.0044 1.0000
vn -0.0006 0.0029 1.0000
vn 0.0008 -0.0022 1.0000
vn -0.0042 0.0026 1.0000
vn -0.0006 0.0005 1.0000
vn 0.0014 -0.0002 1.0000
vn 0.0731 -0.0150 0.9972
vn 0.8918 -0.0326 0.4512
vn 0.9331 -0.2963 0.2039
vn 0.9354 -0.2820 0.2135
vn 0.9319 -0.1521 0.3293
vn -0.0446 0.2457 0.9683
vn -0.1107 -0.2538 0.9609
vn -0.2248 -0.3221 0.9196
vn -0.2075 -0.1963 0.9583
vn -0.0004 -0.9989 0.0470
vn -0.0006 -0.9869 0.1614
vn 0.0022 -0.8613 0.5081
vn -0.0098 -0.5634 0.8261
vn -0.1435 -0.4093 0.9010
vn -0.3194 0.2078 0.9246
vn -0.1967 0.1498 0.9690
vn -0.2185 0.1402 0.9657
vn -0.2011 0.1644 0.9657
vn -0.1251 0.2215 0.9671
vn -0.1484 0.2649 0.9528
vn -0.1398 0.2006 0.9697
vn -0.0629 0.2299 0.9712
vn 0.3795 -0.4562 0.8049
vn -0.1787 -0.3280 0.9276
vn -0.1208 -0.2220 0.9675
vn -0.1398 -0.2004 0.9697
vn -0.1955 -0.1767 0.9646
vn -0.2180 -0.1403 0.9658
vn -0.1957 -0.1517 0.9689
vn -0.3064 -0.1995 0.9308
vn -0.4345 -0.2146 0.8748
vn -0.7433 -0.3609 0.5632
vn 0.0012 -0.9986 0.0519
vn -0.0102 -0.6491 0.7606
vn -0.0588 -0.3358 0.9401
vn -0.0452 -0.2462 0.9682
vn -0.0625 -0.2298 0.9712
vn -0.7837 0.3237 0.5301
vn -0.7879 0.3176 0.5275
vn -0.3961 0.1499 0.9059
vn -0.0473 0.0377 0.9982
vn 0.0512 -0.0499 0.9974
vn 0.0015 -0.2104 0.9776
vn 0.4247 -0.6248 0.6551
vn 0.0298 -0.1207 0.9922
vn 0.0014 -0.2492 0.9685
vn 0.8588 -0.5034 0.0948
vn 0.9184 -0.3695 0.1415
vn -0.0483 -0.0388 0.9981
vn -0.7201 -0.3802 0.5804
vn -0.8921 0.1860 0.4119
vn -0.3398 0.1041 0.9347
vn -0.0252 0.0173 0.9995
vn 0.4242 -0.9051 0.0274
vn -0.0253 -0.0174 0.9995
vn -0.2402 -0.0777 0.9676
vn -0.3454 -0.1060 0.9325
vn -0.8666 -0.2148 0.4504
vn -0.7070 0.1116 0.6984
vn -0.2403 0.0774 0.9676
vn -0.2353 0.0380 0.9712
vn -0.2353 -0.0381 0.9712
vn -0.6150 -0.1174 0.7797
vn -0.9471 0.1074 0.3026
vn -0.4593 0.0740 0.8852
vn -0.9494 0.0743 0.3051
vn -0.2522 -0.0000 0.9677
vn -0.2973 -0.0000 0.9548
vn -0.5073 -0.0967 0.8563
vn -0.9448 -0.1148 0.3069
vn -0.9670 -0.0171 0.2540
vn -0.9517 -0.0734 0.2980
vn -0.0163 0.1191 -0.9928
vn 0.6564 0.0806 -0.7501
vn -0.9994 0.0334 0.0000
vn -0.9992 0.0385 -0.0056
vn -0.9984 0.0518 -0.0247
vn -0.9962 0.0671 -0.0549
vn -0.9898 0.0867 -0.1127
vn -0.9444 0.1299 -0.3020
vn 0.6598 0.0769 -0.7475
vn 0.7729 0.0223 -0.6342
vn 0.0500 -0.1198 -0.9915
vn 0.0083 -0.1220 -0.9925
vn -0.9977 0.0515 0.0443
vn -0.9987 0.0455 0.0211
vn -0.9993 0.0376 0.0058
vn 0.0000 0.0005 1.0000
vn -0.0015 0.9897 -0.1431
vn 0.0015 0.9069 -0.4214
vn -0.0010 0.7888 -0.6147
vn -0.0068 0.7744 -0.6326
vn 0.0003 0.6106 -0.7919
vn 0.0002 0.4176 -0.9086
vn -0.0049 0.3951 -0.9186
vn 0.0061 0.3087 -0.9511
vn -0.0117 0.1046 -0.9944
vn 0.0162 0.6990 0.7150
vn -0.0088 0.7583 0.6519
vn -0.0199 0.9092 0.4158
vn -0.0067 0.9886 0.1503
vn -0.9994 -0.0335 0.0000
vn -0.9984 -0.0547 0.0146
vn -0.9921 -0.1052 0.0679
vn -0.8644 -0.2780 0.4189
vn -0.0000 -0.0031 1.0000
vn 0.0003 0.0000 1.0000
vn 0.0003 0.0001 1.0000
vn 0.0200 0.9997 0.0107
vn 0.0005 0.9881 -0.1539
vn -0.0083 0.9189 -0.3945
vn 0.0079 0.6381 -0.7699
vn 0.0962 0.6409 -0.7616
vn 0.6610 0.1578 -0.7336
vn 0.8170 0.0482 -0.5746
vn 0.0050 0.8618 0.5072
vn 0.0060 0.9657 0.2596
vn 0.0004 -0.0000 1.0000
vn 0.0004 -0.0002 1.0000
vn -0.7690 -0.4743 -0.4286
vn -0.9968 -0.0742 -0.0290
vn -0.9992 -0.0394 -0.0030
vn -0.0188 -0.9660 0.2578
vn 0.0034 -0.8646 0.5024
vn -0.0091 -0.8402 0.5423
vn -0.0002 -0.7144 0.6997
vn 0.7161 0.2871 0.6362
vn 0.9894 0.0876 -0.1162
vn 0.2354 0.9191 -0.3161
vn 0.2111 0.7730 -0.5983
vn 0.2340 0.7659 -0.5989
vn 0.8595 0.2549 -0.4431
vn -0.0060 -0.2052 -0.9787
vn 0.5574 -0.2469 -0.7927
vn 0.2139 -0.3446 -0.9141
vn 0.2445 0.8387 0.4866
vn 0.3055 0.9170 0.2566
vn 0.0062 -0.7365 0.6764
vn 0.4950 -0.3093 0.8120
vn -0.0044 -0.6370 -0.7708
vn -0.0067 -0.8095 -0.5871
vn -0.0024 -0.9314 -0.3639
vn -0.0117 -0.9970 -0.0766
vn 0.0003 -0.9842 0.1769
vn 0.0047 -0.9185 0.3954
vn 0.7781 0.3772 0.5022
vn 0.9754 -0.0200 -0.2195
vn 0.8325 0.5511 0.0571
vn 0.8763 -0.1905 0.4426
vn 0.4056 -0.0345 0.9134
vn 0.2534 -0.6916 0.6764
vn 0.7778 -0.3539 0.5193
vn -0.0033 -0.3945 -0.9189
vn 0.0093 -0.5759 -0.8175
vn 0.0118 -0.7107 -0.7034
vn 0.0149 -0.8894 -0.4569
vn 0.0023 -0.9444 -0.3287
vn -0.0129 -0.9967 -0.0802
vn 0.4342 -0.8833 0.1769
vn 0.1949 -0.8385 0.5088
vn 0.9976 0.0104 0.0688
vn 0.9849 0.0259 0.1710
vn 0.7235 0.3582 -0.5902
vn 0.7895 0.2482 -0.5613
vn 0.7576 0.2761 -0.5915
vn 0.9976 -0.0062 -0.0691
vn 0.7618 -0.2243 -0.6078
vn 0.0070 -0.3465 -0.9380
vn 0.7872 -0.1815 -0.5894
vn 0.8803 0.3493 0.3209
vn 0.6808 0.7271 0.0887
vn 0.7567 0.6537 0.0074
vn 0.4121 -0.6757 0.6112
vn 0.3309 -0.5196 -0.7877
vn 0.1176 -0.8798 -0.4605
vn 0.7105 -0.6986 -0.0847
vn 0.9986 0.0084 -0.0514
vn 0.7065 0.5423 0.4547
vn 0.3071 -0.6958 -0.6493
vn 0.8284 -0.5506 -0.1029
vn 0.6607 -0.7207 0.2097
vn 0.7166 0.6654 -0.2092
vn 0.7970 0.4743 -0.3738
vn 0.9534 0.1666 -0.2517
vn 0.9975 0.0393 -0.0594
vn 0.7885 -0.3755 -0.4871
vn 0.7754 -0.5839 -0.2406
vn 0.7196 -0.6854 -0.1111
vn 0.7668 0.6276 -0.1347
vn 0.7765 0.4812 -0.4067
vn 0.9761 0.2071 0.0656
vn 0.8085 0.5209 0.2738
vn 0.9987 -0.0208 0.0475
vn 0.7580 -0.3447 -0.5538
vn 0.7862 -0.5824 -0.2067
vn 0.7407 -0.6309 0.2309
vn 0.9076 -0.3931 0.1474
vn 0.9546 0.2768 -0.1100
vn 0.7544 0.5420 -0.3702
vn 0.9977 -0.0454 -0.0508
vn 0.9984 -0.0285 0.0491
vn 0.8058 -0.4405 0.3957
vn 0.8397 -0.4388 0.3200
vn 0.7238 -0.4824 -0.4934
vn 0.8103 -0.5801 0.0829
vn 0.9978 0.0401 0.0533
vn 0.9983 0.0558 -0.0161
vn 0.9979 0.0601 -0.0236
vn 0.9998 0.0038 -0.0216
vn 0.7919 -0.5073 -0.3400
vn 0.9482 -0.2110 -0.2374
vn 1.0000 -0.0011 0.0092
vn 1.0000 0.0002 0.0001
vn 0.9977 0.0641 0.0202
vn 0.9999 -0.0042 -0.0129
vn 0.9979 -0.0494 0.0418
vn 0.9980 -0.0625 -0.0070
vn 0.9984 0.0485 0.0306
vn 0.9988 -0.0461 -0.0187
vn 0.0029 0.9998 -0.0186
vn -0.0013 0.8800 0.4750
vn 0.0048 0.9999 0.0117
vn -0.2278 0.9735 -0.0181
vn -0.1506 0.9153 0.3737
vn 0.0001 0.8551 0.5184
vn -0.0176 0.6448 -0.7641
vn -0.0016 0.8063 -0.5916
vn -0.2162 0.9756 -0.0371
vn -0.1997 0.6074 0.7689
vn -0.1253 0.3728 0.9194
vn -0.0542 0.4864 0.8721
vn 0.0001 0.6196 0.7849
vn -0.0102 -0.0148 -0.9998
vn 0.0330 0.2452 -0.9689
vn -0.1403 0.3336 0.9322
vn 0.0520 0.4846 0.8732
vn -0.0099 0.0109 -0.9999
vn 0.0284 0.8447 -0.5345
vn -0.6040 0.7032 0.3751
vn -0.1677 0.2876 0.9430
vn 0.0002 0.0001 1.0000
vn 0.0226 0.0275 0.9994
vn -0.0115 0.0107 0.9999
vn -0.0018 0.0001 1.0000
vn 0.0110 0.4297 0.9029
vn 0.1159 0.8473 0.5183
vn 0.1011 0.4061 0.9082
vn 0.1842 0.9803 -0.0719
vn 0.2463 0.5079 -0.8255
vn -0.5616 0.8225 -0.0901
vn -0.6339 0.5824 0.5088
vn -0.8606 0.5065 0.0533
vn -0.2584 0.0000 0.9660
vn -0.1758 0.1385 0.9746
vn -0.0068 -0.0029 1.0000
vn -0.0102 -0.0071 0.9999
vn 0.0033 -0.0037 1.0000
vn 0.3153 0.0548 0.9474
vn 0.0095 0.0092 0.9999
vn -0.0275 -0.0100 0.9996
vn 0.2547 0.9667 0.0251
vn -0.0133 0.0666 -0.9977
vn -0.0010 0.0133 -0.9999
vn 0.0845 0.0864 -0.9927
vn -0.6006 0.7749 -0.1972
vn -0.9284 -0.2959 0.2246
vn -0.3756 -0.2689 0.8869
vn -0.1743 -0.1775 0.9686
vn -0.1755 -0.1496 0.9730
vn -0.2370 -0.0189 0.9713
vn -0.1134 -0.2663 0.9572
vn -0.1019 -0.2911 0.9512
vn -0.0001 -0.4101 0.9121
vn 0.0471 -0.3546 0.9338
vn 0.0086 -0.0078 0.9999
vn 0.0143 -0.0106 0.9998
vn 0.2867 -0.0704 0.9554
vn 0.3622 0.0006 0.9321
vn 0.2870 0.0782 0.9547
vn 0.2221 0.1868 0.9570
vn 0.2141 0.1952 0.9571
vn 0.1335 0.3383 0.9315
vn 0.1775 0.2784 0.9439
vn 0.6060 0.7924 0.0695
vn 0.0002 -0.0005 -1.0000
vn 0.6041 0.7163 -0.3494
vn -0.9735 0.1998 -0.1117
vn -1.0000 0.0000 -0.0020
vn -0.5563 -0.5433 0.6288
vn -0.1630 -0.4125 0.8963
vn -0.2004 -0.8056 0.5575
vn 0.0000 -0.6131 0.7900
vn -0.0001 -0.6081 0.7939
vn 0.0030 -0.4051 0.9143
vn 0.1701 -0.6384 0.7507
vn 0.1177 -0.2486 0.9614
vn 0.1863 -0.1653 0.9685
vn 0.2767 -0.0761 0.9579
vn 0.2846 -0.0695 0.9561
vn 0.8757 -0.0021 0.4828
vn 0.8312 0.0009 0.5560
vn 0.4117 0.0978 0.9061
vn 0.8610 0.1101 0.4966
vn 0.3688 0.2329 0.8999
vn 0.5653 0.8240 -0.0365
vn 0.0019 0.0000 -1.0000
vn 0.0120 -0.0142 -0.9998
vn 0.1824 0.0939 -0.9787
vn 0.3833 0.1787 -0.9062
vn 0.6288 0.4974 -0.5976
vn -0.7802 0.3140 -0.5410
vn -0.8487 0.5268 -0.0466
vn -0.9551 -0.1742 -0.2397
vn -0.9881 -0.1340 -0.0755
vn -0.9271 -0.3258 -0.1852
vn -0.8950 -0.4423 0.0585
vn -0.2236 -0.9133 0.3404
vn 0.0000 -0.9911 0.1330
vn 0.1354 -0.7552 0.6413
vn 0.2007 -0.2461 0.9482
vn 0.1652 -0.2041 0.9649
vn 0.3730 -0.2473 0.8943
vn 0.8480 -0.0866 0.5229
vn 0.0024 0.0815 -0.9967
vn -0.6827 -0.6476 0.3383
vn -0.8001 -0.5954 0.0731
vn 0.0041 -0.9999 0.0166
vn 0.3361 -0.5967 0.7287
vn 0.9991 0.0031 0.0434
vn 0.9775 0.1977 0.0739
vn 0.8165 0.5480 0.1818
vn 0.1352 -0.0023 -0.9908
vn -0.2539 -0.0248 -0.9669
vn 0.1125 -0.0701 -0.9912
vn -0.0027 -0.3445 -0.9388
vn -0.1122 -0.0849 -0.9900
vn -0.1023 -0.0690 -0.9924
vn -0.5970 -0.4445 -0.6679
vn -0.2770 -0.9428 0.1857
vn -0.0676 -0.9762 -0.2059
vn -0.0055 -0.9847 -0.1744
vn 0.1121 -0.9930 0.0379
vn 0.5349 -0.8130 0.2299
vn 0.8034 -0.5443 0.2416
vn 0.9694 -0.2273 0.0925
vn 0.9791 -0.1985 -0.0452
vn 0.9645 0.2637 -0.0115
vn 0.7516 0.0082 -0.6596
vn 0.8357 0.0016 -0.5492
vn 0.0062 -0.5811 -0.8138
vn 0.7540 0.0429 -0.6555
vn 0.9311 0.3644 -0.0130
vn -0.7191 -0.6469 -0.2537
vn 0.1939 -0.9800 -0.0459
vn 0.5135 -0.8196 0.2542
vn 0.8035 -0.5437 0.2424
vn 0.9989 -0.0031 -0.0463
vn 0.7696 -0.0675 -0.6350
vn 0.2945 -0.5504 -0.7812
vn -0.0991 -0.4405 -0.8923
vn -0.4559 -0.8764 -0.1552
vn -0.4212 -0.9053 0.0550
vn -0.1866 -0.7633 -0.6185
vn 0.9707 -0.2145 -0.1086
vn 0.7981 -0.5386 -0.2702
vn 0.6537 -0.7216 -0.2280
vn 0.1833 -0.7394 -0.6478
vn 0.7885 -0.5745 -0.2197
usemtl Default_OBJ
s off
f 1//1 2//1 3//1
f 1//2 3//2 4//2
f 1//3 5//3 2//3
f 3//4 6//4 4//4
f 6//5 7//5 8//5
f 3//6 7//6 6//6
f 5//7 1//7 9//7
f 2//8 5//8 10//8
f 8//9 11//9 6//9
f 8//10 7//10 12//10
f 8//11 12//11 13//11
f 8//12 13//12 14//12
f 8//13 14//13 15//13
f 8//14 16//14 17//14
f 8//14 17//14 18//14
f 8//15 18//15 19//15
f 8//16 19//16 20//16
f 8//17 20//17 21//17
f 8//18 21//18 11//18
f 6//19 11//19 4//19
f 9//20 1//20 22//20
f 5//21 23//21 10//21
f 7//22 3//22 24//22
f 7//23 24//23 12//23
f 12//24 24//24 25//24
f 12//25 25//25 13//25
f 13//26 25//26 15//26
f 13//27 15//27 14//27
f 18//28 26//28 27//28
f 18//29 27//29 28//29
f 18//30 28//30 29//30
f 18//31 29//31 30//31
f 18//32 30//32 31//32
f 18//33 31//33 32//33
f 18//34 32//34 33//34
f 18//35 33//35 19//35
f 19//36 34//36 20//36
f 20//37 34//37 35//37
f 20//38 35//38 36//38
f 20//39 36//39 37//39
f 20//40 37//40 38//40
f 20//41 38//41 21//41
f 21//42 38//42 39//42
f 21//43 39//43 11//43
f 11//44 39//44 4//44
f 1//45 4//45 39//45
f 1//46 39//46 22//46
f 9//47 38//47 40//47
f 9//48 22//48 38//48
f 9//49 23//49 5//49
f 2//50 10//50 3//50
f 3//51 10//51 24//51
f 24//52 41//52 25//52
f 25//53 41//53 15//53
f 15//54 41//54 42//54
f 42//55 43//55 15//55
f 15//56 43//56 16//56
f 15//57 16//57 8//57
f 26//58 44//58 45//58
f 27//59 26//59 28//59
f 28//60 26//60 46//60
f 28//61 46//61 47//61
f 28//62 47//62 29//62
f 29//63 47//63 48//63
f 29//64 48//64 30//64
f 30//65 48//65 49//65
f 30//66 49//66 31//66
f 31//67 49//67 50//67
f 31//68 50//68 32//68
f 32//69 50//69 51//69
f 32//70 51//70 33//70
f 33//71 51//71 52//71
f 33//72 52//72 19//72
f 36//73 53//73 54//73
f 9//74 40//74 55//74
f 9//75 55//75 56//75
f 9//76 56//76 57//76
f 9//77 57//77 23//77
f 23//78 41//78 10//78
f 24//79 10//79 41//79
f 43//80 17//80 16//80
f 26//81 18//81 44//81
f 44//82 58//82 45//82
f 26//83 45//83 59//83
f 26//84 59//84 46//84
f 46//85 59//85 47//85
f 47//86 59//86 60//86
f 47//87 60//87 48//87
f 48//88 60//88 61//88
f 49//89 48//89 61//89
f 49//90 61//90 62//90
f 51//91 50//91 62//91
f 52//92 51//92 63//92
f 52//93 64//93 19//93
f 19//94 64//94 65//94
f 19//95 65//95 66//95
f 19//96 66//96 34//96
f 34//97 66//97 67//97
f 34//98 67//98 68//98
f 35//99 34//99 53//99
f 36//100 35//100 53//100
f 36//101 54//101 37//101
f 38//102 37//102 40//102
f 39//103 38//103 22//103
f 55//104 69//104 70//104
f 55//105 70//105 71//105
f 55//106 71//106 56//106
f 56//107 72//107 57//107
f 41//108 23//108 42//108
f 42//109 23//109 57//109
f 43//110 42//110 58//110
f 44//111 18//111 17//111
f 49//112 62//112 50//112
f 51//113 62//113 63//113
f 52//114 63//114 73//114
f 52//115 73//115 64//115
f 65//116 74//116 66//116
f 68//117 75//117 53//117
f 68//118 53//118 34//118
f 54//119 55//119 40//119
f 40//120 37//120 54//120
f 55//121 54//121 53//121
f 55//122 53//122 75//122
f 55//123 75//123 69//123
f 70//124 73//124 71//124
f 71//125 76//125 56//125
f 56//126 76//126 72//126
f 58//127 44//127 43//127
f 44//128 17//128 43//128
f 45//129 58//129 72//129
f 45//130 72//130 77//130
f 45//131 77//131 59//131
f 59//132 77//132 60//132
f 60//133 77//133 61//133
f 63//134 71//134 73//134
f 64//135 73//135 74//135
f 64//136 74//136 65//136
f 66//137 74//137 67//137
f 67//138 69//138 75//138
f 67//139 75//139 68//139
f 76//140 71//140 62//140
f 76//141 77//141 72//141
f 72//142 58//142 42//142
f 72//143 42//143 57//143
f 61//144 76//144 62//144
f 71//145 63//145 62//145
f 73//146 70//146 74//146
f 67//147 74//147 69//147
f 70//148 69//148 74//148
f 61//149 77//149 76//149
f 78//150 79//150 80//150
f 78//151 80//151 81//151
f 78//152 81//152 82//152
f 78//153 83//153 79//153
f 80//154 84//154 85//154
f 80//155 85//155 81//155
f 80//156 79//156 86//156
f 80//156 86//156 87//156
f 80//156 87//156 88//156
f 80//156 88//156 89//156
f 80//156 89//156 90//156
f 80//156 90//156 91//156
f 80//156 91//156 92//156
f 80//156 92//156 93//156
f 80//156 93//156 94//156
f 80//156 94//156 95//156
f 80//156 95//156 96//156
f 80//156 96//156 97//156
f 80//156 97//156 98//156
f 80//156 98//156 99//156
f 80//156 99//156 100//156
f 80//156 100//156 101//156
f 80//156 101//156 102//156
f 80//156 102//156 103//156
f 80//156 103//156 104//156
f 80//156 104//156 105//156
f 80//156 105//156 106//156
f 80//156 106//156 107//156
f 80//156 107//156 108//156
f 80//156 108//156 109//156
f 80//156 109//156 110//156
f 80//156 110//156 111//156
f 80//156 111//156 112//156
f 80//156 112//156 113//156
f 80//156 113//156 114//156
f 81//157 115//157 82//157
f 82//14 115//14 116//14
f 82//14 116//14 117//14
f 82//14 117//14 118//14
f 82//14 118//14 119//14
f 82//14 119//14 120//14
f 82//14 120//14 121//14
f 82//14 121//14 122//14
f 82//14 122//14 123//14
f 82//14 123//14 124//14
f 82//14 124//14 125//14
f 82//14 125//14 126//14
f 82//14 126//14 127//14
f 82//14 127//14 128//14
f 82//14 128//14 129//14
f 82//14 129//14 130//14
f 82//14 130//14 131//14
f 82//14 131//14 132//14
f 82//14 132//14 133//14
f 82//14 133//14 134//14
f 82//14 134//14 135//14
f 82//14 135//14 136//14
f 82//158 136//158 137//158
f 82//159 137//159 138//159
f 78//160 82//160 138//160
f 78//161 138//161 83//161
f 79//162 139//162 140//162
f 79//163 83//163 141//163
f 79//164 141//164 139//164
f 138//165 137//165 142//165
f 138//166 142//166 143//166
f 80//167 114//167 117//167
f 117//168 84//168 80//168
f 84//169 117//169 116//169
f 116//170 85//170 84//170
f 85//171 116//171 115//171
f 85//172 115//172 81//172
f 143//173 142//173 141//173
f 143//174 141//174 138//174
f 138//175 141//175 83//175
f 142//176 139//176 141//176
f 139//177 142//177 140//177
f 140//178 142//178 137//178
f 140//179 137//179 79//179
f 114//180 118//180 117//180
f 137//181 136//181 79//181
f 136//182 86//182 79//182
f 118//183 114//183 113//183
f 118//184 113//184 119//184
f 119//185 113//185 120//185
f 136//186 135//186 86//186
f 135//187 87//187 86//187
f 113//188 112//188 120//188
f 87//189 135//189 134//189
f 120//190 112//190 121//190
f 112//191 111//191 121//191
f 87//192 133//192 88//192
f 87//192 134//192 133//192
f 133//193 132//193 144//193
f 133//194 144//194 145//194
f 133//195 145//195 146//195
f 133//196 146//196 147//196
f 133//197 147//197 148//197
f 133//198 148//198 149//198
f 121//199 111//199 122//199
f 132//200 150//200 151//200
f 132//201 151//201 152//201
f 132//202 152//202 144//202
f 145//203 144//203 93//203
f 145//204 93//204 92//204
f 145//205 92//205 146//205
f 88//206 133//206 89//206
f 132//207 153//207 100//207
f 132//208 154//208 150//208
f 150//209 97//209 151//209
f 151//210 96//210 152//210
f 144//211 94//211 93//211
f 146//212 92//212 91//212
f 146//213 91//213 147//213
f 147//214 91//214 148//214
f 148//215 89//215 149//215
f 149//216 89//216 133//216
f 111//217 110//217 122//217
f 132//218 99//218 154//218
f 150//219 154//219 98//219
f 152//220 96//220 95//220
f 144//221 152//221 94//221
f 148//214 91//214 90//214
f 148//222 90//222 89//222
f 150//223 98//223 97//223
f 151//209 97//209 96//209
f 152//224 95//224 94//224
f 110//225 123//225 122//225
f 132//226 131//226 153//226
f 130//227 102//227 153//227
f 130//228 153//228 131//228
f 132//229 100//229 99//229
f 99//230 98//230 154//230
f 130//231 129//231 103//231
f 130//232 103//232 102//232
f 110//233 109//233 124//233
f 110//234 124//234 123//234
f 102//235 101//235 153//235
f 153//236 101//236 100//236
f 109//237 108//237 124//237
f 124//238 108//238 125//238
f 129//239 104//239 103//239
f 104//240 129//240 128//240
f 104//241 128//241 105//241
f 108//242 107//242 126//242
f 108//243 126//243 125//243
f 107//244 106//244 126//244
f 105//245 128//245 106//245
f 106//246 128//246 127//246
f 126//247 106//247 127//247
f 155//248 156//248 157//248
f 155//248 157//248 158//248
f 155//248 158//248 159//248
f 155//248 159//248 160//248
f 155//248 160//248 161//248
f 155//248 161//248 162//248
f 155//248 162//248 163//248
f 155//248 163//248 164//248
f 155//248 164//248 165//248
f 155//248 165//248 166//248
f 155//248 166//248 167//248
f 155//248 167//248 168//248
f 155//249 168//249 169//249
f 155//250 169//250 170//250
f 155//251 170//251 156//251
f 170//252 171//252 172//252
f 169//253 173//253 170//253
f 169//254 174//254 173//254
f 169//255 168//255 175//255
f 170//256 173//256 171//256
f 172//257 176//257 170//257
f 170//258 176//258 159//258
f 170//259 159//259 158//259
f 170//260 158//260 157//260
f 170//261 157//261 156//261
f 169//262 175//262 174//262
f 175//263 168//263 167//263
f 175//263 167//263 177//263
f 175//264 177//264 178//264
f 175//265 178//265 179//265
f 175//266 179//266 180//266
f 175//267 180//267 181//267
f 175//268 182//268 183//268
f 175//269 183//269 184//269
f 175//270 184//270 185//270
f 175//271 185//271 186//271
f 175//272 186//272 174//272
f 172//273 171//273 187//273
f 171//274 188//274 187//274
f 176//275 172//275 189//275
f 176//276 189//276 160//276
f 176//277 160//277 159//277
f 173//278 188//278 171//278
f 177//279 190//279 191//279
f 177//280 191//280 192//280
f 177//281 192//281 193//281
f 177//282 167//282 194//282
f 177//283 194//283 195//283
f 177//284 195//284 196//284
f 177//285 196//285 197//285
f 177//286 197//286 190//286
f 182//287 198//287 183//287
f 186//288 188//288 174//288
f 174//289 188//289 173//289
f 188//290 199//290 187//290
f 187//291 200//291 172//291
f 187//292 201//292 202//292
f 187//293 202//293 200//293
f 172//275 203//275 189//275
f 189//294 161//294 160//294
f 187//295 199//295 204//295
f 187//296 204//296 201//296
f 193//297 205//297 177//297
f 196//298 195//298 197//298
f 182//299 175//299 198//299
f 183//300 206//300 184//300
f 184//301 206//301 185//301
f 185//302 207//302 186//302
f 186//303 207//303 188//303
f 172//304 200//304 203//304
f 201//305 208//305 202//305
f 201//306 204//306 199//306
f 201//307 199//307 209//307
f 201//308 209//308 210//308
f 201//309 210//309 211//309
f 201//310 211//310 212//310
f 201//311 212//311 213//311
f 201//312 213//312 208//312
f 202//313 208//313 200//313
f 189//314 203//314 161//314
f 203//315 214//315 163//315
f 203//316 163//316 162//316
f 203//317 162//317 161//317
f 188//318 207//318 199//318
f 191//319 190//319 215//319
f 191//320 215//320 192//320
f 192//321 215//321 193//321
f 167//322 166//322 194//322
f 195//323 194//323 214//323
f 195//324 214//324 216//324
f 195//325 216//325 197//325
f 197//326 217//326 190//326
f 198//327 218//327 183//327
f 183//328 218//328 219//328
f 183//329 219//329 220//329
f 183//330 220//330 206//330
f 206//331 209//331 207//331
f 206//332 207//332 185//332
f 206//333 220//333 209//333
f 207//334 209//334 199//334
f 203//335 216//335 214//335
f 190//336 217//336 215//336
f 215//337 217//337 211//337
f 215//338 211//338 221//338
f 193//339 215//339 221//339
f 193//340 221//340 222//340
f 193//341 222//341 223//341
f 193//342 223//342 205//342
f 205//343 223//343 224//343
f 205//344 224//344 177//344
f 166//345 214//345 194//345
f 216//346 225//346 197//346
f 197//347 225//347 217//347
f 217//348 225//348 212//348
f 217//349 212//349 211//349
f 198//350 175//350 181//350
f 198//351 181//351 226//351
f 198//352 226//352 218//352
f 219//353 209//353 220//353
f 208//354 213//354 200//354
f 200//355 225//355 216//355
f 200//356 216//356 203//356
f 200//357 213//357 212//357
f 200//358 212//358 225//358
f 214//359 165//359 164//359
f 214//360 164//360 163//360
f 221//361 211//361 222//361
f 224//362 178//362 177//362
f 226//363 181//363 227//363
f 218//364 226//364 228//364
f 219//365 210//365 209//365
f 214//366 166//366 165//366
f 211//367 210//367 222//367
f 222//368 229//368 223//368
f 223//369 229//369 224//369
f 224//370 230//370 178//370
f 227//371 231//371 226//371
f 218//372 228//372 219//372
f 219//373 228//373 210//373
f 222//374 210//374 229//374
f 230//375 224//375 231//375
f 181//376 180//376 227//376
f 226//377 231//377 228//377
f 227//378 180//378 231//378
f 210//379 228//379 229//379
f 228//380 231//380 229//380
f 229//381 231//381 224//381
f 230//382 179//382 178//382
f 180//383 179//383 231//383
f 231//384 179//384 230//384
f 232//385 233//385 234//385
f 232//386 235//386 236//386
f 233//156 237//156 238//156
f 233//156 238//156 239//156
f 233//156 239//156 240//156
f 233//387 240//387 241//387
f 233//388 241//388 242//388
f 233//389 242//389 243//389
f 233//390 243//390 244//390
f 233//391 244//391 245//391
f 233//392 245//392 246//392
f 235//393 232//393 234//393
f 235//394 247//394 236//394
f 232//395 236//395 248//395
f 232//396 248//396 233//396
f 240//397 249//397 250//397
f 240//398 250//398 251//398
f 240//399 251//399 241//399
f 240//400 252//400 249//400
f 241//401 253//401 242//401
f 242//402 254//402 243//402
f 243//403 255//403 256//403
f 243//404 256//404 244//404
f 244//405 257//405 245//405
f 245//406 257//406 258//406
f 245//407 258//407 246//407
f 246//408 258//408 234//408
f 246//409 234//409 233//409
f 249//410 252//410 259//410
f 249//411 259//411 250//411
f 250//412 260//412 251//412
f 251//413 261//413 241//413
f 239//414 238//414 262//414
f 239//415 262//415 263//415
f 239//416 263//416 264//416
f 239//417 264//417 265//417
f 239//418 265//418 266//418
f 240//419 239//419 267//419
f 240//420 267//420 252//420
f 241//421 261//421 253//421
f 253//422 254//422 242//422
f 254//423 255//423 243//423
f 244//424 256//424 257//424
f 257//425 256//425 268//425
f 235//426 234//426 258//426
f 235//427 269//427 247//427
f 260//428 250//428 259//428
f 251//429 260//429 261//429
f 239//430 270//430 267//430
f 239//431 266//431 270//431
f 238//432 271//432 272//432
f 238//433 272//433 273//433
f 238//434 273//434 262//434
f 262//435 274//435 263//435
f 263//436 275//436 276//436
f 263//437 276//437 264//437
f 264//438 266//438 265//438
f 267//439 277//439 252//439
f 254//440 253//440 255//440
f 255//441 253//441 278//441
f 255//442 278//442 256//442
f 256//443 278//443 268//443
f 257//444 268//444 258//444
f 248//445 237//445 233//445
f 248//446 236//446 279//446
f 248//447 279//447 280//447
f 260//448 259//448 281//448
f 260//449 281//449 261//449
f 266//450 264//450 276//450
f 266//451 282//451 270//451
f 238//452 283//452 271//452
f 272//453 271//453 284//453
f 272//454 285//454 273//454
f 273//455 286//455 262//455
f 274//456 262//456 287//456
f 263//457 274//457 275//457
f 252//458 277//458 288//458
f 289//459 247//459 269//459
f 261//460 281//460 253//460
f 270//461 290//461 291//461
f 270//462 291//462 267//462
f 266//463 276//463 282//463
f 282//464 290//464 270//464
f 238//465 237//465 280//465
f 280//466 283//466 238//466
f 271//467 283//467 284//467
f 284//468 285//468 272//468
f 285//469 286//469 273//469
f 286//470 287//470 262//470
f 287//471 292//471 274//471
f 276//472 275//472 293//472
f 291//473 294//473 277//473
f 291//474 277//474 267//474
f 268//475 295//475 258//475
f 258//476 295//476 235//476
f 269//477 235//477 295//477
f 269//478 296//478 289//478
f 236//479 247//479 289//479
f 237//480 248//480 280//480
f 279//481 236//481 289//481
f 259//482 252//482 281//482
f 281//483 297//483 253//483
f 253//484 297//484 298//484
f 276//485 293//485 282//485
f 279//486 283//486 280//486
f 284//487 299//487 285//487
f 287//488 286//488 292//488
f 269//489 300//489 296//489
f 252//490 288//490 281//490
f 284//491 283//491 299//491
f 285//492 292//492 286//492
f 292//493 275//493 274//493
f 253//494 301//494 278//494
f 278//495 301//495 268//495
f 295//496 302//496 269//496
f 269//497 302//497 300//497
f 279//498 289//498 283//498
f 299//499 303//499 285//499
f 285//500 304//500 292//500
f 253//501 298//501 301//501
f 295//502 268//502 302//502
f 288//503 298//503 297//503
f 288//504 297//504 281//504
f 291//505 305//505 294//505
f 283//506 289//506 306//506
f 304//507 285//507 303//507
f 292//508 307//508 293//508
f 292//509 293//509 275//509
f 301//510 298//510 302//510
f 301//511 302//511 268//511
f 296//512 303//512 289//512
f 291//513 290//513 305//513
f 293//514 290//514 282//514
f 293//515 307//515 290//515
f 283//516 306//516 299//516
f 292//517 304//517 307//517
f 277//518 294//518 288//518
f 298//519 308//519 300//519
f 298//520 300//520 302//520
f 296//521 300//521 308//521
f 299//522 306//522 303//522
f 289//523 303//523 306//523
f 294//524 305//524 308//524
f 303//525 307//525 304//525
f 308//526 298//526 288//526
f 296//527 308//527 305//527
f 307//528 305//528 290//528
f 303//529 305//529 307//529
f 294//530 308//530 288//530
f 296//531 305//531 303//531
f 309//532 310//532 311//532
f 309//533 312//533 313//533
f 309//534 313//534 310//534
f 309//535 311//535 314//535
f 309//536 315//536 312//536
f 312//537 316//537 313//537
f 311//538 317//538 314//538
f 311//539 310//539 317//539
f 309//540 314//540 315//540
f 312//541 315//541 318//541
f 312//542 318//542 319//542
f 312//543 319//543 320//543
f 312//544 320//544 316//544
f 317//545 321//545 314//545
f 310//546 322//546 317//546
f 318//547 323//547 319//547
f 316//548 320//548 324//548
f 321//549 325//549 314//549
f 317//550 322//550 321//550
f 315//551 326//551 318//551
f 318//552 327//552 323//552
f 319//553 328//553 329//553
f 319//554 329//554 324//554
f 319//555 323//555 330//555
f 319//556 330//556 328//556
f 320//557 319//557 324//557
f 316//558 331//558 313//558
f 316//559 324//559 331//559
f 313//560 322//560 310//560
f 322//561 332//561 321//561
f 326//562 315//562 314//562
f 327//563 318//563 326//563
f 327//564 326//564 333//564
f 327//565 334//565 330//565
f 327//566 330//566 323//566
f 328//567 330//567 335//567
f 328//568 335//568 336//568
f 328//569 337//569 329//569
f 329//570 338//570 339//570
f 329//571 340//571 341//571
f 329//572 341//572 324//572
f 313//573 331//573 322//573
f 321//574 342//574 325//574
f 321//575 343//575 342//575
f 343//576 321//576 332//576
f 314//577 325//577 326//577
f 334//578 344//578 345//578
f 334//579 345//579 346//579
f 334//580 346//580 336//580
f 334//581 336//581 335//581
f 334//582 335//582 330//582
f 336//583 346//583 328//583
f 328//584 346//584 347//584
f 328//585 347//585 348//585
f 337//586 348//586 349//586
f 337//587 350//587 329//587
f 329//588 350//588 351//588
f 329//589 352//589 353//589
f 329//590 353//590 338//590
f 339//591 340//591 329//591
f 340//592 339//592 354//592
f 340//593 354//593 341//593
f 324//594 341//594 331//594
f 331//595 341//595 354//595
f 331//596 355//596 322//596
f 342//597 343//597 356//597
f 332//598 322//598 355//598
f 327//599 333//599 342//599
f 327//600 342//600 357//600
f 327//600 357//600 334//600
f 346//601 345//601 358//601
f 347//602 346//602 358//602
f 347//603 358//603 359//603
f 359//604 360//604 348//604
f 359//605 348//605 347//605
f 348//606 337//606 328//606
f 349//607 348//607 361//607
f 337//608 349//608 350//608
f 350//609 352//609 351//609
f 351//610 352//610 329//610
f 352//611 362//611 353//611
f 353//612 363//612 364//612
f 353//613 364//613 338//613
f 338//614 365//614 339//614
f 338//615 364//615 365//615
f 339//616 365//616 354//616
f 354//617 355//617 331//617
f 342//618 356//618 357//618
f 356//619 343//619 366//619
f 332//620 367//620 368//620
f 332//621 368//621 343//621
f 332//622 355//622 367//622
f 325//623 342//623 333//623
f 325//624 333//624 326//624
f 357//625 369//625 344//625
f 357//626 344//626 334//626
f 344//627 369//627 370//627
f 344//628 370//628 345//628
f 358//629 371//629 359//629
f 359//630 371//630 360//630
f 348//631 360//631 361//631
f 349//632 372//632 352//632
f 349//633 352//633 350//633
f 352//634 372//634 362//634
f 362//635 363//635 353//635
f 366//636 373//636 356//636
f 345//637 374//637 358//637
f 345//638 370//638 374//638
f 371//639 375//639 360//639
f 361//640 372//640 349//640
f 364//641 363//641 376//641
f 364//642 376//642 365//642
f 354//643 365//643 355//643
f 343//644 368//644 377//644
f 343//645 377//645 366//645
f 366//646 378//646 373//646
f 373//647 379//647 356//647
f 356//648 380//648 369//648
f 356//649 369//649 357//649
f 369//650 380//650 370//650
f 371//651 358//651 381//651
f 371//652 381//652 379//652
f 371//653 379//653 375//653
f 360//654 375//654 361//654
f 361//655 382//655 372//655
f 372//656 383//656 362//656
f 362//657 383//657 363//657
f 363//658 383//658 384//658
f 365//659 376//659 367//659
f 368//660 376//660 377//660
f 377//661 376//661 384//661
f 373//662 375//662 379//662
f 368//663 367//663 376//663
f 355//664 365//664 367//664
f 380//665 374//665 370//665
f 361//666 375//666 382//666
f 382//667 385//667 372//667
f 372//668 385//668 383//668
f 363//669 384//669 376//669
f 377//670 384//670 366//670
f 378//671 382//671 373//671
f 356//672 379//672 380//672
f 374//673 380//673 381//673
f 381//674 358//674 374//674
f 381//675 380//675 379//675
f 383//676 366//676 384//676
f 378//677 366//677 383//677
f 382//678 378//678 385//678
f 373//679 382//679 375//679
f 378//680 383//680 385//680
