# Blender v3.0.1 OBJ File: ''
# www.blender.org
mtllib arml7.mtl
o left_j7
v -0.076004 -0.006334 0.035115
v -0.074455 -0.005996 0.040689
v -0.067579 -0.005996 0.038505
v -0.068857 -0.006334 0.035115
v -0.065537 -0.006749 0.035115
v -0.064852 -0.007648 0.035115
v -0.064865 -0.019257 0.035115
v -0.065991 -0.020289 0.035115
v -0.074768 -0.020284 0.035115
v -0.075863 -0.019276 0.035115
v -0.072442 -0.005996 0.044282
v -0.070890 -0.005996 0.046151
v -0.069739 -0.005996 0.047258
v -0.066117 -0.005996 0.049718
v -0.061239 -0.005996 0.051469
v -0.057193 -0.005996 0.052028
v -0.057193 -0.005996 0.045447
v -0.057193 -0.019851 0.051182
v -0.057193 -0.020300 0.050313
v -0.057193 -0.020283 0.042386
v -0.057193 -0.019764 0.041543
v -0.057193 -0.007024 0.041756
v -0.074527 -0.018974 0.039367
v -0.072957 -0.019852 0.041864
v -0.071120 -0.020264 0.042987
v -0.060044 -0.012107 0.051437
v -0.072828 -0.019060 0.042448
v -0.070809 -0.019140 0.044938
v -0.067400 -0.019800 0.047755
v -0.063824 -0.009914 0.050530
v -0.063373 -0.020237 0.049108
v -0.061174 -0.019816 0.050594
v -0.065711 -0.019254 0.048893
v -0.066808 -0.010516 0.049016
v -0.076215 0.005918 0.033193
v -0.076179 0.018970 0.033193
v -0.075050 0.020303 0.033193
v -0.066182 0.020168 0.033193
v -0.065478 0.019254 0.033193
v -0.065445 0.007647 0.033193
v -0.065974 0.006813 0.033193
v -0.069480 0.005918 0.033193
v -0.075488 0.005918 0.037573
v -0.052826 0.006811 0.042150
v -0.052826 0.005955 0.045684
v -0.052826 0.005955 0.052076
v -0.058348 0.005945 0.051949
v -0.052826 0.007648 0.041707
v -0.052826 0.019255 0.041719
v -0.052826 0.020115 0.042165
v -0.052826 0.020302 0.042951
v -0.052826 0.020305 0.050311
v -0.052826 0.019896 0.051214
v -0.075081 0.019410 0.037725
v -0.064111 0.005945 0.050632
v -0.067008 0.005945 0.049194
v -0.071378 0.005945 0.045494
v -0.073555 0.005945 0.042524
v -0.061080 0.011153 0.051258
v -0.069083 0.019115 0.046614
v -0.056039 0.011885 0.051828
v -0.072515 0.019838 0.042692
v -0.067398 0.019806 0.047756
v -0.070522 0.019938 0.044945
v -0.065141 0.020284 0.047974
v -0.064124 0.019880 0.049508
v -0.057986 0.019791 0.051153
v -0.061423 0.019385 0.050583
v -0.076313 0.005841 0.011956
v -0.078327 0.006426 0.004271
v -0.069686 0.005841 0.011956
v -0.069658 0.005841 0.031082
v -0.076302 0.005841 0.031089
v -0.078285 0.006426 0.019454
v -0.070808 0.006428 0.004333
v -0.078327 0.006673 0.002735
v -0.065976 0.006813 0.033190
v -0.066216 0.006763 0.003315
v -0.078310 0.017839 0.002546
v -0.071687 0.013810 0.002479
v -0.069483 0.005923 0.033193
v -0.065708 0.007362 0.003315
v -0.065579 0.007159 0.033190
v -0.075617 0.020238 0.002485
v -0.071687 0.020309 0.002479
v -0.065692 0.018972 0.003315
v -0.075049 0.020301 0.033193
v -0.075994 0.019937 0.033193
v -0.076178 0.018971 0.033193
v -0.076212 0.005923 0.033193
v -0.065445 0.007649 0.033190
v -0.078305 0.009560 0.017815
v -0.078309 0.014725 0.012933
v -0.078174 0.018699 0.002546
v -0.066558 0.020285 0.003315
v -0.066020 0.020041 0.003315
v -0.065738 0.019611 0.003315
v -0.078217 0.018192 0.006703
v -0.075617 0.020237 0.031089
v -0.066558 0.020292 0.033190
v -0.065622 0.019924 0.033190
v -0.065459 0.018972 0.033190
v -0.027123 0.007711 0.040084
v -0.022991 -0.019860 0.051215
v -0.022991 0.000544 0.052159
v -0.022985 0.019862 0.051216
v -0.022985 0.020316 0.042286
v -0.020926 -0.018502 0.038803
v -0.022994 -0.020322 0.042175
v 0.003903 0.029673 0.048092
v -0.013671 0.027222 0.048095
v 0.001254 0.019863 0.051273
v 0.020171 -0.002615 0.051224
v 0.006767 -0.028881 0.048895
v -0.012909 0.024639 0.038701
v 0.029871 -0.019682 0.038695
v 0.005401 -0.027470 0.038701
v -0.008656 -0.026114 0.038703
v 0.007092 0.026902 0.038702
v -0.015380 -0.026528 0.048022
v -0.001221 -0.030317 0.047276
v -0.004248 0.029946 0.042027
v -0.007725 -0.029392 0.042051
v 0.026607 0.008530 0.038701
v 0.032280 -0.016024 0.040412
v 0.019601 0.023346 0.042053
v 0.010453 0.028764 0.044518
v 0.007411 -0.029632 0.042022
v 0.024051 -0.017006 0.048903
v 0.029895 0.006983 0.042211
v 0.030337 0.004602 0.047184
v 0.030129 -0.019978 0.041987
v 0.026918 0.013140 0.048061
v 0.019751 0.021601 0.048904
v 0.014165 -0.026699 0.047585
v 0.028745 -0.004389 0.048914
v -0.023003 0.006605 0.042164
v -0.024323 0.006605 0.041572
v -0.034374 0.006605 0.046536
v -0.034374 0.006605 0.052063
v -0.023008 0.006605 0.052066
v -0.023008 0.000285 0.052166
v -0.023008 -0.005952 0.052086
v -0.023003 -0.005952 0.042190
v -0.057764 -0.005996 0.051986
v -0.065736 -0.005992 0.040958
v -0.065736 0.005941 0.040958
v -0.074332 0.005941 0.040958
v -0.063262 -0.005996 0.050911
v -0.067006 -0.005996 0.049192
v -0.069739 -0.005996 0.047259
v -0.070892 -0.005996 0.046157
v -0.072443 -0.005996 0.044285
v -0.074337 -0.005996 0.040958
v -0.055780 0.005951 0.052070
v -0.055790 0.000283 0.052160
v -0.073000 0.005941 0.043402
v -0.070892 0.005941 0.046157
v -0.067765 0.005941 0.048766
v -0.064149 0.005941 0.050609
v -0.062417 0.005941 0.051196
v -0.058343 0.005941 0.051947
v -0.058625 0.000001 0.052023
v -0.061182 -0.000140 0.051610
v -0.073608 -0.002123 0.042623
v -0.066058 0.000001 0.049933
v -0.072529 0.000001 0.044410
v -0.070731 0.000001 0.046562
v -0.068552 0.000001 0.048402
v -0.064068 0.000001 0.050782
v -0.076314 -0.002619 0.008640
v -0.071089 0.002462 0.008713
v -0.071090 -0.002619 0.008648
v -0.070352 -0.002619 0.008705
v -0.070047 -0.002619 0.008915
v -0.069732 -0.002619 0.009533
v -0.069696 -0.002619 0.010100
v -0.069695 -0.002619 0.015333
v -0.076314 -0.002619 0.015333
v -0.081309 0.000003 0.010666
v -0.081272 0.000003 0.010100
v -0.081116 0.000003 0.009676
v -0.080516 0.000003 0.009207
v -0.080148 0.002462 0.008702
v -0.070522 0.002462 0.008744
v -0.080717 0.002462 0.008886
v -0.081064 0.002462 0.009169
v -0.081309 0.002462 0.010100
v -0.081206 0.002462 0.010666
v -0.081050 0.002462 0.011009
v -0.080625 0.002462 0.011334
v -0.078464 0.002462 0.011953
v -0.069695 0.002462 0.011953
v -0.069696 0.002462 0.010100
v -0.069743 0.002462 0.009534
v -0.070039 0.002462 0.008975
v -0.076313 -0.000811 0.015333
v -0.080937 0.000003 0.011461
v -0.081155 0.000003 0.011178
v -0.069697 0.000003 0.015333
v -0.070808 0.000001 0.015333
v -0.080817 0.001698 0.011382
v -0.080916 0.000849 0.011446
v -0.076315 0.000003 0.014683
v -0.076032 0.001986 -0.017452
v -0.066221 0.001986 -0.017475
v -0.065704 0.001986 -0.005049
v -0.066559 0.001986 -0.003897
v -0.078324 0.001986 -0.003867
v -0.071868 0.005230 -0.017206
v -0.075900 0.005670 -0.016803
v -0.071597 0.008299 -0.016143
v -0.078188 0.006302 -0.015133
v -0.066176 0.008188 -0.015846
v -0.065703 0.008670 -0.015112
v -0.075907 0.010770 -0.014539
v -0.078185 0.015601 -0.007799
v -0.065713 0.017872 -0.006262
v -0.065693 0.018971 0.003312
v -0.078325 0.006673 0.002732
v -0.076757 0.014096 -0.011177
v -0.071090 0.012128 -0.014135
v -0.066150 0.013371 -0.012611
v -0.066559 0.020286 0.003312
v -0.071688 0.020308 0.003312
v -0.076375 0.006628 0.003312
v -0.065964 0.007065 0.003312
v -0.078174 0.018697 0.002543
v -0.066076 0.019906 -0.001230
v -0.068007 0.016184 -0.009978
v -0.077936 0.017884 -0.003627
v -0.067372 0.018559 -0.005961
v -0.075616 0.020239 0.002483
v -0.072672 0.014580 -0.011984
v -0.075890 0.019829 -0.001846
v -0.075900 0.018119 -0.006615
v -0.072217 0.018212 -0.007342
v -0.070329 0.019978 -0.003069
v -0.078341 -0.006626 0.001841
v -0.080752 -0.006926 0.001841
v -0.081304 -0.008213 0.001841
v -0.080617 -0.009166 0.001841
v -0.078341 -0.009937 0.001841
v -0.078328 0.009903 0.001035
v -0.078341 -0.009795 -0.000548
v -0.078328 0.000143 -0.007607
v -0.078328 0.005380 -0.006192
v -0.078328 0.008640 -0.002927
v -0.078328 0.009802 -0.000381
v -0.080544 0.009120 0.001038
v -0.078341 -0.008617 -0.003052
v -0.078341 -0.006368 -0.005615
v -0.078341 -0.002979 -0.007320
v -0.080526 -0.000872 -0.006659
v -0.080982 -0.008477 -0.000323
v -0.078328 0.002830 -0.007321
v -0.080459 0.001746 -0.006621
v -0.080784 -0.007842 -0.002025
v -0.080455 -0.006527 -0.004075
v -0.080506 -0.004044 -0.005801
v -0.080519 0.008261 -0.001607
v -0.081123 0.008646 0.001038
v -0.081060 -0.003008 -0.005692
v -0.081153 0.000849 -0.006068
v -0.080506 0.004043 -0.005801
v -0.080737 0.006391 -0.003937
v -0.081130 -0.006100 -0.003646
v -0.081021 0.007683 -0.001936
v -0.081308 0.007644 0.001038
v -0.081311 -0.000001 -0.005192
v -0.081034 0.004316 -0.005239
v -0.081269 0.005556 -0.003600
v -0.066560 -0.020285 0.002184
v -0.075616 -0.020241 0.002181
v -0.081303 -0.008218 0.001842
v -0.075047 -0.020297 0.033882
v -0.081136 -0.007188 0.001842
v -0.080366 -0.006677 0.001842
v -0.065707 -0.007365 0.002184
v -0.065722 -0.019455 0.002184
v -0.066022 -0.020042 0.002184
v -0.065950 -0.020275 0.035113
v -0.064958 -0.019726 0.035113
v -0.064847 -0.018967 0.035113
v -0.064855 -0.007656 0.035113
v -0.065000 -0.007173 0.035113
v -0.067202 -0.006550 0.035113
v -0.075994 -0.006343 0.035113
v -0.075881 -0.019008 0.035113
v -0.075306 -0.020143 0.035113
v -0.076025 -0.019975 0.031982
v -0.078175 -0.018694 0.002181
v -0.066204 -0.006759 0.002184
v -0.080515 0.000001 0.009215
v -0.076314 0.000001 0.009183
v -0.069716 -0.002627 0.009824
v -0.081308 0.000001 0.010665
v -0.078206 0.000001 0.021181
v -0.076314 0.000001 0.022539
v -0.069675 -0.002627 0.031088
v -0.076297 -0.002627 0.031088
v -0.076175 -0.019533 0.032745
v -0.078217 -0.018187 0.006711
v -0.081281 -0.008218 0.003871
v -0.081285 -0.007226 0.006422
v -0.081299 -0.003687 0.009824
v -0.076299 -0.006333 0.031091
v -0.069436 -0.006333 0.031091
v -0.067458 -0.006333 0.038502
v -0.075240 -0.006333 0.038502
v -0.076017 -0.006333 0.035021
v -0.076247 -0.006333 0.032754
v -0.078312 0.000005 0.020296
v -0.078300 0.000005 0.016898
v -0.076315 -0.002617 0.015333
v -0.069695 -0.002617 0.015333
v -0.065736 -0.005992 0.040952
v -0.078280 0.000005 0.020863
v -0.078308 0.003680 0.020296
v -0.078312 0.006422 0.015757
v -0.078307 0.001696 0.015757
v -0.078228 0.000005 0.016524
v -0.078232 0.001038 0.015757
v -0.076312 -0.000809 0.015333
v -0.069697 0.000005 0.015333
v -0.065736 0.005940 0.040952
v -0.074333 0.005940 0.040952
v -0.074445 -0.000282 0.040952
v -0.074338 -0.005996 0.040952
v -0.076016 0.005916 0.035021
v -0.069684 0.005833 0.015687
v -0.076314 0.006422 0.015757
v -0.076314 0.006422 0.021415
v -0.075694 -0.000140 0.037000
v -0.078229 0.006422 0.019907
v -0.076314 0.005838 0.015687
v -0.075169 0.005940 0.038740
v -0.075648 0.005916 0.036986
v -0.074805 -0.000000 0.040073
v -0.075298 -0.000282 0.038565
v -0.078337 -0.006664 0.002175
v -0.078176 -0.018693 0.002175
v -0.075332 -0.020272 0.002175
v -0.066561 -0.020286 0.002175
v -0.065708 -0.007366 0.002175
v -0.066560 0.001983 -0.003892
v -0.078326 0.001983 -0.003865
v -0.078311 0.001985 -0.015387
v -0.065705 0.001983 -0.004892
v -0.066023 0.001985 -0.017466
v -0.076030 0.001985 -0.017452
v -0.078304 -0.009632 -0.012837
v -0.078186 -0.018149 -0.002163
v -0.078066 -0.002113 -0.016065
v -0.065707 -0.017133 -0.007752
v -0.066200 -0.009683 -0.015127
v -0.066246 -0.005692 -0.016809
v -0.065709 -0.019252 -0.003216
v -0.066436 -0.001832 -0.017545
v -0.075776 -0.019861 -0.001558
v -0.077793 -0.012992 -0.011337
v -0.069251 -0.020290 -0.001517
v -0.066316 -0.016979 -0.008578
v -0.066881 -0.013453 -0.012695
v -0.075932 -0.004211 -0.017105
v -0.077662 -0.007488 -0.015153
v -0.072126 -0.003809 -0.017451
v -0.075926 -0.015873 -0.010028
v -0.075863 -0.018395 -0.006032
v -0.070664 -0.019626 -0.004116
v -0.070983 -0.015850 -0.010670
v -0.075912 -0.008241 -0.015821
v -0.071884 -0.013382 -0.013081
v -0.070681 -0.008270 -0.016205
v -0.023003 0.020588 0.049208
v -0.023003 0.019900 0.051218
v -0.023003 0.019536 0.051323
v -0.023003 0.014523 0.051715
v -0.023003 0.006607 0.052069
v -0.023003 0.006607 0.042166
v -0.023003 0.011899 0.038690
v -0.023003 0.016199 0.038703
v -0.023003 0.020489 0.042389
v -0.023003 0.020563 0.042912
v -0.052824 0.020301 0.042951
v -0.052824 0.020304 0.050312
v -0.052824 0.020115 0.042164
v -0.052824 0.019254 0.041719
v -0.052824 0.007648 0.041706
v -0.052824 0.007097 0.041906
v -0.052824 0.006813 0.042150
v -0.052824 0.005953 0.045687
v -0.052824 0.005953 0.052075
v -0.052824 0.009629 0.051951
v -0.052824 0.014071 0.051723
v -0.052824 0.018973 0.051384
v -0.052824 0.019894 0.051215
v -0.028611 0.019585 0.039270
v -0.027726 0.019264 0.038699
v -0.029504 0.019264 0.038699
v -0.030882 0.018414 0.038700
v -0.025627 0.011899 0.038696
v -0.032297 0.015884 0.038699
v -0.031731 0.014721 0.038701
v -0.023791 0.006796 0.041219
v -0.026343 0.006707 0.041219
v -0.034373 0.005953 0.052086
v -0.034373 0.005953 0.047164
v -0.069407 0.006422 0.011951
v -0.069686 0.005835 0.015683
v -0.069697 0.000003 0.015683
v -0.069696 0.000003 0.011951
v -0.069414 0.006422 0.006694
v -0.078327 0.010243 0.002171
v -0.078327 0.010241 0.003067
v -0.078327 0.009774 0.006000
v -0.076314 0.006422 0.015755
v -0.077883 0.000888 0.015755
v -0.078233 0.000003 0.014449
v -0.078568 0.000003 0.011951
v -0.069980 0.006422 0.004927
v -0.069575 0.006422 0.005853
v -0.080150 0.006502 0.001040
v -0.078327 0.006503 0.001040
v -0.070524 0.002463 0.008744
v -0.080544 0.009121 0.001040
v -0.080633 0.009178 0.002171
v -0.080996 0.008491 0.005275
v -0.078309 0.006422 0.015755
v -0.078266 0.001225 0.015755
v -0.070524 0.006422 0.004388
v -0.078327 0.009902 0.001040
v -0.081310 0.002464 0.010098
v -0.081063 0.002464 0.009167
v -0.081049 0.006984 0.001040
v -0.081307 0.007645 0.001040
v -0.081200 0.008430 0.001040
v -0.081183 0.006219 0.008391
v -0.081166 0.004386 0.009919
v -0.081129 0.002464 0.010836
v -0.081058 0.007590 0.006986
v -0.081286 0.007646 0.004932
v -0.025401 -0.006566 0.046340
v -0.025401 -0.020311 0.046340
v -0.016480 -0.017237 0.042152
v -0.022961 -0.007024 0.042153
v -0.025401 -0.006573 0.042950
v -0.034371 -0.006690 0.042950
v -0.034371 -0.006687 0.046347
v -0.025401 -0.020305 0.042950
v -0.017457 -0.017237 0.039467
v -0.023240 -0.007963 0.039322
v -0.025401 -0.020248 0.042385
v -0.023734 -0.007328 0.039212
v -0.034371 -0.006807 0.042129
v -0.034371 -0.007090 0.041908
v -0.034371 -0.007648 0.041704
v -0.034371 -0.018974 0.041708
v -0.034371 -0.019539 0.041743
v -0.034371 -0.020003 0.041939
v -0.034371 -0.020246 0.042384
v -0.034371 -0.020309 0.046347
v -0.018522 -0.017237 0.038697
v -0.017892 -0.017237 0.039013
v -0.026341 -0.007308 0.039174
v -0.024077 -0.008215 0.038738
v -0.024077 -0.007648 0.038921
v -0.025401 -0.020005 0.041940
v -0.023084 -0.010884 0.038696
v -0.021765 -0.017237 0.038696
v -0.026341 -0.008215 0.038712
v -0.026341 -0.007648 0.038896
v -0.025499 -0.011406 0.038699
v -0.026059 -0.009670 0.038702
v -0.023802 -0.014747 0.038699
v -0.022667 -0.016433 0.038701
v -0.034375 -0.005949 0.052087
v -0.034375 -0.011664 0.051875
v -0.034375 -0.015217 0.051668
v -0.034375 -0.018974 0.051387
v -0.034375 -0.019893 0.051215
v -0.034375 -0.020126 0.050879
v -0.034375 -0.020288 0.050311
v -0.034375 -0.020303 0.042952
v -0.034375 -0.020244 0.042385
v -0.034375 -0.020003 0.041940
v -0.034375 -0.019540 0.041743
v -0.034375 -0.018974 0.041708
v -0.034375 -0.007650 0.041704
v -0.034375 -0.007090 0.041907
v -0.034375 -0.006806 0.042128
v -0.034375 -0.005949 0.047169
v -0.044751 -0.005949 0.045720
v -0.057191 -0.005950 0.052029
v -0.055795 -0.010196 0.051919
v -0.057191 -0.005950 0.045474
v -0.057191 -0.007289 0.041495
v -0.057191 -0.006759 0.042018
v -0.057191 -0.007932 0.041442
v -0.057191 -0.018974 0.041457
v -0.057191 -0.019795 0.041562
v -0.057191 -0.020043 0.041806
v -0.057191 -0.020284 0.042385
v -0.057191 -0.020299 0.050312
v -0.057191 -0.019852 0.051183
v -0.057191 -0.018974 0.051342
v -0.055795 -0.014498 0.051691
v -0.056219 -0.019257 0.051341
v -0.055795 -0.020131 0.050878
v -0.055795 -0.020302 0.042952
v -0.034371 -0.020308 0.046349
v -0.034371 -0.020287 0.050313
v -0.034371 -0.020125 0.050879
v -0.034371 -0.019893 0.051215
v -0.034371 -0.014242 0.051734
v -0.034371 -0.009114 0.051986
v -0.034371 -0.005945 0.052086
v -0.034371 -0.005945 0.047169
v -0.034371 -0.006689 0.046349
v -0.023003 -0.020583 0.044257
v -0.023003 -0.020585 0.049180
v -0.025401 -0.019540 0.041746
v -0.025401 -0.020007 0.041940
v -0.025401 -0.020248 0.042385
v -0.023003 -0.020520 0.042438
v -0.023003 -0.020559 0.042893
v -0.025401 -0.007192 0.041247
v -0.025401 -0.012635 0.041245
v -0.023003 -0.020123 0.041908
v -0.023003 -0.019540 0.041718
v -0.023004 -0.016480 0.041245
v -0.023003 -0.008311 0.041245
v -0.023003 -0.005954 0.042191
v -0.023003 -0.005954 0.052087
v -0.023003 -0.011047 0.051905
v -0.023003 -0.014525 0.051716
v -0.023003 -0.018974 0.051395
v -0.023003 -0.019540 0.051325
v -0.023003 -0.019904 0.051219
v -0.023003 -0.020148 0.050879
v -0.023003 -0.020421 0.050027
v -0.023672 -0.007294 0.041245
v -0.027302 -0.005945 0.052087
v -0.024077 -0.005954 0.042192
vn -0.0176 0.9983 -0.0556
vn 0.0000 0.9951 -0.0991
vn 0.0000 0.0000 -1.0000
vn 0.0000 1.0000 0.0000
vn 0.0879 0.9874 -0.1315
vn 0.1222 0.9779 -0.1699
vn -0.9633 -0.0105 0.2683
vn 1.0000 -0.0000 0.0000
vn 0.2380 0.9357 -0.2604
vn -0.9532 -0.0254 0.3013
vn 0.5698 0.4339 -0.6979
vn -0.6601 -0.7173 0.2230
vn -0.7699 -0.5722 0.2826
vn 0.6545 0.0126 -0.7560
vn 0.6422 -0.0008 -0.7665
vn -0.2974 -0.9444 0.1401
vn -0.1369 -0.0320 0.9901
vn -0.0763 -0.0608 0.9952
vn -0.8595 -0.2051 0.4682
vn -0.7421 -0.3152 0.5916
vn -0.8754 -0.0442 0.4814
vn -0.8716 -0.0428 0.4883
vn 0.5111 -0.5577 -0.6540
vn -0.4337 -0.7992 0.4163
vn -0.2638 -0.0566 0.9629
vn -0.0006 -1.0000 0.0027
vn -0.0014 -1.0000 -0.0021
vn -0.7761 -0.0651 0.6272
vn -0.0013 -1.0000 0.0023
vn -0.0145 -0.9996 0.0227
vn -0.5667 -0.6221 0.5402
vn -0.7677 -0.0636 0.6376
vn -0.3378 -0.0026 0.9412
vn 0.3978 -0.7814 -0.4808
vn -0.1462 -0.0862 0.9855
vn -0.2686 -0.0656 0.9610
vn -0.1830 -0.9544 0.2357
vn -0.6917 -0.0706 0.7188
vn -0.6443 -0.0818 0.7604
vn -0.0753 -0.8862 0.4572
vn -0.0844 -0.9190 0.3851
vn -0.2906 -0.7175 0.6331
vn -0.3558 -0.5193 0.7770
vn -0.5915 -0.0713 0.8032
vn -0.4406 -0.0679 0.8951
vn -0.3595 -0.0902 0.9288
vn -0.5612 -0.0426 0.8266
vn -0.4398 -0.0718 0.8952
vn -0.5391 -0.0795 0.8385
vn 0.0000 -1.0000 0.0000
vn 0.2324 -0.9107 -0.3413
vn 0.1760 -0.9567 -0.2319
vn 0.0022 -1.0000 -0.0000
vn 0.0018 -1.0000 0.0004
vn 0.0007 -1.0000 0.0010
vn -0.9865 0.0028 0.1637
vn -0.7574 0.6415 0.1214
vn -0.0006 -1.0000 0.0026
vn -0.0018 -1.0000 0.0036
vn -0.0051 -1.0000 0.0060
vn -0.0158 -0.9998 0.0116
vn 0.5302 -0.3362 -0.7784
vn 0.5120 -0.4023 -0.7589
vn -0.2228 0.0126 0.9748
vn -0.6455 0.0476 0.7623
vn -0.0230 0.0293 0.9993
vn -0.9721 0.0268 0.2330
vn -0.4696 0.8668 0.1677
vn -0.9313 0.0241 0.3636
vn -0.5787 0.0680 0.8127
vn -0.7378 0.0715 0.6713
vn 0.5593 0.0009 -0.8290
vn -0.8890 0.0610 0.4538
vn 0.5588 0.0015 -0.8293
vn -0.0016 1.0000 -0.0004
vn -0.0007 1.0000 0.0018
vn -0.8055 0.0531 0.5903
vn 0.0368 0.0616 0.9974
vn -0.1168 0.9900 0.0796
vn -0.0784 0.9966 0.0254
vn -0.3246 0.0757 0.9428
vn -0.4434 0.0716 0.8935
vn -0.4718 0.0778 0.8783
vn -0.6194 0.3462 0.7046
vn -0.7487 0.0716 0.6591
vn 0.5132 0.3956 -0.7616
vn 0.5133 0.3954 -0.7617
vn 0.0153 0.9993 -0.0347
vn -0.1353 0.0604 0.9890
vn -0.1717 0.0733 0.9824
vn -0.3592 0.0613 0.9312
vn -0.1016 0.0597 0.9930
vn -0.0564 0.9558 0.2885
vn -0.0633 0.9094 0.4111
vn 0.1572 0.9608 -0.2283
vn -0.0217 0.9906 0.1350
vn -0.1994 0.5976 0.7766
vn -0.1155 0.9779 0.1742
vn -0.0134 0.0817 0.9966
vn -0.2911 0.8601 0.4189
vn 0.0000 -0.9971 -0.0759
vn -0.2817 -0.9595 0.0008
vn 0.0008 -0.9970 -0.0768
vn -0.9998 0.0171 0.0027
vn 0.0015 -0.9874 -0.1584
vn 0.2553 -0.9669 -0.0004
vn 0.0540 -0.9950 -0.0845
vn 0.2557 -0.9667 -0.0005
vn -0.2838 -0.9589 0.0002
vn 0.0186 -0.9715 -0.2365
vn -0.0203 -0.0169 -0.9997
vn 0.0483 -0.0806 -0.9956
vn 0.2458 -0.9692 0.0173
vn 0.0727 -0.0617 -0.9954
vn 0.7625 -0.6470 -0.0077
vn 0.6569 -0.7540 -0.0040
vn -0.0150 -0.0082 -0.9999
vn -0.0015 0.0000 -1.0000
vn 0.1381 0.0000 -0.9904
vn 0.1383 -0.0002 -0.9904
vn 0.0012 -0.0014 1.0000
vn 0.0000 0.0000 1.0000
vn 0.0000 -0.9992 0.0390
vn 0.0000 -0.9992 0.0389
vn 0.0008 -0.0002 1.0000
vn 0.9647 -0.2632 -0.0060
vn -0.9998 -0.0138 -0.0139
vn -0.9928 0.0818 0.0873
vn -0.5717 -0.8186 0.0563
vn -0.9888 0.0026 0.1492
vn -0.9930 0.0495 0.1071
vn -0.0260 0.0041 -0.9997
vn -0.0180 0.9998 -0.0017
vn 0.1530 0.3374 -0.9289
vn 0.1498 0.0983 -0.9838
vn 0.1403 0.0100 -0.9901
vn 0.0046 1.0000 0.0008
vn 1.0000 -0.0013 -0.0088
vn 0.0006 0.0002 1.0000
vn -1.0000 -0.0009 0.0025
vn -0.9854 0.1543 0.0713
vn -1.0000 0.0015 0.0006
vn -0.9982 0.0579 0.0175
vn -0.9876 0.1565 0.0089
vn -0.1118 0.9937 0.0000
vn 0.3661 0.9306 -0.0002
vn 0.4129 0.9108 -0.0019
vn 0.8360 0.5486 -0.0090
vn 0.9857 0.1685 -0.0056
vn 0.9975 0.0709 -0.0078
vn 1.0000 0.0012 -0.0078
vn 0.0003 0.0000 1.0000
vn 0.0003 0.0001 1.0000
vn 0.0004 0.0009 1.0000
vn -0.8929 0.4479 0.0454
vn -0.9799 0.1868 0.0699
vn -0.5158 0.8567 0.0000
vn 0.0010 1.0000 -0.0002
vn -0.5903 0.8072 0.0094
vn -0.3587 0.9309 0.0685
vn -0.9487 -0.0146 0.3160
vn -0.9430 0.0165 0.3325
vn -0.9508 0.3094 0.0157
vn -0.8003 -0.1610 -0.5776
vn -0.9894 -0.1452 0.0077
vn -0.0636 0.4568 0.8873
vn -0.0023 0.0487 0.9988
vn 0.0439 -0.1105 0.9929
vn 0.0182 -0.0462 0.9988
vn -0.0022 0.3090 0.9511
vn -0.4289 0.2902 -0.8555
vn -0.1204 0.0200 -0.9925
vn -0.0020 0.0055 -1.0000
vn 0.0013 0.0153 -0.9999
vn 0.0003 -0.0024 -1.0000
vn -0.0022 -0.0009 -1.0000
vn -0.4187 -0.6668 -0.6166
vn -0.6491 -0.7597 0.0390
vn -0.0928 -0.5143 0.8526
vn -0.6112 0.7905 0.0402
vn -0.4391 0.8462 -0.3020
vn -0.0687 0.6080 -0.7910
vn -0.4487 0.8674 -0.2152
vn -0.4226 -0.7035 -0.5714
vn -0.4975 -0.8343 -0.2376
vn -0.2491 -0.9583 0.1404
vn -0.0846 -0.5006 0.8616
vn 0.0002 0.0003 -1.0000
vn 0.5174 0.0601 -0.8536
vn 0.3349 0.3558 -0.8725
vn 0.1369 0.9177 -0.3730
vn 0.0229 0.0171 0.9996
vn -0.1346 0.9652 0.2243
vn 0.3551 0.8110 -0.4649
vn -0.0160 -0.9878 -0.1549
vn 0.0935 0.9923 -0.0811
vn 0.0918 -0.1344 0.9867
vn 0.7513 0.1285 -0.6473
vn 0.7399 0.4607 -0.4902
vn -0.0698 -0.7224 -0.6880
vn -0.0144 -0.8419 -0.5394
vn 0.9937 0.1060 -0.0376
vn 0.8533 -0.5091 -0.1125
vn 0.2362 -0.7428 -0.6265
vn 0.8401 0.5273 -0.1273
vn 0.0955 0.2836 0.9542
vn 0.3523 -0.9293 -0.1110
vn 0.4040 -0.9147 -0.0082
vn 0.9277 0.3622 0.0909
vn 0.5383 0.8194 0.1969
vn 0.2249 -0.9324 -0.2828
vn 0.2722 -0.3968 0.8766
vn 0.8848 -0.0680 0.4610
vn 0.7622 0.6312 0.1440
vn 0.2180 -0.9473 0.2348
vn 0.1175 0.0967 0.9884
vn 0.3760 0.7873 0.4887
vn 0.7077 -0.2639 0.6554
vn 0.7198 -0.1192 0.6839
vn 0.4756 -0.5755 0.6653
vn 0.2415 -0.0907 0.9661
vn 0.2282 0.0968 0.9688
vn 0.4531 0.0904 0.8869
vn 0.2739 0.0752 0.9588
vn 1.0000 0.0000 0.0005
vn 0.4090 -0.0019 -0.9125
vn -0.0002 0.0160 0.9999
vn 0.0010 -1.0000 -0.0011
vn 0.0288 -0.0461 -0.9985
vn 0.0148 0.0000 -0.9999
vn 0.0000 0.6794 -0.7338
vn 0.0013 -1.0000 0.0000
vn 0.0006 -1.0000 -0.0009
vn -0.0002 0.0159 0.9999
vn -0.0129 0.9996 -0.0262
vn -0.0166 0.9999 0.0000
vn -0.0002 -0.0128 0.9999
vn -0.0196 0.9998 0.0107
vn -0.0207 0.9997 0.0159
vn -0.0225 0.9994 0.0270
vn -0.0246 0.9985 0.0483
vn -0.0260 0.9967 0.0767
vn -0.0281 0.9879 0.1523
vn -0.0266 0.8747 0.4839
vn -0.0029 -0.0268 0.9996
vn -0.0470 -0.0129 0.9988
vn -0.0479 0.0159 0.9987
vn -0.0498 0.0151 0.9986
vn -0.1813 0.0302 0.9830
vn -0.9164 0.0004 0.4003
vn -0.8779 0.0200 0.4784
vn -0.4536 0.0444 0.8901
vn -0.1604 0.0202 0.9868
vn -0.8680 -0.0490 0.4941
vn -0.8646 0.0167 0.5022
vn -0.7937 0.0401 0.6070
vn -0.7673 0.0229 0.6408
vn -0.6402 0.0377 0.7673
vn -0.5231 0.0170 0.8521
vn -0.3923 0.0213 0.9196
vn -0.3206 0.0231 0.9469
vn -0.2755 0.0096 0.9613
vn -0.1577 -0.0287 0.9871
vn -0.1917 -0.0489 0.9802
vn -0.8434 -0.0232 0.5368
vn -0.7700 -0.0243 0.6376
vn -0.7673 -0.0226 0.6408
vn -0.6446 0.0346 0.7637
vn -0.5230 -0.0225 0.8520
vn -0.4168 -0.0462 0.9078
vn -0.3922 -0.0329 0.9193
vn -0.2766 -0.0164 0.9608
vn -0.6449 -0.0179 0.7640
vn -0.6904 -0.0302 0.7228
vn -0.5770 -0.0412 0.8157
vn 0.0015 0.0128 -0.9999
vn -0.4647 -0.8855 -0.0000
vn -0.4744 -0.8797 -0.0315
vn -0.5013 -0.8454 -0.1842
vn -0.4768 -0.6319 -0.6111
vn -0.2311 -0.1628 -0.9592
vn 0.0012 0.0130 -0.9999
vn 0.0543 0.0094 -0.9985
vn 0.0770 0.0127 -0.9969
vn -0.6419 0.0004 0.7668
vn -0.7096 -0.4472 0.5445
vn -0.5810 -0.7948 0.1754
vn -0.9977 -0.0152 -0.0661
vn -0.9668 -0.0148 -0.2553
vn -0.9374 -0.0510 -0.3445
vn -0.6084 -0.1476 -0.7798
vn -0.6258 -0.1513 -0.7651
vn -0.3047 -0.1480 -0.9409
vn 0.4316 0.0213 -0.9018
vn 1.0000 0.0009 0.0013
vn 0.5660 0.0090 -0.8243
vn -0.6119 0.1301 0.7802
vn -0.6386 0.0300 0.7690
vn -0.7930 0.0311 0.6085
vn 1.0000 0.0000 -0.0006
vn 1.0000 -0.0001 -0.0002
vn 0.9979 -0.0000 -0.0640
vn -0.9829 0.0414 0.1797
vn 0.8839 0.0043 -0.4676
vn 0.8914 0.0020 -0.4532
vn -0.0917 0.6217 0.7779
vn -0.2434 0.6053 0.7579
vn -0.5826 0.1961 0.7887
vn -0.6934 0.1341 0.7079
vn -0.8470 0.0722 0.5266
vn 0.0000 0.8084 0.5886
vn -0.0011 0.8086 0.5884
vn 0.9965 0.0022 -0.0841
vn -0.9566 0.0402 0.2888
vn -0.9086 0.0670 0.4123
vn -0.0828 0.7070 0.7023
vn -0.2124 0.6369 0.7411
vn -0.5951 0.1986 0.7788
vn -0.0023 0.0785 -0.9969
vn -0.0790 0.1758 -0.9813
vn -0.0580 0.3315 -0.9417
vn -0.5518 0.1638 -0.8178
vn 0.7817 0.1531 -0.6046
vn 0.1355 0.3137 -0.9398
vn 0.9972 -0.0627 -0.0415
vn -0.9145 -0.3740 -0.1543
vn -0.4857 0.3541 -0.7992
vn 0.0581 0.2532 -0.9657
vn -0.9999 0.0075 -0.0092
vn -0.1069 0.4033 -0.9088
vn 1.0000 0.0006 0.0005
vn 1.0000 0.0004 -0.0021
vn -0.9999 0.0084 -0.0062
vn -0.6813 0.4269 -0.5946
vn -0.0585 0.4696 -0.8809
vn 0.6159 0.4150 -0.6697
vn 0.9987 -0.0228 0.0449
vn -0.1874 -0.8008 0.5688
vn -0.9999 0.0125 -0.0027
vn 0.9681 0.2487 -0.0306
vn 0.0014 -0.8399 0.5428
vn 0.0579 0.4575 -0.8873
vn 0.1277 0.5247 -0.8416
vn 0.9566 0.2026 -0.2096
vn 0.3494 0.7528 -0.5579
vn 0.8344 0.5495 0.0426
vn 0.0343 -0.8183 0.5737
vn -0.1284 0.0440 0.9907
vn -0.2844 0.0187 0.9585
vn -0.7693 0.3958 -0.5016
vn -0.9709 0.2297 -0.0677
vn 0.2434 0.8176 -0.5219
vn 0.3068 0.8900 -0.3374
vn 0.5852 -0.6848 0.4342
vn -0.1983 0.3642 0.9100
vn -0.2198 0.6652 -0.7136
vn -0.1080 0.6153 -0.7808
vn 0.0027 0.9955 -0.0946
vn -0.4968 0.6951 -0.5197
vn 0.0042 0.9965 -0.0830
vn -0.5166 0.8549 -0.0484
vn -0.6032 0.7142 -0.3549
vn -0.1454 0.7555 -0.6389
vn -0.2089 0.7800 -0.5899
vn 0.1494 0.9395 -0.3084
vn -0.0400 0.9974 -0.0600
vn -0.6237 0.7715 -0.1257
vn -0.5159 0.8068 -0.2881
vn 0.0554 0.6784 -0.7326
vn 0.0360 0.9984 -0.0438
vn -0.0901 0.9376 -0.3359
vn 0.0625 0.7037 -0.7078
vn 0.0485 0.9154 -0.3997
vn 0.0866 0.8515 -0.5171
vn -0.0060 0.7878 -0.6159
vn -0.1003 0.9344 -0.3418
vn 0.9999 -0.0000 0.0159
vn -0.0061 0.0487 0.9988
vn -0.3203 -0.9457 -0.0561
vn 1.0000 -0.0013 -0.0001
vn 1.0000 -0.0006 0.0006
vn -0.3323 0.9408 -0.0671
vn -0.0165 0.0502 0.9986
vn 1.0000 -0.0001 0.0001
vn 1.0000 -0.0021 -0.0012
vn 1.0000 -0.0027 -0.0024
vn 0.9999 -0.0050 -0.0100
vn -0.3619 -0.0838 -0.9284
vn -0.4512 -0.8695 -0.2009
vn -0.4385 -0.8133 -0.3825
vn 1.0000 0.0001 -0.0007
vn -0.4052 0.0235 -0.9139
vn -0.3556 0.0990 -0.9294
vn -0.4166 -0.8347 -0.3601
vn -0.4513 -0.7166 -0.5318
vn -0.3903 -0.6918 -0.6075
vn -0.4822 -0.5067 -0.7147
vn -0.3759 -0.4166 -0.8277
vn -0.4798 -0.2318 -0.8462
vn -0.6132 0.7495 -0.2493
vn -0.4419 0.8519 -0.2810
vn -0.0413 0.0505 0.9979
vn -0.7889 -0.0785 -0.6094
vn -0.4524 0.5267 -0.7196
vn -0.4304 0.2957 -0.8528
vn -0.3814 0.3743 -0.8452
vn -0.3775 0.8425 -0.3842
vn -0.8104 -0.5838 -0.0493
vn -0.9882 -0.0640 -0.1391
vn -0.5656 -0.2185 -0.7952
vn -0.6442 0.0274 -0.7644
vn -0.3424 0.6647 -0.6640
vn -0.6664 -0.5746 -0.4752
vn -0.6633 -0.4363 -0.6080
vn -0.7587 -0.3476 -0.5510
vn -0.6542 0.7127 -0.2533
vn -0.9793 0.1804 -0.0922
vn -0.2644 0.0487 0.9632
vn -0.1131 0.0485 0.9924
vn -0.9746 -0.0448 -0.2194
vn -0.7583 0.2054 -0.6187
vn -0.6653 0.1951 -0.7207
vn -0.4858 0.5136 -0.7072
vn -0.4464 0.7178 -0.5343
vn -0.4718 0.7087 -0.5246
vn -1.0000 -0.0002 0.0008
vn -0.9305 -0.3309 -0.1570
vn -0.9900 -0.0616 -0.1266
vn -0.9910 0.0623 -0.1185
vn -0.8371 0.3720 -0.4012
vn -0.8436 0.3885 -0.3706
vn -0.9782 0.1862 -0.0920
vn -0.9998 0.0114 -0.0135
vn -0.9980 -0.0418 -0.0478
vn -0.9806 0.0609 -0.1866
vn 0.0002 -0.0281 -0.9996
vn -0.0048 -1.0000 -0.0017
vn 0.0227 -0.0138 -0.9996
vn 0.0219 -0.0000 -0.9998
vn 0.0160 -0.0082 -0.9998
vn 0.0082 -0.0183 -0.9998
vn 0.4108 -0.9117 -0.0073
vn 0.0024 -1.0000 0.0003
vn -0.0140 -0.9925 0.1213
vn -0.3199 -0.9474 0.0041
vn -0.0238 -0.0394 -0.9989
vn 0.0242 0.0199 -0.9995
vn -0.0052 0.7411 -0.6714
vn 0.0206 0.7338 -0.6790
vn 0.9996 -0.0012 -0.0265
vn 0.9892 -0.1448 -0.0241
vn 0.8905 -0.4544 -0.0244
vn 0.4840 -0.8750 -0.0072
vn -0.3760 -0.9259 0.0366
vn -0.5173 -0.8558 0.0005
vn 0.3781 0.8759 -0.2998
vn 0.7443 0.6675 -0.0188
vn 0.7731 0.6339 -0.0203
vn 0.9575 0.2875 -0.0223
vn 0.9997 0.0007 -0.0259
vn 0.3681 0.9298 0.0000
vn 0.3702 0.9290 -0.0007
vn 0.6976 0.7165 -0.0013
vn 0.0000 0.9558 0.2939
vn 0.0000 0.7348 0.6783
vn 0.0170 0.7213 0.6925
vn 0.2154 0.7622 0.6105
vn -0.9153 -0.3996 0.0511
vn -0.8843 -0.4648 0.0438
vn -0.9575 -0.2876 0.0233
vn -0.9582 -0.2858 0.0107
vn -0.2066 0.9351 0.2879
vn -0.8995 0.3472 0.2654
vn -0.9448 0.2023 0.2578
vn -0.9588 -0.2773 0.0609
vn -0.8186 -0.5521 0.1583
vn -0.9994 -0.0326 0.0111
vn -0.9999 -0.0101 0.0062
vn -1.0000 -0.0029 0.0021
vn -0.4392 0.6614 -0.6080
vn -0.7628 0.4939 -0.4174
vn -0.9714 -0.2219 0.0848
vn -0.8729 -0.4421 0.2065
vn -0.9761 0.1588 -0.1485
vn -0.9820 -0.0442 0.1836
vn -0.9835 -0.1070 0.1459
vn -0.9830 -0.1293 0.1303
vn -0.9776 -0.0088 0.2102
vn -0.9516 -0.3075 -0.0031
vn -0.8260 -0.5488 -0.1286
vn 0.0000 -0.9733 -0.2295
vn 0.5903 -0.7834 -0.1944
vn 0.3030 -0.9495 -0.0809
vn -0.9663 -0.2557 0.0300
vn -0.9984 0.0010 0.0564
vn -1.0000 0.0010 0.0014
vn -1.0000 -0.0010 -0.0015
vn -1.0000 -0.0058 -0.0033
vn -0.9762 -0.2096 0.0551
vn -0.9732 -0.1312 -0.1891
vn -0.8307 -0.5328 -0.1615
vn -0.7970 -0.3618 -0.4835
vn -0.2719 -0.0311 -0.9618
vn -0.2086 -0.0002 -0.9780
vn -0.2064 0.0003 -0.9785
vn 0.9882 0.0009 -0.1530
vn 0.9883 0.0000 -0.1527
vn 0.0004 -0.9905 0.1375
vn 0.0000 -0.9907 0.1363
vn -0.9866 -0.1285 0.1002
vn -0.9875 0.0001 0.1579
vn -0.9828 -0.1122 -0.1465
vn 0.9880 0.0071 -0.1544
vn 0.0883 0.9959 -0.0180
vn 0.0455 0.9990 0.0000
vn 0.0000 0.9997 0.0247
vn -0.9883 0.0157 0.1515
vn -0.9870 0.0001 0.1609
vn -0.9993 0.0315 0.0199
vn 0.0000 0.1183 -0.9930
vn 0.0001 0.1196 -0.9928
vn -0.0196 0.0531 -0.9984
vn -0.0065 0.0531 -0.9986
vn 0.0000 0.0606 -0.9982
vn -0.0211 0.9994 0.0268
vn -0.9880 0.0492 0.1463
vn -0.1179 0.9920 0.0445
vn -0.9829 0.0079 0.1841
vn -0.6289 0.7685 0.1178
vn -0.3327 0.9398 0.0781
vn -0.9274 -0.0174 0.3737
vn -0.9372 -0.0219 0.3481
vn -0.9758 -0.0187 0.2177
vn -0.9697 -0.0118 0.2441
vn -0.9352 0.0219 0.3534
vn -0.9236 0.0166 0.3831
vn -0.9497 -0.0123 0.3130
vn -0.9647 0.0080 0.2632
vn -0.9691 0.0132 0.2463
vn -0.9510 0.0110 0.3090
vn 0.0304 0.5461 0.8372
vn 0.0019 0.5726 0.8198
vn 0.0000 1.0000 0.0002
vn 0.0001 1.0000 0.0001
vn -1.0000 -0.0002 -0.0021
vn -1.0000 -0.0009 -0.0013
vn -0.9999 -0.0134 0.0005
vn 0.6823 0.4407 0.5833
vn -0.9999 -0.0131 0.0006
vn -0.9878 -0.0339 -0.1520
vn 1.0000 -0.0001 0.0002
vn 0.9991 -0.0060 -0.0415
vn 0.9983 0.0086 -0.0581
vn 1.0000 -0.0003 0.0004
vn -0.6689 0.0823 -0.7388
vn 0.8005 -0.0742 -0.5947
vn 0.9992 -0.0312 -0.0253
vn 0.9875 -0.0652 0.1436
vn -0.4850 -0.8737 -0.0384
vn -0.9616 -0.2196 -0.1646
vn 0.2101 -0.9658 -0.1521
vn 0.6175 -0.5536 -0.5588
vn -0.4818 -0.0566 -0.8745
vn -0.5590 -0.8229 -0.1018
vn -0.9167 -0.1328 -0.3769
vn 0.3252 -0.8569 -0.4000
vn 0.7210 -0.4628 -0.5158
vn -0.0844 -0.0571 -0.9948
vn -0.6895 -0.6184 -0.3771
vn -0.6929 -0.6146 -0.3770
vn -0.7611 -0.3572 -0.5414
vn 0.1275 -0.9422 -0.3100
vn 0.1130 -0.7470 -0.6551
vn -0.5676 -0.1790 -0.8036
vn -0.4435 -0.2741 -0.8533
vn -0.5157 -0.8171 -0.2577
vn -0.4866 -0.4899 -0.7233
vn -0.3498 -0.5660 -0.7465
vn -0.0016 -1.0000 0.0022
vn -0.0646 -0.9927 -0.1016
vn 0.0566 -0.5483 -0.8343
vn 0.0992 -0.3855 -0.9173
vn -0.1104 -0.9451 -0.3075
vn -0.2236 -0.5890 -0.7766
vn 0.1411 -0.9057 -0.3999
vn -0.0014 0.0209 -0.9998
vn -0.0627 -0.9746 -0.2149
vn -0.0871 -0.7123 -0.6964
vn 0.0379 -0.5275 -0.8487
vn 0.0213 -0.2626 -0.9647
vn 0.0480 -0.1849 -0.9816
vn 0.0460 -0.6895 -0.7228
vn -0.0133 -0.0092 -0.9999
vn -0.0545 -0.3034 -0.9513
vn -0.0651 -0.8443 -0.5318
vn -0.0717 -0.2898 -0.9544
vn -0.0659 -0.5090 -0.8583
vn -0.0114 -0.8551 -0.5184
vn 0.0025 -0.8778 -0.4791
vn -0.0096 1.0000 -0.0004
vn -0.0088 1.0000 -0.0040
vn -1.0000 0.0000 0.0000
vn 0.0066 0.9107 0.4130
vn -0.0002 0.9461 0.3240
vn -0.0089 0.9731 -0.2302
vn -0.0113 0.9900 -0.1410
vn -0.0001 0.2770 0.9609
vn -0.0101 0.9652 -0.2614
vn 0.0746 0.9140 -0.3988
vn -0.0014 0.1806 0.9836
vn -0.0341 0.8929 -0.4490
vn -0.1145 0.4560 -0.8826
vn 0.0000 0.8716 -0.4903
vn 0.3900 0.6002 -0.6984
vn -0.1259 0.2025 -0.9712
vn 0.0000 -0.0013 -1.0000
vn -0.0025 0.0030 -1.0000
vn 0.0004 0.0013 -1.0000
vn 0.0004 -0.0004 -1.0000
vn -0.0008 0.0688 0.9976
vn -0.1331 0.0750 -0.9883
vn -0.0019 0.0016 -1.0000
vn 0.0006 0.0780 0.9970
vn -0.0005 0.0513 0.9987
vn -0.1454 0.0012 -0.9894
vn -0.1207 -0.0610 -0.9908
vn 0.6574 -0.4137 -0.6298
vn 0.0155 -0.4460 -0.8949
vn -0.0022 -0.4368 -0.8995
vn -0.0814 -0.1742 -0.9814
vn -0.0505 -0.3414 -0.9386
vn -0.0025 -0.0034 -1.0000
vn 0.0574 -0.9984 0.0000
vn 0.0339 -0.9743 -0.2228
vn -0.0005 0.0339 0.9994
vn -0.0297 -0.4336 -0.9006
vn -0.0293 -0.6517 -0.7579
vn 0.0088 -0.9939 -0.1099
vn 0.0066 -0.9917 -0.1283
vn -0.0122 -0.9716 -0.2362
vn -0.0006 0.0360 0.9994
vn 0.0006 0.0447 0.9990
vn 0.9972 -0.0020 0.0741
vn 0.9990 -0.0450 0.0003
vn 0.9990 -0.0450 -0.0013
vn 0.3942 0.9190 -0.0005
vn 0.3918 0.9200 0.0021
vn 0.2572 0.9543 0.1520
vn 0.2462 0.9545 0.1686
vn 0.0106 -0.0030 0.9999
vn 0.0088 -0.0000 1.0000
vn 0.0873 0.9475 0.3075
vn 0.8512 -0.3699 -0.3724
vn 0.9636 -0.1933 -0.1844
vn 0.0000 -0.8591 -0.5118
vn 0.0005 -0.8589 -0.5121
vn 0.2376 -0.7403 -0.6289
vn -0.4178 0.9051 -0.0789
vn -0.4191 0.9079 0.0020
vn 0.4275 0.9003 -0.0818
vn 0.4621 0.8635 -0.2022
vn -0.4586 0.8776 0.1398
vn -0.4772 0.8309 0.2863
vn 0.0000 0.9457 0.3249
vn -0.0830 -0.8146 0.5741
vn 0.2704 -0.7124 -0.6476
vn 0.3776 -0.6852 -0.6228
vn 0.5645 -0.5978 -0.5691
vn 0.5244 0.6674 -0.5287
vn 0.4708 0.8447 -0.2546
vn -0.6994 -0.7085 0.0940
vn -0.5978 -0.7857 -0.1587
vn -0.3198 -0.8337 -0.4502
vn 0.3942 0.0000 -0.9190
vn -0.3196 0.9072 -0.2734
vn -0.4597 0.8769 0.1406
vn -0.8976 0.2775 0.3426
vn -0.9073 0.1663 0.3861
vn -0.8651 -0.0073 0.5016
vn -0.7115 0.6320 0.3071
vn -0.8543 0.4080 0.3220
vn -0.5453 -0.6189 0.5652
vn -0.7613 -0.6207 0.1875
vn -0.9999 0.0099 0.0053
vn -0.8821 -0.4088 -0.2342
vn -0.9127 -0.3564 -0.1999
vn -0.4238 -0.7912 -0.4408
vn -0.7219 0.6859 -0.0919
vn -0.8189 0.5731 0.0313
vn -0.9901 0.0847 0.1123
vn -0.9666 0.0946 0.2381
vn -0.8256 -0.4223 0.3741
vn -0.9909 0.1345 0.0052
vn -0.9499 0.3098 0.0414
vn -0.9528 0.2814 0.1137
vn -0.9968 0.0584 0.0539
vn -0.9721 0.2053 0.1138
vn 0.4250 0.0000 0.9052
vn 0.7747 0.4915 0.3978
vn 0.1810 0.9835 -0.0019
vn -0.0130 0.9999 -0.0020
vn -0.0135 0.9999 -0.0008
vn 0.3250 -0.9457 -0.0019
vn 0.8127 0.5021 -0.2958
vn 0.8170 0.5184 -0.2526
vn 0.3162 -0.9440 -0.0944
vn 0.3150 -0.9421 -0.1147
vn 0.7829 0.5633 -0.2641
vn 0.1363 0.9811 -0.1373
vn -0.0129 0.9899 -0.1410
vn 0.0008 0.0000 1.0000
vn -0.0003 -1.0000 -0.0020
vn 0.6540 0.3976 -0.6436
vn 0.1914 -0.9044 -0.3814
vn 0.2615 -0.9322 -0.2502
vn 0.0104 0.9811 -0.1934
vn -0.0083 0.9820 -0.1889
vn -0.0003 -0.9950 -0.0995
vn -0.0056 -0.9999 -0.0160
vn 0.6614 0.4026 -0.6329
vn 0.4316 0.2717 -0.8602
vn 0.4490 0.2802 -0.8484
vn 0.4626 0.2724 -0.8437
vn 0.1258 -0.8704 -0.4761
vn 0.0460 0.0328 -0.9984
vn 0.0161 0.6637 -0.7478
vn -0.2438 0.5977 -0.7637
vn -0.0002 -0.8785 -0.4778
vn 0.0003 -0.7610 -0.6488
vn -0.0001 -0.8773 -0.4799
vn -0.0001 -0.7608 -0.6490
vn 0.0112 0.0199 -0.9997
vn 0.0107 0.3073 -0.9516
vn 0.0104 0.3084 -0.9512
vn 0.0085 0.6327 -0.7744
vn -0.2393 0.6143 -0.7519
vn -0.3157 0.2926 -0.9026
vn -0.3121 0.3259 -0.8924
vn -0.0015 -0.0003 -1.0000
vn 0.0005 0.0001 -1.0000
vn 0.0005 0.0068 -1.0000
vn -0.2899 -0.0498 -0.9557
vn -0.3492 -0.0004 -0.9371
vn -0.1498 -0.3853 -0.9106
vn -0.0018 0.0011 -1.0000
vn -0.2561 -0.0810 -0.9632
vn -0.2810 -0.0584 -0.9579
vn -0.2265 -0.1148 -0.9672
vn -0.2128 -0.1445 -0.9663
vn -0.1932 -0.2104 -0.9583
vn -0.0175 -0.0131 -0.9998
vn -0.0032 -0.0014 -1.0000
vn -0.0001 1.0000 0.0001
vn 0.0234 0.9856 -0.1677
vn -0.0026 -0.0267 0.9996
vn -0.0005 -0.0372 0.9993
vn -0.0001 1.0000 0.0000
vn 0.0089 0.6141 -0.7892
vn 0.0049 0.7026 -0.7116
vn 0.0031 0.9737 -0.2277
vn 0.0042 0.9754 -0.2206
vn 0.0140 0.3414 -0.9398
vn 0.0104 0.0816 -0.9966
vn -0.0016 -0.0530 0.9986
vn -0.0009 -0.0580 0.9983
vn 0.0115 -0.0004 -0.9999
vn -0.0823 -0.0528 0.9952
vn 0.0110 -0.0014 -0.9999
vn -0.0014 -0.0732 0.9973
vn 0.0110 -0.0606 -0.9981
vn -0.0803 -0.0525 0.9954
vn -0.0198 -0.0715 0.9972
vn -0.0011 -0.0747 0.9972
vn 0.0093 -0.1272 -0.9918
vn 0.0116 -0.3919 -0.9199
vn -0.0509 -0.1784 0.9826
vn 0.0003 -0.1839 0.9829
vn 0.0044 -0.8787 -0.4774
vn 0.0054 -0.7000 -0.7141
vn -0.0018 -0.2544 0.9671
vn 0.0017 -0.9946 -0.1036
vn 0.0016 -0.9235 -0.3837
vn -0.0775 -0.8869 0.4555
vn 0.0005 -0.9587 0.2845
vn -0.0023 -0.7431 0.6691
vn -0.0001 -0.9995 -0.0321
vn 0.0005 -1.0000 0.0005
vn -0.0001 -1.0000 0.0021
vn 0.0002 -0.9618 0.2737
vn 0.0001 -0.8211 0.5709
vn -0.0123 -0.9999 -0.0019
vn -0.0242 -0.9997 -0.0004
vn -0.4035 -0.3512 -0.8449
vn -0.2004 -0.8615 -0.4665
vn -0.1038 -0.9628 -0.2495
vn -0.0477 -0.9953 -0.0846
vn -0.0273 -0.9995 -0.0173
vn -0.4944 0.0000 -0.8692
vn -0.4948 0.0003 -0.8690
vn -0.4512 -0.0646 -0.8901
vn 1.0000 0.0004 0.0002
vn 1.0000 -0.0001 -0.0006
vn -0.0257 -0.9997 0.0054
vn -0.0068 -0.9817 0.1901
vn -0.0114 -0.1529 -0.9882
vn -0.0109 -0.3097 -0.9508
vn -0.0308 -0.3837 -0.9229
vn -0.1153 -0.0719 -0.9907
vn -0.0467 -0.7993 -0.5991
vn -0.0890 -0.8759 -0.4742
vn -0.3223 0.7013 -0.6358
vn -0.0012 0.0004 -1.0000
vn -0.0044 -0.9614 0.2752
vn -0.0000 1.0000 -0.0017
vn -0.2849 0.7551 -0.5905
vn -0.0019 -0.9523 0.3053
vn 0.0005 1.0000 -0.0007
vn -0.0008 0.6070 -0.7947
vn -0.0010 -0.8134 0.5817
vn -0.0017 -0.8230 0.5680
vn -0.0001 -0.0741 0.9973
vn 0.0020 1.0000 0.0000
vn 0.4929 0.3239 -0.8076
vn 0.0323 0.5655 -0.8241
vn -0.0006 -0.2773 0.9608
vn -0.0057 -0.1228 0.9924
vn -0.0083 -0.0915 0.9958
vn -0.0001 -0.0315 0.9995
vn -0.0002 -0.0721 0.9974
vn 0.0010 -0.0356 0.9994
vn -0.0012 -0.0490 0.9988
vn 0.0002 -0.0542 0.9985
usemtl Default_OBJ.013
s off
f 1//1 2//1 3//1
f 1//2 3//2 4//2
f 1//3 4//3 5//3
f 1//3 5//3 6//3
f 1//3 6//3 7//3
f 1//3 7//3 8//3
f 1//3 8//3 9//3
f 1//3 9//3 10//3
f 2//4 11//4 12//4
f 2//4 12//4 13//4
f 2//4 13//4 14//4
f 2//4 14//4 15//4
f 2//4 15//4 16//4
f 2//4 16//4 17//4
f 2//4 17//4 3//4
f 4//5 3//5 17//5
f 4//6 17//6 5//6
f 1//7 10//7 2//7
f 17//8 16//8 18//8
f 17//8 18//8 19//8
f 17//8 19//8 20//8
f 17//8 20//8 21//8
f 17//8 21//8 22//8
f 17//9 22//9 5//9
f 10//10 23//10 2//10
f 22//11 6//11 5//11
f 10//12 9//12 24//12
f 10//13 24//13 23//13
f 22//14 21//14 6//14
f 6//15 21//15 7//15
f 9//16 25//16 24//16
f 15//17 26//17 16//17
f 16//18 26//18 18//18
f 24//19 27//19 23//19
f 24//20 28//20 27//20
f 27//21 2//21 23//21
f 2//22 27//22 11//22
f 7//23 21//23 8//23
f 25//24 29//24 24//24
f 26//25 15//25 30//25
f 9//26 8//26 25//26
f 25//27 20//27 19//27
f 28//28 11//28 27//28
f 8//29 20//29 25//29
f 25//30 19//30 31//30
f 24//31 29//31 28//31
f 12//32 11//32 28//32
f 15//33 14//33 30//33
f 8//34 21//34 20//34
f 26//35 32//35 18//35
f 26//36 30//36 32//36
f 31//37 29//37 25//37
f 28//38 13//38 12//38
f 28//39 29//39 13//39
f 18//40 32//40 19//40
f 19//41 32//41 31//41
f 32//42 29//42 31//42
f 32//43 33//43 29//43
f 13//44 29//44 34//44
f 30//45 34//45 33//45
f 30//46 33//46 32//46
f 34//47 14//47 13//47
f 14//48 34//48 30//48
f 33//49 34//49 29//49
f 35//3 36//3 37//3
f 35//3 37//3 38//3
f 35//3 38//3 39//3
f 35//3 39//3 40//3
f 35//3 40//3 41//3
f 35//3 41//3 42//3
f 35//50 42//50 43//50
f 42//51 41//51 44//51
f 42//52 44//52 45//52
f 42//53 45//53 46//53
f 42//54 46//54 47//54
f 42//55 47//55 43//55
f 44//8 48//8 49//8
f 44//8 49//8 50//8
f 44//8 50//8 51//8
f 44//8 51//8 52//8
f 44//8 52//8 53//8
f 44//8 53//8 46//8
f 44//8 46//8 45//8
f 35//56 43//56 36//56
f 36//57 54//57 37//57
f 43//58 47//58 55//58
f 43//59 55//59 56//59
f 43//60 56//60 57//60
f 43//61 57//61 58//61
f 41//62 40//62 44//62
f 44//63 40//63 48//63
f 47//64 59//64 55//64
f 57//65 56//65 60//65
f 46//66 61//66 47//66
f 36//67 43//67 54//67
f 54//68 62//68 37//68
f 58//69 54//69 43//69
f 56//70 63//70 60//70
f 60//71 64//71 57//71
f 48//72 40//72 49//72
f 62//73 54//73 58//73
f 40//74 39//74 49//74
f 65//75 52//75 51//75
f 65//76 51//76 37//76
f 58//77 57//77 62//77
f 46//78 53//78 61//78
f 37//79 62//79 65//79
f 65//80 62//80 64//80
f 55//81 59//81 66//81
f 55//82 66//82 56//82
f 56//83 66//83 63//83
f 60//84 63//84 64//84
f 57//85 64//85 62//85
f 49//86 39//86 38//86
f 49//87 38//87 50//87
f 51//88 38//88 37//88
f 47//89 67//89 59//89
f 59//90 67//90 68//90
f 59//91 68//91 66//91
f 67//92 47//92 61//92
f 52//93 65//93 66//93
f 53//94 52//94 66//94
f 51//95 50//95 38//95
f 66//96 67//96 53//96
f 68//97 67//97 66//97
f 63//98 66//98 64//98
f 53//99 67//99 61//99
f 64//100 66//100 65//100
f 69//101 70//101 71//101
f 69//50 71//50 72//50
f 69//50 72//50 73//50
f 69//102 74//102 70//102
f 70//103 75//103 71//103
f 70//104 74//104 76//104
f 70//105 76//105 75//105
f 71//106 77//106 72//106
f 71//107 75//107 78//107
f 71//108 78//108 77//108
f 69//109 73//109 74//109
f 75//110 76//110 78//110
f 76//111 79//111 80//111
f 76//112 80//112 78//112
f 77//113 81//113 72//113
f 78//114 80//114 82//114
f 78//115 82//115 83//115
f 78//116 83//116 77//116
f 79//117 84//117 80//117
f 80//118 84//118 85//118
f 80//119 85//119 86//119
f 80//120 86//120 82//120
f 77//121 83//121 81//121
f 81//122 87//122 88//122
f 81//122 88//122 89//122
f 81//122 89//122 90//122
f 81//123 90//123 73//123
f 81//124 73//124 72//124
f 83//125 91//125 81//125
f 83//126 82//126 91//126
f 74//127 92//127 93//127
f 92//128 89//128 93//128
f 73//129 90//129 74//129
f 74//130 90//130 89//130
f 74//131 89//131 92//131
f 79//132 94//132 84//132
f 84//133 87//133 85//133
f 85//134 95//134 96//134
f 85//135 96//135 97//135
f 85//136 97//136 86//136
f 85//137 87//137 95//137
f 86//138 91//138 82//138
f 81//139 91//139 87//139
f 74//140 93//140 76//140
f 89//141 98//141 93//141
f 79//142 76//142 93//142
f 79//143 93//143 98//143
f 79//144 98//144 94//144
f 84//145 99//145 87//145
f 95//146 100//146 101//146
f 95//147 101//147 96//147
f 96//148 101//148 97//148
f 97//149 101//149 102//149
f 97//150 102//150 86//150
f 86//151 102//151 91//151
f 91//152 102//152 87//152
f 87//153 102//153 101//153
f 87//154 101//154 100//154
f 88//155 94//155 98//155
f 88//156 98//156 89//156
f 84//157 94//157 99//157
f 95//158 87//158 100//158
f 88//159 99//159 94//159
f 87//160 99//160 88//160
f 103//161 104//161 105//161
f 103//162 105//162 106//162
f 103//163 106//163 107//163
f 103//164 108//164 109//164
f 103//165 109//165 104//165
f 106//166 110//166 111//166
f 105//167 112//167 106//167
f 113//168 104//168 114//168
f 104//169 113//169 105//169
f 106//170 112//170 110//170
f 103//171 107//171 115//171
f 103//172 115//172 108//172
f 108//173 116//173 117//173
f 108//174 117//174 118//174
f 108//175 115//175 119//175
f 108//176 119//176 116//176
f 108//177 118//177 109//177
f 109//178 120//178 104//178
f 120//179 121//179 104//179
f 111//180 107//180 106//180
f 111//181 122//181 107//181
f 119//182 115//182 122//182
f 115//183 107//183 122//183
f 118//184 123//184 109//184
f 109//185 123//185 120//185
f 121//186 120//186 123//186
f 104//187 121//187 114//187
f 116//188 119//188 124//188
f 116//189 124//189 125//189
f 119//190 126//190 124//190
f 119//191 122//191 127//191
f 113//192 112//192 105//192
f 111//193 110//193 122//193
f 119//194 127//194 126//194
f 121//195 123//195 128//195
f 127//196 122//196 110//196
f 113//197 114//197 129//197
f 125//198 124//198 130//198
f 124//199 126//199 130//199
f 118//200 117//200 123//200
f 123//201 117//201 128//201
f 125//202 130//202 131//202
f 116//203 125//203 132//203
f 116//204 128//204 117//204
f 130//205 126//205 133//205
f 134//206 110//206 112//206
f 116//207 132//207 135//207
f 116//208 135//208 128//208
f 130//209 133//209 131//209
f 126//210 127//210 134//210
f 114//211 121//211 135//211
f 129//212 114//212 135//212
f 125//213 131//213 136//213
f 126//214 134//214 133//214
f 128//215 135//215 121//215
f 112//216 113//216 134//216
f 110//217 134//217 127//217
f 125//218 136//218 129//218
f 125//219 129//219 132//219
f 129//220 135//220 132//220
f 113//221 129//221 136//221
f 113//222 133//222 134//222
f 136//223 131//223 133//223
f 136//224 133//224 113//224
f 137//4 138//4 139//4
f 137//4 139//4 140//4
f 137//4 140//4 141//4
f 137//225 141//225 142//225
f 137//225 142//225 143//225
f 137//225 143//225 144//225
f 137//226 144//226 138//226
f 141//227 140//227 142//227
f 144//228 145//228 146//228
f 144//229 146//229 138//229
f 138//230 146//230 147//230
f 138//231 147//231 148//231
f 144//232 143//232 145//232
f 145//50 149//50 150//50
f 145//50 150//50 151//50
f 145//50 151//50 152//50
f 145//50 152//50 153//50
f 145//50 153//50 154//50
f 145//233 154//233 146//233
f 146//3 154//3 148//3
f 146//3 148//3 147//3
f 142//234 155//234 156//234
f 138//235 148//235 139//235
f 148//236 140//236 139//236
f 140//227 155//227 142//227
f 142//237 156//237 143//237
f 148//238 157//238 140//238
f 140//239 157//239 158//239
f 140//240 158//240 159//240
f 140//241 159//241 160//241
f 140//242 160//242 161//242
f 140//243 161//243 162//243
f 140//244 162//244 155//244
f 143//245 156//245 145//245
f 145//246 156//246 163//246
f 155//247 162//247 156//247
f 156//248 162//248 163//248
f 161//249 164//249 162//249
f 154//250 165//250 148//250
f 148//251 165//251 157//251
f 159//252 166//252 160//252
f 164//253 163//253 162//253
f 154//254 153//254 165//254
f 157//255 165//255 167//255
f 157//256 167//256 158//256
f 158//257 167//257 168//257
f 158//258 169//258 159//258
f 159//259 169//259 166//259
f 160//260 166//260 170//260
f 160//261 170//261 161//261
f 161//262 170//262 164//262
f 145//263 163//263 164//263
f 145//264 164//264 149//264
f 167//265 165//265 153//265
f 167//266 153//266 152//266
f 167//267 152//267 168//267
f 168//268 169//268 158//268
f 169//269 150//269 166//269
f 166//270 150//270 149//270
f 166//271 149//271 170//271
f 170//272 149//272 164//272
f 168//273 151//273 169//273
f 168//274 152//274 151//274
f 169//275 151//275 150//275
f 171//276 172//276 173//276
f 171//50 173//50 174//50
f 171//50 174//50 175//50
f 171//50 175//50 176//50
f 171//50 176//50 177//50
f 171//50 177//50 178//50
f 171//50 178//50 179//50
f 171//277 179//277 180//277
f 171//278 180//278 181//278
f 171//279 181//279 182//279
f 171//280 182//280 183//280
f 171//281 183//281 184//281
f 171//282 184//282 172//282
f 172//283 185//283 174//283
f 172//284 174//284 173//284
f 172//4 184//4 186//4
f 172//4 186//4 187//4
f 172//4 187//4 188//4
f 172//4 188//4 189//4
f 172//4 189//4 190//4
f 172//4 190//4 191//4
f 172//4 191//4 192//4
f 172//4 192//4 193//4
f 172//4 193//4 194//4
f 172//4 194//4 195//4
f 172//4 195//4 196//4
f 172//4 196//4 185//4
f 179//285 197//285 198//285
f 179//286 198//286 199//286
f 179//287 199//287 180//287
f 179//122 178//122 200//122
f 179//122 200//122 201//122
f 179//122 201//122 197//122
f 180//288 188//288 181//288
f 181//289 188//289 187//289
f 181//290 187//290 182//290
f 182//291 187//291 183//291
f 183//292 187//292 186//292
f 183//293 186//293 184//293
f 185//294 196//294 174//294
f 178//295 193//295 200//295
f 174//296 196//296 175//296
f 197//297 202//297 203//297
f 197//298 203//298 198//298
f 198//299 203//299 199//299
f 177//300 194//300 193//300
f 177//301 193//301 178//301
f 177//302 176//302 194//302
f 188//303 180//303 189//303
f 196//304 195//304 175//304
f 175//305 195//305 176//305
f 197//306 201//306 204//306
f 197//307 204//307 191//307
f 197//308 191//308 202//308
f 202//309 190//309 203//309
f 203//310 190//310 199//310
f 193//311 192//311 201//311
f 193//312 201//312 200//312
f 176//313 195//313 194//313
f 180//314 199//314 189//314
f 189//315 199//315 190//315
f 201//316 192//316 204//316
f 204//317 192//317 191//317
f 202//318 191//318 190//318
f 205//50 206//50 207//50
f 205//50 207//50 208//50
f 205//50 208//50 209//50
f 205//319 210//319 206//319
f 205//320 211//320 210//320
f 210//321 211//321 212//321
f 205//322 213//322 211//322
f 206//323 214//323 215//323
f 210//324 212//324 206//324
f 206//325 215//325 207//325
f 205//326 209//326 213//326
f 211//327 213//327 216//327
f 206//328 212//328 214//328
f 209//329 217//329 213//329
f 211//330 216//330 212//330
f 207//331 215//331 218//331
f 207//332 218//332 219//332
f 209//333 220//333 217//333
f 213//334 221//334 216//334
f 216//335 222//335 212//335
f 214//336 223//336 215//336
f 219//122 224//122 225//122
f 219//122 225//122 226//122
f 219//122 226//122 227//122
f 219//337 227//337 207//337
f 209//338 226//338 220//338
f 220//339 228//339 217//339
f 218//340 229//340 219//340
f 209//341 208//341 226//341
f 214//342 212//342 222//342
f 222//343 223//343 214//343
f 218//344 215//344 223//344
f 218//345 223//345 230//345
f 229//346 224//346 219//346
f 226//347 208//347 227//347
f 226//348 225//348 228//348
f 226//349 228//349 220//349
f 213//350 217//350 221//350
f 228//351 231//351 217//351
f 232//352 218//352 230//352
f 218//353 232//353 229//353
f 227//354 208//354 207//354
f 225//355 233//355 228//355
f 216//356 221//356 234//356
f 216//357 234//357 222//357
f 225//358 235//358 233//358
f 217//359 236//359 221//359
f 229//360 225//360 224//360
f 233//361 235//361 228//361
f 231//362 236//362 217//362
f 221//363 236//363 237//363
f 234//364 221//364 237//364
f 238//365 229//365 232//365
f 225//366 238//366 235//366
f 235//367 231//367 228//367
f 236//368 231//368 235//368
f 234//369 223//369 222//369
f 229//370 238//370 225//370
f 236//371 235//371 237//371
f 223//372 234//372 230//372
f 238//373 232//373 237//373
f 232//374 230//374 237//374
f 234//375 237//375 230//375
f 238//376 237//376 235//376
f 239//122 240//122 241//122
f 239//122 241//122 242//122
f 239//122 242//122 243//122
f 239//377 243//377 244//377
f 239//378 244//378 240//378
f 243//379 242//379 245//379
f 243//380 245//380 246//380
f 243//381 246//381 244//381
f 244//8 247//8 248//8
f 244//8 248//8 249//8
f 244//382 249//382 250//382
f 244//383 250//383 240//383
f 246//384 247//384 244//384
f 246//385 245//385 251//385
f 246//386 251//386 252//386
f 246//387 252//387 253//387
f 246//388 253//388 254//388
f 245//389 242//389 255//389
f 245//390 255//390 251//390
f 246//391 256//391 247//391
f 246//392 254//392 257//392
f 246//393 257//393 256//393
f 251//394 255//394 258//394
f 251//395 258//395 259//395
f 251//396 259//396 252//396
f 252//397 259//397 260//397
f 252//398 260//398 253//398
f 253//399 260//399 254//399
f 250//400 261//400 262//400
f 250//401 249//401 261//401
f 250//402 262//402 240//402
f 254//403 263//403 264//403
f 247//404 265//404 266//404
f 256//405 257//405 265//405
f 256//406 265//406 247//406
f 249//407 248//407 261//407
f 242//408 241//408 255//408
f 255//409 241//409 258//409
f 254//410 260//410 263//410
f 254//411 264//411 257//411
f 266//412 248//412 247//412
f 258//413 267//413 259//413
f 267//414 260//414 259//414
f 267//415 263//415 260//415
f 262//416 261//416 268//416
f 262//417 268//417 269//417
f 262//418 269//418 241//418
f 262//419 241//419 240//419
f 263//420 270//420 264//420
f 257//421 264//421 265//421
f 265//422 264//422 271//422
f 271//423 266//423 265//423
f 266//424 261//424 248//424
f 268//425 261//425 266//425
f 269//426 270//426 241//426
f 241//427 267//427 258//427
f 263//428 267//428 270//428
f 264//429 270//429 271//429
f 266//430 271//430 272//430
f 268//431 266//431 272//431
f 268//432 272//432 269//432
f 269//433 272//433 270//433
f 270//434 267//434 241//434
f 270//435 272//435 271//435
f 273//436 274//436 275//436
f 274//437 273//437 276//437
f 275//3 277//3 278//3
f 275//438 278//438 279//438
f 275//439 279//439 280//439
f 275//440 280//440 281//440
f 275//441 281//441 273//441
f 273//442 281//442 282//442
f 282//122 283//122 284//122
f 282//122 284//122 285//122
f 282//122 285//122 286//122
f 282//122 286//122 287//122
f 282//122 287//122 288//122
f 282//122 288//122 289//122
f 282//122 289//122 290//122
f 273//443 282//443 276//443
f 276//444 282//444 290//444
f 276//445 291//445 274//445
f 274//446 292//446 275//446
f 278//447 293//447 279//447
f 278//448 294//448 295//448
f 278//449 295//449 293//449
f 280//450 279//450 284//450
f 280//451 284//451 283//451
f 280//452 283//452 281//452
f 281//453 283//453 282//453
f 276//454 290//454 291//454
f 274//455 291//455 292//455
f 293//456 295//456 296//456
f 293//457 296//457 286//457
f 293//458 286//458 279//458
f 279//459 286//459 285//459
f 279//460 285//460 284//460
f 294//4 297//4 298//4
f 294//4 298//4 299//4
f 294//4 299//4 295//4
f 295//461 299//461 300//461
f 295//462 300//462 296//462
f 296//463 300//463 286//463
f 299//464 301//464 300//464
f 300//465 301//465 288//465
f 300//466 288//466 287//466
f 300//467 287//467 286//467
f 291//468 302//468 303//468
f 291//469 303//469 292//469
f 292//470 303//470 304//470
f 292//471 304//471 275//471
f 299//472 298//472 301//472
f 301//473 298//473 297//473
f 301//474 297//474 288//474
f 302//475 304//475 303//475
f 290//476 302//476 291//476
f 304//477 305//477 275//477
f 275//478 305//478 306//478
f 275//479 306//479 297//479
f 278//480 277//480 294//480
f 294//481 277//481 297//481
f 302//482 305//482 304//482
f 290//483 289//483 302//483
f 275//484 297//484 277//484
f 289//485 297//485 306//485
f 289//486 306//486 302//486
f 302//487 306//487 305//487
f 297//488 289//488 288//488
f 307//50 308//50 309//50
f 307//50 309//50 310//50
f 307//50 310//50 311//50
f 307//50 311//50 312//50
f 307//489 313//489 314//489
f 307//490 314//490 315//490
f 307//491 315//491 316//491
f 307//491 316//491 308//491
f 308//492 316//492 317//492
f 308//493 317//493 309//493
f 307//494 312//494 313//494
f 313//495 318//495 319//495
f 313//496 319//496 320//496
f 313//497 320//497 321//497
f 313//498 321//498 314//498
f 313//499 312//499 318//499
f 314//500 321//500 322//500
f 314//501 322//501 315//501
f 315//502 322//502 323//502
f 315//503 323//503 321//503
f 315//504 321//504 320//504
f 315//505 320//505 324//505
f 315//3 324//3 325//3
f 315//3 325//3 316//3
f 316//506 325//506 326//506
f 316//507 326//507 317//507
f 317//122 326//122 327//122
f 317//122 327//122 328//122
f 317//122 328//122 329//122
f 309//508 317//508 329//508
f 309//509 329//509 310//509
f 318//510 312//510 311//510
f 318//511 311//511 330//511
f 321//512 323//512 322//512
f 326//513 325//513 331//513
f 326//514 331//514 332//514
f 326//515 332//515 333//515
f 326//516 333//516 327//516
f 318//517 330//517 319//517
f 311//518 334//518 330//518
f 319//519 335//519 320//519
f 320//520 332//520 331//520
f 320//521 331//521 336//521
f 320//522 336//522 324//522
f 320//4 335//4 333//4
f 320//4 333//4 332//4
f 324//523 336//523 325//523
f 325//524 336//524 331//524
f 327//525 333//525 335//525
f 330//526 335//526 319//526
f 335//527 337//527 327//527
f 330//528 334//528 338//528
f 335//529 330//529 338//529
f 335//530 338//530 337//530
f 329//531 328//531 339//531
f 329//532 339//532 310//532
f 311//533 310//533 334//533
f 310//534 340//534 334//534
f 327//535 337//535 339//535
f 327//536 339//536 328//536
f 310//537 339//537 340//537
f 338//538 334//538 337//538
f 337//539 334//539 340//539
f 339//540 337//540 340//540
f 341//122 342//122 343//122
f 341//122 343//122 344//122
f 341//122 344//122 345//122
f 341//541 345//541 346//541
f 341//542 346//542 347//542
f 347//543 346//543 348//543
f 348//544 346//544 349//544
f 348//543 349//543 350//543
f 348//4 350//4 351//4
f 341//545 347//545 352//545
f 348//546 352//546 347//546
f 341//547 352//547 342//547
f 346//548 345//548 349//548
f 342//549 352//549 353//549
f 348//550 354//550 352//550
f 349//551 345//551 355//551
f 349//552 356//552 357//552
f 349//553 355//553 356//553
f 355//554 345//554 358//554
f 348//555 351//555 354//555
f 357//556 359//556 350//556
f 357//557 350//557 349//557
f 345//558 344//558 358//558
f 342//559 360//559 343//559
f 361//560 353//560 352//560
f 358//561 344//561 362//561
f 355//562 363//562 364//562
f 351//563 365//563 354//563
f 342//564 353//564 360//564
f 352//565 354//565 366//565
f 358//566 363//566 355//566
f 355//567 364//567 356//567
f 351//568 367//568 365//568
f 353//569 361//569 368//569
f 353//570 368//570 369//570
f 352//571 366//571 361//571
f 362//572 370//572 358//572
f 363//573 371//573 364//573
f 354//574 365//574 366//574
f 366//575 365//575 372//575
f 353//576 369//576 360//576
f 366//577 372//577 361//577
f 361//578 372//578 368//578
f 344//579 343//579 362//579
f 360//580 362//580 343//580
f 356//581 364//581 373//581
f 357//582 356//582 374//582
f 369//583 370//583 360//583
f 372//584 373//584 368//584
f 358//585 370//585 363//585
f 351//586 350//586 359//586
f 360//587 370//587 362//587
f 368//588 373//588 371//588
f 356//589 373//589 374//589
f 357//590 374//590 367//590
f 357//591 367//591 359//591
f 364//592 371//592 373//592
f 351//593 359//593 367//593
f 365//594 367//594 372//594
f 368//595 371//595 369//595
f 372//596 367//596 374//596
f 374//597 373//597 372//597
f 369//598 363//598 370//598
f 363//599 369//599 371//599
f 375//8 376//8 377//8
f 375//8 377//8 378//8
f 375//8 378//8 379//8
f 375//8 379//8 380//8
f 375//8 380//8 381//8
f 375//8 381//8 382//8
f 375//8 382//8 383//8
f 375//8 383//8 384//8
f 375//600 385//600 386//600
f 375//601 384//601 385//601
f 386//602 385//602 387//602
f 386//602 387//602 388//602
f 386//602 388//602 389//602
f 386//602 389//602 390//602
f 386//602 390//602 391//602
f 386//602 391//602 392//602
f 386//602 392//602 393//602
f 386//602 393//602 394//602
f 386//602 394//602 395//602
f 386//602 395//602 396//602
f 386//602 396//602 397//602
f 397//603 375//603 386//603
f 375//604 397//604 376//604
f 385//605 384//605 387//605
f 384//606 383//606 387//606
f 397//607 377//607 376//607
f 387//608 383//608 398//608
f 383//609 399//609 398//609
f 397//610 396//610 377//610
f 387//611 398//611 400//611
f 387//612 400//612 388//612
f 398//613 399//613 400//613
f 383//614 382//614 399//614
f 388//615 400//615 401//615
f 399//616 382//616 400//616
f 382//617 381//617 402//617
f 382//618 402//618 403//618
f 382//619 403//619 400//619
f 396//620 395//620 378//620
f 388//621 401//621 403//621
f 400//622 403//622 401//622
f 378//623 377//623 396//623
f 395//624 394//624 378//624
f 388//625 403//625 389//625
f 403//626 404//626 389//626
f 381//627 380//627 405//627
f 381//628 405//628 406//628
f 381//629 406//629 402//629
f 389//630 404//630 402//630
f 389//631 402//631 390//631
f 403//632 402//632 404//632
f 380//633 379//633 407//633
f 380//633 407//633 408//633
f 405//634 380//634 406//634
f 394//635 393//635 379//635
f 390//636 402//636 406//636
f 390//637 406//637 391//637
f 408//50 407//50 393//50
f 408//50 393//50 392//50
f 408//638 392//638 380//638
f 380//639 392//639 406//639
f 406//640 392//640 391//640
f 379//641 393//641 407//641
f 379//642 378//642 394//642
f 409//643 410//643 411//643
f 409//644 411//644 412//644
f 409//645 412//645 413//645
f 409//646 413//646 414//646
f 409//647 414//647 415//647
f 409//648 415//648 416//648
f 409//649 416//649 410//649
f 410//650 417//650 418//650
f 410//651 418//651 411//651
f 410//652 416//652 417//652
f 411//50 419//50 420//50
f 411//50 420//50 412//50
f 412//653 421//653 422//653
f 412//654 422//654 413//654
f 412//655 420//655 423//655
f 412//656 423//656 424//656
f 412//657 424//657 425//657
f 414//658 426//658 427//658
f 414//659 427//659 415//659
f 414//660 413//660 422//660
f 414//661 422//661 421//661
f 415//662 427//662 416//662
f 416//663 428//663 429//663
f 416//664 429//664 417//664
f 417//122 429//122 430//122
f 417//122 430//122 418//122
f 411//665 418//665 419//665
f 425//666 424//666 431//666
f 425//667 431//667 412//667
f 412//668 431//668 421//668
f 421//669 431//669 432//669
f 421//670 432//670 414//670
f 420//671 419//671 433//671
f 420//672 433//672 434//672
f 420//673 434//673 423//673
f 423//3 435//3 436//3
f 423//3 436//3 437//3
f 423//3 437//3 426//3
f 423//3 426//3 432//3
f 423//3 432//3 424//3
f 424//674 432//674 431//674
f 414//675 432//675 426//675
f 416//676 427//676 428//676
f 429//677 438//677 439//677
f 429//678 439//678 440//678
f 429//679 440//679 430//679
f 429//680 428//680 441//680
f 429//681 441//681 438//681
f 418//682 430//682 419//682
f 433//683 419//683 440//683
f 433//684 442//684 436//684
f 433//685 436//685 434//685
f 434//686 436//686 435//686
f 434//687 435//687 423//687
f 426//688 437//688 427//688
f 427//689 437//689 428//689
f 439//690 438//690 433//690
f 439//691 433//691 440//691
f 419//692 430//692 440//692
f 436//693 442//693 437//693
f 437//694 442//694 428//694
f 428//695 442//695 441//695
f 438//696 442//696 433//696
f 441//697 442//697 438//697
f 443//698 444//698 445//698
f 443//699 445//699 446//699
f 443//700 446//700 447//700
f 443//701 447//701 448//701
f 443//702 448//702 449//702
f 444//703 450//703 445//703
f 445//704 451//704 452//704
f 445//705 452//705 446//705
f 445//706 450//706 453//706
f 445//707 453//707 451//707
f 446//708 452//708 454//708
f 446//709 454//709 447//709
f 448//602 455//602 456//602
f 448//602 456//602 457//602
f 448//602 457//602 458//602
f 448//602 458//602 459//602
f 448//602 459//602 460//602
f 448//602 460//602 461//602
f 448//602 461//602 462//602
f 448//602 462//602 449//602
f 448//710 447//710 455//710
f 449//711 462//711 444//711
f 449//711 444//711 443//711
f 462//712 450//712 444//712
f 452//713 451//713 454//713
f 453//714 463//714 464//714
f 453//715 464//715 451//715
f 447//716 454//716 465//716
f 447//717 465//717 455//717
f 450//718 461//718 453//718
f 450//719 462//719 461//719
f 451//720 464//720 454//720
f 454//721 464//721 463//721
f 454//722 463//722 466//722
f 454//723 466//723 467//723
f 453//724 468//724 463//724
f 463//725 469//725 466//725
f 454//726 467//726 465//726
f 455//727 465//727 456//727
f 461//728 460//728 453//728
f 468//729 470//729 463//729
f 468//730 453//730 460//730
f 468//731 460//731 470//731
f 469//732 471//732 466//732
f 467//733 466//733 471//733
f 467//734 471//734 472//734
f 467//735 472//735 465//735
f 465//736 472//736 456//736
f 472//737 471//737 457//737
f 472//738 457//738 456//738
f 470//739 473//739 469//739
f 470//740 469//740 463//740
f 471//741 469//741 474//741
f 471//742 474//742 458//742
f 471//743 458//743 457//743
f 460//744 459//744 470//744
f 469//745 473//745 474//745
f 474//746 473//746 459//746
f 474//747 459//747 458//747
f 459//748 473//748 475//748
f 459//749 475//749 476//749
f 459//750 476//750 470//750
f 470//751 476//751 475//751
f 470//752 475//752 473//752
f 477//8 478//8 479//8
f 477//8 479//8 480//8
f 477//8 480//8 481//8
f 477//8 481//8 482//8
f 477//8 482//8 483//8
f 477//8 483//8 484//8
f 477//8 484//8 485//8
f 477//8 485//8 486//8
f 477//8 486//8 487//8
f 477//8 487//8 488//8
f 477//8 488//8 489//8
f 477//8 489//8 490//8
f 477//8 490//8 491//8
f 477//8 491//8 492//8
f 477//4 492//4 493//4
f 477//753 493//753 494//753
f 492//754 491//754 493//754
f 477//755 494//755 495//755
f 495//756 478//756 477//756
f 494//757 493//757 496//757
f 491//758 490//758 497//758
f 491//759 497//759 498//759
f 491//760 498//760 496//760
f 491//761 496//761 493//761
f 494//602 496//602 498//602
f 494//602 498//602 497//602
f 494//602 497//602 499//602
f 494//602 499//602 500//602
f 494//602 500//602 501//602
f 494//602 501//602 502//602
f 494//602 502//602 503//602
f 494//602 503//602 504//602
f 494//602 504//602 505//602
f 494//602 505//602 506//602
f 490//762 489//762 497//762
f 497//763 489//763 499//763
f 495//764 507//764 478//764
f 478//765 507//765 479//765
f 489//766 488//766 499//766
f 495//767 494//767 507//767
f 499//768 488//768 500//768
f 507//769 508//769 479//769
f 500//770 488//770 487//770
f 494//771 506//771 507//771
f 507//772 506//772 508//772
f 479//773 508//773 480//773
f 500//774 487//774 501//774
f 487//775 486//775 501//775
f 506//776 505//776 508//776
f 480//777 508//777 481//777
f 486//778 485//778 502//778
f 486//779 502//779 501//779
f 508//780 505//780 481//780
f 485//781 484//781 503//781
f 485//782 503//782 502//782
f 505//783 504//783 509//783
f 509//784 504//784 483//784
f 505//785 509//785 481//785
f 503//786 484//786 510//786
f 504//787 510//787 483//787
f 483//788 510//788 484//788
f 483//789 482//789 509//789
f 509//790 482//790 481//790
f 504//791 503//791 510//791
f 511//602 512//602 513//602
f 511//602 513//602 514//602
f 511//602 514//602 515//602
f 511//602 515//602 516//602
f 511//602 516//602 517//602
f 511//602 517//602 518//602
f 511//602 518//602 519//602
f 511//792 520//792 521//792
f 511//793 522//793 523//793
f 511//794 523//794 524//794
f 511//795 524//795 525//795
f 511//796 525//796 526//796
f 511//797 526//797 520//797
f 511//798 519//798 527//798
f 511//799 527//799 528//799
f 511//800 528//800 522//800
f 520//8 526//8 525//8
f 520//8 525//8 529//8
f 520//8 529//8 530//8
f 520//801 530//801 531//801
f 520//802 531//802 532//802
f 520//8 532//8 533//8
f 520//8 533//8 534//8
f 520//8 534//8 535//8
f 520//8 535//8 536//8
f 520//8 536//8 537//8
f 520//8 537//8 538//8
f 520//8 538//8 539//8
f 520//8 539//8 540//8
f 520//8 540//8 541//8
f 520//8 541//8 521//8
f 511//803 521//803 512//803
f 521//804 541//804 512//804
f 522//805 531//805 530//805
f 522//806 530//806 529//806
f 522//807 529//807 523//807
f 522//808 528//808 531//808
f 523//809 529//809 525//809
f 523//810 525//810 524//810
f 519//811 518//811 527//811
f 528//812 527//812 542//812
f 528//3 542//3 532//3
f 528//3 532//3 531//3
f 512//813 541//813 513//813
f 518//4 517//4 543//4
f 518//814 533//814 544//814
f 518//815 544//815 527//815
f 541//816 540//816 513//816
f 518//817 543//817 533//817
f 533//818 527//818 544//818
f 540//819 539//819 514//819
f 540//820 514//820 513//820
f 517//821 534//821 543//821
f 543//822 534//822 533//822
f 533//823 532//823 542//823
f 533//824 542//824 527//824
f 539//825 538//825 514//825
f 514//826 538//826 537//826
f 537//827 515//827 514//827
f 517//828 516//828 534//828
f 536//829 515//829 537//829
f 516//830 535//830 534//830
f 516//831 515//831 535//831
f 535//832 515//832 536//832
