# Blender v3.0.1 OBJ File: ''
# www.blender.org
mtllib head2.mtl
o head2_head2.001
v 0.030538 0.006503 -0.060711
v 0.025091 -0.127131 0.028425
v -0.034541 -0.011645 -0.046952
v 0.079747 -0.011645 -0.046952
v -0.010137 -0.127322 0.028425
v -0.058247 -0.029302 -0.030288
v -0.026760 0.017650 -0.046945
v 0.032689 0.026187 -0.041156
v 0.073294 -0.104675 0.027002
v -0.035924 -0.113780 0.027002
v 0.075541 0.015040 0.005902
v 0.089341 -0.033463 -0.019677
v 0.088136 -0.067631 0.035254
v -0.059706 -0.078266 0.024460
v 0.087186 -0.035926 0.039912
v 0.039621 -0.104233 0.064881
v -0.051548 0.011063 -0.022516
v -0.051189 0.011082 0.023666
v -0.032782 0.015614 0.043748
v 0.079958 -0.055327 0.059667
v 0.049681 0.026494 0.040458
v -0.063824 -0.056893 0.021799
v 0.068455 0.007478 0.058519
v -0.039028 -0.025309 0.050856
v 0.000607 -0.045511 0.069584
v 0.053811 -0.061596 0.070151
v -0.030892 -0.083248 0.055232
v -0.064126 -0.053251 -0.021212
v 0.088416 -0.053258 -0.021212
v 0.088742 -0.032104 -0.024995
v -0.060839 -0.030270 -0.024995
v -0.006771 -0.129395 -0.024002
v 0.068824 0.016897 -0.035686
v 0.033206 0.026514 -0.040375
v -0.050191 -0.011782 -0.030328
v -0.042269 -0.109156 -0.024002
v 0.012393 0.016626 -0.053512
v 0.063335 -0.117818 -0.024002
v 0.081055 -0.099811 -0.024547
v 0.086151 -0.066255 -0.045981
v -0.007524 -0.110511 -0.051895
v -0.040278 -0.024408 -0.050966
v 0.027246 -0.122625 -0.044547
v 0.049474 -0.102897 -0.064697
v -0.045453 -0.076302 -0.045008
v 0.074172 -0.002276 -0.057602
v 0.074404 -0.077202 -0.060848
v 0.057532 0.016749 -0.058216
v 0.010858 -0.024626 -0.069510
v 0.049860 -0.074995 -0.070894
v 0.039539 -0.026888 -0.069608
v 0.013297 -0.082711 -0.071794
v -0.006687 -0.057184 -0.069671
v -0.006265 -0.094358 -0.062853
v 0.031890 -0.075590 0.048139
v 0.031890 -0.074469 0.048139
v 0.031890 -0.074469 0.049212
v 0.031890 -0.075590 0.049212
v -0.027339 -0.075590 0.049212
v -0.027339 -0.075590 0.048139
v -0.027339 -0.074469 0.048139
v -0.027339 -0.074469 0.049212
v 0.012956 -0.135585 -0.005571
v 0.031944 -0.132705 0.015234
v 0.013102 -0.129701 0.028432
v -0.010956 -0.131068 0.011969
v 0.036067 -0.132781 -0.009378
v -0.003637 -0.130603 -0.023977
v 0.051574 -0.126197 -0.021607
v -0.049501 -0.099842 -0.025082
v 0.083142 -0.095572 -0.025087
v 0.052180 -0.118760 0.028432
v -0.038005 -0.109530 0.027720
v 0.077932 -0.113055 -0.021860
v 0.062096 -0.122104 0.021449
v -0.058646 -0.081093 -0.025082
v -0.060853 -0.030246 -0.024983
v 0.086415 -0.030256 -0.024988
v 0.070504 -0.123129 0.004241
v -0.042470 -0.114880 0.010107
v -0.065880 -0.031313 -0.004075
v -0.060493 -0.033904 0.027002
v 0.088905 -0.033904 0.027002
v 0.091040 -0.076222 -0.000579
v -0.064987 -0.078284 0.000834
v 0.082924 -0.111106 -0.000702
v -0.058489 -0.078284 0.027002
v 0.086125 -0.084746 0.025724
v -0.056667 -0.096998 0.002783
vn -0.0214 -0.5542 -0.8321
vn 0.0275 -0.5555 -0.8311
vn 0.0030 -0.5455 -0.8381
vn -0.1529 -0.5620 -0.8129
vn -0.6493 0.1726 -0.7407
vn 0.4147 0.6181 -0.6678
vn 0.2629 -0.6115 -0.7463
vn -0.2223 0.0593 -0.9732
vn -0.2668 -0.5882 -0.7634
vn 0.5647 0.7539 -0.3357
vn 0.9258 -0.3298 -0.1848
vn 0.5617 -0.5384 -0.6282
vn -0.0325 0.7062 -0.7073
vn -0.7140 -0.5123 -0.4772
vn 0.9462 0.3128 -0.0826
vn 0.9990 0.0245 0.0371
vn 0.0046 -0.8476 0.5306
vn -0.7128 0.2448 -0.6573
vn -0.2447 0.9696 0.0055
vn -0.1433 0.9896 0.0127
vn 0.7779 -0.4165 0.4705
vn -0.2553 0.9668 0.0016
vn -0.1299 0.9913 0.0233
vn 0.3233 0.9436 -0.0709
vn 0.9669 0.2512 0.0453
vn 0.4017 -0.8391 0.3669
vn -0.9867 0.1623 0.0076
vn -0.9540 -0.2104 -0.2136
vn -0.0568 0.6575 0.7513
vn -0.3281 0.2100 0.9210
vn -0.7432 0.2230 0.6309
vn 0.8619 0.1666 0.4790
vn 0.6541 -0.4769 0.5871
vn -0.9831 0.1830 -0.0083
vn 0.9291 0.3272 0.1722
vn 0.9450 -0.0197 0.3265
vn -0.1095 0.3356 0.9356
vn 0.4109 -0.2453 0.8781
vn 0.3540 0.0819 0.9317
vn -0.6945 -0.4234 0.5817
vn -0.3557 -0.6022 0.7147
vn -0.2795 -0.5916 0.7562
vn 0.6008 0.7759 0.1924
vn -0.4235 0.0090 0.9059
vn -0.1557 -0.0700 0.9853
vn -0.8223 0.1377 0.5521
vn -0.7289 -0.0555 0.6823
vn 0.0373 0.1582 0.9867
vn -0.7331 -0.0517 0.6781
vn -0.0957 -0.2830 0.9543
vn 0.0000 0.1761 0.9844
vn 0.0020 0.1622 0.9868
vn -0.0000 -0.0366 0.9993
vn 0.0026 0.2142 0.9768
vn -0.0383 0.3198 0.9467
vn -0.0156 0.2854 0.9583
vn -0.0365 -0.0640 0.9973
vn -0.4191 0.9077 -0.0192
vn 0.0076 -0.0461 0.9989
vn 0.1220 -0.0901 0.9884
vn 0.9967 -0.0289 -0.0760
vn -0.4294 -0.7532 -0.4983
vn -0.7811 0.2904 -0.5528
vn 0.1627 -0.9851 -0.0553
vn 0.3533 -0.8330 -0.4258
vn 0.6307 -0.6342 -0.4473
vn 0.9878 -0.1556 -0.0087
vn -0.1690 -0.8183 -0.5494
vn -0.8708 -0.3219 -0.3715
vn -0.5034 0.6081 -0.6138
vn 0.9426 0.1199 -0.3115
vn 0.8415 -0.3757 -0.3882
vn 0.7735 0.0298 -0.6331
vn 0.9294 0.3588 -0.0871
vn 0.2756 0.9504 -0.1444
vn -0.0585 0.8399 -0.5395
vn 0.6648 -0.5733 -0.4789
vn -0.7823 0.0093 -0.6229
vn 0.7083 0.6079 -0.3590
vn -0.0976 0.3630 -0.9267
vn 0.3817 0.0412 -0.9234
vn 0.2725 0.0841 -0.9585
vn -0.5591 -0.4844 -0.6729
vn -0.0767 -0.6688 -0.7395
vn -0.3176 0.3531 -0.8800
vn 0.3545 -0.2074 -0.9117
vn 0.0161 0.2463 -0.9691
vn -0.0003 0.0393 -0.9992
vn 0.2194 0.1608 -0.9623
vn -0.0591 0.0368 -0.9976
vn -0.7848 0.0071 -0.6197
vn 0.0698 -0.2172 -0.9736
vn -0.1119 -0.5519 -0.8264
vn -0.3344 0.1847 -0.9242
vn -0.1037 -0.4902 -0.8654
vn 0.0181 0.0306 -0.9994
vn -0.5330 -0.4462 -0.7189
vn -0.5199 -0.0461 -0.8530
vn -0.4705 -0.1643 -0.8670
vn -0.3216 -0.1743 -0.9307
vn 1.0000 0.0000 0.0000
vn 0.0000 -1.0000 0.0000
vn 0.0000 0.0000 -1.0000
vn 0.0000 1.0000 0.0000
vn 0.0000 0.0000 1.0000
vn -1.0000 0.0000 0.0000
vn -0.0375 -0.9846 0.1705
vn -0.0608 -0.9835 0.1704
vn 0.1243 -0.9920 0.0239
vn 0.0633 -0.9475 -0.3135
vn 0.0898 -0.9200 -0.3815
vn 0.0011 -0.0343 -0.9994
vn -0.0058 0.0207 0.9998
vn 0.0686 -0.2008 -0.9772
vn 0.3207 -0.9455 0.0567
vn 0.0524 -0.1243 -0.9909
vn -0.2268 -0.9722 -0.0587
vn -0.0000 0.0020 -1.0000
vn 0.2308 -0.8242 0.5171
vn 0.0001 0.0015 -1.0000
vn 0.1541 -0.7879 0.5962
vn 0.3100 -0.9438 -0.1150
vn -0.5370 -0.8092 -0.2385
vn 0.2077 -0.9652 0.1589
vn 0.0000 0.9965 0.0831
vn 0.0027 0.9976 0.0699
vn 0.0001 0.9987 0.0510
vn 0.9611 -0.0477 -0.2720
vn -0.9715 -0.0417 -0.2332
vn -0.0071 0.0074 0.9999
vn 0.0000 0.0169 0.9999
vn -0.4428 -0.8205 0.3615
vn 0.9306 -0.3125 -0.1908
vn 0.9653 -0.2241 -0.1341
vn -0.0376 -0.0017 0.9993
vn -0.3178 -0.7864 0.5297
vn 0.4342 -0.8750 -0.2141
vn 0.1103 -0.0310 0.9934
vn -0.4497 -0.8872 -0.1030
vn 0.6736 -0.7334 -0.0914
vn -0.7509 -0.6481 -0.1270
vn -0.8836 -0.4310 -0.1833
vn 0.4442 -0.3786 0.8120
vn 0.9961 0.0778 -0.0422
vn -0.8931 -0.4151 -0.1735
vn -0.9853 -0.0009 0.1707
vn -0.7914 -0.5111 0.3354
vn -0.9709 -0.0431 -0.2356
vn 0.9846 -0.0580 0.1652
vn 0.7352 -0.5223 0.4320
vn 0.9682 -0.2256 0.1078
vn 0.7165 -0.5820 0.3847
vn -0.9696 -0.0438 0.2408
vn -0.7980 -0.4898 0.3511
vn -0.8991 -0.3765 0.2233
usemtl Default_OBJ.003
s off
f 1//1 2//1 3//1
f 1//2 4//2 2//2
f 3//3 2//3 5//3
f 3//4 5//4 6//4
f 3//5 6//5 7//5
f 4//6 1//6 8//6
f 4//7 9//7 2//7
f 3//8 7//8 1//8
f 6//9 5//9 10//9
f 8//10 11//10 4//10
f 12//11 13//11 9//11
f 12//12 9//12 4//12
f 7//13 8//13 1//13
f 6//14 10//14 14//14
f 4//15 11//15 12//15
f 13//16 12//16 15//16
f 2//17 16//17 5//17
f 7//18 6//18 17//18
f 7//19 18//19 19//19
f 7//20 19//20 8//20
f 9//21 13//21 20//21
f 7//22 17//22 18//22
f 21//23 8//23 19//23
f 21//24 11//24 8//24
f 12//25 11//25 15//25
f 9//26 16//26 2//26
f 17//27 6//27 18//27
f 14//28 22//28 6//28
f 19//29 23//29 21//29
f 19//30 24//30 25//30
f 19//31 18//31 24//31
f 15//32 23//32 20//32
f 20//33 16//33 9//33
f 6//34 22//34 18//34
f 11//35 23//35 15//35
f 15//36 20//36 13//36
f 25//37 23//37 19//37
f 16//38 20//38 26//38
f 23//39 26//39 20//39
f 27//40 14//40 10//40
f 5//41 27//41 10//41
f 5//42 16//42 27//42
f 21//43 23//43 11//43
f 24//44 27//44 25//44
f 16//45 26//45 27//45
f 22//46 24//46 18//46
f 14//47 24//47 22//47
f 25//48 26//48 23//48
f 14//49 27//49 24//49
f 26//50 25//50 27//50
f 28//51 29//51 30//51
f 28//52 30//52 31//52
f 28//53 32//53 29//53
f 31//54 30//54 33//54
f 31//55 33//55 34//55
f 31//56 34//56 35//56
f 28//57 36//57 32//57
f 35//58 34//58 37//58
f 29//59 32//59 38//59
f 29//60 38//60 39//60
f 29//61 40//61 30//61
f 36//62 41//62 32//62
f 35//63 42//63 31//63
f 32//64 43//64 38//64
f 38//65 43//65 44//65
f 38//66 44//66 39//66
f 39//67 40//67 29//67
f 32//68 41//68 43//68
f 28//69 45//69 36//69
f 35//70 37//70 42//70
f 30//71 40//71 46//71
f 39//72 47//72 40//72
f 40//73 47//73 46//73
f 33//74 30//74 46//74
f 33//75 48//75 34//75
f 34//76 48//76 37//76
f 47//77 39//77 44//77
f 31//78 45//78 28//78
f 46//79 48//79 33//79
f 49//80 37//80 48//80
f 47//81 50//81 46//81
f 46//82 50//82 51//82
f 45//83 41//83 36//83
f 43//84 41//84 44//84
f 49//85 42//85 37//85
f 47//86 44//86 50//86
f 49//87 48//87 51//87
f 49//88 51//88 52//88
f 46//89 51//89 48//89
f 49//90 52//90 53//90
f 45//91 31//91 42//91
f 44//92 52//92 50//92
f 54//93 44//93 41//93
f 49//94 53//94 42//94
f 44//95 54//95 52//95
f 50//96 52//96 51//96
f 45//97 54//97 41//97
f 42//98 53//98 45//98
f 54//99 45//99 53//99
f 52//100 54//100 53//100
f 55//101 56//101 57//101
f 55//101 57//101 58//101
f 55//102 58//102 59//102
f 55//102 59//102 60//102
f 55//103 60//103 61//103
f 55//103 61//103 56//103
f 56//104 61//104 62//104
f 56//104 62//104 57//104
f 58//105 57//105 62//105
f 58//105 62//105 59//105
f 60//106 59//106 62//106
f 60//106 62//106 61//106
f 63//107 64//107 65//107
f 65//108 66//108 63//108
f 64//109 63//109 67//109
f 63//110 68//110 67//110
f 67//111 68//111 69//111
f 68//112 70//112 71//112
f 65//113 72//113 73//113
f 71//114 74//114 68//114
f 64//115 67//115 75//115
f 74//116 69//116 68//116
f 68//117 63//117 66//117
f 76//118 77//118 78//118
f 76//103 71//103 70//103
f 64//119 72//119 65//119
f 76//120 78//120 71//120
f 64//121 75//121 72//121
f 67//122 69//122 79//122
f 70//123 68//123 80//123
f 67//124 79//124 75//124
f 81//125 82//125 83//125
f 81//126 83//126 78//126
f 81//127 78//127 77//127
f 78//128 84//128 71//128
f 76//129 85//129 77//129
f 82//130 73//130 72//130
f 82//131 72//131 83//131
f 66//132 73//132 80//132
f 71//133 86//133 74//133
f 71//134 84//134 86//134
f 73//135 82//135 87//135
f 65//136 73//136 66//136
f 69//137 74//137 79//137
f 72//138 88//138 83//138
f 66//139 80//139 68//139
f 74//140 86//140 79//140
f 70//141 80//141 89//141
f 76//142 70//142 89//142
f 75//143 88//143 72//143
f 78//144 83//144 84//144
f 89//145 85//145 76//145
f 85//146 82//146 81//146
f 87//147 89//147 73//147
f 77//148 85//148 81//148
f 88//149 84//149 83//149
f 75//150 86//150 88//150
f 88//151 86//151 84//151
f 79//152 86//152 75//152
f 82//153 85//153 87//153
f 89//154 80//154 73//154
f 87//155 85//155 89//155
