# https://github.com/mikedh/trimesh
v -0.00434429 -0.03899801 0.00511381
v 0.01263827 -0.03495906 -0.00299193
v 0.03070918 -0.03862961 0.02103657
v -0.03179112 -0.03850364 0.02340369
v -0.02449145 -0.02592724 -0.00298385
v -0.03749266 0.00000004 -0.00300000
v 0.03735868 -0.03800736 0.04387395
v 0.03396511 -0.03798445 0.05738821
v -0.00449111 -0.03802072 0.07908089
v 0.02350724 -0.03799495 0.07062085
v -0.02993145 -0.03803122 0.06391066
v -0.03696178 -0.03805317 0.04585142
v 0.03068073 -0.02019473 -0.00298385
v 0.00990358 -0.03804171 0.07795739
v -0.02027151 -0.03806653 0.07338972
v 0.03749266 0.00000004 -0.00300000
v -0.01659437 0.03216947 -0.00298789
v -0.03747063 0.03805325 0.04175414
v 0.03698426 0.03802080 0.04609874
v 0.02593772 0.03803321 0.06822143
v -0.02798734 0.03873850 0.01786696
v 0.03023474 0.02058325 -0.00298385
v 0.00806272 0.03803130 0.07831625
v -0.02516044 0.03803034 0.06898658
v 0.00871060 0.03595456 -0.00299193
v 0.03230457 0.03854905 0.02487443
v -0.01017705 0.03802271 0.07800484
v -0.03656954 -0.00818755 0.02770464
v -0.03656428 -0.00822927 0.02770464
v -0.03657481 -0.00818755 0.02877236
v 0.01721078 -0.00818755 0.02770464
v -0.03650636 -0.00856247 0.02770464
v -0.03653795 -0.00839750 0.02877236
v 0.01721078 -0.00818755 0.02877236
v 0.01721078 -0.00870167 0.02770464
v -0.03646951 -0.00870167 0.02770464
v -0.03650636 -0.00856247 0.02877236
v 0.01721078 -0.00870167 0.02877236
v -0.03646951 -0.00870167 0.02877236
f 1 2 3
f 2 1 5
f 2 5 6
f 2 6 17
f 2 17 25
f 2 25 16
f 3 7 8
f 3 8 9
f 3 9 1
f 1 9 4
f 1 4 5
f 8 10 9
f 9 11 4
f 6 5 4
f 6 4 12
f 3 2 13
f 2 16 13
f 3 13 7
f 4 11 12
f 7 13 16
f 9 10 14
f 9 15 11
f 6 12 18
f 6 18 17
f 17 18 21
f 16 22 19
f 16 19 7
f 7 19 8
f 8 20 10
f 14 23 9
f 12 11 18
f 16 25 22
f 22 26 19
f 9 27 15
f 15 27 24
f 24 11 15
f 17 21 25
f 19 20 8
f 10 20 23
f 10 23 14
f 23 27 9
f 25 21 26
f 25 26 22
f 26 23 19
f 11 24 18
f 21 18 23
f 21 23 26
f 18 24 23
f 19 23 20
f 23 24 27
f 28 29 30
f 28 30 34
f 28 34 31
f 28 31 35
f 28 35 36
f 28 36 32
f 28 32 29
f 29 32 30
f 30 32 33
f 30 33 37
f 30 37 39
f 30 39 38
f 30 38 34
f 31 34 38
f 31 38 35
f 32 36 39
f 32 39 37
f 32 37 33
f 35 38 39
f 35 39 36

