# https://github.com/mikedh/trimesh
v 0.02977490 0.13774328 -0.01547705
v 0.03087479 0.12094330 0.00000024
v 0.02826111 0.13774328 0.01790668
v 0.02746120 0.11844169 0.02010560
v 0.01271392 0.05610117 -0.02531693
v 0.01743784 0.08228719 -0.03056828
v 0.01579266 0.13774328 -0.03616383
v 0.01285344 0.05610117 0.02477786
v 0.01497880 0.05610117 0.00000954
v 0.01868073 0.08592871 0.02979664
v 0.00679420 0.07389120 -0.03850810
v 0.01454163 0.09356942 -0.03622430
v 0.01791337 0.13774328 0.03422470
v 0.01172565 0.08739731 0.03820624
v 0.00178717 0.07333573 0.04050516
v -0.01073941 0.05610117 -0.02731236
v -0.00721420 0.07721902 -0.04418156
v 0.00587453 0.09052083 -0.04201869
v -0.00479120 0.05610117 0.02711747
v -0.00216299 0.08945535 0.04490880
v 0.00556119 0.13774328 0.04261570
v -0.04669606 0.05610117 -0.02369827
v -0.01947336 0.07529885 -0.04309896
v -0.01642718 0.07279724 0.04221801
v 0.00264987 0.13774328 -0.04405248
v -0.04590777 0.05610117 0.02425226
v -0.02172778 0.09828393 -0.04670025
v -0.00818154 0.09512594 -0.04674793
v -0.01752997 0.08674044 0.04632920
v -0.01326705 0.09576333 0.04713679
v -0.03086518 0.08341112 -0.04202683
v -0.01138818 0.13774328 0.04714842
v -0.03439155 0.08724246 0.04116681
v -0.04991665 0.05610117 -0.02087492
v -0.04940740 0.10311682 -0.03190147
v -0.03794583 0.10053478 -0.04083144
v -0.04899117 0.05610117 0.02188938
v -0.02771435 0.13774328 0.04572278
v -0.01876414 0.13774328 -0.04711538
v -0.04887723 0.10177859 0.03193625
v -0.05376741 0.05610117 0.00000954
v -0.03664596 0.10152383 0.04195637
v -0.05940983 0.11500297 -0.01503169
v -0.03570885 0.13774328 -0.04244080
v -0.04566594 0.13774328 0.03616431
v -0.05183738 0.05610117 0.01615430
v -0.05646363 0.10137398 0.02038933
v -0.06053646 0.10234605 0.00000256
v -0.05024452 0.13774328 -0.03113342
v -0.06049692 0.11630773 0.01111691
v -0.06148287 0.13774328 -0.00634185
v -0.05844947 0.13774328 0.01816134
v 0.04207122 0.01408662 -0.01206130
v 0.04300829 0.01267524 -0.00536006
v -0.04698685 0.01408662 -0.01206130
v 0.01380583 0.01267524 -0.00536006
v 0.04003038 0.01408089 -0.02581210
v -0.04466219 -0.00088781 -0.02117764
v -0.04723914 0.01266950 -0.00635380
v 0.04449500 0.00548063 -0.00536006
v 0.04314345 0.00518803 -0.02464671
v -0.03246221 0.00377664 -0.00536207
v -0.01525248 -0.04176628 -0.00536006
v -0.03837298 0.01408089 -0.02586731
v -0.04270695 0.01408089 -0.02499402
v -0.04514874 0.01408089 -0.02203085
v -0.03246221 -0.03044653 -0.00536207
v -0.02321761 -0.03791654 -0.00635380
v -0.01735189 -0.03935087 -0.02526705
v 0.04251723 -0.00445069 -0.02575789
v -0.00720626 -0.04180645 -0.02586731
v -0.04338272 0.00113460 -0.02539653
v -0.04295698 -0.00916678 -0.02141002
v -0.04500458 -0.00488529 -0.00635581
v -0.04202216 -0.01527703 -0.00635581
v -0.03890459 -0.02172005 -0.00635581
v -0.03023215 -0.03126410 -0.02155506
v -0.01178350 -0.04197856 -0.02025717
v -0.02408710 -0.03590847 -0.02338646
v -0.00598085 -0.04410138 -0.00536006
v 0.04344079 -0.00263196 -0.02371018
v -0.04002187 -0.01431890 -0.02582615
v -0.04283760 -0.00679152 -0.02502212
v -0.03924586 -0.01867138 -0.02153499
v 0.03822381 -0.01971199 -0.02570670
v 0.00773737 -0.04189179 -0.02572728
v -0.03558766 -0.02392462 -0.02520105
v -0.02540487 -0.03434792 -0.02550494
v 0.04460312 -0.00417530 -0.00536006
v 0.04123326 -0.01405498 -0.02371018
v 0.02833047 -0.03217347 -0.02569667
v 0.02377575 -0.03627136 -0.02432600
v 0.00238524 -0.04319417 -0.02387079
v 0.04305673 -0.01215306 -0.00536006
v 0.03920594 -0.01927595 -0.02277365
v 0.01134826 -0.04197140 -0.02384670
v 0.01679951 -0.04014119 -0.02384770
v 0.00757969 -0.04393787 -0.00536006
v 0.03757507 -0.02443955 -0.00536006
v 0.03520310 -0.02566304 -0.02371018
v 0.03021814 -0.03131287 -0.02371018
v 0.01377879 -0.04254656 -0.00536006
v 0.02524444 -0.03689529 -0.00536006
v 0.03336725 -0.02979248 -0.00536006
v 0.04281909 0.01407054 -0.00135507
v 0.04254843 0.00880369 0.02323860
v -0.04563870 0.01408063 0.02026986
v 0.03964400 0.01407630 0.02586750
v 0.04300104 0.01265759 -0.00535755
v 0.01379752 0.01267489 -0.00635107
v -0.04768454 0.01407054 -0.00135507
v -0.04425358 0.00145201 0.02346628
v -0.03836852 0.01408207 0.02586750
v 0.04435205 0.00821688 0.00000433
v 0.04463237 0.00257480 -0.00535755
v 0.01379752 -0.04176701 -0.00635107
v -0.04722966 0.01265759 -0.00635107
v -0.04611064 -0.00144886 0.00000433
v 0.01385324 -0.04035983 0.02572359
v -0.03986168 -0.01424978 0.02575080
v -0.00983368 -0.04140945 0.02575238
v 0.04503437 -0.00204288 0.00000433
v 0.04370156 -0.00978816 -0.00535755
v 0.03970655 -0.02034205 -0.00535755
v 0.03049857 -0.03249488 -0.00535755
v 0.00858001 -0.04366008 -0.00535755
v -0.01504210 -0.04176701 -0.00635107
v 0.04254388 -0.00780859 0.02471193
v 0.00200694 -0.04316699 0.02441703
v 0.02927721 -0.03174515 0.02470996
v 0.03655079 -0.02247013 0.02570664
v 0.04171827 -0.01716147 0.00000433
v 0.03824296 -0.02409070 0.00000433
v 0.03344394 -0.03021829 0.00000433
v 0.02543117 -0.03716050 0.00000433
v 0.01424331 -0.04268976 0.00000433
v 0.00968537 -0.04390086 0.00000433
v -0.00002184 -0.04483514 0.00000433
v -0.01675701 -0.04150028 0.00000433
v -0.04335405 0.01408207 0.02463742
v -0.03953075 -0.01698124 0.02523275
v -0.03552323 -0.02432787 0.02430191
v -0.02858512 -0.03197583 0.02524142
v -0.02123704 -0.03765684 0.02333125
v 0.01680658 -0.04014212 0.02384733
v 0.02420071 -0.03602654 0.02424632
v 0.04007614 -0.01683706 0.02370855
v -0.00790725 -0.04401476 0.00000433
v -0.00886705 -0.04264794 0.01966034
v -0.02418071 -0.03705165 -0.00635107
v -0.04250683 -0.01317060 -0.00635107
v -0.04190752 -0.01271211 0.02148338
v -0.02783797 -0.03492284 0.00000827
v -0.04102959 -0.01831490 0.00000433
v -0.03575749 -0.02709538 0.00000433
v -0.03535265 -0.02699734 -0.00635107
v -0.03031960 0.04331012 -0.02587108
v -0.03093970 0.02676550 -0.02586095
v -0.03691040 0.02676550 -0.02567862
v -0.05175740 0.04331207 0.00000030
v 0.03283333 0.02676550 -0.02586095
v 0.02091409 0.04331012 -0.02521265
v -0.04599045 0.02345268 -0.02067959
v -0.04025451 0.04331012 -0.02531901
v -0.04503816 0.04331012 -0.02383247
v -0.04792163 0.04331012 -0.02127724
v -0.04928585 0.04331012 -0.01852195
v -0.05051720 0.04331012 -0.01325701
v 0.01944799 0.04331012 -0.02565836
v 0.03395394 0.02676550 -0.02572420
v 0.03718289 0.02345268 -0.02067959
v 0.02357609 0.04331207 0.00000030
v 0.02168035 0.04331012 -0.02309047
v -0.04401499 0.02676550 -0.02370078
v -0.04110051 0.02676550 -0.02512148
v -0.04728381 0.02345268 -0.01623263
v -0.04821396 0.02345268 -0.00879232
v -0.05093355 0.04331207 0.01025160
v -0.04878091 0.02345268 0.00000030
v -0.04820510 0.02345657 0.00876760
v 0.02962319 0.03313280 -0.02522151
v 0.03874201 0.02345268 0.00000030
v 0.02168035 0.04331207 0.02308093
v 0.02677405 0.03968819 0.00000030
v 0.03046365 0.03288176 -0.02277644
v -0.04728381 0.02345657 0.01631932
v 0.03454304 0.02744206 -0.02276631
v 0.03692600 0.02345657 0.02371911
v 0.03181238 0.03062802 0.02490935
v 0.03049466 0.03284482 0.02277197
v -0.05017171 0.04331207 0.01515947
v -0.04386439 0.02345657 0.02371911
v -0.04608347 0.02345657 0.02048265
v 0.03499483 0.02950090 0.00000030
v 0.03454304 0.02744206 0.02276184
v 0.02101596 0.04331207 0.02526389
v 0.02928989 0.03242683 0.02584129
v -0.03280886 0.02484663 0.02586155
v -0.04099421 0.02484663 0.02516259
v -0.04608790 0.04331207 0.02323288
v -0.04802793 0.04331207 0.02110563
v -0.04931243 0.04331207 0.01839086
v 0.03543776 0.02484663 0.02553740
v 0.03413554 0.02484663 0.02586155
v -0.03032846 0.04331207 0.02587168
v -0.03970971 0.04331207 0.02544623
v -0.04397956 0.04331207 0.02442819
v 0.01953215 0.04331207 0.02564882
v -0.01074249 0.05610909 -0.02732886
v -0.03171750 0.04330685 -0.02583883
v -0.00356274 0.05610909 -0.02723790
v 0.00599985 0.04330685 -0.02582479
v -0.03872496 0.04330685 -0.02553521
v -0.03821942 0.05610909 -0.02587896
v 0.01944579 0.04330685 -0.02565960
v 0.00264002 0.05610909 -0.02683664
v -0.04194940 0.04330685 -0.02504701
v -0.04531965 0.05610909 -0.02450664
v 0.02072572 0.04330685 -0.02541483
v 0.01247052 0.05610909 -0.02548706
v -0.04399048 0.04330685 -0.02442906
v -0.04808022 0.05610909 -0.02291496
v -0.04991302 0.05610909 -0.02089259
v -0.04791360 0.04330685 -0.02127781
v 0.01311428 0.05610909 -0.02422575
v 0.02166484 0.04330685 -0.02308617
v -0.05133685 0.05610909 -0.01804095
v -0.04936015 0.04330685 -0.01824158
v -0.05233656 0.05610909 -0.01449913
v 0.01496980 0.05610909 -0.00000015
v 0.02359611 0.04330685 -0.00000015
v -0.05300304 0.05610909 -0.01016014
v -0.05017053 0.04330685 -0.01536051
v -0.05086729 0.04330685 -0.01103222
v 0.01311428 0.05610909 0.02422010
v 0.02167242 0.04330685 0.02308586
v -0.05173826 0.04330685 -0.00000015
v -0.05377555 0.05610909 0.00000520
v 0.01246106 0.05610909 0.02547605
v 0.02124262 0.04330685 0.02487416
v -0.05097711 0.04330685 0.00977462
v -0.05300304 0.05610909 0.00991373
v 0.02005167 0.04330685 0.02555765
v -0.05017053 0.04330685 0.01515155
v -0.05233656 0.05610909 0.01430622
v -0.05133685 0.05610909 0.01804065
v -0.04931471 0.04330685 0.01837771
v -0.04991302 0.05610909 0.02089229
v 0.00264002 0.05610909 0.02684169
v -0.00356274 0.05610909 0.02723760
v -0.04609594 0.04330685 0.02323032
v -0.04805749 0.05610909 0.02292803
v -0.01074249 0.05610909 0.02732855
v 0.01096338 0.04330685 0.02578904
v -0.03696978 0.04330685 0.02569140
v -0.03088441 0.04330685 0.02585993
v -0.03821942 0.05610909 0.02588936
v -0.04312710 0.04330685 0.02469627
v -0.04589524 0.05610909 0.02427628
v -0.04217661 0.05610909 0.02530886
v 0.03964199 0.01407856 -0.02587072
v -0.03497953 0.02121477 -0.02586565
v 0.03642717 0.02121477 -0.02586565
v 0.04043002 0.01407856 -0.02575423
v -0.03837346 0.01407856 -0.02586565
v -0.04392552 0.02484294 0.02372829
v 0.03605106 0.02484294 0.02372829
v 0.03729580 0.02121477 -0.02575929
v -0.04119426 0.02121477 -0.02523256
v -0.04836717 0.02345090 0.00646765
v -0.04728362 0.02345090 0.01617423
v -0.04651349 0.02345090 0.01939793
v -0.04560009 0.02345090 0.02163655
v -0.04428819 0.01407856 0.02359660
v -0.04272108 0.01407856 0.02499447
v -0.04317330 0.02484294 0.02432086
v 0.03825397 0.02344563 0.00646765
v 0.03976736 0.01763823 -0.02464505
v -0.04208080 0.01407856 -0.02535411
v -0.04310167 0.02121477 -0.02442220
v -0.04547473 0.02121477 -0.02173282
v -0.04705975 0.02121477 -0.01640472
v -0.04792838 0.02121477 -0.00943057
v -0.04855522 0.02121477 -0.00000002
v -0.04696124 0.01407856 0.01217055
v -0.04646872 0.01407856 0.01668323
v -0.04570308 0.01407856 0.02043874
v -0.04100621 0.02484294 0.02517174
v 0.03687491 0.02332655 0.02464501
v 0.03871067 0.02038966 0.02277105
v 0.03993750 0.02121477 -0.00000002
v 0.03827188 0.02121477 -0.02277110
v 0.04130761 0.01407856 -0.02277616
v -0.04382702 0.01407856 -0.02411705
v -0.04569860 0.01407856 -0.02047170
v -0.04645977 0.01407856 -0.01669341
v -0.04703289 0.01407856 -0.01153244
v -0.04775823 0.01407856 -0.00000002
v -0.04007490 0.01407856 0.02577444
v -0.03816750 0.02484294 0.02562250
v 0.03647194 0.02310842 0.02568834
v 0.03975840 0.01763823 0.02463994
v 0.04094046 0.01920415 -0.00000002
v 0.04237324 0.01574248 -0.00000002
v 0.03416156 0.02484294 0.02586054
v 0.04042107 0.01407856 0.02575418
v 0.04035838 0.01673251 0.02276598
v 0.04292845 0.01407856 -0.00000002
v 0.03964199 0.01407856 0.02585548
v 0.04116880 0.01407856 0.02370043
v -0.03283930 0.02484294 0.02586054
v -0.03836450 0.01407856 0.02587067
v -0.04698535 0.01408193 -0.01205609
v -0.04693191 0.01342553 -0.01205609
v -0.04704770 0.01408193 -0.01154091
v 0.04210542 0.01408193 -0.01205609
v -0.04625503 0.01268357 -0.01205609
v -0.04686957 0.01268357 -0.01204666
v -0.04690520 0.01268357 -0.01176499
v -0.04768896 0.01408193 -0.00135873
v 0.04283575 0.01408193 -0.00135873
v 0.04249730 0.01290781 -0.01205609
v 0.04255964 0.01268357 -0.01205609
v -0.04755537 0.01268357 -0.00135873
v 0.04328106 0.01274504 -0.00135873
v 0.04255074 0.01271766 -0.01205609
v 0.04329888 0.01268357 -0.00135873
v 0.03642431 0.02121501 -0.02587066
v 0.03284437 0.02676345 -0.02586750
v 0.03512093 0.02345372 -0.02586750
v 0.03566835 0.02265589 -0.02586750
v 0.03635480 0.02304367 -0.02575986
v 0.03703255 0.02121501 -0.02579469
v -0.03497462 0.02121501 -0.02586750
v -0.03352352 0.02345372 -0.02586750
v -0.03279363 0.02445576 -0.02586750
v -0.03094284 0.02676345 -0.02586750
v 0.03354820 0.02676345 -0.02584217
v 0.03473861 0.02445576 -0.02585800
v 0.03525996 0.02345372 -0.02586433
v 0.03674581 0.02325168 -0.02525336
v 0.03730192 0.02121501 -0.02575986
v 0.03607674 0.02345372 -0.02576620
v 0.03551195 0.02445576 -0.02572188
v -0.03635619 0.02121501 -0.02584217
v -0.03634750 0.02124217 -0.02584217
v -0.03493117 0.02345372 -0.02584851
v -0.03311513 0.02676345 -0.02585167
v -0.03248951 0.02676345 -0.02585800
v 0.03378280 0.02676345 -0.02581368
v 0.03412168 0.02676345 -0.02565857
v 0.03446056 0.02676345 -0.02525336
v 0.03459958 0.02676345 -0.02484816
v 0.03680663 0.02345372 -0.02464556
v 0.03687615 0.02332935 -0.02464556
v 0.03795361 0.02121501 -0.02464556
v 0.03784933 0.02121501 -0.02501594
v 0.03784065 0.02121501 -0.02503493
v 0.03760604 0.02121501 -0.02543064
v -0.03686885 0.02121501 -0.02581685
v -0.03540907 0.02676345 -0.02579469
v -0.03432293 0.02676345 -0.02582318
v 0.03466041 0.02676345 -0.02464556
v 0.03681532 0.02345372 -0.02459174
v 0.03582476 0.02549039 -0.02277466
v 0.03688484 0.02345372 -0.02409157
v 0.03826642 0.02121501 -0.02277466
v -0.03815485 0.02121501 -0.02572504
v -0.03842422 0.02676345 -0.02557942
v 0.03499060 0.02676345 -0.02277466
v 0.03513831 0.02676345 -0.02085312
v 0.03598985 0.02546106 -0.02085312
v 0.03660678 0.02445576 -0.02085312
v 0.03718027 0.02345318 -0.02129314
v 0.03710206 0.02345372 -0.02222384
v 0.03704993 0.02345372 -0.02277466
v 0.03826642 0.02129974 -0.02222384
v 0.03837938 0.02121501 -0.02129631
v -0.03854586 0.02121501 -0.02569655
v -0.03903246 0.02121501 -0.02563324
v -0.03912804 0.02121501 -0.02562058
v -0.04110048 0.02676345 -0.02512990
v 0.03618970 0.02345318 0.00646955
v 0.03826642 0.02344775 0.00646955
v 0.03874432 0.02345318 -0.00000419
v -0.04623578 0.02676345 -0.02085312
v 0.03996080 0.02121501 -0.00000419
v -0.04119606 0.02121501 -0.02523437
v -0.04330753 0.02676345 -0.02426251
v -0.04838201 0.02345318 0.00646955
v 0.03948290 0.02121501 0.00646955
v -0.04596642 0.02676345 -0.02150841
v -0.04547982 0.02121501 -0.02173633
v -0.04604462 0.02121501 -0.02032762
v -0.04656597 0.02345318 -0.01931462
v -0.04673106 0.02345318 -0.01866249
v -0.04727848 0.02345318 -0.01635474
v -0.04729586 0.02345318 -0.01623761
v -0.04821691 0.02345318 -0.00880784
v -0.04880777 0.02345318 -0.00000102
v -0.04309899 0.02121501 -0.02443030
v -0.04407218 0.02676345 -0.02368004
v -0.04813002 0.02121501 0.00646955
v -0.04542769 0.02676345 -0.02225550
v -0.04437630 0.02121501 -0.02335714
v -0.04505405 0.02121501 -0.02239162
v -0.04614889 0.02121501 -0.02003322
v -0.04635743 0.02121501 -0.01942541
v -0.04681796 0.02121501 -0.01755452
v -0.04654859 0.02121501 -0.01866249
v -0.04706125 0.02121501 -0.01640539
v -0.04791279 0.02121501 -0.00953594
v -0.04793017 0.02121501 -0.00934284
v -0.04854710 0.02121501 -0.00010232
v -0.04854710 0.02121501 -0.00000102
v -0.04819084 0.02121501 0.00554202
v -0.04385495 0.02121501 -0.02381616
v -0.04474125 0.02676345 -0.02315454
f 1 7 25
f 1 25 39
f 1 39 44
f 1 44 49
f 1 49 51
f 1 51 52
f 1 52 45
f 1 45 38
f 1 38 32
f 1 32 21
f 1 21 13
f 1 13 3
f 1 3 2
f 3 4 2
f 2 6 1
f 4 8 2
f 2 8 9
f 2 9 5
f 5 9 8
f 5 8 19
f 5 19 26
f 5 26 37
f 5 37 46
f 5 46 41
f 5 41 34
f 5 34 22
f 5 22 16
f 5 6 2
f 8 4 10
f 5 11 6
f 4 3 13
f 8 10 14
f 1 6 12
f 1 12 7
f 10 4 13
f 12 6 11
f 10 13 14
f 5 16 17
f 5 17 11
f 12 11 18
f 14 15 8
f 8 15 19
f 11 17 18
f 14 20 15
f 16 23 17
f 18 7 12
f 14 21 20
f 15 24 19
f 15 20 24
f 21 14 13
f 22 23 16
f 19 24 26
f 23 27 17
f 7 18 25
f 20 29 24
f 17 27 28
f 28 18 17
f 20 30 29
f 22 31 23
f 18 28 25
f 21 32 20
f 20 32 30
f 24 29 26
f 22 34 35
f 22 35 36
f 22 36 31
f 26 33 37
f 30 38 29
f 36 27 31
f 23 31 27
f 27 39 28
f 37 33 40
f 26 29 33
f 29 38 33
f 33 42 40
f 32 38 30
f 38 42 33
f 34 43 35
f 27 36 44
f 27 44 39
f 28 39 25
f 34 41 48
f 36 35 49
f 42 45 40
f 37 40 47
f 43 34 48
f 35 43 49
f 49 44 36
f 37 47 46
f 45 42 38
f 47 50 46
f 48 41 46
f 40 52 47
f 43 51 49
f 45 52 40
f 46 50 48
f 47 52 50
f 50 51 48
f 43 48 51
f 50 52 51
f 53 55 56
f 53 56 54
f 54 56 63
f 54 63 80
f 54 80 98
f 54 98 102
f 54 102 103
f 54 103 104
f 54 104 99
f 54 99 94
f 54 94 89
f 54 89 60
f 53 57 55
f 55 59 56
f 54 61 53
f 56 59 62
f 56 62 63
f 53 61 57
f 57 70 85
f 57 85 71
f 55 57 64
f 55 64 65
f 55 65 66
f 55 66 58
f 58 59 55
f 59 67 62
f 60 61 54
f 62 67 63
f 63 67 68
f 57 61 70
f 57 71 64
f 65 72 66
f 67 59 74
f 67 74 75
f 67 75 76
f 63 68 69
f 69 78 63
f 69 68 79
f 63 78 80
f 61 81 70
f 64 82 72
f 64 72 65
f 72 58 66
f 58 73 74
f 58 72 83
f 58 83 73
f 74 59 58
f 74 73 75
f 75 84 76
f 67 76 77
f 68 67 79
f 67 77 79
f 78 69 71
f 78 71 80
f 61 60 81
f 64 71 82
f 73 83 82
f 76 84 77
f 77 84 87
f 79 77 88
f 60 89 81
f 81 90 85
f 81 85 70
f 71 91 86
f 86 91 92
f 71 86 93
f 71 88 82
f 82 83 72
f 82 84 73
f 73 84 75
f 87 88 77
f 79 88 69
f 69 88 71
f 71 93 80
f 81 89 94
f 81 94 90
f 90 95 85
f 86 96 93
f 71 85 91
f 86 92 97
f 86 97 96
f 82 88 87
f 87 84 82
f 85 95 100
f 96 98 93
f 91 101 92
f 93 98 80
f 90 94 95
f 95 94 99
f 95 99 100
f 85 100 91
f 96 102 98
f 91 100 101
f 97 102 96
f 92 103 97
f 99 104 100
f 100 104 101
f 101 104 103
f 101 103 92
f 97 103 102
f 105 111 107
f 105 107 140
f 105 140 113
f 105 113 108
f 105 108 106
f 105 109 110
f 105 110 117
f 105 117 111
f 105 106 114
f 109 105 114
f 110 109 115
f 110 115 116
f 110 116 127
f 110 127 150
f 110 150 156
f 110 156 151
f 110 151 117
f 111 117 118
f 107 111 112
f 108 113 119
f 113 120 121
f 113 121 119
f 114 115 109
f 115 114 122
f 116 115 123
f 116 123 124
f 116 124 125
f 116 126 127
f 119 128 108
f 108 128 106
f 106 128 122
f 121 129 119
f 119 130 131
f 119 131 128
f 115 122 123
f 123 132 124
f 124 132 133
f 124 133 125
f 125 133 134
f 125 134 135
f 125 135 116
f 116 136 126
f 116 135 136
f 126 136 137
f 126 137 138
f 126 138 127
f 111 118 112
f 113 140 120
f 120 142 143
f 120 144 121
f 120 143 144
f 119 146 130
f 119 145 146
f 128 131 147
f 114 106 122
f 123 122 128
f 123 128 147
f 123 147 132
f 133 132 147
f 135 146 145
f 135 145 136
f 138 148 127
f 127 148 139
f 139 148 149
f 127 139 150
f 117 151 118
f 118 152 112
f 112 152 120
f 120 141 142
f 129 121 149
f 129 137 145
f 129 145 119
f 133 147 131
f 130 134 133
f 135 134 130
f 137 136 145
f 112 140 107
f 112 120 140
f 120 152 141
f 144 139 121
f 121 139 149
f 129 149 138
f 137 129 138
f 130 133 131
f 130 146 135
f 138 149 148
f 139 144 153
f 153 150 139
f 118 154 152
f 118 151 154
f 141 154 142
f 142 154 155
f 142 153 143
f 144 143 153
f 142 155 153
f 152 154 141
f 155 154 156
f 153 155 156
f 154 151 156
f 150 153 156
f 157 161 158
f 157 158 159
f 157 160 162
f 158 161 171
f 158 171 163
f 158 163 159
f 157 159 164
f 157 164 160
f 160 164 165
f 160 165 166
f 160 166 167
f 160 167 168
f 160 178 191
f 160 191 202
f 160 202 201
f 160 201 200
f 160 200 207
f 160 207 206
f 160 206 205
f 160 205 208
f 160 208 196
f 160 196 183
f 160 183 172
f 160 172 162
f 157 162 169
f 161 170 171
f 162 172 173
f 163 174 175
f 163 175 159
f 163 171 182
f 163 182 179
f 163 179 177
f 163 177 176
f 164 159 175
f 164 175 165
f 165 175 174
f 165 174 166
f 166 174 163
f 166 163 167
f 167 163 168
f 168 163 176
f 168 176 177
f 168 177 160
f 160 177 179
f 160 179 180
f 160 180 178
f 169 161 157
f 161 169 170
f 170 169 181
f 173 172 184
f 173 184 185
f 173 185 181
f 173 181 162
f 180 186 178
f 180 179 186
f 169 162 181
f 170 187 171
f 172 183 184
f 183 189 190
f 183 190 184
f 178 186 191
f 179 192 193
f 179 193 186
f 179 182 188
f 179 188 192
f 186 193 191
f 170 181 187
f 187 181 185
f 187 194 182
f 171 187 182
f 183 196 189
f 189 196 197
f 190 194 184
f 190 195 194
f 184 194 185
f 192 198 199
f 192 188 204
f 192 204 198
f 192 200 201
f 192 201 193
f 193 201 202
f 193 202 191
f 187 185 194
f 182 194 195
f 188 203 204
f 182 195 188
f 190 189 195
f 198 204 205
f 198 206 199
f 198 205 206
f 199 206 207
f 199 207 192
f 192 207 200
f 195 189 188
f 188 189 203
f 203 189 197
f 203 197 204
f 205 204 197
f 197 208 205
f 196 208 197
f 209 214 218
f 209 218 222
f 209 222 223
f 209 223 227
f 209 227 229
f 209 229 232
f 209 232 238
f 209 238 242
f 209 242 245
f 209 245 246
f 209 246 248
f 209 248 252
f 209 252 259
f 209 259 260
f 209 260 257
f 209 257 253
f 209 253 250
f 209 250 249
f 209 249 239
f 209 239 235
f 209 235 230
f 209 230 225
f 209 225 220
f 209 220 216
f 209 216 211
f 209 211 212
f 209 212 210
f 210 212 215
f 210 215 219
f 210 219 226
f 210 226 231
f 210 231 236
f 210 236 240
f 210 240 243
f 210 243 254
f 210 254 256
f 210 256 255
f 210 255 258
f 210 258 251
f 210 251 247
f 210 247 244
f 210 244 241
f 210 241 237
f 210 237 234
f 210 234 233
f 210 233 228
f 210 228 224
f 210 224 221
f 210 221 217
f 210 217 213
f 210 213 209
f 209 213 214
f 211 215 212
f 211 216 215
f 213 217 214
f 214 217 218
f 215 216 220
f 215 220 219
f 217 221 218
f 218 221 222
f 222 221 224
f 222 224 223
f 220 225 226
f 220 226 219
f 223 224 227
f 224 228 227
f 227 228 229
f 225 230 231
f 225 231 226
f 229 228 233
f 229 233 234
f 229 234 232
f 230 235 231
f 231 235 236
f 232 234 237
f 232 237 238
f 235 239 240
f 235 240 236
f 237 242 238
f 237 241 242
f 239 243 240
f 242 241 244
f 242 244 245
f 245 244 247
f 245 247 246
f 246 247 248
f 239 249 243
f 243 249 250
f 247 251 248
f 248 251 252
f 250 253 254
f 250 254 243
f 253 255 256
f 253 256 254
f 253 257 255
f 251 258 259
f 251 259 252
f 257 260 255
f 255 260 258
f 259 258 260
f 261 262 263
f 261 263 264
f 261 264 293
f 261 293 308
f 261 308 310
f 261 310 306
f 261 306 309
f 261 309 312
f 261 312 299
f 261 299 275
f 261 275 274
f 261 274 287
f 261 287 286
f 261 286 285
f 261 285 298
f 261 298 297
f 261 297 296
f 261 296 295
f 261 295 294
f 261 294 279
f 261 279 265
f 261 265 262
f 262 266 267
f 262 267 263
f 263 267 268
f 264 263 268
f 266 262 269
f 266 269 270
f 266 270 271
f 266 271 272
f 266 272 273
f 266 274 275
f 266 275 276
f 266 276 288
f 266 288 300
f 266 300 311
f 266 311 305
f 266 305 267
f 267 277 268
f 268 278 264
f 265 269 262
f 269 265 279
f 269 279 280
f 269 280 270
f 270 281 282
f 270 282 283
f 270 283 284
f 270 280 281
f 270 285 286
f 270 286 271
f 271 286 287
f 271 287 272
f 273 272 287
f 273 287 274
f 273 274 266
f 276 275 288
f 267 289 277
f 277 289 290
f 277 290 291
f 277 292 268
f 277 291 292
f 268 292 278
f 278 293 264
f 279 294 280
f 281 280 294
f 281 294 295
f 281 295 282
f 282 295 296
f 282 296 283
f 283 296 297
f 283 297 284
f 284 298 270
f 270 298 285
f 275 299 288
f 288 299 300
f 289 267 301
f 289 301 302
f 291 303 292
f 291 290 303
f 278 304 293
f 292 303 278
f 284 297 298
f 267 305 301
f 301 305 306
f 301 306 302
f 302 290 289
f 290 302 307
f 290 307 303
f 303 304 278
f 293 304 308
f 305 309 306
f 306 310 302
f 302 310 307
f 307 304 303
f 304 310 308
f 304 307 310
f 305 311 312
f 305 312 309
f 299 312 300
f 300 312 311
f 313 314 315
f 313 315 320
f 313 320 321
f 313 321 316
f 313 316 322
f 313 322 326
f 313 326 323
f 313 323 317
f 313 317 314
f 314 317 318
f 314 318 319
f 314 319 315
f 315 319 320
f 316 321 322
f 317 323 327
f 317 327 324
f 317 324 319
f 317 319 318
f 319 324 320
f 320 324 327
f 320 327 325
f 320 325 321
f 321 325 322
f 322 325 327
f 322 327 326
f 323 326 327
f 328 329 330
f 328 330 331
f 328 331 332
f 328 332 333
f 328 333 342
f 328 342 359
f 328 359 358
f 328 358 357
f 328 357 356
f 328 356 367
f 328 367 378
f 328 378 387
f 328 387 391
f 328 391 403
f 328 403 416
f 328 416 415
f 328 415 414
f 328 414 413
f 328 413 412
f 328 412 411
f 328 411 409
f 328 409 410
f 328 410 408
f 328 408 407
f 328 407 394
f 328 394 393
f 328 393 406
f 328 406 405
f 328 405 417
f 328 417 401
f 328 401 388
f 328 388 381
f 328 381 380
f 328 380 379
f 328 379 368
f 328 368 360
f 328 360 345
f 328 345 334
f 328 334 335
f 328 335 336
f 328 336 337
f 328 337 329
f 329 338 339
f 329 339 340
f 329 340 330
f 329 337 349
f 329 349 348
f 329 348 362
f 329 362 361
f 329 361 369
f 329 369 382
f 329 382 389
f 329 389 402
f 329 402 418
f 329 418 404
f 329 404 392
f 329 392 386
f 329 386 371
f 329 371 370
f 329 370 363
f 329 363 353
f 329 353 352
f 329 352 351
f 329 351 350
f 329 350 338
f 330 340 331
f 331 340 332
f 332 341 342
f 332 342 333
f 332 340 343
f 332 343 344
f 332 344 341
f 334 345 346
f 334 346 347
f 334 347 348
f 334 348 349
f 334 349 335
f 335 349 336
f 336 349 337
f 338 350 343
f 338 343 339
f 339 343 340
f 341 344 351
f 341 351 352
f 341 352 353
f 341 353 354
f 341 354 355
f 341 355 356
f 341 356 357
f 341 357 358
f 341 358 359
f 341 359 342
f 343 350 344
f 344 350 351
f 345 360 346
f 346 360 361
f 346 361 362
f 346 362 348
f 346 348 347
f 353 363 354
f 354 364 355
f 354 363 365
f 354 365 364
f 355 364 366
f 355 366 367
f 355 367 356
f 360 368 361
f 361 368 369
f 363 370 365
f 364 365 366
f 365 370 371
f 365 371 372
f 365 372 373
f 365 373 374
f 365 374 375
f 365 375 376
f 365 376 366
f 366 376 367
f 367 377 378
f 367 376 375
f 367 375 374
f 367 374 377
f 368 379 369
f 369 379 380
f 369 380 381
f 369 381 382
f 371 383 384
f 371 384 385
f 371 385 372
f 371 386 390
f 371 390 383
f 372 385 373
f 373 385 374
f 374 385 387
f 374 387 377
f 377 387 378
f 381 388 382
f 382 388 389
f 383 390 403
f 383 403 391
f 383 391 384
f 384 391 385
f 385 391 387
f 386 392 393
f 386 393 394
f 386 394 395
f 386 395 396
f 386 396 397
f 386 397 398
f 386 398 399
f 386 399 400
f 386 400 390
f 388 401 389
f 389 401 402
f 390 400 403
f 392 404 405
f 392 405 406
f 392 406 393
f 394 407 395
f 395 407 408
f 395 408 396
f 396 409 397
f 396 408 410
f 396 410 409
f 397 411 398
f 397 409 411
f 398 411 399
f 399 411 412
f 399 412 413
f 399 413 400
f 400 414 415
f 400 415 416
f 400 416 403
f 400 413 414
f 401 417 418
f 401 418 402
f 404 418 405
f 405 418 417

