# https://github.com/mikedh/trimesh
v -0.04318188 0.10139861 -0.02507104
v 0.03454592 0.10139861 -0.02507104
v -0.02724219 0.17156307 -0.05231177
v 0.05638216 0.14240286 -0.03252228
v 0.06058519 0.15469548 -0.02718980
v 0.05429348 0.17047158 -0.02586864
v -0.02740256 0.17755032 -0.02640445
v -0.02787341 0.17894463 -0.03566894
v -0.02446391 0.13249288 -0.05382046
v 0.03425084 0.10139861 -0.03747894
v 0.04699079 0.19557062 -0.02720051
v -0.01263679 0.20082578 -0.02717449
v -0.01224517 0.16993581 -0.05620636
v 0.02720217 0.20812015 -0.02722807
v 0.00513755 0.20708457 -0.02652386
v 0.05227151 0.14216194 -0.05235158
v -0.00950120 0.19766842 -0.05232555
v 0.05668046 0.17132014 -0.05177653
v 0.05641809 0.18409662 -0.03769173
v 0.03550046 0.20497878 -0.03769173
v 0.02047168 0.20339212 -0.05477804
v -0.00652213 0.10139861 -0.04580681
v 0.04661295 0.19212875 -0.05195048
v 0.04907947 0.15377970 -0.05633190
v 0.02554200 0.12658285 -0.05574021
v 0.00810636 0.20920631 -0.03775297
v 0.02391775 0.10139861 -0.04379081
v 0.00723743 0.04983523 -0.04818515
v -0.00531354 0.00813932 -0.04762074
v -0.01548735 0.04983523 -0.04604785
v -0.02446445 0.05176197 0.04268881
v 0.04201175 0.05176197 0.02349158
v -0.04142964 0.04983523 -0.02680248
v -0.04930394 0.04983523 0.00100174
v 0.04198285 0.04983523 -0.02375056
v 0.02814729 0.04983523 -0.03935072
v 0.02190130 0.00785090 -0.04289965
v -0.03136418 0.00757671 -0.03642155
v -0.04401568 0.00813058 -0.02029248
v -0.04316149 0.04983523 0.02389774
v 0.03968094 0.00629707 -0.02717795
v -0.03270415 0.00875017 0.03582441
v -0.04676244 0.00754466 0.01058592
v 0.00517149 -0.00103828 -0.02666047
v -0.02448372 -0.00097354 -0.00778004
v -0.01364835 0.00942543 0.04717522
v -0.01101656 -0.00101109 0.02508012
v 0.04803621 0.00629707 -0.00011986
v 0.02574575 -0.00103957 -0.00275088
v 0.00081206 0.00745402 0.04768789
v 0.03098676 0.00809481 0.03640807
v 0.01403362 -0.00095929 0.02403313
v 0.00126233 0.05176197 0.04886486
v 0.02350193 0.05176197 0.04229649
v -0.04700528 0.04986626 0.01600312
v -0.04318144 0.04986626 -0.02310993
v -0.04489239 0.10382828 0.01922923
v -0.04214401 0.10936023 -0.02504849
v -0.02674820 0.18281552 0.02761454
v -0.02530204 0.17009203 0.05296145
v -0.01412792 0.19502307 0.05225687
v -0.03341546 0.04986626 0.03622955
v -0.01831024 0.14747968 0.05607142
v -0.00248703 0.20494087 0.02695448
v -0.02596741 0.04986626 -0.04166684
v -0.02044757 0.10138795 -0.04311472
v -0.01735157 0.05082357 0.04532718
v 0.04229533 0.04986626 0.02282183
v 0.00360822 0.05178087 0.04876428
v 0.04801478 0.14434099 0.05582107
v 0.02602028 0.20219181 0.05271949
v 0.03100375 0.05178087 0.03708318
v 0.05645003 0.15242314 0.05236784
v 0.00436050 0.10138795 -0.04674409
v 0.06084893 0.16170582 0.03022833
v 0.04525690 0.19485536 0.04969017
v 0.02816236 0.20750724 0.02675510
v 0.04207807 0.04986626 -0.02357223
v 0.02327733 0.04986626 -0.04201784
v 0.03394156 0.10138795 -0.03835556
v 0.05181995 0.18974663 0.02705094
f 1 22 27
f 1 27 10
f 1 10 2
f 2 4 5
f 2 5 6
f 1 7 8
f 1 3 9
f 2 10 4
f 1 8 3
f 6 5 11
f 9 3 13
f 6 11 14
f 6 14 15
f 6 15 2
f 1 15 7
f 7 15 12
f 4 10 16
f 5 4 16
f 2 15 1
f 7 12 8
f 3 8 17
f 5 16 18
f 5 19 11
f 11 19 20
f 5 18 19
f 8 12 17
f 17 13 3
f 9 22 1
f 14 11 20
f 19 23 20
f 13 21 24
f 13 24 25
f 13 25 9
f 9 25 22
f 14 26 15
f 10 25 16
f 18 16 24
f 17 21 13
f 14 20 21
f 20 23 21
f 19 18 23
f 14 21 26
f 10 27 25
f 16 25 24
f 26 21 17
f 15 17 12
f 21 18 24
f 18 21 23
f 26 17 15
f 25 27 22
f 28 29 30
f 28 31 32
f 28 30 31
f 31 30 33
f 31 33 34
f 31 53 54
f 31 54 32
f 32 35 36
f 32 36 28
f 30 38 33
f 33 39 34
f 31 34 40
f 35 41 36
f 36 37 28
f 33 38 39
f 34 43 40
f 40 43 42
f 40 42 31
f 28 37 29
f 29 37 44
f 29 44 45
f 34 39 43
f 31 42 46
f 45 38 29
f 29 38 30
f 38 45 39
f 37 49 44
f 39 45 43
f 42 50 46
f 42 47 50
f 43 45 42
f 42 45 47
f 36 41 37
f 45 44 49
f 32 48 35
f 37 41 49
f 45 49 52
f 45 52 47
f 46 53 31
f 51 32 54
f 49 41 48
f 35 48 41
f 49 48 52
f 52 51 50
f 52 50 47
f 32 51 48
f 52 48 51
f 46 50 53
f 51 54 50
f 53 50 54
f 55 56 65
f 55 65 79
f 55 79 78
f 55 78 68
f 55 68 67
f 55 67 62
f 55 58 56
f 55 57 58
f 58 57 59
f 59 57 60
f 55 60 57
f 60 55 62
f 60 61 59
f 59 64 58
f 58 64 66
f 66 65 58
f 58 65 56
f 59 61 64
f 62 67 60
f 60 67 63
f 67 68 69
f 63 70 71
f 63 61 60
f 68 72 69
f 69 70 63
f 69 63 67
f 63 71 61
f 64 74 66
f 68 73 72
f 72 73 70
f 72 70 69
f 68 75 73
f 70 76 71
f 77 74 64
f 68 78 75
f 66 74 65
f 64 71 77
f 71 64 61
f 73 75 76
f 76 70 73
f 65 74 79
f 78 80 75
f 77 80 74
f 80 78 79
f 80 81 75
f 76 75 81
f 76 77 71
f 77 81 80
f 80 79 74
f 81 77 76

