# https://github.com/mikedh/trimesh
v -0.05938929 0.03506886 0.00523302
v -0.05903591 -0.02132943 0.03151250
v -0.05904767 -0.02842939 -0.01618398
v -0.05880082 0.01679963 -0.03526741
v -0.05559621 0.01659702 0.03913201
v -0.04074494 0.10409162 -0.02660040
v -0.05130062 -0.00985625 -0.04716769
v -0.03256518 0.10411435 0.03275011
v -0.05125360 -0.03982021 -0.02714991
v -0.05129180 -0.04435532 0.01732281
v 0.03672260 0.10407269 0.03035583
v 0.02527798 0.10409920 -0.04151316
v -0.04458284 -0.02957371 0.03842328
v 0.00141310 0.10322816 0.04865763
v 0.04774074 0.10387386 -0.00385378
v -0.04290486 0.00681954 0.04965852
v -0.00010325 0.10403103 -0.04874262
v 0.04506399 -0.04220611 -0.02424046
v 0.03819927 0.00371691 0.05006574
v 0.05726825 0.01136317 0.03234412
v 0.05724181 0.01444213 -0.03135953
v 0.04563997 0.00561049 -0.04790854
v 0.03984139 -0.04724480 0.00963127
v 0.04160665 -0.02853543 -0.03936848
v 0.03777757 -0.02775954 0.04011787
v 0.05682451 -0.02032773 -0.02672122
v 0.05670550 -0.02391037 0.02597940
v 0.05289250 0.04333489 0.00026831
v 0.05244333 0.04505505 0.00027335
v 0.05287597 0.04333489 -0.00203000
v 0.05242470 0.04505505 -0.00203000
v 0.05286386 0.04333489 0.00256662
v 0.05234319 0.04505505 -0.00432544
v 0.05238518 0.04505505 0.00333273
v 0.05277660 0.04333489 0.00486350
v 0.05276818 0.04333489 -0.00508866
v 0.05262087 0.04333489 -0.00735962
v 0.05222771 0.04505505 0.00639571
v 0.05257919 0.04333489 0.00793224
v 0.05215082 0.04505505 -0.00738698
v 0.05188350 0.04505505 0.01022479
v 0.05241772 0.04333489 -0.00968529
v 0.05185137 0.04505505 -0.01045140
v 0.05236311 0.04333489 0.01022767
v 0.05214363 0.04333489 -0.01197641
v 0.05079700 0.04505505 0.01022767
v 0.05079700 0.04333489 0.01022767
v 0.05155500 0.04505505 -0.01274971
v 0.05180261 0.04333489 -0.01428192
v 0.05079700 0.04505185 -0.01698921
v 0.05079700 0.04333489 -0.01918960
v 0.05126962 0.04505505 -0.01453537
v 0.05152934 0.04333489 -0.01583717
v 0.05119756 0.04333489 -0.01746514
v 0.04059465 0.04505505 -0.03694294
v 0.04139352 0.04333511 -0.03694294
v 0.04138913 0.04333511 -0.03694681
v 0.04100398 0.04217505 -0.03771024
v 0.03973315 0.04505505 -0.03762578
v 0.03586297 0.04505505 -0.03694294
v 0.03578110 0.04333511 -0.03694294
v 0.04055015 0.04217505 -0.03806468
v 0.03587450 0.04217505 -0.03771024
v 0.03908757 0.04505505 -0.03811203
v 0.03600472 0.04505505 -0.03760668
v 0.03591846 0.04249305 -0.03793425
v 0.03585308 0.04489069 -0.03694294
v 0.03586571 0.04229825 -0.03771024
v 0.03981940 0.04217505 -0.03856061
v 0.03608384 0.04217505 -0.03840832
v 0.03855133 0.04505505 -0.03846259
v 0.03601186 0.04505505 -0.03761747
v 0.03615306 0.04217505 -0.03857557
v 0.03859088 0.04217505 -0.03935006
v 0.03840902 0.04505505 -0.03855507
v 0.03677062 0.04505505 -0.03860408
v 0.03697446 0.04217505 -0.03969980
v 0.03695798 0.04217505 -0.03967764
v 0.03624427 0.04217505 -0.03870875
v 0.03848319 0.04217505 -0.03941265
v 0.03822276 0.04333511 -0.03921051
v 0.03831507 0.04505505 -0.03861544
v 0.03678381 0.04505505 -0.03860686
v 0.03722665 0.04310085 -0.03964386
v 0.03703710 0.04217505 -0.03977151
v 0.03783597 0.04217505 -0.03977151
v 0.03759586 0.04310085 -0.03964386
v 0.03786289 0.04333511 -0.03941846
v 0.03814365 0.04358207 -0.03918060
f 3 2 1
f 3 1 4
f 2 5 1
f 4 1 6
f 4 7 3
f 1 5 8
f 1 8 6
f 3 10 2
f 6 8 11
f 6 11 12
f 3 9 10
f 11 8 14
f 12 11 15
f 3 7 9
f 2 10 13
f 7 4 17
f 2 16 5
f 2 13 16
f 5 16 8
f 14 8 16
f 14 19 11
f 17 6 12
f 18 10 9
f 18 23 10
f 16 19 14
f 15 21 12
f 12 22 17
f 17 4 6
f 19 20 11
f 11 20 15
f 15 20 21
f 12 21 22
f 17 22 7
f 22 24 7
f 21 26 22
f 7 24 9
f 10 23 25
f 10 25 13
f 16 13 25
f 24 18 9
f 16 25 19
f 23 18 27
f 25 23 27
f 20 27 21
f 19 25 20
f 24 22 26
f 20 25 27
f 18 24 26
f 18 26 27
f 21 27 26
f 28 32 35
f 28 35 39
f 28 39 44
f 28 44 47
f 28 47 51
f 28 51 54
f 28 54 53
f 28 53 49
f 28 49 45
f 28 45 42
f 28 42 37
f 28 37 36
f 28 36 30
f 28 30 29
f 29 30 31
f 29 31 33
f 29 33 40
f 29 40 43
f 29 43 48
f 29 48 52
f 29 52 50
f 29 50 46
f 29 46 41
f 29 41 38
f 29 38 34
f 28 29 32
f 31 30 33
f 29 34 32
f 32 34 35
f 30 36 33
f 36 37 33
f 35 34 38
f 35 38 39
f 33 37 40
f 38 41 39
f 37 42 40
f 42 43 40
f 41 44 39
f 42 45 43
f 41 46 44
f 46 47 44
f 45 48 43
f 45 49 48
f 46 50 51
f 46 51 47
f 48 49 52
f 49 53 52
f 53 54 50
f 53 50 52
f 50 54 51
f 55 56 57
f 55 57 58
f 55 58 59
f 55 59 64
f 55 64 71
f 55 71 75
f 55 75 82
f 55 82 83
f 55 83 76
f 55 76 72
f 55 72 65
f 55 65 60
f 55 60 67
f 55 67 61
f 55 61 56
f 56 58 57
f 56 61 63
f 56 63 58
f 58 62 59
f 58 63 70
f 58 70 73
f 58 73 79
f 58 79 78
f 58 78 77
f 58 77 85
f 58 85 86
f 58 86 80
f 58 80 74
f 58 74 69
f 58 69 62
f 59 62 64
f 60 65 66
f 60 66 67
f 61 67 68
f 61 68 63
f 62 69 64
f 63 68 66
f 63 66 70
f 64 69 71
f 65 72 73
f 65 73 70
f 65 70 66
f 66 68 67
f 69 74 75
f 69 75 71
f 72 76 77
f 72 77 78
f 72 78 79
f 72 79 73
f 74 80 81
f 74 81 82
f 74 82 75
f 76 83 84
f 76 84 85
f 76 85 77
f 80 86 87
f 80 87 88
f 80 88 81
f 81 88 89
f 81 89 82
f 82 89 88
f 82 88 87
f 82 87 84
f 82 84 83
f 84 87 86
f 84 86 85

