# https://github.com/mikedh/trimesh
v 0.03919399 -0.00496669 -0.00639936
v 0.03926022 0.01201932 0.00000064
v 0.03905374 -0.00496769 0.00665178
v 0.03634609 -0.00497068 -0.01611905
v 0.03844403 0.00917533 -0.00868115
v 0.03227098 0.03584610 -0.02546596
v 0.03846351 0.00926124 0.00861377
v 0.03573833 -0.00497068 0.01730929
v 0.03158919 -0.00497068 -0.02390029
v 0.03492116 0.03584610 -0.01166337
v 0.03206839 0.03584610 0.02573014
v 0.02830300 0.03584610 -0.03037289
v 0.03441957 0.03584610 0.01678152
v 0.03149569 -0.00497068 0.02418410
v 0.02532848 -0.00497068 -0.03057889
v 0.02657517 0.03584610 0.03166810
v 0.02592845 -0.00497068 0.03007791
v 0.01597247 -0.00497068 -0.03628435
v 0.02131375 0.03584610 -0.03490508
v 0.01934048 -0.00497068 0.03468465
v 0.01327651 0.03584610 0.03776399
v 0.00893842 -0.00497068 0.03854781
v 0.01094871 0.03584610 -0.03831697
v 0.00751252 -0.00497068 -0.03892519
v -0.00279603 -0.00496869 -0.03952555
v -0.00001825 0.03584610 -0.04009453
v -0.03933569 -0.00496669 0.00419733
v -0.03899674 -0.00496669 -0.00767858
v -0.03615663 -0.00496669 -0.01623677
v -0.03020369 -0.00496669 -0.02581126
v -0.02462476 -0.00496669 -0.03117534
v -0.01813809 -0.00496669 -0.03535045
v -0.01127351 -0.00496669 -0.03807368
v -0.00001825 -0.00497068 0.03977405
v -0.01098327 0.03584610 -0.03831697
v -0.00001825 0.03584610 0.04008012
v -0.03947204 0.01027317 0.00000260
v -0.03848833 0.00925125 -0.00863603
v -0.03231138 0.03584610 -0.02548558
v -0.02832392 0.03584610 -0.03037485
v -0.02133662 0.03584610 -0.03490508
v -0.01194360 -0.00496669 0.03787484
v -0.01977437 -0.00496669 0.03438839
v -0.02817003 -0.00496669 0.02803352
v -0.03446386 -0.00496669 0.01962836
v -0.03858378 0.00837918 0.00862161
v -0.01220853 0.03584610 0.03811813
v -0.02134052 0.03584610 0.03491617
v -0.02833171 0.03584610 0.03036828
v -0.03230748 0.03584610 0.02547509
v -0.03494111 0.03584610 -0.01157901
v -0.03493527 0.03584610 0.01287324
v 0.03510813 0.03583928 0.00060061
v 0.03489830 0.03583928 -0.01349730
v 0.03473319 0.05703222 -0.03688519
v 0.03480887 0.05703222 0.03640195
v 0.03426538 0.05703222 0.03786634
v 0.03496366 0.03583928 0.01162162
v 0.03400051 0.03583928 -0.02048912
v 0.03228061 0.03583928 -0.02545365
v 0.03288945 0.03583928 0.02417050
v 0.03379412 0.05703222 -0.03819299
v 0.02993466 0.03583928 -0.02892840
v 0.02896807 0.03583928 0.02988415
v 0.03429289 0.03583928 0.01906630
v 0.02419361 0.03583928 0.03341392
v 0.02668060 0.03583928 -0.03178523
v 0.01758230 0.03583928 0.03659664
v 0.02911770 0.05703222 0.03967037
v 0.02132137 0.03583928 -0.03490446
v 0.01218868 0.03583928 -0.03812527
v 0.00966042 0.03583928 0.03871703
v 0.02592040 0.05703222 -0.04036629
v -0.00001577 0.03583928 -0.04007638
v 0.01788156 0.05703222 0.04157598
v -0.00001577 0.03583928 0.04005869
v 0.01908206 0.05703222 -0.04143919
v -0.00001577 0.05703222 0.04324140
v -0.01453864 0.05703222 0.04201403
v -0.00737008 0.03583928 -0.03909871
v -0.01462120 0.05703222 -0.04198093
v -0.00001577 0.05703222 -0.04323370
v -0.02499738 0.05703222 -0.04050808
v -0.02799518 0.05703222 0.03993383
v -0.01222021 0.03583928 0.03811181
v -0.01462808 0.03583928 -0.03753697
v -0.03425907 0.05703222 0.03792136
v -0.02135462 0.03583928 0.03489100
v -0.03393917 0.05703222 -0.03814643
v -0.02135462 0.03583928 -0.03489600
v -0.02671556 0.03583928 0.03177600
v -0.02676716 0.03583928 -0.03174291
v -0.03457209 0.05703222 -0.03764701
v -0.03231213 0.03583928 0.02546136
v -0.02996962 0.03583928 0.02892764
v -0.03083474 0.03583928 -0.02780048
v -0.03483351 0.05703222 0.03683365
v -0.03483351 0.05703222 -0.03611914
v -0.03334408 0.03583928 -0.02299043
v -0.03403548 0.03583928 0.02052645
v -0.03514482 0.03583928 0.00026626
v -0.03500206 0.03583928 -0.01164354
v -0.03452049 0.03583928 -0.01764922
v -0.03480256 0.03583928 0.01559578
v 0.00421757 0.05958525 -0.04381046
v -0.00002038 0.05958525 0.04413401
v -0.01805630 0.05958525 -0.04262914
v 0.00535899 0.06517144 -0.04584553
v -0.01805630 0.05958525 0.04264494
v -0.01805630 0.07110435 -0.04705664
v -0.00002038 0.06964617 -0.04771927
v 0.00421757 0.05958525 0.04380641
v 0.00535899 0.10835846 -0.04584553
v 0.00421757 0.09428319 0.04986072
v 0.00421757 0.08340553 0.05028387
v -0.00002038 0.11275806 -0.04386010
v 0.00421757 0.12471251 -0.03395282
v 0.00421757 0.13061461 -0.02625433
v 0.00421757 0.13630868 -0.01281795
v 0.00421757 0.13772062 0.00534125
v 0.00421757 0.13509897 0.01668052
v 0.00421757 0.12793709 0.02984886
v 0.00421757 0.11729251 0.04067440
v 0.00421757 0.10691569 0.04645820
v -0.00002038 0.08699225 0.05055934
v -0.00026448 0.07286738 0.04856089
v -0.00002038 0.12252812 -0.03674235
v -0.00002038 0.12752102 -0.03121293
v 0.00009393 0.13236462 -0.02339035
v -0.00002038 0.13809915 -0.00164248
v -0.00002038 0.13709459 0.01070439
v -0.00002038 0.13431113 0.01925909
v -0.00034585 0.13007333 0.02748621
v -0.00002038 0.12280357 0.03630150
v -0.00002038 0.11145591 0.04468000
v -0.00002038 0.10106367 0.04871538
v -0.00002038 0.09713215 -0.04976178
v -0.01805630 0.08663974 0.04965846
v -0.01805630 0.07875551 -0.04893287
v -0.01805630 0.11477679 -0.04148751
v -0.01578720 0.12207737 -0.03572978
v -0.01578720 0.13181853 -0.02254655
v -0.01805630 0.09526752 0.04897349
v -0.00002038 0.08433399 -0.05061551
v -0.01805630 0.10164925 -0.04752073
v -0.01578720 0.13589260 -0.01183517
v -0.01691029 0.12213901 0.03575054
v -0.01805630 0.11477679 0.04144375
v -0.01805630 0.10791927 0.04517140
v -0.01805630 0.07720294 0.04861115
v -0.01578720 0.13721210 0.00045834
v -0.01578720 0.13444789 0.01645716
v -0.01578720 0.12827226 0.02847396
v -0.01805630 0.08695372 -0.04966251
v 0.00535899 0.08827226 -0.05032267
v -0.00002038 0.09124546 -0.05060062
v 0.01105018 0.05958523 -0.04326454
v 0.00422262 0.05958523 -0.04382746
v 0.00422262 0.05958523 0.04380058
v 0.01104885 0.05959291 0.04327716
v 0.00422262 0.06497842 -0.04583225
v 0.01104952 0.13156932 0.02369590
v 0.01104885 0.09250519 0.04987420
v 0.01104885 0.08523745 0.05006184
v 0.01104885 0.07994029 0.04950386
v 0.01104885 0.07294144 0.04803483
v 0.01105018 0.07316808 -0.04799012
v 0.00422262 0.10850037 -0.04583225
v 0.00536089 0.09128365 -0.05027143
v 0.00536089 0.08098129 -0.04993565
v 0.00536089 0.07134730 -0.04794567
v 0.01104885 0.12752443 0.03012258
v 0.01104885 0.12466458 0.03366799
v 0.01104885 0.11429690 0.04230439
v 0.01104885 0.10686398 0.04618065
v 0.01104885 0.09786957 0.04897550
v 0.00422262 0.08693914 0.05046675
v 0.00422262 0.07723505 0.04937917
v 0.00536089 0.10134787 -0.04839502
v 0.01105018 0.08363178 -0.04990602
v 0.00422262 0.13050911 0.02627102
v 0.00422262 0.12454165 0.03433955
v 0.00422262 0.12037961 0.03832444
v 0.00422262 0.11307537 0.04345492
v 0.00422262 0.10406560 0.04756820
v 0.00422262 0.09620052 0.04972606
v 0.01105018 0.10848885 -0.04541747
v 0.01105018 0.10139397 -0.04805925
v 0.01105018 0.09341942 -0.04967394
v 0.00422262 0.13510140 0.01668161
v 0.00422262 0.11505748 -0.04225721
v 0.01105018 0.11488078 -0.04191649
v 0.01105018 0.13477873 0.01646434
v 0.01105018 0.12077334 -0.03745263
v 0.01105018 0.13684918 0.00868714
v 0.00422262 0.12115747 -0.03763533
v 0.00422262 0.13770579 0.00553676
v 0.01105018 0.12482591 -0.03346774
v 0.01105018 0.13759440 0.00174445
v 0.00422262 0.12707692 -0.03139382
v 0.00422262 0.13790363 -0.00258609
v 0.01105018 0.13018837 -0.02619421
v 0.01105018 0.13732167 -0.00541057
v 0.00422262 0.13096432 -0.02569548
v 0.00422262 0.13681846 -0.01093115
v 0.00422262 0.13386834 -0.01990332
v 0.01105018 0.13345732 -0.01988357
v 0.01105018 0.13593496 -0.01274830
v -0.01805737 0.05703872 -0.04156835
v -0.03331982 0.06638709 -0.04391382
v -0.01805737 0.07047700 -0.04683105
v -0.01579177 0.11456110 -0.04178246
v -0.01805737 0.05703872 0.04156441
v -0.01805737 0.07888306 -0.04895512
v -0.01805737 0.08791864 -0.04963637
v -0.01805737 0.09856342 -0.04844904
v -0.01805737 0.10799836 -0.04515955
v -0.03417478 0.11047316 -0.04284814
v -0.01579177 0.11456110 0.03505354
v -0.03384940 0.06636545 0.04377606
v -0.03419809 0.07401756 -0.04643203
v -0.03380651 0.07875715 -0.04790404
v -0.03450763 0.08847537 -0.04854636
v -0.03258374 0.10139233 -0.04667777
v -0.03227863 0.11813658 -0.03798810
v -0.01579177 0.12291011 0.03505354
v -0.01805737 0.08524908 0.04967136
v -0.01805737 0.07427576 0.04795849
v -0.03483395 0.05703872 -0.03680928
v -0.03482277 0.10118380 -0.04593812
v -0.03413003 0.12342159 -0.03288720
v -0.01691245 0.11478143 0.04153521
v -0.03265133 0.07875322 0.04799498
v -0.03448153 0.07239507 0.04606070
v -0.01579177 0.12556589 -0.03220107
v -0.03417478 0.11604441 0.03939899
v -0.01805737 0.11098070 0.04380282
v -0.01805737 0.10485863 0.04655705
v -0.01805737 0.09842965 0.04849376
v -0.03384194 0.09822506 0.04753027
v -0.03413003 0.08519794 0.04860568
v -0.03211897 0.05703872 0.03878586
v -0.01579177 0.12630165 0.03135529
v -0.03457662 0.10443370 0.04540864
v -0.03480412 0.05703872 0.03704379
v -0.03482277 0.13163880 -0.01714044
v -0.01579177 0.13027549 0.02560354
v -0.03384194 0.12932334 0.02500987
v -0.03466054 0.12537310 0.03027502
v -0.03483955 0.08336248 0.04519514
v -0.03453653 0.12915022 -0.02491649
v -0.01579177 0.13033057 -0.02551989
v -0.03326598 0.13343883 0.01607082
v -0.03276555 0.13237257 -0.01918421
v -0.03416733 0.13576411 0.00648943
v -0.03418924 0.13507558 -0.00970501
v -0.01579177 0.13543755 -0.01369523
v -0.01579177 0.13543755 0.01370102
v -0.03209706 0.13637986 -0.00162239
v -0.01579177 0.13723563 0.00170360
v 0.01104628 0.05958520 -0.04326279
v 0.01104564 0.07319304 -0.04808396
v 0.01757419 0.06847234 -0.04617119
v 0.01757419 0.05958520 -0.04266443
v 0.01757419 0.05957755 0.04267484
v 0.01104500 0.08270132 -0.04978094
v 0.01104564 0.05959285 0.04327320
v 0.01757419 0.06682488 0.04563229
v 0.01757419 0.08259048 -0.04940574
v 0.01757419 0.07313952 0.04768239
v 0.01104500 0.07470672 0.04850145
v 0.01757419 0.09066535 -0.04961909
v 0.01104500 0.09251923 -0.04986432
v 0.01757419 0.07816983 0.04885458
v 0.01104500 0.08342949 0.04989925
v 0.01757419 0.09783622 -0.04860385
v 0.01757419 0.08704933 0.04971288
v 0.01104500 0.10669278 -0.04624475
v 0.01104500 0.08879618 0.05011015
v 0.01757419 0.10655518 -0.04590144
v 0.01757419 0.09248865 0.04950198
v 0.01104500 0.09432341 0.04960988
v 0.01757419 0.09962894 0.04821699
v 0.01104500 0.10150575 0.04804533
v 0.01104500 0.11329029 -0.04293908
v 0.01757419 0.11464725 -0.04162957
v 0.01757419 0.10483508 0.04654453
v 0.01104500 0.12136612 -0.03683905
v 0.01757419 0.12046499 -0.03723018
v 0.01104500 0.10686861 0.04617669
v 0.01757419 0.11445040 0.04177240
v 0.01757419 0.12455116 -0.03322806
v 0.01104564 0.11330558 0.04292988
v 0.01104564 0.12007319 0.03804494
v 0.01104564 0.12468876 0.03364065
v 0.01104564 0.12983374 0.02677917
v 0.01104500 0.13767737 -0.00000460
v 0.01104500 0.12704338 -0.03082483
v 0.01757419 0.12885521 -0.02762706
v 0.01757419 0.12060833 0.03708610
v 0.01757419 0.12544560 0.03215947
v 0.01757419 0.12979935 0.02609744
v 0.01104564 0.13647331 0.01075599
v 0.01104564 0.13353768 0.01975585
v 0.01104500 0.13101106 -0.02484127
v 0.01757419 0.13716517 0.00360515
v 0.01757419 0.13383965 0.01811283
v 0.01757419 0.13561709 0.01252163
v 0.01757419 0.13695493 -0.00546828
v 0.01104500 0.13352622 -0.01971601
v 0.01757419 0.13414926 -0.01700379
v 0.01104500 0.13653637 -0.00998047
v 0.01757104 0.05957755 -0.04267269
v 0.03442092 0.07364048 -0.04646110
v 0.01756935 0.05960800 0.04267851
v 0.01757104 0.08618335 -0.04964326
v 0.01757104 0.07649416 -0.04849651
v 0.03381510 0.05957755 -0.03996529
v 0.03200482 0.06965770 0.04538591
v 0.01756935 0.13528946 -0.01350729
v 0.03438549 0.09482049 -0.04789636
v 0.03252067 0.08224100 -0.04843930
v 0.01757104 0.13246432 -0.02124724
v 0.01757104 0.12313089 -0.03472092
v 0.01757104 0.11618694 -0.04064701
v 0.01757104 0.10567398 -0.04616893
v 0.01757104 0.09619596 -0.04897372
v 0.01757104 0.07579026 0.04830513
v 0.01756767 0.13695411 -0.00545571
v 0.03251065 0.12586281 -0.03026297
v 0.03186180 0.11991384 -0.03659322
v 0.03450614 0.10375060 -0.04564304
v 0.03479049 0.08342480 -0.04777827
v 0.03389020 0.05957755 0.03992729
v 0.03208624 0.13638338 -0.00194607
v 0.03309369 0.13557294 -0.00855266
v 0.03399398 0.13329807 -0.01609022
v 0.03251149 0.12995688 -0.02412994
v 0.03283507 0.10712460 -0.04457176
v 0.03480568 0.05957755 -0.03832917
v 0.03436186 0.07721710 0.04746028
v 0.03297366 0.08345310 0.04847556
v 0.01756767 0.11312018 0.04262982
v 0.01757104 0.08796405 0.04966370
v 0.01756767 0.13717479 0.00360628
v 0.03457691 0.11791816 -0.03743015
v 0.03480568 0.05957755 0.03836421
v 0.01757104 0.10484832 0.04654483
v 0.01757104 0.09785490 0.04859973
v 0.03463397 0.12724399 -0.02745940
v 0.03479218 0.13514677 -0.00487990
v 0.03470696 0.09148169 0.04796184
v 0.03212336 0.11183507 0.04225974
v 0.03450572 0.13521527 0.00896021
v 0.03438886 0.10548754 0.04511322
v 0.03466350 0.12979755 0.02291658
v 0.03479049 0.11317345 0.04041910
v 0.01756767 0.13512014 0.01441640
v 0.03344975 0.13229119 0.01914217
v 0.03452006 0.12140251 0.03459710
v 0.03173608 0.12910458 0.02566232
v 0.01756767 0.11910149 0.03843238
v 0.01756767 0.12544046 0.03216544
v 0.01756767 0.13059991 0.02483696
v 0.03480905 0.05957755 0.03838390
v 0.03458654 0.05957755 0.03948110
v 0.03477283 0.05702727 0.03710527
v 0.03480388 0.05702727 0.03637956
v 0.03480905 0.05957755 -0.03836843
v 0.03462276 0.05702727 0.03752860
v 0.03467968 0.05957755 -0.03928420
v 0.03391382 0.05702727 0.03818519
v 0.03467451 0.05702727 -0.03738354
v 0.03430192 0.05702727 -0.03791054
v 0.03381550 0.05957755 0.03998218
v 0.03299271 0.05702727 0.03859988
v 0.03480388 0.05702727 -0.03639001
v 0.03407165 0.05957755 -0.03984576
v 0.03361109 0.05702727 -0.03833387
v 0.03169384 0.05843871 0.03990443
v 0.03126434 0.05957755 0.04065173
v 0.03025526 0.05702727 0.03942062
v 0.03091763 0.05702727 -0.03925829
v 0.03281677 0.05957755 -0.04028637
v 0.02708831 0.05702727 0.04017225
v 0.02772998 0.05702727 -0.04003151
v 0.02780760 0.05957755 0.04134721
v 0.02330556 0.05702727 0.04086340
v 0.02804047 0.05957755 -0.04131446
v 0.02423701 0.05957755 0.04189149
v 0.01909330 0.05702727 0.04145952
v 0.02379975 0.05702727 -0.04077882
v 0.02001959 0.05957755 0.04242713
v 0.01457574 0.05702727 0.04197788
v 0.02436121 0.05957755 -0.04187602
v 0.00984083 0.05702727 0.04243577
v 0.01909330 0.05702727 -0.04145269
v 0.02014895 0.05957755 -0.04239438
v 0.01300779 0.05957755 0.04310532
v -0.00001191 0.05702727 0.04323059
v 0.01457574 0.05702727 -0.04197969
v 0.01548132 0.05957755 -0.04287819
v -0.00000156 0.05957755 0.04413773
v 0.01012544 0.05702727 -0.04240302
v -0.00785167 0.05957755 0.04355889
v -0.01453747 0.05702727 0.04200380
v -0.00001191 0.05702727 -0.04321512
v 0.00368804 0.05957755 -0.04387172
v 0.00000361 0.05957755 -0.04412226
v -0.01805630 0.05957755 0.04266039
v -0.01805630 0.05702727 0.04158047
v -0.00798622 0.05957755 -0.04352614
v -0.00746357 0.05702727 -0.04261901
v -0.01805630 0.05702727 -0.04156500
v -0.01805113 0.05957755 -0.04263629
v -0.01462543 0.05702727 -0.04198833
f 1 2 3
f 1 3 4
f 2 1 5
f 3 8 14
f 3 14 17
f 3 17 20
f 3 20 22
f 3 22 34
f 3 34 25
f 3 25 24
f 3 24 18
f 3 18 15
f 3 15 9
f 3 9 4
f 1 4 5
f 4 9 6
f 4 6 5
f 6 12 19
f 6 19 23
f 6 23 26
f 6 26 35
f 6 35 41
f 6 41 40
f 6 40 39
f 6 39 51
f 6 51 52
f 6 52 50
f 6 50 49
f 6 49 48
f 6 48 47
f 6 47 36
f 6 36 21
f 6 21 16
f 6 16 11
f 6 11 13
f 6 13 10
f 6 10 5
f 2 7 3
f 3 7 8
f 6 9 12
f 5 10 2
f 7 13 11
f 11 8 7
f 8 11 14
f 2 13 7
f 9 15 12
f 2 10 13
f 11 16 14
f 14 16 17
f 15 18 12
f 12 18 19
f 17 16 20
f 20 16 21
f 20 21 22
f 19 18 23
f 23 18 24
f 24 25 26
f 24 26 23
f 25 27 28
f 25 28 29
f 25 29 30
f 25 30 31
f 25 31 32
f 25 32 33
f 25 34 27
f 26 25 35
f 21 36 22
f 22 36 34
f 29 28 38
f 29 39 30
f 30 39 40
f 30 40 31
f 31 40 32
f 32 40 41
f 32 41 33
f 33 41 35
f 33 35 25
f 34 42 43
f 34 43 44
f 34 44 45
f 34 45 27
f 27 46 37
f 39 29 38
f 34 47 42
f 42 47 48
f 43 42 48
f 43 48 49
f 43 49 44
f 44 49 45
f 45 49 50
f 27 45 46
f 37 38 28
f 27 37 28
f 36 47 34
f 50 46 45
f 39 38 51
f 38 37 51
f 50 52 46
f 46 52 37
f 37 52 51
f 53 54 55
f 53 55 56
f 53 58 65
f 53 65 61
f 53 61 64
f 53 64 66
f 53 66 68
f 53 68 72
f 53 72 76
f 53 76 85
f 53 85 88
f 53 88 91
f 53 91 95
f 53 95 94
f 53 94 100
f 53 100 104
f 53 104 101
f 53 101 102
f 53 102 103
f 53 103 99
f 53 99 96
f 53 96 92
f 53 92 90
f 53 90 86
f 53 86 80
f 53 80 74
f 53 74 71
f 53 71 70
f 53 70 67
f 53 67 63
f 53 63 60
f 53 60 59
f 53 59 54
f 55 62 73
f 55 73 77
f 55 77 82
f 55 82 81
f 55 81 83
f 55 83 89
f 55 89 93
f 55 93 98
f 55 98 97
f 55 97 87
f 55 87 84
f 55 84 79
f 55 79 78
f 55 78 75
f 55 75 69
f 55 69 57
f 55 57 56
f 56 58 53
f 55 54 59
f 56 57 61
f 55 60 63
f 55 63 62
f 60 55 59
f 57 64 61
f 61 65 56
f 58 56 65
f 57 66 64
f 62 63 67
f 57 68 66
f 57 69 68
f 62 67 70
f 62 70 71
f 68 69 72
f 71 73 62
f 71 74 73
f 69 75 72
f 72 75 76
f 74 77 73
f 76 75 78
f 76 78 79
f 74 80 81
f 74 81 82
f 74 82 77
f 80 83 81
f 76 79 84
f 76 84 85
f 80 86 83
f 85 84 87
f 85 87 88
f 86 89 83
f 86 90 89
f 87 91 88
f 89 90 92
f 89 92 93
f 87 94 95
f 87 95 91
f 93 92 96
f 93 96 99
f 93 99 98
f 87 97 100
f 87 100 94
f 98 102 101
f 99 103 98
f 97 101 104
f 97 104 100
f 98 101 97
f 98 103 102
f 105 106 107
f 106 109 107
f 107 109 150
f 107 150 138
f 107 138 143
f 107 143 149
f 107 149 148
f 107 148 140
f 107 140 145
f 107 145 154
f 107 154 139
f 107 139 110
f 105 107 110
f 105 110 111
f 105 108 112
f 105 112 106
f 105 111 108
f 108 155 113
f 108 113 114
f 108 114 115
f 108 115 112
f 113 117 118
f 113 118 119
f 113 119 120
f 113 120 121
f 113 121 122
f 113 122 123
f 113 123 124
f 113 124 114
f 114 125 115
f 115 126 112
f 106 112 126
f 106 126 109
f 113 116 127
f 113 127 117
f 117 127 128
f 117 128 118
f 118 128 129
f 118 129 119
f 119 130 120
f 120 131 132
f 120 132 121
f 121 132 122
f 122 134 123
f 123 135 124
f 124 135 136
f 124 136 114
f 114 136 125
f 113 137 116
f 127 141 128
f 120 130 131
f 132 133 122
f 122 133 134
f 134 135 123
f 125 143 138
f 125 126 115
f 139 111 110
f 139 144 111
f 111 144 108
f 116 145 140
f 116 137 145
f 116 140 141
f 116 141 127
f 129 128 142
f 119 129 146
f 125 136 143
f 138 150 125
f 125 150 126
f 126 150 109
f 140 151 146
f 140 146 142
f 140 142 141
f 140 148 151
f 128 141 142
f 129 142 146
f 119 146 130
f 130 151 131
f 133 153 134
f 134 147 148
f 148 135 134
f 135 148 149
f 149 143 136
f 135 149 136
f 139 154 144
f 146 151 130
f 148 147 152
f 148 152 151
f 131 152 132
f 152 153 132
f 132 153 133
f 134 153 147
f 144 155 108
f 113 155 137
f 147 153 152
f 152 131 151
f 144 156 155
f 144 154 156
f 137 155 156
f 137 154 145
f 137 156 154
f 157 159 158
f 157 167 180
f 157 180 189
f 157 189 188
f 157 188 187
f 157 187 192
f 157 192 194
f 157 194 198
f 157 198 202
f 157 202 207
f 157 207 208
f 157 208 203
f 157 203 199
f 157 199 195
f 157 195 193
f 157 193 162
f 158 159 178
f 158 178 177
f 158 177 186
f 158 186 185
f 158 185 184
f 158 184 183
f 158 183 182
f 158 182 181
f 158 181 190
f 158 190 197
f 158 197 201
f 158 201 205
f 158 205 206
f 158 206 204
f 158 204 200
f 158 200 196
f 158 196 191
f 158 191 168
f 158 168 161
f 157 160 159
f 158 161 157
f 157 162 163
f 157 163 164
f 157 164 165
f 157 165 166
f 157 166 160
f 157 161 167
f 161 168 169
f 161 169 170
f 161 170 171
f 162 172 173
f 162 173 174
f 162 174 175
f 162 175 176
f 162 176 163
f 163 177 164
f 165 164 178
f 165 178 166
f 160 166 159
f 161 171 167
f 168 179 169
f 169 180 170
f 171 170 167
f 162 181 172
f 173 183 174
f 174 183 184
f 174 184 175
f 175 185 176
f 176 185 186
f 176 186 163
f 177 178 164
f 178 159 166
f 179 188 189
f 179 189 169
f 170 180 167
f 162 190 181
f 181 182 172
f 172 182 173
f 182 183 173
f 184 185 175
f 163 186 177
f 168 191 187
f 187 191 192
f 187 188 168
f 168 188 179
f 189 180 169
f 162 193 190
f 192 191 194
f 193 195 190
f 191 196 194
f 194 196 198
f 195 197 190
f 195 199 197
f 198 196 200
f 199 201 197
f 198 200 202
f 199 203 201
f 200 204 202
f 201 203 205
f 202 204 206
f 202 206 207
f 205 203 208
f 208 206 205
f 208 207 206
f 209 210 211
f 209 212 219
f 209 219 213
f 209 213 242
f 209 242 245
f 209 245 229
f 209 211 212
f 212 211 214
f 212 214 215
f 212 215 216
f 212 216 217
f 212 235 252
f 212 252 257
f 212 257 260
f 212 260 258
f 212 258 247
f 212 247 243
f 212 243 226
f 212 226 219
f 210 221 211
f 214 222 215
f 215 222 223
f 212 217 218
f 218 217 224
f 218 225 212
f 219 226 227
f 219 227 228
f 219 228 213
f 210 229 221
f 221 222 211
f 211 222 214
f 215 223 216
f 224 217 216
f 224 230 218
f 218 231 225
f 226 232 227
f 227 233 228
f 228 220 213
f 210 209 229
f 222 221 223
f 223 230 224
f 223 224 216
f 218 230 231
f 212 225 235
f 232 226 236
f 232 236 237
f 232 237 238
f 232 238 239
f 232 239 227
f 227 239 240
f 227 241 233
f 228 234 220
f 234 228 233
f 213 220 242
f 237 244 238
f 221 230 223
f 229 245 250
f 229 250 246
f 229 246 230
f 229 230 221
f 235 225 231
f 237 236 244
f 244 240 238
f 238 240 239
f 241 227 240
f 234 233 241
f 220 234 245
f 220 245 242
f 230 246 231
f 243 248 249
f 243 249 226
f 226 249 236
f 234 241 250
f 234 250 245
f 231 251 252
f 231 252 235
f 247 248 243
f 231 246 251
f 251 254 252
f 248 247 253
f 248 253 249
f 253 255 249
f 244 236 250
f 244 250 240
f 240 250 241
f 251 246 256
f 251 256 254
f 254 256 257
f 247 258 253
f 236 249 250
f 249 255 250
f 255 246 250
f 246 255 256
f 256 255 259
f 254 257 252
f 253 258 255
f 258 260 255
f 255 260 259
f 259 257 256
f 259 260 257
f 261 265 267
f 261 263 264
f 261 264 265
f 262 261 267
f 262 267 271
f 262 271 275
f 262 275 279
f 262 279 282
f 262 282 284
f 262 284 290
f 262 290 297
f 262 297 312
f 262 312 310
f 262 310 305
f 262 305 298
f 262 298 288
f 262 288 285
f 262 285 278
f 262 278 273
f 262 273 266
f 263 269 272
f 263 272 276
f 263 276 280
f 263 280 286
f 263 286 289
f 263 289 292
f 263 292 299
f 263 299 311
f 263 311 309
f 263 309 306
f 263 306 308
f 263 308 307
f 263 307 302
f 263 302 301
f 263 301 300
f 263 300 291
f 263 291 287
f 263 287 283
f 263 283 281
f 263 281 277
f 263 277 274
f 263 274 270
f 263 270 268
f 263 268 265
f 263 265 264
f 266 269 262
f 262 269 263
f 262 263 261
f 265 268 267
f 268 270 267
f 267 270 271
f 269 266 272
f 266 273 272
f 270 274 271
f 274 275 271
f 273 276 272
f 274 277 275
f 273 278 276
f 277 279 275
f 276 278 280
f 277 281 279
f 279 281 282
f 281 283 282
f 282 283 284
f 280 278 285
f 280 285 286
f 284 283 287
f 286 285 288
f 286 288 289
f 284 287 290
f 289 288 292
f 287 291 290
f 290 293 294
f 290 294 295
f 290 295 296
f 290 296 297
f 292 288 298
f 292 298 299
f 290 291 293
f 293 291 294
f 295 294 300
f 295 300 301
f 295 301 296
f 297 296 304
f 297 304 303
f 298 305 299
f 294 291 300
f 296 301 302
f 303 306 297
f 296 302 304
f 304 307 303
f 303 308 306
f 302 307 304
f 307 308 303
f 306 309 297
f 305 310 299
f 299 310 311
f 309 312 297
f 310 312 311
f 309 311 312
f 313 318 340
f 313 340 347
f 313 347 334
f 313 334 315
f 313 315 320
f 313 316 317
f 315 343 362
f 315 362 363
f 315 363 364
f 315 364 358
f 315 358 345
f 315 345 329
f 315 329 320
f 313 320 316
f 317 314 313
f 314 318 313
f 320 323 324
f 320 324 325
f 320 325 326
f 320 326 327
f 320 327 316
f 316 327 321
f 316 321 322
f 316 322 317
f 315 319 328
f 325 324 331
f 322 321 333
f 317 322 314
f 319 315 334
f 329 335 336
f 329 336 320
f 320 337 323
f 323 338 324
f 324 338 330
f 324 330 331
f 326 339 332
f 326 332 327
f 327 332 321
f 333 314 322
f 334 341 319
f 319 341 342
f 319 342 328
f 315 328 344
f 315 344 343
f 320 336 337
f 335 329 345
f 323 337 338
f 330 346 331
f 325 339 326
f 314 340 318
f 343 344 349
f 343 349 348
f 328 342 344
f 338 350 330
f 330 350 346
f 331 346 325
f 325 346 339
f 339 346 332
f 333 340 314
f 340 351 347
f 334 347 341
f 341 352 342
f 348 353 343
f 344 342 352
f 336 335 351
f 338 337 350
f 321 332 333
f 333 351 340
f 351 333 346
f 351 346 350
f 351 350 337
f 341 347 352
f 348 349 355
f 348 355 353
f 344 352 349
f 336 351 337
f 345 354 335
f 335 354 351
f 333 332 346
f 351 354 356
f 351 356 357
f 351 357 352
f 351 352 347
f 349 352 355
f 354 359 356
f 356 360 357
f 357 355 352
f 345 358 354
f 354 358 359
f 356 361 360
f 353 355 357
f 353 362 343
f 356 359 361
f 360 362 353
f 360 353 357
f 360 363 362
f 359 358 364
f 359 364 361
f 361 364 363
f 360 361 363
f 365 366 367
f 365 367 368
f 365 368 369
f 365 369 371
f 365 371 378
f 365 378 384
f 365 384 389
f 365 389 395
f 365 395 398
f 365 398 402
f 365 402 408
f 365 408 409
f 365 409 412
f 365 412 415
f 365 415 410
f 365 410 405
f 365 405 403
f 365 403 399
f 365 399 393
f 365 393 390
f 365 390 387
f 365 387 381
f 365 381 375
f 365 375 366
f 367 366 370
f 367 370 372
f 367 372 376
f 367 376 382
f 367 382 385
f 367 385 388
f 367 388 391
f 367 391 394
f 367 394 396
f 367 396 400
f 367 400 406
f 367 406 411
f 367 411 414
f 367 414 416
f 367 416 413
f 367 413 407
f 367 407 404
f 367 404 401
f 367 401 397
f 367 397 392
f 367 392 386
f 367 386 383
f 367 383 379
f 367 379 374
f 367 374 373
f 367 373 377
f 367 377 368
f 368 377 369
f 369 373 371
f 371 373 374
f 366 372 370
f 366 375 372
f 369 377 373
f 371 374 378
f 372 375 376
f 378 374 379
f 375 380 376
f 375 381 380
f 380 382 376
f 379 383 378
f 378 383 384
f 380 381 385
f 380 385 382
f 384 383 386
f 381 387 385
f 385 387 388
f 384 386 389
f 387 390 388
f 388 390 391
f 386 392 389
f 390 393 391
f 389 392 395
f 391 393 394
f 392 397 395
f 395 397 398
f 393 399 394
f 394 399 396
f 396 399 400
f 397 401 398
f 398 401 402
f 399 403 400
f 402 401 404
f 403 405 400
f 400 405 406
f 404 407 408
f 404 408 402
f 407 409 408
f 405 410 406
f 406 410 411
f 407 412 409
f 407 413 412
f 411 410 414
f 412 413 415
f 413 416 415
f 414 415 416
f 410 415 414

