# https://github.com/mikedh/trimesh
v -0.03681199 0.03939707 0.03001695
v -0.03502582 0.07922296 0.03193979
v -0.03459144 0.09447376 0.03137818
v -0.03044596 0.10427267 0.03005290
v -0.02234784 0.11290703 0.03005205
v 0.03681186 0.03939707 0.03001695
v -0.00818650 0.11771597 0.03005119
v -0.03152289 0.10396050 0.03137261
v 0.01243460 0.11678334 0.03005119
v -0.01400820 0.11732843 0.03126859
v 0.00621457 0.11897056 0.03124034
v -0.02970338 0.08388119 0.03676574
v -0.02643565 0.09790284 0.03769635
v -0.02207568 0.10810397 0.03655086
v -0.01602687 0.11152522 0.03713130
v 0.02992224 0.10476590 0.03005290
v 0.03552857 0.08027987 0.03137476
v 0.01854559 0.11546612 0.03129278
v -0.00760973 0.11461766 0.03681540
v 0.00254851 0.11461766 0.03750886
v -0.02986199 0.03939707 0.03694467
v 0.02757824 0.10950927 0.03134821
v 0.03283129 0.10059502 0.03137711
v 0.02986907 0.03939707 0.03694467
v 0.01252291 0.11461766 0.03544304
v 0.02028759 0.10981459 0.03621183
v -0.02445122 0.08388902 0.04044877
v -0.01512568 0.10012039 0.04292510
v -0.00878849 0.10625829 0.04257538
v 0.02834065 0.10234578 0.03506891
v 0.02944371 0.09252826 0.03643443
v 0.02716550 0.07824434 0.03873910
v 0.00830173 0.11066599 0.04006352
v 0.00146978 0.10757356 0.04269374
v -0.01856463 0.09252044 0.04300001
v -0.01883859 0.04516701 0.04360871
v 0.02059760 0.10234578 0.03998733
v 0.02379143 0.03939707 0.04105576
v -0.02379155 0.03939707 0.04105576
v -0.00959957 0.04516701 0.04641337
v -0.01268165 0.08388902 0.04553156
v -0.00308935 0.09908698 0.04573147
v 0.02423121 0.09252435 0.04008407
v 0.01856091 0.09252044 0.04300001
v 0.01883126 0.04516701 0.04360871
v 0.01071152 0.10012039 0.04426065
v -0.00636609 0.08538826 0.04670103
v 0.01267792 0.08388902 0.04553071
v 0.00958142 0.04516701 0.04641251
v -0.00000006 0.04516701 0.04750578
v -0.00000006 0.08388902 0.04726863
v 0.00637137 0.08538630 0.04670188
v -0.03578905 0.04764889 -0.03125035
v -0.03507429 0.04764889 -0.03005069
v -0.03553679 0.08015328 -0.03137967
v -0.02400952 0.04764889 -0.04085867
v 0.03507735 0.04764889 -0.03004899
v -0.02905138 0.08097484 -0.03725884
v -0.03041346 0.10383114 -0.03005239
v 0.00824229 0.11770467 -0.03004984
v -0.00740185 0.11815231 -0.03005069
v -0.02854334 0.09518016 -0.03658542
v -0.03374463 0.09783093 -0.03138180
v -0.01562860 0.04764889 -0.04486007
v -0.01021710 0.11835244 -0.03125375
v -0.01831246 0.11576487 -0.03129161
v -0.02920204 0.10785470 -0.03135925
v -0.02116274 0.08531263 -0.04210809
v 0.03579911 0.04764889 -0.03123844
v 0.03432754 0.08773870 -0.03004899
v -0.02749398 0.10336418 -0.03522538
v 0.01841361 0.11564111 -0.03129140
v 0.00247341 0.11908447 -0.03124056
v -0.01555502 0.08381170 -0.04463631
v -0.00657497 0.04764889 -0.04694714
v -0.00957591 0.08531263 -0.04615375
v 0.03395089 0.09712172 -0.03138010
v 0.00704051 0.11460274 -0.03703082
v -0.00029979 0.11598606 -0.03596559
v -0.01281248 0.11305442 -0.03665306
v -0.02147457 0.10802322 -0.03667220
v -0.01786573 0.09906502 -0.04222083
v -0.00348468 0.08381170 -0.04714112
v 0.03101302 0.04764889 -0.03598602
v 0.03058907 0.09248725 -0.03548658
v 0.01584889 0.11305442 -0.03565590
v 0.02614021 0.10906554 -0.03004920
v -0.01150822 0.10717006 -0.04149550
v -0.00628591 0.10010076 -0.04509660
v 0.00579319 0.04764889 -0.04705264
v 0.00267487 0.09249077 -0.04677102
v 0.02605875 0.04764889 -0.03972112
v 0.02324175 0.08381170 -0.04104627
v -0.00036724 0.10933895 -0.04171587
v 0.00883092 0.08381520 -0.04643834
v 0.01777944 0.04764889 -0.04394629
v 0.02007788 0.09787657 -0.04157165
v 0.02737790 0.10009900 -0.03637995
v 0.02970262 0.10720166 -0.03136095
v 0.02391096 0.10624668 -0.03644886
v 0.01617648 0.10717006 -0.03990872
v 0.01478200 0.08531438 -0.04476436
v 0.00535172 0.10428932 -0.04392077
v 0.00861719 0.09787656 -0.04534674
v -0.00580772 0.04709694 0.03001205
v 0.00000445 0.04515832 0.04751041
v 0.00643494 0.04515832 0.04706918
v 0.01821958 0.04676287 0.03001205
v -0.00000471 0.03578406 0.00797362
v -0.00642603 0.04515832 0.04706918
v 0.01274634 0.04515832 0.04576096
v 0.00000445 -0.00452219 0.04750654
v -0.01274660 0.04515832 0.04576096
v 0.00642578 -0.00452219 0.04706531
v 0.01882874 0.04515832 0.04361286
v 0.01036926 0.03544746 0.00797362
v -0.01188554 0.03536900 0.00797362
v -0.02474651 0.04640855 0.03001205
v -0.02377552 0.04515832 0.04105448
v 0.03866065 -0.00452219 0.02756591
v -0.00642603 -0.00452219 0.04706531
v -0.04198607 -0.00452725 0.02219758
v 0.01273718 -0.00452219 0.04575709
v 0.02377527 0.04515832 0.04105448
v -0.01882900 -0.00452219 0.04360512
v -0.03501514 0.04548733 0.03001205
v 0.04205910 -0.00452219 0.02206598
v 0.04188963 0.03392895 0.02221886
v 0.03457519 -0.00452219 0.03255494
v 0.02984851 -0.00452219 0.03694792
v 0.02456305 -0.00452219 0.04064808
v 0.01882874 -0.00452219 0.04360512
v -0.01272828 -0.00452219 0.04575709
v -0.02455414 -0.00452219 0.04064808
v -0.02984876 -0.00452219 0.03694792
v -0.03457545 -0.00452219 0.03255494
v -0.03866091 -0.00452219 0.02756591
v 0.03504236 0.04548733 0.03001205
v 0.02986683 0.03938799 0.03694404
v 0.03680113 0.04294130 0.03001205
v 0.02064705 0.03446296 0.00797362
v -0.02986708 0.03939305 0.03694404
v -0.03679222 0.04293623 0.03001205
v -0.02674802 0.03354933 0.00797362
v -0.03844107 0.03100329 0.00797362
v -0.04678604 0.02847498 0.00797362
v -0.04010479 0.03649840 0.02535830
v 0.03268360 0.03239020 0.00797362
v 0.04679494 0.02846486 0.00797362
v 0.04556747 0.02968979 0.01340001
v -0.04603490 0.02922917 0.01172797
v -0.04443873 0.03090712 0.01667346
v 0.04466061 -0.00452725 0.01615578
v -0.04466086 -0.00452725 0.01615578
v 0.04673082 -0.00451713 0.00797362
v -0.04672192 -0.00451713 0.00797362
v 0.03578936 0.04763676 -0.03123253
v 0.03541683 -0.00451704 -0.03162358
v 0.03506249 0.04763676 -0.03004479
v 0.04635625 0.02885139 -0.01010166
v 0.04548401 0.02979602 -0.01366489
v 0.04322162 0.03225716 -0.01968401
v 0.04130449 0.03467235 -0.02341170
v 0.03925108 -0.00451704 -0.02673373
v 0.03100109 -0.00451704 -0.03598351
v 0.03100109 0.04763676 -0.03597986
v 0.03810172 0.03135083 -0.01010166
v 0.04483891 -0.00451704 -0.01566761
v 0.04245840 -0.00451704 -0.02128838
v 0.02603110 -0.00451704 -0.03971485
v 0.02604928 0.04763676 -0.03971485
v 0.01429667 0.03550720 -0.01010166
v 0.02651720 0.03390388 -0.01010166
v -0.03507156 0.04763676 -0.03004479
v 0.00147419 0.03613780 -0.01010166
v 0.04641077 -0.00451704 -0.01010166
v 0.01488271 -0.00451704 -0.04510538
v 0.02064317 -0.00451704 -0.04277740
v -0.03592563 -0.00451704 -0.03104250
v 0.00270761 -0.00451704 -0.04743336
v 0.00886784 -0.00451704 -0.04666224
v 0.02065225 0.04763676 -0.04277740
v -0.03577117 0.04763676 -0.03124350
v -0.04641075 0.02886160 -0.01010166
v -0.03244119 0.03273969 -0.01010166
v -0.02036149 0.03484085 -0.01010166
v -0.01117565 0.03577017 -0.01010166
v -0.04640166 -0.00451704 -0.01010166
v 0.00886784 0.04763676 -0.04666589
v 0.01488271 0.04763676 -0.04510538
v -0.03158257 -0.00451704 -0.03547186
v -0.02667619 -0.00451704 -0.03928361
v -0.02132459 -0.00451704 -0.04243387
v -0.01560956 -0.00451704 -0.04485687
v -0.00962196 -0.00451704 -0.04651240
v -0.00347080 -0.00451704 -0.04737489
v -0.00347080 0.04763676 -0.04737489
v 0.00269852 0.04763676 -0.04742970
v -0.03159166 0.04763676 -0.03546821
v -0.04137944 0.03463023 -0.02319882
v -0.04443003 0.03091809 -0.01670186
v -0.04509330 -0.00452725 -0.01492938
v -0.04275822 -0.00451704 -0.02068537
v -0.03965085 -0.00451704 -0.02611793
v -0.02654898 0.04763676 -0.03937132
v -0.02133368 0.04763676 -0.04243387
v -0.01562773 0.04763676 -0.04485687
v -0.00962196 0.04763676 -0.04651240
v 0.03040404 0.09146835 0.03310008
v 0.03040404 0.09146835 0.03150181
v -0.00986641 0.09146835 0.03310008
v 0.03040404 0.08831520 0.03310008
v 0.03040840 0.07918420 0.03309993
v 0.03040840 0.08831520 0.03309977
v 0.03040404 0.08831520 0.03150181
v -0.00986641 0.09146835 0.03150181
v 0.03040840 0.08831520 0.03150196
v -0.01411091 0.08831520 0.03309977
v -0.01411091 0.07918420 0.03309993
v -0.00986641 0.08831520 0.03310008
v 0.03040840 0.05614752 0.03309993
v 0.03040840 0.05614752 0.03150196
v -0.00986641 0.08831520 0.03150181
v -0.01411091 0.08831520 0.03150196
v -0.01411091 0.05614752 0.03309993
v -0.01411091 0.05614752 0.03150196
v 0.01139065 -0.00452340 -0.00498973
v 0.01139419 -0.00451946 -0.01010406
v 0.04717852 -0.00452340 -0.00498973
v 0.01139065 -0.00452340 -0.00001161
v 0.01139065 0.03492264 -0.00498973
v 0.04641128 -0.00451946 -0.01010406
v 0.01139419 0.03294383 -0.01010406
v 0.04735883 -0.00452340 -0.00266165
v 0.04645371 -0.00451946 -0.00994838
v 0.04666938 0.02860386 -0.00884980
v 0.04711841 0.02812690 -0.00559828
v 0.04717852 -0.00445639 -0.00498973
v 0.04735883 0.02783914 -0.00266342
v 0.04751086 -0.00452340 -0.00001161
v 0.01139065 -0.00451946 0.00796859
v 0.01139065 0.03539960 0.00796859
v 0.01139419 0.03574648 -0.01008991
v 0.04641482 -0.00306097 -0.01010406
v 0.01177604 0.03572678 -0.01010406
v 0.04646078 0.02881278 -0.00992008
v 0.04717144 0.02807171 -0.00498973
v 0.04641482 0.02886008 -0.01010406
v 0.04678959 0.02847378 0.00796859
v 0.04750733 0.02760658 -0.00001161
v 0.04751086 0.02752380 -0.00001161
v 0.04713609 0.02810719 0.00541408
v 0.04715730 0.02807960 0.00509565
v 0.04750733 0.02760658 -0.00000276
v 0.04717852 -0.00451946 0.00496297
v 0.04716084 -0.00451946 0.00509565
v 0.04673656 -0.00451946 0.00796859
v 0.01208011 0.03535230 0.00796859
v 0.01207303 0.03570312 -0.01010406
v 0.04043603 0.03074428 -0.01010406
v 0.04175836 0.03010176 0.00796859
v 0.04716791 0.00511835 0.00509565
v 0.04716791 0.00512230 0.00509565
v 0.01689920 0.03526952 -0.01010406
v 0.01782200 0.03483198 0.00796859
v 0.04118558 0.03027520 0.00796859
v 0.03588565 0.03196231 -0.01010406
v 0.02405536 0.03433530 -0.01010406
v 0.02349319 0.03410667 0.00796859
v 0.03533408 0.03182041 0.00796859
v 0.03554622 0.03203721 -0.01010406
v 0.02587268 0.03370067 0.00796859
v 0.02869059 0.03353117 -0.01010406
v 0.02906184 0.03346415 -0.01010406
v 0.03238182 0.03246687 0.00796859
v 0.03002000 0.03297537 0.00796859
v -0.00779933 -0.00452409 -0.01009819
v -0.00779933 -0.00452409 0.00033761
v -0.00779933 0.03591106 -0.01009819
v 0.01139065 -0.00452409 -0.01009819
v 0.00000177 -0.00850727 -0.00796010
v -0.00345266 -0.00850727 -0.00717136
v -0.00622145 -0.00850727 -0.00496076
v -0.00775988 -0.00850727 -0.00177042
v -0.00779933 -0.00451972 0.00796859
v -0.00775988 -0.00850727 0.00033584
v -0.00779933 0.03557439 0.00796859
v -0.00414955 0.03573616 0.00796859
v 0.00000365 0.03616028 -0.01009819
v 0.00775966 -0.00850727 -0.00177042
v 0.00622123 -0.00850727 -0.00496076
v 0.00345243 -0.00850727 -0.00717136
v 0.01139065 0.03295975 -0.01009819
v 0.01139065 -0.00452409 0.00033761
v 0.01138690 -0.00451972 0.00796859
v -0.00775988 -0.00850289 0.00177007
v -0.00622145 -0.00850289 0.00496218
v -0.00345266 -0.00850289 0.00717101
v 0.00000177 -0.00850289 0.00796152
v 0.00775966 -0.00850727 0.00033584
v -0.00173390 0.03577552 0.00796859
v 0.00280438 0.03613405 -0.01009819
v 0.00000365 0.03578863 0.00796859
v 0.00315001 0.03611656 -0.01009819
v 0.01139065 0.03575366 -0.01008935
v 0.01139065 -0.00059775 0.00796859
v 0.00345243 -0.00850289 0.00717101
v 0.00622123 -0.00850289 0.00496218
v 0.00775966 -0.00850289 0.00177007
v 0.00241554 0.03575366 0.00796859
v 0.00868948 0.03555690 0.00796859
v 0.01110138 0.03543010 0.00796859
v 0.01139065 0.03540824 0.00796859
v -0.04751126 -0.00452726 -0.00000038
v -0.04730135 -0.00452330 -0.00343982
v -0.04646560 -0.00452330 -0.00988193
v -0.04640729 -0.00452330 -0.01009767
v -0.04750348 -0.00452726 -0.00000745
v -0.04718085 -0.00452726 0.00496338
v -0.04737910 0.02782030 0.00232500
v -0.04751126 0.02761444 -0.00000038
v -0.04740241 0.02778071 -0.00187483
v -0.04702536 0.02823994 -0.00642657
v -0.04646948 0.02881396 -0.00986778
v -0.04641506 0.02886939 -0.01009767
v -0.00779933 -0.00452330 -0.01009767
v -0.00779933 -0.00452726 -0.00000745
v -0.04674548 -0.00452726 0.00796781
v -0.04699815 0.02827161 0.00666630
v -0.04678046 0.02849330 0.00796781
v -0.04457640 0.02920985 0.00796781
v -0.04171929 0.03038166 -0.01009767
v -0.00779933 0.03591610 -0.01009767
v -0.00779933 -0.00452726 0.00796781
v -0.04678046 0.01527478 0.00796781
v -0.04095351 0.03034999 0.00796781
v -0.04080579 0.03065086 -0.01009767
v -0.01032603 0.03583692 -0.01009767
v -0.00779933 0.03557960 0.00796781
v -0.03593121 0.03168807 0.00796781
v -0.03495162 0.03220272 -0.01009767
v -0.01049707 0.03582900 -0.01009767
v -0.00948250 0.03550834 0.00796781
v -0.02943176 0.03310533 0.00796781
v -0.03029861 0.03322805 -0.01009767
v -0.01207139 0.03571816 -0.01009767
v -0.01189647 0.03538166 0.00796781
v -0.02408682 0.03402774 0.00796781
v -0.02312667 0.03449092 -0.01009767
v -0.02998763 0.03329536 -0.01009767
v -0.01208306 0.03536582 0.00796781
v -0.01747464 0.03522330 -0.01009767
v -0.01736580 0.03489472 0.00796781
v -0.01764568 0.03520747 -0.01009767
f 1 2 3
f 1 3 4
f 1 4 5
f 1 5 7
f 1 7 6
f 1 6 24
f 1 24 38
f 1 38 39
f 1 39 21
f 4 3 8
f 4 8 5
f 6 7 9
f 5 10 7
f 7 10 11
f 3 2 12
f 8 3 13
f 5 14 15
f 6 9 16
f 6 16 17
f 7 11 9
f 9 11 18
f 9 18 16
f 5 15 10
f 10 19 11
f 11 19 20
f 1 21 2
f 2 21 12
f 12 13 3
f 8 13 14
f 8 14 5
f 16 22 23
f 16 23 17
f 17 24 6
f 18 22 16
f 15 19 10
f 12 21 27
f 12 27 13
f 14 28 15
f 15 29 19
f 17 31 32
f 17 32 24
f 11 20 25
f 11 25 18
f 25 26 18
f 18 26 22
f 20 19 34
f 20 34 33
f 20 33 25
f 27 36 35
f 27 35 13
f 13 28 14
f 28 29 15
f 22 26 30
f 22 30 23
f 30 37 31
f 30 31 23
f 23 31 17
f 24 32 38
f 25 33 26
f 26 37 30
f 27 21 39
f 36 40 41
f 36 41 35
f 35 28 13
f 35 41 28
f 29 28 42
f 29 34 19
f 37 43 31
f 31 43 32
f 38 32 44
f 38 44 45
f 26 46 37
f 26 33 46
f 27 39 36
f 36 39 40
f 28 47 42
f 28 41 47
f 29 42 34
f 43 37 44
f 43 44 32
f 44 48 45
f 45 48 49
f 33 34 46
f 39 38 50
f 39 50 40
f 40 50 47
f 40 47 41
f 47 50 51
f 47 51 42
f 34 42 46
f 42 52 46
f 42 51 52
f 38 45 49
f 38 49 50
f 37 46 44
f 44 46 48
f 48 52 49
f 50 49 52
f 50 52 51
f 48 46 52
f 53 56 64
f 53 64 75
f 53 75 90
f 53 90 96
f 53 96 92
f 53 92 84
f 53 84 69
f 53 69 57
f 53 57 54
f 53 54 55
f 55 58 53
f 53 58 56
f 57 70 87
f 57 87 60
f 57 60 54
f 54 59 55
f 54 60 61
f 54 61 59
f 55 62 58
f 55 63 62
f 59 63 55
f 61 65 66
f 61 66 59
f 59 67 63
f 58 68 56
f 56 68 64
f 57 69 70
f 63 71 62
f 60 73 61
f 61 73 65
f 66 67 59
f 67 71 63
f 58 62 68
f 68 74 64
f 64 74 76
f 64 76 75
f 70 69 77
f 72 78 73
f 72 73 60
f 73 79 65
f 66 65 80
f 66 80 81
f 66 81 67
f 67 81 71
f 62 82 68
f 76 83 75
f 69 84 77
f 77 84 85
f 62 71 82
f 71 81 82
f 72 86 78
f 73 78 79
f 60 87 72
f 79 80 65
f 80 88 81
f 68 82 74
f 74 82 76
f 76 89 83
f 75 83 90
f 83 91 90
f 84 92 93
f 84 93 85
f 82 81 88
f 79 94 80
f 89 91 83
f 91 95 90
f 92 96 93
f 93 97 98
f 93 98 85
f 85 98 77
f 88 89 82
f 86 72 99
f 86 99 100
f 86 100 101
f 86 101 78
f 78 94 79
f 94 88 80
f 88 94 89
f 82 89 76
f 97 93 102
f 98 97 100
f 72 87 99
f 100 99 98
f 101 103 78
f 78 103 94
f 94 103 89
f 91 89 103
f 91 103 104
f 91 104 95
f 90 95 102
f 90 102 96
f 95 104 102
f 96 102 93
f 102 104 97
f 97 101 100
f 77 87 70
f 101 97 103
f 104 103 97
f 77 98 99
f 77 99 87
f 105 106 107
f 105 107 108
f 105 108 109
f 106 105 110
f 107 111 108
f 109 116 141
f 109 141 148
f 109 148 149
f 109 149 155
f 109 155 156
f 109 156 146
f 109 146 145
f 109 145 144
f 109 144 117
f 106 112 107
f 106 110 121
f 106 121 112
f 110 105 113
f 107 112 114
f 107 114 111
f 111 115 108
f 108 116 109
f 109 117 105
f 105 117 118
f 105 118 119
f 105 119 113
f 112 120 114
f 112 121 122
f 112 122 120
f 110 113 121
f 114 120 123
f 114 123 111
f 111 123 115
f 108 115 124
f 113 119 125
f 118 117 126
f 118 126 119
f 120 127 128
f 120 129 130
f 120 130 131
f 120 131 132
f 120 132 123
f 120 122 154
f 120 154 153
f 120 153 127
f 121 133 122
f 122 133 125
f 122 125 134
f 122 134 135
f 122 135 136
f 122 136 137
f 113 133 121
f 113 125 133
f 123 132 115
f 115 132 131
f 115 131 124
f 124 138 108
f 124 139 140
f 124 140 138
f 108 138 116
f 116 138 141
f 119 126 143
f 119 143 142
f 117 144 126
f 126 144 145
f 126 145 146
f 126 146 143
f 125 119 134
f 134 119 135
f 135 142 136
f 137 136 143
f 137 147 122
f 138 148 141
f 138 140 149
f 138 149 148
f 124 131 139
f 140 128 150
f 140 150 149
f 142 135 119
f 143 146 151
f 143 151 152
f 143 152 147
f 146 156 151
f 120 128 140
f 120 140 129
f 129 140 130
f 130 140 139
f 130 139 131
f 143 147 137
f 150 155 149
f 143 136 142
f 152 122 147
f 153 128 127
f 122 152 154
f 128 153 150
f 156 154 151
f 151 154 152
f 155 150 153
f 154 156 155
f 154 155 153
f 157 166 171
f 157 171 182
f 157 182 190
f 157 190 189
f 157 189 198
f 157 198 197
f 157 197 208
f 157 208 207
f 157 207 206
f 157 206 205
f 157 205 199
f 157 199 183
f 157 183 174
f 157 174 159
f 157 159 160
f 157 160 161
f 157 161 162
f 157 162 163
f 157 163 164
f 157 164 158
f 158 165 166
f 158 166 157
f 160 167 173
f 160 173 172
f 160 172 175
f 160 175 187
f 160 187 186
f 160 186 185
f 160 185 184
f 160 184 188
f 160 188 176
f 160 159 167
f 162 161 168
f 164 163 169
f 164 169 165
f 164 165 158
f 159 172 173
f 159 173 167
f 159 174 175
f 159 175 172
f 160 176 161
f 168 169 162
f 162 169 163
f 169 168 165
f 165 168 176
f 165 176 202
f 165 202 179
f 165 177 178
f 165 178 170
f 165 179 180
f 165 180 181
f 165 181 177
f 165 170 171
f 165 171 166
f 174 183 184
f 174 184 185
f 174 185 186
f 174 186 187
f 174 187 175
f 176 168 161
f 176 188 202
f 177 189 190
f 177 190 182
f 177 182 178
f 177 181 189
f 178 182 170
f 179 191 192
f 179 192 193
f 179 193 194
f 179 194 195
f 179 195 196
f 179 196 180
f 180 196 197
f 180 197 198
f 180 198 189
f 180 189 181
f 170 182 171
f 183 199 191
f 183 191 179
f 183 200 201
f 183 201 184
f 188 184 202
f 179 202 203
f 179 203 204
f 179 204 183
f 191 199 192
f 192 205 193
f 193 206 207
f 193 207 194
f 194 207 195
f 195 207 208
f 195 208 196
f 196 208 197
f 199 205 192
f 183 204 200
f 200 203 201
f 184 201 202
f 202 201 203
f 203 200 204
f 193 205 206
f 209 210 216
f 209 216 211
f 209 211 220
f 209 220 212
f 209 212 221
f 209 221 213
f 209 213 214
f 209 214 217
f 209 217 210
f 210 215 223
f 210 223 216
f 210 217 222
f 210 222 215
f 211 216 224
f 211 224 218
f 211 218 219
f 211 219 225
f 211 225 220
f 212 220 225
f 212 225 221
f 213 221 222
f 213 222 217
f 213 217 214
f 215 222 226
f 215 226 223
f 216 223 226
f 216 226 224
f 218 224 226
f 218 226 225
f 218 225 219
f 221 225 226
f 221 226 222
f 227 228 232
f 227 232 229
f 227 229 234
f 227 234 240
f 227 240 230
f 227 230 241
f 227 241 242
f 227 242 231
f 227 231 233
f 227 233 228
f 228 233 245
f 228 245 259
f 228 259 264
f 228 264 268
f 228 268 273
f 228 273 274
f 228 274 271
f 228 271 267
f 228 267 260
f 228 260 248
f 228 248 244
f 228 244 232
f 229 232 235
f 229 235 236
f 229 236 237
f 229 237 238
f 229 238 239
f 229 239 234
f 230 240 257
f 230 257 241
f 231 242 243
f 231 243 233
f 232 244 235
f 233 243 245
f 234 239 240
f 235 244 248
f 235 248 246
f 235 246 236
f 236 247 237
f 236 246 248
f 236 248 249
f 236 249 247
f 237 247 238
f 238 247 239
f 239 250 251
f 239 251 240
f 239 247 252
f 239 252 253
f 239 253 254
f 239 254 250
f 240 255 256
f 240 256 257
f 240 251 255
f 241 257 249
f 241 249 261
f 241 261 266
f 241 266 270
f 241 270 275
f 241 275 276
f 241 276 272
f 241 272 269
f 241 269 265
f 241 265 258
f 241 258 242
f 242 258 245
f 242 245 243
f 245 258 259
f 247 249 252
f 248 260 261
f 248 261 249
f 249 257 256
f 249 256 262
f 249 262 252
f 250 254 251
f 251 254 252
f 251 252 263
f 251 263 255
f 252 262 263
f 252 254 253
f 255 263 262
f 255 262 256
f 258 264 259
f 258 265 264
f 260 266 261
f 260 267 266
f 264 265 269
f 264 269 268
f 266 267 270
f 267 271 270
f 268 269 272
f 268 272 273
f 270 271 274
f 270 274 275
f 272 276 273
f 273 276 274
f 274 276 275
f 277 278 285
f 277 285 287
f 277 287 279
f 277 279 289
f 277 289 302
f 277 302 304
f 277 304 293
f 277 293 280
f 277 280 281
f 277 281 282
f 277 282 283
f 277 283 284
f 277 284 286
f 277 286 278
f 278 286 285
f 279 287 288
f 279 288 289
f 280 290 291
f 280 291 292
f 280 292 281
f 280 293 305
f 280 305 313
f 280 313 306
f 280 306 294
f 280 294 300
f 280 300 290
f 281 292 291
f 281 291 290
f 281 290 300
f 281 300 286
f 281 286 284
f 281 284 283
f 281 283 282
f 285 295 306
f 285 306 313
f 285 313 312
f 285 312 311
f 285 311 310
f 285 310 303
f 285 303 301
f 285 301 288
f 285 288 287
f 285 286 296
f 285 296 297
f 285 297 298
f 285 298 299
f 285 299 295
f 286 300 299
f 286 299 298
f 286 298 297
f 286 297 296
f 288 301 289
f 289 301 303
f 289 303 302
f 293 304 305
f 294 306 295
f 294 295 300
f 295 299 307
f 295 307 308
f 295 308 309
f 295 309 300
f 299 300 307
f 300 309 308
f 300 308 307
f 302 303 310
f 302 310 311
f 302 311 305
f 302 305 304
f 305 311 312
f 305 312 313
f 314 315 316
f 314 316 317
f 314 317 318
f 314 318 327
f 314 327 334
f 314 334 328
f 314 328 319
f 314 319 320
f 314 320 321
f 314 321 322
f 314 322 315
f 315 322 323
f 315 323 316
f 316 323 324
f 316 324 325
f 316 325 317
f 317 326 327
f 317 327 318
f 317 325 332
f 317 332 337
f 317 337 341
f 317 341 345
f 317 345 350
f 317 350 349
f 317 349 354
f 317 354 352
f 317 352 346
f 317 346 342
f 317 342 338
f 317 338 333
f 317 333 326
f 319 328 329
f 319 329 320
f 320 329 323
f 320 323 322
f 320 322 321
f 323 329 324
f 324 329 330
f 324 330 325
f 325 330 331
f 325 331 332
f 326 333 339
f 326 339 334
f 326 334 327
f 328 334 339
f 328 339 343
f 328 343 347
f 328 347 351
f 328 351 353
f 328 353 348
f 328 348 344
f 328 344 340
f 328 340 336
f 328 336 331
f 328 331 330
f 328 330 335
f 328 335 329
f 329 335 330
f 331 336 332
f 332 336 337
f 333 338 339
f 336 340 337
f 337 340 341
f 338 342 343
f 338 343 339
f 340 344 345
f 340 345 341
f 342 346 347
f 342 347 343
f 344 348 349
f 344 349 350
f 344 350 345
f 346 351 347
f 346 352 353
f 346 353 351
f 348 353 354
f 348 354 349
f 352 354 353

