# https://github.com/mikedh/trimesh
v -0.04728135 -0.00390798 -0.00020073
v -0.04213651 0.07351111 0.03091946
v -0.04392977 0.09878590 -0.00308970
v -0.04241259 0.07339793 -0.02992556
v -0.03520692 -0.02479083 0.01994950
v -0.02764462 -0.00934498 0.03287137
v -0.03373294 -0.02989170 -0.01153293
v -0.02976878 0.10269880 0.02523328
v -0.02971523 0.09365835 -0.03284637
v -0.03179819 0.11061934 -0.00599418
v -0.02971999 0.07872884 0.03818451
v 0.00240063 -0.03864237 0.02948086
v -0.02166604 -0.02607851 -0.03232418
v 0.03410237 0.07433705 0.03704349
v 0.03017535 0.07301078 -0.03858657
v 0.03695184 -0.00913279 0.02913732
v 0.03565652 -0.01494218 -0.02911812
v 0.00080996 -0.03984160 -0.02466616
v 0.03148912 0.09792109 -0.02890193
v -0.01324411 -0.04484842 0.00629067
v 0.02977551 0.10426655 0.02343573
v 0.02958035 0.11291016 -0.00488455
v 0.03720501 -0.02909985 0.01171058
v 0.04397049 0.07351111 -0.02796525
v 0.02584254 -0.03823932 -0.00515938
v 0.04633205 0.07354288 0.02216321
v 0.04662598 0.10004451 -0.00024841
v 0.02932207 0.05741483 0.01066301
v 0.02932207 0.05741483 0.01390534
v 0.02932207 0.05913510 0.01066301
v 0.04770393 0.05741483 0.01066301
v 0.02934558 0.05741483 0.01390979
v 0.02932207 0.05744717 0.01390979
v 0.02932207 0.05913510 0.01390979
v 0.04779254 0.05913510 0.01066301
v 0.04770755 0.05746232 0.01066301
v 0.04746342 0.05741483 0.01208745
v 0.04708910 0.05741483 0.01390979
v 0.04722291 0.05913510 0.01390979
v 0.04757012 0.05913510 0.01208745
v 0.04779074 0.05907465 0.01066301
v 0.04756650 0.05907465 0.01208745
v 0.04746704 0.05746838 0.01208745
v 0.04726631 0.05907465 0.01369368
v 0.04714515 0.05746838 0.01369368
v 0.04713973 0.05741483 0.01369368
v 0.04713069 0.05741483 0.01373626
v 0.04709452 0.05747495 0.01390979
v 0.04722472 0.05913510 0.01390153
v 0.04726993 0.05913510 0.01369368
v -0.02100708 0.01780404 0.03076353
v -0.01927925 0.01780404 0.03076353
v -0.01927925 0.01780404 0.03142863
v -0.02007170 0.01878648 0.03076353
v -0.01927925 0.01958246 0.03076353
v -0.01995668 0.01890626 0.03076353
v -0.02002113 0.01883923 0.03076353
f 2 3 1
f 1 3 4
f 2 1 5
f 1 4 7
f 2 8 3
f 1 7 5
f 4 3 9
f 5 6 2
f 6 11 2
f 8 2 11
f 13 4 9
f 3 8 10
f 12 6 5
f 11 6 14
f 4 13 7
f 14 6 16
f 15 17 13
f 10 9 3
f 13 9 15
f 13 17 18
f 12 16 6
f 9 19 15
f 7 13 18
f 11 14 8
f 5 7 20
f 14 21 8
f 10 22 19
f 10 19 9
f 17 15 24
f 18 17 25
f 8 21 10
f 5 20 12
f 16 12 23
f 10 21 22
f 14 16 26
f 15 19 24
f 12 25 23
f 12 20 25
f 21 14 26
f 17 24 23
f 17 23 25
f 23 26 16
f 7 18 20
f 22 27 19
f 22 21 27
f 25 20 18
f 27 24 19
f 26 27 21
f 24 27 23
f 26 23 27
f 28 29 33
f 28 33 34
f 28 34 30
f 28 30 35
f 28 35 41
f 28 41 36
f 28 36 31
f 28 31 37
f 28 37 46
f 28 46 47
f 28 47 38
f 28 38 32
f 28 32 29
f 29 32 33
f 30 34 39
f 30 39 49
f 30 49 50
f 30 50 40
f 30 40 35
f 31 36 37
f 32 38 48
f 32 48 39
f 32 39 34
f 32 34 33
f 35 40 41
f 36 41 40
f 36 40 42
f 36 42 43
f 36 43 37
f 37 43 44
f 37 44 45
f 37 45 46
f 38 47 48
f 39 48 45
f 39 45 44
f 39 44 49
f 40 50 44
f 40 44 42
f 42 44 43
f 44 50 49
f 45 48 47
f 45 47 46
f 51 52 53
f 51 53 54
f 51 54 57
f 51 57 56
f 51 56 55
f 51 55 52
f 52 55 53
f 53 55 56
f 53 56 57
f 53 57 54

