# https://github.com/mikedh/trimesh
v 0.02735105 -0.00876209 0.03709025
v 0.02757405 0.00858747 0.03757339
v -0.02769936 0.00997051 0.03708255
v -0.03075539 -0.01170634 0.03453501
v 0.00399917 0.06667304 0.02560757
v 0.03018531 -0.02325947 0.02731010
v -0.03751485 0.01317640 0.01928348
v 0.02995317 0.01993129 0.03024838
v 0.02144705 0.06608816 0.01494680
v -0.01713969 0.06611201 0.02081373
v -0.03529582 -0.02485397 0.01407496
v 0.02878313 -0.03522526 0.00669665
v 0.02403215 0.06662601 -0.00882773
v -0.00529006 -0.02251314 0.03166001
v 0.02796607 -0.03183324 -0.02141936
v 0.02722854 0.00820595 -0.03768048
v -0.02169845 0.06737727 -0.01126726
v -0.03754102 0.02093678 -0.00783523
v -0.02723591 -0.03344413 0.01928733
v 0.02789755 -0.01882090 -0.03336978
v -0.02775418 -0.03848877 -0.00000350
v -0.00004438 0.06462961 -0.02738350
v -0.03535396 -0.02313602 -0.01565480
v -0.01968555 0.03825885 -0.03039686
v -0.03322338 0.01675157 -0.02987907
v -0.02740534 -0.02720060 -0.02589199
v -0.02831895 -0.00776522 -0.03752649
v -0.02405224 0.00176911 -0.00219946
v -0.02405224 0.00233026 -0.00219946
v -0.02324829 0.00176911 -0.00219946
v -0.02405224 0.00176911 0.02874239
v -0.02324829 0.00240725 -0.00219946
v -0.02405224 0.00263036 -0.00219643
v -0.02324829 0.00176911 0.02874239
v -0.02405224 0.00263036 0.02874239
v -0.02324829 0.00263036 -0.00219643
v -0.02324829 0.00263036 0.02874239
v 0.01289122 -0.00445053 0.01819015
v 0.01289122 -0.00538055 0.01819015
v 0.01289122 -0.00445053 -0.02434235
v -0.01902654 -0.00445053 0.01819015
v -0.01902654 -0.00538055 0.01819015
v 0.01289122 -0.00538055 -0.02434235
v -0.01902654 -0.00445053 -0.02434235
v -0.01902654 -0.00538055 -0.02434235
f 1 2 3
f 1 3 4
f 2 5 3
f 1 6 2
f 3 7 4
f 2 8 9
f 2 9 5
f 3 5 10
f 7 18 23
f 7 23 11
f 7 11 4
f 6 8 2
f 6 12 8
f 1 14 6
f 12 15 8
f 8 13 9
f 3 10 7
f 14 1 4
f 8 15 16
f 5 13 17
f 8 16 13
f 17 10 5
f 11 19 4
f 4 19 14
f 5 9 13
f 15 20 16
f 17 13 22
f 17 7 10
f 22 13 16
f 22 24 17
f 7 17 18
f 11 21 19
f 15 12 21
f 18 17 25
f 6 14 19
f 19 12 6
f 23 21 11
f 12 19 21
f 25 27 18
f 21 23 26
f 20 15 26
f 25 17 24
f 18 27 23
f 16 20 27
f 22 16 24
f 25 24 27
f 23 27 26
f 16 27 24
f 21 26 15
f 27 20 26
f 28 29 32
f 28 32 30
f 28 30 34
f 28 34 31
f 28 31 35
f 28 35 33
f 28 33 29
f 29 33 32
f 30 32 36
f 30 36 37
f 30 37 34
f 31 34 37
f 31 37 35
f 32 33 36
f 33 35 37
f 33 37 36
f 38 39 43
f 38 43 40
f 38 40 44
f 38 44 41
f 38 41 42
f 38 42 39
f 39 42 45
f 39 45 43
f 40 43 45
f 40 45 44
f 41 44 45
f 41 45 42

