# https://github.com/mikedh/trimesh
v 0.00000043 0.14191009 0.24696397
v -0.03732005 0.14154382 0.30805526
v 0.01355636 0.14129026 0.32841460
v -0.11883742 0.13179547 0.21937223
v 0.11900489 0.13185182 0.21937223
v 0.15270540 -0.10546136 0.21935899
v -0.15290524 -0.09508965 0.21936560
v 0.15064551 0.09881731 0.22449187
v -0.14878165 -0.09166998 0.22943268
v -0.14821367 0.10349427 0.22450843
v -0.01472178 0.12275148 0.35249611
v 0.04883209 0.12113145 0.33323620
v 0.14267855 -0.11233592 0.22961813
v 0.14910057 -0.08483768 0.22979695
v -0.04881609 0.12113145 0.33322958
v -0.04883124 -0.11945701 0.33325274
v 0.02485550 0.11714477 0.34911833
v 0.04712056 -0.12115451 0.33481248
v -0.13781573 -0.11740027 0.22961150
v -0.03395757 -0.12228150 0.34540941
v 0.11880798 -0.13183263 0.21935899
v 0.02431023 -0.12239419 0.34894614
v 0.03732090 -0.14014408 0.31485052
v -0.11897375 -0.13187489 0.21935899
v -0.01355551 -0.14129923 0.32841460
v -0.00128322 -0.11377986 0.35446150
v 0.00000043 -0.14191907 0.24695073
v 0.19013965 0.27915146 0.04659268
v -0.00783573 0.27290052 0.19718137
v -0.19337621 0.27952017 0.04747585
v 0.31496857 0.24291829 -0.00276222
v 0.17483969 0.16803341 0.24772982
v -0.22746296 0.17311963 0.21457211
v 0.27772167 0.23598751 0.16282749
v -0.31141471 0.24042021 -0.00282178
v -0.18673025 -0.17318445 0.24776701
v -0.26202860 0.24977132 0.16157555
v 0.27179830 -0.23375047 -0.00201280
v 0.34091492 -0.03061694 0.04674452
v -0.30072804 -0.21596936 -0.00260778
v -0.34119188 -0.11257711 0.04818858
v -0.30471057 0.03133261 0.19926069
v 0.20016318 -0.20031098 0.21333257
v 0.30754024 -0.00000485 0.19801185
v 0.31940382 0.15795745 0.16241225
v 0.31497177 -0.22381923 0.05326063
v -0.16162521 -0.26559103 0.17974102
v 0.05703580 -0.27322380 0.19492850
v -0.17987426 -0.27942997 0.03813591
v -0.28620946 -0.23187587 0.16293286
v -0.30941566 0.19313370 0.16262916
v -0.31595238 -0.17442501 0.16232549
v 0.31933656 -0.15824283 0.16236267
v 0.27295775 -0.24535643 0.16295765
v -0.27106880 -0.11859124 0.04529123
v -0.20088137 -0.12504149 0.04459711
v -0.20080814 -0.12607571 0.04459711
v -0.19103364 -0.13633626 0.04459711
v -0.18793284 -0.13903066 0.04459711
v -0.27106880 -0.11478096 0.05246740
v -0.27106880 0.11878910 0.04529123
v -0.20088137 0.12504884 0.04459711
v -0.18792470 -0.13535647 0.04459711
v -0.18792470 -0.13535647 0.04534208
v -0.18792470 -0.13111072 0.05246586
v -0.25432767 -0.10800411 0.05246740
v -0.27106880 0.11478831 0.05246740
v -0.18792470 0.13901079 0.04459711
v -0.18792470 0.13100922 0.05246586
v -0.25432767 0.10798424 0.05246740
v 0.18768804 0.12660472 0.05246740
v 0.18761540 0.12660472 0.07033467
v 0.23246711 0.10594315 0.05246740
v -0.13854925 0.12660472 0.05246740
v 0.18750645 0.12660472 0.07712654
v 0.23246711 0.10587440 0.07871437
v 0.23246711 -0.10593233 0.05246740
v -0.13854925 -0.11995880 0.05246740
v -0.13854925 0.12660472 0.07871437
v 0.18743380 0.12660472 0.07871437
v 0.20021746 -0.13931397 0.08605196
v 0.23246711 -0.10589795 0.07871437
v 0.19633150 -0.22453858 0.05246740
v -0.13854925 -0.11995880 0.07871437
v -0.13851294 -0.22453858 0.05246740
v -0.13851294 -0.22450421 0.07871108
v -0.13847662 -0.22453858 0.07871108
v 0.18202255 -0.22453858 0.07871108
v 0.19596835 -0.22453858 0.07870780
v -0.13851294 -0.22453858 0.07835276
f 1 2 3
f 3 5 1
f 2 1 4
f 1 5 4
f 6 5 8
f 6 21 24
f 6 24 7
f 6 7 5
f 5 7 4
f 7 10 4
f 3 12 5
f 5 12 8
f 8 14 6
f 6 14 13
f 2 15 3
f 4 15 2
f 9 10 7
f 10 15 4
f 3 11 17
f 8 12 14
f 14 12 18
f 14 18 13
f 3 15 11
f 7 19 9
f 9 19 16
f 9 16 15
f 9 15 10
f 3 17 12
f 12 17 18
f 6 13 21
f 7 24 19
f 16 19 25
f 16 20 15
f 11 26 17
f 17 26 22
f 11 20 26
f 18 17 22
f 13 18 23
f 13 23 21
f 20 16 25
f 15 20 11
f 18 22 23
f 19 24 25
f 26 20 22
f 22 25 23
f 21 23 27
f 24 27 25
f 23 25 27
f 22 20 25
f 21 27 24
f 28 30 29
f 28 29 34
f 31 35 28
f 30 28 35
f 32 29 33
f 32 34 29
f 32 33 36
f 30 37 29
f 34 31 28
f 31 38 40
f 31 40 35
f 29 37 33
f 31 39 38
f 36 33 42
f 32 36 43
f 32 44 34
f 38 39 46
f 35 40 41
f 35 37 30
f 32 43 44
f 36 47 48
f 36 48 43
f 44 45 34
f 42 51 52
f 44 53 45
f 49 40 38
f 39 53 46
f 42 52 36
f 36 52 50
f 51 41 52
f 43 54 44
f 36 50 47
f 45 39 31
f 45 31 34
f 38 48 49
f 40 50 41
f 35 41 51
f 37 51 33
f 33 51 42
f 47 49 48
f 45 53 39
f 46 54 38
f 41 50 52
f 51 37 35
f 48 54 43
f 38 54 48
f 49 50 40
f 47 50 49
f 53 54 46
f 53 44 54
f 55 56 57
f 55 57 58
f 55 58 59
f 55 59 60
f 55 60 67
f 55 67 61
f 55 61 62
f 55 62 56
f 56 62 68
f 56 68 63
f 56 63 59
f 56 59 58
f 56 58 57
f 59 63 64
f 59 64 65
f 59 65 60
f 60 65 66
f 60 66 70
f 60 70 67
f 61 67 68
f 61 68 62
f 63 68 69
f 63 69 65
f 63 65 64
f 65 69 70
f 65 70 66
f 67 70 69
f 67 69 68
f 71 72 73
f 71 73 77
f 71 77 83
f 71 83 85
f 71 85 78
f 71 78 74
f 71 74 79
f 71 79 80
f 71 80 75
f 71 75 72
f 72 75 76
f 72 76 73
f 73 76 82
f 73 82 77
f 74 78 84
f 74 84 79
f 75 80 76
f 76 81 82
f 76 80 81
f 77 82 83
f 78 85 90
f 78 90 84
f 79 84 81
f 79 81 80
f 81 84 86
f 81 86 87
f 81 87 88
f 81 88 89
f 81 89 82
f 82 89 83
f 83 89 88
f 83 88 87
f 83 87 90
f 83 90 85
f 84 90 86
f 86 90 87

