# https://github.com/mikedh/trimesh
v 0.05012479 -0.14854124 0.05581424
v -0.00079245 -0.00859722 0.04800096
v 0.03091812 -0.00803870 0.03722065
v 0.00151333 0.00105267 0.02428125
v 0.03184083 -0.20185803 0.05225229
v -0.01349460 0.00097639 -0.02364418
v -0.03144383 -0.00830244 0.03761497
v -0.02648871 -0.16184732 0.05363170
v 0.04858489 -0.00879890 0.00435994
v 0.05796824 -0.15517102 0.04971473
v 0.04448663 -0.00805422 -0.01907851
v -0.04721221 -0.00788873 0.00939921
v -0.04194884 -0.00805422 -0.02522214
v 0.02814249 -0.00765602 -0.03915837
v 0.00285089 -0.00860239 -0.04848688
v 0.06122050 -0.15882979 -0.00014714
v -0.00703438 -0.19958195 0.05093422
v 0.05382381 -0.15096147 -0.05399354
v -0.02722879 -0.17153342 -0.05230045
v -0.04769019 -0.10140885 -0.00000237
v 0.00594564 -0.12981163 -0.05632153
v 0.05637623 -0.17861083 -0.04300504
v 0.02548093 -0.20506495 -0.05242177
v -0.02721182 -0.18251623 -0.03405155
v 0.05105226 -0.19212604 0.03202559
v 0.00427919 -0.20700732 -0.03761643
v 0.03550794 -0.20494084 -0.03767486
v -0.02191958 -0.02902533 -0.04401363
v -0.02257506 -0.02902533 -0.04367769
v -0.02191958 -0.02823785 -0.04400986
v -0.02191958 -0.02902533 -0.04143895
v -0.02256702 -0.02726512 -0.04367164
v -0.02191958 -0.02726512 -0.04400507
v -0.02411031 -0.02902533 -0.04284424
v -0.02648379 -0.02902533 -0.04143895
v -0.02191958 -0.02727580 -0.04143895
v -0.02411031 -0.02726512 -0.04283290
v -0.02191958 -0.02726512 -0.04159773
v -0.02497177 -0.02902533 -0.04235330
v -0.02548784 -0.02726512 -0.04204810
v -0.02474791 -0.02726512 -0.04246974
v -0.02646323 -0.02726512 -0.04143895
v -0.02549722 -0.02902533 -0.04205339
v -0.02192405 -0.02726512 -0.04143895
v 0.01775152 -0.13811891 -0.03877301
v 0.01775152 -0.18080325 -0.03877301
v 0.01775152 -0.13811891 -0.03983247
v -0.03068323 -0.13811891 -0.03877301
v 0.01774678 -0.18120819 -0.03877301
v 0.01775152 -0.18120819 -0.03981796
v 0.01775152 -0.18120819 -0.03983247
v -0.03068323 -0.13811891 -0.03983247
v -0.03068323 -0.16813166 -0.03877301
v -0.02711795 -0.18120819 -0.03877301
v -0.02660591 -0.18120819 -0.03983247
v -0.03068323 -0.15653151 -0.03983247
v -0.03061211 -0.16857035 -0.03877301
v -0.03068323 -0.16630939 -0.03914085
v -0.03010481 -0.16832149 -0.03983247
v -0.02724121 -0.18092979 -0.03877301
v -0.02672917 -0.18092979 -0.03983247
v -0.03068323 -0.16210380 -0.03952260
v -0.03064056 -0.15793197 -0.03983247
v -0.03026127 -0.17046857 -0.03877301
v -0.02982035 -0.16996238 -0.03983247
v -0.03068323 -0.16497642 -0.03931031
v -0.03040350 -0.16512828 -0.03983247
v -0.03030868 -0.16636001 -0.03983247
v -0.02765368 -0.17858867 -0.03983247
v -0.02789548 -0.17925937 -0.03877301
v -0.03068323 -0.16419606 -0.03939183
v -0.03043669 -0.16419606 -0.03983247
v -0.02979190 -0.17262830 -0.03877301
v -0.02972079 -0.17046857 -0.03983247
v -0.02881999 -0.17465727 -0.03983247
v -0.03068323 -0.16457991 -0.03935978
v -0.02827477 -0.17682545 -0.03983247
v -0.02875835 -0.17674951 -0.03877301
v -0.02939365 -0.17434090 -0.03877840
v -0.02931780 -0.17465727 -0.03877301
f 2 3 4
f 2 5 1
f 2 1 3
f 4 7 2
f 2 7 8
f 2 8 5
f 3 9 4
f 3 1 10
f 4 11 6
f 4 9 11
f 6 12 4
f 5 10 1
f 10 9 3
f 12 7 4
f 6 14 15
f 6 15 13
f 6 13 12
f 9 10 16
f 6 11 14
f 8 17 5
f 11 18 14
f 14 18 15
f 13 15 19
f 13 20 12
f 8 7 20
f 9 16 11
f 11 16 18
f 15 18 21
f 15 21 19
f 12 20 7
f 21 18 23
f 5 25 10
f 16 22 18
f 21 23 19
f 8 20 24
f 8 24 17
f 10 25 16
f 16 25 22
f 18 22 23
f 19 20 13
f 17 26 5
f 5 27 25
f 25 27 22
f 20 19 24
f 17 24 26
f 23 24 19
f 5 26 27
f 22 27 23
f 23 27 26
f 26 24 23
f 28 29 30
f 28 30 33
f 28 33 38
f 28 38 36
f 28 36 31
f 28 31 35
f 28 35 43
f 28 43 39
f 28 39 34
f 28 34 29
f 29 32 33
f 29 33 30
f 29 34 32
f 31 36 44
f 31 44 42
f 31 42 35
f 32 34 37
f 32 37 41
f 32 41 40
f 32 40 42
f 32 42 44
f 32 44 38
f 32 38 33
f 34 39 40
f 34 40 41
f 34 41 37
f 35 42 40
f 35 40 43
f 36 38 44
f 39 43 40
f 45 46 50
f 45 50 51
f 45 51 47
f 45 47 52
f 45 52 48
f 45 48 53
f 45 53 57
f 45 57 64
f 45 64 73
f 45 73 80
f 45 80 78
f 45 78 70
f 45 70 60
f 45 60 54
f 45 54 49
f 45 49 46
f 46 49 50
f 47 51 55
f 47 55 61
f 47 61 69
f 47 69 77
f 47 77 75
f 47 75 74
f 47 74 65
f 47 65 59
f 47 59 68
f 47 68 67
f 47 67 72
f 47 72 63
f 47 63 56
f 47 56 52
f 48 52 56
f 48 56 62
f 48 62 71
f 48 71 76
f 48 76 66
f 48 66 58
f 48 58 53
f 49 54 55
f 49 55 51
f 49 51 50
f 53 58 59
f 53 59 57
f 54 60 61
f 54 61 55
f 56 63 62
f 57 59 65
f 57 65 64
f 58 66 67
f 58 67 68
f 58 68 59
f 60 69 61
f 60 70 69
f 62 63 72
f 62 72 71
f 64 65 74
f 64 74 75
f 64 75 73
f 66 76 67
f 67 76 71
f 67 71 72
f 69 70 77
f 70 78 77
f 73 79 80
f 73 75 79
f 75 77 80
f 75 80 79
f 77 78 80

