# https://github.com/mikedh/trimesh
v -0.01010060 -0.06275128 -0.03347410
v -0.00433564 -0.06275128 -0.03327081
v -0.03554378 -0.06445524 -0.02795266
v -0.03780773 -0.01541943 -0.02586081
v 0.03955348 -0.01541943 -0.02580507
v -0.03554378 -0.06445524 0.02794367
v -0.01752769 -0.06275128 -0.03249047
v 0.00253263 -0.06275128 -0.03198554
v 0.00698889 -0.06275128 -0.03061829
v 0.01033466 -0.06275128 -0.02909367
v 0.01198964 -0.06275128 -0.02684444
v 0.01405299 -0.06275128 -0.00000449
v 0.01194188 -0.06275128 0.02721579
v 0.00844087 -0.06275128 0.02998962
v 0.00165380 -0.06275128 0.03220606
v -0.00325621 -0.06275128 0.03310444
v -0.01020568 -0.06275128 0.03346511
v -0.01701663 -0.06275128 0.03255033
v -0.04350104 -0.06445524 0.02587477
v -0.04544498 -0.06445524 -0.02521489
v -0.04184845 -0.01541943 -0.02532309
v 0.03643458 -0.02311847 -0.02568376
v 0.03632473 -0.02439525 -0.02370011
v 0.03761909 -0.02545122 -0.00000449
v 0.04087651 -0.01541943 -0.02277222
v 0.03590441 -0.02545122 0.02190091
v 0.03670205 -0.02325767 0.02524197
v 0.03924303 -0.01741618 0.02575346
v 0.03916660 -0.01541943 0.02585838
v -0.03837133 -0.01541943 0.02584854
v -0.04184845 -0.01541943 0.02531410
v -0.04944272 -0.06445524 -0.02285091
v -0.04365388 -0.01541943 -0.02419848
v 0.04031291 -0.02050732 -0.00000449
v 0.04248134 -0.01541943 -0.00000449
v 0.04080964 -0.01541943 0.02276979
v -0.04365866 -0.01541943 0.02419605
v -0.04834417 -0.06445524 0.02361571
v -0.05129591 -0.06445524 0.02069761
v -0.05130546 -0.06445524 -0.02068037
v -0.04541633 -0.01541943 0.02122385
v -0.05271924 -0.06445524 0.01775328
v -0.04537334 -0.01541943 -0.02152629
v -0.05404226 -0.06445524 0.01185479
v -0.05322074 -0.06445524 -0.01588354
v -0.04653875 -0.01541943 0.01663194
v -0.05510737 -0.06445524 0.00000206
v -0.04718832 -0.01541943 0.01111707
v -0.05436227 -0.06445524 -0.00968996
v -0.04789520 -0.01541943 -0.00000449
v -0.04718832 -0.01541943 -0.01111950
v -0.04654830 -0.01541943 -0.01663437
v -0.04363110 -0.13774884 -0.03778177
v -0.04650664 -0.13774884 -0.03548299
v -0.04362925 -0.10659834 -0.03784109
v -0.04855836 -0.10787753 -0.03341595
v -0.04362925 -0.13774884 0.03767745
v -0.05156185 -0.13774884 -0.03024030
v -0.04362925 -0.09744604 -0.03703837
v -0.04362925 -0.10646637 0.03784059
v -0.05070674 -0.13774884 0.03114818
v -0.05404988 -0.11121723 -0.02670685
v -0.05346123 -0.10079324 -0.02635647
v -0.05577760 -0.13774884 -0.02422640
v -0.04856112 -0.10801100 0.03342286
v -0.05070857 -0.09569447 -0.02926888
v -0.04362925 -0.08763991 -0.03454865
v -0.05276306 -0.10822845 0.02841931
v -0.05630134 -0.13774884 0.02329897
v -0.05031921 -0.07646760 -0.02431538
v -0.05816897 -0.11675989 -0.01918763
v -0.05934717 -0.13774884 -0.01682582
v -0.04362925 -0.09464922 0.03664671
v -0.05633172 -0.11422550 0.02300606
v -0.05766455 -0.10610646 -0.01905415
v -0.05320949 -0.07646760 -0.02065959
v -0.06127555 -0.13774884 -0.01032992
v -0.04950736 -0.09637380 0.03095168
v -0.05957177 -0.13774884 0.01612085
v -0.05682877 -0.09211783 -0.01723366
v -0.04362925 -0.07646760 -0.02943943
v -0.06140994 -0.12489992 -0.00922131
v -0.05992983 -0.11210201 -0.01296610
v -0.04362925 -0.08872864 0.03497824
v -0.05307142 -0.07646760 0.02091862
v -0.05589449 -0.10476878 0.02286517
v -0.05982374 -0.12218859 0.01501132
v -0.05826194 -0.09300861 -0.01113078
v -0.05592119 -0.07646760 -0.01152009
v -0.06243626 -0.13774884 -0.00000767
v -0.05113291 -0.07646760 0.02355851
v -0.06182599 -0.13774884 0.00694057
v -0.06090875 -0.11264038 -0.00763442
v -0.04362925 -0.07646760 0.02953533
v -0.05583006 -0.09536005 0.02088525
v -0.05904848 -0.10798101 0.01504006
v -0.06142743 -0.10890779 -0.00000025
v -0.05695947 -0.07646760 -0.00000025
v -0.06241049 -0.12483394 -0.00000025
v -0.05462701 -0.07646760 0.01747046
v -0.05831901 -0.09342852 0.01112657
v -0.06091496 -0.11274761 0.00765245
v -0.06172290 -0.12489992 0.00692204
v -0.05592487 -0.07646760 0.01152701
v 0.03258623 -0.13775509 -0.00000001
v 0.03184015 -0.13775509 0.00788799
v 0.03167227 -0.13095207 -0.00742757
v 0.03132535 -0.12306350 -0.00000001
v 0.03118359 -0.13775509 -0.01126692
v 0.03053450 -0.12288887 -0.00828334
v 0.03009431 -0.12306350 0.01177385
v 0.03003089 -0.12796530 0.01481790
v 0.02899476 -0.12393006 -0.01753291
v 0.02902367 -0.13775509 0.01794798
v 0.00219818 -0.12306350 0.04423977
v 0.00902486 -0.12306350 0.04095620
v 0.01455708 -0.12306350 0.03711917
v 0.02041385 -0.12306350 0.03151943
v 0.02748674 -0.12306350 0.02101295
v 0.02711742 -0.13775509 -0.02208269
v -0.04362636 -0.12288887 -0.00678109
v -0.01296973 -0.12306350 0.04741171
v -0.00432260 -0.12306350 0.04621176
v 0.00618228 -0.13775509 0.04248171
v 0.01579931 -0.13775509 0.03619363
v 0.02489409 -0.13775509 0.02580808
v -0.04362636 -0.12288887 -0.03784009
v -0.04362636 -0.12306350 0.03772844
v -0.03501654 -0.12306350 0.04290029
v -0.02520179 -0.12306350 0.04626758
v -0.01484240 -0.13775509 0.04745822
v -0.02263153 -0.13775509 0.04680244
v -0.00700478 -0.13775509 0.04680708
v 0.02105175 -0.13775509 0.03099388
v 0.02703909 -0.12288887 -0.02196177
v -0.04362636 -0.13775509 -0.03776567
v -0.03943710 -0.13775509 -0.04061205
v -0.03945202 -0.13775509 0.04061203
v -0.03195759 -0.13775509 0.04430023
v 0.02337208 -0.13775509 -0.02807311
v -0.03791975 -0.12288887 -0.04148178
v -0.04362636 -0.13775509 0.03767263
v 0.02178478 -0.12288887 -0.02975675
v 0.01793312 -0.13775509 -0.03422630
v -0.02892476 -0.13775509 -0.04534671
v 0.01506442 -0.12288887 -0.03672386
v -0.02918962 -0.12288887 -0.04514207
v 0.00942775 -0.13775509 -0.04070972
v -0.02193021 -0.13775509 -0.04695594
v 0.00949489 -0.12288887 -0.04068647
v -0.01595780 -0.12288887 -0.04746522
v -0.01525275 -0.13775509 -0.04743499
v -0.00747108 -0.13775509 -0.04682106
v 0.00192586 -0.13775509 -0.04437932
v -0.00654593 -0.12288887 -0.04673269
v -0.00050265 -0.12288887 -0.04519788
v 0.01747191 -0.07647725 0.00000763
v 0.01405489 -0.06275441 0.00000763
v 0.01562861 -0.07647725 0.03101051
v -0.04826031 -0.07648129 0.02625493
v -0.04922203 -0.07648129 -0.02540199
v 0.01562861 -0.07647725 -0.03102143
v 0.01194930 -0.06275441 0.02720605
v 0.01197298 -0.06275441 -0.02680903
v 0.00497317 -0.07647725 0.04072672
v -0.00391911 -0.07647725 0.04368915
v -0.01448530 -0.07647725 0.04428905
v -0.02363440 -0.07647725 0.04244135
v -0.03325891 -0.07647725 0.03721458
v -0.03326255 -0.07647725 -0.03722113
v -0.02361983 -0.07647725 -0.04246972
v -0.01346347 -0.07647725 -0.04446357
v -0.00391911 -0.07647725 -0.04368261
v 0.00988196 -0.07647725 -0.03770541
v 0.01361956 -0.07160177 0.03195508
v 0.00863792 -0.07284063 0.03743054
v -0.00959837 -0.07305897 0.04294745
v -0.01941230 -0.07114089 0.04039514
v -0.04725487 -0.06445818 0.02437888
v -0.04944789 -0.06445818 -0.02282787
v -0.04632776 -0.06445818 -0.02480209
v -0.00824686 -0.07200890 -0.04215340
v 0.00860331 -0.07265117 -0.03736511
v 0.01293470 -0.07161957 -0.03292257
v -0.00111500 -0.07103323 0.04037442
v -0.03555392 -0.06275441 0.02731949
v -0.05199062 -0.06445818 0.01924373
v -0.05212541 -0.07648129 0.02217561
v -0.03555392 -0.06275441 -0.02728677
v -0.01935766 -0.06961651 -0.03918880
v 0.01070343 -0.06275441 0.02885960
v 0.01092929 -0.06275441 -0.02873526
v 0.00171279 -0.06759026 0.03713605
v -0.05473736 -0.06445818 -0.00484393
v -0.05437307 -0.06445818 0.00967585
v -0.01343797 -0.06853150 0.03948329
v -0.01701164 -0.06275441 -0.03254408
v -0.05274106 -0.06445818 -0.01774071
v -0.00127438 -0.06851168 -0.03857145
v 0.00799404 -0.06842081 -0.03516401
v -0.05695952 -0.07648129 0.00000763
v -0.05591765 -0.07648129 0.01152573
v -0.05462079 -0.07648129 0.01746802
v -0.01135788 -0.06275441 0.03342757
v -0.05415085 -0.07648129 -0.01812028
v -0.00966394 -0.06779987 -0.03905791
v -0.00607570 -0.06773202 0.03881141
v -0.00431983 -0.06275441 -0.03325524
v 0.02566619 -0.10559986 -0.01222422
v 0.01711043 -0.07647785 -0.00599621
v 0.02543139 -0.10157084 0.00001835
v 0.03071453 -0.12306120 -0.00677983
v -0.04361637 -0.12306120 -0.00677983
v -0.04363104 -0.10559986 -0.00677983
v -0.04363838 -0.07647785 -0.00599621
v 0.01746998 -0.07647785 0.00001542
v 0.02095539 -0.09266687 0.02712041
v 0.03132356 -0.12306120 0.00000958
v -0.04361637 -0.12306120 0.03775187
v -0.04363838 -0.07647785 0.02954143
v 0.01555668 -0.07647785 0.03128118
v 0.02967991 -0.12306120 0.01450065
v -0.03955679 -0.08791848 0.03811298
v -0.03359307 -0.08027429 0.03924016
v -0.02363581 -0.07647785 0.04244188
v 0.01845323 -0.08638052 0.03036599
v -0.03815712 -0.10395815 0.04135125
v -0.03400949 -0.08753085 0.04166996
v 0.01890083 -0.09730469 0.03159989
v 0.02748227 -0.12306120 0.02100643
v -0.04363838 -0.10065194 0.03752381
v -0.02473463 -0.07970425 0.04331468
v 0.01108618 -0.07647785 0.03706182
v 0.01430193 -0.08483800 0.03548874
v -0.03419476 -0.09533465 0.04291556
v -0.02591784 -0.08620723 0.04483660
v 0.01546679 -0.09839004 0.03568757
v 0.02401154 -0.12306120 0.02695082
v -0.03019205 -0.10082295 0.04488630
v -0.01753085 -0.08233555 0.04583805
v 0.00845195 -0.08302642 0.04030156
v 0.01197771 -0.09936822 0.03872847
v -0.02593435 -0.12306120 0.04611728
v -0.02175003 -0.09029781 0.04646816
v -0.01320527 -0.09592520 0.04733365
v -0.01350795 -0.07647785 0.04445648
v 0.00745402 -0.07647785 0.03958227
v 0.00689636 -0.09090205 0.04184540
v 0.01532554 -0.12306120 0.03640247
v -0.02175003 -0.09819167 0.04690675
v -0.00924842 -0.08592221 0.04641261
v -0.00574650 -0.07647785 0.04398280
v 0.00308075 -0.08256584 0.04294773
v 0.00227727 -0.09214016 0.04400912
v 0.00739165 -0.12306120 0.04183370
v -0.00629683 -0.12306120 0.04668745
v -0.00501273 -0.09392780 0.04624009
v -0.00184009 -0.08265191 0.04451350
v -0.00038081 -0.12306120 0.04511729
v -0.01530752 -0.12306120 0.04747107
v 0.01711478 -0.07647956 -0.00601318
v 0.01561706 -0.07647956 -0.03101928
v -0.04363119 -0.07647956 -0.00601318
v 0.02249338 -0.09295890 -0.00601318
v 0.01998689 -0.08955306 -0.02803317
v -0.04363119 -0.07647956 -0.02944294
v -0.05900490 -0.11220562 -0.01623907
v -0.05931325 -0.11676340 -0.01623907
v -0.04363119 -0.10559843 -0.00601318
v -0.03745087 -0.08322079 -0.03789646
v -0.05622971 -0.11220562 -0.02300758
v -0.04363119 -0.12289799 -0.03784466
v -0.04362238 -0.12289799 -0.00680135
v 0.02566944 -0.10489182 -0.00601318
v 0.01426690 -0.08465220 -0.03550554
v -0.02987634 -0.08261074 -0.04228522
v -0.04363119 -0.08763315 -0.03456198
v -0.05639709 -0.11676340 -0.02288265
v 0.03069122 -0.12289799 -0.00680135
v -0.05143258 -0.11676340 -0.03030627
v -0.04532274 -0.10896110 -0.03634856
v 0.02274006 -0.10257203 -0.02644668
v 0.02687643 -0.11430956 -0.02057807
v 0.01230444 -0.07647956 -0.03580923
v -0.02358810 -0.07647956 -0.04247617
v -0.03403694 -0.08813301 -0.04184035
v -0.04363119 -0.09442893 -0.03660147
v -0.05148103 -0.11220562 -0.03023111
v 0.01885038 -0.09709634 -0.03164494
v 0.02103970 -0.12289799 -0.03080395
v -0.02172255 -0.08435228 -0.04557400
v -0.03815568 -0.10379895 -0.04134470
v 0.02580159 -0.12289799 -0.02410045
v 0.01127145 -0.09437553 -0.03907465
v 0.00640164 -0.08249032 -0.04130611
v -0.01544753 -0.07647956 -0.04436534
v -0.03013845 -0.09231590 -0.04433386
v -0.03419772 -0.12289799 -0.04331106
v 0.01291234 -0.12289799 -0.03818796
v 0.00580916 -0.09585238 -0.04248633
v 0.00496999 -0.07647956 -0.04073123
v -0.03019131 -0.10064304 -0.04488740
v -0.02174678 -0.09798926 -0.04690861
v -0.01432643 -0.09192964 -0.04715339
v -0.00365624 -0.08315888 -0.04499963
v 0.00195692 -0.12289799 -0.04426377
v -0.00123235 -0.09280440 -0.04524086
v -0.00392385 -0.07647956 -0.04367468
v -0.00904255 -0.09468794 -0.04695736
v -0.02295377 -0.12289799 -0.04676641
v -0.01561932 -0.12289799 -0.04745911
v -0.00751178 -0.12289799 -0.04686290
v -0.00273230 0.04461907 0.00061760
v -0.00295085 0.04334433 0.02150258
v 0.00727318 0.04423150 0.00061760
v 0.04290360 -0.01340006 -0.00325379
v -0.04749400 -0.01340006 -0.00325379
v 0.04222974 -0.01541017 -0.00325379
v 0.01421896 0.04267675 0.00061760
v 0.02059788 0.04000348 0.00061760
v 0.03342401 0.03018871 0.00061760
v 0.03814104 0.02412596 0.00061760
v 0.04166516 0.01711709 0.00061760
v 0.04444256 0.00721095 0.00061760
v 0.04478859 -0.00558951 0.00061760
v -0.04769434 -0.01541017 -0.00325379
v -0.04654012 -0.00218529 0.00061760
v -0.04340075 0.01218023 0.00061760
v -0.03982199 0.02074236 0.00061760
v -0.03324046 0.02984829 0.00061760
v -0.02491964 0.03718579 0.00061760
v -0.01861129 0.04072116 0.00061760
v -0.01049536 0.04351970 0.00061760
v 0.00699999 0.04276812 0.02439544
v 0.04053599 -0.01541017 0.02464417
v 0.02166331 0.03756600 0.02494350
v 0.03025960 0.03135292 0.02324158
v 0.03865327 0.01986847 0.02397494
v 0.04123261 0.01404297 0.02370911
v 0.04313809 0.00446694 0.02417664
v 0.04316769 -0.00519456 0.02464417
v 0.04231170 -0.01037016 0.02370911
v -0.04568869 -0.00269813 0.01450814
v -0.04339619 0.00750274 0.02137430
v -0.03860517 0.01956562 0.02322554
v -0.03566045 0.02492027 0.02128094
v -0.03141239 0.03016218 0.02155675
v -0.02425944 0.03611736 0.02164726
v -0.01735464 0.03962474 0.02354732
v -0.04612920 -0.01541460 0.01775734
v 0.01679603 0.04014348 0.02384737
v 0.03501761 0.02553922 0.02424506
v -0.02861905 0.03201609 0.02516872
v -0.00324680 0.04278581 0.02543598
v -0.01102580 0.04080664 0.02585647
v 0.03916094 -0.01541017 0.02587002
v 0.03048270 0.02982619 0.02586146
v 0.04138286 0.01070654 0.02576739
v -0.04472115 -0.00214403 0.02207916
v -0.03785049 -0.01541017 0.02587002
v -0.04277469 -0.01541017 0.02476961
v -0.04215091 0.00939201 0.02506466
v -0.04316854 -0.00376214 0.02554787
v -0.03970589 0.01421097 0.02581941
v -0.00263901 0.04461689 0.00061395
v 0.00490800 0.04459772 0.00030418
v -0.00596243 0.04439422 -0.00000300
v 0.00522397 0.04307447 -0.02384531
v -0.00653982 0.04262768 -0.02501702
v 0.01025910 0.04210568 -0.02494314
v -0.01265926 0.04288720 0.00015123
v 0.01531469 0.04226051 0.00030418
v 0.03169079 0.03209623 0.00061395
v 0.00276665 0.04241239 -0.02586857
v 0.02301628 0.03876280 0.00030418
v 0.01746059 0.04000587 -0.02275268
v -0.01356854 0.04009582 -0.02584460
v 0.01750378 0.03912997 -0.02551376
v -0.02100416 0.03943963 0.00061395
v 0.03671001 0.02619201 -0.00000300
v 0.02945624 0.03195025 -0.02370922
v -0.01729658 0.03970506 -0.02339296
v 0.02821735 0.03203430 -0.02578562
v 0.03494146 0.02600621 -0.02370922
v -0.02583016 0.03507488 -0.02154727
v 0.04167013 0.01714104 0.00061395
v 0.03919234 0.01927328 -0.02277341
v -0.02440714 0.03519063 -0.02540002
v 0.03822850 0.01972155 -0.02570526
v 0.04109955 0.01399134 -0.02398854
v -0.04020585 0.01439095 -0.02572341
v -0.03231217 0.02816721 -0.02524254
v -0.02795332 0.03505719 -0.00000300
v 0.04405698 0.00971801 0.00061395
v 0.04314543 0.00601681 -0.02277341
v 0.04197473 0.00757692 -0.02585820
v -0.03825545 0.02007398 -0.02342342
v -0.03385000 0.02928421 0.00061395
v 0.04339093 -0.00245465 -0.02370922
v -0.03689608 0.02560808 -0.00000300
v -0.03784173 -0.01542652 -0.02586857
v -0.04174708 0.01236340 -0.02311559
v 0.04184743 -0.01110011 -0.02426526
v 0.03915597 -0.01542652 -0.02586857
v 0.04498217 -0.00308134 0.00015059
v -0.04328262 0.00150165 -0.02521306
v -0.04379523 0.00467937 -0.02242119
v -0.04221535 0.01574609 0.00061395
v 0.04224752 -0.01542063 -0.00325629
v -0.04277683 -0.01542652 -0.02476881
v 0.04310224 -0.01339750 0.00061395
v -0.04453401 0.00877428 0.00061395
v -0.04560241 -0.01542652 -0.02094328
v -0.04772558 -0.01542063 -0.00325629
v -0.04515232 0.00029839 -0.01721820
v -0.04763465 -0.01339750 0.00061395
f 1 2 3
f 1 4 5
f 1 5 2
f 3 6 19
f 3 19 38
f 3 38 39
f 3 39 42
f 3 42 44
f 3 44 47
f 3 47 49
f 3 49 45
f 3 45 40
f 3 40 32
f 3 32 20
f 3 7 1
f 3 2 8
f 3 8 9
f 3 9 10
f 3 10 11
f 3 11 12
f 3 12 6
f 4 21 33
f 4 33 43
f 4 43 52
f 4 52 51
f 4 51 50
f 4 50 48
f 4 48 46
f 4 46 41
f 4 41 37
f 4 37 31
f 4 31 30
f 4 30 29
f 4 29 36
f 4 36 35
f 4 35 25
f 4 25 5
f 2 5 8
f 6 12 13
f 6 13 14
f 6 14 15
f 6 15 16
f 6 16 17
f 6 17 18
f 6 18 19
f 3 20 21
f 3 21 7
f 7 21 4
f 7 4 1
f 8 5 9
f 9 5 10
f 10 5 22
f 10 22 11
f 11 22 23
f 11 23 24
f 11 24 12
f 12 24 13
f 5 25 22
f 13 24 26
f 13 26 27
f 13 27 28
f 13 28 14
f 14 28 15
f 15 28 29
f 15 29 16
f 16 29 17
f 17 29 30
f 17 30 31
f 17 31 18
f 18 31 19
f 21 20 32
f 21 32 33
f 24 34 26
f 25 23 22
f 28 27 36
f 28 36 29
f 31 37 38
f 31 38 19
f 24 23 34
f 34 23 25
f 34 36 26
f 35 34 25
f 35 36 34
f 26 36 27
f 37 39 38
f 33 32 40
f 37 41 39
f 39 41 42
f 40 43 33
f 42 41 44
f 40 45 43
f 44 41 46
f 44 46 48
f 44 48 47
f 47 48 50
f 47 50 51
f 47 51 49
f 51 52 49
f 45 49 52
f 45 52 43
f 53 57 61
f 53 61 69
f 53 69 79
f 53 79 92
f 53 92 90
f 53 90 77
f 53 77 72
f 53 72 64
f 53 64 58
f 53 58 54
f 54 55 53
f 54 56 55
f 55 59 67
f 55 67 81
f 55 81 94
f 55 94 84
f 55 84 73
f 55 73 60
f 55 60 57
f 55 57 53
f 55 56 59
f 58 56 54
f 56 62 63
f 57 60 65
f 57 65 61
f 56 63 66
f 56 66 59
f 59 66 67
f 56 58 62
f 58 64 62
f 61 65 68
f 61 68 69
f 66 70 67
f 64 72 71
f 64 71 62
f 60 73 65
f 68 74 69
f 62 75 63
f 66 63 76
f 66 76 70
f 70 76 89
f 70 89 98
f 70 98 104
f 70 104 100
f 70 100 85
f 70 85 91
f 70 91 94
f 70 94 81
f 71 75 62
f 73 78 65
f 63 75 80
f 63 80 76
f 70 81 67
f 72 77 71
f 73 84 78
f 78 85 68
f 78 68 65
f 68 86 74
f 69 74 79
f 79 74 87
f 71 83 75
f 75 83 80
f 80 83 88
f 80 88 89
f 80 89 76
f 77 83 71
f 84 91 78
f 78 91 85
f 68 85 86
f 83 93 88
f 90 82 77
f 77 82 83
f 85 95 86
f 86 95 96
f 86 96 87
f 86 87 74
f 87 92 79
f 82 93 83
f 88 93 97
f 88 97 98
f 88 98 89
f 90 92 99
f 90 99 82
f 82 99 93
f 84 94 91
f 85 100 95
f 95 100 96
f 96 100 101
f 96 103 87
f 87 103 92
f 93 99 97
f 97 101 98
f 98 101 104
f 99 92 103
f 99 103 102
f 100 104 101
f 101 102 96
f 102 103 96
f 99 102 97
f 97 102 101
f 105 106 114
f 105 114 126
f 105 126 134
f 105 134 125
f 105 125 124
f 105 124 133
f 105 133 131
f 105 131 132
f 105 132 139
f 105 139 138
f 105 138 142
f 105 142 136
f 105 136 137
f 105 137 145
f 105 145 149
f 105 149 152
f 105 152 153
f 105 153 154
f 105 154 148
f 105 148 144
f 105 144 140
f 105 140 120
f 105 120 109
f 107 110 108
f 107 108 105
f 105 108 106
f 106 108 111
f 106 111 112
f 105 109 107
f 110 107 113
f 112 114 106
f 107 109 113
f 110 113 135
f 110 135 143
f 110 143 146
f 110 146 150
f 110 150 156
f 110 156 155
f 110 155 151
f 110 151 147
f 110 147 141
f 110 141 127
f 110 127 121
f 110 115 116
f 110 116 117
f 110 117 118
f 110 118 119
f 110 119 111
f 110 111 108
f 111 119 112
f 109 120 113
f 110 121 122
f 110 122 123
f 110 123 115
f 116 125 117
f 118 126 119
f 121 127 128
f 121 128 129
f 121 129 130
f 121 130 122
f 122 132 131
f 123 122 133
f 115 123 133
f 115 133 124
f 115 124 116
f 124 125 116
f 117 125 118
f 118 125 134
f 118 134 126
f 119 114 112
f 113 120 135
f 128 127 136
f 128 138 129
f 129 139 130
f 130 139 132
f 130 132 122
f 131 133 122
f 119 126 114
f 120 140 135
f 127 141 137
f 137 136 127
f 128 136 142
f 138 128 142
f 138 139 129
f 140 143 135
f 140 144 143
f 144 146 143
f 141 147 145
f 141 145 137
f 144 148 146
f 148 150 146
f 147 149 145
f 149 147 151
f 149 151 152
f 148 154 150
f 152 151 153
f 154 156 150
f 151 155 153
f 155 156 153
f 154 153 156
f 157 158 159
f 157 159 160
f 157 160 161
f 157 161 162
f 157 162 158
f 158 163 159
f 158 162 164
f 158 164 192
f 158 192 208
f 158 208 197
f 158 197 189
f 158 189 186
f 158 186 204
f 158 204 191
f 158 191 163
f 160 159 165
f 160 165 166
f 160 166 167
f 160 167 168
f 160 168 169
f 160 188 203
f 160 203 202
f 160 202 201
f 160 201 205
f 160 205 161
f 161 170 171
f 161 171 172
f 161 172 173
f 161 173 174
f 161 174 162
f 165 159 176
f 166 177 167
f 167 178 168
f 169 168 179
f 160 169 179
f 170 161 180
f 170 180 181
f 170 181 171
f 172 182 173
f 174 173 183
f 162 174 184
f 163 175 159
f 164 162 184
f 159 175 176
f 165 185 166
f 165 176 185
f 166 185 177
f 168 178 179
f 179 187 188
f 179 188 160
f 179 186 187
f 180 189 181
f 171 190 172
f 171 181 190
f 172 190 182
f 183 184 174
f 164 184 192
f 175 191 176
f 176 191 193
f 176 193 185
f 179 178 186
f 186 194 195
f 186 195 187
f 186 178 196
f 186 189 194
f 189 197 190
f 189 190 181
f 189 180 198
f 189 198 194
f 173 182 199
f 173 199 200
f 173 200 183
f 183 200 184
f 163 191 175
f 167 177 196
f 167 196 178
f 194 201 195
f 195 202 187
f 187 202 203
f 186 196 204
f 161 205 180
f 198 180 205
f 182 190 206
f 200 192 184
f 193 207 185
f 185 207 177
f 177 207 196
f 201 202 195
f 203 188 187
f 197 208 206
f 197 206 190
f 205 201 194
f 205 194 198
f 182 206 199
f 199 206 208
f 193 191 207
f 196 207 204
f 199 208 192
f 199 192 200
f 207 191 204
f 209 212 213
f 209 213 214
f 209 214 215
f 209 215 210
f 210 215 220
f 210 220 225
f 210 225 246
f 210 246 252
f 210 252 247
f 210 247 233
f 210 233 221
f 210 221 216
f 210 216 209
f 209 216 211
f 211 217 218
f 211 218 209
f 209 218 212
f 212 218 222
f 212 222 230
f 212 230 238
f 212 238 249
f 212 249 255
f 212 255 259
f 212 259 256
f 212 256 260
f 212 260 243
f 212 243 219
f 212 219 213
f 213 219 214
f 214 219 231
f 214 231 220
f 214 220 215
f 211 216 217
f 218 217 222
f 220 223 224
f 220 224 225
f 216 221 217
f 217 221 226
f 223 228 224
f 217 226 229
f 220 231 223
f 224 228 232
f 224 232 225
f 226 221 233
f 226 233 234
f 226 234 229
f 229 230 217
f 217 230 222
f 219 227 231
f 223 231 235
f 223 235 228
f 228 235 236
f 228 236 232
f 229 234 237
f 229 238 230
f 219 239 227
f 227 239 235
f 227 235 231
f 235 239 236
f 236 240 232
f 234 233 241
f 234 241 242
f 234 242 237
f 219 243 239
f 239 244 236
f 236 244 240
f 240 244 245
f 232 240 246
f 232 246 225
f 233 247 241
f 242 249 237
f 237 249 229
f 238 229 249
f 239 243 250
f 239 250 244
f 244 250 245
f 245 251 240
f 240 251 252
f 240 252 246
f 247 253 241
f 241 248 242
f 241 253 254
f 241 254 248
f 245 256 257
f 245 257 251
f 247 258 253
f 248 254 255
f 253 258 254
f 242 248 255
f 242 255 249
f 250 260 245
f 245 260 256
f 256 259 257
f 251 257 258
f 251 258 252
f 247 252 258
f 258 257 254
f 254 259 255
f 254 257 259
f 243 260 250
f 261 262 284
f 261 284 301
f 261 301 308
f 261 308 296
f 261 296 285
f 261 285 266
f 261 266 263
f 261 263 269
f 261 269 274
f 261 274 264
f 262 261 264
f 262 264 265
f 263 266 267
f 263 267 268
f 263 268 269
f 266 271 267
f 268 272 273
f 268 273 269
f 269 273 279
f 269 279 274
f 262 265 275
f 270 266 276
f 266 270 277
f 266 277 271
f 271 278 268
f 271 268 267
f 272 298 310
f 272 310 311
f 272 311 312
f 272 312 306
f 272 306 299
f 272 299 290
f 272 290 293
f 272 293 279
f 272 279 273
f 272 268 278
f 272 278 280
f 272 280 281
f 265 283 282
f 275 284 262
f 264 279 265
f 264 274 279
f 266 285 276
f 270 276 286
f 270 286 287
f 270 287 277
f 271 277 288
f 278 271 288
f 278 288 280
f 280 288 281
f 265 282 289
f 265 289 275
f 275 289 290
f 276 285 291
f 288 277 287
f 288 287 281
f 272 281 292
f 282 293 289
f 282 283 293
f 279 283 265
f 290 294 275
f 275 294 295
f 275 295 284
f 286 276 297
f 276 291 297
f 286 297 292
f 286 292 287
f 287 292 281
f 272 292 298
f 289 293 290
f 283 279 293
f 294 290 299
f 295 294 300
f 295 301 284
f 285 296 291
f 297 302 292
f 297 291 303
f 291 296 304
f 291 304 303
f 294 299 300
f 295 305 301
f 297 303 302
f 292 302 298
f 300 306 307
f 300 307 295
f 295 307 305
f 301 305 308
f 296 305 304
f 304 305 309
f 300 299 306
f 307 309 305
f 296 308 305
f 303 310 302
f 304 309 311
f 304 311 303
f 298 302 310
f 303 311 310
f 311 309 312
f 309 307 312
f 312 307 306
f 313 314 315
f 313 315 316
f 313 316 317
f 316 318 326
f 316 326 317
f 316 315 319
f 316 319 320
f 316 320 321
f 316 321 322
f 316 322 323
f 316 323 324
f 316 324 325
f 316 325 318
f 317 326 327
f 317 327 328
f 317 328 329
f 317 329 330
f 317 330 331
f 317 331 332
f 317 332 333
f 317 333 313
f 314 334 315
f 318 335 350
f 318 350 326
f 320 337 321
f 323 322 338
f 323 338 339
f 324 340 325
f 325 340 341
f 325 341 342
f 327 326 343
f 327 343 344
f 327 344 328
f 329 328 345
f 329 345 346
f 329 346 330
f 330 347 348
f 330 348 331
f 332 349 333
f 333 314 313
f 335 318 342
f 319 351 320
f 319 315 351
f 320 351 336
f 321 337 352
f 321 352 322
f 322 352 338
f 323 339 324
f 324 339 340
f 325 342 318
f 326 350 343
f 330 346 347
f 347 346 353
f 347 353 348
f 348 332 331
f 332 348 349
f 314 354 334
f 314 333 355
f 334 351 315
f 335 356 360
f 335 360 350
f 320 336 337
f 337 357 352
f 337 336 357
f 340 358 341
f 341 356 342
f 343 350 359
f 328 344 345
f 346 345 353
f 349 355 333
f 314 355 354
f 334 354 336
f 334 336 351
f 335 342 356
f 356 358 357
f 356 357 355
f 356 355 360
f 350 360 361
f 339 338 358
f 339 358 340
f 341 358 356
f 359 344 343
f 353 349 348
f 354 357 336
f 354 355 357
f 360 363 361
f 338 352 358
f 359 363 362
f 359 362 344
f 362 345 344
f 345 364 353
f 353 364 355
f 349 353 355
f 360 364 363
f 350 363 359
f 361 363 350
f 352 357 358
f 362 363 364
f 362 364 345
f 364 360 355
f 366 368 365
f 365 371 379
f 365 379 398
f 365 398 408
f 365 408 412
f 365 412 416
f 365 416 411
f 365 411 394
f 365 394 386
f 365 386 373
f 368 369 367
f 368 367 365
f 368 366 370
f 367 371 365
f 365 372 366
f 365 373 372
f 368 374 369
f 366 372 370
f 368 370 374
f 372 373 375
f 369 374 377
f 369 371 367
f 370 378 374
f 373 380 381
f 372 375 376
f 372 376 370
f 370 376 378
f 374 383 389
f 374 389 396
f 374 396 404
f 374 404 401
f 374 401 391
f 374 391 377
f 369 377 371
f 371 377 382
f 378 383 374
f 380 384 381
f 376 375 378
f 371 382 379
f 375 373 381
f 380 373 386
f 380 387 384
f 381 383 378
f 381 378 375
f 381 384 383
f 377 388 382
f 382 388 385
f 385 379 382
f 386 390 387
f 380 386 387
f 383 384 389
f 384 387 389
f 388 377 391
f 388 391 392
f 389 387 390
f 388 392 385
f 393 379 385
f 390 394 395
f 390 395 396
f 386 394 390
f 389 390 396
f 392 391 397
f 393 385 398
f 393 398 379
f 396 395 399
f 392 398 385
f 392 400 398
f 392 397 400
f 397 391 402
f 395 394 399
f 399 403 396
f 396 403 404
f 394 405 399
f 401 406 391
f 402 391 407
f 400 408 398
f 403 409 404
f 401 404 409
f 401 409 413
f 401 413 410
f 391 406 407
f 402 408 397
f 403 399 411
f 399 405 411
f 394 411 405
f 400 397 408
f 401 410 406
f 402 407 412
f 406 413 407
f 402 412 408
f 409 403 411
f 409 411 416
f 409 416 414
f 413 415 407
f 414 413 409
f 406 410 413
f 415 412 407
f 413 414 415
f 414 412 415
f 414 416 412

