# https://github.com/mikedh/trimesh
v 0.03962247 -0.00857584 0.00000423
v 0.03972766 0.00496858 0.00029188
v 0.03476796 -0.05336609 0.03386500
v 0.03476796 -0.05336609 -0.03386476
v 0.03857832 0.00496858 -0.00962801
v 0.03888222 0.00496858 0.00811191
v 0.03664197 0.00496858 -0.01528654
v 0.03495887 0.00496858 0.01882901
v 0.03291148 -0.05336609 -0.03598311
v 0.03200175 0.00496858 -0.02333258
v 0.03069656 0.00496858 0.02517791
v 0.03200954 -0.05336609 0.03656072
v 0.02459141 0.00496858 -0.03116494
v 0.02520309 0.00496858 0.03067207
v 0.01810055 0.00496858 -0.03533179
v 0.01894405 0.00496858 0.03490261
v 0.01125124 0.00496858 -0.03805215
v -0.03479648 -0.05259522 -0.03288263
v -0.03425882 -0.05259522 -0.03421405
v -0.03193871 -0.05259522 -0.03606941
v -0.02374331 -0.05259522 -0.03869731
v -0.00001621 -0.05259522 -0.04197655
v 0.01388499 -0.05259522 -0.04057117
v 0.02362324 -0.05259522 -0.03879800
v 0.01200708 0.00496858 0.03783871
v 0.01908236 -0.05259522 0.03979064
v -0.00001621 -0.05259522 0.04198501
v -0.01327845 -0.05259522 0.04067825
v -0.02519460 -0.05259522 0.03840785
v -0.03292247 -0.05259522 0.03536079
v -0.03475070 -0.05259522 0.03303492
v -0.03964709 -0.00853016 0.00000423
v -0.03968606 0.00496858 -0.00235041
v -0.03837307 0.00496858 -0.01033481
v -0.03546271 0.00496858 -0.01791650
v -0.03234585 0.00496858 -0.02316410
v -0.02839133 0.00496858 -0.02776653
v -0.02379006 0.00496858 -0.03185119
v -0.01865114 0.00496858 -0.03506057
v -0.01335637 0.00496858 -0.03744808
v -0.00753174 0.00496858 -0.03889867
v -0.00001621 0.00496858 -0.03977396
v 0.00634219 0.00496858 0.03914137
v -0.00067464 0.00496858 0.03970845
v -0.00799927 0.00496858 0.03881263
v -0.01389403 0.00496858 0.03725108
v -0.01939139 0.00496858 0.03466221
v -0.02442902 0.00496858 0.03138298
v -0.02889782 0.00496858 0.02724079
v -0.03276662 0.00496858 0.02255617
v -0.03577440 0.00496858 0.01728802
v -0.03870619 0.00496858 0.00863996
v -0.01821779 -0.03368076 0.03607907
v -0.01846324 -0.03537987 0.03618152
v -0.01771965 -0.03202823 0.03607907
v 0.01810982 -0.03368076 0.03607907
v -0.01737674 -0.03537987 0.03659597
v -0.01795067 -0.03368076 0.03618152
v 0.01841303 -0.03537987 0.03618152
v -0.01448179 -0.03202823 0.03731425
v 0.01770553 -0.03202823 0.03607907
v -0.01496909 -0.03537987 0.03740579
v -0.01472364 -0.03368076 0.03735905
v 0.01529428 -0.03202823 0.03703769
v 0.01537009 -0.03368076 0.03715961
v 0.01544589 -0.03537987 0.03728504
v -0.01460813 -0.03537987 0.03752615
v -0.01459730 -0.03537987 0.03752966
v -0.00974592 -0.03202823 0.03857241
v 0.01151136 -0.03202823 0.03815679
v 0.01510297 -0.03537987 0.03738476
v -0.01206332 -0.03537987 0.03818172
v -0.00490898 -0.03202823 0.03939976
v -0.00981089 -0.03537987 0.03869979
v 0.01160160 -0.03537987 0.03832740
v 0.01319707 -0.03537987 0.03793476
v 0.01133088 -0.03202823 0.03819691
v -0.00001789 -0.03202823 0.03999924
v -0.00954739 -0.03537987 0.03874380
v -0.00680766 -0.03537987 0.03919993
v -0.00493063 -0.03537987 0.03949441
v 0.00907484 -0.03537987 0.03884430
v 0.00764903 -0.03202823 0.03897245
v -0.00001789 -0.03537987 0.04005844
v 0.00109389 -0.03202823 0.03988004
v 0.00769956 -0.03537987 0.03909321
v 0.00381918 -0.03202823 0.03953259
v 0.00375420 -0.03537987 0.03965256
v 0.00373255 -0.03202823 0.03954505
v 0.00718699 -0.03537987 0.03916721
v 0.00494900 -0.03537987 0.03948818
v 0.03480906 -0.05336687 0.03210405
v 0.03466247 -0.05336687 0.03417215
v 0.03480224 -0.06168981 0.03979973
v 0.03476815 -0.05336687 -0.03384997
v 0.03201378 -0.05260089 0.03599695
v 0.03463861 -0.06168981 0.04071438
v 0.01070836 -0.06467572 0.04532368
v 0.03480224 -0.06168981 -0.03981548
v -0.03051508 -0.05260207 0.03676741
v 0.03028038 -0.05260089 0.03682824
v 0.03201378 -0.05260089 -0.03594961
v 0.03422955 -0.05754371 0.03831737
v 0.03402502 -0.06168981 0.04121451
v 0.02786178 -0.06168981 0.04241753
v 0.01032657 -0.05260089 0.04100726
v -0.00001594 -0.05260089 0.04196246
v -0.00001594 -0.06467572 0.04603558
v 0.01070836 -0.06467572 -0.04531239
v 0.03474088 -0.06168981 -0.04055441
v -0.02441321 -0.05260089 0.03865529
v -0.01331053 -0.05260089 0.04065581
v 0.01843286 -0.05260089 0.03988985
v 0.02401658 -0.05260089 0.03870936
v -0.03186159 -0.05259971 -0.03616588
v 0.03412728 -0.05336687 -0.03505749
v -0.00994938 -0.06257637 0.04453069
v -0.03327286 -0.05959873 0.04015118
v -0.03463641 -0.05959873 0.03943928
v -0.03483412 -0.05959873 0.03873640
v -0.00001594 -0.06467572 -0.04602429
v -0.00001594 -0.05260089 -0.04195117
v 0.01000954 -0.05260089 -0.04103201
v 0.02297006 -0.06168981 -0.04300099
v 0.02839357 -0.06168981 -0.04230261
v 0.03347619 -0.06168981 -0.04135191
v -0.02807092 -0.05959873 0.04131814
v -0.02317579 -0.05959873 0.04207059
v 0.02634825 -0.05260089 -0.03813036
v 0.01885215 -0.05260089 -0.03980647
v -0.01004483 -0.05260089 -0.04100498
v -0.01981465 -0.05260089 -0.03966229
v -0.02590288 -0.05260089 -0.03827454
v -0.03398531 -0.05959873 -0.03990108
v -0.03483412 -0.05259971 0.03259066
v -0.03483412 -0.05959873 -0.03872511
v -0.03120708 -0.05959873 -0.04068507
v -0.01162655 -0.06204975 -0.04418598
v -0.02386097 -0.05959873 -0.04195567
v -0.03398190 -0.05259971 0.03460019
v -0.03483412 -0.05259971 -0.03258838
v -0.03466709 -0.05683388 -0.03733285
v -0.03398190 -0.05259971 -0.03459791
v -0.00002263 -0.13780414 -0.00492580
v 0.01776362 -0.13684216 -0.00452376
v -0.03189293 -0.13640112 0.00204422
v 0.01776362 -0.13676703 0.00707848
v -0.00002424 -0.13728510 0.00946593
v -0.03431171 -0.13501735 -0.00970691
v -0.00002649 -0.13442129 -0.01918352
v -0.03482662 -0.13317716 0.01264755
v -0.00002327 -0.13221999 0.02348292
v -0.03440182 -0.13066000 0.02201868
v 0.01776362 -0.13348915 -0.01866980
v -0.03461615 -0.12265499 -0.03331467
v -0.03453312 -0.12102856 0.03513727
v -0.00002392 -0.13115111 -0.02583960
v 0.01776362 -0.12717605 0.02985360
v -0.00002392 -0.12276573 0.03637815
v 0.01776362 -0.12438734 -0.03339408
v -0.03270648 -0.11334133 0.04126101
v -0.03303248 -0.11804197 -0.03793571
v 0.01776362 -0.11843823 0.03882764
v -0.00002392 -0.11835927 -0.04005513
v -0.00002553 -0.11222912 0.04415226
v -0.03264340 -0.10138533 0.04663775
v -0.03454921 -0.08930703 0.04837126
v -0.03457174 -0.11039759 -0.04272551
v 0.01776362 -0.06171078 0.04030429
v 0.01667201 -0.09517140 0.04908725
v 0.01667201 -0.10656119 0.04593293
v -0.03469371 -0.08890548 -0.04762388
v -0.03124543 -0.09827980 -0.04772874
v 0.01667201 -0.05959999 0.04275627
v 0.01667201 -0.07908434 0.04897557
v -0.00002424 -0.09777137 0.04947688
v 0.01776362 -0.11447280 -0.04156901
v 0.01667201 -0.05959999 -0.04273544
v -0.00002456 -0.06685775 0.04666877
v 0.01776362 -0.06171078 -0.04352960
v -0.00002456 -0.08335022 0.05041002
v -0.03483949 -0.05959999 0.03743538
v -0.03328961 -0.08769120 -0.04867925
v -0.00002263 -0.10599882 -0.04717282
v -0.02005388 -0.05959999 0.04231949
v -0.03242392 -0.08203386 0.04841841
v -0.03355994 -0.07138169 0.04558300
v -0.03303473 -0.07329748 -0.04628497
v -0.00002263 -0.09525229 -0.04998218
v 0.01776362 -0.09914165 -0.04810472
v -0.00002520 -0.06620102 -0.04650026
v -0.00002263 -0.08192119 -0.05030977
v 0.01776362 -0.08179601 -0.04904531
v -0.02049284 -0.05959999 -0.04221674
v -0.03482919 -0.05960769 -0.03871498
v 0.01923661 -0.06171403 0.01029796
v 0.02886690 -0.06169182 0.01029209
v 0.02886690 -0.06169182 -0.04221259
v 0.01775880 -0.06170663 0.00903456
v 0.01923661 -0.13609096 0.01029796
v 0.02886690 -0.13552106 0.01029796
v 0.01775880 -0.06170663 -0.04351712
v 0.01775880 -0.13641662 0.00902868
v 0.02886690 -0.13630559 0.00551907
v 0.02886690 -0.06669519 -0.04463656
v 0.01775880 -0.06691353 -0.04565609
v 0.01775880 -0.13716416 0.00364012
v 0.02886690 -0.07147651 -0.04647290
v 0.01775880 -0.13730479 -0.00000318
v 0.02886690 -0.13666087 -0.00000318
v 0.01775880 -0.07477014 -0.04813001
v 0.02886690 -0.07820440 -0.04820641
v 0.01775880 -0.13716416 -0.00365823
v 0.02886690 -0.13631301 -0.00550339
v 0.02886690 -0.08169788 -0.04874702
v 0.01775880 -0.07992524 -0.04911723
v 0.01775880 -0.13673489 -0.00729566
v 0.02886690 -0.08525056 -0.04904083
v 0.02886690 -0.13543963 -0.01074504
v 0.02886690 -0.08881805 -0.04909960
v 0.01775880 -0.08884766 -0.04973424
v 0.01775880 -0.08524316 -0.04968723
v 0.01775880 -0.13511398 -0.01442948
v 0.02886690 -0.13449965 -0.01424143
v 0.02886690 -0.09241514 -0.04886455
v 0.01775880 -0.09426180 -0.04923769
v 0.01775880 -0.13391494 -0.01788473
v 0.02886690 -0.09596783 -0.04836506
v 0.02886690 -0.13190175 -0.02098154
v 0.02886690 -0.09948351 -0.04760114
v 0.01775880 -0.10136347 -0.04769810
v 0.01775880 -0.13163530 -0.02285314
v 0.02886690 -0.10291037 -0.04657279
v 0.02886690 -0.13022904 -0.02418412
v 0.01775880 -0.10670360 -0.04584414
v 0.01775880 -0.12888938 -0.02762175
v 0.02886690 -0.12729806 -0.02873825
v 0.02886690 -0.10795443 -0.04456016
v 0.01775880 -0.12675036 -0.03058928
v 0.01775880 -0.11150712 -0.04348774
v 0.01775880 -0.12439671 -0.03339227
v 0.02886690 -0.12393042 -0.03297505
v 0.02886690 -0.11429376 -0.04110490
v 0.01775880 -0.12048135 -0.03720892
v 0.02886690 -0.12141393 -0.03556062
v 0.01775880 -0.11618853 -0.04061423
v 0.02886690 -0.11871982 -0.03794640
v 0.02886153 -0.13660770 0.00179468
v 0.02886153 -0.13632880 -0.00538691
v 0.03417379 -0.13612604 -0.00104253
v 0.02886153 -0.13578201 0.00895225
v 0.03467093 -0.13489253 0.00912938
v 0.03420479 -0.13499437 -0.01006035
v 0.02886153 -0.13391773 0.01593688
v 0.02886153 -0.13467923 -0.01332749
v 0.03480905 -0.13509575 -0.00000192
v 0.03409952 -0.13098877 0.02151732
v 0.03389147 -0.13350580 -0.01589749
v 0.02886153 -0.12919102 0.02566445
v 0.03479333 -0.13037453 -0.02152026
v 0.03479333 -0.12488450 0.02960712
v 0.02886153 -0.13107364 -0.02257949
v 0.03415934 -0.12712309 -0.02805815
v 0.03419500 -0.12674142 0.02867159
v 0.02886153 -0.12499277 -0.03149282
v 0.03479333 -0.12072569 -0.03421534
v 0.03427498 -0.12126056 -0.03489987
v 0.03419609 -0.12022568 0.03595286
v 0.02886153 -0.12005687 0.03674667
v 0.03479333 -0.10630793 0.04412041
v 0.03395631 -0.11028233 0.04300594
v 0.02886153 -0.11726414 -0.03901307
v 0.03415934 -0.11410352 -0.04067397
v 0.02886153 -0.11554301 0.04029183
v 0.03456759 -0.10710978 -0.04428758
v 0.02886153 -0.10796485 -0.04455659
v 0.03455886 -0.09945823 0.04696422
v 0.03006897 -0.10459964 0.04589299
v 0.02886153 -0.06169957 0.04031105
v 0.03006897 -0.09416637 0.04842456
v 0.03420945 -0.10008944 -0.04682395
v 0.03479333 -0.09053509 -0.04784955
v 0.03006897 -0.08346887 0.04884249
v 0.02886153 -0.10119038 -0.04708336
v 0.03419249 -0.09062500 0.04845759
v 0.02886153 -0.06169957 -0.04221717
v 0.03006897 -0.07565769 0.04749984
v 0.03006897 -0.06169957 0.04204039
v 0.03397683 -0.09391499 -0.04822905
v 0.03424812 -0.06169957 -0.04108829
v 0.02886153 -0.06831257 -0.04520990
v 0.03427127 -0.07308699 0.04624847
v 0.03433516 -0.06169957 0.04097877
v 0.03381149 -0.08669280 -0.04867820
v 0.03480789 -0.06169957 0.03982106
v 0.03455537 -0.07401683 -0.04624450
v 0.02886153 -0.08614233 -0.04899284
v 0.03480789 -0.06169957 -0.03982491
v 0.02886153 -0.07651092 -0.04780872
v -0.00002163 -0.10790552 -0.00060593
v -0.00002080 -0.10790552 -0.00101388
v -0.00002163 -0.10790552 0.00243333
v -0.00002163 -0.09272323 -0.00101388
v 0.00851059 -0.10790552 -0.00101388
v 0.00851059 -0.10790552 0.00243333
v -0.00002163 -0.09272323 0.00243333
v 0.00851059 -0.09272323 -0.00101388
v 0.00851059 -0.09272323 0.00243333
v 0.01667972 -0.08885324 0.04979335
v 0.01667972 -0.09245965 0.04956202
v 0.01667972 -0.08344729 0.04959991
v 0.01667972 -0.09605873 0.04905148
v 0.03006662 -0.08524683 0.04899565
v 0.01667972 -0.10139153 0.04776119
v 0.03006662 -0.09237186 0.04880819
v 0.03006662 -0.09592706 0.04830962
v 0.03006662 -0.08880935 0.04903952
v 0.03006662 -0.08169896 0.04868853
v 0.01667972 -0.07815838 0.04891588
v 0.03006662 -0.09943837 0.04754382
v 0.03006662 -0.07818765 0.04813811
v 0.03006662 -0.10291310 0.04653073
v 0.03006662 -0.10629273 0.04526636
v 0.01667972 -0.10658534 0.04596436
v 0.01667972 -0.06992510 0.04680195
v 0.03006662 -0.07476412 0.04736035
v 0.03006662 -0.10957727 0.04376667
v 0.01667972 -0.11314710 0.04268179
v 0.03006662 -0.11275207 0.04203565
v 0.03006662 -0.07143569 0.04637917
v 0.01667972 -0.11665840 0.04031260
v 0.03006268 -0.11542213 0.04031260
v 0.01776341 -0.11916753 0.03837817
v 0.02886499 -0.11871398 0.03795139
v 0.02886499 -0.12268615 0.03427595
v 0.02886499 -0.12625598 0.03021363
v 0.02886499 -0.13024277 0.02420291
v 0.02886499 -0.13189601 0.02099214
v 0.02886499 -0.13450024 0.01424353
v 0.02886499 -0.13552436 0.01030286
v 0.03006268 -0.06170645 0.04031260
v 0.03006662 -0.06169182 0.04207554
v 0.02528961 -0.06836330 0.04566721
v 0.01776210 -0.13642413 0.00905445
v 0.01776341 -0.13561946 0.01250852
v 0.01776341 -0.13381261 0.01810842
v 0.01776341 -0.13268605 0.02077277
v 0.01776341 -0.13058658 0.02481315
v 0.01776341 -0.12872852 0.02785242
v 0.01776341 -0.12648274 0.03090365
v 0.01776341 -0.12440523 0.03340446
v 0.01776341 -0.12146451 0.03636396
v 0.01667972 -0.06169913 0.04031260
v 0.01923497 -0.13631440 0.00905445
v 0.02886499 -0.06170645 0.01030685
v 0.01923497 -0.06169913 0.00905445
v 0.02434089 -0.06169547 0.04289917
v 0.01776210 -0.06169913 0.00905445
v 0.01667972 -0.06169913 0.04367095
v 0.03006662 -0.06664422 0.04449857
f 2 5 7
f 2 7 10
f 2 10 13
f 2 13 15
f 2 15 17
f 2 17 42
f 2 42 41
f 2 41 40
f 2 40 39
f 2 39 38
f 2 38 37
f 2 37 36
f 2 36 35
f 2 35 34
f 2 34 33
f 2 33 52
f 2 52 51
f 2 51 50
f 2 50 49
f 2 49 48
f 2 48 47
f 2 47 46
f 2 46 45
f 2 45 44
f 2 44 43
f 2 43 25
f 2 25 16
f 2 16 14
f 2 14 11
f 2 11 8
f 2 8 6
f 2 6 1
f 1 6 3
f 3 12 9
f 3 9 4
f 3 4 1
f 4 7 5
f 1 4 2
f 4 5 2
f 6 8 3
f 4 9 10
f 4 10 7
f 3 8 11
f 3 11 12
f 9 13 10
f 11 14 12
f 9 15 13
f 12 14 16
f 9 17 15
f 9 18 19
f 9 19 20
f 9 20 21
f 9 21 22
f 9 22 23
f 9 23 24
f 9 24 17
f 9 12 31
f 9 31 18
f 12 16 25
f 12 26 27
f 12 27 28
f 12 28 29
f 12 29 30
f 12 30 31
f 18 31 32
f 18 32 33
f 18 33 34
f 18 34 19
f 19 34 35
f 19 35 36
f 19 36 37
f 19 37 38
f 19 38 20
f 20 38 39
f 20 39 40
f 20 40 21
f 21 40 41
f 21 41 22
f 22 41 42
f 22 42 23
f 23 42 24
f 24 42 17
f 25 26 12
f 26 25 43
f 26 43 27
f 27 43 44
f 27 44 45
f 27 45 28
f 28 45 29
f 29 45 46
f 29 46 30
f 30 46 47
f 30 47 48
f 30 48 49
f 30 49 50
f 30 50 31
f 31 50 51
f 31 51 52
f 31 52 32
f 32 52 33
f 53 54 55
f 53 55 61
f 53 61 56
f 53 56 59
f 53 59 54
f 54 57 58
f 54 58 55
f 54 59 66
f 54 66 71
f 54 71 76
f 54 76 75
f 54 75 82
f 54 82 86
f 54 86 90
f 54 90 91
f 54 91 88
f 54 88 84
f 54 84 81
f 54 81 80
f 54 80 79
f 54 79 74
f 54 74 72
f 54 72 68
f 54 68 67
f 54 67 62
f 54 62 57
f 55 58 60
f 55 60 69
f 55 69 73
f 55 73 78
f 55 78 85
f 55 85 89
f 55 89 87
f 55 87 83
f 55 83 77
f 55 77 70
f 55 70 64
f 55 64 61
f 56 61 59
f 57 62 63
f 57 63 60
f 57 60 58
f 59 61 64
f 59 64 65
f 59 65 66
f 60 63 67
f 60 67 68
f 60 68 69
f 62 67 63
f 64 70 65
f 65 70 66
f 66 70 71
f 68 72 69
f 69 72 74
f 69 74 73
f 70 75 76
f 70 76 71
f 70 77 75
f 73 74 79
f 73 79 80
f 73 80 81
f 73 81 78
f 75 77 83
f 75 83 82
f 78 81 84
f 78 84 85
f 82 83 86
f 83 87 86
f 84 88 85
f 85 88 89
f 86 87 90
f 87 89 90
f 88 91 89
f 89 91 90
f 92 93 94
f 92 94 99
f 92 99 95
f 92 96 93
f 92 95 102
f 92 102 96
f 93 97 94
f 94 97 98
f 94 98 109
f 94 109 99
f 96 100 101
f 96 102 115
f 96 115 100
f 93 103 97
f 98 97 104
f 98 104 105
f 98 106 107
f 98 107 108
f 98 108 121
f 98 121 109
f 99 109 110
f 100 111 112
f 100 112 107
f 100 107 106
f 100 106 113
f 100 113 114
f 100 114 101
f 100 115 143
f 100 143 141
f 100 141 135
f 100 135 140
f 101 103 96
f 101 104 103
f 96 103 93
f 102 95 116
f 99 110 95
f 97 103 104
f 104 114 113
f 104 113 105
f 105 113 106
f 105 106 98
f 107 117 108
f 108 117 118
f 108 118 119
f 108 119 120
f 108 120 136
f 108 136 121
f 109 122 123
f 109 123 124
f 109 124 125
f 109 125 126
f 109 126 110
f 100 118 111
f 111 118 127
f 111 127 112
f 112 127 128
f 112 128 117
f 112 117 107
f 114 104 101
f 115 102 129
f 115 129 130
f 115 130 123
f 115 123 122
f 115 122 131
f 115 131 132
f 115 132 133
f 115 133 134
f 110 116 95
f 117 128 127
f 117 127 118
f 118 100 119
f 120 135 141
f 120 141 136
f 121 136 134
f 121 134 137
f 121 137 138
f 121 138 122
f 121 122 109
f 122 138 131
f 124 123 130
f 124 130 125
f 125 130 126
f 126 130 129
f 102 126 129
f 131 138 139
f 131 139 132
f 132 139 137
f 132 137 133
f 133 137 134
f 102 116 126
f 119 100 140
f 136 142 134
f 134 142 115
f 138 137 139
f 110 126 116
f 120 119 135
f 135 119 140
f 142 143 115
f 141 142 136
f 142 141 143
f 146 144 148
f 144 145 147
f 145 154 160
f 145 160 177
f 145 177 190
f 145 190 193
f 145 193 180
f 145 180 169
f 145 169 163
f 145 163 158
f 145 158 147
f 147 148 144
f 144 146 149
f 148 151 146
f 148 152 153
f 148 153 151
f 146 151 149
f 149 150 144
f 145 144 150
f 145 150 154
f 149 155 150
f 153 152 156
f 150 155 157
f 147 158 152
f 147 152 148
f 151 153 167
f 151 167 182
f 151 182 195
f 151 195 172
f 151 172 155
f 151 155 149
f 152 158 159
f 152 159 156
f 150 157 154
f 154 157 160
f 159 158 163
f 155 162 164
f 155 164 157
f 159 163 165
f 156 159 161
f 161 166 167
f 161 167 156
f 156 167 153
f 155 168 162
f 157 164 160
f 163 169 170
f 163 170 171
f 165 161 159
f 161 165 166
f 155 172 168
f 162 168 164
f 169 174 175
f 169 175 170
f 171 165 163
f 168 172 173
f 164 177 160
f 174 169 180
f 174 180 178
f 174 178 194
f 174 194 182
f 174 182 185
f 170 175 181
f 170 181 176
f 170 176 171
f 165 171 176
f 165 176 166
f 166 176 167
f 172 183 173
f 168 184 164
f 174 185 179
f 174 179 175
f 181 167 176
f 167 187 182
f 173 184 168
f 164 184 177
f 185 187 179
f 175 179 181
f 181 186 167
f 167 186 187
f 172 188 183
f 183 189 173
f 184 190 177
f 178 180 191
f 179 187 181
f 173 189 184
f 184 189 190
f 178 191 194
f 187 186 181
f 187 185 182
f 172 195 188
f 183 188 192
f 183 192 189
f 189 192 193
f 189 193 190
f 180 193 191
f 194 191 188
f 182 194 195
f 188 195 194
f 193 192 191
f 188 191 192
f 196 200 201
f 196 201 197
f 197 198 202
f 197 202 199
f 197 201 204
f 197 204 210
f 197 210 214
f 197 214 219
f 197 219 224
f 197 224 229
f 197 229 234
f 197 234 237
f 197 237 242
f 197 242 245
f 197 245 247
f 197 247 243
f 197 243 238
f 197 238 233
f 197 233 230
f 197 230 228
f 197 228 225
f 197 225 220
f 197 220 218
f 197 218 215
f 197 215 212
f 197 212 208
f 197 208 205
f 197 205 198
f 196 197 199
f 196 199 203
f 196 203 200
f 199 202 206
f 199 206 211
f 199 211 216
f 199 216 222
f 199 222 221
f 199 221 226
f 199 226 231
f 199 231 235
f 199 235 240
f 199 240 246
f 199 246 244
f 199 244 241
f 199 241 239
f 199 239 236
f 199 236 232
f 199 232 227
f 199 227 223
f 199 223 217
f 199 217 213
f 199 213 209
f 199 209 207
f 199 207 203
f 200 203 204
f 200 204 201
f 204 203 207
f 205 202 198
f 202 205 206
f 207 209 210
f 207 210 204
f 208 206 205
f 206 208 211
f 208 212 211
f 209 213 210
f 210 213 214
f 211 212 216
f 214 213 217
f 212 215 216
f 217 219 214
f 218 220 221
f 218 221 222
f 218 222 215
f 215 222 216
f 217 223 219
f 219 223 224
f 221 220 225
f 221 225 226
f 223 227 224
f 225 228 226
f 227 229 224
f 228 230 231
f 228 231 226
f 227 232 229
f 230 233 231
f 229 232 234
f 233 235 231
f 232 236 234
f 234 236 237
f 233 238 235
f 236 239 237
f 235 238 240
f 239 241 242
f 239 242 237
f 238 243 240
f 241 244 245
f 241 245 242
f 240 243 246
f 244 247 245
f 243 247 246
f 246 247 244
f 248 251 254
f 248 254 259
f 248 259 269
f 248 269 274
f 248 274 279
f 248 279 286
f 248 286 291
f 248 291 299
f 248 299 297
f 248 297 284
f 248 284 276
f 248 276 272
f 248 272 265
f 248 265 262
f 248 262 255
f 248 255 249
f 248 249 250
f 251 248 250
f 251 250 252
f 249 253 250
f 251 252 254
f 250 256 252
f 252 257 254
f 255 253 249
f 253 256 250
f 254 257 259
f 258 253 255
f 253 260 256
f 256 260 266
f 256 266 282
f 256 282 298
f 256 298 295
f 256 295 270
f 256 270 261
f 256 261 252
f 252 261 257
f 255 262 258
f 253 258 260
f 258 262 260
f 262 263 260
f 261 264 257
f 257 264 259
f 260 263 266
f 262 265 263
f 263 267 266
f 259 264 269
f 261 268 264
f 264 268 269
f 263 265 267
f 261 270 268
f 268 270 271
f 265 272 267
f 267 272 273
f 267 273 266
f 271 274 269
f 271 269 268
f 266 273 275
f 272 276 273
f 275 273 276
f 271 277 278
f 271 278 274
f 274 278 280
f 274 280 279
f 275 276 281
f 266 275 282
f 270 277 271
f 280 283 279
f 276 284 281
f 282 275 281
f 277 270 285
f 277 285 280
f 279 283 287
f 279 287 288
f 279 288 293
f 279 293 295
f 279 295 298
f 279 298 290
f 279 290 286
f 280 278 277
f 286 290 291
f 288 287 292
f 280 285 283
f 284 289 281
f 289 282 281
f 288 292 293
f 282 289 294
f 283 292 287
f 284 297 289
f 270 295 292
f 270 292 285
f 285 292 283
f 291 290 296
f 297 294 289
f 290 298 296
f 294 296 282
f 296 299 291
f 292 295 293
f 294 297 299
f 294 299 296
f 296 298 282
f 300 301 304
f 300 304 305
f 300 305 302
f 300 302 306
f 300 306 303
f 300 303 301
f 301 303 307
f 301 307 304
f 302 305 308
f 302 308 306
f 303 306 308
f 303 308 307
f 304 307 308
f 304 308 305
f 309 311 319
f 309 319 325
f 309 325 359
f 309 359 353
f 309 353 331
f 309 331 328
f 309 328 324
f 309 324 314
f 309 314 312
f 309 312 310
f 311 309 313
f 310 315 309
f 310 312 316
f 310 316 315
f 309 317 313
f 309 315 317
f 313 318 311
f 311 318 319
f 312 314 320
f 312 320 316
f 319 318 321
f 320 314 322
f 316 320 322
f 316 322 323
f 316 323 327
f 316 327 329
f 316 329 342
f 316 342 360
f 316 360 330
f 316 330 326
f 316 326 321
f 316 321 318
f 316 318 313
f 316 313 317
f 316 317 315
f 322 314 323
f 314 324 323
f 319 326 325
f 319 321 326
f 323 324 327
f 324 328 327
f 327 328 329
f 326 330 325
f 329 328 331
f 329 331 332
f 331 333 334
f 331 334 332
f 332 334 335
f 332 335 336
f 332 336 337
f 332 337 338
f 332 338 339
f 332 339 340
f 332 340 341
f 332 341 342
f 332 342 329
f 330 343 325
f 331 344 345
f 331 345 346
f 331 346 347
f 331 347 348
f 331 348 349
f 331 349 350
f 331 350 351
f 331 351 352
f 331 352 333
f 331 353 358
f 331 358 344
f 333 352 334
f 334 352 335
f 335 351 336
f 336 349 337
f 337 349 348
f 337 348 338
f 338 346 339
f 339 346 345
f 339 345 340
f 340 344 354
f 340 354 356
f 341 355 342
f 341 340 355
f 342 355 356
f 342 356 358
f 342 358 357
f 344 358 356
f 344 356 354
f 349 336 350
f 352 351 335
f 353 359 357
f 353 357 358
f 336 351 350
f 348 347 338
f 338 347 346
f 340 345 344
f 340 356 355
f 330 360 343
f 343 359 325
f 342 357 360
f 343 360 359
f 359 360 357

