# https://github.com/mikedh/trimesh
v -0.05915618 0.02592989 0.02838330
v -0.05920049 -0.02301553 0.03028646
v -0.05917191 0.02155604 -0.03187995
v -0.05153402 -0.00760293 -0.04719347
v -0.04809239 -0.10406989 0.00157238
v -0.03840067 -0.10412668 0.02913623
v -0.03289950 -0.10410775 -0.03350107
v 0.03206689 -0.10410775 0.03535458
v -0.05000829 -0.00281537 0.04819719
v -0.04476291 0.04692671 0.00906421
v -0.05151115 0.04451967 -0.01811642
v 0.03180677 -0.10389190 -0.03591128
v 0.00005606 -0.10383131 -0.04874346
v 0.04673918 -0.10393450 -0.00473733
v -0.00707302 -0.10366090 0.04628055
v 0.04183008 -0.00280117 -0.04876553
v 0.05410444 -0.01492296 -0.03554401
v 0.05414732 -0.01559703 0.03511546
v 0.04230459 -0.00491424 0.04891578
v -0.04261337 0.02441442 0.04173373
v -0.03837351 0.01784301 -0.04627991
v 0.03769384 0.04604342 0.01732674
v 0.04219373 0.04823993 -0.00343129
v 0.03809117 0.03293561 -0.03672858
v 0.05415018 0.03223504 -0.02117717
v 0.05416162 0.02307079 0.03094373
v 0.04086212 0.03093188 0.03715688
v -0.04782427 -0.09379777 -0.01006554
v -0.04782427 -0.09110836 -0.01035206
v -0.04782427 -0.09379777 0.01014704
v -0.04811827 -0.09110836 -0.00891846
v -0.04782427 -0.09110836 0.01040714
v -0.04811878 -0.09379777 0.00869414
v -0.04820334 -0.09379777 -0.00815340
v -0.04843150 -0.09110836 -0.00722680
v -0.04817680 -0.09110836 0.00869414
v -0.04838371 -0.09110836 0.00746883
v -0.04841232 -0.09379777 0.00689275
v -0.04845365 -0.09379777 -0.00662735
v -0.04869867 -0.09110836 -0.00508910
v -0.04864211 -0.09110836 0.00562985
v -0.04858499 -0.09379777 0.00562985
v -0.04878571 -0.09379777 -0.00355695
v -0.04884205 -0.09110836 -0.00355695
v -0.04874433 -0.09379777 0.00409973
v -0.04880010 -0.09110836 0.00409973
v -0.04887398 -0.09379777 -0.00202480
v -0.04893021 -0.09110836 -0.00202480
v -0.04890367 -0.09110836 0.00256758
v -0.04884857 -0.09379777 0.00256758
v -0.04891840 -0.09379777 -0.00049469
v -0.04897305 -0.09110836 -0.00049469
v -0.04891244 -0.09379777 0.00103543
v -0.04896686 -0.09110836 0.00103543
v 0.03632387 -0.03885564 -0.03965680
v 0.03591050 -0.03885564 -0.03897153
v 0.03632387 -0.03741409 -0.04022498
v 0.03632387 -0.03885564 0.00373674
v 0.03590124 -0.03885564 -0.03892816
v 0.03585276 -0.03741409 -0.03924477
v 0.03614606 -0.03604757 -0.04031606
v 0.03632387 -0.03714194 -0.04031606
v 0.03632387 -0.03604757 0.00373674
v 0.03515650 -0.03885564 0.00373674
v 0.03569393 -0.03741409 -0.03848143
v 0.03575259 -0.03885564 -0.03820819
v 0.03581651 -0.03604757 -0.03943127
v 0.03534712 -0.03604757 -0.03725401
v 0.03537433 -0.03604757 -0.03738412
v 0.03566031 -0.03604757 -0.03874600
v 0.03632387 -0.03604757 -0.04057195
v 0.03515650 -0.03604757 0.00373674
v 0.03515638 -0.03885564 0.00265678
v 0.03544145 -0.03741409 -0.03725401
v 0.03573784 -0.03885564 -0.03813446
v 0.03528811 -0.03885564 -0.03572298
v 0.03522065 -0.03741409 -0.03572298
v 0.03517708 -0.03604757 -0.03572298
v 0.03515638 -0.03604757 0.00256570
v 0.03515627 -0.03885564 -0.00040527
v 0.03556186 -0.03885564 -0.03725401
v 0.03516153 -0.03885564 -0.03419195
v 0.03515581 -0.03741409 -0.03419195
v 0.03515581 -0.03604757 -0.03419195
v 0.03515627 -0.03604757 -0.00066117
v 0.03515627 -0.03741409 -0.00049635
v 0.03515615 -0.03604757 -0.00509377
v 0.03515615 -0.03885564 -0.00500269
v 0.03515581 -0.03885564 -0.03265659
v 0.03515581 -0.03604757 -0.02975935
v 0.03515604 -0.03604757 -0.00985166
v 0.03515604 -0.03885564 -0.01113113
v 0.03515581 -0.03885564 -0.03103882
v 0.03515593 -0.03885564 -0.01887301
v 0.03515593 -0.03604757 -0.01887301
f 1 3 2
f 2 3 4
f 5 6 2
f 2 4 5
f 5 4 7
f 5 7 8
f 5 8 6
f 7 12 8
f 3 1 11
f 12 14 8
f 1 10 11
f 13 12 7
f 8 15 6
f 2 6 9
f 2 9 1
f 9 6 15
f 13 4 16
f 14 17 18
f 15 19 9
f 7 4 13
f 14 12 17
f 12 16 17
f 8 18 19
f 9 20 1
f 3 21 4
f 13 16 12
f 14 18 8
f 8 19 15
f 20 10 1
f 10 23 11
f 4 21 16
f 10 22 23
f 11 23 24
f 3 11 24
f 21 3 24
f 16 25 17
f 18 17 26
f 20 27 22
f 20 22 10
f 21 25 16
f 9 19 20
f 21 24 25
f 20 19 27
f 22 26 23
f 19 26 27
f 23 25 24
f 18 26 19
f 26 17 25
f 22 27 26
f 23 26 25
f 28 29 32
f 28 32 30
f 28 30 33
f 28 33 38
f 28 38 42
f 28 42 45
f 28 45 50
f 28 50 53
f 28 53 51
f 28 51 47
f 28 47 43
f 28 43 39
f 28 39 34
f 28 31 29
f 29 31 35
f 29 35 40
f 29 40 44
f 29 44 48
f 29 48 52
f 29 52 54
f 29 54 49
f 29 49 46
f 29 46 41
f 29 41 37
f 29 37 36
f 29 36 32
f 30 32 33
f 28 34 31
f 31 34 35
f 32 36 33
f 33 36 37
f 33 37 38
f 34 39 35
f 39 40 35
f 37 41 38
f 38 41 42
f 39 43 40
f 42 41 45
f 40 43 44
f 41 46 45
f 44 47 48
f 46 49 50
f 46 50 45
f 44 43 47
f 47 51 48
f 48 51 52
f 50 49 53
f 52 51 53
f 52 53 54
f 49 54 53
f 55 56 57
f 55 57 62
f 55 62 71
f 55 71 63
f 55 63 58
f 55 58 64
f 55 64 73
f 55 73 80
f 55 80 88
f 55 88 92
f 55 92 94
f 55 94 93
f 55 93 89
f 55 89 82
f 55 82 76
f 55 76 81
f 55 81 75
f 55 75 66
f 55 66 59
f 55 59 56
f 56 59 60
f 56 60 61
f 56 61 62
f 56 62 57
f 58 63 72
f 58 72 64
f 59 65 60
f 59 66 65
f 60 67 61
f 60 65 68
f 60 68 69
f 60 69 70
f 60 70 67
f 61 67 70
f 61 70 69
f 61 69 68
f 61 68 78
f 61 78 84
f 61 84 90
f 61 90 95
f 61 95 91
f 61 91 87
f 61 87 85
f 61 85 79
f 61 79 72
f 61 72 63
f 61 63 71
f 61 71 62
f 64 72 73
f 65 66 74
f 65 74 68
f 66 75 74
f 68 74 76
f 68 76 77
f 68 77 78
f 72 79 73
f 73 79 80
f 74 75 81
f 74 81 76
f 76 82 77
f 77 82 78
f 78 82 83
f 78 83 84
f 79 85 86
f 79 86 80
f 80 86 87
f 80 87 88
f 82 89 83
f 83 89 93
f 83 93 90
f 83 90 84
f 85 87 86
f 87 91 88
f 88 91 92
f 90 93 94
f 90 94 95
f 91 95 94
f 91 94 92

