# https://github.com/mikedh/trimesh
v 0.02883236 -0.07657614 0.03864704
v 0.02063775 0.02665175 0.03235450
v 0.02063775 -0.03362395 0.03149022
v 0.03573551 0.00707513 0.03037339
v 0.00613289 0.04822294 -0.00026061
v 0.00612872 -0.03644516 -0.00026061
v 0.02063775 0.04145619 0.01451408
v 0.00613289 0.03322930 -0.03232986
v 0.02853703 -0.11325192 0.00244594
v 0.02884068 -0.10249802 0.02662297
v 0.00613080 -0.03657988 -0.03102965
v 0.04287213 -0.07351718 0.02942003
v 0.02883028 -0.07657614 -0.03857692
v 0.03047336 0.01285673 -0.03224078
v 0.03446164 -0.10870521 0.01535325
v 0.03584081 0.02524065 0.02030578
v 0.02870341 -0.10187196 -0.02753843
v 0.04456954 0.00558775 0.01688279
v 0.02728080 0.02841105 -0.02880452
v 0.03858270 0.00156197 -0.02891066
v 0.04190318 -0.07939735 -0.03063518
v 0.03815633 -0.10549655 -0.01670274
v 0.04060639 0.02612476 0.00399160
v 0.04664836 -0.10006512 0.00002369
v 0.04776965 -0.07391738 0.01481781
v 0.04375970 0.01371948 -0.01091482
v 0.04832198 -0.07457612 -0.01103376
v -0.02883517 -0.07287758 0.03864158
v -0.02775863 0.02004335 0.03229809
v -0.03858123 0.00146368 0.02897855
v -0.03210207 -0.09124278 0.03420606
v -0.04092710 -0.07353603 0.03272819
v -0.04015212 0.01561854 0.02250622
v -0.02891280 -0.11285133 0.00811399
v -0.02812838 -0.11044327 -0.01040114
v -0.03558328 -0.10637426 0.01807638
v -0.02775863 0.03532322 0.01855574
v -0.02775863 0.02351057 -0.03078634
v -0.04144290 -0.09252935 0.02655024
v -0.04614306 -0.07836343 0.02238709
v -0.03699094 -0.11048090 -0.00555636
v -0.04815621 0.00197351 -0.00031748
v -0.02886294 -0.07762150 -0.03756947
v -0.03046122 -0.09724834 -0.03091424
v -0.04334089 -0.10318900 0.00956913
v -0.03498940 0.00877298 -0.03057271
v -0.04177612 0.02528087 0.00023956
v -0.03744430 -0.07548881 -0.03559512
v -0.04272534 -0.09424403 -0.02108660
v -0.04058927 0.01932093 -0.01849535
v -0.02775863 0.03715936 -0.01019840
v -0.04358194 -0.07352474 -0.02923457
v -0.04837734 -0.08475231 0.00345015
v -0.04669103 -0.07914605 -0.02121994
v 0.00311106 0.01849893 0.03512957
v -0.00581221 0.03358002 0.03235634
v 0.02062707 0.03032682 0.03066666
v 0.00601254 0.03844374 0.02930433
v -0.01284121 0.03892391 0.02616800
v -0.02776144 0.02324490 0.03083365
v 0.02229402 -0.00884945 0.03475861
v 0.02561746 0.00006469 0.03154622
v -0.02776667 0.01902791 -0.03226170
v -0.02327793 -0.00444752 0.03513722
v 0.02062707 0.04417590 -0.00026350
v -0.02776144 0.03796357 0.01264556
v -0.02776144 -0.04451520 0.02932087
v 0.00238993 -0.02370022 0.03511738
v 0.02062707 -0.04072899 0.03057408
v 0.02062707 -0.04209368 0.02409640
v 0.02062707 -0.03687845 -0.00025689
v 0.00612619 0.04446998 -0.01909803
v 0.00612097 0.03340542 -0.03230138
v -0.02776144 0.03803250 -0.01196564
v -0.02776667 -0.04427627 -0.02926259
v 0.00611574 -0.04060952 -0.02901790
v 0.00611574 -0.03329441 -0.03227823
v -0.00844523 0.03758219 -0.02914025
v 0.00082425 0.04695353 0.00943981
v -0.01639066 0.04591278 0.00004402
v -0.00232947 0.04758964 -0.00616339
f 1 2 3
f 2 5 6
f 2 6 3
f 4 2 1
f 5 2 7
f 6 5 8
f 6 8 11
f 6 9 10
f 6 10 1
f 6 1 3
f 4 1 12
f 8 13 11
f 6 11 9
f 8 14 13
f 10 9 15
f 11 13 17
f 11 17 9
f 4 12 18
f 2 16 7
f 10 12 1
f 2 4 16
f 14 8 19
f 14 21 13
f 17 22 9
f 14 19 20
f 20 21 14
f 9 22 15
f 16 4 18
f 7 23 5
f 5 19 8
f 7 16 23
f 13 21 17
f 10 15 24
f 12 25 18
f 22 24 15
f 10 24 12
f 16 18 23
f 20 19 26
f 5 23 19
f 21 20 26
f 25 12 24
f 17 21 22
f 18 26 23
f 24 27 25
f 25 26 18
f 19 23 26
f 26 27 21
f 24 22 21
f 21 27 24
f 26 25 27
f 29 38 51
f 29 51 37
f 28 29 30
f 30 32 28
f 29 28 34
f 29 34 35
f 28 31 34
f 29 33 30
f 28 32 31
f 29 35 38
f 31 36 34
f 29 37 33
f 32 39 31
f 30 40 32
f 34 41 35
f 38 35 43
f 43 35 44
f 34 36 41
f 32 40 39
f 31 39 36
f 30 33 40
f 41 44 35
f 33 42 40
f 38 43 46
f 42 33 47
f 39 45 36
f 41 36 45
f 39 40 45
f 43 48 46
f 43 44 48
f 33 37 47
f 41 45 49
f 38 46 50
f 48 44 49
f 44 41 49
f 46 48 52
f 37 51 47
f 38 50 51
f 49 52 48
f 40 53 45
f 46 52 50
f 42 54 53
f 40 42 53
f 47 51 50
f 47 50 42
f 52 49 54
f 50 52 42
f 45 53 49
f 49 53 54
f 54 42 52
f 55 64 68
f 55 68 61
f 55 57 56
f 55 56 60
f 56 59 60
f 56 58 59
f 57 58 56
f 55 61 57
f 55 60 64
f 62 65 57
f 63 60 66
f 63 75 67
f 63 67 60
f 61 62 57
f 62 61 69
f 62 69 70
f 62 70 71
f 62 71 65
f 65 73 72
f 60 67 64
f 60 59 66
f 63 66 74
f 69 68 67
f 69 61 68
f 69 67 70
f 70 67 75
f 70 75 76
f 70 76 71
f 71 76 77
f 71 77 73
f 71 73 65
f 67 68 64
f 57 65 58
f 76 75 77
f 73 77 63
f 77 75 63
f 73 78 72
f 65 79 58
f 74 66 80
f 58 79 59
f 63 78 73
f 63 74 78
f 72 78 81
f 81 79 72
f 72 79 65
f 59 79 66
f 74 80 78
f 66 79 80
f 78 80 81
f 79 81 80

