# https://github.com/mikedh/trimesh
v -0.03736066 -0.04159844 -0.02935350
v -0.03722170 0.00452611 -0.02934994
v -0.03474128 -0.08455442 -0.03194363
v -0.03320531 -0.09723776 -0.03005214
v -0.02861294 -0.10757121 -0.03005214
v -0.01640745 -0.11574882 -0.03005392
v 0.03721443 0.00452611 -0.02934994
v -0.02981246 -0.07821426 -0.03689278
v -0.03325742 -0.10011827 -0.03138098
v -0.02852151 -0.10828982 -0.03136654
v 0.00396338 -0.11787889 -0.03005392
v -0.01673841 -0.11632796 -0.03128410
v 0.03220423 0.00452611 -0.03477019
v 0.03736071 -0.04159844 -0.02935172
v -0.02720862 0.00452611 -0.03880027
v -0.01507719 -0.11228311 -0.03653791
v 0.00000002 -0.11937827 -0.03123610
v 0.03537858 -0.08421786 -0.03137831
v 0.02383501 -0.11179191 -0.03005392
v 0.03123877 -0.10352637 -0.03005392
v -0.02453164 -0.07821426 -0.04058154
v -0.02072097 -0.10129170 -0.04028110
v -0.02139204 -0.09253192 -0.04154017
v -0.00243010 -0.11598836 -0.03587193
v 0.03341107 -0.09979080 -0.03138187
v 0.01587722 -0.11651747 -0.03128076
v 0.02812111 -0.10877041 -0.03136787
v -0.01579123 0.00452611 -0.04468272
v -0.01878272 -0.07821426 -0.04353432
v -0.01448200 -0.10626133 -0.04098685
v 0.02170111 0.00452611 -0.04212726
v 0.02980519 -0.07821426 -0.03689278
v 0.02683016 -0.09253192 -0.03825984
v 0.00885380 -0.11452385 -0.03633525
v 0.02027485 -0.10980891 -0.03621280
v 0.02582995 -0.10233171 -0.03682878
v -0.00930906 -0.09789270 -0.04509115
v -0.01272660 -0.07821426 -0.04568357
v -0.00561725 -0.10980891 -0.04119040
v -0.00300244 -0.10337173 -0.04456139
v 0.00280683 -0.10980891 -0.04138106
v 0.01879739 -0.07821426 -0.04353432
v 0.02453900 -0.07821426 -0.04058154
v -0.00321820 0.00452611 -0.04728885
v -0.00642180 -0.07821426 -0.04699019
v 0.00959253 0.00452611 -0.04641421
v 0.01448204 -0.10626133 -0.04098685
v 0.01829637 -0.09789270 -0.04236636
v 0.00000002 -0.08537309 -0.04713597
v 0.00768720 -0.10011220 -0.04488405
v 0.01256208 -0.09253192 -0.04512004
v 0.00641453 -0.07821426 -0.04699019
v 0.03567729 -0.05879774 0.03137016
v 0.03506965 -0.05879774 0.03004899
v 0.03548871 -0.08216794 0.03137179
v 0.03476933 -0.08561921 0.03004899
v -0.03506712 -0.05879774 0.03004899
v 0.03458773 -0.05879774 0.03243490
v 0.03428391 -0.08388764 0.03243490
v -0.03459218 -0.05879774 0.03243490
v 0.03481123 -0.09255139 0.03137588
v 0.03375660 -0.09543042 0.03004899
v -0.03552808 -0.08017545 0.03137156
v -0.03567476 -0.05879774 0.03137016
v -0.03415217 -0.08828771 0.03243490
v 0.03281371 -0.09753261 0.03243490
v 0.03325372 -0.10013292 0.03137775
v -0.03442805 -0.09025351 0.03004899
v -0.03502259 -0.09038916 0.03137512
v 0.03141684 -0.10312165 0.03004899
v 0.02904566 -0.10629421 0.03243490
v 0.03055776 -0.10587021 0.03136362
v -0.03434075 -0.09597895 0.03137693
v -0.03199051 -0.10074371 0.03243490
v -0.03272736 -0.09974451 0.03004899
v 0.02915391 -0.10691983 0.03004899
v -0.03290721 -0.10117661 0.03137705
v 0.02670939 -0.11046301 0.03134120
v 0.02333945 -0.11204336 0.03243490
v 0.02425090 -0.11175279 0.03004899
v -0.02988823 -0.10579016 0.03004899
v -0.03019903 -0.10639205 0.03136158
v 0.01996950 -0.11512104 0.03129543
v -0.02892439 -0.10645728 0.03243490
v 0.01966568 -0.11453989 0.03004899
v 0.01659606 -0.11569032 0.03243490
v -0.02633669 -0.10997675 0.03004899
v -0.02606430 -0.11103822 0.03133653
v 0.01315977 -0.11695934 0.03004899
v -0.02379439 -0.11175279 0.03243490
v 0.01163543 -0.11800155 0.03125648
v -0.02134638 -0.11360888 0.03004899
v -0.02227180 -0.11385202 0.03131060
v 0.01085493 -0.11747822 0.03243490
v -0.01754340 -0.11616769 0.03128258
v -0.01724657 -0.11539975 0.03243490
v 0.00320883 -0.11845667 0.03004899
v -0.01492078 -0.11645826 0.03004899
v 0.00467379 -0.11916531 0.03123680
v -0.01021159 -0.11833956 0.03125152
v -0.00738118 -0.11813942 0.03004899
v -0.01132734 -0.11737445 0.03243490
v -0.00225468 -0.11844111 0.03243490
v -0.00203467 -0.11929577 0.03123447
v 0.04484640 0.00451188 0.01560431
v 0.04242340 0.00450934 0.02138591
v 0.04750193 0.00451950 -0.00000371
v -0.04750661 0.00451950 0.00000325
v 0.03100135 0.00451950 0.03598157
v 0.03734952 0.00451442 0.02918296
v 0.04661830 -0.02865370 0.00897055
v 0.04751123 -0.02760211 0.00000558
v -0.04643230 0.00451950 0.00994808
v -0.04273968 0.00451950 0.02068469
v 0.01776555 0.00451950 0.04394347
v 0.02604374 0.00451950 0.03971988
v 0.03100135 -0.04478308 0.03597693
v 0.03625661 -0.04478308 0.03069686
v 0.04109331 -0.03500639 0.02376357
v 0.04391161 -0.03149602 0.01803073
v 0.03505674 -0.04584483 0.03004672
v 0.01205452 -0.03446028 -0.00000371
v -0.04750196 -0.02760211 0.00000093
v -0.04659508 -0.02866005 0.00874881
v -0.04144911 -0.03452251 0.02310414
v -0.03594969 0.00451950 0.03104515
v -0.03158737 0.00451950 0.03547075
v 0.02063966 -0.04045482 0.04278019
v 0.02604374 -0.03920003 0.03971988
v -0.02133729 0.00451950 0.04243654
v -0.01561696 0.00451950 0.04486064
v -0.00963620 0.00451950 0.04651849
v -0.00347872 0.00451950 0.04737761
v 0.00270668 0.00451950 0.04742405
v 0.00887346 0.00451950 0.04666710
v 0.03803782 -0.03040126 -0.00000371
v 0.01488213 -0.04478816 0.04510676
v 0.01832363 -0.04690149 0.03004672
v 0.02638789 -0.03281178 -0.00000371
v -0.00000001 -0.03485653 0.00000558
v -0.01169180 -0.03448568 0.00000093
v -0.02554150 -0.03288163 0.00000093
v -0.03893543 -0.03015487 0.00000093
v -0.03623804 -0.04478308 0.03070150
v -0.03502421 -0.04585245 0.03004672
v -0.04442322 -0.03091943 0.01673044
v -0.03968883 0.00449918 0.02609015
v -0.02669486 0.00451950 0.03928800
v -0.03158737 -0.04478308 0.03546610
v -0.02668556 -0.04478816 0.03928800
v -0.01560766 -0.04478816 0.04486064
v -0.00347872 -0.04478816 0.04737761
v 0.00578542 -0.04478816 0.04704325
v -0.00000001 -0.04734346 0.03004672
v -0.01921193 -0.04689895 0.03004672
v -0.00962690 -0.04478816 0.04651385
v 0.03305169 -0.06854951 0.03391017
v 0.03455425 -0.06925995 0.03243024
v -0.03459039 -0.06925505 0.03243024
v -0.03308784 -0.06854951 0.03391017
v 0.03075048 -0.08950036 0.03568431
v 0.02602623 -0.06854951 0.03968640
v 0.03405340 -0.08974534 0.03243024
v -0.02666475 -0.06855440 0.03925603
v 0.02582995 -0.08950036 0.03939656
v 0.02063192 -0.06854951 0.04273700
v -0.02881029 -0.09100454 0.03697614
v -0.02131782 -0.06855440 0.04239446
v -0.01560540 -0.06855440 0.04481562
v -0.00962225 -0.06855440 0.04646973
v 0.02035780 -0.09249894 0.04218733
v 0.02531217 -0.09787384 0.03860317
v 0.01476383 -0.08950036 0.04473364
v -0.03263944 -0.09831848 0.03243024
v -0.00347666 -0.06855440 0.04732899
v 0.00270954 -0.06855440 0.04738316
v 0.01710903 -0.10025016 0.04231175
v 0.03200599 -0.10070583 0.03243024
v 0.00886866 -0.06855440 0.04662051
v 0.00882129 -0.08382657 0.04643899
v 0.00861485 -0.09787384 0.04534845
v -0.02593716 -0.09787384 0.03818452
v -0.02104370 -0.09249894 0.04184992
v -0.01549034 -0.08950036 0.04448772
v 0.01894323 -0.10624732 0.03925969
v 0.02438154 -0.10440016 0.03717741
v 0.00266216 -0.09249894 0.04677274
v 0.00259448 -0.10025016 0.04566463
v -0.02024843 -0.10232516 0.04029242
v -0.01517561 -0.09787384 0.04359113
v -0.00949703 -0.09249894 0.04587323
v -0.00344959 -0.08950036 0.04698500
v 0.01089745 -0.10624732 0.04210572
v -0.00632441 -0.09906200 0.04541139
v -0.02891858 -0.10646290 0.03243024
v -0.02328400 -0.10624487 0.03676388
v 0.00246927 -0.10624732 0.04351794
v 0.01512593 -0.11150463 0.03743504
v 0.02410404 -0.11149483 0.03243024
v -0.00600968 -0.10624732 0.04307660
v -0.01432619 -0.10624732 0.04116485
v 0.00848626 -0.11305292 0.03808242
v 0.01753713 -0.11524183 0.03243024
v -0.02250903 -0.11263155 0.03243024
v -0.01037522 -0.11305292 0.03758691
v -0.00032434 -0.11305292 0.03899510
v 0.00071967 -0.11860421 0.03243024
v -0.01411638 -0.11645939 0.03243024
v 0.02865130 -0.03922391 0.03777397
v 0.02606022 -0.03922391 0.03972381
v 0.03101521 -0.04643131 0.03598918
v 0.03100101 -0.04479881 0.03598918
v 0.03544489 -0.04479881 0.03163183
v 0.03626126 -0.04479881 0.03070285
v 0.03508995 -0.04479881 0.03005290
v -0.03511766 -0.04479881 0.03004950
v -0.02255270 -0.03922391 0.03777397
v 0.02217005 -0.03922391 0.04192716
v 0.02604247 -0.05179167 0.03971445
v 0.02601762 -0.06854722 0.03968298
v 0.03097972 -0.06854722 0.03595175
v 0.03544489 -0.04860749 0.03163863
v 0.03565786 -0.05878160 0.03137831
v 0.03506865 -0.05878160 0.03005290
v -0.03626057 -0.04479881 0.03070115
v -0.02255270 -0.03922391 0.04173149
v 0.01701628 -0.04047290 0.04425131
v 0.02065089 -0.04047290 0.04278297
v -0.02221905 -0.03922391 0.04192716
v 0.02064379 -0.04861042 0.04278128
v 0.02062250 -0.06854722 0.04273704
v 0.03455044 -0.06924077 0.03243490
v -0.03506087 -0.05878160 0.03004950
v -0.03565007 -0.05878160 0.03137831
v -0.02134589 -0.04047290 0.04243929
v -0.03158243 -0.04479881 0.03547535
v -0.02668423 -0.04479881 0.03928654
v 0.00270500 -0.04479881 0.04742957
v 0.00887390 -0.04479881 0.04666903
v 0.01489373 -0.04479881 0.04510713
v -0.01706529 -0.04047290 0.04425131
v 0.01486533 -0.06854722 0.04506289
v 0.03304548 -0.06924077 0.03391004
v -0.03458524 -0.06924077 0.03243490
v -0.03572816 -0.04800797 0.03130855
v -0.02669132 -0.04915704 0.03928654
v -0.02134589 -0.04861042 0.04243418
v -0.03154694 -0.04860749 0.03552129
v -0.00348519 -0.04479881 0.04737853
v -0.01561712 -0.04479881 0.04486042
v -0.00963279 -0.04479881 0.04651591
v 0.00885971 -0.06854722 0.04661969
v 0.00269791 -0.06854722 0.04738023
v -0.03308739 -0.06924077 0.03391004
v -0.03156113 -0.06854722 0.03543962
v -0.02131750 -0.06854722 0.04239335
v -0.00347809 -0.06854722 0.04732919
v -0.01560293 -0.06854722 0.04481448
v -0.02666293 -0.06854722 0.03925082
v -0.00961860 -0.06854722 0.04646997
v -0.00000406 0.00455475 -0.00000389
v 0.04750291 0.00451571 -0.00001251
v 0.04466626 0.00451571 -0.01615185
v 0.00093529 -0.03484427 -0.00000389
v 0.04750291 -0.02760363 -0.00001251
v 0.04717739 0.00451571 -0.00497294
v 0.04645195 0.00451571 -0.00994485
v 0.04391291 -0.03150206 -0.01803750
v 0.04204351 0.00451571 -0.02206300
v 0.03720725 0.00452059 -0.02934710
v -0.04205164 0.00452059 -0.02206300
v -0.04750173 0.00451084 -0.00001251
v 0.01205869 -0.03445394 -0.00001251
v 0.01633692 -0.03411240 -0.00001251
v 0.02406564 -0.03318536 -0.00001251
v 0.02870659 -0.03242422 -0.00001251
v 0.03590518 -0.03093608 -0.00001251
v 0.04015551 -0.02986267 -0.00001251
v 0.04713089 -0.02810618 -0.00542101
v 0.03520764 -0.04266064 -0.02934710
v 0.03733745 -0.04157747 -0.02934710
v 0.04667516 -0.02858922 -0.00881317
v 0.04557770 -0.02969678 -0.01339733
v 0.04186681 -0.03393187 -0.02241629
v 0.03974629 -0.03694229 -0.02599802
v 0.03866743 0.00452059 -0.02756342
v -0.04465578 0.00451571 -0.01615185
v -0.04717621 0.00451084 -0.00497294
v 0.01397459 -0.04491724 -0.02934710
v 0.02598154 -0.04398289 -0.02934710
v 0.00000524 -0.04528562 -0.02934710
v -0.03720608 0.00452059 -0.02934710
v -0.04247016 -0.03317072 -0.02128318
v -0.04376293 -0.03166307 -0.01846978
v -0.03873601 0.00452059 -0.02747438
v -0.04511150 -0.03017494 -0.01484784
v -0.04645077 0.00451084 -0.00994485
v -0.04699020 -0.02825743 -0.00667045
v -0.04751103 -0.02759875 -0.00001251
v -0.04175402 -0.02940891 -0.00001251
v -0.03611791 -0.03087753 -0.00001251
v -0.03001679 -0.03218514 -0.00001251
v -0.02421792 -0.03315365 -0.00001251
v -0.01807494 -0.03392699 -0.00001251
v -0.01205751 -0.03444906 -0.00001251
v -0.01162039 -0.04504166 -0.02934710
v -0.03733628 -0.04157747 -0.02934710
v -0.04103788 -0.03502967 -0.02390988
v -0.04624151 -0.02902102 -0.01083239
v -0.03572729 -0.04248500 -0.02934710
v -0.02326462 -0.04423660 -0.02934710
v -0.03934519 -0.03764245 -0.02659259
v 0.00776058 0.00850727 0.00177165
v 0.00634763 0.00850727 0.00470327
v 0.00634914 0.00850688 0.00470327
v 0.00775754 0.00453705 0.00177945
v 0.00776058 0.00453705 0.00177165
v 0.00776058 0.00850727 -0.00177091
v -0.00634765 0.00850727 0.00470327
v -0.00000001 0.00850688 0.00796062
v 0.00345336 0.00850688 0.00717200
v 0.00622304 0.00850688 0.00496355
v 0.00634914 0.00818341 0.00470327
v 0.00634763 0.00453705 0.00470327
v 0.00633547 0.00453549 -0.00473993
v 0.00622304 0.00455454 0.00496355
v 0.00776058 0.00453705 0.00000427
v 0.00776058 0.00456737 -0.00177091
v 0.00633091 0.00850727 -0.00473993
v -0.00776061 0.00850727 0.00177165
v -0.00622307 0.00850688 0.00496355
v -0.00345339 0.00850688 0.00717200
v -0.00000001 0.00455454 0.00796062
v 0.00345336 0.00455454 0.00717200
v -0.00634917 0.00453705 0.00470327
v -0.00632183 0.00453549 -0.00473993
v 0.00622304 0.00453549 -0.00496280
v 0.00622304 0.00850727 -0.00496280
v -0.00776061 0.00453705 0.00177165
v -0.00635069 0.00455454 0.00470327
v -0.00776061 0.00850727 -0.00177091
v -0.00622307 0.00455454 0.00496355
v -0.00345339 0.00455454 0.00717200
v -0.00635373 0.00453705 0.00469548
v -0.00632942 0.00453549 -0.00474149
v 0.00345336 0.00453549 -0.00717126
v 0.00345336 0.00850727 -0.00717126
v -0.00776061 0.00453705 -0.00000041
v -0.00633094 0.00850727 -0.00473993
v -0.00776061 0.00456737 -0.00177091
v -0.00622307 0.00453549 -0.00496280
v -0.00000001 0.00453549 -0.00796144
v -0.00000001 0.00850727 -0.00796144
v -0.00622307 0.00850727 -0.00496280
v -0.00633094 0.00823007 -0.00473993
v -0.00345339 0.00453549 -0.00717126
v -0.00345339 0.00850727 -0.00717126
v 0.04569506 -0.00595172 0.01276833
v 0.04413075 -0.00595172 0.01276833
v 0.04570440 -0.00948181 0.01276833
v 0.04618438 -0.00595172 0.01102367
v 0.04413075 -0.00595172 0.00994577
v 0.04413075 -0.00948181 0.01276833
v 0.04609234 -0.00948181 0.01138509
v 0.04627139 -0.00948181 0.01068104
v 0.04630898 -0.00948181 0.01053322
v 0.04645750 -0.00595172 0.00994909
v 0.04413075 -0.00948181 0.00994577
v 0.04587843 -0.00595172 0.00994577
v 0.04645750 -0.00948181 0.00994853
v 0.04596774 -0.00948181 0.00994577
f 1 3 4
f 1 4 5
f 1 5 6
f 2 1 14
f 2 14 7
f 2 7 13
f 2 13 31
f 2 31 46
f 2 46 44
f 2 44 28
f 2 28 15
f 4 3 9
f 4 9 10
f 4 10 5
f 1 6 11
f 6 5 12
f 7 14 13
f 2 15 8
f 2 8 3
f 2 3 1
f 10 16 12
f 10 12 5
f 6 12 11
f 11 12 17
f 14 19 20
f 14 20 18
f 15 21 8
f 3 8 9
f 9 22 10
f 9 23 22
f 17 12 24
f 13 14 18
f 19 27 20
f 20 27 25
f 20 25 18
f 15 28 29
f 15 29 21
f 8 21 23
f 8 23 9
f 22 30 10
f 10 30 16
f 12 16 24
f 14 11 19
f 1 11 14
f 11 17 26
f 13 32 31
f 25 33 18
f 18 32 13
f 19 11 26
f 26 35 27
f 26 27 19
f 27 35 36
f 27 36 25
f 21 29 23
f 23 37 22
f 23 38 37
f 22 37 30
f 23 29 38
f 30 39 16
f 30 40 39
f 24 16 39
f 24 39 41
f 24 34 17
f 17 34 26
f 31 43 42
f 32 43 31
f 18 33 32
f 34 35 26
f 25 36 33
f 38 45 37
f 37 40 30
f 39 40 41
f 24 41 34
f 33 43 32
f 35 34 47
f 35 47 36
f 36 47 48
f 28 44 38
f 28 38 29
f 37 45 49
f 37 49 40
f 41 40 50
f 40 49 50
f 43 33 42
f 42 46 31
f 33 36 48
f 33 48 42
f 34 41 47
f 47 41 50
f 47 50 48
f 48 50 51
f 38 44 45
f 45 44 49
f 49 52 50
f 42 48 51
f 42 51 46
f 51 50 52
f 44 46 52
f 44 52 49
f 51 52 46
f 53 54 57
f 53 57 64
f 53 64 60
f 53 60 58
f 53 55 56
f 53 56 54
f 54 56 62
f 54 62 70
f 54 70 76
f 54 76 80
f 54 80 85
f 54 85 89
f 54 89 97
f 54 97 101
f 54 101 98
f 54 98 92
f 54 92 87
f 54 87 81
f 54 81 75
f 54 75 68
f 54 68 57
f 53 58 59
f 53 59 55
f 58 60 65
f 58 65 74
f 58 74 84
f 58 84 90
f 58 90 96
f 58 96 102
f 58 102 103
f 58 103 94
f 58 94 86
f 58 86 79
f 58 79 71
f 58 71 66
f 58 66 59
f 59 61 55
f 55 61 56
f 56 61 62
f 57 63 64
f 63 65 60
f 64 63 60
f 59 66 61
f 61 66 67
f 61 67 62
f 57 68 63
f 63 69 65
f 63 68 69
f 67 70 62
f 66 71 67
f 67 71 72
f 67 72 70
f 65 73 74
f 65 69 73
f 68 73 69
f 68 75 73
f 75 77 73
f 73 77 74
f 72 71 78
f 72 78 76
f 72 76 70
f 71 79 78
f 78 80 76
f 75 81 82
f 75 82 77
f 78 79 83
f 78 83 80
f 77 84 74
f 82 84 77
f 83 85 80
f 79 86 83
f 82 81 87
f 82 87 88
f 85 83 89
f 88 90 84
f 88 84 82
f 83 86 91
f 83 91 89
f 87 92 88
f 88 92 93
f 88 93 90
f 93 95 96
f 93 96 90
f 93 92 95
f 91 86 94
f 89 91 97
f 95 92 98
f 91 94 99
f 91 99 97
f 95 98 100
f 98 101 100
f 95 100 102
f 95 102 96
f 94 103 99
f 99 104 97
f 102 100 103
f 99 103 104
f 97 104 101
f 100 101 104
f 100 104 103
f 105 107 108
f 105 109 110
f 105 110 106
f 107 105 111
f 107 111 112
f 107 112 136
f 107 136 139
f 107 139 122
f 105 108 113
f 105 113 114
f 105 115 116
f 105 116 109
f 109 117 118
f 109 118 110
f 106 110 119
f 105 106 120
f 111 118 112
f 112 118 121
f 107 122 123
f 107 123 108
f 108 124 113
f 108 123 124
f 105 114 126
f 105 126 127
f 115 128 116
f 105 130 131
f 105 131 132
f 105 132 133
f 105 133 134
f 105 134 135
f 105 135 115
f 109 116 129
f 109 129 117
f 118 117 121
f 110 118 119
f 119 118 120
f 119 120 106
f 120 118 111
f 112 121 136
f 121 117 137
f 121 137 138
f 121 138 122
f 121 122 139
f 121 139 136
f 122 138 140
f 122 140 141
f 122 141 142
f 122 142 143
f 122 143 123
f 123 143 145
f 123 145 144
f 123 144 124
f 124 146 114
f 124 114 113
f 114 146 125
f 114 125 147
f 105 127 148
f 105 148 130
f 114 147 126
f 127 126 149
f 127 150 148
f 115 137 128
f 128 137 117
f 116 128 129
f 129 128 117
f 130 150 151
f 130 151 131
f 133 152 134
f 111 105 120
f 138 137 153
f 138 153 154
f 138 154 140
f 140 154 155
f 140 155 141
f 141 155 145
f 141 145 142
f 142 145 143
f 144 125 146
f 144 146 124
f 145 150 149
f 145 149 144
f 148 150 130
f 147 125 144
f 147 144 126
f 126 144 149
f 149 150 127
f 115 135 137
f 131 151 132
f 132 156 152
f 132 152 133
f 132 151 156
f 152 154 153
f 152 153 134
f 152 156 155
f 152 155 154
f 134 153 135
f 135 153 137
f 155 156 151
f 155 151 145
f 145 151 150
f 157 158 159
f 157 159 160
f 157 160 166
f 157 166 162
f 157 161 158
f 158 163 178
f 158 178 199
f 158 199 203
f 158 203 207
f 158 207 208
f 158 208 204
f 158 204 195
f 158 195 174
f 158 174 159
f 157 162 161
f 158 161 163
f 161 162 165
f 160 159 167
f 164 168 160
f 160 168 169
f 160 169 170
f 160 170 166
f 162 166 165
f 165 166 171
f 165 171 172
f 165 172 161
f 166 173 171
f 160 167 164
f 159 174 167
f 170 175 166
f 166 175 176
f 171 173 177
f 171 177 172
f 172 178 161
f 161 178 163
f 166 176 179
f 166 179 173
f 173 179 180
f 173 180 181
f 173 181 177
f 167 174 182
f 167 182 183
f 167 183 168
f 167 168 164
f 168 183 184
f 168 184 169
f 176 180 179
f 177 185 186
f 177 186 172
f 172 186 178
f 180 176 187
f 180 187 181
f 181 187 188
f 182 189 183
f 184 190 191
f 184 191 170
f 184 170 169
f 184 183 190
f 170 191 192
f 170 192 175
f 175 192 187
f 175 187 176
f 177 193 185
f 177 181 193
f 187 192 194
f 187 194 188
f 174 195 182
f 182 195 196
f 182 196 189
f 189 190 183
f 191 194 192
f 191 190 194
f 181 188 193
f 193 188 197
f 185 198 186
f 185 193 198
f 186 199 178
f 188 194 197
f 194 200 197
f 190 201 194
f 190 189 201
f 193 202 198
f 193 197 202
f 198 202 203
f 198 203 199
f 198 199 186
f 194 201 200
f 196 204 205
f 196 205 201
f 196 201 189
f 202 197 206
f 200 206 197
f 202 207 203
f 202 206 207
f 204 196 195
f 204 208 205
f 201 205 200
f 200 205 206
f 206 205 207
f 205 208 207
f 209 210 211
f 209 211 212
f 209 212 213
f 209 213 214
f 209 214 215
f 209 215 216
f 209 216 217
f 209 217 226
f 209 226 229
f 209 229 218
f 209 218 210
f 211 210 219
f 211 219 220
f 211 220 221
f 211 222 213
f 211 213 212
f 213 222 214
f 214 223 224
f 214 224 215
f 217 216 225
f 217 225 226
f 210 218 219
f 218 227 228
f 218 228 230
f 218 229 241
f 218 241 227
f 219 230 231
f 219 231 220
f 221 222 211
f 223 214 222
f 223 232 224
f 216 233 225
f 225 233 234
f 226 235 229
f 226 225 236
f 226 236 237
f 226 237 246
f 218 230 219
f 227 238 239
f 227 239 240
f 227 230 228
f 227 241 238
f 229 235 241
f 230 240 231
f 231 240 242
f 220 231 243
f 220 243 221
f 221 243 232
f 221 232 222
f 222 232 223
f 232 243 254
f 232 254 244
f 232 244 233
f 232 233 224
f 224 216 215
f 224 233 216
f 233 244 234
f 225 234 245
f 226 246 247
f 226 247 235
f 225 245 236
f 236 245 248
f 236 248 237
f 237 248 246
f 230 227 240
f 238 241 249
f 241 235 250
f 241 250 251
f 241 251 249
f 240 239 252
f 240 252 242
f 231 242 243
f 243 242 252
f 243 252 253
f 243 253 254
f 244 254 255
f 244 255 248
f 244 248 234
f 245 234 248
f 235 247 250
f 248 255 246
f 249 257 238
f 238 257 253
f 238 253 252
f 238 252 239
f 250 247 258
f 253 257 254
f 254 259 255
f 254 257 260
f 254 260 258
f 254 258 256
f 254 256 259
f 246 255 259
f 246 259 247
f 256 247 259
f 247 256 258
f 257 249 251
f 258 260 250
f 251 260 257
f 251 250 260
f 261 262 263
f 261 264 265
f 261 265 262
f 262 265 266
f 262 266 263
f 263 266 267
f 263 268 269
f 263 270 261
f 261 271 272
f 264 273 274
f 264 274 275
f 264 275 276
f 264 276 277
f 264 277 278
f 264 278 265
f 265 279 266
f 265 280 281
f 265 281 279
f 266 282 267
f 266 279 282
f 267 282 283
f 267 283 263
f 263 283 268
f 268 284 269
f 269 284 285
f 270 281 280
f 270 280 290
f 270 290 289
f 270 289 291
f 270 291 306
f 270 306 311
f 270 311 310
f 270 310 307
f 270 307 292
f 270 263 269
f 270 269 286
f 271 287 288
f 271 288 272
f 261 272 299
f 261 299 264
f 273 264 289
f 273 289 274
f 274 290 275
f 274 289 290
f 275 290 280
f 275 280 276
f 276 280 277
f 277 280 278
f 278 280 265
f 264 291 289
f 279 281 282
f 281 285 284
f 281 284 268
f 281 268 283
f 281 283 282
f 281 270 286
f 285 286 269
f 270 292 261
f 271 293 294
f 271 294 287
f 261 292 295
f 261 295 271
f 287 294 296
f 287 297 288
f 288 298 299
f 288 299 272
f 288 297 298
f 264 299 300
f 264 300 301
f 264 301 302
f 264 302 303
f 264 303 304
f 264 304 305
f 264 306 291
f 286 285 281
f 292 307 295
f 271 295 308
f 294 293 307
f 294 307 296
f 296 309 287
f 296 307 309
f 287 309 297
f 297 309 298
f 298 309 307
f 298 307 299
f 299 307 310
f 299 310 300
f 300 310 301
f 301 310 302
f 302 310 303
f 303 310 311
f 303 311 304
f 304 311 305
f 305 311 306
f 305 306 264
f 307 293 308
f 307 308 312
f 271 308 293
f 308 295 312
f 295 307 312
f 313 314 315
f 313 315 316
f 313 316 317
f 313 317 327
f 313 327 328
f 313 328 318
f 313 318 329
f 313 329 338
f 313 338 347
f 313 347 353
f 313 353 357
f 313 357 354
f 313 354 349
f 313 349 341
f 313 341 330
f 313 330 319
f 313 319 314
f 314 319 320
f 314 320 321
f 314 321 322
f 314 322 315
f 315 322 326
f 315 326 323
f 315 323 316
f 316 324 325
f 316 325 317
f 316 323 326
f 316 326 324
f 317 325 327
f 318 328 325
f 318 325 329
f 319 330 331
f 319 331 332
f 319 332 320
f 320 333 334
f 320 334 321
f 320 332 343
f 320 343 333
f 321 334 326
f 321 326 322
f 324 335 336
f 324 336 325
f 324 326 334
f 324 334 333
f 324 333 335
f 325 336 345
f 325 345 351
f 325 351 356
f 325 356 352
f 325 352 346
f 325 346 337
f 325 337 338
f 325 338 329
f 325 328 327
f 330 339 340
f 330 340 331
f 330 341 350
f 330 350 348
f 330 348 339
f 331 342 343
f 331 343 332
f 331 340 342
f 333 343 335
f 335 344 345
f 335 345 336
f 335 343 342
f 335 342 344
f 337 346 347
f 337 347 338
f 339 344 340
f 339 348 345
f 339 345 344
f 340 344 342
f 341 349 355
f 341 355 350
f 345 348 350
f 345 350 351
f 346 352 353
f 346 353 347
f 349 354 351
f 349 351 355
f 350 355 351
f 351 354 357
f 351 357 356
f 352 356 357
f 352 357 353
f 358 359 363
f 358 363 360
f 358 360 361
f 358 361 367
f 358 367 369
f 358 369 362
f 358 362 359
f 359 362 368
f 359 368 363
f 360 363 368
f 360 368 371
f 360 371 370
f 360 370 366
f 360 366 365
f 360 365 364
f 360 364 361
f 361 364 365
f 361 365 366
f 361 366 367
f 362 369 371
f 362 371 368
f 366 370 367
f 367 370 369
f 369 370 371

