# https://github.com/mikedh/trimesh
v 0.02609204 -0.04198004 -0.00593777
v 0.02722837 -0.06373847 -0.00199207
v -0.01257041 -0.04100221 -0.01118623
v 0.01330555 -0.04277623 -0.02337211
v -0.00454992 -0.04325013 -0.02776860
v 0.02394015 -0.04198004 0.01277112
v 0.02540645 -0.06346942 0.01005782
v -0.01821971 -0.04198004 -0.02053948
v -0.02510116 -0.04198004 -0.01131405
v 0.02312163 -0.06356604 -0.01497485
v 0.00277284 -0.06356878 -0.02736880
v -0.01246379 -0.06302933 -0.02445865
v -0.02232374 -0.06375451 -0.01550384
v -0.02514772 -0.04358063 0.01110221
v -0.01698755 -0.04358063 0.02166032
v 0.01801487 -0.04198004 0.02079000
v 0.01417307 -0.06602052 -0.02215183
v -0.02735763 -0.06434312 0.00240170
v -0.01968171 -0.06568667 0.01748196
v 0.00145026 -0.04380869 0.02690674
v 0.02437538 -0.06878467 0.00367591
v -0.01011403 -0.06364611 0.02548669
v 0.00704928 -0.06477382 0.02632488
v -0.00716201 -0.06870443 -0.02391470
v -0.02431571 -0.06868326 -0.00463704
v 0.01691227 -0.06738415 0.01977077
v -0.00159673 -0.06866675 0.02429399
v -0.03135578 -0.03415896 -0.00775407
v 0.02794614 -0.02493640 0.02916090
v -0.02967608 -0.03430077 0.00977554
v -0.02486385 -0.02613616 -0.02850066
v -0.03284382 -0.02992312 0.01893075
v -0.03752482 -0.01057060 -0.01640462
v 0.03020525 0.00854639 -0.03421336
v 0.03022685 -0.01933692 0.02916090
v -0.02768773 -0.02613616 0.02821006
v -0.03752358 0.01402788 0.01512833
v 0.02755911 0.01108116 -0.03677949
v -0.03056810 0.01454782 0.03309960
v -0.03308925 0.02878229 -0.01604304
v 0.02728835 0.00800908 0.03698532
v -0.03308686 -0.01095817 0.03249900
v -0.02806439 0.03189612 0.02111358
v -0.03317770 -0.00365727 -0.03463246
v -0.02572908 -0.00448855 -0.03811745
v 0.03028499 0.03501466 0.00590535
v -0.02764870 0.02527491 -0.02888969
v 0.02724599 0.03258317 -0.02003830
v -0.02756481 -0.00513006 0.03751658
v -0.02748300 0.03799151 0.00540343
v -0.02738603 0.03642557 -0.01142558
v 0.02728004 0.03825971 -0.00364032
v 0.02722522 0.03787052 0.00733352
v 0.02763822 0.02524616 0.02872630
v 0.03001356 0.01107888 -0.03441748
v 0.03027302 0.00016482 0.02915897
v 0.02999956 -0.03312966 -0.01437210
v 0.03027302 0.00854596 -0.00373671
v 0.02848341 -0.02686703 -0.02652511
v 0.03000067 -0.03288974 0.01473976
v -0.02486583 0.00854596 -0.00374355
v 0.02844213 -0.02464369 0.02911795
v 0.02708223 -0.00819029 -0.03754930
v 0.02718321 0.00073332 -0.03857388
v -0.02485993 0.01107888 -0.03705624
v -0.02485404 0.00015919 0.02915897
v -0.00244411 -0.04607216 0.02733713
v 0.02653920 -0.04196602 0.00226502
v 0.02770801 0.01107888 -0.03672811
v -0.02989561 -0.02614937 0.02439415
v -0.02653309 -0.02563434 0.02859499
v 0.01281327 -0.04498864 0.02361483
v -0.02989561 -0.02614937 -0.02438197
v -0.01697621 -0.04427379 0.02165285
v 0.00548972 -0.04641270 -0.02693187
v 0.01800225 -0.04355895 -0.02078614
v -0.02486583 0.00073895 -0.03868325
v -0.02675273 -0.04354277 0.00367156
v -0.00235272 -0.04616503 -0.02735229
v -0.02486583 -0.01104756 -0.03708359
v -0.02057902 -0.04336757 -0.01683141
f 3 1 4
f 3 4 5
f 3 6 1
f 3 5 8
f 3 8 9
f 4 1 10
f 5 11 12
f 6 7 1
f 1 7 2
f 8 13 9
f 9 14 3
f 3 14 15
f 3 15 16
f 1 2 10
f 4 10 17
f 4 11 5
f 8 12 13
f 9 18 14
f 3 16 6
f 14 19 15
f 15 20 16
f 4 17 11
f 5 12 8
f 20 15 22
f 16 20 23
f 2 7 21
f 9 13 18
f 6 16 7
f 20 22 23
f 11 24 12
f 14 18 19
f 2 21 10
f 21 7 26
f 13 25 18
f 16 26 7
f 15 19 22
f 17 24 11
f 21 27 25
f 21 25 24
f 21 17 10
f 21 24 17
f 16 23 26
f 12 24 13
f 22 27 23
f 21 26 27
f 27 19 25
f 25 19 18
f 26 23 27
f 25 13 24
f 19 27 22
f 28 29 30
f 29 28 31
f 30 32 28
f 29 31 34
f 30 29 36
f 30 36 32
f 33 32 37
f 28 32 33
f 34 31 38
f 34 35 29
f 37 40 33
f 35 41 29
f 37 42 39
f 33 44 28
f 33 40 44
f 38 31 45
f 34 46 35
f 31 28 44
f 36 42 32
f 32 42 37
f 39 43 37
f 37 43 40
f 46 34 48
f 36 49 42
f 42 49 39
f 43 50 40
f 40 50 51
f 44 47 45
f 34 38 48
f 41 49 29
f 40 47 44
f 44 45 31
f 36 29 49
f 48 52 46
f 40 51 47
f 47 38 45
f 52 53 46
f 35 46 54
f 39 49 41
f 54 41 35
f 54 43 39
f 54 46 53
f 50 53 51
f 51 48 47
f 51 53 52
f 38 47 48
f 51 52 48
f 54 39 41
f 43 54 53
f 50 43 53
f 55 56 57
f 55 58 56
f 56 60 57
f 58 61 56
f 58 55 65
f 58 65 61
f 55 57 59
f 55 59 63
f 55 69 65
f 61 66 56
f 56 66 62
f 56 62 60
f 57 60 68
f 65 73 70
f 65 70 61
f 61 70 66
f 66 70 71
f 66 71 62
f 60 72 68
f 60 62 72
f 63 64 55
f 55 64 69
f 71 74 67
f 71 67 62
f 68 72 75
f 57 68 76
f 72 67 79
f 72 79 75
f 72 62 67
f 73 65 77
f 70 73 78
f 75 63 59
f 75 76 68
f 59 76 75
f 73 77 80
f 70 78 71
f 74 78 67
f 67 78 79
f 75 79 63
f 57 76 59
f 64 77 69
f 73 79 81
f 73 81 78
f 74 71 78
f 77 65 69
f 73 80 79
f 79 78 81
f 79 80 63
f 64 63 77
f 77 63 80

