# https://github.com/mikedh/trimesh
v 0.04377617 -0.11669533 0.33395413
v -0.03015479 -0.11693392 0.35475590
v -0.06487690 -0.09957479 -0.00692209
v 0.02979167 -0.10390439 -0.04299855
v -0.05603654 -0.09762532 0.37475985
v -0.03768200 -0.09718305 -0.05547499
v 0.06569710 -0.09770678 -0.00154531
v -0.00877036 -0.09605554 0.40046829
v 0.04466037 -0.09781153 -0.04728841
v 0.04544103 -0.09058390 0.38688941
v -0.06606844 -0.09927801 0.33974720
v 0.06608167 -0.09930129 0.33974720
v -0.00522462 0.09452538 -0.06591055
v 0.02566814 0.09477416 0.39936584
v -0.00948621 0.09357538 0.40347069
v -0.06708082 0.09581001 -0.00154531
v -0.04689214 0.09841708 -0.04606273
v -0.04671464 0.09789333 0.38410271
v 0.06706778 0.09581001 -0.00154531
v 0.06604223 0.09930162 0.33970094
v -0.06684417 0.09583329 0.33979343
v 0.05393954 0.09835307 0.37619364
v 0.03498922 0.10098487 -0.05219978
v -0.05324548 0.10325587 -0.02257690
v -0.00135748 0.11683970 0.37808419
v 0.04339159 0.11649491 0.33539952
v -0.04340464 0.11649491 0.33539952
v -0.06569328 -0.04051483 -0.01398437
v -0.06545965 -0.04051483 0.01475943
v -0.06569328 0.03974533 -0.01398437
v -0.06105368 -0.04050698 -0.02773599
v -0.05621335 -0.04050698 -0.03675417
v -0.04898412 -0.04050698 -0.04570636
v -0.04528560 -0.04050698 -0.04937082
v -0.03776352 -0.04050698 -0.05556477
v -0.03472638 -0.04050698 -0.05728923
v -0.03472638 -0.04050698 0.03240866
v -0.05875361 -0.04050698 0.03240866
v -0.06169532 -0.04050698 0.02617952
v -0.03443353 0.03973747 -0.05746518
v -0.03776352 0.03973747 -0.05556477
v -0.04655409 0.03973747 -0.04820946
v -0.05621664 0.03973747 -0.03676297
v -0.06105368 0.03973747 -0.02773599
v -0.06545965 0.03974533 0.01475943
v -0.03341676 0.03973747 -0.05746518
v -0.03341348 -0.02903675 -0.05746518
v -0.03341348 -0.02903675 0.03241746
v -0.06169532 0.03973747 0.02618832
v -0.05876020 0.03973747 0.03241746
v -0.03341676 0.03973747 0.03241746
v -0.06702923 0.03974533 -0.00154368
v -0.06695025 -0.04051483 0.00312817
v -0.06702923 -0.04051483 -0.00154368
v 0.05361403 -0.09587820 0.06136318
v 0.05361403 -0.07617861 0.06136318
v 0.05713160 -0.09587820 0.06136318
v 0.05361403 -0.09587820 0.11497723
v 0.05729311 -0.07617861 0.06136318
v 0.05361403 -0.07617861 0.11497723
v 0.05713340 -0.09586663 0.06136318
v 0.05713377 -0.09586663 0.06860620
v 0.05713196 -0.09587820 0.07328266
v 0.05713160 -0.09587820 0.11497723
v 0.05729348 -0.07716398 0.06136318
v 0.05729420 -0.07617861 0.07697765
v 0.05719721 -0.07617861 0.11497723
v 0.05722281 -0.09330198 0.06136318
v 0.05729636 -0.09119048 0.06136318
v 0.05729672 -0.09119048 0.07328266
v 0.05713377 -0.09586663 0.11497723
v 0.05713196 -0.09587820 0.10601268
v 0.05729456 -0.08184012 0.06136318
v 0.05729636 -0.07617861 0.10970767
v 0.05726968 -0.07677639 0.11497723
v 0.05725346 -0.07617861 0.11438414
v 0.05729672 -0.08184012 0.10133622
v 0.05729672 -0.08651434 0.08731206
v 0.05729672 -0.09119048 0.11497723
v 0.05728122 -0.07716398 0.11497723
v 0.05729672 -0.08145253 0.11497723
f 1 3 4
f 1 2 3
f 1 4 7
f 1 10 8
f 1 8 2
f 2 11 3
f 2 5 11
f 3 6 4
f 1 7 12
f 9 7 4
f 1 12 10
f 6 9 4
f 8 5 2
f 6 13 9
f 10 14 8
f 3 11 16
f 8 15 18
f 7 19 20
f 7 20 12
f 8 14 15
f 16 11 21
f 3 17 6
f 5 8 18
f 6 17 13
f 9 23 19
f 9 19 7
f 11 5 21
f 3 16 17
f 12 20 22
f 12 22 10
f 13 23 9
f 18 21 5
f 13 17 24
f 14 10 22
f 16 21 24
f 16 24 17
f 18 15 25
f 19 26 20
f 14 25 15
f 24 21 27
f 13 24 23
f 20 26 22
f 14 22 25
f 18 27 21
f 19 23 26
f 23 27 26
f 24 27 23
f 18 25 27
f 26 27 25
f 26 25 22
f 28 29 53
f 28 53 54
f 28 31 32
f 28 32 33
f 28 33 34
f 28 34 35
f 28 35 36
f 28 36 37
f 28 37 29
f 29 37 38
f 29 38 39
f 30 40 41
f 30 41 42
f 30 42 43
f 30 43 44
f 30 52 45
f 30 45 51
f 30 51 46
f 30 46 40
f 30 44 28
f 28 44 31
f 31 44 43
f 31 43 32
f 32 43 33
f 33 42 34
f 35 41 40
f 35 40 36
f 36 47 48
f 36 48 37
f 37 48 38
f 39 38 49
f 29 39 49
f 29 49 45
f 40 46 47
f 40 47 36
f 41 34 42
f 42 33 43
f 45 49 50
f 45 50 51
f 35 34 41
f 47 46 51
f 47 51 48
f 48 51 50
f 48 50 38
f 38 50 49
f 30 28 52
f 45 53 29
f 52 28 54
f 45 52 53
f 52 54 53
f 55 56 59
f 55 59 65
f 55 65 73
f 55 73 69
f 55 69 68
f 55 68 61
f 55 61 57
f 55 57 63
f 55 63 72
f 55 72 64
f 55 64 58
f 55 58 60
f 55 60 56
f 56 60 67
f 56 67 76
f 56 76 74
f 56 74 66
f 56 66 59
f 57 61 62
f 57 62 63
f 58 64 71
f 58 71 79
f 58 79 81
f 58 81 80
f 58 80 75
f 58 75 67
f 58 67 60
f 59 66 65
f 61 68 62
f 62 68 69
f 62 69 70
f 62 70 79
f 62 79 71
f 62 71 72
f 62 72 63
f 64 72 71
f 65 66 74
f 65 74 73
f 67 75 76
f 69 73 74
f 69 74 77
f 69 77 78
f 69 78 70
f 70 78 77
f 70 77 81
f 70 81 79
f 74 76 75
f 74 75 80
f 74 80 81
f 74 81 77

