# https://github.com/mikedh/trimesh
v -0.06396767 0.00400581 0.07777530
v -0.06311793 0.00932525 0.14925001
v -0.06157353 -0.01865050 0.14925001
v -0.05589754 -0.03053339 0.07777530
v -0.05376291 0.03592089 0.14925001
v -0.05621876 0.03160329 0.07777530
v -0.04728782 -0.04282778 0.14925001
v -0.03277423 0.05474232 0.14925001
v -0.04282867 0.04822794 0.07777530
v -0.02850181 -0.05729205 0.07777530
v -0.02468511 0.05985760 0.07777530
v -0.01867207 -0.06157325 0.14925001
v -0.00630420 0.06402959 0.14925001
v 0.00098107 0.06416570 0.07777530
v -0.00265681 -0.06425591 0.07777530
v 0.01551997 -0.06188978 0.14925001
v 0.01867207 0.06157325 0.14925001
v 0.02626749 0.05880827 0.07777530
v 0.02261694 -0.06028968 0.07777530
v 0.04728782 0.04282778 0.14925001
v 0.04728782 -0.04282778 0.14925001
v 0.05018990 0.03965922 0.07777530
v 0.04381291 -0.04722135 0.07777530
v 0.06157353 0.01865050 0.14925001
v 0.06076968 -0.01920286 0.07777530
v 0.06311793 -0.00932525 0.14925001
v 0.06230934 0.01594092 0.07777530
v 0.00862120 0.06073101 0.07777572
v -0.02543200 0.07310388 0.05907154
v 0.04672449 0.07310388 0.04418768
v -0.05621876 0.03156791 0.07777572
v 0.05353346 0.03463507 0.07777572
v -0.06039624 0.07310388 0.02208845
v 0.06466234 0.07310388 -0.00001077
v 0.06466234 -0.00001431 0.07777572
v -0.06325402 0.07310388 -0.00886092
v -0.06466234 -0.00001431 0.07777572
v 0.06184570 -0.07310388 -0.01771107
v 0.06039624 -0.07310388 0.02208845
v -0.06462436 -0.07310388 0.00148110
v 0.04121781 0.07310388 -0.04938198
v -0.06184570 -0.07310388 -0.01771107
v -0.04121781 0.07310388 -0.04938198
v -0.05875690 -0.02698461 0.07777572
v 0.04121781 -0.07310388 -0.04938198
v 0.01888728 0.07310388 -0.06149821
v 0.03348077 -0.05370981 0.07777572
v -0.04121781 -0.07310388 -0.04938198
v -0.04672449 -0.07310388 0.04418768
v 0.01888728 -0.07310388 -0.06149821
v -0.00944680 0.07310388 -0.06308071
v -0.01947513 -0.05879313 0.07777572
v 0.02543200 -0.07310388 0.05907154
v -0.01889361 -0.07310388 -0.06149821
f 1 6 9
f 1 9 11
f 1 11 14
f 1 14 18
f 1 18 22
f 1 22 27
f 1 27 25
f 1 25 23
f 1 23 19
f 1 19 15
f 1 15 10
f 1 10 4
f 2 1 3
f 2 3 7
f 2 7 12
f 2 12 16
f 2 16 21
f 2 21 26
f 2 26 24
f 2 24 20
f 2 20 17
f 2 17 13
f 2 13 8
f 2 8 5
f 1 4 3
f 2 5 6
f 2 6 1
f 3 4 7
f 5 8 9
f 5 9 6
f 7 4 10
f 8 11 9
f 7 10 12
f 8 13 11
f 13 14 11
f 10 15 12
f 12 15 16
f 13 17 14
f 17 18 14
f 16 15 19
f 17 20 18
f 16 19 21
f 20 22 18
f 19 23 21
f 20 24 22
f 21 23 25
f 21 25 26
f 24 27 22
f 24 26 27
f 26 25 27
f 28 31 37
f 28 37 44
f 28 44 52
f 28 52 47
f 28 47 35
f 28 35 32
f 29 28 30
f 29 30 34
f 29 34 41
f 29 41 46
f 29 46 51
f 29 51 43
f 29 43 36
f 29 36 33
f 29 31 28
f 30 28 32
f 29 33 31
f 30 32 34
f 34 32 35
f 33 36 37
f 33 37 31
f 34 35 38
f 38 39 53
f 38 53 49
f 38 49 40
f 38 40 42
f 38 42 48
f 38 48 54
f 38 54 50
f 38 50 45
f 38 35 39
f 36 42 40
f 36 40 37
f 34 38 41
f 41 38 45
f 36 43 42
f 40 44 37
f 43 48 42
f 41 45 50
f 41 50 46
f 39 35 47
f 40 49 44
f 43 51 54
f 43 54 48
f 49 52 44
f 46 50 51
f 39 47 53
f 51 50 54
f 53 47 52
f 49 53 52

