# https://github.com/mikedh/trimesh
v -0.03519811 -0.06923585 0.07963254
v 0.03523395 -0.06923585 0.07963254
v -0.00935594 -0.06914094 -0.05730525
v -0.06556627 -0.06300638 0.00566418
v 0.03912358 -0.06243698 -0.05273132
v 0.06283988 -0.06246071 -0.02046276
v 0.06316504 -0.06247765 0.01959401
v -0.04535368 -0.05871558 0.07963254
v -0.05721716 -0.05998994 -0.03507061
v 0.04535010 -0.05871558 0.07963254
v 0.00506943 -0.06246240 -0.06580916
v -0.04535368 0.05872913 0.07963254
v -0.06533636 0.06020007 0.01471516
v 0.04533697 0.05872913 0.07963254
v 0.02164612 0.06300892 -0.06194104
v 0.06522441 0.06225905 -0.00895980
v -0.02529216 -0.05987470 -0.06173926
v -0.01056955 0.05931547 -0.06485669
v 0.04990237 0.05998315 -0.04375926
v -0.06414082 0.05868846 -0.01973811
v -0.04747544 0.06222007 -0.04605519
v 0.03522082 0.06923585 0.07963254
v -0.03519811 0.06924940 0.07963254
v -0.00879594 0.06900876 -0.05674740
v -0.03754262 0.07101299 0.28266864
v -0.04470697 0.07101299 0.27970088
v -0.04395425 -0.06210643 0.27517412
v -0.03756951 -0.06210643 0.27601936
v -0.04573750 -0.06210643 0.27152078
v 0.03811991 0.07101299 0.26534109
v -0.04617658 0.07101299 0.27440400
v -0.04535217 -0.05871850 0.18693041
v 0.03545848 -0.06210643 0.25893600
v 0.04294991 -0.06210643 0.25566770
v -0.04390272 0.07101299 0.21716323
v -0.04536113 0.05873827 0.18693041
v -0.04309399 0.06671292 0.18692102
v -0.04486828 -0.06210643 0.18693041
v 0.04328147 0.07101299 0.26124635
v -0.03522619 0.06926689 0.18692102
v 0.04499975 -0.06210643 0.25004449
v 0.04536043 0.05869918 0.18693041
v 0.04487653 -0.06210643 0.18694919
v 0.04527978 0.07101299 0.25271874
v 0.03523445 0.06926689 0.18693041
v 0.04314705 0.06667383 0.18693041
v 0.00023936 0.07101299 0.20005052
v 0.04392666 0.07101299 0.21787348
v -0.03521722 0.06927506 0.18694452
v 0.03523499 0.06926149 0.18694452
v -0.02355513 0.06922081 0.07965797
v -0.04104383 0.06778323 0.14297101
v -0.04312223 0.06669826 0.18694452
v 0.03523499 0.06919368 0.07965797
v 0.03759317 -0.06882072 0.07962646
v -0.02356401 -0.06923436 0.07962646
v 0.04314887 0.06665757 0.07965797
v 0.04314887 0.06667113 0.18694452
v 0.04536050 0.05872376 0.07965797
v -0.04104383 -0.06779679 0.14297101
v -0.04536938 0.05871020 0.18219632
v -0.04503186 0.06106322 0.18694452
v 0.04536938 0.05872376 0.18694452
v 0.04536050 -0.05871020 0.07965797
v 0.04391716 -0.06503013 0.07965797
v 0.04314887 -0.06667113 0.18694452
v -0.04314887 -0.06668470 0.18694452
v -0.04536938 -0.05872376 0.18219632
v 0.03523499 -0.06927506 0.18694452
v -0.03521722 -0.06926149 0.18694452
v 0.04536938 -0.05872376 0.18694452
v -0.04536938 -0.05872376 0.18694452
v 0.06569919 -0.09709244 0.35574001
v 0.06422548 -0.10000903 0.31955772
v 0.06715163 -0.07387168 0.32792016
v 0.04485137 -0.06208293 0.18696407
v 0.05678384 -0.07468950 0.37778128
v 0.03876267 -0.11638130 0.31736305
v 0.02980608 -0.11599707 0.36797689
v 0.04293292 -0.06208293 0.25570151
v 0.03837830 -0.06842238 0.18694245
v -0.04488033 -0.06208293 0.18694245
v 0.04017090 -0.09940332 0.39309532
v -0.06733707 -0.09778299 0.32367134
v -0.06790172 -0.07571593 0.32792016
v 0.00705384 -0.11666850 0.29565961
v -0.03835965 -0.06842516 0.18694245
v 0.01124280 -0.07420097 0.40208617
v -0.03755349 -0.11573595 0.31149798
v -0.06136403 -0.07482023 0.36846205
v -0.04571030 -0.06208293 0.27152905
v 0.00859812 -0.09768841 0.40664712
v -0.02349975 -0.11666398 0.36949250
v -0.03519965 -0.07447392 0.39674410
v -0.05666315 -0.09910707 0.37765155
v -0.02631492 -0.09898746 0.40092800
v 0.06597255 0.09898116 0.35888637
v 0.06567346 0.07623177 0.36052217
v 0.06616288 0.09929077 0.31950488
v 0.06678826 0.07412782 0.32324389
v 0.04018589 0.07099418 0.20429174
v 0.00002231 0.07255044 0.39601223
v -0.03898227 0.07099418 0.20406314
v 0.04472583 0.07580283 0.38926450
v 0.03464925 0.11644370 0.31326137
v 0.04024494 0.11599967 0.35593794
v 0.04178077 0.09973730 0.39013826
v 0.00587844 0.11652580 0.29505910
v -0.05680555 0.07468606 0.37782520
v -0.06890526 0.07754762 0.34669394
v -0.06702573 0.09754921 0.32174524
v -0.06111523 0.10338608 0.31609101
v -0.02640672 0.11597460 0.30209515
v 0.00099097 0.07532170 0.40625638
v -0.03990674 0.11707934 0.35140834
v 0.00001552 0.11704417 0.37956264
v -0.03777230 0.07501913 0.39613413
v 0.00021350 0.09741844 0.40634148
v -0.05907595 0.09983201 0.36954961
v -0.03536595 0.10111912 0.39491998
v -0.04104648 0.06779902 0.18220460
v -0.02357138 0.06923607 0.14298072
v -0.03522785 0.06923607 0.14298072
v -0.03992415 0.06840908 0.14298072
v -0.04312898 0.06666700 0.18220460
v -0.04104648 -0.06779893 0.18220460
v -0.02357138 -0.06924954 0.14298072
v -0.03522571 0.06922251 0.07962600
v -0.04314605 0.06664666 0.07961595
v -0.04314605 -0.06664658 0.18220460
v -0.04314605 -0.06664658 0.07961595
v -0.03992415 -0.06836833 0.07962600
v -0.03522785 -0.06923599 0.14298072
v -0.02357138 0.06919539 0.07962600
v -0.04469086 0.06340652 0.18220460
v -0.04469086 0.06340652 0.07961595
v -0.04469086 -0.06340644 0.18220460
v -0.04469086 -0.06343355 0.07961595
v -0.02357138 -0.06922243 0.07962600
v -0.03522571 -0.06919531 0.07962600
v -0.04536725 0.05872933 0.07961595
v -0.04536725 0.05871577 0.18220460
v -0.04536725 -0.05872925 0.18220460
v -0.04536725 -0.05872925 0.07961595
f 1 3 2
f 1 2 10
f 1 10 14
f 1 14 22
f 1 22 23
f 1 23 12
f 1 12 8
f 3 6 2
f 3 5 6
f 1 4 3
f 1 8 4
f 2 6 7
f 2 7 10
f 5 3 11
f 3 4 9
f 8 12 13
f 8 13 4
f 3 9 11
f 7 14 10
f 6 16 7
f 7 16 14
f 11 17 18
f 5 11 15
f 15 19 5
f 4 13 20
f 9 4 20
f 9 17 11
f 5 19 6
f 6 19 16
f 18 15 11
f 12 23 13
f 9 21 17
f 9 20 21
f 17 21 18
f 16 22 14
f 18 24 15
f 13 21 20
f 13 23 24
f 13 24 21
f 18 21 24
f 15 16 19
f 23 22 24
f 24 22 15
f 15 22 16
f 25 30 39
f 25 39 44
f 25 44 48
f 25 48 47
f 25 47 35
f 25 35 31
f 25 31 26
f 25 26 27
f 25 27 28
f 27 29 38
f 27 38 43
f 27 43 41
f 27 41 34
f 27 34 33
f 27 33 28
f 27 26 29
f 25 28 30
f 26 31 29
f 29 31 32
f 28 33 30
f 30 33 34
f 31 35 36
f 31 36 32
f 32 36 37
f 32 37 38
f 32 38 29
f 30 34 39
f 37 40 38
f 39 34 41
f 36 35 37
f 40 42 43
f 40 43 38
f 37 35 40
f 39 41 44
f 40 45 46
f 40 46 42
f 42 44 43
f 40 35 47
f 45 47 48
f 45 48 46
f 45 40 47
f 46 48 42
f 42 48 44
f 44 41 43
f 49 53 62
f 49 62 72
f 49 72 67
f 49 67 70
f 49 70 69
f 49 69 66
f 49 66 71
f 49 71 63
f 49 63 58
f 49 58 50
f 49 50 51
f 49 52 53
f 50 54 51
f 51 54 55
f 51 55 56
f 51 52 49
f 51 56 52
f 50 57 54
f 50 58 57
f 55 54 57
f 55 57 59
f 55 59 64
f 52 56 60
f 52 60 68
f 52 68 61
f 52 61 62
f 52 62 53
f 57 63 59
f 59 63 71
f 59 71 64
f 55 64 65
f 55 65 66
f 60 67 68
f 61 68 72
f 61 72 62
f 56 55 69
f 56 69 70
f 56 70 60
f 58 63 57
f 64 71 65
f 65 71 66
f 66 69 55
f 68 67 72
f 70 67 60
f 73 74 75
f 75 74 76
f 73 79 78
f 73 78 74
f 76 82 91
f 76 91 80
f 75 76 80
f 75 80 77
f 75 77 73
f 74 81 76
f 76 81 87
f 76 87 82
f 73 83 79
f 81 74 78
f 82 84 85
f 73 77 83
f 81 78 86
f 82 87 84
f 80 88 77
f 87 89 84
f 85 90 91
f 85 91 82
f 79 86 78
f 81 86 87
f 87 86 89
f 88 80 91
f 83 92 79
f 79 93 86
f 85 84 90
f 91 90 94
f 77 88 83
f 91 94 88
f 84 89 93
f 84 93 95
f 93 89 86
f 79 92 93
f 88 92 83
f 84 95 90
f 90 95 94
f 88 96 92
f 92 96 93
f 93 96 95
f 94 95 96
f 94 96 88
f 97 98 99
f 98 100 99
f 100 102 101
f 98 104 100
f 97 99 105
f 100 101 99
f 97 105 106
f 101 102 103
f 97 106 107
f 97 107 104
f 97 104 98
f 100 104 102
f 101 103 108
f 101 108 105
f 103 109 110
f 103 111 112
f 103 110 111
f 103 112 113
f 103 113 108
f 105 99 101
f 102 104 114
f 113 112 115
f 106 105 116
f 106 116 107
f 103 102 109
f 113 115 108
f 108 115 105
f 102 117 109
f 102 114 117
f 104 107 118
f 116 105 115
f 111 110 119
f 111 119 112
f 118 114 104
f 116 118 107
f 109 119 110
f 117 119 109
f 118 117 114
f 116 115 120
f 120 118 116
f 112 119 115
f 115 119 120
f 117 118 120
f 117 120 119
f 121 122 123
f 121 123 124
f 121 124 125
f 121 125 135
f 121 135 142
f 121 142 143
f 121 143 137
f 121 137 130
f 121 130 126
f 121 126 127
f 121 127 122
f 122 127 139
f 122 139 134
f 123 122 128
f 123 128 124
f 124 129 125
f 126 130 131
f 126 131 132
f 126 132 133
f 126 133 127
f 122 134 128
f 124 128 129
f 129 128 134
f 129 134 139
f 129 139 132
f 129 132 131
f 129 131 138
f 129 138 144
f 129 144 141
f 129 141 136
f 125 129 135
f 130 137 138
f 130 138 131
f 127 133 139
f 132 139 140
f 129 136 135
f 135 136 141
f 135 141 142
f 137 143 138
f 138 143 144
f 133 132 140
f 133 140 139
f 141 144 143
f 141 143 142

