# https://github.com/mikedh/trimesh
v -0.12567635 -0.00000055 0.25977391
v -0.12607845 -0.00000055 0.23584340
v -0.11477812 0.07345952 0.23069686
v -0.11578782 -0.07248133 0.23068820
v -0.11122479 0.07465055 0.25857826
v -0.10656647 -0.07843648 0.26327425
v -0.06136966 -0.02410154 0.31485280
v -0.06448663 0.01336545 0.31450135
v -0.10205111 0.06767641 0.27496012
v -0.05781486 0.13485049 0.23069686
v -0.07350097 0.07538170 0.29729695
v 0.04197585 -0.11873299 0.23068820
v 0.01962540 0.12566633 0.23068820
v -0.06265189 0.13081752 0.25250467
v -0.05058908 -0.00377215 0.31887676
v 0.06032919 0.10484977 0.23069253
v 0.11598490 0.00827049 0.23069686
v -0.06463555 -0.07659369 0.30218954
v 0.00329593 0.06163689 0.31785926
v 0.03701967 -0.01304895 0.31866453
v -0.03276889 0.05556099 0.31720891
v -0.00801481 0.13085392 0.28846978
v 0.03412758 0.12147125 0.25613388
v 0.05882208 0.10459832 0.26228653
v 0.10540538 0.06423565 0.23069686
v 0.10683504 -0.06222524 0.23069686
v -0.04410197 0.13271324 0.27540198
v 0.10772486 0.05723670 0.23560189
v 0.11212778 -0.04477665 0.23343258
v 0.03169417 -0.12210426 0.25746057
v -0.00801481 -0.13077562 0.28845243
v -0.05779103 -0.13482512 0.23069686
v -0.03122083 -0.07036891 0.31274766
v -0.04394709 0.08032779 0.30821547
v 0.02138866 -0.07839678 0.31074544
v 0.06043344 -0.02660022 0.30021626
v 0.02389057 0.11800403 0.29050584
v 0.06626826 0.00117063 0.29580186
v 0.05581383 -0.10546624 0.26514247
v -0.04220766 -0.13453399 0.27353267
v -0.06443897 -0.13072269 0.24716751
v 0.02136483 0.07839567 0.31073678
v 0.05088148 -0.07569711 0.29768739
v 0.05542365 0.03437720 0.30312308
v 0.02722646 -0.11590098 0.29031522
v -0.04218384 -0.13082857 0.28091459
v -0.00289184 -0.12357651 0.29589497
v 0.04960223 0.07428000 0.29942348
v -0.03424621 0.12055482 0.29161810
v 0.00232644 0.12315193 0.29572170
v 0.06913950 0.06936370 0.28277955
v 0.07608381 -0.07541590 0.27012061
v -0.05513196 0.13508287 0.23066975
v -0.11629990 -0.03513843 0.23066000
v 0.11454319 -0.03513843 0.23067952
v -0.02150475 0.13285600 0.19772500
v -0.05760386 0.13120548 0.17806942
v -0.06462313 0.13089111 0.23066975
v -0.09457747 0.10302448 0.23066488
v -0.11539625 0.07498975 0.23066975
v -0.11886507 0.05791915 0.23066975
v -0.12049747 -0.00183122 0.23066975
v 0.11535356 0.02407924 0.23066975
v 0.11302741 0.04670613 0.23066975
v 0.10773380 0.06064380 0.23066975
v 0.09427825 0.07668611 0.23066975
v 0.06641104 0.10100718 0.23066975
v 0.04325444 0.11793151 0.23066975
v 0.00818724 0.12851138 0.23066975
v -0.01401908 0.13218356 0.23066975
v -0.04764629 0.13384281 0.17806942
v -0.11361811 0.07949809 0.19255428
v -0.11916824 0.05416401 0.19255428
v -0.11632322 -0.03926035 0.13941710
v -0.11772241 -0.04334734 0.17256439
v -0.11774572 -0.04334734 0.17805965
v -0.11664969 -0.03770589 0.21695600
v 0.11664198 0.00005508 0.22660931
v 0.10360618 0.06718474 0.19957221
v 0.08310805 0.08624862 0.19255428
v 0.04008295 0.11957328 0.21354952
v 0.02888942 0.12332842 0.19860590
v 0.00719031 0.12858562 0.18949186
v -0.00284888 0.12966849 0.17806942
v 0.11675858 0.02579961 0.13096434
v -0.11574022 0.02579961 0.13096434
v -0.08087706 0.11312842 0.17806942
v -0.10946718 0.08617875 0.19255428
v -0.11688289 0.07178696 0.19255428
v -0.11569358 -0.02789014 0.13096434
v 0.11594239 -0.03926035 0.13941710
v 0.11521947 -0.04334734 0.17256439
v 0.11512619 -0.04334734 0.17805965
v 0.11500959 -0.03770589 0.21695600
v 0.11118514 0.05624243 0.19957221
v 0.04029283 0.11312842 0.17806942
v 0.06096003 0.10301138 0.19255428
v 0.11444992 0.04537437 0.19981135
v 0.11699178 0.02800030 0.18930398
v 0.00657234 0.12708356 0.17806942
v -0.09894993 0.09795068 0.19255428
v 0.11661866 -0.02789014 0.13096434
v 0.11617559 -0.03653569 0.13658650
v 0.11696846 -0.02843158 0.18931373
v -0.09054565 0.00003117 -0.00107392
v -0.01029967 0.06859640 0.00111232
v -0.07942755 -0.03699955 -0.04047770
v 0.09102623 0.02893208 0.00111232
v -0.08460414 -0.06587757 -0.00107392
v -0.06855850 -0.08996929 -0.00107392
v -0.02524239 -0.11332819 -0.00107392
v -0.00096936 -0.11690072 -0.00107392
v 0.07965908 0.07862699 0.00111519
v -0.07910735 0.07791707 -0.00107392
v -0.08796291 0.05489023 -0.00107392
v -0.07292791 -0.06938425 -0.03498415
v -0.04417874 -0.10283959 -0.01824816
v -0.07942755 0.03699319 -0.04047770
v 0.00088958 0.11696306 -0.00107392
v -0.04244876 0.10809470 -0.00107392
v -0.07556735 0.07072619 -0.02893831
v 0.04521966 -0.10817549 -0.00107392
v 0.07254350 -0.08709523 -0.00107392
v 0.08684582 -0.06731173 -0.00107392
v 0.09017235 -0.04859884 -0.00107392
v 0.04591899 0.10736903 -0.00107392
v -0.05343789 0.09724541 -0.02197795
v 0.03244052 -0.11038828 -0.01303219
v 0.05798213 -0.09803040 -0.01862616
v 0.08483567 -0.05147291 -0.03651265
v 0.08806881 0.03579090 -0.02811776
v 0.08490683 0.05566886 -0.03299517
v 0.05160590 0.10202311 -0.01480384
v -0.07211629 0.06369562 -0.04063263
v -0.07208071 -0.06372488 -0.04063263
v 0.00041151 -0.11023656 -0.01914474
v -0.06633488 0.00000827 -0.05749128
v 0.06350337 0.08594383 -0.02921087
v 0.02692372 0.10832944 -0.01799855
v -0.05380256 -0.04373241 -0.05618154
v -0.02335676 -0.06612947 -0.05622314
v 0.05124067 -0.09310313 -0.02719875
v -0.06138955 0.03477181 -0.05605674
v 0.06249718 -0.00467496 -0.05747693
v 0.00275965 -0.06394816 -0.05742099
v -0.00279273 0.10803173 -0.02154759
v 0.07441134 -0.06275159 -0.04113830
v 0.06711787 -0.02048802 -0.05631496
v -0.00072921 -0.07101881 -0.05551448
v 0.08145132 0.05233106 -0.04076318
v -0.01681487 0.06669563 -0.05686439
v 0.05315354 0.04292452 -0.05706666
v 0.07058671 0.00186324 -0.05616577
v 0.01951462 -0.06782413 -0.05611986
v -0.00078258 0.07097810 -0.05549440
v 0.02547281 0.06496232 -0.05615680
v -0.10764836 0.03546096 0.07199256
v -0.10956637 0.02580416 0.08147149
v -0.11472538 0.05611785 0.10138784
v 0.10155450 0.03546096 0.07199256
v 0.10497459 0.02580416 0.08147149
v -0.10667779 0.06166020 0.07199256
v -0.11461561 0.02581209 0.11772618
v -0.11825812 0.05235508 0.12862568
v 0.11673691 0.02581473 0.12580637
v 0.11652892 0.02581473 0.17407519
v 0.10012176 0.06329963 0.07199256
v -0.10210227 0.07531511 0.07199256
v -0.11400324 0.07376029 0.11953704
v 0.11518861 0.03986100 0.19957712
v 0.07507195 0.03986100 0.19957712
v -0.11649898 0.02581473 0.17408768
v 0.11486509 0.04883029 0.11962446
v -0.11670694 0.07067181 0.14073036
v -0.11656829 0.03678309 0.19254599
v -0.11912181 0.05233657 0.19254599
v 0.08320621 0.08632577 0.19957712
v 0.11119082 0.05625535 0.19957712
v -0.08222881 0.11312790 0.19254599
v -0.11075069 0.08387191 0.19254599
v -0.11764285 0.06848237 0.19254599
v -0.10628205 0.08070013 0.09973543
v 0.09709453 0.07218432 0.07199256
v 0.11217294 0.05692170 0.12393306
v 0.06101033 0.10302686 0.18997955
v 0.04031651 0.11312790 0.19254599
v -0.04763512 0.13385883 0.17804660
v -0.05761806 0.13120399 0.17804660
v -0.10425426 0.08951474 0.13665125
v 0.10763208 0.06330493 0.10688598
v 0.09241502 0.07856225 0.13389905
v 0.08470827 0.08293849 0.07199256
v 0.00655473 0.12707897 0.17804660
v -0.00465876 0.13020447 0.10710141
v -0.04950692 0.13075977 0.13513543
v -0.09061726 0.10085858 0.12759225
v -0.09397957 0.08560125 0.07199256
v 0.06372559 0.09799221 0.07199256
v 0.00404022 0.12803619 0.09949268
v -0.03208876 0.13082852 0.10838775
v 0.10234019 0.06976219 0.12586256
v -0.04463099 0.13029439 0.11833813
v -0.08710473 0.09729413 0.09316090
v 0.10363429 0.06721313 0.19957712
v 0.04129863 0.11079038 0.07199256
v -0.00285050 0.12504819 0.07199256
v -0.04063319 0.11809116 0.07199256
v -0.06425026 0.10733171 0.07199256
v -0.11599827 -0.03654349 0.13656629
v -0.11572388 0.02578862 0.13093502
v -0.10694318 -0.06542551 0.07579434
v 0.11618716 -0.03654349 0.13656629
v -0.10035194 -0.07955951 0.07579434
v -0.08762393 -0.09233355 0.07579434
v -0.06295966 -0.10900640 0.07579434
v -0.03665186 -0.12000600 0.07579434
v -0.00098028 -0.12569460 0.07579434
v -0.10849810 -0.05409128 0.07579434
v -0.11364304 -0.03654349 0.10629820
v -0.08915884 -0.04759528 -0.00106311
v -0.08382525 -0.06957607 -0.00106311
v 0.05472799 -0.10351120 0.07579434
v 0.09319214 -0.07607820 0.07579434
v 0.10024929 -0.06793058 0.07579434
v 0.02433855 -0.11793380 0.07579434
v 0.11678170 0.02578862 0.13093502
v -0.00100314 0.12498458 0.07198178
v -0.03562287 0.11980253 0.07198178
v -0.06398579 0.10751354 0.07198178
v -0.08833564 0.09095734 0.07198178
v -0.10277006 0.07264207 0.07198178
v -0.06849904 -0.08954297 -0.00106311
v -0.05226961 -0.10271302 -0.00106311
v -0.03355632 -0.11073786 -0.00106311
v 0.00082617 -0.11687772 -0.00106311
v 0.08891898 -0.07868152 0.04697785
v 0.08708395 -0.06657366 -0.00106311
v 0.11550117 -0.03654349 0.11641226
v 0.03552022 -0.11114308 -0.00106311
v 0.06174226 -0.09929311 0.04711257
v 0.09926603 0.06772403 0.07198178
v 0.08479160 0.08284656 0.07198178
v 0.06377738 0.09801820 0.07198178
v 0.04057941 0.11111459 0.07198178
v 0.01553498 0.11524674 -0.00106311
v -0.01515744 0.11492745 -0.00106311
v -0.03916716 0.10926648 -0.00106311
v -0.05878082 0.09802436 -0.00106311
v -0.08112701 0.07451474 -0.00106311
v -0.08882584 0.04946094 -0.00106311
v -0.10961854 0.04619759 0.07953954
v 0.09047390 -0.03653121 -0.00106311
v 0.11606141 0.02578862 0.11643247
v 0.08696391 0.06757666 0.00113282
v 0.07052296 0.08959429 -0.00106311
v 0.04794239 0.10627636 -0.00106311
v -0.09250305 -0.00006644 0.00622185
v 0.06376880 -0.09550480 -0.00106311
v 0.11634723 -0.00239345 0.11456660
v 0.09080546 0.02885856 -0.00106311
v -0.10756606 -0.06167029 0.07579162
v -0.10845351 -0.03296614 0.07579162
v -0.11606021 -0.05423860 0.10712889
v -0.10951384 -0.03164990 0.08146175
v 0.10289768 -0.03296614 0.07579162
v -0.11188805 -0.03167015 0.09556124
v 0.10481088 -0.03164990 0.08146175
v -0.10552607 -0.07853841 0.09030046
v 0.10944405 -0.03164990 0.09556124
v -0.10003427 -0.07929082 0.07579162
v -0.11691309 -0.06344215 0.12012166
v 0.11449214 -0.03516325 0.23067383
v 0.11607687 -0.03657568 0.12486318
v 0.10081160 -0.06484952 0.07579162
v 0.11319555 -0.05046327 0.11150846
v -0.11847477 -0.05044682 0.14507624
v -0.11631378 -0.03515313 0.23064351
v -0.11878595 -0.05321092 0.23067383
v 0.11444604 -0.05086700 0.12953648
v -0.11144433 -0.07811569 0.11787029
v 0.04192877 -0.11880523 0.23067383
v 0.10861423 -0.05875938 0.23064351
v -0.11746630 -0.06815530 0.15987692
v 0.06638548 -0.10103599 0.23064351
v 0.09632825 -0.07495419 0.23064351
v 0.11091929 -0.05958456 0.12053100
v 0.04010777 -0.11957473 0.21352703
v 0.08668589 -0.08123354 0.07579162
v 0.09696791 -0.07446155 0.12810521
v -0.11141552 -0.08261623 0.17299286
v -0.11361685 -0.07953065 0.23067383
v 0.00857452 -0.12854540 0.23067383
v 0.05879031 -0.10108155 0.07579162
v -0.10810991 -0.08517214 0.13540464
v -0.10163052 -0.08950371 0.11378446
v -0.08710862 -0.09309805 0.07579162
v 0.00080646 -0.12928452 0.09965464
v 0.03968134 -0.11158616 0.07579162
v -0.09111943 -0.10127899 0.13601771
v -0.01212494 -0.13074251 0.10565830
v -0.01774929 -0.13254474 0.23067383
v -0.07766940 -0.10843225 0.11622534
v -0.05725807 -0.11220378 0.07579162
v -0.09413618 -0.10346217 0.23063024
v -0.05327031 -0.13452923 0.19841176
v -0.00100302 -0.12565473 0.07579162
v -0.06500308 -0.13041345 0.22797523
v -0.05778823 -0.13486335 0.23064351
v -0.03804537 -0.13051596 0.11077126
v -0.05714282 -0.13090451 0.17253236
v -0.04517954 -0.13054001 0.12053100
v -0.03693606 -0.12005312 0.07579162
f 1 3 2
f 2 4 1
f 1 5 3
f 1 4 6
f 1 7 8
f 1 8 9
f 1 9 5
f 2 3 4
f 8 11 9
f 3 10 13
f 3 13 12
f 3 14 10
f 7 15 8
f 12 13 16
f 12 16 17
f 3 5 14
f 1 6 18
f 1 18 7
f 15 20 19
f 15 19 21
f 9 11 5
f 13 23 16
f 16 25 17
f 12 17 26
f 10 22 13
f 3 12 4
f 15 21 8
f 22 23 13
f 16 23 24
f 25 28 17
f 26 17 29
f 12 32 4
f 10 27 22
f 15 7 33
f 15 33 20
f 21 19 34
f 20 33 35
f 8 21 34
f 8 34 11
f 23 22 37
f 23 37 24
f 17 38 29
f 12 39 30
f 30 31 12
f 12 31 32
f 32 41 4
f 33 7 18
f 20 42 19
f 20 43 36
f 20 36 38
f 20 38 44
f 16 24 25
f 30 39 45
f 31 40 32
f 14 27 10
f 6 46 18
f 33 47 35
f 20 48 42
f 35 43 20
f 44 48 20
f 22 50 37
f 17 28 38
f 12 26 39
f 31 30 45
f 11 27 5
f 31 45 47
f 27 49 22
f 4 41 6
f 6 40 46
f 42 50 19
f 38 28 51
f 38 51 44
f 44 51 48
f 11 49 27
f 22 49 50
f 37 48 24
f 28 25 51
f 29 52 26
f 31 47 40
f 40 47 46
f 32 40 41
f 27 14 5
f 6 41 40
f 18 46 47
f 18 47 33
f 42 48 37
f 19 50 34
f 43 35 45
f 43 52 36
f 49 11 34
f 50 42 37
f 36 29 38
f 29 36 52
f 39 26 52
f 47 45 35
f 34 50 49
f 24 48 51
f 24 51 25
f 39 43 45
f 39 52 43
f 53 54 55
f 53 57 58
f 53 58 54
f 54 58 59
f 54 59 60
f 54 60 61
f 54 61 62
f 55 63 64
f 55 64 65
f 55 65 66
f 55 66 67
f 55 67 68
f 55 68 69
f 55 69 70
f 55 70 53
f 53 70 56
f 53 56 71
f 53 71 57
f 59 72 60
f 62 61 73
f 62 73 74
f 62 74 75
f 62 75 76
f 62 76 77
f 62 77 54
f 66 65 79
f 67 66 80
f 67 81 68
f 68 81 82
f 68 82 69
f 69 82 83
f 69 83 70
f 70 83 56
f 71 56 84
f 71 84 85
f 71 85 86
f 71 86 57
f 61 60 89
f 73 86 74
f 74 86 90
f 74 103 91
f 74 91 92
f 74 92 75
f 75 92 93
f 75 93 76
f 76 93 94
f 76 94 77
f 77 94 55
f 77 55 54
f 55 94 78
f 55 78 63
f 65 64 95
f 80 96 97
f 80 97 67
f 80 79 85
f 80 85 96
f 67 97 81
f 85 79 95
f 85 95 98
f 85 98 99
f 85 102 90
f 85 90 86
f 85 84 100
f 85 100 96
f 86 73 89
f 86 89 72
f 86 72 88
f 86 88 87
f 86 87 57
f 87 101 58
f 59 101 88
f 59 88 72
f 89 60 72
f 61 89 73
f 90 102 103
f 90 103 74
f 91 103 104
f 92 91 104
f 92 104 93
f 93 104 94
f 78 94 104
f 78 99 63
f 66 79 80
f 96 82 81
f 96 81 97
f 56 83 84
f 96 100 82
f 95 79 65
f 84 83 100
f 100 83 82
f 87 88 101
f 87 58 57
f 101 59 58
f 103 102 104
f 78 104 99
f 64 63 99
f 104 102 85
f 85 99 104
f 64 98 95
f 64 99 98
f 106 108 113
f 106 105 109
f 106 109 110
f 106 110 111
f 106 111 112
f 106 112 108
f 106 114 115
f 106 115 105
f 105 107 109
f 109 116 110
f 110 117 111
f 107 105 118
f 113 119 120
f 113 120 106
f 114 121 115
f 105 115 118
f 106 120 114
f 108 112 122
f 108 122 123
f 108 123 124
f 108 124 125
f 113 126 119
f 115 121 118
f 120 127 114
f 111 117 112
f 112 128 122
f 122 129 123
f 124 130 125
f 108 132 113
f 113 133 126
f 126 133 119
f 107 116 109
f 122 128 129
f 118 121 134
f 121 114 127
f 110 116 117
f 112 117 136
f 112 136 128
f 123 129 124
f 108 131 132
f 113 138 133
f 125 131 108
f 137 107 118
f 119 133 139
f 121 127 134
f 116 107 135
f 135 107 137
f 135 137 140
f 116 141 117
f 116 135 141
f 137 144 145
f 135 140 141
f 128 136 142
f 129 128 142
f 129 142 147
f 129 147 124
f 131 125 130
f 143 137 118
f 143 118 134
f 137 145 140
f 113 150 138
f 113 132 150
f 119 146 120
f 134 151 143
f 117 141 136
f 136 141 149
f 144 137 152
f 144 153 148
f 144 148 145
f 145 148 154
f 149 145 154
f 145 149 141
f 145 141 140
f 120 146 127
f 134 127 151
f 151 127 146
f 151 146 155
f 149 154 142
f 149 142 136
f 147 130 124
f 130 153 131
f 144 152 153
f 152 137 151
f 152 151 156
f 132 131 150
f 139 156 155
f 119 139 146
f 142 154 147
f 147 154 148
f 130 148 153
f 131 153 150
f 143 151 137
f 152 150 153
f 151 155 156
f 150 152 156
f 138 150 156
f 133 138 139
f 139 155 146
f 130 147 148
f 156 139 138
f 157 162 168
f 157 168 197
f 157 197 208
f 157 208 207
f 157 207 206
f 157 206 205
f 157 205 198
f 157 198 192
f 157 192 183
f 157 183 167
f 157 167 160
f 157 158 159
f 157 160 161
f 157 161 158
f 158 161 163
f 157 159 162
f 158 163 159
f 161 165 166
f 161 166 172
f 161 172 163
f 160 167 161
f 159 163 164
f 166 165 170
f 166 170 171
f 166 171 172
f 161 173 165
f 159 168 162
f 164 174 159
f 159 174 169
f 170 165 173
f 170 178 204
f 170 204 177
f 170 177 171
f 172 175 176
f 172 171 175
f 172 176 164
f 172 164 163
f 159 169 168
f 161 167 173
f 175 171 176
f 171 177 176
f 173 178 170
f 177 179 180
f 177 180 181
f 177 181 176
f 169 182 168
f 174 164 181
f 173 184 178
f 177 185 186
f 177 186 179
f 179 187 188
f 179 186 187
f 179 189 180
f 176 181 164
f 173 167 190
f 185 177 191
f 185 191 192
f 186 193 187
f 188 187 195
f 180 189 169
f 180 169 174
f 180 174 181
f 168 182 197
f 183 190 167
f 173 190 184
f 169 189 182
f 192 198 185
f 187 193 194
f 194 200 187
f 188 196 179
f 179 196 189
f 177 201 191
f 185 198 186
f 186 199 193
f 199 200 194
f 195 187 202
f 188 195 196
f 196 195 203
f 189 196 182
f 184 204 178
f 193 199 194
f 187 200 202
f 199 206 200
f 190 183 201
f 196 197 182
f 184 190 204
f 204 190 201
f 177 204 201
f 191 201 192
f 192 201 183
f 198 205 186
f 199 186 205
f 199 205 206
f 202 208 195
f 203 197 196
f 200 206 207
f 207 202 200
f 207 208 202
f 195 208 203
f 203 208 197
f 209 211 213
f 209 213 214
f 209 214 215
f 209 215 216
f 209 216 217
f 209 217 212
f 209 218 211
f 209 210 219
f 211 218 220
f 211 220 221
f 212 222 223
f 212 223 224
f 212 217 225
f 212 225 222
f 209 212 226
f 209 226 210
f 210 226 227
f 210 227 228
f 210 228 229
f 210 229 230
f 210 230 231
f 211 221 213
f 214 232 233
f 214 233 215
f 215 233 234
f 215 234 216
f 216 234 235
f 216 235 217
f 218 209 219
f 220 250 249
f 220 249 248
f 220 248 247
f 220 247 246
f 220 246 245
f 220 245 256
f 220 256 255
f 220 255 260
f 220 260 252
f 220 252 237
f 220 237 258
f 220 258 239
f 220 239 235
f 220 235 234
f 220 234 233
f 220 233 232
f 220 232 221
f 223 236 224
f 224 236 237
f 224 238 212
f 217 235 239
f 217 239 225
f 225 239 222
f 226 241 242
f 226 242 243
f 226 243 244
f 226 244 227
f 227 245 246
f 227 246 228
f 228 246 247
f 228 247 229
f 229 247 248
f 229 248 230
f 230 248 231
f 231 248 249
f 231 249 250
f 231 251 210
f 213 221 232
f 213 232 214
f 222 240 223
f 224 237 238
f 238 237 252
f 226 253 241
f 244 256 227
f 227 256 245
f 250 251 231
f 251 219 210
f 218 257 220
f 223 240 236
f 236 258 237
f 252 259 238
f 222 239 240
f 241 253 254
f 254 255 241
f 242 241 255
f 243 256 244
f 251 250 257
f 251 218 219
f 257 250 220
f 240 239 258
f 212 259 226
f 254 260 255
f 253 260 254
f 257 218 251
f 236 240 258
f 259 212 238
f 260 253 259
f 242 255 256
f 242 256 243
f 252 260 259
f 226 259 253
f 261 262 265
f 261 265 274
f 261 274 288
f 261 288 293
f 261 293 298
f 261 298 306
f 261 306 312
f 261 312 303
f 261 303 296
f 261 296 270
f 262 261 263
f 262 264 267
f 262 267 265
f 263 264 262
f 264 263 266
f 264 266 269
f 264 269 267
f 261 268 263
f 267 269 265
f 269 266 272
f 269 272 273
f 265 269 275
f 265 275 274
f 261 270 268
f 263 268 271
f 266 277 272
f 272 277 278
f 272 278 291
f 272 291 304
f 272 304 301
f 272 301 292
f 272 292 281
f 269 273 275
f 263 271 276
f 263 276 266
f 266 276 277
f 277 276 278
f 273 272 279
f 273 279 275
f 268 280 271
f 272 281 282
f 271 283 276
f 281 284 285
f 281 285 282
f 272 282 279
f 275 286 274
f 280 283 271
f 276 283 278
f 284 288 289
f 284 281 288
f 284 289 285
f 285 286 282
f 279 286 275
f 283 280 290
f 281 292 287
f 281 293 288
f 281 287 293
f 289 286 285
f 279 282 286
f 286 288 274
f 280 268 295
f 280 295 294
f 280 294 290
f 283 290 291
f 278 283 291
f 287 297 298
f 287 298 293
f 270 296 268
f 268 296 295
f 294 295 299
f 297 287 292
f 289 288 286
f 297 292 301
f 296 303 302
f 294 304 290
f 297 301 305
f 297 305 300
f 300 306 297
f 296 302 295
f 295 302 299
f 299 307 304
f 294 299 304
f 297 306 298
f 299 302 310
f 299 310 307
f 303 311 302
f 290 304 291
f 305 301 308
f 305 311 300
f 300 309 306
f 307 310 308
f 301 304 308
f 311 309 300
f 302 311 310
f 310 305 308
f 304 307 308
f 309 303 312
f 309 312 306
f 305 310 311
f 311 303 309

