# Blender v3.0.1 OBJ File: ''
# www.blender.org
mtllib armr3.mtl
o right_j3
v -0.001422 -0.046658 -0.056012
v 0.019731 -0.032293 0.037611
v -0.020643 -0.032288 0.036735
v 0.005687 -0.053101 -0.134444
v -0.014454 -0.051940 -0.136064
v 0.030524 -0.043577 -0.135320
v -0.044423 -0.030401 -0.135342
v -0.053812 -0.002711 -0.134630
v -0.018092 0.049541 -0.136234
v 0.035620 -0.033026 0.020429
v 0.001942 -0.031580 0.041689
v -0.041188 -0.033056 0.004280
v -0.049741 0.019393 -0.135435
v 0.010557 0.052393 -0.135271
v 0.053740 0.001226 -0.135207
v 0.041814 -0.033085 0.000925
v 0.047144 0.025484 -0.135455
v 0.048489 -0.023599 -0.135072
v -0.017131 0.033391 0.040325
v -0.038110 -0.031810 0.018531
v -0.037165 0.038986 -0.135072
v 0.033341 0.008372 0.027483
v -0.004208 0.049885 -0.095115
v 0.033414 0.041771 -0.135072
v 0.019684 0.035765 0.038470
v -0.042937 0.035754 0.005476
v 0.042923 0.035765 0.005476
v 0.029296 0.030181 -0.106207
v 0.028250 0.030181 -0.106207
v 0.028250 0.031156 -0.106207
v 0.028845 0.030623 -0.106207
v 0.028775 0.030556 -0.098182
v 0.029153 0.030181 -0.098182
v 0.028250 0.030181 -0.098182
v 0.028250 0.031031 -0.098182
v -0.029465 -0.037850 -0.091078
v -0.029143 -0.037967 -0.089200
v -0.029465 -0.037709 -0.089200
v -0.029465 0.020054 -0.089189
v -0.029465 0.037720 -0.089189
v -0.029465 0.037853 -0.091078
v -0.029465 0.020054 -0.091078
v -0.029233 -0.038030 -0.091078
v -0.027774 -0.039118 -0.091078
v -0.027774 -0.038985 -0.089200
v -0.020972 0.020054 -0.091078
v -0.020972 -0.040002 -0.091078
v -0.026487 -0.040002 -0.091078
v -0.027139 -0.039572 -0.091078
v -0.029307 0.037978 -0.091078
v -0.028033 0.038933 -0.091078
v -0.027139 0.039575 -0.091078
v -0.026561 0.039958 -0.091078
v -0.020972 0.039958 -0.091078
v -0.027046 -0.039509 -0.089200
v -0.026289 -0.040002 -0.089200
v -0.020972 -0.040002 -0.089200
v -0.020972 0.020054 -0.089189
v -0.020972 0.039958 -0.089189
v -0.026358 0.039958 -0.089189
v -0.026647 0.039770 -0.089189
v -0.027045 0.039512 -0.089189
v -0.027939 0.038862 -0.089189
v -0.029127 0.037978 -0.089189
vn -0.0034 -0.9883 0.1524
vn 0.0631 -0.2533 -0.9653
vn -0.0635 -0.9951 0.0760
vn -0.0074 0.0232 -0.9997
vn -0.0403 -0.0031 -0.9992
vn 0.1642 -0.9818 0.0955
vn 0.0950 -0.9870 0.1300
vn -0.0035 -0.9876 0.1571
vn -0.1532 -0.9808 0.1202
vn 0.0115 -0.0385 -0.9992
vn 0.0336 -0.0005 -0.9994
vn 0.0082 0.0056 -1.0000
vn 0.0178 -0.0067 -0.9998
vn 0.3590 -0.9324 0.0420
vn 0.2397 -0.9676 0.0791
vn -0.1897 -0.9772 0.0954
vn -0.0157 -0.0145 -0.9998
vn 0.0259 -0.0109 -0.9996
vn -0.2128 -0.0420 0.9762
vn -0.1501 -0.9816 0.1183
vn -0.1093 0.0885 -0.9901
vn 0.7305 -0.0754 0.6787
vn -0.0999 0.9947 0.0254
vn 0.0322 0.0506 -0.9982
vn 0.9778 -0.2067 0.0336
vn 0.2229 -0.0121 0.9748
vn -0.5836 -0.8120 -0.0019
vn -0.9468 -0.3214 0.0158
vn -0.9960 -0.0268 0.0847
vn -0.9829 0.1820 0.0263
vn 0.7436 -0.6686 -0.0101
vn 0.9525 -0.0353 0.3026
vn 0.6151 -0.0095 0.7884
vn 0.0480 0.0351 0.9982
vn -0.8412 0.5403 -0.0221
vn -0.4842 0.8750 0.0002
vn 0.4213 0.9068 0.0102
vn 0.9964 -0.0215 0.0819
vn 0.9233 -0.0146 0.3839
vn -0.9765 -0.0285 0.2134
vn -0.2014 0.9777 0.0598
vn -0.0611 0.9914 0.1157
vn 0.0785 0.9928 0.0909
vn 0.1250 0.9882 0.0880
vn 0.7641 0.6447 -0.0241
vn 0.9649 0.2625 0.0097
vn -0.0584 0.9922 0.1105
vn -0.7215 0.0007 0.6924
vn -0.8004 0.0581 0.5966
vn 0.8051 0.1739 0.5671
vn 0.0000 0.0000 -1.0000
vn 0.0003 0.0000 -1.0000
vn 0.6992 0.7148 0.0120
vn 0.7042 0.7099 0.0126
vn 0.0000 -1.0000 -0.0000
vn -1.0000 0.0000 0.0000
vn 0.6674 0.7446 0.0116
vn 0.6711 0.7412 0.0120
vn 0.0000 0.0000 1.0000
vn -0.6250 -0.7785 0.0584
vn -0.6122 -0.7888 0.0556
vn -0.0001 -0.0002 1.0000
vn -0.5969 -0.8004 0.0552
vn -0.5955 -0.8014 0.0568
vn 0.0000 -0.0002 1.0000
vn -0.5806 -0.8123 0.0559
vn -0.5834 -0.8102 0.0574
vn 1.0000 0.0000 0.0000
vn -0.5451 -0.8364 0.0574
vn -0.5503 -0.8332 0.0551
vn -0.6203 0.7824 0.0551
vn -0.6058 0.7935 0.0578
vn 0.0000 1.0000 -0.0000
vn -0.5989 0.7988 0.0572
vn -0.5961 0.8007 0.0598
vn -0.5436 0.8373 0.0584
vn -0.5522 0.8319 0.0550
vn -0.5440 0.8370 0.0583
vn -0.5820 0.8112 0.0558
vn -0.5869 0.8074 0.0596
usemtl Default_OBJ.005
s off
f 1//1 2//1 3//1
f 4//2 5//2 6//2
f 4//3 1//3 5//3
f 5//4 7//4 8//4
f 5//5 8//5 9//5
f 4//6 10//6 1//6
f 1//7 10//7 2//7
f 2//8 11//8 3//8
f 1//9 3//9 12//9
f 8//10 13//10 9//10
f 5//11 9//11 14//11
f 5//12 14//12 15//12
f 5//13 15//13 6//13
f 6//14 16//14 4//14
f 4//15 16//15 10//15
f 5//16 1//16 12//16
f 15//17 14//17 17//17
f 15//18 18//18 6//18
f 11//19 19//19 3//19
f 3//20 20//20 12//20
f 9//21 13//21 21//21
f 10//22 22//22 2//22
f 9//23 23//23 14//23
f 14//24 24//24 17//24
f 16//25 18//25 15//25
f 11//26 2//26 25//26
f 12//27 7//27 5//27
f 7//28 12//28 8//28
f 12//29 26//29 8//29
f 13//30 8//30 26//30
f 16//31 6//31 18//31
f 16//32 27//32 10//32
f 2//33 22//33 25//33
f 11//34 25//34 19//34
f 26//35 21//35 13//35
f 21//36 26//36 9//36
f 14//37 27//37 24//37
f 15//38 27//38 16//38
f 10//39 27//39 22//39
f 20//40 26//40 12//40
f 26//41 23//41 9//41
f 23//42 26//42 25//42
f 14//43 23//43 25//43
f 14//44 25//44 27//44
f 27//45 17//45 24//45
f 17//46 27//46 15//46
f 19//47 25//47 26//47
f 3//48 19//48 20//48
f 19//49 26//49 20//49
f 25//50 22//50 27//50
f 28//51 29//51 30//51
f 28//52 30//52 31//52
f 28//53 31//53 32//53
f 28//54 32//54 33//54
f 28//55 33//55 34//55
f 28//55 34//55 29//55
f 29//56 34//56 35//56
f 29//56 35//56 30//56
f 31//57 30//57 35//57
f 31//58 35//58 32//58
f 32//59 35//59 34//59
f 32//59 34//59 33//59
f 36//60 37//60 38//60
f 36//56 38//56 39//56
f 36//56 39//56 40//56
f 36//56 40//56 41//56
f 36//56 41//56 42//56
f 36//51 42//51 43//51
f 36//61 43//61 37//61
f 37//62 39//62 38//62
f 37//63 43//63 44//63
f 37//64 44//64 45//64
f 37//62 45//62 39//62
f 42//51 46//51 47//51
f 42//51 47//51 48//51
f 42//51 48//51 49//51
f 42//51 49//51 44//51
f 42//51 44//51 43//51
f 42//51 41//51 50//51
f 42//51 50//51 51//51
f 42//51 51//51 52//51
f 42//51 52//51 53//51
f 42//51 53//51 54//51
f 42//51 54//51 46//51
f 39//62 45//62 55//62
f 39//62 55//62 56//62
f 39//65 56//65 57//65
f 39//65 57//65 58//65
f 39//59 58//59 59//59
f 39//59 59//59 60//59
f 39//59 60//59 61//59
f 39//59 61//59 62//59
f 39//59 62//59 63//59
f 39//59 63//59 64//59
f 39//59 64//59 40//59
f 44//66 49//66 55//66
f 44//67 55//67 45//67
f 46//68 54//68 59//68
f 46//68 59//68 58//68
f 46//68 58//68 57//68
f 46//68 57//68 47//68
f 48//69 56//69 55//69
f 48//70 55//70 49//70
f 48//55 47//55 57//55
f 48//55 57//55 56//55
f 41//71 40//71 50//71
f 40//72 64//72 50//72
f 54//73 53//73 60//73
f 54//73 60//73 59//73
f 50//74 64//74 51//74
f 64//75 63//75 51//75
f 53//76 61//76 60//76
f 53//77 52//77 62//77
f 53//78 62//78 61//78
f 51//79 62//79 52//79
f 51//80 63//80 62//80
