# Blender v3.0.1 OBJ File: ''
# www.blender.org
mtllib armr2.mtl
o right_j2
v 0.027269 0.137299 -0.002523
v -0.010737 0.136659 -0.029829
v -0.030673 0.136919 0.005901
v -0.008872 0.137020 0.028295
v 0.007663 0.136557 -0.031099
v 0.027419 0.123867 0.045169
v 0.052703 0.123886 -0.009471
v 0.051795 0.123858 0.012284
v 0.047547 0.123490 -0.024504
v -0.037507 0.123848 0.037512
v -0.013138 0.122830 0.051529
v 0.007111 0.121136 0.053136
v 0.046420 0.122740 0.025913
v 0.005247 0.124211 -0.033864
v -0.051897 0.123867 -0.011910
v -0.050432 0.122521 0.015407
v 0.049335 0.042622 -0.024764
v 0.034606 0.042565 -0.024756
v -0.009537 0.124211 -0.033069
v 0.054679 0.045308 0.006925
v 0.040505 0.039968 0.038029
v -0.043647 0.039977 0.034121
v -0.053822 0.073319 -0.011910
v -0.018459 0.039968 0.052646
v 0.020369 0.039968 0.052001
v 0.008473 0.039968 0.055164
v -0.048624 0.077652 0.025982
v -0.053815 0.073312 -0.011918
v -0.013797 0.049361 -0.011918
v 0.034593 0.042540 -0.011918
v 0.034593 0.123989 -0.011918
v -0.051905 0.123861 -0.011918
v -0.050272 0.072452 -0.024093
v -0.035719 -0.006097 -0.043723
v -0.032134 -0.018734 -0.041882
v -0.014983 -0.033993 -0.041913
v -0.037773 0.121136 -0.039009
v -0.018302 -0.019976 -0.050762
v 0.015603 -0.034139 -0.043068
v 0.050656 0.045409 -0.024780
v 0.032954 -0.016343 -0.042836
v -0.017696 0.122860 -0.050518
v -0.002140 -0.033454 -0.047830
v 0.047348 0.122606 -0.024780
v -0.019100 0.028652 -0.052909
v 0.042384 0.045405 -0.037054
v 0.040867 0.121672 -0.035448
v 0.017240 -0.025504 -0.049293
v 0.009800 0.123877 -0.052776
v 0.026204 0.121511 -0.047155
v -0.005136 0.046515 -0.056028
v -0.000059 -0.013815 -0.055403
v 0.022248 -0.004094 -0.051765
v 0.010004 0.000161 -0.055966
v -0.043054 -0.011894 0.034075
v -0.043185 0.039940 0.031993
v -0.038652 -0.017560 0.032478
v -0.042808 0.050678 0.035727
v 0.042769 0.039958 0.031468
v -0.002333 -0.043045 0.032705
v -0.027269 0.050678 0.048393
v -0.018474 0.050678 0.052480
v 0.038593 -0.015298 0.032443
v -0.013551 -0.041475 0.035458
v -0.030104 -0.032438 0.034122
v 0.044124 -0.004332 0.033694
v 0.036507 -0.025997 0.033891
v 0.039185 0.039954 0.039341
v 0.007195 0.039949 0.055296
v 0.020979 0.039956 0.051749
v -0.030139 -0.024817 0.041375
v 0.000766 -0.002830 0.055752
v 0.018455 -0.038421 0.038119
v 0.016446 0.001169 0.053695
v 0.031474 -0.016012 0.044008
v 0.000624 -0.040396 0.041536
v -0.027613 -0.006424 0.048049
v -0.013126 -0.030123 0.047389
v 0.012277 -0.031260 0.047342
v -0.007058 -0.018254 0.053276
v 0.015222 -0.016046 0.052032
vn -0.0083 0.9999 -0.0119
vn -0.0063 1.0000 0.0016
vn 0.0036 0.9996 -0.0284
vn 0.2178 0.9396 0.2639
vn 0.4708 0.8820 0.0208
vn 0.4233 0.8901 -0.1687
vn -0.2374 0.8478 0.4742
vn 0.0295 0.8506 0.5249
vn 0.3646 0.9053 0.2180
vn 0.3141 0.9141 0.2565
vn 0.3389 0.9053 -0.2561
vn 0.2156 0.1731 -0.9610
vn -0.0657 0.2303 -0.9709
vn -0.3741 0.9021 -0.2153
vn -0.5650 0.8221 0.0708
vn -0.4942 0.8359 0.2388
vn -0.3159 0.8990 0.3035
vn 0.2162 0.0079 -0.9763
vn -0.0002 -0.1109 -0.9938
vn -0.0520 0.2468 -0.9677
vn -0.0533 -0.1296 -0.9901
vn -0.4403 0.1862 -0.8784
vn 0.0801 0.8624 0.4999
vn 0.9300 0.0091 0.3675
vn 0.0039 -0.9991 -0.0417
vn 0.0018 -0.9991 -0.0415
vn -0.2123 -0.2119 -0.9540
vn -0.4469 0.0170 -0.8944
vn -0.9977 0.0380 0.0554
vn -0.4968 0.0436 0.8668
vn 0.9986 0.0338 0.0417
vn 0.9455 0.0220 -0.3249
vn -0.0000 -1.0000 0.0000
vn -0.0001 -1.0000 -0.0004
vn -0.3485 -0.7940 -0.4981
vn -0.8625 0.0829 0.4993
vn -0.7803 0.0319 0.6246
vn -0.0771 0.0236 0.9967
vn 0.3595 0.0457 0.9320
vn 0.5700 0.0190 0.8214
vn 0.7124 0.0515 0.6999
vn 0.9862 -0.0097 -0.1655
vn 0.3800 -0.9249 0.0143
vn -0.9906 -0.0077 0.1368
vn -0.5924 0.0108 0.8055
vn -0.9843 -0.0984 0.1463
vn 0.2568 0.0284 0.9660
vn 0.9103 -0.0044 0.4140
vn -0.0931 0.0194 0.9955
vn 0.0000 -0.0000 1.0000
vn -0.9588 0.0362 -0.2816
vn -0.9564 -0.1096 -0.2706
vn -0.9611 -0.2583 0.0981
vn -0.3191 -0.3605 0.8765
vn -0.1972 -0.3295 0.9233
vn -0.8801 0.0827 -0.4675
vn -0.0476 -0.3376 0.9401
vn -0.5373 -0.2688 -0.7994
vn -0.7829 0.0104 -0.6221
vn -0.4868 -0.5458 -0.6820
vn 0.0330 -0.3832 0.9231
vn 0.6250 -0.0000 0.7806
vn 0.4295 -0.4291 0.7946
vn 0.6188 -0.3786 0.6883
vn -0.1966 0.9601 -0.1991
vn -0.0089 -0.9939 -0.1097
vn 0.7113 0.0305 0.7022
vn -0.4062 -0.0470 -0.9126
vn 0.8270 -0.0741 -0.5573
vn -0.4990 0.0294 -0.8661
vn -0.5204 0.0232 -0.8536
vn -0.3276 -0.5586 -0.7620
vn 0.8526 0.0365 -0.5213
vn 0.5708 -0.5487 -0.6108
vn 0.0653 0.9970 -0.0424
vn -0.0015 1.0000 -0.0018
vn -0.0421 0.9971 -0.0631
vn 0.8289 0.0283 -0.5587
vn 0.2239 0.9400 -0.2576
vn 0.1123 0.9816 -0.1542
vn -0.0838 0.0580 -0.9948
vn 0.1863 -0.5976 -0.7799
vn -0.2314 -0.0467 -0.9717
vn 0.6456 0.0077 -0.7636
vn -0.1198 -0.3461 -0.9305
vn 0.4737 -0.2096 -0.8554
vn 0.6235 0.0289 -0.7813
vn 0.3273 0.0249 -0.9446
vn -0.2523 0.0283 -0.9672
vn -0.1863 -0.0259 -0.9822
vn 0.0801 -0.3660 -0.9272
vn 0.5267 -0.0008 -0.8500
vn 0.0832 0.0258 -0.9962
vn 0.2280 -0.1641 -0.9597
vn 0.3319 0.0242 -0.9430
vn -0.0371 -0.0135 -0.9992
vn 0.2485 -0.2169 -0.9440
vn -0.3836 -0.0380 -0.9227
vn -0.0058 0.3286 -0.9445
vn -0.0061 -0.0089 -0.9999
vn -0.0031 -0.0132 -0.9999
vn -0.9953 0.0014 0.0968
vn -0.0000 1.0000 0.0000
vn 0.0059 -0.0181 -0.9998
vn -0.2687 -0.6033 -0.7509
vn -0.1168 -0.1751 -0.9776
vn 0.1144 0.9794 -0.1662
vn 0.2933 -0.0390 -0.9552
vn 0.0968 -0.1520 -0.9836
vn -0.7750 -0.4894 -0.3998
vn 0.2024 0.9749 0.0927
vn 0.1896 0.6474 0.7382
vn 0.2503 0.8959 0.3670
vn 0.6118 -0.2220 -0.7592
vn -0.7401 -0.4654 0.4855
vn 0.9091 0.0486 0.4138
vn -0.0985 0.0254 0.9948
vn 0.3223 -0.6892 -0.6490
vn 0.2491 0.0195 0.9683
vn 0.7415 -0.2550 0.6206
vn -0.0583 -0.9507 0.3047
vn -0.6676 -0.0170 0.7443
vn -0.3991 -0.6331 0.6633
vn 0.5630 -0.0244 0.8261
vn 0.1518 -0.9596 0.2370
vn -0.4254 -0.6480 0.6317
vn -0.6207 -0.1907 0.7605
vn 0.1324 -0.0093 0.9912
vn 0.5024 -0.4869 0.7145
vn -0.6318 -0.0009 0.7751
vn -0.4214 -0.0029 0.9069
vn 0.5386 -0.0040 0.8426
vn 0.6456 -0.0253 0.7632
vn -0.2359 -0.6998 0.6743
vn 0.2085 -0.7000 0.6831
vn -0.3938 -0.2653 0.8801
vn -0.2477 -0.0298 0.9684
vn 0.4399 -0.1173 0.8904
vn 0.5036 -0.4764 0.7208
vn -0.2639 -0.0326 0.9640
vn -0.3724 -0.2525 0.8931
vn 0.1559 -0.1060 0.9821
vn -0.0215 -0.5165 0.8560
vn 0.0739 -0.1945 0.9781
vn 0.4168 -0.3405 0.8428
vn -0.0179 -0.4369 0.8993
vn 0.0834 -0.3083 0.9476
usemtl Default_OBJ.002
s off
f 1//1 2//1 3//1
f 1//2 3//2 4//2
f 1//3 5//3 2//3
f 1//4 4//4 6//4
f 7//5 1//5 8//5
f 1//6 7//6 9//6
f 4//7 10//7 11//7
f 4//8 11//8 12//8
f 1//9 13//9 8//9
f 1//10 6//10 13//10
f 9//11 5//11 1//11
f 5//12 9//12 14//12
f 5//13 14//13 2//13
f 2//14 15//14 3//14
f 15//15 16//15 3//15
f 3//16 16//16 10//16
f 3//17 10//17 4//17
f 14//18 9//18 17//18
f 14//19 17//19 18//19
f 14//20 19//20 2//20
f 14//21 18//21 19//21
f 2//22 19//22 15//22
f 12//23 6//23 4//23
f 13//24 20//24 8//24
f 17//25 21//25 18//25
f 18//26 21//26 22//26
f 18//27 23//27 19//27
f 19//28 23//28 15//28
f 15//29 23//29 16//29
f 10//30 24//30 11//30
f 8//31 20//31 7//31
f 9//32 7//32 17//32
f 21//33 25//33 26//33
f 21//33 26//33 24//33
f 21//34 24//34 22//34
f 22//35 23//35 18//35
f 16//36 27//36 10//36
f 10//37 27//37 22//37
f 11//38 26//38 12//38
f 6//39 12//39 25//39
f 6//40 25//40 21//40
f 6//41 21//41 13//41
f 20//42 17//42 7//42
f 21//43 17//43 20//43
f 16//44 23//44 27//44
f 10//45 22//45 24//45
f 22//46 27//46 23//46
f 12//47 26//47 25//47
f 13//48 21//48 20//48
f 24//49 26//49 11//49
f 28//50 29//50 30//50
f 28//50 30//50 31//50
f 28//50 31//50 32//50
f 28//51 32//51 33//51
f 33//52 34//52 28//52
f 28//53 34//53 35//53
f 28//54 35//54 36//54
f 36//55 29//55 28//55
f 33//56 32//56 37//56
f 36//57 30//57 29//57
f 35//58 34//58 38//58
f 33//59 37//59 34//59
f 35//60 38//60 36//60
f 36//61 39//61 30//61
f 30//62 40//62 31//62
f 30//63 39//63 41//63
f 30//64 41//64 40//64
f 42//65 37//65 32//65
f 36//66 43//66 39//66
f 31//67 40//67 44//67
f 34//68 45//68 38//68
f 40//69 41//69 46//69
f 42//70 45//70 37//70
f 37//71 45//71 34//71
f 36//72 38//72 43//72
f 40//73 47//73 44//73
f 39//74 48//74 41//74
f 44//75 49//75 31//75
f 31//76 49//76 32//76
f 32//77 49//77 42//77
f 40//78 46//78 47//78
f 44//79 50//79 49//79
f 44//80 47//80 50//80
f 42//81 49//81 51//81
f 39//82 43//82 48//82
f 38//83 45//83 52//83
f 53//84 50//84 41//84
f 38//85 52//85 43//85
f 53//86 41//86 48//86
f 47//87 46//87 50//87
f 50//88 54//88 49//88
f 42//89 51//89 45//89
f 51//90 52//90 45//90
f 43//91 52//91 48//91
f 41//92 50//92 46//92
f 49//93 54//93 51//93
f 48//94 52//94 53//94
f 54//95 50//95 53//95
f 51//96 54//96 52//96
f 52//97 54//97 53//97
f 55//98 56//98 57//98
f 56//99 58//99 59//99
f 57//100 56//100 59//100
f 57//101 59//101 60//101
f 56//102 55//102 58//102
f 58//103 61//103 62//103
f 59//104 63//104 60//104
f 60//105 64//105 65//105
f 60//106 65//106 57//106
f 58//107 62//107 59//107
f 59//108 66//108 63//108
f 63//109 67//109 60//109
f 55//110 57//110 65//110
f 62//111 68//111 59//111
f 62//112 69//112 70//112
f 62//113 70//113 68//113
f 63//114 66//114 67//114
f 55//115 65//115 71//115
f 59//116 68//116 66//116
f 69//117 62//117 72//117
f 67//118 73//118 60//118
f 69//119 74//119 70//119
f 66//120 75//120 67//120
f 60//121 76//121 64//121
f 55//122 77//122 58//122
f 64//123 71//123 65//123
f 70//124 74//124 68//124
f 60//125 73//125 76//125
f 64//126 78//126 71//126
f 71//127 77//127 55//127
f 69//128 72//128 74//128
f 73//129 67//129 79//129
f 58//130 77//130 61//130
f 62//131 61//131 77//131
f 68//132 74//132 75//132
f 68//133 75//133 66//133
f 64//134 76//134 78//134
f 73//135 79//135 76//135
f 71//136 78//136 77//136
f 62//137 80//137 72//137
f 81//138 75//138 74//138
f 67//139 75//139 79//139
f 62//140 77//140 80//140
f 77//141 78//141 80//141
f 72//142 81//142 74//142
f 76//143 79//143 78//143
f 72//144 80//144 81//144
f 79//145 75//145 81//145
f 78//146 79//146 80//146
f 80//147 79//147 81//147
