# Blender v3.0.1 OBJ File: ''
# www.blender.org
mtllib armr1.mtl
o right_j1
v 0.042922 -0.037490 0.103768
v 0.040303 0.001579 0.007531
v 0.043775 0.028938 0.101710
v 0.029280 0.026855 0.007294
v 0.002548 0.040056 0.016762
v 0.037037 0.030077 0.124516
v 0.030531 -0.025791 0.007511
v 0.030101 -0.010096 -0.003436
v -0.003691 0.030297 -0.003346
v -0.007703 -0.030793 -0.003284
v -0.030050 -0.011949 -0.003188
v -0.002797 -0.040441 0.007736
v 0.032876 -0.036367 0.130793
v -0.017084 0.030329 0.141240
v -0.005563 -0.037071 0.145775
v -0.037839 -0.040752 0.088401
v -0.019553 0.034571 0.007626
v -0.034980 0.020193 0.007310
v 0.013961 0.029155 0.142741
v -0.036868 0.030178 0.124037
v -0.028375 -0.027257 0.007415
v -0.040289 -0.001570 0.007531
v -0.043074 0.029760 0.097994
v -0.043420 -0.037490 0.099059
v 0.012631 -0.036640 0.143577
v -0.024266 -0.037564 0.138497
v -0.041955 -0.036367 0.113879
v -0.016137 0.031950 0.014768
v -0.017248 0.031950 0.014768
v -0.017248 -0.031080 0.014768
v -0.016134 -0.031080 0.014768
v -0.016134 0.031944 0.014768
v -0.016134 0.031950 0.013520
v -0.016134 0.031950 0.006683
v -0.017248 0.031950 0.006684
v -0.017248 0.028649 0.006282
v -0.017248 -0.028631 0.006282
v -0.017248 -0.031080 0.006679
v -0.016134 -0.031080 0.006663
v -0.016134 -0.029223 0.006282
v -0.016134 0.029266 0.006282
v -0.016976 0.028890 0.006282
v -0.017012 0.028871 0.006282
v -0.017041 0.028853 0.006282
v -0.017012 -0.028866 0.006282
v 0.011844 0.003598 0.131998
v 0.010673 0.003598 0.131998
v 0.010673 0.002485 0.131998
v 0.011844 0.002485 0.131998
v 0.011844 0.002485 0.110957
v 0.011844 0.003598 0.110957
v 0.010673 0.003598 0.110957
v 0.010673 0.002485 0.110957
vn 0.9994 -0.0138 -0.0328
vn 0.4171 0.9050 -0.0840
vn 0.9071 0.3942 -0.1479
vn 0.2256 0.9741 0.0180
vn 0.9297 -0.3318 -0.1600
vn 0.5693 0.2409 -0.7861
vn 0.2438 0.8406 -0.4837
vn 0.8361 -0.2982 -0.4604
vn -0.0041 0.0002 -1.0000
vn -0.0041 -0.0012 -1.0000
vn 0.3211 0.2707 -0.9075
vn 0.9590 -0.0035 0.2835
vn 0.3962 -0.9039 -0.1609
vn 0.9367 -0.0257 0.3493
vn 0.0302 0.9961 0.0826
vn 0.0280 -0.9993 0.0250
vn 0.0680 -0.9974 0.0257
vn -0.0127 -0.9992 0.0368
vn -0.0494 0.9045 -0.4237
vn 0.2933 -0.5415 -0.7879
vn -0.3803 0.2339 -0.8948
vn 0.0332 0.9952 0.0924
vn 0.2834 -0.6555 -0.7000
vn -0.0662 0.9955 0.0674
vn -0.4580 -0.5395 -0.7066
vn -0.6394 0.1483 -0.7544
vn 0.6185 0.0354 0.7850
vn -0.3914 -0.7717 -0.5013
vn -0.2370 0.9715 -0.0100
vn -0.1756 0.9841 0.0261
vn -0.4471 -0.8724 -0.1976
vn -0.8244 -0.3805 -0.4191
vn -0.9995 0.0046 -0.0324
vn -0.4161 0.4637 -0.7822
vn -0.6739 0.7261 -0.1368
vn -0.0460 0.0592 0.9972
vn 0.1197 0.0102 0.9928
vn 0.5339 -0.0000 0.8455
vn -0.8906 -0.4122 -0.1922
vn -0.9658 0.2345 -0.1109
vn -0.6558 0.0389 0.7539
vn -0.3627 0.0007 0.9319
vn -0.7437 -0.6399 -0.1935
vn -0.8124 -0.0268 0.5825
vn -0.3452 -0.9327 0.1047
vn -0.9952 0.0067 0.0979
vn -0.9722 0.0391 0.2311
vn 0.0262 -0.9995 0.0201
vn -0.2413 -0.9622 0.1266
vn 0.0018 -0.9980 0.0630
vn 0.0000 -0.0000 1.0000
vn 0.9264 0.3765 0.0019
vn 0.0000 1.0000 0.0000
vn -1.0000 -0.0000 0.0000
vn 1.0000 -0.0000 0.0000
vn -0.0007 0.1479 -0.9890
vn -0.0560 0.1252 -0.9906
vn -0.0631 0.1245 -0.9902
vn -0.0791 0.1231 -0.9892
vn -0.1181 0.1201 -0.9857
vn 0.0000 -1.0000 0.0000
vn 0.0000 0.0000 -1.0000
vn 0.0001 0.0000 -1.0000
vn -0.0690 -0.1693 -0.9832
vn -0.0146 -0.2011 -0.9795
vn -0.1575 -0.1583 -0.9747
usemtl Default_OBJ.001
s off
f 1//1 2//1 3//1
f 3//2 4//2 5//2
f 3//3 2//3 4//3
f 3//4 5//4 6//4
f 1//5 7//5 2//5
f 2//6 8//6 4//6
f 5//7 4//7 9//7
f 7//8 8//8 2//8
f 8//9 10//9 11//9
f 8//10 11//10 9//10
f 8//11 9//11 4//11
f 6//12 1//12 3//12
f 12//13 7//13 1//13
f 6//14 13//14 1//14
f 5//15 14//15 6//15
f 12//16 13//16 15//16
f 12//17 15//17 16//17
f 12//18 1//18 13//18
f 9//19 17//19 5//19
f 7//20 10//20 8//20
f 11//21 18//21 9//21
f 14//22 19//22 6//22
f 12//23 10//23 7//23
f 5//24 20//24 14//24
f 10//25 21//25 11//25
f 18//26 11//26 22//26
f 6//27 19//27 13//27
f 10//28 12//28 21//28
f 23//29 5//29 17//29
f 5//30 23//30 20//30
f 16//31 21//31 12//31
f 11//32 21//32 22//32
f 22//33 24//33 23//33
f 9//34 18//34 17//34
f 23//35 17//35 18//35
f 19//36 14//36 15//36
f 19//37 15//37 25//37
f 19//38 25//38 13//38
f 22//39 21//39 24//39
f 22//40 23//40 18//40
f 20//41 26//41 14//41
f 26//42 15//42 14//42
f 16//43 24//43 21//43
f 20//44 27//44 26//44
f 16//45 27//45 24//45
f 23//46 24//46 27//46
f 23//47 27//47 20//47
f 13//48 25//48 15//48
f 16//49 26//49 27//49
f 16//50 15//50 26//50
f 28//51 29//51 30//51
f 28//51 30//51 31//51
f 28//51 31//51 32//51
f 28//52 32//52 33//52
f 28//53 33//53 34//53
f 28//53 34//53 35//53
f 28//53 35//53 29//53
f 29//54 35//54 36//54
f 29//54 36//54 37//54
f 29//54 37//54 38//54
f 29//54 38//54 30//54
f 32//55 31//55 39//55
f 32//55 39//55 40//55
f 32//55 40//55 41//55
f 32//55 41//55 34//55
f 32//55 34//55 33//55
f 35//56 34//56 41//56
f 35//57 41//57 42//57
f 35//58 42//58 43//58
f 35//59 43//59 44//59
f 35//60 44//60 36//60
f 30//61 38//61 39//61
f 30//61 39//61 31//61
f 41//62 40//62 45//62
f 41//62 45//62 37//62
f 41//62 37//62 36//62
f 41//62 36//62 44//62
f 41//63 44//63 43//63
f 41//62 43//62 42//62
f 38//64 45//64 40//64
f 38//65 40//65 39//65
f 38//66 37//66 45//66
f 46//51 47//51 48//51
f 46//51 48//51 49//51
f 46//55 49//55 50//55
f 46//55 50//55 51//55
f 46//53 51//53 52//53
f 46//53 52//53 47//53
f 47//54 52//54 53//54
f 47//54 53//54 48//54
f 49//61 48//61 53//61
f 49//61 53//61 50//61
f 51//62 50//62 53//62
f 51//62 53//62 52//62
