# Blender v3.0.1 OBJ File: ''
# www.blender.org
mtllib armr4.mtl
o right_j4_right_j4.001
v 0.043797 0.002102 -0.039184
v 0.043384 -0.004507 -0.035452
v 0.043419 -0.006325 -0.042179
v 0.043419 0.002234 -0.043771
v 0.034784 0.123266 -0.034592
v 0.041743 -0.004148 -0.035146
v 0.041829 -0.011678 -0.035344
v 0.040953 -0.013966 -0.043808
v 0.031961 -0.006862 -0.050554
v 0.028434 0.122473 -0.048845
v 0.030239 0.124208 -0.045744
v 0.032640 0.124101 -0.040647
v -0.018959 0.117524 -0.031428
v 0.038072 -0.020658 -0.035346
v 0.032550 0.124902 -0.034592
v -0.022533 0.124919 -0.031428
v -0.036091 0.123151 -0.031428
v -0.036074 0.114906 -0.031428
v 0.028787 -0.028362 -0.035101
v 0.032163 0.006266 -0.050662
v 0.024607 0.121044 -0.050294
v 0.016474 0.123944 -0.050405
v 0.010954 0.120048 -0.052367
v 0.006047 0.122200 -0.052330
v 0.011048 0.124805 -0.048561
v -0.029628 0.124857 -0.042512
v -0.000001 -0.042114 -0.035102
v 0.013502 -0.041354 -0.035368
v 0.028443 -0.033026 -0.035376
v 0.035067 -0.026318 -0.042242
v 0.037632 -0.021427 -0.043816
v 0.028666 -0.015206 -0.050564
v 0.015456 0.028391 -0.052418
v 0.019392 0.119796 -0.051330
v 0.028357 -0.032943 -0.043758
v -0.010347 0.124125 -0.050651
v -0.006861 -0.042973 -0.035397
v 0.005820 -0.043018 -0.035411
v 0.021174 -0.024847 -0.050525
v -0.002496 0.119796 -0.052835
v -0.043445 -0.000354 -0.035392
v -0.040902 -0.010373 -0.035110
v -0.026700 -0.032101 -0.035117
v 0.020139 -0.038859 -0.042386
v 0.000811 0.033000 -0.052964
v 0.007453 -0.031688 -0.050622
v -0.028435 0.122457 -0.048845
v -0.030231 0.124208 -0.045744
v -0.032645 0.124101 -0.040644
v -0.040665 -0.015646 -0.036585
v -0.033410 -0.027986 -0.035401
v -0.026017 -0.034720 -0.035356
v 0.023503 -0.036364 -0.043830
v -0.013597 0.120309 -0.052142
v -0.043411 0.002152 -0.043764
v -0.043772 0.002912 -0.039598
v -0.015949 -0.040490 -0.035734
v 0.006585 -0.042956 -0.043739
v 0.001516 -0.032960 -0.050447
v -0.007437 -0.031688 -0.050622
v -0.024608 0.121044 -0.050298
v -0.043113 -0.007940 -0.040890
v -0.021729 -0.037966 -0.039745
v 0.000811 -0.043882 -0.041275
v -0.006586 -0.042956 -0.043737
v 0.013356 -0.041304 -0.043771
v -0.043411 -0.002062 -0.043754
v -0.040120 -0.016420 -0.043804
v -0.035086 -0.026318 -0.042240
v -0.021205 -0.024863 -0.050529
v -0.015857 0.029663 -0.052426
v -0.032156 0.006266 -0.050662
v -0.032113 -0.005399 -0.050624
v -0.025939 -0.034645 -0.043784
v -0.013339 -0.041304 -0.043771
v -0.027035 -0.018419 -0.050563
v -0.033350 -0.027887 -0.043688
v 0.040813 0.050962 -0.013387
v 0.040419 0.123152 -0.006647
v 0.040151 0.048747 -0.004946
v 0.040407 0.123152 -0.017383
v 0.039759 0.124537 -0.008771
v 0.039048 0.050959 -0.000031
v 0.037275 0.048691 0.004114
v 0.040135 0.048772 -0.019135
v 0.037656 0.045466 -0.010997
v 0.038560 0.123689 0.001125
v 0.038486 0.124105 -0.025604
v 0.032547 0.124910 -0.034582
v 0.033443 0.124064 0.011416
v 0.035993 0.118979 0.007310
v -0.034035 0.124877 -0.031421
v -0.035055 0.124919 0.002996
v -0.017529 0.124894 0.022396
v 0.030671 0.124893 0.011534
v 0.036469 0.050754 0.006275
v 0.031890 0.048689 0.013201
v 0.029698 0.043902 0.007896
v 0.033370 0.043033 -0.002360
v 0.030088 0.041686 -0.024138
v 0.033087 0.048850 -0.034575
v 0.038454 0.048772 -0.025557
v 0.025847 0.041115 -0.034582
v 0.034662 0.122685 -0.034582
v 0.032235 0.114978 -0.039794
v -0.032258 0.115882 -0.039800
v 0.030073 0.051384 0.015699
v 0.031778 0.107289 -0.039794
v -0.031857 0.108168 -0.039800
v 0.027552 0.041197 0.000495
v -0.026262 0.040992 -0.034569
v 0.023378 0.123415 0.021373
v 0.029745 0.123152 0.016022
v 0.021705 0.041234 0.009667
v -0.028367 0.041283 0.000893
v -0.033070 0.048829 -0.034569
v -0.036224 0.050072 -0.030574
v -0.038501 0.123637 -0.025668
v 0.023462 0.048804 0.021402
v -0.020251 0.042093 0.014845
v -0.034860 0.043701 -0.019487
v -0.038453 0.048772 -0.025551
v 0.006680 0.124742 0.026696
v 0.020252 0.042101 0.014852
v -0.040406 0.123160 -0.017380
v -0.040282 0.124241 -0.016852
v 0.014861 0.123416 0.025819
v -0.036095 0.044338 -0.007600
v -0.040398 0.123393 -0.006503
v -0.006055 0.123637 0.028330
v 0.002916 0.123160 0.028645
v 0.016826 0.043793 0.019768
v -0.029138 0.043890 0.009168
v -0.040142 0.048763 -0.019115
v -0.040886 0.051376 -0.011200
v -0.033442 0.124064 0.011416
v 0.016378 0.050542 0.025400
v 0.008285 0.049708 0.028019
v -0.004367 0.046254 0.025872
v -0.013575 0.048747 0.026439
v -0.037262 0.048685 0.004099
v -0.023134 0.123401 0.021562
v -0.017289 0.123160 0.025007
v -0.008380 0.049858 0.027922
v -0.040274 0.048556 -0.007854
v -0.000208 0.050962 0.028881
v -0.026269 0.048671 0.018821
v -0.038517 0.123160 0.001665
v -0.039641 0.050955 -0.002265
v -0.029744 0.123160 0.016029
v -0.037432 0.083366 0.004345
v -0.021403 0.051376 0.022848
v -0.033442 0.048796 0.011409
v -0.027662 0.050744 0.017966
v 0.009086 0.075180 0.018857
v 0.009086 0.076868 0.018857
v 0.009086 0.079567 0.018857
v 0.007283 0.079567 0.018857
v 0.007283 0.076868 0.018857
v 0.007283 0.075180 0.018857
v 0.007283 0.075180 -0.020553
v 0.009086 0.075180 -0.020553
v 0.009086 0.079570 -0.024539
v 0.009086 0.083270 -0.025552
v 0.009086 0.105910 -0.025552
v 0.009086 0.105913 -0.021209
v 0.009086 0.105913 0.018848
v 0.007283 0.105913 0.018848
v 0.007283 0.105913 -0.021209
v 0.007283 0.105910 -0.025552
v 0.007283 0.083270 -0.025552
v 0.007283 0.079570 -0.024539
vn 0.9985 -0.0516 0.0188
vn 0.9965 -0.0154 -0.0826
vn 0.9938 0.0769 -0.0797
vn 0.1845 0.0058 0.9828
vn 0.1782 -0.0238 0.9837
vn 0.9732 0.0640 0.2211
vn 0.7724 -0.1161 -0.6244
vn 0.5555 -0.0827 -0.8274
vn 0.8407 0.0822 -0.5353
vn 0.9017 0.0906 -0.4228
vn 0.9426 0.0916 -0.3211
vn 0.0589 -0.0011 0.9983
vn 0.0609 -0.0256 0.9978
vn 0.9756 -0.2106 0.0620
vn 0.9526 -0.3039 -0.0164
vn 0.5880 0.8030 -0.0975
vn 0.0572 0.0781 0.9953
vn 0.0559 0.0270 0.9981
vn 0.0000 0.0000 1.0000
vn 0.0313 -0.0149 0.9994
vn 0.0446 -0.0220 0.9988
vn 0.5298 0.0303 -0.8476
vn 0.3456 0.0258 -0.9380
vn 0.1692 0.4408 -0.8815
vn 0.1725 0.8134 -0.5555
vn 0.2986 0.9467 -0.1208
vn 0.9225 -0.3859 0.0089
vn 0.5182 -0.0150 -0.8552
vn 0.1224 0.2972 -0.9469
vn 0.1223 0.2952 -0.9476
vn 0.1226 0.3067 -0.9439
vn 0.0672 0.9651 -0.2530
vn 0.0414 0.9966 -0.0706
vn 0.0001 1.0000 -0.0060
vn 0.0002 1.0000 -0.0073
vn 0.0002 1.0000 -0.0069
vn -0.0000 1.0000 -0.0056
vn 0.0104 -0.0218 0.9997
vn 0.0223 -0.0468 0.9987
vn 0.0798 -0.0645 0.9947
vn 0.9003 -0.4337 -0.0364
vn 0.8913 -0.3970 0.2190
vn 0.4871 -0.2159 -0.8462
vn 0.0625 -0.0235 -0.9978
vn 0.0919 -0.0096 -0.9957
vn 0.1227 0.3079 -0.9435
vn 0.1253 0.2691 -0.9549
vn 0.1912 0.0157 -0.9814
vn 0.0035 -0.0226 0.9997
vn -0.0066 -0.0249 0.9997
vn -0.0001 -0.0234 0.9997
vn 0.0347 -0.0614 0.9975
vn 0.7789 -0.6068 0.1586
vn 0.6398 -0.5182 -0.5675
vn 0.4877 -0.1916 -0.8518
vn 0.1198 0.0075 -0.9928
vn 0.1125 0.0061 -0.9936
vn 0.1150 0.0066 -0.9933
vn 0.1222 0.0079 -0.9925
vn 0.0098 0.9168 -0.3991
vn -0.1289 0.9887 0.0770
vn -0.0001 -0.3240 0.9460
vn 0.0282 -0.1558 0.9874
vn 0.0356 -0.0317 -0.9989
vn 0.0325 -0.0316 -0.9990
vn 0.0333 -0.0319 -0.9989
vn 0.0329 0.0921 -0.9952
vn -0.4620 -0.0010 0.8869
vn -0.1931 -0.0214 0.9810
vn -0.0419 -0.0277 0.9987
vn -0.0102 -0.0257 0.9996
vn 0.4815 -0.8638 0.1483
vn 0.7041 -0.7099 -0.0143
vn 0.4084 -0.3332 -0.8498
vn 0.0246 -0.0334 -0.9991
vn 0.0239 -0.0337 -0.9991
vn 0.0347 0.0023 -0.9994
vn 0.0356 0.0024 -0.9994
vn 0.0373 0.0028 -0.9993
vn -0.0185 0.9909 -0.1330
vn 0.0112 0.7100 -0.7041
vn -0.1220 0.9203 -0.3717
vn 0.4152 0.8738 -0.2529
vn -0.3159 0.9399 -0.1298
vn -0.2361 0.9716 0.0119
vn -0.8123 -0.1907 0.5511
vn -0.5512 -0.2476 0.7967
vn -0.0707 -0.0465 0.9964
vn -0.0383 -0.1007 0.9942
vn 0.0382 0.0029 -0.9993
vn 0.4218 -0.3312 -0.8440
vn 0.2321 -0.4533 -0.8606
vn -0.0471 0.3981 -0.9161
vn -0.8416 0.0822 -0.5338
vn -0.9009 0.0904 -0.4245
vn -0.9913 0.0552 0.1196
vn -0.0555 -0.1614 0.9853
vn -0.0411 -0.0148 0.9990
vn 0.2945 -0.9538 -0.0604
vn 0.5826 -0.8126 -0.0140
vn 0.5753 -0.8151 -0.0682
vn -0.0000 -0.1363 -0.9907
vn -0.0000 -0.0362 -0.9993
vn -0.1320 0.5140 -0.8476
vn -0.9358 0.0913 -0.3405
vn -0.9926 0.0701 -0.0988
vn -0.9976 -0.0639 0.0279
vn -0.9602 -0.1904 0.2044
vn -0.1154 -0.1201 0.9860
vn -0.4863 -0.8590 0.1602
vn -0.0033 -0.9889 0.1486
vn -0.1222 -0.9925 -0.0061
vn 0.1615 -0.9869 0.0075
vn 0.2116 -0.9773 0.0122
vn 0.3826 -0.7916 -0.4764
vn 0.3147 -0.4287 -0.8469
vn -0.0425 0.3479 -0.9366
vn -0.1186 0.4474 -0.8865
vn -0.9963 -0.0002 -0.0863
vn -0.8900 -0.4556 -0.0183
vn -0.8623 -0.4984 0.0898
vn -0.0001 -0.9360 -0.3519
vn 0.2106 -0.8538 0.4760
vn 0.2241 -0.4705 -0.8535
vn 0.0873 -0.5242 -0.8471
vn -0.0232 -0.0332 -0.9992
vn -0.0280 -0.0318 -0.9991
vn -0.0238 -0.0330 -0.9992
vn -0.0323 0.0003 -0.9995
vn -0.3465 0.0258 -0.9377
vn -0.5303 0.0302 -0.8473
vn -0.5210 -0.0046 -0.8535
vn -0.5203 -0.0027 -0.8540
vn -0.5200 -0.0020 -0.8542
vn -0.9981 -0.0586 -0.0165
vn -0.9463 -0.3213 -0.0370
vn -0.6733 -0.7393 -0.0130
vn -0.6740 -0.7386 -0.0093
vn -0.6733 -0.7393 -0.0128
vn -0.6117 -0.7910 -0.0127
vn -0.2632 -0.9647 -0.0106
vn -0.2357 -0.4638 -0.8540
vn -0.2452 -0.4668 -0.8497
vn -0.2358 -0.4643 -0.8537
vn -0.0294 -0.0319 -0.9991
vn -0.0285 -0.0320 -0.9991
vn -0.0621 0.0047 -0.9981
vn -0.0546 -0.0260 -0.9982
vn -0.1642 0.0139 -0.9863
vn -0.5213 -0.0047 -0.8534
vn -0.9189 -0.2095 -0.3343
vn -0.7761 -0.4625 -0.4286
vn -0.6741 -0.7386 -0.0084
vn -0.3360 -0.9360 -0.1047
vn 0.1239 -0.5242 -0.8425
vn -0.0578 -0.5237 -0.8499
vn -0.1025 -0.0036 -0.9947
vn -0.1161 0.0060 -0.9932
vn -0.6739 -0.7388 -0.0068
vn -0.2286 -0.9283 0.2933
vn -0.0001 -0.5573 -0.8303
vn -0.2458 -0.4668 -0.8495
vn -0.5416 -0.1212 -0.8318
vn -0.4541 -0.8598 -0.2336
vn -0.1240 -0.5242 -0.8425
vn -0.3732 -0.3974 -0.8383
vn -0.4739 -0.2882 -0.8321
vn -0.3894 -0.3568 -0.8491
vn -0.4733 -0.1886 -0.8605
vn 0.9970 -0.0018 0.0777
vn 1.0000 0.0056 -0.0011
vn 0.9032 0.4292 -0.0010
vn 0.9360 -0.1908 0.2959
vn 0.9564 -0.2919 -0.0016
vn 0.7977 -0.6030 -0.0020
vn 0.9932 -0.0009 -0.1168
vn 0.7863 0.6003 0.1465
vn 0.6657 0.7430 -0.0694
vn 0.1930 0.9804 -0.0398
vn 0.8930 0.0920 0.4407
vn 0.9759 0.0015 0.2183
vn 0.9726 0.0028 0.2324
vn 0.0000 1.0000 -0.0000
vn -0.0006 1.0000 -0.0012
vn -0.0006 1.0000 -0.0010
vn 0.0004 1.0000 0.0007
vn 0.0001 1.0000 0.0004
vn 0.0440 0.9990 0.0022
vn 0.2994 0.9469 0.1174
vn 0.2971 0.9478 0.1156
vn 0.2918 0.9500 0.1113
vn 0.2891 0.9511 0.1091
vn 0.9254 -0.0337 0.3774
vn 0.9240 0.0005 0.3823
vn 0.9250 0.0003 0.3799
vn 0.9234 0.0006 0.3837
vn 0.6210 -0.6921 0.3679
vn 0.8439 -0.1941 0.5001
vn 0.6090 -0.7417 0.2809
vn 0.5907 -0.7860 0.1826
vn 0.7148 -0.6800 0.1632
vn 0.6137 -0.7788 -0.1294
vn 0.6683 -0.6252 -0.4031
vn 0.6688 0.6357 -0.3854
vn 0.9738 -0.0006 -0.2276
vn 0.9256 0.0002 0.3785
vn 0.4689 -0.8831 -0.0161
vn 0.6117 -0.7636 -0.2067
vn 0.8588 -0.0293 -0.5114
vn 0.9089 -0.0043 -0.4169
vn 0.9201 -0.0006 -0.3918
vn 0.9674 0.0024 -0.2532
vn 0.6215 -0.7663 -0.1627
vn 0.0066 0.4645 -0.8855
vn 0.4301 0.4089 -0.8049
vn 0.8347 -0.0042 0.5506
vn 0.8073 -0.0027 0.5901
vn 0.0934 -0.0865 -0.9919
vn 0.0001 -0.0000 -1.0000
vn -0.0352 0.6775 -0.7347
vn 0.8483 -0.0021 0.5295
vn 0.3883 -0.8961 0.2149
vn 0.3066 -0.9518 0.0127
vn 0.0024 -1.0000 0.0022
vn 0.0022 -1.0000 0.0025
vn 0.0019 -1.0000 0.0033
vn -0.0001 -0.0785 -0.9969
vn -0.0005 -0.0781 -0.9969
vn -0.0006 -0.0781 -0.9969
vn -0.0010 -0.0777 -0.9970
vn 0.7369 -0.0437 -0.6746
vn 0.2825 0.8955 0.3439
vn 0.4617 0.7230 0.5139
vn 0.7797 0.0007 0.6261
vn 0.1449 -0.9894 -0.0047
vn -0.0018 -1.0000 0.0075
vn -0.0024 -1.0000 0.0081
vn -0.0983 -0.0854 -0.9915
vn -0.7803 -0.0405 -0.6241
vn -0.9150 -0.0014 -0.4034
vn -0.9147 -0.0013 -0.4041
vn -0.9142 -0.0013 -0.4052
vn 0.6830 -0.1926 0.7046
vn -0.0124 -0.9978 0.0651
vn -0.6398 -0.7323 -0.2332
vn -0.6930 -0.5611 -0.4527
vn -0.7029 -0.6106 -0.3649
vn -0.7900 -0.0378 -0.6119
vn -0.7769 0.3401 -0.5298
vn 0.0035 0.9999 0.0155
vn 0.6533 -0.0004 0.7571
vn 0.6506 -0.0000 0.7595
vn 0.6461 0.0006 0.7633
vn 0.4789 -0.7201 0.5022
vn 0.4849 -0.7395 0.4670
vn 0.3446 -0.9095 0.2325
vn 0.4013 -0.8785 0.2593
vn -0.3182 -0.9480 -0.0111
vn -0.9139 -0.0012 -0.4059
vn -0.9552 0.2112 -0.2074
vn -0.4384 0.8863 -0.1493
vn -0.1117 0.9937 -0.0045
vn 0.1839 0.9360 0.3003
vn 0.1235 0.9638 0.2363
vn 0.6434 0.0010 0.7655
vn 0.0002 -0.9863 0.1650
vn -0.3775 -0.9260 0.0104
vn -0.9746 -0.0010 -0.2241
vn -0.9934 0.1148 -0.0017
vn 0.0175 0.7594 0.6503
vn 0.1781 0.5670 0.8042
vn 0.0001 -0.9455 0.3255
vn -0.3443 -0.9042 0.2528
vn -0.9957 -0.0014 -0.0931
vn -0.9672 0.0025 -0.2538
vn -0.3885 0.9187 0.0709
vn -1.0000 0.0067 0.0006
vn -0.1383 0.9823 0.1262
vn -0.0456 0.9557 0.2907
vn 0.3089 -0.5407 0.7824
vn 0.4917 0.0009 0.8708
vn -0.0049 -0.9332 0.3592
vn -0.1827 -0.8036 0.5664
vn -0.5854 -0.7873 0.1935
vn -0.5701 -0.7871 0.2356
vn -0.6871 -0.7036 -0.1813
vn -0.2895 0.8900 0.3523
vn -0.1984 0.8080 0.5548
vn 0.4628 0.0045 0.8865
vn 0.4174 -0.7294 0.5419
vn 0.0976 -0.7582 0.6446
vn -0.1070 -0.5789 0.8084
vn -0.7088 -0.7045 -0.0359
vn -0.9731 -0.2297 -0.0156
vn -0.5667 0.8017 0.1900
vn -0.2905 0.7846 0.5478
vn 0.1008 -0.0011 0.9949
vn 0.2300 0.0085 0.9731
vn 0.2838 -0.6156 0.7352
vn -0.3632 -0.7023 0.6122
vn -0.6925 -0.7211 -0.0214
vn -0.3827 0.9168 0.1142
vn -0.9904 -0.0023 0.1379
vn -0.4490 0.7375 0.5044
vn -0.2838 0.0036 0.9589
vn -0.2777 0.0044 0.9606
vn -0.2816 0.0039 0.9595
vn -0.0348 0.0048 0.9994
vn 0.3078 0.0009 0.9514
vn -0.0096 -0.5024 0.8646
vn -0.4669 -0.7294 0.5000
vn -0.7037 -0.6861 0.1847
vn -0.8873 0.0069 0.4612
vn -0.5077 0.0032 0.8616
vn -0.0101 -0.6120 0.7908
vn -0.4834 -0.3346 0.8089
vn -0.5264 -0.6892 0.4978
vn -0.6257 -0.7032 0.3377
vn -0.9224 -0.3058 0.2357
vn -0.9375 -0.0071 0.3479
vn -0.9893 -0.0542 0.1353
vn -0.8708 -0.0000 0.4916
vn -0.7496 -0.0038 0.6619
vn -0.6419 0.0021 0.7668
vn -0.6150 -0.0007 0.7885
vn -0.4179 -0.0034 0.9085
vn -0.2754 0.0048 0.9613
vn -0.1163 -0.0018 0.9932
vn -0.6077 -0.0826 0.7898
vn -0.8862 -0.0076 0.4632
vn -0.9745 0.0030 0.2245
vn -0.7802 -0.0001 0.6255
vn -0.7066 -0.1941 0.6805
vn -0.9433 -0.0034 0.3318
vn 0.0061 0.0000 1.0000
vn -0.9999 -0.0000 0.0123
vn 0.0061 0.0001 1.0000
vn -0.0000 0.0002 1.0000
vn 0.0000 -1.0000 0.0000
vn 1.0000 0.0000 -0.0000
vn 0.9171 0.0001 0.3986
vn -1.0000 -0.0000 0.0000
vn 0.0000 -0.6722 -0.7404
vn 0.0000 0.0003 1.0000
vn 0.0000 1.0000 -0.0003
vn -0.9171 0.0001 0.3986
vn 0.0000 -0.2641 -0.9645
vn 0.0000 1.0000 -0.0007
vn 0.0000 -0.0000 -1.0000
usemtl Default_OBJ.006
s 1
f 1//1 2//1 3//1
f 3//2 4//2 1//2
f 4//3 5//3 1//3
f 2//4 5//4 6//4
f 2//5 6//5 7//5
f 1//6 5//6 2//6
f 4//7 3//7 8//7
f 4//8 8//8 9//8
f 4//9 10//9 11//9
f 4//10 11//10 12//10
f 4//11 12//11 5//11
f 5//12 13//12 6//12
f 7//13 6//13 14//13
f 7//14 3//14 2//14
f 3//15 7//15 8//15
f 5//16 12//16 15//16
f 5//17 15//17 16//17
f 5//18 16//18 13//18
f 13//19 16//19 17//19
f 13//19 17//19 18//19
f 13//20 19//20 6//20
f 6//21 19//21 14//21
f 4//22 20//22 10//22
f 10//23 20//23 21//23
f 10//24 21//24 22//24
f 10//25 22//25 11//25
f 11//26 15//26 12//26
f 8//27 7//27 14//27
f 4//28 9//28 20//28
f 21//29 23//30 24//31
f 11//32 22//32 25//32
f 15//33 11//33 25//33
f 15//34 25//35 26//36
f 15//34 26//36 16//37
f 13//38 27//38 19//38
f 19//39 27//39 28//39
f 14//40 19//40 29//40
f 14//41 30//41 8//41
f 8//42 30//42 31//42
f 32//43 8//43 31//43
f 9//44 32//44 33//44
f 9//45 33//45 20//45
f 24//31 22//46 21//29
f 21//47 34//47 23//47
f 34//48 21//48 20//48
f 13//49 18//50 27//51
f 28//52 29//52 19//52
f 14//53 29//53 30//53
f 31//54 30//54 35//54
f 9//55 8//55 32//55
f 20//56 33//57 23//58
f 20//56 23//58 34//59
f 25//60 22//60 36//60
f 16//61 26//61 17//61
f 27//62 37//62 38//62
f 38//63 28//63 27//63
f 32//64 39//65 33//66
f 24//67 23//67 40//67
f 18//68 17//68 41//68
f 18//69 41//69 42//69
f 18//70 42//70 43//70
f 18//50 43//71 27//51
f 28//72 44//72 29//72
f 29//73 35//73 30//73
f 31//74 35//74 32//74
f 33//66 39//65 45//75
f 39//65 46//76 45//75
f 23//77 33//78 40//79
f 25//80 36//80 26//80
f 22//81 24//81 36//81
f 26//82 36//82 47//82
f 26//83 47//83 48//83
f 26//84 48//84 49//84
f 26//85 49//85 17//85
f 41//86 50//86 42//86
f 42//87 50//87 51//87
f 42//88 51//88 43//88
f 43//89 52//89 27//89
f 45//90 40//79 33//78
f 39//91 32//91 35//91
f 39//92 53//92 46//92
f 36//93 24//93 54//93
f 48//94 47//94 55//94
f 48//95 55//95 49//95
f 17//96 56//96 41//96
f 52//97 57//97 27//97
f 27//98 57//98 37//98
f 44//99 28//99 58//99
f 44//100 35//100 29//100
f 35//101 44//101 53//101
f 46//102 59//102 60//102
f 46//103 60//103 45//103
f 47//104 36//104 61//104
f 17//105 49//105 55//105
f 17//106 55//106 56//106
f 41//107 56//107 62//107
f 41//108 62//108 50//108
f 51//109 52//109 43//109
f 57//110 52//110 63//110
f 37//111 64//111 38//111
f 37//112 65//112 64//112
f 38//113 64//113 58//113
f 38//114 58//114 28//114
f 53//115 44//115 66//115
f 53//116 39//116 35//116
f 24//117 40//117 54//117
f 61//118 36//118 54//118
f 67//119 56//119 55//119
f 50//120 68//120 69//120
f 50//121 69//121 51//121
f 64//122 65//122 58//122
f 44//123 58//123 66//123
f 53//124 66//124 46//124
f 46//125 58//125 59//125
f 60//126 70//127 45//128
f 40//129 45//129 71//129
f 61//130 72//130 47//130
f 47//131 72//131 55//131
f 55//132 73//133 67//134
f 56//135 67//135 62//135
f 50//136 62//136 68//136
f 51//137 74//138 52//139
f 52//140 74//140 63//140
f 57//141 65//141 37//141
f 60//142 75//143 70//144
f 70//127 76//145 71//146
f 70//127 71//146 45//128
f 71//147 54//147 40//147
f 71//148 76//148 73//148
f 54//149 72//149 61//149
f 55//132 72//150 73//133
f 62//151 67//151 68//151
f 68//152 77//152 69//152
f 51//137 69//153 74//138
f 57//154 63//154 65//154
f 66//155 58//155 46//155
f 59//156 65//156 60//156
f 73//157 72//157 71//157
f 54//158 71//158 72//158
f 69//153 77//159 74//138
f 63//160 75//160 65//160
f 65//161 59//161 58//161
f 75//143 74//162 70//144
f 67//163 73//163 68//163
f 63//164 74//164 75//164
f 65//165 75//165 60//165
f 70//166 74//166 77//166
f 68//167 76//167 77//167
f 70//168 77//168 76//168
f 68//169 73//169 76//169
f 78//170 79//170 80//170
f 78//171 81//171 79//171
f 81//172 82//172 79//172
f 80//173 83//173 84//173
f 80//174 85//174 78//174
f 80//175 86//175 85//175
f 78//176 85//176 81//176
f 82//177 87//177 79//177
f 81//178 88//178 82//178
f 82//179 88//179 89//179
f 87//180 90//180 91//180
f 80//181 79//181 83//181
f 83//182 79//182 87//182
f 89//183 92//184 93//185
f 89//183 93//185 94//186
f 89//183 94//186 95//187
f 89//188 95//188 82//188
f 82//189 95//190 87//191
f 87//191 95//190 90//192
f 84//193 83//193 96//193
f 96//194 87//195 91//196
f 84//197 97//197 98//197
f 84//198 96//198 97//198
f 84//199 98//199 99//199
f 80//200 84//200 86//200
f 86//201 84//201 99//201
f 86//202 100//202 85//202
f 101//203 102//203 103//203
f 88//204 104//204 89//204
f 81//205 102//205 88//205
f 96//194 83//206 87//195
f 99//207 100//207 86//207
f 103//208 102//208 100//208
f 102//209 101//209 105//209
f 102//210 105//210 104//210
f 102//211 104//211 88//211
f 102//212 81//212 85//212
f 85//213 100//213 102//213
f 105//214 106//214 89//214
f 105//215 89//215 104//215
f 96//216 90//216 97//216
f 97//217 90//217 107//217
f 103//218 108//218 101//218
f 108//219 109//219 106//219
f 106//219 105//219 108//219
f 89//220 106//220 92//220
f 90//221 96//221 91//221
f 99//222 98//222 110//222
f 99//223 110//223 100//223
f 103//224 110//225 111//226
f 103//227 111//228 108//229
f 108//229 111//228 109//230
f 108//231 105//231 101//231
f 95//232 112//232 90//232
f 90//233 112//233 113//233
f 113//234 107//234 90//234
f 100//235 110//235 103//235
f 110//225 114//236 111//226
f 111//226 114//236 115//237
f 109//238 111//238 116//238
f 106//239 109//239 117//239
f 106//240 117//241 118//242
f 97//243 107//243 119//243
f 115//244 114//244 120//244
f 111//245 121//245 122//245
f 111//246 122//246 117//246
f 111//247 117//247 116//247
f 109//248 116//248 117//248
f 106//249 118//249 92//249
f 95//250 94//250 123//250
f 107//251 113//252 119//253
f 97//254 119//254 124//254
f 97//255 124//255 98//255
f 110//256 98//256 124//256
f 110//257 124//257 114//257
f 111//258 115//258 121//258
f 118//242 117//241 122//259
f 118//260 125//260 126//260
f 118//261 126//261 92//261
f 92//262 126//262 93//262
f 95//263 123//263 127//263
f 127//264 112//264 95//264
f 112//265 119//253 113//252
f 114//266 124//266 120//266
f 115//267 128//267 121//267
f 118//268 122//268 125//268
f 126//269 125//269 129//269
f 123//270 130//270 131//270
f 123//271 131//271 127//271
f 124//272 132//272 120//272
f 120//273 133//273 115//273
f 125//274 134//274 135//274
f 122//275 134//275 125//275
f 93//276 126//276 129//276
f 125//277 135//277 129//277
f 94//278 93//278 136//278
f 94//279 130//279 123//279
f 119//280 137//280 138//280
f 119//281 112//281 137//281
f 120//282 132//282 139//282
f 120//283 139//283 140//283
f 133//284 141//284 115//284
f 115//285 141//285 128//285
f 121//286 134//286 122//286
f 94//287 136//287 142//287
f 94//288 143//288 130//288
f 112//289 127//289 137//289
f 132//290 124//290 119//290
f 132//291 138//291 139//291
f 139//292 144//292 140//292
f 121//293 128//293 145//293
f 135//294 134//294 145//294
f 129//295 136//295 93//295
f 94//296 142//296 143//296
f 131//297 146//297 138//297
f 138//298 127//298 131//298
f 119//299 138//299 132//299
f 140//300 147//300 120//300
f 145//301 134//301 121//301
f 129//302 148//302 136//302
f 129//303 135//303 149//303
f 136//304 150//304 142//304
f 130//305 143//306 144//307
f 131//308 130//308 146//308
f 138//309 137//309 127//309
f 139//310 138//310 144//310
f 120//311 147//311 133//311
f 128//312 141//312 145//312
f 136//313 148//313 151//313
f 142//314 152//314 143//314
f 138//315 146//315 144//315
f 140//316 152//316 147//316
f 147//317 153//317 133//317
f 133//318 153//318 141//318
f 141//319 149//319 145//319
f 141//320 151//320 149//320
f 145//321 149//321 135//321
f 151//322 153//322 136//322
f 150//323 153//323 154//323
f 150//324 154//324 142//324
f 154//325 152//325 142//325
f 143//326 152//326 140//326
f 143//306 140//327 144//307
f 130//328 144//328 146//328
f 147//329 152//329 154//329
f 153//330 151//330 141//330
f 149//331 148//331 129//331
f 150//332 136//332 153//332
f 147//333 154//333 153//333
f 149//334 151//334 148//334
f 155//335 156//336 157//337
f 155//335 157//337 158//338
f 155//335 158//338 159//19
f 155//335 159//19 160//19
f 155//339 160//339 161//339
f 155//339 161//339 162//339
f 155//340 162//340 163//340
f 155//340 163//340 164//340
f 155//340 164//340 165//340
f 155//340 165//340 166//340
f 155//340 166//340 167//340
f 155//340 167//340 156//340
f 156//341 167//341 157//341
f 160//342 159//342 168//342
f 160//342 168//342 169//342
f 160//342 169//342 170//342
f 160//342 170//342 171//342
f 160//342 171//342 172//342
f 160//342 172//342 161//342
f 162//343 161//343 172//343
f 162//343 172//343 163//343
f 157//337 167//344 168//344
f 157//337 168//344 158//338
f 167//183 166//345 169//183
f 167//183 169//183 168//183
f 159//346 158//346 168//346
f 163//347 172//347 171//347
f 163//347 171//347 164//347
f 166//345 165//348 170//348
f 166//345 170//348 169//183
f 164//349 171//349 170//349
f 164//349 170//349 165//349
