# Blender v3.0.1 OBJ File: ''
# www.blender.org
mtllib armr6.mtl
o armr6
v -0.037855 0.038252 -0.003627
v -0.038150 0.038038 0.005539
v -0.029796 0.038479 0.000365
v -0.029191 0.037544 -0.008061
v -0.039000 0.036545 -0.005955
v -0.022842 0.036984 0.001215
v -0.022842 -0.012070 0.034814
v -0.022840 -0.034831 -0.012630
v -0.039000 0.033741 0.014097
v -0.029383 0.037491 0.008408
v -0.022842 0.035606 0.010241
v -0.022842 0.031637 0.019343
v -0.022842 0.021295 0.029980
v -0.022842 0.004008 0.036647
v -0.022840 -0.024638 0.027299
v -0.022840 -0.032389 0.017968
v -0.022840 -0.035623 0.010222
v -0.022840 -0.037062 -0.001114
v -0.022842 0.000480 -0.039366
v -0.022842 0.018448 -0.032016
v -0.022842 0.025874 -0.026507
v -0.022842 0.031306 -0.019828
v -0.022842 0.035633 -0.009795
v -0.037844 0.036439 -0.012230
v -0.041983 -0.018510 -0.023998
v -0.037862 0.036899 0.010873
v -0.029794 0.033070 0.019707
v -0.029150 0.014019 0.051499
v -0.029150 0.010929 0.053450
v -0.029150 -0.011693 0.053193
v -0.037086 -0.010952 0.053231
v -0.038223 -0.012803 0.052190
v -0.022842 -0.031235 -0.019942
v -0.022842 -0.025898 -0.026507
v -0.022842 -0.018219 -0.032156
v -0.022842 -0.002468 -0.038984
v -0.038055 -0.001678 -0.038245
v -0.038088 0.007830 -0.037675
v -0.029550 0.010955 -0.036897
v -0.029285 0.018520 -0.033755
v -0.029323 0.023872 -0.030086
v -0.029238 0.029255 -0.024998
v -0.029458 0.032985 -0.019769
v -0.038999 0.031181 -0.019605
v -0.039025 0.011192 0.050562
v -0.038228 0.032749 0.019984
v -0.037097 0.012749 0.052649
v -0.037327 0.011192 0.053209
v -0.029150 -0.014122 0.051526
v -0.029378 -0.034176 -0.017563
v -0.029399 -0.031094 -0.022593
v -0.029159 -0.026373 -0.027962
v -0.029378 -0.020336 -0.032616
v -0.029596 -0.012567 -0.036315
v -0.038084 -0.007820 -0.037665
v -0.041992 -0.023478 -0.029908
v -0.041988 -0.030240 -0.023038
v -0.042033 -0.024872 -0.019633
v -0.038514 0.012478 0.051858
v -0.038095 0.032165 -0.021097
v -0.037923 -0.032935 0.019770
v -0.029797 -0.033892 0.018183
v -0.029203 -0.037319 -0.008779
v -0.038939 0.004377 -0.037165
v -0.038074 0.018520 -0.033746
v -0.038125 0.025365 -0.028899
v -0.038937 -0.011442 0.051044
v -0.038953 -0.033817 0.014848
v -0.037582 -0.033512 -0.018919
v -0.040511 -0.024104 -0.030022
v -0.038143 -0.016203 -0.034783
v -0.038970 0.020461 -0.030822
v -0.038099 -0.037070 -0.010411
v -0.038245 -0.038133 -0.004084
v -0.038140 -0.037085 0.010222
v -0.029161 -0.037070 0.010213
v -0.029796 -0.038451 -0.000004
v 0.015934 0.002424 -0.043051
v 0.014765 0.006326 -0.043051
v 0.013044 0.009241 -0.043051
v 0.009205 0.013086 -0.043051
v 0.006284 0.014777 -0.043051
v 0.002386 0.015920 -0.043051
v -0.002844 0.015947 -0.043051
v -0.006318 0.015034 -0.043051
v -0.010154 0.013017 -0.043051
v -0.013068 0.010083 -0.043051
v -0.015091 0.006257 -0.043051
v -0.015972 0.002510 -0.043051
v -0.015995 -0.001712 -0.043051
v -0.015104 -0.005367 -0.043051
v -0.013072 -0.009269 -0.043051
v -0.009305 -0.013042 -0.043051
v -0.005896 -0.014867 -0.043051
v -0.002483 -0.015904 -0.043051
v 0.003181 -0.015913 -0.043051
v 0.006562 -0.014910 -0.043051
v 0.010069 -0.013058 -0.043051
v 0.013031 -0.010164 -0.043051
v 0.014749 -0.007010 -0.043051
v 0.015912 -0.003300 -0.043051
v 0.013964 0.000722 -0.044765
v 0.013107 0.001450 -0.045031
v 0.013706 0.003882 -0.044597
v 0.013900 -0.001949 -0.044747
v 0.013107 -0.002925 -0.044967
v 0.012133 -0.004387 -0.045036
v 0.004333 0.012172 -0.045036
v 0.004333 -0.012191 -0.045036
v -0.005409 -0.011702 -0.045036
v 0.013675 -0.004139 -0.044576
v 0.011401 0.006809 -0.044977
v -0.005409 0.011687 -0.045035
v 0.006524 0.011685 -0.044964
v 0.012625 -0.006227 -0.044691
v 0.010669 -0.007803 -0.045004
v 0.006524 -0.011704 -0.044960
v 0.002380 -0.013165 -0.044989
v 0.009994 0.010036 -0.044666
v 0.011346 0.008525 -0.044638
v -0.001996 -0.013925 -0.044733
v -0.013207 -0.000979 -0.045013
v -0.012233 0.004372 -0.045035
v -0.006873 0.011687 -0.044919
v -0.002483 0.013149 -0.044988
v 0.002380 0.013149 -0.044993
v 0.004874 0.013332 -0.044623
v 0.011344 -0.008537 -0.044637
v 0.009988 -0.010048 -0.044664
v 0.003726 -0.013758 -0.044608
v 0.000192 -0.013993 -0.044761
v 0.008481 0.011384 -0.044636
v -0.007843 -0.010727 -0.044993
v -0.011259 -0.007315 -0.044970
v -0.011259 0.007296 -0.044972
v -0.006874 0.012659 -0.044502
v -0.003153 0.013809 -0.044663
v -0.000295 0.013984 -0.044762
v 0.002380 0.013894 -0.044725
v 0.006796 0.012678 -0.044518
v 0.008475 -0.011393 -0.044634
v 0.006535 -0.012740 -0.044560
v -0.004166 -0.013702 -0.044559
v -0.007272 -0.012294 -0.044567
v -0.009073 -0.010931 -0.044648
v -0.010512 -0.009519 -0.044650
v -0.011953 -0.007634 -0.044647
v -0.012932 -0.005758 -0.044668
v -0.013849 -0.003016 -0.044639
v -0.014019 0.000237 -0.044757
v -0.013847 0.003077 -0.044649
v -0.012497 0.006519 -0.044687
v -0.009082 0.010922 -0.044651
v -0.010976 0.009018 -0.044648
v 0.036498 -0.031224 0.020043
v 0.038003 -0.029600 0.020043
v 0.038024 0.028041 0.020043
v -0.022845 0.028041 0.020043
v -0.022833 -0.031216 0.020043
v -0.022845 -0.035736 0.009847
v 0.036485 -0.033215 0.016480
v 0.037952 -0.033149 0.015961
v -0.022833 -0.033509 0.015906
v -0.022827 0.035089 0.012070
v -0.022845 0.036852 0.004236
v -0.022845 0.034181 -0.014449
v -0.022839 0.023223 -0.028895
v -0.022845 -0.000689 -0.038839
v -0.022836 -0.019439 -0.031506
v -0.022845 -0.027380 -0.025041
v -0.022839 -0.036568 0.006012
v 0.036730 -0.035042 0.012194
v 0.037402 -0.036119 0.007679
v 0.036504 0.031572 0.019463
v -0.022833 0.031572 0.019463
v -0.022833 0.033478 0.015961
v 0.038024 -0.035613 0.005734
v 0.036498 -0.036906 0.003751
v 0.037964 0.036063 0.007216
v 0.037970 0.033149 0.015973
v 0.037034 0.035089 0.012058
v 0.036733 -0.037080 0.000608
v 0.037970 -0.036099 -0.006723
v 0.037976 -0.034145 -0.013418
v -0.022833 -0.034188 -0.014418
v -0.022638 -0.037049 -0.000599
v 0.036495 0.036002 0.008805
v 0.036486 -0.037030 -0.002536
v 0.037982 0.021559 -0.041648
v -0.022827 -0.035743 -0.009885
v -0.022827 -0.036615 -0.005994
v -0.022821 -0.032263 -0.018334
v 0.037982 0.035111 -0.010092
v 0.037107 0.037057 0.000501
v 0.037982 -0.021559 -0.041648
v 0.036486 -0.036608 -0.005994
v -0.008698 -0.020411 -0.042457
v 0.036504 0.036852 0.004239
v 0.036826 -0.034163 -0.014406
v 0.036820 -0.022370 -0.041972
v 0.036887 -0.021561 -0.042771
v -0.013284 -0.017581 -0.042590
v -0.005802 -0.021407 -0.042507
v -0.012226 -0.017040 -0.043001
v -0.000048 -0.022257 -0.042185
v 0.036498 0.022293 -0.042272
v 0.036492 0.037030 -0.002554
v -0.022833 0.037102 0.000345
v 0.037338 0.020942 -0.042791
v 0.036498 0.020942 -0.043031
v 0.036498 -0.020949 -0.043031
v 0.036847 0.034163 -0.014400
v 0.036557 0.035802 -0.009546
v -0.022833 0.037037 -0.002561
v -0.000533 0.020942 -0.043031
v 0.000444 0.022293 -0.042272
v -0.018650 -0.011815 -0.042618
v -0.022827 0.035609 -0.010367
v -0.019663 -0.005893 -0.043014
v -0.022833 0.032352 -0.018136
v -0.012713 0.016556 -0.043001
v -0.005819 0.021407 -0.042519
v -0.021755 -0.004527 -0.042263
v -0.020518 -0.008284 -0.042516
v -0.022829 0.028973 -0.023057
v -0.022071 0.003401 -0.042056
v -0.021725 0.002910 -0.042735
v -0.010301 0.019514 -0.042550
v -0.018656 0.011830 -0.042618
v -0.014687 0.016575 -0.042562
v -0.020950 0.007150 -0.042448
v 0.038030 0.028830 0.019475
v -0.022837 0.028043 0.019474
v -0.022837 0.031585 0.019474
v 0.038030 0.021906 0.028143
v 0.038024 -0.017065 0.031060
v 0.038000 -0.029401 0.020047
v 0.037922 -0.030532 0.020047
v 0.036468 -0.031233 0.020047
v -0.022837 -0.031233 0.020047
v 0.036498 0.031585 0.019475
v 0.037892 0.031081 0.019475
v 0.037967 0.025829 0.026198
v 0.037964 0.012706 0.034490
v 0.038018 0.006072 0.034960
v 0.037961 -0.025840 0.026195
v 0.037940 -0.030243 0.020860
v 0.037034 -0.029259 0.022797
v -0.022837 -0.029222 0.022869
v -0.022837 0.031278 0.019985
v -0.022837 0.028381 0.023882
v 0.036498 0.031278 0.019985
v 0.037070 0.029261 0.022804
v 0.037952 0.020455 0.030573
v 0.037952 -0.004974 0.036434
v 0.037952 -0.012717 0.034488
v 0.037946 -0.020478 0.030573
v -0.022843 -0.013037 0.034721
v -0.022843 0.013143 0.034682
v -0.022843 0.015769 0.033587
v -0.022837 0.025626 0.026827
v 0.036474 -0.028386 0.023874
v -0.022837 0.029267 0.022817
v 0.036497 0.027550 0.024810
v 0.036498 0.026051 0.026427
v 0.037207 0.015695 0.033556
v 0.036847 0.023465 0.028706
v 0.037958 0.009736 0.035453
v 0.037958 0.004964 0.036434
v 0.037940 -0.009765 0.035453
v 0.036489 -0.026091 0.026368
v -0.022837 -0.026781 0.025664
v -0.022837 -0.025723 0.026732
v -0.022837 -0.023503 0.028714
v -0.022837 -0.022384 0.029570
v 0.036763 0.019501 0.031566
v 0.036498 0.016167 0.033385
v 0.036498 0.022232 0.029676
v 0.036492 0.012165 0.035051
v 0.036775 0.010895 0.035431
v 0.037022 0.006851 0.036432
v 0.037451 -0.000012 0.036827
v 0.037201 -0.015718 0.033555
v 0.037016 -0.019518 0.031561
v 0.037040 -0.010767 0.035460
v 0.036480 -0.012243 0.035022
v 0.036829 -0.023485 0.028699
v 0.036483 -0.021734 0.030033
v -0.022837 -0.015773 0.033584
v -0.022831 0.019508 0.031569
v -0.022831 0.023554 0.028669
v -0.022831 0.021543 0.030168
v 0.036492 0.008749 0.036045
v 0.036486 0.004373 0.036848
v 0.036486 -0.000012 0.037108
v 0.037011 -0.006862 0.036430
v 0.036498 -0.015779 0.033584
v 0.036480 -0.008772 0.036040
v -0.022831 -0.019531 0.031564
v -0.022837 0.011777 0.035175
v -0.022837 0.008272 0.036171
v -0.022837 0.004373 0.036848
v -0.022837 -0.000005 0.037108
v -0.022837 -0.003889 0.036894
v 0.036486 -0.004384 0.036846
v -0.022837 -0.011284 0.035329
v -0.022837 -0.007379 0.036351
v -0.022837 -0.008769 0.036040
v 0.019299 -0.027405 0.052035
v -0.018083 -0.027519 0.051050
v 0.017984 -0.027249 0.049219
v 0.018593 -0.026938 0.053024
v -0.018083 -0.027000 0.052907
v -0.019309 -0.027271 0.049644
v -0.021926 -0.026397 0.053055
v 0.023488 -0.025902 0.053061
v -0.018568 -0.026741 0.048813
v 0.018960 -0.026747 0.048812
v 0.022717 -0.025878 0.048806
v 0.024419 -0.025882 0.052152
v 0.020805 -0.025351 0.053506
v -0.020034 -0.025592 0.053479
v -0.022511 -0.026339 0.049083
v -0.003461 -0.015114 0.043614
v 0.003356 -0.015114 0.043614
v -0.021985 -0.025350 0.048553
v -0.025487 -0.024631 0.052105
v -0.008331 -0.013165 0.043637
v -0.015159 -0.000011 0.043616
v 0.015055 -0.003419 0.043596
v 0.008238 -0.013165 0.043632
v 0.028304 -0.020697 0.053073
v 0.027730 -0.001711 0.053515
v 0.020468 0.020942 0.053526
v -0.029144 0.010210 0.053535
v -0.029144 -0.010231 0.053529
v -0.026650 -0.022740 0.053028
v -0.025913 -0.023920 0.049076
v -0.013207 -0.008292 0.043636
v 0.003362 0.015097 0.043591
v 0.013108 -0.008292 0.043630
v 0.015055 0.003403 0.043597
v 0.026027 -0.022660 0.048549
v -0.026126 -0.022177 0.048622
v 0.026512 0.017403 0.053454
v -0.029144 -0.013485 0.048291
v -0.029144 0.013433 0.048291
v -0.013207 0.008275 0.043636
v -0.008331 0.013148 0.043635
v -0.003457 0.015497 0.043785
v 0.008232 0.013153 0.043629
v 0.013108 0.008275 0.043627
v 0.028209 0.014598 0.048696
v 0.028218 -0.018028 0.048685
v 0.029214 0.013232 0.049280
v 0.028716 -0.019915 0.049390
v 0.026447 -0.024069 0.049634
v 0.028880 -0.017173 0.053070
v -0.028357 -0.020567 0.052129
v -0.028109 -0.020555 0.049509
v -0.027869 0.017485 0.050925
v -0.025896 0.019980 0.049092
v -0.024911 0.019970 0.048670
v -0.000055 0.017756 0.044889
v 0.021641 0.022076 0.048737
v 0.026032 0.018737 0.048560
v 0.028806 -0.020544 0.051537
v 0.029134 0.013133 0.052899
v 0.022480 0.022449 0.053040
v -0.018083 0.022744 0.053228
v -0.017594 0.022792 0.048821
v 0.017984 0.023371 0.049592
v 0.023721 0.021983 0.049251
v 0.028063 0.017468 0.049125
v 0.029527 0.012159 0.051050
v 0.029486 -0.016074 0.051281
v 0.028057 0.017686 0.052653
v 0.019221 0.023370 0.052257
v -0.022341 0.021717 0.053261
v -0.026633 0.018797 0.053011
v -0.019685 0.023404 0.050007
v 0.029107 0.015602 0.051635
v -0.018605 0.023419 0.051959
v 0.026412 0.020353 0.050784
v -0.023442 0.022108 0.052064
vn -0.0390 0.9990 0.0222
vn 0.0258 0.9938 -0.1084
vn -0.8221 0.5692 -0.0131
vn 1.0000 0.0000 0.0000
vn 0.2200 0.9712 -0.0920
vn -0.9637 0.2643 0.0370
vn 0.0224 0.9924 0.1207
vn 0.1960 0.9745 0.1096
vn 1.0000 0.0000 0.0001
vn 1.0000 0.0002 -0.0002
vn 1.0000 0.0001 -0.0000
vn 0.2566 0.9593 -0.1177
vn -0.7198 0.6791 -0.1440
vn -0.9986 0.0517 0.0072
vn -0.8738 0.4638 0.1461
vn 0.2357 0.9607 0.1466
vn 0.1620 0.9169 0.3647
vn 0.2053 0.8971 0.3912
vn 0.1997 0.8423 0.5007
vn 0.8405 0.3884 0.3777
vn 0.9151 0.2152 0.3410
vn 0.9447 0.1180 0.3060
vn 0.9357 -0.0040 0.3529
vn 0.9450 -0.0370 0.3251
vn 0.9269 -0.1925 0.3221
vn -0.0397 -0.4713 0.8811
vn 1.0000 -0.0008 -0.0007
vn 1.0000 -0.0002 -0.0003
vn 1.0000 -0.0001 -0.0002
vn 1.0000 -0.0000 -0.0001
vn -0.0817 0.0594 -0.9949
vn 0.0038 0.2317 -0.9728
vn 0.2393 0.3653 -0.8996
vn 0.2462 0.3669 -0.8971
vn 0.2230 0.5523 -0.8033
vn 0.2511 0.5767 -0.7774
vn 0.1871 0.6732 -0.7154
vn 0.2528 0.7507 -0.6104
vn 0.1985 0.8019 -0.5636
vn 0.2237 0.8950 -0.3860
vn 0.1771 0.9157 -0.3606
vn -0.0255 0.9782 -0.2062
vn -0.8850 0.4334 -0.1703
vn -0.9989 0.0397 0.0238
vn -0.0075 0.9779 0.2091
vn -0.0157 0.8575 0.5142
vn -0.0603 0.8504 0.5227
vn 0.0371 0.5333 0.8451
vn -0.0167 0.3402 0.9402
vn 0.0038 -0.0114 0.9999
vn -0.0219 -0.5655 0.8244
vn 0.2362 -0.8719 -0.4289
vn 0.1896 -0.8368 -0.5136
vn 0.2318 -0.7548 -0.6136
vn 0.2034 -0.7398 -0.6414
vn 0.2231 -0.5901 -0.7759
vn 0.2413 -0.5750 -0.7817
vn 0.1975 -0.4169 -0.8872
vn 0.2261 -0.3874 -0.8937
vn -0.0406 -0.1284 -0.9909
vn -0.0600 -0.0935 -0.9938
vn -0.9978 0.0621 -0.0244
vn -1.0000 0.0006 0.0011
vn -0.9999 -0.0005 -0.0124
vn -0.9992 0.0276 0.0286
vn -0.9609 0.2358 0.1451
vn -0.8555 0.4755 -0.2050
vn -0.8423 0.5025 0.1951
vn 0.0413 0.9299 0.3654
vn -0.5064 0.3569 0.7850
vn -0.0847 -0.8468 0.5251
vn 0.1979 -0.8448 0.4971
vn 0.7606 -0.4995 0.4149
vn 0.9120 -0.2320 0.3382
vn -0.0017 -0.8602 0.5100
vn 0.1600 -0.9284 -0.3354
vn 0.0079 -0.2605 -0.9654
vn -0.6381 0.0439 -0.7687
vn -0.8916 0.1572 -0.4247
vn -0.0408 0.3447 -0.9378
vn -0.0010 0.3836 -0.9235
vn 0.0185 0.6867 -0.7267
vn 0.0119 0.8143 -0.5803
vn -0.0188 0.9008 -0.4338
vn 0.0564 0.9299 -0.3634
vn -0.9965 0.0645 -0.0526
vn -0.9990 -0.0029 0.0443
vn -0.9316 0.0041 0.3633
vn -0.7551 -0.0089 0.6555
vn -0.0210 0.9102 0.4137
vn -0.4177 0.7684 0.4849
vn -0.0294 0.0007 0.9996
vn -0.7708 0.1218 0.6253
vn -0.8659 -0.4285 0.2581
vn -0.0206 -0.9415 -0.3364
vn 0.0173 -0.8525 -0.5225
vn -0.0275 -0.7501 -0.6607
vn -0.0291 -0.7478 -0.6632
vn 0.0218 -0.6099 -0.7922
vn 0.0208 -0.4293 -0.9029
vn -0.0313 -0.3248 -0.9453
vn -0.8526 -0.0451 -0.5206
vn -0.8635 -0.0364 -0.5030
vn -0.0009 0.5654 -0.8248
vn -0.0120 0.5778 -0.8161
vn -0.0416 0.7533 -0.6564
vn -0.9955 0.0671 -0.0667
vn -0.9838 0.0642 -0.1676
vn -0.5092 -0.2767 -0.8150
vn -0.9978 -0.0411 0.0515
vn -0.7623 -0.0076 0.6471
vn -0.9437 0.2828 0.1714
vn -0.9266 -0.3197 0.1980
vn 0.0445 -0.9226 -0.3832
vn -0.0278 -0.5098 -0.8599
vn -0.9142 0.1472 -0.3777
vn -0.8877 0.3317 -0.3194
vn -0.2531 -0.4425 -0.8603
vn -0.3346 -0.6717 -0.6609
vn -0.9914 -0.1109 0.0690
vn -0.9387 -0.3421 0.0429
vn -0.7787 -0.5686 0.2650
vn -0.0300 -0.9164 0.3991
vn 0.2595 -0.9481 -0.1837
vn 0.0028 -0.9862 -0.1656
vn -0.2914 -0.8761 -0.3841
vn -0.0330 -0.7995 -0.5997
vn -0.9463 0.2455 -0.2103
vn -0.7416 -0.6586 -0.1278
vn 0.2063 -0.9031 0.3766
vn 0.2067 -0.9029 0.3770
vn 0.0019 -0.9288 0.3706
vn 0.1769 -0.9776 -0.1141
vn 0.0237 -0.9917 -0.1263
vn -0.8221 0.3249 -0.4675
vn -0.9603 -0.2775 0.0274
vn -0.0728 -0.9946 0.0734
vn 0.0018 -0.9910 0.1338
vn 0.2214 -0.9674 0.1229
vn 0.2124 -0.9700 0.1179
vn 0.0000 0.0000 1.0000
vn 0.6578 -0.0025 -0.7532
vn 0.3556 0.0787 -0.9313
vn 0.6076 0.0917 -0.7890
vn 0.6363 -0.0206 -0.7712
vn 0.2827 -0.0134 -0.9591
vn 0.2853 -0.0140 -0.9583
vn 0.0921 -0.0146 -0.9956
vn 0.0012 0.0006 -1.0000
vn -0.0000 0.0000 -1.0000
vn 0.5902 -0.1227 -0.7978
vn 0.6006 -0.1881 -0.7771
vn 0.6413 0.1920 -0.7429
vn 0.0212 0.0169 -0.9996
vn 0.0428 0.0454 -0.9981
vn 0.2418 -0.1157 -0.9634
vn 0.2463 -0.1144 -0.9624
vn 0.0161 -0.0161 -0.9997
vn 0.0793 -0.2058 -0.9754
vn -0.0022 -0.0434 -0.9991
vn 0.2843 0.1002 -0.9535
vn 0.5412 -0.2276 -0.8095
vn 0.3589 -0.1295 -0.9244
vn 0.3906 -0.1113 -0.9138
vn 0.1617 0.1643 -0.9731
vn 0.2372 0.1952 -0.9516
vn 0.3898 0.1901 -0.9011
vn -0.0271 -0.1756 -0.9841
vn -0.0069 -0.0029 -1.0000
vn -0.0781 0.1880 -0.9791
vn -0.0010 0.0344 -0.9994
vn -0.0020 0.0394 -0.9992
vn 0.0747 0.1918 -0.9786
vn 0.1170 0.3121 -0.9428
vn 0.3026 -0.1899 -0.9340
vn 0.2678 -0.2234 -0.9372
vn 0.1781 -0.2002 -0.9634
vn 0.0481 -0.0624 -0.9969
vn 0.1214 -0.3260 -0.9375
vn 0.0672 -0.4261 -0.9022
vn 0.5189 -0.2826 -0.8068
vn 0.5424 0.2685 -0.7961
vn 0.5650 0.3336 -0.7547
vn 0.1961 0.2407 -0.9506
vn -0.0193 -0.2180 -0.9758
vn -0.0236 -0.0151 -0.9996
vn -0.0191 -0.0126 -0.9997
vn -0.0792 0.0913 -0.9927
vn -0.0359 0.0334 -0.9988
vn -0.1442 0.3898 -0.9095
vn -0.0562 0.3954 -0.9168
vn -0.0010 0.2636 -0.9646
vn 0.0245 0.3386 -0.9406
vn 0.1140 0.3364 -0.9348
vn 0.1739 0.3634 -0.9153
vn 0.2070 0.3530 -0.9124
vn 0.1980 -0.2442 -0.9493
vn 0.2088 -0.3507 -0.9129
vn 0.1448 -0.3554 -0.9234
vn 0.2153 -0.5558 -0.8029
vn 0.0741 -0.5964 -0.7992
vn -0.0011 -0.6660 -0.7459
vn -0.0298 -0.6431 -0.7652
vn 0.4907 -0.2915 -0.8211
vn 0.5070 0.4404 -0.7409
vn 0.4369 0.5065 -0.7434
vn 0.5032 0.5023 -0.7032
vn -0.1258 -0.6243 -0.7710
vn -0.1060 -0.2921 -0.9505
vn -0.1380 -0.3097 -0.9407
vn -0.1393 -0.3064 -0.9416
vn -0.2045 -0.3252 -0.9233
vn -0.2284 -0.2225 -0.9478
vn -0.2039 -0.2085 -0.9565
vn -0.3170 -0.2411 -0.9173
vn -0.2525 -0.0841 -0.9639
vn -0.3423 -0.1891 -0.9203
vn -0.2850 -0.0853 -0.9547
vn -0.3714 -0.0530 -0.9270
vn -0.2446 0.0405 -0.9688
vn -0.2729 0.0533 -0.9606
vn -0.2930 0.1180 -0.9488
vn -0.1847 0.1963 -0.9630
vn -0.2034 0.5447 -0.8136
vn -0.1396 0.3207 -0.9369
vn -0.0648 0.6067 -0.7923
vn 0.0034 0.6597 -0.7515
vn 0.0322 0.6366 -0.7705
vn 0.1723 0.6272 -0.7596
vn 0.2445 0.5950 -0.7657
vn 0.1862 0.6347 -0.7500
vn 0.4248 -0.3664 -0.8278
vn 0.4120 -0.4218 -0.8077
vn 0.3672 -0.4317 -0.8239
vn 0.1798 -0.6057 -0.7751
vn 0.3663 0.5459 -0.7535
vn -0.1982 -0.6526 -0.7313
vn -0.6081 -0.1954 -0.7694
vn -0.6174 -0.0606 -0.7843
vn -0.6556 0.0037 -0.7551
vn -0.6111 0.0672 -0.7887
vn -0.3170 0.1139 -0.9416
vn -0.5370 0.2015 -0.8192
vn -0.3530 0.2288 -0.9072
vn -0.2173 0.2150 -0.9521
vn -0.2405 0.3822 -0.8922
vn -0.1600 0.6089 -0.7770
vn -0.2879 0.5475 -0.7857
vn 0.3431 0.5930 -0.7285
vn 0.3061 -0.4854 -0.8189
vn 0.2875 -0.5445 -0.7879
vn -0.2660 -0.5911 -0.7615
vn -0.3226 -0.6027 -0.7299
vn -0.3702 -0.5344 -0.7599
vn -0.4840 -0.4936 -0.7226
vn -0.4948 -0.4939 -0.7151
vn -0.5145 -0.3924 -0.7625
vn -0.5924 -0.3175 -0.7404
vn -0.6028 -0.3140 -0.7335
vn -0.6477 -0.1579 -0.7453
vn -0.6192 0.1455 -0.7717
vn -0.5321 0.2813 -0.7986
vn -0.4128 0.4101 -0.8133
vn -0.3138 0.4697 -0.8252
vn -0.4128 0.4096 -0.8136
vn -0.4764 0.3026 -0.8255
vn -1.0000 -0.0002 0.0013
vn 0.2066 -0.8545 0.4766
vn -0.0001 -0.8730 0.4877
vn 0.6340 -0.5874 0.5029
vn -0.9999 -0.0106 0.0058
vn -1.0000 0.0003 -0.0020
vn -1.0000 0.0002 0.0023
vn -1.0000 0.0000 -0.0000
vn -1.0000 -0.0001 -0.0003
vn -1.0000 0.0002 0.0001
vn -1.0000 -0.0007 -0.0005
vn -1.0000 0.0014 0.0003
vn -1.0000 -0.0034 -0.0008
vn -0.0004 -0.8747 0.4846
vn 0.1796 -0.9012 0.3945
vn 0.4689 -0.8408 0.2704
vn -0.0027 -0.9386 0.3450
vn 0.0008 -0.9199 0.3923
vn 0.0000 0.1622 0.9868
vn -1.0000 0.0035 0.0009
vn 0.0014 -0.9773 0.2120
vn -0.9999 -0.0118 -0.0064
vn 0.9994 -0.0308 0.0144
vn 1.0000 -0.0004 0.0016
vn 0.8413 -0.5241 0.1321
vn 0.0019 -0.9806 0.1959
vn 0.0022 -0.9726 0.2324
vn 0.9999 0.0135 0.0038
vn 0.7599 0.4099 0.5045
vn 0.0000 0.8784 0.4780
vn 0.0037 0.9032 0.4292
vn 0.4273 -0.9004 0.0819
vn 0.6791 -0.7336 0.0257
vn 0.9999 -0.0157 -0.0037
vn -0.9874 -0.1573 -0.0186
vn -1.0000 -0.0027 -0.0006
vn -0.0029 -0.9974 0.0724
vn 0.0595 0.9000 0.4317
vn 0.0001 0.9239 0.3826
vn 0.0001 0.9628 0.2702
vn -0.0029 0.9756 0.2194
vn -0.0017 -0.9985 0.0553
vn -0.0002 -0.9999 -0.0162
vn 0.7153 -0.6983 0.0272
vn 1.0000 0.0002 -0.0007
vn -0.9999 -0.0111 -0.0025
vn -0.9855 0.1630 0.0476
vn -0.0023 -0.9968 -0.0800
vn -0.9995 -0.0279 -0.0168
vn 1.0000 0.0083 0.0006
vn 1.0000 0.0021 -0.0009
vn 0.8444 0.5350 -0.0286
vn 0.5440 0.7963 0.2646
vn 0.2110 0.9497 0.2315
vn 0.4290 -0.9020 -0.0483
vn 1.0000 -0.0073 -0.0030
vn 1.0000 -0.0000 -0.0009
vn 0.0001 -0.9758 -0.2187
vn 0.0001 -0.9927 -0.1210
vn -0.3092 -0.7693 -0.5590
vn 0.1555 0.9711 0.1809
vn 0.3050 0.9470 0.1012
vn 0.2704 -0.9557 -0.1165
vn 0.1927 -0.9443 -0.2667
vn 0.2478 -0.9300 -0.2713
vn 0.3325 -0.8671 -0.3710
vn 0.6002 -0.7306 -0.3256
vn 0.5736 -0.5992 -0.5586
vn 0.0043 -0.9603 -0.2790
vn -0.4058 -0.6859 -0.6041
vn -0.2798 -0.7867 -0.5503
vn -0.1836 -0.3407 -0.9221
vn -0.1036 -0.8780 -0.4673
vn -0.0680 -0.8952 -0.4404
vn -0.0071 -0.3951 -0.9186
vn 0.0020 -0.7027 -0.7115
vn -0.0005 -0.9186 -0.3952
vn 0.0005 -0.9459 -0.3245
vn 0.5271 0.7808 -0.3353
vn 0.5208 0.8462 -0.1124
vn -0.0000 0.9831 0.1829
vn 0.0008 1.0000 -0.0091
vn 0.0006 0.9985 0.0549
vn -0.0000 0.9979 0.0643
vn 0.7158 -0.0079 -0.6983
vn 0.8713 -0.0000 -0.4908
vn 0.2424 0.4753 -0.8457
vn 0.5419 0.5729 -0.6149
vn -0.1083 -0.2677 -0.9574
vn -0.0071 -0.3959 -0.9183
vn 0.0005 -0.9194 -0.3933
vn 0.6006 0.7329 -0.3196
vn 0.3277 0.9009 -0.2847
vn 0.3818 0.9109 -0.1564
vn -0.9994 0.0352 -0.0008
vn 0.0001 0.9997 -0.0225
vn 0.2756 0.0000 -0.9613
vn 0.5504 -0.0062 -0.8349
vn 0.0000 0.4900 -0.8717
vn 0.0000 0.9196 -0.3929
vn 0.0006 0.9200 -0.3918
vn -0.6734 -0.4663 -0.5736
vn -0.5759 -0.5390 -0.6147
vn -0.0008 0.9849 -0.1729
vn -0.9999 0.0103 -0.0015
vn -0.0004 -0.0004 -1.0000
vn -0.0109 -0.1283 -0.9917
vn -0.0008 -0.0017 -1.0000
vn -0.2729 -0.1832 -0.9444
vn 0.0006 0.9474 -0.3199
vn 0.0001 0.9837 -0.1799
vn -0.9995 0.0308 -0.0064
vn -0.0738 0.8933 -0.4434
vn -0.0765 0.2056 -0.9756
vn -0.8618 -0.2541 -0.4389
vn -0.7486 -0.3804 -0.5430
vn -0.2568 -0.1082 -0.9604
vn -0.0812 -0.0803 -0.9935
vn 0.0015 0.9439 -0.3302
vn -0.0384 0.5106 -0.8590
vn -0.9729 -0.0846 -0.2151
vn -0.1058 0.8775 -0.4677
vn -0.9999 0.0122 -0.0093
vn -0.9999 0.0097 -0.0078
vn -0.9620 -0.0312 -0.2714
vn -0.8980 -0.0243 -0.4393
vn -0.3750 -0.0585 -0.9252
vn -0.3652 -0.0576 -0.9292
vn -0.3161 0.7577 -0.5709
vn -0.2707 0.7935 -0.5451
vn -0.4153 0.4585 -0.7857
vn -0.0853 0.2178 -0.9723
vn -0.5107 0.6130 -0.6028
vn -0.6043 0.5127 -0.6099
vn -0.9858 0.0647 -0.1551
vn -0.0114 0.0213 -0.9997
vn -0.0570 0.0182 -0.9982
vn -0.0031 0.0015 -1.0000
vn -0.4419 0.6620 -0.6053
vn -0.7683 0.3574 -0.5310
vn -0.8920 0.2255 -0.3918
vn -0.3180 0.1218 -0.9402
vn -0.8149 0.1861 -0.5489
vn -0.1025 0.0483 -0.9936
vn 1.0000 -0.0002 -0.0001
vn 1.0000 -0.0005 -0.0016
vn 0.1429 -0.0098 -0.9897
vn 0.0046 -0.0096 -0.9999
vn 0.0002 -0.0095 -1.0000
vn -0.0000 -0.0097 -1.0000
vn 0.0000 0.0001 -1.0000
vn 0.9975 0.0607 0.0364
vn 0.9994 0.0264 0.0211
vn 0.9997 0.0098 0.0246
vn 1.0000 -0.0000 0.0017
vn 0.9998 -0.0156 0.0154
vn 0.9966 -0.0682 0.0458
vn 0.4148 -0.8602 0.2967
vn 0.2523 -0.8099 0.5295
vn -0.0000 -0.8124 0.5832
vn 0.0002 -0.8144 0.5803
vn -0.0000 0.8568 0.5156
vn 0.2957 0.8178 0.4938
vn 0.0000 0.8561 0.5169
vn 0.5835 0.6431 0.4959
vn 0.3010 0.8034 0.5138
vn 0.9986 0.0252 0.0469
vn 0.9973 0.0450 0.0586
vn 0.9999 -0.0039 0.0154
vn 0.9997 -0.0041 0.0261
vn 0.9977 -0.0313 0.0605
vn 0.9986 0.0384 -0.0356
vn 0.4611 -0.6852 0.5638
vn -1.0000 -0.0000 -0.0005
vn -1.0000 -0.0000 -0.0004
vn -1.0000 -0.0003 -0.0008
vn -1.0000 0.0014 0.0011
vn 0.0003 -0.7767 0.6298
vn -0.0004 0.7303 0.6832
vn 0.1862 0.7206 0.6678
vn 0.2115 0.7147 0.6666
vn 0.5646 0.3730 0.7362
vn 0.3761 0.5843 0.7191
vn 0.9991 0.0109 0.0398
vn 0.9988 0.0098 0.0478
vn 0.9985 -0.0134 0.0533
vn 0.9989 -0.0281 0.0378
vn 0.1515 -0.7278 0.6688
vn -0.0005 -0.7531 0.6579
vn -1.0000 -0.0015 0.0015
vn 0.0002 0.8154 0.5789
vn 0.0000 0.8132 0.5819
vn 0.0002 0.7689 0.6393
vn -0.0007 0.7334 0.6798
vn 0.0005 0.7608 0.6490
vn 0.3139 0.4684 0.8259
vn 0.2073 0.5696 0.7953
vn 0.1017 0.4702 0.8767
vn 0.2117 0.6620 0.7189
vn 0.1983 0.5708 0.7968
vn 0.2224 0.3416 0.9131
vn 0.2299 0.3255 0.9172
vn 0.2730 0.2963 0.9153
vn 0.2243 0.2471 0.9427
vn 0.3748 0.1866 0.9081
vn 0.9992 -0.0006 0.0399
vn 0.6158 -0.0004 0.7879
vn 0.5689 -0.3708 0.7341
vn 0.3987 -0.4412 0.8040
vn 0.2165 -0.3526 0.9104
vn 0.2218 -0.3399 0.9139
vn 0.3320 -0.2919 0.8970
vn 0.2008 -0.7174 0.6671
vn 0.3713 -0.5866 0.7197
vn 0.1983 -0.6676 0.7176
vn 0.0005 -0.7359 0.6771
vn -0.0001 -0.7107 0.7035
vn 0.0005 -0.6659 0.7460
vn 0.0004 -0.6076 0.7943
vn 0.0004 -0.6062 0.7953
vn -0.9999 -0.0069 0.0114
vn 0.0001 0.4790 0.8778
vn 0.0332 0.3840 0.9227
vn 0.0003 0.6611 0.7503
vn 0.0004 0.6183 0.7860
vn 0.0005 0.6643 0.7475
vn -0.0003 0.5975 0.8019
vn 0.0002 0.5692 0.8222
vn 0.1887 0.2469 0.9505
vn 0.2268 0.1133 0.9673
vn 0.2491 0.0573 0.9668
vn 0.2787 0.0475 0.9592
vn 0.2787 -0.0480 0.9592
vn 0.3717 -0.1870 0.9093
vn 0.2641 -0.2306 0.9365
vn 0.0714 -0.3754 0.9241
vn 0.0775 -0.4661 0.8813
vn 0.1484 -0.2374 0.9600
vn 0.2369 -0.5758 0.7825
vn 0.1332 -0.5841 0.8007
vn 0.0004 -0.6666 0.7454
vn -0.9996 -0.0138 0.0228
vn 0.0001 -0.4735 0.8808
vn -0.0000 -0.4759 0.8795
vn -0.0000 -0.3767 0.9263
vn 0.0005 -0.3838 0.9234
vn -0.9998 0.0124 0.0171
vn 0.0001 0.5671 0.8236
vn -0.0002 0.4749 0.8800
vn -0.9997 0.0147 0.0214
vn -0.9999 0.0101 0.0135
vn 0.0001 0.2865 0.9581
vn -0.0003 0.3395 0.9406
vn -0.0001 0.2735 0.9619
vn -0.0002 0.2749 0.9615
vn 0.0005 0.2003 0.9797
vn -0.0002 0.1710 0.9853
vn -0.0000 0.1655 0.9862
vn 0.0000 0.0591 0.9982
vn 0.0000 0.0592 0.9982
vn -0.0000 -0.0550 0.9985
vn 0.0003 -0.0597 0.9982
vn 0.2488 -0.0578 0.9668
vn 0.2261 -0.1145 0.9673
vn 0.0003 -0.2790 0.9603
vn 0.0004 -0.2849 0.9586
vn 0.0004 -0.2003 0.9797
vn -0.0000 -0.2182 0.9759
vn -0.0000 -0.2721 0.9623
vn 0.0002 -0.5676 0.8233
vn -0.0001 -0.5728 0.8197
vn 0.0006 0.3847 0.9230
vn 0.0006 0.3843 0.9232
vn -0.9982 0.0162 0.0569
vn -1.0000 0.0016 0.0092
vn -1.0000 0.0002 0.0036
vn -1.0000 0.0000 0.0025
vn -0.0005 -0.1537 0.9881
vn 0.0001 -0.1655 0.9862
vn -0.0004 -0.3276 0.9448
vn -0.9985 -0.0150 0.0531
vn -0.9999 -0.0036 0.0163
vn -1.0000 -0.0012 0.0080
vn -1.0000 -0.0002 0.0036
vn 0.0046 -0.9983 -0.0575
vn 0.0002 -0.9041 0.4274
vn -0.0042 -0.9631 0.2690
vn -0.0014 -0.9851 -0.1721
vn -0.1395 -0.9537 0.2664
vn 0.1731 -0.8370 0.5191
vn -0.2547 -0.9656 0.0522
vn -0.0057 -0.8409 -0.5412
vn -0.0001 -0.6298 -0.7767
vn 0.1867 -0.8117 -0.5534
vn 0.2702 -0.9281 0.2561
vn 0.0740 -0.3832 0.9207
vn 0.0011 -0.2923 0.9563
vn -0.0023 -0.3789 0.9254
vn -0.0293 -0.4106 0.9114
vn -0.2839 -0.9584 0.0279
vn -0.0001 -0.4081 -0.9129
vn 0.0000 -0.4080 -0.9130
vn -0.1217 -0.7842 -0.6085
vn 0.0732 -0.3234 -0.9434
vn 0.2646 -0.9548 -0.1356
vn -0.1050 -0.4257 -0.8988
vn 0.2841 -0.9408 -0.1849
vn -0.4552 -0.8888 0.0541
vn -0.0652 -0.3355 -0.9398
vn -0.0069 -0.0052 -1.0000
vn -0.0007 -0.0005 -1.0000
vn 0.0000 -0.0016 -1.0000
vn 0.0070 -0.0086 -0.9999
vn 0.1094 -0.2653 -0.9579
vn -0.1100 -0.2634 -0.9584
vn 0.1366 -0.1284 0.9823
vn 0.0002 -0.0004 1.0000
vn 0.0003 -0.0004 1.0000
vn 0.0004 -0.0003 1.0000
vn -0.0007 -0.0037 1.0000
vn -0.1426 -0.1769 0.9738
vn -0.4710 -0.6037 0.6432
vn -0.5758 -0.8103 -0.1090
vn -0.0030 -0.0032 -1.0000
vn -0.0007 -0.0007 -1.0000
vn 0.0110 -0.0114 -0.9999
vn 0.0006 0.0001 -1.0000
vn 0.1454 -0.2264 -0.9631
vn -0.1891 -0.2689 -0.9444
vn -0.2735 -0.3373 -0.9008
vn -0.1692 -0.1998 -0.9651
vn 0.5907 -0.5478 0.5924
vn 0.0708 -0.0211 0.9973
vn 0.0143 0.0041 0.9999
vn -0.1797 -0.1800 -0.9671
vn -0.2419 -0.1207 -0.9628
vn -0.2605 -0.0639 -0.9634
vn -0.3171 0.0000 -0.9484
vn -0.0042 0.0035 -1.0000
vn -0.0046 0.0044 -1.0000
vn -0.0220 0.1090 -0.9938
vn 0.0132 0.0136 -0.9998
vn 0.0111 0.0106 -0.9999
vn 0.3613 0.0001 -0.9324
vn 0.3610 0.0004 -0.9326
vn 0.7985 -0.0140 -0.6018
vn 0.4702 -0.1971 -0.8602
vn 0.2603 -0.0949 -0.9608
vn 0.2524 -0.1076 -0.9616
vn 0.1745 -0.1748 -0.9690
vn 0.4053 -0.4789 -0.7787
vn 0.4662 -0.8521 -0.2380
vn 0.7712 -0.6101 0.1818
vn 0.1224 -0.0194 0.9923
vn -0.0928 -0.0583 0.9940
vn -0.8068 -0.5707 0.1528
vn -0.5690 -0.2714 -0.7763
vn -0.5419 -0.2191 -0.8114
vn -0.9826 -0.1600 -0.0938
vn -0.8429 0.4535 -0.2897
vn -0.3737 0.2931 -0.8801
vn -0.2161 0.1955 -0.9566
vn -0.2607 0.0639 -0.9633
vn -0.1388 0.3472 -0.9275
vn 0.0001 0.4390 -0.8985
vn 0.1381 0.3276 -0.9347
vn 0.1741 0.2791 -0.9444
vn 0.2020 0.2023 -0.9583
vn 0.2735 0.1125 -0.9553
vn 0.2726 0.1148 -0.9553
vn 0.5034 0.0004 -0.8641
vn 0.7655 -0.6148 0.1895
vn 0.3839 0.0020 0.9234
vn 0.2354 0.0181 0.9717
vn 0.1103 0.1685 0.9795
vn 0.0066 0.2988 0.9543
vn -0.6050 -0.1519 0.7816
vn -0.8145 -0.5747 -0.0797
vn -0.8381 -0.5455 -0.0100
vn -0.2059 0.2058 -0.9567
vn -0.1286 0.3824 -0.9150
vn -0.0507 0.4990 -0.8651
vn 0.0100 0.6368 -0.7710
vn 0.0553 0.4947 -0.8673
vn 0.1687 0.8285 -0.5340
vn 0.2387 0.3619 -0.9011
vn 0.3541 0.1560 -0.9221
vn 0.6380 0.1456 -0.7561
vn 0.9843 -0.0029 -0.1762
vn 0.9365 -0.0152 -0.3503
vn 0.9842 -0.1545 -0.0867
vn 0.5988 -0.3689 -0.7108
vn 0.8594 -0.4799 -0.1768
vn 0.3740 0.3686 0.8511
vn 0.0083 0.6648 0.7469
vn -0.0052 0.0538 0.9985
vn -0.0057 0.0271 0.9996
vn -0.1230 0.0962 0.9877
vn -0.9952 -0.0827 0.0514
vn -0.2305 0.6372 -0.7354
vn 0.0086 0.5674 -0.8234
vn 0.5117 0.5113 -0.6904
vn 0.9864 0.1360 -0.0924
vn 0.9435 -0.1540 0.2935
vn 0.9607 -0.1319 0.2442
vn 0.9483 -0.0062 0.3172
vn 0.4334 0.1505 0.8885
vn -0.0026 0.8824 0.4705
vn -0.9669 0.2174 0.1336
vn -0.2800 0.6871 -0.6704
vn -0.0044 0.8854 -0.4648
vn 0.2325 0.9716 -0.0434
vn 0.6363 0.6245 -0.4528
vn 0.9458 0.2493 -0.2082
vn 0.9781 0.0003 0.2080
vn 0.9827 0.0926 0.1603
vn 0.6040 0.6724 0.4278
vn 0.0013 1.0000 -0.0001
vn -0.1961 0.8300 0.5222
vn -0.7653 0.6417 0.0499
vn 0.0008 1.0000 -0.0084
vn 0.3000 0.9438 -0.1389
vn 0.8600 0.5094 -0.0302
vn 0.8874 0.4603 -0.0271
vn 0.8730 0.2297 0.4303
vn -0.8926 0.2824 0.3513
vn -0.7064 0.7034 0.0796
vn -0.4374 0.8620 -0.2560
vn -0.2565 0.9572 0.1343
vn -0.2198 0.8495 0.4797
vn -0.4620 0.6251 0.6291
vn 0.4942 0.8676 0.0551
usemtl Default_OBJ.001
s off
f 1//1 2//1 3//1
f 3//2 4//2 1//2
f 2//3 1//3 5//3
f 6//4 7//4 8//4
f 3//5 6//5 4//5
f 2//6 5//6 9//6
f 2//7 10//7 3//7
f 3//8 10//8 6//8
f 7//4 6//4 11//4
f 7//4 11//4 12//4
f 7//4 12//4 13//4
f 7//9 13//9 14//9
f 7//10 15//10 16//10
f 7//11 16//11 17//11
f 7//11 17//11 18//11
f 7//4 18//4 8//4
f 8//4 19//4 20//4
f 8//4 20//4 21//4
f 8//4 21//4 22//4
f 8//4 22//4 23//4
f 8//4 23//4 6//4
f 4//12 6//12 23//12
f 1//13 24//13 5//13
f 5//14 25//14 9//14
f 2//15 9//15 26//15
f 6//16 10//16 11//16
f 11//17 10//17 27//17
f 11//18 27//18 12//18
f 12//19 27//19 28//19
f 12//20 28//20 13//20
f 13//21 28//21 29//21
f 13//22 29//22 14//22
f 14//23 29//23 30//23
f 14//24 30//24 7//24
f 30//25 15//25 7//25
f 30//26 31//26 32//26
f 8//27 33//27 34//27
f 8//28 34//28 35//28
f 8//29 35//29 36//29
f 8//30 36//30 19//30
f 19//31 37//31 38//31
f 19//32 38//32 39//32
f 19//33 39//33 40//33
f 19//34 40//34 20//34
f 20//35 40//35 41//35
f 20//36 41//36 21//36
f 21//37 41//37 42//37
f 21//38 42//38 22//38
f 22//39 42//39 43//39
f 22//40 43//40 23//40
f 23//41 43//41 4//41
f 1//42 4//42 24//42
f 5//43 24//43 44//43
f 25//44 45//44 9//44
f 26//45 10//45 2//45
f 28//46 27//46 46//46
f 28//47 46//47 47//47
f 28//48 47//48 29//48
f 29//49 47//49 48//49
f 30//50 29//50 31//50
f 32//51 49//51 30//51
f 8//52 50//52 33//52
f 33//53 50//53 51//53
f 33//54 51//54 34//54
f 34//55 51//55 52//55
f 34//56 52//56 53//56
f 34//57 53//57 35//57
f 35//58 53//58 54//58
f 35//59 54//59 36//59
f 36//60 55//60 19//60
f 19//61 55//61 37//61
f 5//62 44//62 25//62
f 25//63 56//63 57//63
f 25//64 57//64 58//64
f 25//65 58//65 45//65
f 45//66 59//66 9//66
f 24//67 60//67 44//67
f 9//68 46//68 26//68
f 10//69 26//69 27//69
f 47//70 59//70 48//70
f 32//71 61//71 49//71
f 49//72 62//72 16//72
f 49//73 16//73 15//73
f 49//74 15//74 30//74
f 49//75 61//75 62//75
f 50//76 8//76 63//76
f 36//77 54//77 55//77
f 37//78 64//78 38//78
f 38//79 64//79 65//79
f 38//80 65//80 39//80
f 40//81 39//81 65//81
f 42//82 41//82 66//82
f 42//83 60//83 43//83
f 43//84 60//84 24//84
f 43//85 24//85 4//85
f 25//86 44//86 56//86
f 58//87 67//87 45//87
f 45//88 67//88 59//88
f 59//89 67//89 48//89
f 27//90 26//90 46//90
f 47//91 46//91 59//91
f 48//92 31//92 29//92
f 32//93 31//93 67//93
f 32//94 68//94 61//94
f 50//95 63//95 69//95
f 50//96 69//96 51//96
f 51//97 57//97 52//97
f 52//98 57//98 70//98
f 52//99 70//99 53//99
f 53//100 71//100 54//100
f 71//101 55//101 54//101
f 55//102 56//102 37//102
f 37//103 56//103 64//103
f 40//104 65//104 41//104
f 41//105 65//105 66//105
f 42//106 66//106 60//106
f 56//107 44//107 72//107
f 56//108 72//108 64//108
f 56//109 55//109 71//109
f 58//110 57//110 67//110
f 48//111 67//111 31//111
f 59//112 46//112 9//112
f 67//113 68//113 32//113
f 63//114 73//114 69//114
f 53//115 70//115 71//115
f 64//116 72//116 65//116
f 44//117 60//117 72//117
f 56//118 71//118 70//118
f 56//119 70//119 57//119
f 67//120 57//120 68//120
f 57//121 74//121 68//121
f 61//122 68//122 75//122
f 61//123 75//123 62//123
f 63//124 8//124 18//124
f 63//125 74//125 73//125
f 69//126 73//126 57//126
f 69//127 57//127 51//127
f 66//128 72//128 60//128
f 57//129 73//129 74//129
f 62//130 76//130 17//130
f 62//131 17//131 16//131
f 75//132 76//132 62//132
f 77//133 63//133 18//133
f 63//134 77//134 74//134
f 72//135 66//135 65//135
f 74//136 75//136 68//136
f 77//137 75//137 74//137
f 76//138 75//138 77//138
f 76//139 18//139 17//139
f 77//140 18//140 76//140
f 78//141 79//141 80//141
f 78//141 80//141 81//141
f 78//141 81//141 82//141
f 78//141 82//141 83//141
f 78//141 83//141 84//141
f 78//141 84//141 85//141
f 78//141 85//141 86//141
f 78//141 86//141 87//141
f 78//141 87//141 88//141
f 78//141 88//141 89//141
f 78//141 89//141 90//141
f 78//141 90//141 91//141
f 78//141 91//141 92//141
f 78//141 92//141 93//141
f 78//141 93//141 94//141
f 78//141 94//141 95//141
f 78//141 95//141 96//141
f 78//141 96//141 97//141
f 78//141 97//141 98//141
f 78//141 98//141 99//141
f 78//141 99//141 100//141
f 78//141 100//141 101//141
f 102//142 78//142 101//142
f 102//143 103//143 104//143
f 102//144 104//144 78//144
f 101//145 105//145 102//145
f 102//146 105//146 106//146
f 102//147 106//147 103//147
f 103//148 106//148 107//148
f 107//149 108//149 103//149
f 107//150 109//150 110//150
f 101//151 111//151 105//151
f 101//152 100//152 111//152
f 78//153 104//153 79//153
f 103//154 108//154 112//154
f 107//150 110//150 113//150
f 107//150 113//150 108//150
f 108//155 114//155 112//155
f 107//156 106//156 115//156
f 107//157 115//157 116//157
f 107//158 116//158 109//158
f 109//159 117//159 118//159
f 109//160 118//160 110//160
f 103//161 112//161 104//161
f 111//162 100//162 115//162
f 111//163 115//163 106//163
f 111//164 106//164 105//164
f 112//165 114//165 119//165
f 112//166 119//166 120//166
f 112//167 120//167 104//167
f 110//168 118//168 121//168
f 110//169 122//169 123//169
f 110//150 123//150 113//150
f 113//170 124//170 125//170
f 113//171 125//171 126//171
f 113//172 126//172 108//172
f 108//173 126//173 114//173
f 114//174 126//174 127//174
f 115//175 128//175 116//175
f 116//176 128//176 129//176
f 116//177 129//177 117//177
f 116//178 117//178 109//178
f 117//179 130//179 118//179
f 118//180 130//180 131//180
f 100//181 99//181 115//181
f 104//182 120//182 79//182
f 79//183 120//183 80//183
f 119//184 114//184 132//184
f 118//185 131//185 121//185
f 110//186 133//186 122//186
f 122//187 133//187 134//187
f 113//188 135//188 124//188
f 113//189 123//189 135//189
f 124//190 136//190 125//190
f 125//191 137//191 138//191
f 125//192 138//192 126//192
f 126//193 138//193 139//193
f 126//194 139//194 127//194
f 127//195 140//195 114//195
f 114//196 140//196 132//196
f 129//197 141//197 117//197
f 117//198 141//198 142//198
f 117//199 142//199 130//199
f 130//200 142//200 97//200
f 130//201 96//201 131//201
f 131//202 96//202 95//202
f 131//203 95//203 121//203
f 115//204 99//204 128//204
f 80//205 120//205 119//205
f 119//206 132//206 81//206
f 119//207 81//207 80//207
f 121//208 95//208 143//208
f 121//209 143//209 110//209
f 110//210 143//210 144//210
f 110//211 144//211 133//211
f 133//212 144//212 145//212
f 133//213 145//213 134//213
f 134//214 145//214 146//214
f 134//215 146//215 147//215
f 134//216 148//216 122//216
f 134//217 147//217 148//217
f 122//218 148//218 149//218
f 122//219 149//219 150//219
f 122//220 150//220 123//220
f 123//221 150//221 151//221
f 135//222 123//222 152//222
f 135//223 153//223 124//223
f 136//224 85//224 137//224
f 125//225 136//225 137//225
f 137//226 84//226 138//226
f 138//227 84//227 83//227
f 138//228 83//228 139//228
f 139//229 83//229 127//229
f 140//230 127//230 82//230
f 127//231 83//231 82//231
f 128//232 99//232 129//232
f 129//233 99//233 98//233
f 129//234 98//234 141//234
f 97//235 96//235 130//235
f 132//236 140//236 81//236
f 95//237 94//237 143//237
f 148//238 91//238 149//238
f 149//239 90//239 150//239
f 150//240 90//240 89//240
f 150//241 89//241 151//241
f 151//242 152//242 123//242
f 152//243 151//243 88//243
f 135//244 152//244 154//244
f 135//245 154//245 153//245
f 153//246 136//246 124//246
f 85//247 84//247 137//247
f 85//248 136//248 86//248
f 140//249 82//249 81//249
f 98//250 142//250 141//250
f 142//251 98//251 97//251
f 143//252 94//252 144//252
f 144//253 94//253 93//253
f 144//254 93//254 145//254
f 145//255 93//255 146//255
f 146//256 93//256 92//256
f 146//257 92//257 147//257
f 147//258 92//258 148//258
f 148//259 92//259 91//259
f 91//260 90//260 149//260
f 89//261 88//261 151//261
f 88//262 87//262 152//262
f 153//263 87//263 86//263
f 153//264 86//264 136//264
f 153//265 154//265 87//265
f 87//266 154//266 152//266
f 155//141 156//141 157//141
f 155//141 157//141 158//141
f 155//141 158//141 159//141
f 159//267 158//267 160//267
f 155//268 161//268 162//268
f 155//269 159//269 161//269
f 155//270 162//270 156//270
f 160//271 163//271 159//271
f 160//272 158//272 164//272
f 160//273 164//273 165//273
f 160//274 165//274 166//274
f 160//275 166//275 167//275
f 160//276 167//276 168//276
f 160//277 168//277 169//277
f 160//278 169//278 170//278
f 160//279 170//279 171//279
f 159//280 163//280 161//280
f 162//281 161//281 172//281
f 162//282 172//282 173//282
f 163//283 160//283 172//283
f 163//284 172//284 161//284
f 158//285 157//285 174//285
f 158//285 174//285 175//285
f 158//286 175//286 164//286
f 160//287 171//287 173//287
f 164//288 175//288 176//288
f 156//289 162//289 177//289
f 156//290 177//290 157//290
f 173//291 177//291 162//291
f 171//292 178//292 173//292
f 160//293 173//293 172//293
f 157//294 179//294 180//294
f 157//295 180//295 174//295
f 175//296 174//296 176//296
f 176//297 174//297 181//297
f 173//298 178//298 182//298
f 177//299 173//299 183//299
f 177//300 183//300 184//300
f 171//301 185//301 186//301
f 171//302 170//302 185//302
f 171//303 186//303 178//303
f 174//304 180//304 181//304
f 181//305 164//305 176//305
f 164//306 181//306 187//306
f 164//307 187//307 165//307
f 178//308 186//308 182//308
f 182//309 186//309 188//309
f 182//310 183//310 173//310
f 157//311 177//311 189//311
f 185//312 190//312 191//312
f 185//313 191//313 186//313
f 186//314 191//314 188//314
f 170//315 192//315 185//315
f 157//316 193//316 179//316
f 157//317 189//317 193//317
f 179//318 193//318 194//318
f 179//319 181//319 180//319
f 181//320 179//320 187//320
f 188//321 183//321 182//321
f 184//322 195//322 177//322
f 177//323 195//323 189//323
f 190//324 196//324 191//324
f 191//325 196//325 188//325
f 170//326 197//326 192//326
f 179//327 198//327 187//327
f 194//328 198//328 179//328
f 188//329 196//329 183//329
f 183//330 196//330 199//330
f 199//331 184//331 183//331
f 184//332 199//332 200//332
f 184//333 200//333 195//333
f 195//334 200//334 201//334
f 190//335 199//335 196//335
f 170//336 202//336 197//336
f 197//337 203//337 192//337
f 202//338 204//338 197//338
f 192//339 203//339 205//339
f 192//340 205//340 185//340
f 205//341 203//341 201//341
f 205//342 201//342 200//342
f 205//343 200//343 185//343
f 185//344 199//344 190//344
f 193//345 189//345 206//345
f 193//346 207//346 194//346
f 198//347 165//347 187//347
f 194//348 207//348 208//348
f 194//349 208//349 198//349
f 198//350 208//350 165//350
f 195//351 201//351 209//351
f 195//352 209//352 189//352
f 209//353 210//353 206//353
f 209//354 206//354 189//354
f 197//355 204//355 203//355
f 203//356 211//356 201//356
f 200//357 199//357 185//357
f 193//358 206//358 212//358
f 193//359 212//359 213//359
f 193//360 213//360 207//360
f 208//361 214//361 165//361
f 208//362 207//362 214//362
f 211//363 210//363 209//363
f 211//364 209//364 201//364
f 210//365 215//365 216//365
f 210//365 216//365 206//365
f 206//366 216//366 166//366
f 206//367 166//367 212//367
f 210//150 211//150 215//150
f 169//368 217//368 170//368
f 170//369 217//369 202//369
f 207//370 213//370 218//370
f 165//371 214//371 166//371
f 211//372 219//372 215//372
f 204//373 211//373 203//373
f 204//374 219//374 211//374
f 202//375 219//375 204//375
f 212//376 166//376 213//376
f 207//377 218//377 214//377
f 214//378 218//378 166//378
f 216//379 220//379 166//379
f 215//380 221//380 222//380
f 169//381 223//381 224//381
f 169//382 224//382 217//382
f 217//383 224//383 219//383
f 217//384 219//384 202//384
f 213//385 166//385 218//385
f 215//386 222//386 216//386
f 169//387 168//387 223//387
f 216//388 222//388 220//388
f 166//389 220//389 225//389
f 166//390 225//390 167//390
f 223//391 168//391 226//391
f 223//392 226//392 227//392
f 227//393 219//393 224//393
f 227//394 224//394 223//394
f 222//395 228//395 225//395
f 222//396 225//396 220//396
f 221//397 229//397 228//397
f 221//398 228//398 222//398
f 225//399 230//399 167//399
f 167//400 230//400 229//400
f 167//401 226//401 168//401
f 229//402 230//402 228//402
f 219//403 227//403 221//403
f 219//404 221//404 215//404
f 225//405 228//405 230//405
f 167//406 229//406 231//406
f 167//407 231//407 226//407
f 231//408 229//408 227//408
f 226//409 231//409 227//409
f 221//410 227//410 229//410
f 232//150 233//150 234//150
f 232//411 235//411 236//411
f 232//412 236//412 237//412
f 232//413 237//413 238//413
f 232//414 238//414 239//414
f 232//415 239//415 233//415
f 233//416 239//416 240//416
f 234//417 241//417 242//417
f 234//150 242//150 232//150
f 232//418 242//418 243//418
f 232//419 243//419 235//419
f 235//420 244//420 245//420
f 235//421 245//421 236//421
f 237//422 236//422 246//422
f 237//423 246//423 238//423
f 238//424 247//424 239//424
f 239//425 247//425 248//425
f 233//274 240//274 234//274
f 240//426 239//426 248//426
f 240//427 248//427 249//427
f 234//428 250//428 241//428
f 234//274 251//274 250//274
f 241//429 252//429 242//429
f 241//430 250//430 252//430
f 242//431 253//431 243//431
f 242//432 252//432 253//432
f 235//433 254//433 244//433
f 235//434 243//434 254//434
f 245//435 255//435 256//435
f 245//436 256//436 236//436
f 236//437 256//437 257//437
f 238//438 246//438 247//438
f 247//439 246//439 248//439
f 234//274 240//274 249//274
f 234//440 249//440 258//440
f 234//441 258//441 259//441
f 234//442 259//442 260//442
f 234//443 260//443 261//443
f 234//274 261//274 251//274
f 248//444 262//444 249//444
f 251//274 263//274 250//274
f 251//445 261//445 264//445
f 253//446 264//446 265//446
f 253//447 265//447 243//447
f 254//448 266//448 244//448
f 243//449 267//449 254//449
f 245//450 244//450 268//450
f 268//451 269//451 245//451
f 256//452 255//452 270//452
f 257//453 246//453 236//453
f 248//454 271//454 262//454
f 262//455 272//455 249//455
f 249//274 272//274 273//274
f 249//274 273//274 274//274
f 249//274 274//274 275//274
f 249//456 275//456 258//456
f 250//457 263//457 253//457
f 250//458 253//458 252//458
f 251//459 253//459 263//459
f 261//460 265//460 264//460
f 253//461 251//461 264//461
f 254//462 276//462 266//462
f 254//463 267//463 276//463
f 266//464 276//464 277//464
f 243//465 265//465 267//465
f 267//466 278//466 276//466
f 244//467 266//467 279//467
f 244//468 279//468 280//468
f 244//469 280//469 268//469
f 268//470 280//470 281//470
f 268//471 281//471 269//471
f 245//472 269//472 255//472
f 255//473 269//473 282//473
f 256//474 283//474 257//474
f 257//475 283//475 284//475
f 256//476 285//476 286//476
f 256//477 286//477 283//477
f 256//478 270//478 285//478
f 246//479 271//479 248//479
f 246//480 257//480 287//480
f 246//481 287//481 271//481
f 271//482 272//482 262//482
f 272//483 271//483 273//483
f 274//484 273//484 271//484
f 274//485 287//485 275//485
f 275//486 287//486 288//486
f 258//487 275//487 289//487
f 277//488 276//488 290//488
f 266//489 277//489 279//489
f 265//490 261//490 267//490
f 267//491 291//491 278//491
f 267//492 261//492 291//492
f 278//493 291//493 292//493
f 278//494 292//494 276//494
f 280//495 293//495 281//495
f 281//496 294//496 269//496
f 269//497 294//497 295//497
f 269//498 295//498 282//498
f 282//499 295//499 255//499
f 255//500 296//500 270//500
f 270//501 296//501 285//501
f 283//502 286//502 297//502
f 283//503 297//503 284//503
f 285//504 296//504 298//504
f 287//505 257//505 284//505
f 287//506 284//506 288//506
f 274//507 271//507 287//507
f 275//508 299//508 289//508
f 289//509 299//509 284//509
f 289//510 284//510 297//510
f 289//511 297//511 286//511
f 289//512 286//512 258//512
f 261//513 260//513 291//513
f 276//514 292//514 290//514
f 290//515 260//515 277//515
f 260//516 290//516 292//516
f 260//517 292//517 291//517
f 279//518 300//518 280//518
f 279//519 259//519 300//519
f 280//520 300//520 301//520
f 280//521 301//521 293//521
f 293//522 301//522 281//522
f 281//523 301//523 302//523
f 281//524 302//524 294//524
f 294//525 302//525 295//525
f 295//526 302//526 303//526
f 295//527 303//527 304//527
f 295//528 304//528 305//528
f 295//529 305//529 255//529
f 255//530 305//530 296//530
f 285//531 298//531 306//531
f 285//532 306//532 286//532
f 298//533 296//533 307//533
f 298//534 307//534 308//534
f 298//535 308//535 306//535
f 288//536 284//536 299//536
f 288//537 299//537 275//537
f 260//538 259//538 279//538
f 260//539 279//539 277//539
f 300//540 259//540 301//540
f 301//541 259//541 302//541
f 302//542 259//542 303//542
f 303//543 259//543 258//543
f 305//544 304//544 307//544
f 305//545 307//545 296//545
f 306//546 258//546 286//546
f 308//547 258//547 306//547
f 258//548 308//548 307//548
f 258//549 307//549 304//549
f 258//550 304//550 303//550
f 309//551 310//551 311//551
f 309//552 312//552 313//552
f 309//553 313//553 310//553
f 311//554 310//554 314//554
f 310//555 313//555 315//555
f 309//556 316//556 312//556
f 315//557 314//557 310//557
f 311//558 314//558 317//558
f 311//559 317//559 318//559
f 311//560 318//560 319//560
f 309//561 320//561 316//561
f 316//562 321//562 312//562
f 312//563 321//563 322//563
f 312//564 322//564 313//564
f 313//565 322//565 315//565
f 315//566 323//566 314//566
f 318//567 317//567 324//567
f 318//568 324//568 325//568
f 314//569 323//569 317//569
f 318//570 325//570 319//570
f 311//571 319//571 320//571
f 323//572 326//572 317//572
f 309//573 311//573 320//573
f 315//574 327//574 323//574
f 317//575 326//575 324//575
f 324//576 328//576 329//576
f 324//577 329//577 330//577
f 324//578 330//578 325//578
f 325//579 330//579 331//579
f 319//580 325//580 331//580
f 326//581 328//581 324//581
f 316//582 332//582 321//582
f 321//583 333//583 334//583
f 321//584 334//584 335//584
f 321//585 335//585 336//585
f 321//586 336//586 322//586
f 322//587 337//587 315//587
f 315//588 337//588 327//588
f 327//589 338//589 323//589
f 328//590 339//590 329//590
f 329//591 340//591 330//591
f 330//592 341//592 331//592
f 330//593 340//593 342//593
f 319//594 331//594 343//594
f 323//595 338//595 344//595
f 323//596 344//596 326//596
f 326//597 344//597 328//597
f 316//598 320//598 332//598
f 321//599 332//599 333//599
f 333//600 345//600 334//600
f 328//601 344//601 339//601
f 339//602 344//602 346//602
f 339//603 346//603 329//603
f 329//604 346//604 347//604
f 329//605 348//605 340//605
f 340//606 348//606 349//606
f 340//607 349//607 350//607
f 340//608 351//608 352//608
f 340//609 352//609 342//609
f 330//610 342//610 353//610
f 330//611 353//611 354//611
f 354//612 355//612 356//612
f 354//613 356//613 343//613
f 354//614 343//614 341//614
f 354//615 341//615 330//615
f 341//616 343//616 331//616
f 319//617 343//617 357//617
f 319//618 357//618 320//618
f 320//619 357//619 332//619
f 332//620 358//620 333//620
f 335//274 347//274 346//274
f 335//274 346//274 336//274
f 322//621 336//621 337//621
f 337//622 359//622 327//622
f 344//623 338//623 360//623
f 344//624 360//624 346//624
f 346//625 360//625 359//625
f 347//626 361//626 362//626
f 347//627 362//627 363//627
f 347//628 363//628 348//628
f 347//629 348//629 329//629
f 349//630 363//630 350//630
f 340//631 350//631 364//631
f 340//632 365//632 351//632
f 351//633 365//633 366//633
f 352//634 351//634 366//634
f 352//635 366//635 353//635
f 352//636 353//636 342//636
f 353//637 355//637 354//637
f 357//638 367//638 332//638
f 333//639 358//639 368//639
f 333//640 368//640 345//640
f 334//641 345//641 369//641
f 334//642 369//642 370//642
f 336//643 359//643 337//643
f 359//644 360//644 327//644
f 327//645 360//645 338//645
f 348//646 363//646 349//646
f 350//647 363//647 371//647
f 364//648 350//648 371//648
f 364//649 371//649 365//649
f 340//650 364//650 365//650
f 365//651 372//651 373//651
f 365//652 373//652 366//652
f 366//653 374//653 353//653
f 353//654 374//654 355//654
f 355//655 375//655 376//655
f 355//656 376//656 356//656
f 356//657 376//657 367//657
f 356//658 357//658 343//658
f 357//659 356//659 367//659
f 345//660 377//660 369//660
f 370//661 369//661 378//661
f 370//662 379//662 334//662
f 334//663 379//663 335//663
f 335//664 379//664 380//664
f 359//665 336//665 346//665
f 363//666 381//666 371//666
f 371//667 372//667 365//667
f 366//668 373//668 374//668
f 355//669 382//669 375//669
f 367//670 358//670 332//670
f 358//671 367//671 376//671
f 358//672 376//672 368//672
f 345//673 368//673 377//673
f 378//674 383//674 370//674
f 347//675 335//675 361//675
f 381//676 363//676 362//676
f 371//677 381//677 372//677
f 372//678 369//678 373//678
f 373//679 384//679 374//679
f 355//680 374//680 382//680
f 376//681 375//681 368//681
f 368//682 375//682 382//682
f 377//683 384//683 369//683
f 378//684 372//684 383//684
f 370//685 383//685 379//685
f 361//686 380//686 362//686
f 372//687 381//687 383//687
f 372//688 378//688 369//688
f 374//689 384//689 377//689
f 374//690 377//690 382//690
f 368//691 382//691 377//691
f 380//692 361//692 335//692
f 380//693 385//693 362//693
f 362//694 385//694 381//694
f 385//695 383//695 381//695
f 383//696 385//696 379//696
f 380//697 379//697 385//697
f 373//698 369//698 384//698
