# Blender v3.0.1 OBJ File: ''
# www.blender.org
mtllib torso2.mtl
o knee.002
v -0.066557 0.320985 0.099877
v -0.066297 0.360741 0.099479
v -0.068853 0.329522 0.077963
v -0.066420 0.361039 0.075181
v -0.059137 0.312821 0.103967
v -0.038673 0.210115 0.072793
v -0.041340 0.321882 0.116616
v -0.042502 0.353144 0.116930
v -0.013561 0.402734 0.073006
v 0.041978 0.213680 0.072793
v 0.035421 0.206808 0.072793
v -0.056993 0.379575 0.099680
v 0.065828 0.351568 0.074736
v -0.054734 0.382217 0.076031
v -0.027147 0.303588 0.116451
v 0.002355 0.296503 0.117513
v -0.012663 0.382675 0.116783
v 0.038189 0.398289 0.075241
v -0.032945 0.401046 0.075783
v 0.005036 0.408402 0.075751
v -0.024307 0.404131 0.099569
v 0.005968 0.407281 0.100261
v 0.066294 0.360741 0.099474
v 0.066568 0.321025 0.099881
v 0.068080 0.327754 0.076210
v 0.041347 0.321882 0.116601
v 0.021238 0.381484 0.116246
v 0.038011 0.398150 0.099428
v 0.047991 0.367893 0.109597
v -0.002069 0.267304 -0.068456
v -0.000865 0.263206 0.059088
v 0.035426 0.259570 0.059088
v 0.035478 0.263411 -0.068456
v 0.035426 0.205434 -0.072412
v 0.000133 0.205434 -0.072086
v -0.002069 0.205442 -0.068456
v -0.000865 0.205434 0.059102
v 0.000133 0.205434 0.072076
v 0.035426 0.205434 0.072431
v 0.042920 0.256607 0.059088
v 0.039397 0.262299 -0.068456
v 0.043937 0.258553 -0.068456
v 0.035426 0.192557 -0.069789
v 0.001528 0.192557 -0.069746
v 0.000138 0.197408 0.070318
v 0.001528 0.192557 0.069765
v 0.037787 0.192557 0.069368
v 0.045487 0.251588 -0.068456
v 0.043442 0.192557 -0.067109
v 0.045580 0.192557 -0.059041
v 0.045584 0.192557 0.059045
v 0.043433 0.192557 0.067113
v 0.044460 0.253951 0.059088
v 0.042323 0.205434 0.070800
v 0.042299 0.204666 -0.070753
v 0.045589 0.249224 0.059088
v 0.045472 0.205434 0.063767
v 0.045524 0.223239 -0.068456
v 0.035422 0.192531 -0.069816
v -0.038597 0.192531 -0.068913
v -0.045563 0.192531 -0.059032
v -0.045563 0.192531 0.059045
v -0.035416 0.192531 0.069815
v 0.035422 0.192531 0.069788
v 0.045570 0.192531 0.059031
v 0.045570 0.192531 -0.059045
v 0.059034 0.008327 -0.069392
v -0.059015 0.008327 -0.069392
v -0.019886 -0.063657 -0.062435
v 0.020986 -0.062448 -0.065879
v 0.066130 -0.013051 -0.061492
v 0.066975 0.008327 -0.059032
v -0.062209 -0.023743 -0.063091
v -0.045319 -0.048775 -0.059599
v -0.067438 0.001239 -0.059032
v 0.067200 0.005948 0.059017
v 0.046865 -0.046685 -0.060052
v 0.063877 -0.008979 0.066200
v 0.059767 -0.030849 0.061067
v 0.004682 -0.066450 0.059017
v -0.066058 0.005222 0.065933
v -0.023438 -0.062474 0.062434
v 0.041070 -0.051967 0.061150
v -0.057598 -0.034644 0.059643
v 0.010246 -0.063910 0.066260
v 0.035408 -0.043615 0.069569
v -0.058011 -0.026297 0.067621
v -0.044250 0.205430 0.067601
v 0.045588 0.205438 0.059114
v -0.035423 0.205430 0.072426
v -0.041518 0.205430 0.071202
v -0.002045 0.205438 0.059114
v 0.045588 0.249225 0.059114
v 0.045588 0.239812 0.072813
v 0.045471 0.205438 0.063777
v -0.002045 0.263468 0.059114
v 0.035427 0.259566 0.059114
v 0.042919 0.256610 0.059114
v 0.044452 0.253956 0.059114
v 0.043857 0.205447 0.068659
v 0.035418 0.205447 0.072428
v 0.045354 0.256309 0.072813
v 0.044046 0.263318 0.072813
v 0.044416 0.222803 0.072813
v -0.045964 0.272864 0.067601
v 0.042324 0.205447 0.070797
v 0.037834 0.208264 0.072813
v 0.040151 0.272135 0.072813
v -0.035423 0.290633 0.072813
v -0.043908 0.290792 0.072813
v -0.046514 0.277159 0.072813
v -0.045423 0.232297 0.072813
v -0.044309 0.221403 0.072813
v -0.037844 0.208248 0.072813
v -0.044638 0.277536 0.067601
v -0.040139 0.279822 0.067601
v -0.068222 0.328366 -0.076156
v -0.067282 0.347102 -0.100306
v -0.066114 0.317813 -0.099051
v -0.066402 0.361046 -0.075187
v -0.044839 0.336642 -0.116854
v -0.041364 0.205446 -0.070046
v -0.054127 0.376538 -0.103875
v 0.038444 0.205446 -0.071826
v 0.043935 0.205446 -0.068469
v -0.045963 0.272878 -0.068469
v -0.060271 0.374502 -0.098313
v -0.033057 0.308295 -0.116639
v 0.067384 0.323084 -0.097936
v 0.067184 0.324838 -0.074453
v 0.061454 0.317613 -0.103945
v -0.014157 0.401578 -0.072943
v -0.038218 0.398355 -0.075187
v 0.000007 0.296516 -0.117511
v 0.069326 0.346085 -0.096837
v -0.015339 0.381502 -0.116940
v 0.059582 0.375347 -0.074970
v 0.027146 0.303592 -0.116449
v 0.034231 0.361409 -0.117682
v 0.050379 0.345679 -0.112831
v -0.010113 0.408763 -0.076542
v -0.015120 0.407722 -0.099611
v 0.038191 0.398295 -0.075242
v 0.015147 0.407722 -0.099611
v 0.047391 0.387021 -0.100639
v -0.040148 0.280696 -0.068464
v -0.035423 0.280135 -0.068464
v -0.035423 0.205430 -0.072434
v -0.044683 0.277927 -0.068464
v -0.044636 0.277513 0.067598
v -0.040144 0.279825 0.067598
v 0.000124 0.205430 -0.072080
v 0.001524 0.192557 -0.069768
v -0.041183 0.205430 -0.071222
v -0.045990 0.272880 -0.068464
v -0.035418 0.192557 -0.069797
v -0.035895 0.205430 0.072377
v -0.032900 0.278406 0.067598
v -0.002076 0.267306 -0.068464
v 0.001524 0.197389 0.070349
v 0.001524 0.192557 0.069767
v -0.035418 0.192557 0.069796
v -0.043437 0.192557 0.067130
v -0.045581 0.192557 0.059033
v -0.045585 0.192557 -0.059034
v -0.043437 0.192557 -0.067131
v -0.045534 0.223267 -0.068464
v -0.045967 0.272854 0.067598
v 0.000124 0.205430 0.072079
v -0.002066 0.266435 0.067598
v -0.000880 0.263200 0.059061
v -0.000880 0.263225 -0.059076
v -0.045411 0.218832 0.067598
v -0.042297 0.204688 0.070760
vn -0.9942 0.0076 0.1071
vn -0.9970 0.0775 0.0060
vn -0.4726 0.0119 0.8812
vn -0.9694 -0.2453 0.0060
vn -0.5761 -0.0095 0.8173
vn -0.5974 -0.0303 0.8014
vn -0.0468 0.0072 -0.9989
vn -0.3699 -0.0533 -0.9276
vn 0.0000 0.0000 -1.0000
vn -0.7078 -0.3305 0.6243
vn -0.5201 0.2482 0.8172
vn -0.0000 0.0011 -1.0000
vn 0.0278 0.0093 -0.9996
vn -0.1271 0.1097 -0.9858
vn -0.4254 -0.3394 0.8390
vn -0.0270 -0.0111 0.9996
vn -0.3572 0.3652 0.8597
vn -0.8958 0.4429 -0.0361
vn -0.8757 0.4828 0.0104
vn 0.0464 0.0382 -0.9982
vn -0.4251 -0.3374 0.8399
vn -0.0468 -0.0453 0.9979
vn -0.1537 0.7911 -0.5920
vn -0.1540 0.1654 -0.9741
vn -0.1302 -0.4064 0.9044
vn -0.0029 0.0080 1.0000
vn 0.0638 0.2578 -0.9641
vn -0.1899 0.9801 -0.0582
vn -0.1045 0.9933 0.0494
vn -0.0202 -0.4521 0.8918
vn -0.3468 0.4652 0.8145
vn 0.8421 0.5003 -0.2014
vn -0.6535 0.7566 0.0221
vn -0.5965 0.7945 0.1136
vn 0.2921 0.9558 0.0326
vn 0.9908 0.0994 0.0916
vn 0.2731 -0.0337 -0.9614
vn 0.9748 -0.2230 -0.0011
vn 0.3643 -0.3477 0.8639
vn 0.2525 -0.3556 0.8999
vn 0.0162 0.0113 0.9998
vn 0.0323 0.5402 0.8409
vn 0.2742 0.9616 0.0076
vn 0.7976 0.6031 0.0093
vn 0.5162 -0.3188 0.7949
vn -0.0803 0.5969 0.7983
vn 0.9998 0.0067 -0.0213
vn 0.0160 0.0114 0.9998
vn 0.4104 0.4092 0.8149
vn 0.1901 0.5960 0.7802
vn 0.4876 0.0123 0.8730
vn 0.5531 0.0468 0.8318
vn 0.2890 0.1032 0.9518
vn 0.5595 0.4239 0.7122
vn 0.0997 0.9945 0.0310
vn 0.1031 0.9942 0.0300
vn 0.0071 0.0681 -0.9977
vn -0.0092 0.0582 -0.9983
vn -0.8550 -0.0000 -0.5187
vn -1.0000 0.0000 0.0094
vn -0.0098 0.2192 0.9756
vn 0.0240 0.2392 0.9707
vn 0.0942 0.2382 0.9666
vn 0.3676 0.9295 0.0313
vn 0.2729 0.9616 0.0291
vn 0.0193 0.0680 -0.9975
vn 0.0541 0.0655 -0.9964
vn -0.0012 -0.1996 -0.9799
vn -0.0091 -0.1797 -0.9837
vn -0.8406 -0.1837 -0.5096
vn -0.9632 -0.2689 -0.0002
vn -0.9938 -0.1111 0.0094
vn -0.9971 0.0000 0.0767
vn -0.9969 -0.0174 0.0767
vn -0.3377 -0.2016 0.9194
vn -0.0099 -0.1777 0.9840
vn 0.0107 -0.2295 0.9732
vn 0.1908 0.0425 -0.9807
vn 0.3113 -0.1897 -0.9312
vn 0.0000 -1.0000 0.0000
vn 0.6364 0.7712 0.0168
vn 0.8650 0.5015 0.0146
vn -0.9613 -0.2755 0.0000
vn 0.2261 -0.1860 0.9562
vn 0.2247 0.2149 0.9504
vn 0.3533 0.2048 0.9128
vn 0.1981 -0.2653 -0.9436
vn 0.2378 0.0314 -0.9708
vn 0.9761 0.2172 0.0038
vn 0.9726 0.2324 0.0035
vn 0.6414 0.1532 0.7518
vn 0.3611 -0.2277 0.9043
vn 0.9119 0.0412 0.4084
vn 0.5774 0.0007 -0.8164
vn 0.8429 -0.0805 -0.5320
vn 0.9638 -0.0766 -0.2553
vn 1.0000 0.0014 -0.0008
vn 0.9120 -0.0383 0.4084
vn 0.9997 -0.0001 0.0240
vn 1.0000 0.0013 -0.0018
vn 0.9627 -0.0857 0.2567
vn 1.0000 -0.0001 -0.0000
vn 0.0000 1.0000 -0.0000
vn 0.0000 -0.0023 -1.0000
vn -0.0122 0.0039 -0.9999
vn 0.0000 -0.0962 -0.9954
vn 0.7248 0.0913 -0.6829
vn 0.3363 -0.2262 -0.9142
vn -0.0838 -0.0044 -0.9965
vn 0.7903 0.0918 -0.6058
vn -0.1510 -0.1761 -0.9727
vn -0.8139 0.0917 -0.5738
vn 0.9933 0.1154 0.0000
vn 0.7931 0.0386 -0.6079
vn -0.2880 -0.3202 -0.9025
vn -0.8024 0.0918 -0.5897
vn 0.9933 0.1152 0.0004
vn 0.3496 -0.2390 -0.9059
vn -0.9935 0.1136 0.0000
vn 0.7244 0.0901 0.6834
vn 0.8142 0.0944 0.5728
vn 0.9992 -0.0392 -0.0027
vn 0.9796 -0.1952 0.0475
vn 0.0272 -0.9992 -0.0285
vn -0.9940 0.1090 0.0075
vn -0.7569 -0.0526 -0.6514
vn 0.9802 -0.1967 0.0223
vn 0.8669 -0.4977 -0.0273
vn -0.5055 -0.8628 -0.0062
vn -0.7239 0.1043 0.6820
vn -0.9781 -0.2076 0.0174
vn 0.7487 -0.6629 0.0069
vn 0.5222 -0.8528 -0.0122
vn -0.1394 -0.9902 0.0054
vn -0.8276 -0.5610 -0.0187
vn -0.9775 -0.2103 0.0180
vn -0.0830 -0.9187 0.3860
vn 0.0004 -0.0009 1.0000
vn 0.3114 -0.2722 0.9105
vn 0.3688 -0.9293 0.0184
vn 0.3672 -0.9291 0.0438
vn -0.6327 -0.7740 0.0266
vn -0.0223 -0.0077 0.9997
vn 0.1186 -0.0009 0.9929
vn 0.5491 -0.3788 0.7450
vn -0.9529 -0.2329 0.1943
vn -0.1198 -0.2522 0.9602
vn -0.1746 0.0082 0.9846
vn -0.0412 -0.1108 0.9930
vn -0.5354 -0.5973 0.5972
vn 0.3382 -0.5445 0.7676
vn 0.0001 -1.0000 -0.0001
vn 0.0000 -1.0000 -0.0010
vn 1.0000 0.0000 0.0000
vn 0.0001 -1.0000 0.0000
vn 0.0003 -1.0000 0.0018
vn 0.0002 -1.0000 0.0005
vn 0.9999 0.0142 0.0098
vn 0.9642 0.2315 -0.1297
vn 0.9801 0.1828 -0.0778
vn 0.9996 -0.0100 0.0251
vn 0.9682 -0.0667 0.2412
vn 0.9441 -0.1052 0.3123
vn -0.1971 -0.0050 -0.9804
vn -0.1897 -0.0000 -0.9818
vn 0.0000 -0.1353 0.9908
vn 0.0000 0.0000 1.0000
vn 0.8063 0.4656 -0.3648
vn 0.8876 0.3921 -0.2417
vn 0.8019 -0.1634 0.5747
vn -0.1790 0.0508 -0.9825
vn -0.1167 0.2296 -0.9663
vn -0.0200 0.4235 -0.9057
vn 0.0086 0.4587 -0.8886
vn 0.0521 0.4999 -0.8645
vn -0.9953 -0.0253 -0.0935
vn -0.9961 -0.0242 -0.0851
vn -0.9510 0.1818 -0.2502
vn -0.8397 0.2382 -0.4881
vn 0.2182 -0.3133 0.9242
vn 0.0000 -0.1358 0.9907
vn -0.7812 -0.1962 0.5926
vn -0.9527 -0.0974 0.2877
vn 0.2621 0.6643 -0.7000
vn 0.1704 0.6961 -0.6975
vn 0.3263 -0.1477 0.9336
vn -0.1872 0.3684 -0.9106
vn -0.3000 -0.1474 0.9425
vn -0.1884 -0.2905 0.9382
vn -0.9965 -0.0428 -0.0720
vn -0.9985 0.0555 0.0042
vn -0.6099 -0.0582 -0.7904
vn -0.9770 -0.2131 0.0083
vn -0.2779 -0.0130 0.9605
vn -0.5435 0.1426 -0.8272
vn -0.0185 -0.0246 0.9995
vn -0.5191 -0.0554 0.8529
vn -0.9613 0.2538 -0.1072
vn -0.6939 0.2273 -0.6833
vn -0.5151 -0.3188 -0.7956
vn 0.9815 -0.1900 0.0226
vn -0.5064 -0.2168 -0.8346
vn 0.8000 -0.2909 -0.5247
vn -0.0861 0.0558 0.9947
vn -0.7903 0.5970 0.1378
vn -0.0341 -0.0218 -0.9992
vn -0.1649 -0.3959 -0.9034
vn 0.9963 -0.0848 0.0148
vn 0.4921 -0.3314 -0.8049
vn -0.1029 0.0777 0.9916
vn -0.5354 0.7885 -0.3028
vn -0.3366 0.2196 -0.9157
vn -0.0199 -0.4550 -0.8903
vn 0.9616 0.1471 0.2316
vn 0.1147 0.0274 0.9930
vn 0.4392 -0.3294 -0.8358
vn 0.7241 -0.0282 -0.6891
vn -0.0116 0.0035 -0.9999
vn -0.0124 0.0063 -0.9999
vn 0.3877 -0.1357 -0.9117
vn 0.0220 0.0293 0.9993
vn -0.1472 0.5079 0.8487
vn -0.5856 0.7680 -0.2593
vn -0.3315 0.5221 -0.7858
vn 0.1389 -0.3966 -0.9074
vn 0.6449 0.0125 -0.7642
vn 0.0473 0.0559 0.9973
vn 0.0397 0.0345 0.9986
vn 0.0660 0.4169 0.9065
vn -0.3457 0.9378 0.0327
vn 0.0000 0.9990 -0.0451
vn 0.0000 0.5514 -0.8343
vn 0.1542 0.4137 -0.8973
vn 0.2420 -0.0503 -0.9690
vn 0.0461 -0.0269 -0.9986
vn 0.8698 0.4465 -0.2100
vn 0.2037 0.9624 0.1797
vn 0.6191 0.2630 -0.7400
vn 0.2557 0.4410 -0.8603
vn 0.5135 0.2767 -0.8123
vn 0.7312 0.6812 -0.0375
vn 0.5277 0.8307 -0.1776
vn 0.0063 0.0531 -0.9986
vn -0.0310 0.0507 -0.9982
vn -0.5212 0.8534 0.0028
vn -0.4576 0.8891 0.0057
vn 0.1178 0.9930 0.0064
vn 0.0098 -0.1757 -0.9844
vn 0.0100 0.0531 -0.9985
vn -0.2059 0.0253 -0.9782
vn -0.1401 0.0363 -0.9895
vn 0.0008 -0.2007 -0.9796
vn -0.2020 -0.1967 -0.9594
vn -0.0320 0.0622 0.9975
vn 0.0127 0.0648 0.9978
vn 0.1923 0.9813 0.0089
vn 0.9546 0.0511 -0.2936
vn 0.0227 0.0591 -0.9980
vn -0.3063 -0.2392 -0.9214
vn -0.5501 -0.0051 -0.8351
vn -0.9993 -0.0092 -0.0353
vn -1.0000 -0.0050 0.0000
vn -1.0000 -0.0048 0.0002
vn -0.9681 0.2507 0.0002
vn -0.9616 0.2745 0.0012
vn -0.1607 0.0459 0.9859
vn 0.0008 -0.1966 0.9805
vn 0.0083 0.0650 0.9979
vn 0.3591 0.9333 0.0052
vn 0.3619 0.9322 0.0059
vn 0.9407 0.3393 0.0021
vn 0.9596 0.2812 0.0001
vn 0.9932 0.0497 -0.1049
vn 0.9994 0.0342 -0.0012
vn 0.4756 -0.1051 0.8733
vn 0.0081 -0.1759 0.9844
vn -0.7458 -0.0796 -0.6614
vn -0.9986 -0.0103 0.0513
vn -0.7291 -0.0075 0.6844
vn -0.2481 0.0316 0.9682
vn -0.2075 -0.2625 0.9423
vn -0.3093 -0.1979 0.9301
vn 0.9001 0.0640 0.4310
vn 0.0288 0.0743 0.9968
vn 0.9916 0.0562 0.1165
vn 0.9993 0.0365 0.0000
vn -0.9637 -0.0769 -0.2557
vn -0.9638 -0.0770 0.2552
vn -0.8549 -0.0734 0.5136
usemtl Default_OBJ.004
s off
f 1//1 2//1 3//1
f 2//2 4//2 3//2
f 2//3 1//3 5//3
f 3//4 6//4 1//4
f 5//5 7//5 2//5
f 2//6 7//6 8//6
f 4//7 9//7 6//7
f 6//8 3//8 4//8
f 6//9 10//9 11//9
f 6//10 5//10 1//10
f 2//11 8//11 12//11
f 10//12 6//12 9//12
f 10//13 9//13 13//13
f 4//14 14//14 9//14
f 6//15 15//15 5//15
f 7//16 16//16 8//16
f 8//17 17//17 12//17
f 12//18 14//18 2//18
f 4//19 2//19 14//19
f 9//20 18//20 13//20
f 5//21 15//21 7//21
f 15//22 16//22 7//22
f 19//23 20//23 9//23
f 14//24 19//24 9//24
f 6//25 16//25 15//25
f 8//26 16//26 17//26
f 9//27 20//27 18//27
f 20//28 19//28 21//28
f 20//29 21//29 22//29
f 6//30 11//30 16//30
f 17//31 21//31 12//31
f 18//32 23//32 13//32
f 12//33 19//33 14//33
f 12//34 21//34 19//34
f 20//35 22//35 18//35
f 13//36 24//36 25//36
f 13//37 25//37 10//37
f 10//38 25//38 24//38
f 10//39 26//39 11//39
f 11//40 26//40 16//40
f 17//41 16//41 27//41
f 27//42 22//42 17//42
f 18//43 22//43 28//43
f 18//44 28//44 23//44
f 24//45 26//45 10//45
f 22//46 21//46 17//46
f 23//47 24//47 13//47
f 16//48 26//48 27//48
f 27//49 29//49 28//49
f 22//50 27//50 28//50
f 24//51 23//51 29//51
f 24//52 29//52 26//52
f 27//53 26//53 29//53
f 28//54 29//54 23//54
f 30//55 31//55 32//55
f 30//56 32//56 33//56
f 30//57 33//57 34//57
f 30//58 34//58 35//58
f 30//59 35//59 36//59
f 30//60 36//60 37//60
f 30//60 37//60 31//60
f 31//61 38//61 39//61
f 31//62 39//62 32//62
f 32//63 39//63 40//63
f 32//64 40//64 41//64
f 32//65 41//65 33//65
f 33//66 41//66 34//66
f 34//67 41//67 42//67
f 34//68 43//68 44//68
f 34//69 44//69 35//69
f 35//70 44//70 36//70
f 36//71 44//71 45//71
f 36//72 45//72 37//72
f 31//73 37//73 38//73
f 38//74 37//74 45//74
f 38//75 45//75 46//75
f 38//76 46//76 39//76
f 39//77 46//77 47//77
f 34//78 42//78 48//78
f 43//79 34//79 49//79
f 43//80 49//80 50//80
f 43//80 50//80 51//80
f 43//80 51//80 52//80
f 43//80 52//80 47//80
f 43//80 47//80 46//80
f 43//80 46//80 44//80
f 41//81 40//81 42//81
f 42//82 40//82 53//82
f 44//83 46//83 45//83
f 39//84 47//84 54//84
f 39//85 54//85 40//85
f 40//86 54//86 53//86
f 34//87 55//87 49//87
f 34//88 48//88 55//88
f 42//89 53//89 48//89
f 48//90 53//90 56//90
f 53//91 54//91 56//91
f 47//92 52//92 54//92
f 56//93 54//93 57//93
f 55//94 48//94 58//94
f 49//95 55//95 58//95
f 49//96 58//96 50//96
f 48//97 56//97 50//97
f 54//98 52//98 57//98
f 57//99 51//99 56//99
f 48//100 50//100 58//100
f 52//101 51//101 57//101
f 56//102 51//102 50//102
f 59//103 60//103 61//103
f 59//103 61//103 62//103
f 59//103 62//103 63//103
f 59//103 63//103 64//103
f 59//103 64//103 65//103
f 59//103 65//103 66//103
f 59//104 67//104 68//104
f 59//105 68//105 60//105
f 68//106 67//106 69//106
f 59//107 66//107 67//107
f 70//108 67//108 71//108
f 67//109 70//109 69//109
f 66//110 72//110 67//110
f 69//111 73//111 68//111
f 60//112 68//112 61//112
f 66//113 65//113 72//113
f 67//114 72//114 71//114
f 74//115 73//115 69//115
f 61//116 68//116 75//116
f 65//117 76//117 72//117
f 70//118 71//118 77//118
f 61//119 75//119 62//119
f 65//120 64//120 78//120
f 65//121 78//121 76//121
f 72//122 76//122 71//122
f 76//123 78//123 79//123
f 70//124 80//124 69//124
f 62//125 75//125 81//125
f 68//126 73//126 75//126
f 76//127 79//127 71//127
f 71//128 79//128 77//128
f 69//129 82//129 74//129
f 62//130 81//130 63//130
f 75//131 73//131 81//131
f 83//132 77//132 79//132
f 70//133 77//133 83//133
f 80//134 82//134 69//134
f 74//135 84//135 73//135
f 73//136 84//136 81//136
f 80//137 85//137 82//137
f 64//138 63//138 86//138
f 78//139 83//139 79//139
f 83//140 80//140 70//140
f 83//141 85//141 80//141
f 82//142 84//142 74//142
f 86//143 63//143 87//143
f 64//144 86//144 78//144
f 78//145 86//145 83//145
f 81//146 84//146 87//146
f 85//147 87//147 82//147
f 81//148 87//148 63//148
f 87//149 85//149 86//149
f 84//150 82//150 87//150
f 83//151 86//151 85//151
f 88//152 89//152 90//152
f 88//80 90//80 91//80
f 88//153 92//153 89//153
f 89//154 93//154 94//154
f 89//155 95//155 90//155
f 89//9 92//9 96//9
f 89//9 96//9 97//9
f 89//9 97//9 98//9
f 89//9 98//9 99//9
f 89//9 99//9 93//9
f 90//156 95//156 100//156
f 90//157 100//157 101//157
f 93//158 102//158 94//158
f 93//159 99//159 103//159
f 93//160 103//160 102//160
f 89//161 94//161 95//161
f 95//162 94//162 104//162
f 95//163 104//163 100//163
f 92//164 88//164 105//164
f 92//165 105//165 96//165
f 100//80 106//80 101//80
f 101//166 107//166 90//166
f 102//167 103//167 108//167
f 102//167 108//167 109//167
f 102//167 109//167 110//167
f 102//167 110//167 111//167
f 102//167 111//167 112//167
f 102//167 112//167 113//167
f 102//167 113//167 114//167
f 102//167 114//167 107//167
f 102//167 107//167 104//167
f 102//167 104//167 94//167
f 99//168 98//168 108//168
f 99//169 108//169 103//169
f 100//170 104//170 106//170
f 96//171 105//171 115//171
f 96//172 115//172 116//172
f 96//173 116//173 110//173
f 96//174 110//174 109//174
f 96//175 109//175 97//175
f 88//176 112//176 105//176
f 105//177 112//177 111//177
f 105//178 111//178 110//178
f 105//179 110//179 115//179
f 106//180 107//180 101//180
f 107//181 114//181 90//181
f 88//182 91//182 113//182
f 113//183 112//183 88//183
f 108//184 98//184 97//184
f 108//185 97//185 109//185
f 106//186 104//186 107//186
f 115//187 110//187 116//187
f 91//188 114//188 113//188
f 90//189 114//189 91//189
f 117//190 118//190 119//190
f 117//191 120//191 118//191
f 118//192 121//192 119//192
f 119//193 122//193 117//193
f 117//194 122//194 120//194
f 118//195 123//195 121//195
f 122//80 124//80 125//80
f 122//196 125//196 126//196
f 120//197 122//197 126//197
f 118//198 120//198 127//198
f 127//199 123//199 118//199
f 122//200 119//200 128//200
f 125//201 129//201 130//201
f 121//202 128//202 119//202
f 129//203 125//203 131//203
f 126//204 132//204 120//204
f 120//205 133//205 127//205
f 121//206 134//206 128//206
f 128//207 134//207 122//207
f 130//208 129//208 135//208
f 125//209 124//209 131//209
f 132//210 133//210 120//210
f 127//211 133//211 123//211
f 123//212 136//212 121//212
f 122//213 134//213 124//213
f 135//214 137//214 130//214
f 130//215 137//215 125//215
f 124//216 138//216 131//216
f 129//217 131//217 135//217
f 121//218 139//218 134//218
f 121//219 136//219 139//219
f 131//220 138//220 140//220
f 126//221 125//221 132//221
f 132//222 141//222 133//222
f 123//223 133//223 142//223
f 136//224 123//224 142//224
f 124//225 134//225 138//225
f 131//226 140//226 135//226
f 132//227 137//227 143//227
f 132//228 125//228 137//228
f 132//229 143//229 141//229
f 133//230 141//230 142//230
f 141//231 144//231 142//231
f 142//232 144//232 136//232
f 136//233 144//233 139//233
f 138//234 139//234 140//234
f 134//235 139//235 138//235
f 135//236 145//236 137//236
f 141//237 143//237 144//237
f 140//238 145//238 135//238
f 144//239 145//239 139//239
f 140//240 139//240 145//240
f 143//241 137//241 145//241
f 143//242 145//242 144//242
f 146//243 147//243 148//243
f 146//244 148//244 149//244
f 146//245 149//245 150//245
f 146//246 150//246 151//246
f 146//247 151//247 147//247
f 148//248 152//248 153//248
f 148//249 147//249 152//249
f 148//250 154//250 155//250
f 148//251 155//251 149//251
f 148//252 153//252 156//252
f 148//253 156//253 154//253
f 150//254 157//254 151//254
f 151//255 157//255 158//255
f 151//256 158//256 147//256
f 152//257 159//257 153//257
f 152//258 147//258 159//258
f 153//154 160//154 161//154
f 153//80 161//80 162//80
f 153//80 162//80 163//80
f 153//80 163//80 164//80
f 153//80 164//80 165//80
f 153//80 165//80 166//80
f 153//80 166//80 156//80
f 154//259 156//259 166//259
f 155//260 154//260 167//260
f 155//261 167//261 165//261
f 155//262 165//262 164//262
f 155//263 164//263 168//263
f 155//264 168//264 149//264
f 149//265 168//265 150//265
f 150//266 168//266 157//266
f 157//267 162//267 161//267
f 158//268 157//268 169//268
f 147//269 158//269 159//269
f 159//270 158//270 170//270
f 159//271 170//271 171//271
f 159//272 171//272 172//272
f 159//273 172//273 153//273
f 153//274 172//274 160//274
f 161//275 160//275 169//275
f 161//276 169//276 157//276
f 154//277 166//277 167//277
f 164//278 173//278 168//278
f 168//279 173//279 174//279
f 168//280 174//280 157//280
f 157//281 174//281 163//281
f 157//282 163//282 162//282
f 169//283 160//283 170//283
f 169//284 170//284 158//284
f 170//285 160//285 171//285
f 171//286 160//286 172//286
f 166//287 165//287 167//287
f 164//288 163//288 173//288
f 163//289 174//289 173//289
