# Blender v3.0.1 OBJ File: ''
# www.blender.org
mtllib torso3.mtl
o buttock
v -0.009615 0.157997 0.042403
v 0.028794 0.149992 0.056568
v 0.040127 0.157997 0.015744
v 0.030361 0.157997 -0.028305
v -0.009615 0.157997 -0.042405
v -0.040446 0.157997 0.001270
v -0.009006 0.149992 0.063462
v -0.058027 0.029072 0.073486
v 0.058039 0.029072 0.073486
v -0.042734 0.149992 0.048472
v -0.061691 0.024263 0.045720
v 0.061755 0.024263 0.045720
v -0.063896 0.149992 0.005010
v 0.064987 0.149992 0.000007
v 0.058218 0.149992 0.027378
v -0.061908 0.019617 -0.060785
v 0.061908 0.019617 -0.060785
v -0.044032 0.149992 -0.046898
v -0.047058 0.044771 -0.069401
v 0.047096 0.044771 -0.069401
v -0.059299 0.149992 -0.025664
v 0.054324 0.149992 -0.034466
v 0.028049 0.149992 -0.057262
v -0.009006 0.149992 -0.063462
v -0.062035 0.019597 -0.056754
v -0.064389 0.003493 -0.073499
v -0.062334 -0.017075 -0.056752
v -0.051473 -0.039036 -0.056752
v -0.027747 -0.058162 -0.056752
v -0.000051 -0.064837 -0.056752
v 0.043879 -0.045949 -0.056752
v 0.063384 -0.011316 -0.056752
v -0.058151 0.028159 -0.073499
v -0.043364 0.047893 -0.073498
v 0.050210 0.040191 -0.073499
v 0.063549 0.009299 -0.073499
v 0.055144 -0.034067 -0.073499
v 0.041471 -0.049305 -0.073499
v 0.015133 -0.062244 -0.073499
v -0.020125 -0.061210 -0.073499
v -0.049984 -0.040445 -0.073499
v -0.061978 -0.019101 -0.073499
v 0.061933 0.019597 -0.056754
v 0.017548 0.064468 -0.066440
v -0.017573 0.064468 -0.066440
v -0.054044 0.037782 -0.061073
v 0.000000 0.064322 -0.073496
v 0.031749 0.056540 -0.073497
v 0.063632 -0.008273 -0.056739
v 0.064987 0.024225 0.000034
v 0.064975 -0.000034 0.073483
v 0.050372 -0.040766 -0.056739
v 0.033229 -0.055387 -0.056739
v 0.008208 -0.064303 -0.056739
v -0.024162 -0.060148 -0.056739
v -0.044462 -0.046438 -0.056739
v -0.061122 -0.020977 -0.056739
v -0.064968 0.000637 -0.056739
v -0.062035 0.019574 -0.056739
v 0.061908 0.019574 -0.056739
v 0.058027 0.029042 0.073483
v 0.061984 0.024225 -0.043683
v -0.062061 0.024225 -0.043683
v -0.058039 0.029042 0.073483
v -0.064567 -0.007066 0.073483
v -0.059006 -0.026807 0.073483
v -0.033174 -0.055421 0.073483
v -0.004104 -0.064317 0.073483
v 0.025918 -0.059172 0.073483
v 0.055144 -0.034069 0.073483
v 0.061921 -0.019122 0.073483
v -0.065000 0.024225 -0.000030
v 0.023762 0.089207 -0.060433
v 0.033926 0.102860 -0.055415
v 0.049782 0.110055 -0.041695
v -0.049776 0.110055 -0.041695
v -0.023737 0.089207 -0.060433
v -0.014028 0.089207 -0.063410
v -0.005357 0.089207 -0.064774
v 0.005353 0.089207 -0.064775
v 0.014070 0.089207 -0.063399
v 0.020141 0.144884 -0.061797
v 0.027611 0.144884 -0.058832
v -0.047378 0.110055 -0.044501
v -0.033920 0.102860 -0.055415
v 0.038165 0.144884 -0.052443
v 0.042429 0.110055 -0.049183
v 0.049470 0.144889 -0.041977
v -0.038089 0.144884 -0.052496
v -0.049464 0.144889 -0.041977
v -0.027664 0.144884 -0.058812
v -0.020141 0.144884 -0.061798
v 0.012097 0.144884 -0.063861
v 0.004130 0.144884 -0.064866
v -0.004124 0.144884 -0.064866
v -0.012130 0.144884 -0.063855
v 0.038063 0.079995 0.052621
v 0.029621 0.079997 0.057796
v 0.021860 0.079995 0.061208
v 0.014060 0.079995 0.063406
v 0.002772 0.079995 0.064879
v -0.005519 0.079995 0.064761
v -0.013997 0.079995 0.063422
v -0.021694 0.079995 0.061269
v -0.029498 0.079995 0.057861
v -0.038068 0.079995 0.052621
v -0.046942 0.098555 0.044936
v 0.046947 0.098555 0.044936
v -0.048372 0.108369 0.043395
v 0.048377 0.108375 0.043395
v 0.041416 0.144885 0.050094
v 0.031200 0.144879 0.056862
v -0.048296 0.144873 0.043395
v 0.048291 0.144879 0.043395
v -0.038073 0.144882 0.052512
v -0.000095 0.144879 0.064863
v 0.012086 0.144879 0.063858
v 0.020070 0.144879 0.061813
v -0.023891 0.144879 0.060305
v -0.012167 0.144879 0.063843
v -0.064847 0.003796 0.034316
v -0.064669 0.006598 0.034316
v -0.064873 0.006598 0.025791
v -0.064911 0.003796 0.028616
v -0.064987 0.003796 0.015887
v -0.065000 0.003796 -0.000028
v -0.064949 0.003796 -0.024922
v -0.064898 0.003796 -0.029120
v 0.064885 0.003796 -0.029120
v 0.064968 0.003796 -0.020343
v 0.065000 0.003796 0.000046
v 0.064898 0.003796 0.033211
v 0.064847 0.003796 0.034316
v 0.064720 0.006598 0.034316
v -0.064911 0.006599 -0.024065
v -0.065000 0.006598 -0.000022
v -0.064955 0.006598 0.016613
v 0.064917 0.006599 -0.022982
v 0.064784 0.006599 -0.029120
v -0.064809 0.006599 -0.029120
v 0.064924 0.006598 0.019445
v 0.064796 0.006598 0.031975
v 0.065000 0.006598 0.000046
v 0.064975 0.006598 -0.013255
vn 0.1195 0.9675 0.2229
vn 0.0000 1.0000 0.0000
vn 0.0644 0.9334 0.3530
vn 0.0000 0.0826 0.9966
vn 0.1766 0.1781 0.9680
vn -0.3949 0.2337 0.8885
vn -0.1577 0.9215 0.3549
vn 0.0000 -0.9853 0.1706
vn -0.8809 0.2001 0.4289
vn -0.9916 0.0237 0.1268
vn 0.9914 0.0214 0.1290
vn 0.9668 0.0898 0.2391
vn 0.6800 0.2604 0.6854
vn -0.2054 0.9665 0.1540
vn 0.0000 -0.9990 0.0436
vn -0.2988 0.9432 0.1455
vn 0.2509 0.9344 0.2529
vn 0.3553 0.9306 0.0879
vn -0.9999 -0.0166 0.0028
vn 0.2713 0.9606 -0.0601
vn -0.6936 0.1697 -0.7001
vn 0.0000 -0.3241 -0.9460
vn -0.9872 0.0596 -0.1479
vn -0.8000 0.1709 -0.5752
vn -0.3297 0.9428 -0.0494
vn 0.7044 0.1796 -0.6867
vn 0.9491 0.1145 -0.2936
vn -0.2028 0.9683 -0.1458
vn 0.6419 0.2015 -0.7398
vn 0.2398 0.9306 -0.2764
vn 0.2944 0.9513 -0.0911
vn 0.9997 -0.0248 0.0025
vn -0.2061 0.9677 -0.1455
vn -0.1677 0.9199 -0.3546
vn -0.4187 0.2014 -0.8855
vn 0.1633 0.1422 -0.9763
vn 0.0591 0.9337 -0.3532
vn 0.0000 0.0564 -0.9984
vn 0.0961 0.9574 -0.2723
vn -0.9913 0.0081 0.1316
vn 0.0001 0.0000 1.0000
vn 0.0000 0.0000 1.0000
vn 0.0001 -0.0000 -1.0000
vn -0.0000 0.0000 -1.0000
vn -0.9943 -0.1061 -0.0083
vn -0.9647 0.2440 -0.0990
vn 0.0000 0.0001 1.0000
vn 0.0000 0.2110 0.9775
vn -0.0380 0.2467 0.9683
vn 0.0000 0.9998 -0.0207
vn -0.5654 0.8070 0.1707
vn -0.7847 0.5880 -0.1960
vn -0.9161 0.4008 -0.0076
vn -0.8712 -0.4895 -0.0363
vn -0.8958 -0.4430 0.0346
vn 0.6032 0.6810 0.4152
vn 0.5935 0.6800 0.4305
vn 0.0000 0.0001 -1.0000
vn -0.2631 0.6945 -0.6697
vn 0.9966 0.0468 0.0674
vn 0.9072 0.3917 -0.1534
vn 0.2030 0.8284 -0.5221
vn -0.5675 -0.8160 -0.1098
vn -0.6276 -0.7785 0.0097
vn 0.9579 -0.1857 -0.2191
vn 0.8477 -0.4774 0.2315
vn -0.0288 -0.9835 -0.1784
vn 0.7440 -0.6676 0.0268
vn -0.2337 -0.9698 0.0701
vn 0.4380 -0.8915 0.1157
vn 0.3861 -0.8980 0.2110
vn 0.9996 -0.0266 -0.0086
vn 0.3722 0.9278 -0.0256
vn 0.0000 0.9992 -0.0411
vn 0.9874 -0.1580 -0.0002
vn 0.9946 0.0779 -0.0683
vn -0.3748 0.9268 -0.0252
vn 0.9698 0.2317 0.0767
vn 0.9977 0.0618 -0.0278
vn 0.0000 0.9420 -0.3356
vn 0.9105 -0.4128 -0.0224
vn 0.9258 -0.3778 -0.0145
vn -0.9866 0.1528 -0.0564
vn -0.9852 0.1582 -0.0663
vn -1.0000 -0.0077 0.0026
vn -0.9808 0.1773 0.0812
vn -0.9845 -0.1752 -0.0073
vn -0.9625 -0.2711 0.0035
vn 0.6488 -0.7608 0.0153
vn 0.6515 -0.7585 0.0145
vn 0.3357 -0.9419 -0.0085
vn -0.8367 -0.5475 -0.0109
vn 0.1689 -0.9855 0.0159
vn -0.1273 -0.9918 -0.0121
vn -0.7421 -0.6700 0.0181
vn -0.5597 -0.8287 -0.0087
vn -0.2926 -0.9561 0.0145
vn 0.6975 -0.2763 -0.6612
vn 0.0000 -0.6685 0.7437
vn 0.0000 -1.0000 -0.0000
vn 0.3689 0.0012 -0.9295
vn 0.4484 -0.0053 -0.8938
vn -0.7140 -0.3436 -0.6100
vn -0.6890 -0.2662 -0.6741
vn 0.5179 0.0083 -0.8554
vn 0.6944 -0.2300 -0.6818
vn 0.0000 1.0000 -0.0005
vn 0.0000 0.0081 1.0000
vn -0.4479 -0.0056 -0.8940
vn -0.3689 0.0010 -0.9295
vn 0.2927 -0.0044 -0.9562
vn 0.5927 -0.0028 -0.8054
vn 0.6793 0.0145 -0.7337
vn 0.7135 0.0007 -0.7006
vn -0.7603 0.0015 -0.6496
vn -0.5182 0.0080 -0.8552
vn -0.2932 -0.0045 -0.9560
vn 0.2485 0.0008 -0.9686
vn 0.1559 -0.0027 -0.9878
vn 0.1252 0.0011 -0.9921
vn 0.0000 -0.0016 -1.0000
vn -0.6789 0.0125 -0.7342
vn -0.6328 -0.0090 -0.7743
vn -0.0001 -0.0017 -1.0000
vn -0.1253 0.0011 -0.9921
vn -0.1554 -0.0026 -0.9879
vn -0.2488 0.0007 -0.9686
vn 0.0012 -1.0000 0.0023
vn 0.0000 -0.3825 -0.9239
vn 0.0000 -0.1552 -0.9879
vn 0.0000 -0.1551 -0.9879
vn 0.6600 -0.0048 0.7512
vn 0.5523 0.0039 0.8337
vn 0.7277 0.0017 0.6859
vn 0.6979 0.0036 0.7162
vn -0.0001 1.0000 -0.0010
vn 0.0000 1.0000 0.0006
vn 0.0003 1.0000 0.0010
vn 0.0013 1.0000 0.0029
vn -0.0000 1.0000 0.0003
vn 0.5226 -0.0004 0.8526
vn -0.6532 0.0012 0.7572
vn -0.6656 0.0054 0.7463
vn -0.7283 0.0015 0.6852
vn 0.0822 0.0039 0.9966
vn 0.1294 -0.0030 0.9916
vn 0.2481 0.0008 0.9687
vn 0.2712 -0.0015 0.9625
vn 0.4065 0.0027 0.9137
vn 0.4025 0.0034 0.9154
vn -0.0003 1.0000 0.0009
vn -0.5216 0.0014 0.8532
vn -0.0143 -0.0004 0.9999
vn -0.4816 0.0086 0.8764
vn -0.4003 0.0001 0.9164
vn -0.2693 0.0052 0.9630
vn -0.2889 0.0019 0.9574
vn -0.1559 -0.0020 0.9878
vn -0.0842 0.0055 0.9964
vn -0.9977 0.0634 0.0238
vn -0.9996 0.0249 0.0112
vn -0.0018 1.0000 0.0000
vn -0.0052 1.0000 0.0000
vn -0.0046 1.0000 0.0000
vn -0.9997 0.0227 0.0090
vn 0.9979 0.0453 0.0460
vn -0.9999 0.0147 -0.0037
vn -0.9999 0.0107 0.0027
vn -0.9999 0.0098 0.0060
vn 0.9991 0.0408 0.0101
vn 0.9982 0.0506 0.0326
vn 0.0002 1.0000 0.0000
vn -0.9998 0.0173 -0.0121
vn -0.9993 0.0318 -0.0201
vn -1.0000 0.0000 -0.0020
vn 0.0053 1.0000 0.0000
vn 0.0091 1.0000 0.0000
vn -1.0000 0.0000 0.0008
vn 0.9999 0.0102 0.0039
vn 0.0069 1.0000 0.0000
vn 1.0000 0.0026 -0.0019
vn 0.9999 0.0126 -0.0059
vn 0.9999 0.0093 -0.0094
vn 0.9991 0.0363 -0.0217
vn 1.0000 0.0000 0.0031
vn 1.0000 0.0000 -0.0016
usemtl Default_OBJ.005
s off
f 1//1 2//1 3//1
f 1//2 3//2 4//2
f 1//2 4//2 5//2
f 1//2 5//2 6//2
f 1//3 7//3 2//3
f 7//4 8//4 9//4
f 7//5 9//5 2//5
f 8//6 7//6 10//6
f 7//7 1//7 10//7
f 8//8 11//8 12//8
f 8//8 12//8 9//8
f 8//9 10//9 13//9
f 8//10 13//10 11//10
f 9//11 12//11 14//11
f 9//12 14//12 15//12
f 9//13 15//13 2//13
f 1//14 6//14 10//14
f 11//15 16//15 17//15
f 11//15 17//15 12//15
f 10//16 6//16 13//16
f 3//17 2//17 15//17
f 14//18 3//18 15//18
f 13//19 16//19 11//19
f 3//20 14//20 4//20
f 16//21 18//21 19//21
f 16//22 19//22 20//22
f 16//22 20//22 17//22
f 16//23 13//23 21//23
f 16//24 21//24 18//24
f 6//25 21//25 13//25
f 17//26 20//26 22//26
f 17//27 22//27 14//27
f 21//28 6//28 18//28
f 20//29 23//29 22//29
f 22//30 23//30 4//30
f 22//31 4//31 14//31
f 17//32 14//32 12//32
f 18//33 6//33 5//33
f 18//34 5//34 24//34
f 18//35 24//35 19//35
f 20//36 24//36 23//36
f 24//37 5//37 23//37
f 24//38 20//38 19//38
f 23//39 5//39 4//39
f 25//40 26//40 27//40
f 25//41 27//41 28//41
f 25//42 28//42 29//42
f 25//42 29//42 30//42
f 25//42 30//42 31//42
f 25//42 31//42 32//42
f 26//43 33//43 34//43
f 26//44 34//44 35//44
f 26//44 35//44 36//44
f 26//44 36//44 37//44
f 26//44 37//44 38//44
f 26//44 38//44 39//44
f 26//44 39//44 40//44
f 26//44 40//44 41//44
f 26//44 41//44 42//44
f 27//45 26//45 42//45
f 26//46 25//46 33//46
f 25//47 32//47 43//47
f 25//48 43//48 44//48
f 25//48 44//48 45//48
f 25//49 45//49 46//49
f 45//50 44//50 47//50
f 46//51 45//51 34//51
f 46//52 34//52 33//52
f 46//53 33//53 25//53
f 41//54 28//54 42//54
f 42//55 28//55 27//55
f 43//56 35//56 48//56
f 43//57 48//57 44//57
f 47//58 48//58 34//58
f 47//59 34//59 45//59
f 43//60 32//60 36//60
f 36//61 35//61 43//61
f 44//62 48//62 47//62
f 34//58 48//58 35//58
f 41//63 40//63 29//63
f 41//64 29//64 28//64
f 36//65 32//65 37//65
f 37//66 32//66 31//66
f 40//67 39//67 30//67
f 37//68 31//68 38//68
f 29//69 40//69 30//69
f 31//70 39//70 38//70
f 39//71 31//71 30//71
f 49//72 50//72 51//72
f 49//44 52//44 53//44
f 49//44 53//44 54//44
f 49//44 54//44 55//44
f 49//44 55//44 56//44
f 49//44 56//44 57//44
f 49//44 57//44 58//44
f 49//44 58//44 59//44
f 49//44 59//44 60//44
f 61//73 50//73 62//73
f 61//74 62//74 63//74
f 61//74 63//74 64//74
f 51//42 61//42 64//42
f 51//42 64//42 65//42
f 51//42 65//42 66//42
f 51//42 66//42 67//42
f 51//42 67//42 68//42
f 51//42 68//42 69//42
f 51//42 69//42 70//42
f 51//42 70//42 71//42
f 49//75 51//75 71//75
f 50//76 49//76 62//76
f 64//77 63//77 72//77
f 50//78 61//78 51//78
f 62//79 49//79 60//79
f 62//80 60//80 59//80
f 62//80 59//80 63//80
f 71//81 70//81 49//81
f 49//82 70//82 52//82
f 63//83 59//83 58//83
f 63//84 58//84 72//84
f 72//85 58//85 65//85
f 72//86 65//86 64//86
f 58//87 57//87 65//87
f 65//88 57//88 66//88
f 53//89 52//89 70//89
f 53//90 70//90 69//90
f 69//91 54//91 53//91
f 66//92 57//92 56//92
f 69//93 68//93 54//93
f 55//94 54//94 68//94
f 66//95 56//95 67//95
f 67//96 56//96 55//96
f 67//97 55//97 68//97
f 73//98 74//98 75//98
f 73//99 75//99 76//99
f 73//99 76//99 77//99
f 73//100 77//100 78//100
f 73//100 78//100 79//100
f 73//100 79//100 80//100
f 73//100 80//100 81//100
f 73//101 82//101 83//101
f 74//102 73//102 83//102
f 77//103 76//103 84//103
f 77//104 84//104 85//104
f 82//2 86//2 83//2
f 83//105 86//105 74//105
f 74//106 87//106 75//106
f 88//107 86//107 89//107
f 88//107 89//107 90//107
f 88//108 90//108 76//108
f 88//108 76//108 75//108
f 77//109 85//109 91//109
f 77//110 91//110 92//110
f 73//111 81//111 82//111
f 86//2 82//2 93//2
f 86//2 93//2 94//2
f 86//2 94//2 95//2
f 86//2 95//2 89//2
f 74//112 86//112 87//112
f 87//113 86//113 88//113
f 87//114 88//114 75//114
f 76//115 90//115 84//115
f 91//116 85//116 89//116
f 89//2 95//2 96//2
f 89//2 96//2 92//2
f 89//2 92//2 91//2
f 92//117 78//117 77//117
f 82//118 81//118 93//118
f 93//119 81//119 80//119
f 93//120 80//120 94//120
f 94//121 80//121 95//121
f 90//122 89//122 84//122
f 84//123 89//123 85//123
f 95//124 80//124 79//124
f 95//125 79//125 96//125
f 96//126 79//126 78//126
f 96//127 78//127 92//127
f 97//128 98//128 99//128
f 97//100 99//100 100//100
f 97//100 100//100 101//100
f 97//100 101//100 102//100
f 97//100 102//100 103//100
f 97//100 103//100 104//100
f 97//100 104//100 105//100
f 97//100 105//100 106//100
f 97//129 106//129 107//129
f 97//129 107//129 108//129
f 108//130 107//130 109//130
f 108//131 109//131 110//131
f 97//132 108//132 111//132
f 97//133 111//133 112//133
f 110//44 109//44 113//44
f 110//44 113//44 114//44
f 108//134 110//134 114//134
f 108//135 114//135 111//135
f 111//136 114//136 113//136
f 111//136 113//136 115//136
f 111//137 116//137 117//137
f 111//138 117//138 118//138
f 111//139 118//139 112//139
f 111//140 115//140 116//140
f 97//141 112//141 98//141
f 107//142 106//142 115//142
f 107//143 115//143 113//143
f 107//144 113//144 109//144
f 116//145 101//145 117//145
f 117//146 101//146 100//146
f 117//147 100//147 118//147
f 118//148 100//148 99//148
f 118//149 99//149 112//149
f 112//150 99//150 98//150
f 115//151 119//151 120//151
f 115//140 120//140 116//140
f 106//152 105//152 115//152
f 116//153 102//153 101//153
f 115//154 105//154 119//154
f 119//155 105//155 104//155
f 119//156 104//156 103//156
f 119//157 103//157 120//157
f 120//158 103//158 102//158
f 120//159 102//159 116//159
f 121//160 122//160 123//160
f 121//161 123//161 124//161
f 121//100 124//100 125//100
f 121//100 125//100 126//100
f 121//100 126//100 127//100
f 121//100 127//100 128//100
f 121//100 128//100 129//100
f 121//100 129//100 130//100
f 121//100 130//100 131//100
f 121//100 131//100 132//100
f 121//100 132//100 133//100
f 121//42 133//42 134//42
f 121//42 134//42 122//42
f 122//162 135//162 123//162
f 123//163 135//163 136//163
f 123//164 136//164 137//164
f 123//165 137//165 124//165
f 133//166 132//166 134//166
f 122//2 134//2 138//2
f 122//2 138//2 135//2
f 135//167 127//167 136//167
f 135//2 138//2 139//2
f 135//2 139//2 140//2
f 137//168 136//168 125//168
f 137//169 125//169 124//169
f 132//170 141//170 142//170
f 132//171 142//171 134//171
f 134//172 142//172 138//172
f 135//173 128//173 127//173
f 135//174 140//174 128//174
f 127//175 126//175 136//175
f 138//176 142//176 143//176
f 138//177 143//177 144//177
f 136//178 126//178 125//178
f 132//179 143//179 141//179
f 141//180 143//180 142//180
f 144//181 143//181 130//181
f 144//182 130//182 138//182
f 130//183 129//183 138//183
f 138//184 129//184 139//184
f 132//185 131//185 143//185
f 143//186 131//186 130//186
f 128//44 140//44 139//44
f 128//44 139//44 129//44
