# Blender v3.0.1 OBJ File: ''
# www.blender.org
mtllib torso1.mtl
o ankle
v 0.031413 -0.043114 -0.104479
v -0.042350 0.353665 -0.117485
v 0.044831 0.333287 -0.116626
v -0.012288 0.404025 -0.100367
v 0.044820 -0.047333 -0.098807
v -0.050958 -0.034199 -0.101097
v 0.044446 0.383752 -0.102058
v -0.065458 0.169755 -0.100402
v -0.049697 0.380293 -0.099643
v 0.004573 -0.065865 -0.098137
v 0.066058 0.344484 -0.099311
v 0.065597 -0.001976 -0.099405
v -0.018830 0.400800 -0.069753
v -0.067356 -0.001383 -0.054035
v 0.023472 -0.061185 -0.051030
v -0.012354 -0.065427 -0.050836
v -0.064212 0.354501 -0.071602
v 0.032512 0.395582 -0.069020
v 0.067316 0.341486 -0.072844
v 0.063072 -0.016746 -0.052798
v -0.057871 0.050029 0.071296
v -0.057353 0.108634 0.071296
v 0.056002 0.117942 0.071296
v 0.057871 0.050029 0.071296
v 0.030124 0.172050 0.071296
v -0.029877 0.172736 0.071296
v -0.054354 -0.038222 -0.051285
v -0.065581 -0.002611 0.099407
v -0.064661 0.341507 0.102294
v -0.066751 0.344494 0.072582
v -0.066900 0.000922 0.052342
v -0.058789 -0.032084 0.098749
v -0.058730 0.365134 0.068641
v -0.048942 0.049988 0.047252
v -0.043499 -0.041405 0.103921
v -0.036033 0.362932 0.117487
v 0.008206 0.327468 0.119169
v -0.000727 -0.057768 0.047482
v 0.010927 0.400371 0.068285
v 0.049073 0.049988 0.047252
v -0.026393 0.400406 0.098965
v -0.007562 -0.064292 0.053569
v -0.029782 -0.059941 0.096321
v 0.057567 0.365468 0.068782
v -0.022605 0.400917 0.070923
v 0.045640 -0.045821 0.051717
v 0.066886 0.000898 0.052353
v 0.066727 0.344482 0.071405
v 0.042376 0.353687 0.117505
v 0.062111 -0.006121 0.103879
v 0.065572 0.341507 0.101116
v 0.067328 -0.001426 0.096309
v 0.047965 -0.043690 0.097738
v 0.050085 0.382264 0.098825
v 0.049317 0.050243 -0.047161
v 0.049181 0.050243 -0.047161
v 0.049071 0.050271 -0.047161
v 0.046476 0.052214 -0.047161
v 0.042025 0.057404 -0.047161
v 0.042025 0.141729 -0.047161
v 0.042719 0.140255 -0.047161
v 0.054016 0.116011 -0.047161
v 0.055746 0.112275 -0.047161
v 0.056795 0.109929 -0.047161
v 0.057388 0.106606 -0.047161
v 0.057571 0.101913 -0.047161
v 0.057565 0.069052 -0.047161
v 0.057564 0.059657 -0.047161
v 0.057033 0.055677 -0.047161
v 0.052841 0.051031 -0.047161
v 0.053919 0.054485 0.042804
v 0.049793 0.055311 0.042804
v 0.056971 0.056362 0.042804
v 0.057200 0.057639 0.042804
v 0.057557 0.059647 0.042804
v 0.057559 0.061487 0.042804
v 0.057565 0.092536 0.042804
v 0.057565 0.101922 0.042804
v 0.057385 0.106625 0.042804
v 0.056794 0.109929 0.042804
v 0.056156 0.111365 0.042804
v 0.055749 0.112275 0.042804
v 0.055074 0.113739 0.042804
v 0.054019 0.116020 0.042804
v 0.043255 0.139119 0.042804
v 0.043255 0.063974 0.042804
v 0.043376 0.061712 0.042804
v 0.043255 0.061731 0.042786
v 0.039968 0.062435 0.016517
v 0.057564 0.059657 -0.041525
v 0.057560 0.059647 0.021140
v 0.057559 0.059647 0.035239
v 0.039968 0.062435 -0.039060
v 0.039968 0.146121 0.016517
v 0.039968 0.146121 -0.039060
v 0.040895 0.144150 0.016517
v 0.040135 0.145774 -0.039060
v 0.057567 0.101922 0.016517
v 0.054019 0.116020 0.039933
v 0.043255 0.139119 0.016517
v 0.057388 0.106615 -0.041525
v 0.057388 0.106615 -0.039931
v 0.047751 0.129470 0.016517
v 0.055749 0.112275 0.016517
vn 0.0023 -0.0323 -0.9995
vn 0.0750 0.2805 -0.9569
vn -0.1148 -0.9077 -0.4037
vn -0.0454 -0.0412 -0.9981
vn 0.0705 0.2772 -0.9582
vn -0.4395 -0.0282 -0.8978
vn -0.3127 0.4677 -0.8267
vn 0.0146 -0.0677 -0.9976
vn 0.6323 -0.0006 -0.7747
vn 0.1919 -0.0385 -0.9807
vn 0.3390 -0.1675 -0.9258
vn 0.3361 0.9265 0.1694
vn 0.5355 0.2380 -0.8103
vn -0.8829 0.0678 -0.4647
vn -0.9558 -0.0670 -0.2863
vn 0.1177 -0.9917 0.0513
vn -0.9999 0.0083 -0.0102
vn -0.5359 0.8439 -0.0256
vn 0.1006 0.9477 -0.3030
vn 0.9989 -0.0013 -0.0476
vn 0.9986 -0.0090 0.0513
vn -0.9106 0.0696 -0.4073
vn -0.4820 -0.8606 -0.1645
vn 0.9056 -0.4159 -0.0828
vn -0.9974 0.0123 0.0704
vn -0.9980 0.0088 0.0631
vn 0.8392 0.5320 0.1127
vn 0.9924 0.0273 0.1203
vn 0.9989 -0.0092 0.0468
vn 0.8756 0.4828 0.0131
vn 0.7419 -0.6555 0.1414
vn 0.4160 -0.9061 -0.0769
vn 0.0923 -0.7495 0.6555
vn 0.0000 -0.7267 0.6870
vn 0.0000 0.0000 1.0000
vn -0.9288 -0.3130 0.1987
vn -0.4728 -0.7215 0.5059
vn -0.9369 -0.3375 -0.0911
vn -0.6952 0.6711 0.2574
vn -0.5399 -0.8352 -0.1043
vn 0.0060 0.5258 0.8506
vn 0.0419 0.5309 0.8464
vn 0.7038 -0.6129 0.3593
vn 0.7252 0.3468 0.5948
vn -0.7452 0.3194 0.5854
vn 0.6727 0.3882 0.6299
vn -0.5093 0.4704 0.7207
vn -0.9975 0.0021 0.0704
vn -0.9996 -0.0012 0.0279
vn -0.9744 -0.2248 0.0104
vn -0.5405 0.0497 -0.8399
vn -0.3962 0.0499 -0.9168
vn -0.3767 -0.1073 0.9201
vn -0.4652 -0.0062 0.8852
vn -0.2170 -0.0099 0.9761
vn -0.0727 -0.0434 0.9964
vn -0.9204 0.3773 0.1027
vn -0.1237 -0.0575 -0.9906
vn -0.0387 0.0665 -0.9970
vn 0.0000 0.0599 -0.9982
vn 0.0000 -0.0021 -1.0000
vn -0.8088 0.5388 0.2357
vn -0.7028 -0.6452 -0.2997
vn -0.6632 -0.6598 -0.3533
vn 0.0603 0.0663 -0.9960
vn -0.5651 -0.6344 0.5274
vn -0.6602 0.4624 0.5919
vn -0.0754 0.1391 -0.9874
vn 0.1036 -0.0500 -0.9934
vn -0.3926 -0.3731 -0.8406
vn 0.4035 0.0515 -0.9135
vn 0.1421 -0.0512 -0.9885
vn 0.3819 0.0513 -0.9228
vn 0.2543 -0.7887 -0.5597
vn 0.0063 0.0552 0.9985
vn -0.6988 0.7107 -0.0814
vn 0.0149 -0.0434 0.9989
vn 0.9103 0.4069 0.0762
vn 0.9999 0.0010 -0.0100
vn 0.9992 0.0046 0.0393
vn 0.0617 -0.1836 0.9811
vn 0.0507 0.4320 0.9004
vn 0.0179 0.9996 0.0206
vn 0.5763 0.7660 -0.2847
vn 0.9101 -0.4135 -0.0268
vn 0.0548 -0.3438 0.9374
vn 0.9337 0.3566 0.0332
vn 0.9083 -0.4172 -0.0312
vn 0.3287 -0.9440 0.0271
vn 0.0744 -0.0337 0.9967
vn 0.2227 0.9368 0.2699
vn 0.8244 -0.0037 0.5659
vn 0.8548 -0.3797 0.3537
vn 0.5773 0.0007 0.8165
vn 0.1247 0.5191 0.8456
vn 0.6486 0.2861 0.7053
vn 0.1970 -0.9598 0.2001
vn 0.0000 0.0000 -1.0000
vn 0.2182 -0.9753 0.0348
vn 0.0000 -0.9989 0.0471
vn -0.1959 -0.9790 0.0565
vn -0.2471 -0.9674 0.0562
vn 0.7424 -0.6699 0.0056
vn 0.5238 -0.8514 0.0264
vn -0.5986 -0.7995 0.0496
vn -0.1682 -0.1685 0.9712
vn -0.6991 -0.7117 0.0684
vn -0.6708 -0.7399 0.0502
vn 0.9843 -0.1767 0.0020
vn 0.9912 -0.1322 0.0000
vn 0.9910 -0.1337 0.0001
vn 0.9907 -0.1358 0.0002
vn 0.9846 -0.1748 0.0020
vn -0.7589 -0.6507 0.0269
vn -0.1457 -0.0078 0.9893
vn -0.9923 -0.0010 0.1242
vn -0.9256 -0.3785 0.0000
vn -0.9923 -0.0000 0.1241
vn -1.0000 0.0000 0.0000
vn 1.0000 -0.0002 0.0000
vn 1.0000 -0.0002 0.0001
vn 1.0000 -0.0005 0.0001
vn 1.0000 -0.0009 0.0002
vn -0.9692 0.0000 -0.2461
vn 0.9049 0.4256 0.0002
vn 0.9049 0.4256 0.0001
vn 0.9011 0.4337 0.0000
vn 1.0000 -0.0000 0.0001
vn 0.9011 0.4337 -0.0063
vn 0.9046 0.4263 -0.0018
vn 0.9064 0.4224 0.0000
vn 0.9054 0.4246 0.0000
vn 0.9052 0.4250 0.0000
vn 0.9056 0.4242 -0.0001
vn 0.9992 0.0389 -0.0001
vn 0.9992 0.0388 0.0000
vn 0.9993 0.0385 0.0000
vn 0.9993 0.0384 0.0001
vn 0.9064 0.4223 -0.0001
vn 0.9077 0.4197 0.0000
vn 0.9845 0.1756 -0.0003
vn 0.9844 0.1761 0.0000
vn 0.9074 0.4202 -0.0001
vn 0.9080 0.4189 0.0000
vn 0.9077 0.4196 -0.0000
vn 0.9129 0.4082 -0.0000
vn 0.9132 0.4075 -0.0000
vn 0.9140 0.4058 0.0000
vn 0.9131 0.4078 0.0000
usemtl Default_OBJ.001
s off
f 1//1 2//1 3//1
f 2//2 4//2 3//2
f 1//3 5//3 6//3
f 1//4 6//4 2//4
f 4//5 7//5 3//5
f 8//6 2//6 6//6
f 2//7 9//7 4//7
f 5//8 10//8 6//8
f 3//9 11//9 12//9
f 3//10 12//10 1//10
f 1//11 12//11 5//11
f 4//12 13//12 7//12
f 3//13 7//13 11//13
f 8//14 9//14 2//14
f 8//15 6//15 14//15
f 10//16 15//16 16//16
f 8//17 14//17 17//17
f 4//18 9//18 13//18
f 13//19 18//19 7//19
f 12//20 11//20 19//20
f 12//21 19//21 20//21
f 9//22 8//22 17//22
f 16//23 6//23 10//23
f 12//24 20//24 5//24
f 14//25 21//25 17//25
f 17//26 21//26 22//26
f 7//27 18//27 19//27
f 19//28 23//28 24//28
f 19//29 24//29 20//29
f 7//30 19//30 11//30
f 5//31 20//31 15//31
f 5//32 15//32 10//32
f 15//33 24//33 16//33
f 16//34 24//34 21//34
f 21//35 24//35 23//35
f 21//35 23//35 25//35
f 21//35 25//35 26//35
f 21//35 26//35 22//35
f 21//36 14//36 27//36
f 21//37 27//37 16//37
f 14//38 6//38 27//38
f 9//39 17//39 13//39
f 6//40 16//40 27//40
f 13//41 26//41 25//41
f 13//42 25//42 18//42
f 24//43 15//43 20//43
f 19//44 25//44 23//44
f 17//45 22//45 26//45
f 19//46 18//46 25//46
f 17//47 26//47 13//47
f 28//48 29//48 30//48
f 28//49 30//49 31//49
f 28//50 31//50 32//50
f 30//51 33//51 31//51
f 31//52 33//52 34//52
f 32//53 35//53 28//53
f 28//54 36//54 29//54
f 35//55 37//55 28//55
f 28//56 37//56 36//56
f 29//57 33//57 30//57
f 34//58 38//58 31//58
f 34//59 33//59 39//59
f 34//60 39//60 40//60
f 34//61 40//61 38//61
f 29//62 41//62 33//62
f 31//63 42//63 43//63
f 31//64 43//64 32//64
f 40//65 39//65 44//65
f 32//66 43//66 35//66
f 29//67 36//67 41//67
f 33//68 45//68 39//68
f 40//69 46//69 38//69
f 31//70 38//70 42//70
f 40//71 44//71 47//71
f 40//72 47//72 46//72
f 44//73 48//73 47//73
f 38//74 46//74 42//74
f 37//75 49//75 36//75
f 33//76 41//76 45//76
f 37//77 35//77 50//77
f 44//78 51//78 48//78
f 47//79 48//79 52//79
f 48//80 51//80 52//80
f 50//81 35//81 53//81
f 36//82 49//82 41//82
f 45//83 41//83 39//83
f 44//84 39//84 54//84
f 47//85 53//85 46//85
f 35//86 43//86 53//86
f 44//87 54//87 51//87
f 52//88 53//88 47//88
f 46//89 53//89 42//89
f 37//90 50//90 49//90
f 41//91 54//91 39//91
f 52//92 51//92 50//92
f 52//93 50//93 53//93
f 49//94 50//94 51//94
f 54//95 41//95 49//95
f 54//96 49//96 51//96
f 42//97 53//97 43//97
f 55//98 56//98 57//98
f 55//98 57//98 58//98
f 55//98 58//98 59//98
f 55//98 59//98 60//98
f 55//98 60//98 61//98
f 55//98 61//98 62//98
f 55//98 62//98 63//98
f 55//98 63//98 64//98
f 55//98 64//98 65//98
f 55//98 65//98 66//98
f 55//98 66//98 67//98
f 55//98 67//98 68//98
f 55//98 68//98 69//98
f 55//98 69//98 70//98
f 55//99 70//99 71//99
f 55//100 71//100 56//100
f 56//101 71//101 72//101
f 56//102 72//102 57//102
f 70//103 69//103 73//103
f 70//104 73//104 71//104
f 71//35 73//35 74//35
f 71//35 74//35 75//35
f 71//35 75//35 76//35
f 71//35 76//35 77//35
f 71//35 77//35 78//35
f 71//35 78//35 79//35
f 71//35 79//35 80//35
f 71//35 80//35 81//35
f 71//35 81//35 82//35
f 71//35 82//35 83//35
f 71//35 83//35 84//35
f 71//35 84//35 85//35
f 71//35 85//35 86//35
f 71//35 86//35 87//35
f 71//35 87//35 72//35
f 72//105 58//105 57//105
f 72//106 87//106 88//106
f 72//107 88//107 89//107
f 72//108 89//108 58//108
f 69//109 74//109 73//109
f 69//110 68//110 90//110
f 69//110 90//110 91//110
f 69//111 91//111 92//111
f 69//112 92//112 75//112
f 69//113 75//113 74//113
f 58//114 89//114 59//114
f 87//115 86//115 88//115
f 88//116 86//116 89//116
f 89//117 93//117 59//117
f 89//118 86//118 85//118
f 89//118 85//118 94//118
f 89//119 94//119 95//119
f 89//119 95//119 93//119
f 68//120 67//120 90//120
f 90//120 67//120 77//120
f 90//121 77//121 91//121
f 91//121 77//121 76//121
f 91//122 76//122 92//122
f 92//123 76//123 75//123
f 59//124 93//124 95//124
f 59//124 95//124 60//124
f 94//125 85//125 96//125
f 94//126 96//126 97//126
f 94//127 97//127 95//127
f 67//120 66//120 77//120
f 77//128 66//128 98//128
f 77//128 98//128 78//128
f 60//129 95//129 97//129
f 60//130 97//130 61//130
f 85//131 84//131 99//131
f 85//131 99//131 100//131
f 85//132 100//132 97//132
f 85//133 97//133 96//133
f 97//134 100//134 61//134
f 66//135 65//135 101//135
f 66//136 101//136 102//136
f 66//136 102//136 79//136
f 66//137 79//137 98//137
f 98//138 79//138 78//138
f 61//139 100//139 62//139
f 84//140 83//140 99//140
f 100//139 103//139 62//139
f 100//139 99//139 103//139
f 65//141 64//141 101//141
f 101//142 64//142 102//142
f 102//142 64//142 80//142
f 102//142 80//142 79//142
f 62//139 103//139 99//139
f 62//143 99//143 63//143
f 83//144 82//144 104//144
f 83//145 104//145 63//145
f 83//145 63//145 99//145
f 64//146 63//146 104//146
f 64//147 104//147 81//147
f 64//148 81//148 80//148
f 82//149 81//149 104//149
