# Blender v3.0.1 OBJ File: ''
# www.blender.org
mtllib torso4.mtl
o waist
v 0.032834 0.109559 0.197058
v 0.122437 0.027447 0.171780
v 0.118536 0.048494 0.171780
v 0.049063 0.111262 0.169594
v 0.022217 0.102227 0.197058
v 0.022217 -0.101942 0.197058
v 0.032834 -0.109595 0.197058
v 0.083550 0.084501 0.058922
v 0.055239 0.104189 0.060980
v 0.015867 0.125964 0.117409
v 0.015840 0.112139 0.186442
v 0.052002 -0.109570 0.171780
v 0.120531 -0.045468 0.171780
v 0.119765 0.046161 0.120711
v -0.036478 0.113102 0.055457
v -0.058282 0.105090 0.055457
v 0.015840 -0.112076 0.186756
v 0.002070 -0.115989 0.063015
v 0.015858 -0.126086 0.115642
v 0.067713 -0.096535 0.052457
v 0.083550 -0.084463 0.058922
v 0.117257 -0.048925 0.116572
v 0.120361 -0.041728 0.120025
v 0.122276 -0.000006 0.119176
v 0.041037 0.110312 0.052655
v 0.015840 0.102177 0.192407
v 0.015840 -0.102213 0.192407
v 0.002070 -0.097461 -0.013844
v 0.045598 -0.110101 0.063073
v 0.076059 0.072979 -0.011225
v 0.059225 0.092129 -0.011600
v -0.015530 0.096653 -0.016512
v -0.016402 0.063985 -0.039646
v 0.002070 -0.067082 -0.039971
v 0.002070 -0.088906 -0.028192
v 0.049080 -0.095844 -0.010542
v 0.015887 0.121523 0.088453
v -0.015530 0.088945 -0.028192
v 0.077319 -0.071316 -0.010123
v -0.009722 0.065639 -0.040518
v 0.067286 0.015967 -0.039471
v 0.067286 -0.015954 -0.039471
v 0.050559 -0.081154 -0.031402
v 0.049178 -0.090749 -0.023565
v 0.059225 -0.092141 -0.011472
v 0.077164 0.054999 -0.020902
v 0.031955 0.057211 -0.040259
v 0.077520 -0.055714 -0.019943
v 0.067838 0.069688 -0.027599
v 0.054206 0.078773 -0.031495
v 0.061198 -0.071810 -0.031564
v 0.051931 0.092129 -0.020704
v -0.031193 -0.105529 0.200039
v -0.010311 -0.105273 0.188105
v 0.032848 -0.113189 0.171769
v -0.016822 -0.130919 0.284170
v -0.031193 -0.101891 0.213688
v -0.031193 0.106995 0.200039
v -0.010311 0.105278 0.188105
v 0.032863 0.113170 0.171769
v 0.047052 -0.112370 0.171869
v -0.015137 0.130720 0.285820
v 0.123523 0.003356 0.171869
v 0.116950 -0.050367 0.171869
v -0.016822 -0.114740 0.294710
v -0.030191 0.076250 0.302071
v 0.017983 -0.124334 0.284827
v -0.003503 -0.125270 0.292791
v -0.030191 0.087190 0.300570
v 0.047006 0.112375 0.171869
v -0.015137 0.127902 0.291409
v 0.116950 0.050348 0.171869
v 0.120850 0.043699 0.171869
v 0.121901 -0.035421 0.230570
v 0.059147 -0.106093 0.232768
v 0.049139 -0.112049 0.265654
v -0.018749 0.054613 0.316784
v 0.026868 0.121458 0.279978
v 0.055581 0.108789 0.233218
v 0.116859 -0.050316 0.235398
v 0.119682 -0.045909 0.237942
v -0.003558 -0.056183 0.316813
v 0.039919 -0.044321 0.317763
v 0.044025 0.042274 0.317036
v 0.016109 -0.122381 0.291301
v 0.009544 0.122496 0.292586
v 0.034578 -0.116956 0.284105
v 0.034578 0.116962 0.284120
v 0.113486 0.052260 0.241097
v 0.119682 0.045890 0.237899
v 0.123309 0.011276 0.234654
v 0.027513 0.054075 0.316670
v 0.052667 0.110249 0.260409
v 0.083374 -0.068148 0.277034
v 0.052500 0.032490 0.316334
v 0.048736 0.082393 0.296593
v 0.049051 -0.082752 0.296297
v 0.053357 -0.025314 0.316265
v 0.079182 0.069858 0.280429
v 0.056070 0.013250 0.316309
v 0.098375 0.056164 0.266412
v 0.096581 -0.057003 0.267696
v 0.105690 -0.021224 0.261338
v 0.107416 0.017691 0.259215
v -0.037234 0.103959 0.213664
v -0.031200 0.101921 0.213664
v -0.037234 0.122379 0.210330
v -0.085231 0.100014 0.181963
v -0.085231 -0.100019 0.181963
v -0.037234 -0.103311 0.213664
v -0.031200 -0.101926 0.213664
v 0.015818 0.102339 0.191493
v 0.015818 0.112137 0.186442
v 0.015818 -0.102370 0.191493
v -0.054041 0.131184 0.183058
v -0.068639 0.107912 0.101579
v -0.085231 0.091640 0.129634
v -0.037234 -0.122332 0.210305
v 0.015818 -0.112103 0.186753
v 0.015818 -0.125676 0.119930
v 0.015818 -0.115199 0.063047
v 0.015818 0.115168 0.063047
v 0.015818 0.125723 0.119208
v -0.085235 -0.091008 0.126931
v -0.067886 -0.107793 0.097182
v -0.055782 -0.129491 0.183058
v -0.047289 0.132242 0.183058
v -0.003868 0.131341 0.110101
v -0.073199 0.080627 0.008166
v -0.085221 0.070842 0.101230
v -0.048758 -0.132547 0.183058
v -0.022912 0.132765 0.116396
v -0.044771 0.124774 0.110498
v -0.080393 0.054918 0.007496
v -0.073681 -0.079861 0.007372
v -0.079199 -0.058110 0.002367
v -0.032901 -0.133331 0.131650
v -0.011688 -0.132149 0.113519
v 0.002048 0.098211 -0.010283
v -0.061638 -0.092494 0.009275
v -0.053190 -0.116584 0.087308
v 0.002038 -0.065609 -0.040317
v -0.016431 0.065891 -0.039819
v -0.015570 0.089814 -0.027026
v -0.029125 0.096310 -0.016435
v -0.045889 0.096460 -0.003851
v -0.071876 0.067563 -0.013941
v -0.070093 -0.068290 -0.015294
v -0.066067 0.019427 -0.039178
v 0.002048 -0.096988 -0.015608
v -0.031066 -0.096870 -0.013841
v 0.002038 -0.090169 -0.026793
v -0.068696 -0.008076 -0.039147
v -0.042917 -0.080933 -0.029256
v -0.059523 -0.051327 -0.032653
v -0.057948 0.074905 -0.024740
v -0.112640 -0.016578 0.206144
v -0.106349 -0.016498 0.202597
v -0.106349 -0.015479 0.214188
v -0.116189 -0.015716 0.204371
v -0.112640 -0.016499 0.200823
v -0.106349 -0.015453 0.194477
v -0.106349 -0.011947 0.190658
v -0.106349 -0.005159 0.186859
v -0.106349 0.005749 0.187007
v -0.106349 0.011943 0.190654
v -0.106349 0.015620 0.194833
v -0.106349 0.016620 0.204371
v -0.106349 0.016041 0.211679
v -0.106349 0.015040 0.214840
v -0.106349 0.011933 0.217930
v -0.106349 0.005108 0.221711
v -0.106349 0.000001 0.222747
v -0.106349 -0.005102 0.221707
v -0.106349 -0.011934 0.217930
v -0.115489 -0.014761 0.210855
v -0.117952 -0.014116 0.208041
v -0.117935 -0.014103 0.199206
v -0.114733 -0.014327 0.195295
v -0.114643 -0.010766 0.216891
v -0.118436 -0.010644 0.200823
v -0.118134 -0.011049 0.194970
v -0.115088 -0.011029 0.191602
v -0.114577 -0.003739 0.220393
v -0.118015 -0.007238 0.216866
v -0.118476 -0.004434 0.213238
v -0.114919 0.000001 0.220534
v -0.118512 -0.003545 0.193727
v -0.118106 -0.007567 0.191683
v -0.115144 -0.004499 0.188092
v -0.117444 0.000001 0.189185
v -0.115670 0.000001 0.187842
v -0.118009 0.007220 0.216859
v -0.118489 0.007095 0.195501
v -0.118104 0.007559 0.191683
v -0.114609 0.003781 0.220407
v -0.118084 0.010893 0.213533
v -0.117943 0.014125 0.199153
v -0.118134 0.011051 0.194974
v -0.115132 0.004492 0.188092
v -0.114659 0.010775 0.216901
v -0.117953 0.014122 0.208046
v -0.115081 0.011028 0.191602
v -0.115491 0.014770 0.210872
v -0.116189 0.015722 0.204371
v -0.114729 0.014326 0.195298
v -0.112640 0.016579 0.206144
v -0.112640 0.016495 0.200823
v 0.015095 0.108612 0.264641
v 0.015102 0.108611 0.264638
v 0.014842 0.108423 0.264641
v 0.012423 0.104624 0.264641
v 0.012423 0.102745 0.264641
v 0.015102 0.102745 0.264641
v 0.015102 0.108189 0.264641
v 0.015102 0.102745 0.261741
v 0.012423 0.102745 0.263615
v -0.050455 0.033689 0.316704
v -0.018817 0.055120 0.316861
v -0.015174 0.127898 0.291430
v -0.054298 -0.028956 0.316286
v -0.003610 -0.054904 0.317010
v -0.063982 0.086905 0.293075
v -0.057562 -0.001684 0.316073
v -0.038913 -0.049027 0.316826
v -0.003610 -0.106020 0.297734
v -0.003610 -0.039502 0.297734
v -0.061861 -0.087455 0.293586
v -0.017406 -0.126643 0.291398
v -0.029911 0.128210 0.286265
v -0.091358 0.082785 0.270048
v -0.093757 0.053159 0.270615
v -0.086775 -0.083775 0.274995
v -0.017201 -0.131046 0.283347
v -0.016298 -0.097475 0.215158
v -0.016288 0.097509 0.215158
v -0.044496 0.127859 0.276323
v -0.015174 0.130210 0.282527
v -0.037254 -0.128331 0.177927
v -0.037254 0.128366 0.177927
v -0.046776 -0.131137 0.269641
v -0.054125 -0.131266 0.252346
v -0.054168 -0.131214 0.184445
v -0.085241 -0.083163 0.108024
v -0.085241 -0.065553 0.100186
v -0.052347 0.131275 0.257617
v -0.106234 0.052270 0.251190
v -0.105058 -0.064391 0.252713
v -0.085241 0.070899 0.101219
v -0.085241 0.085016 0.111101
v -0.048829 0.132522 0.183145
v -0.107439 -0.069397 0.157949
v -0.109217 0.047900 0.161665
v -0.102787 0.084130 0.250927
v -0.102856 -0.083290 0.251893
v -0.107947 0.068841 0.159445
v -0.054050 0.131093 0.183145
v -0.056121 0.131340 0.228800
v -0.085241 -0.090722 0.125952
v -0.112259 0.063114 0.235414
v -0.058599 -0.129390 0.221448
v -0.111042 -0.072047 0.182272
v -0.113081 0.074458 0.226510
v -0.107137 0.084951 0.227394
v -0.085241 0.092964 0.135159
v -0.110801 -0.081449 0.229279
v -0.113346 -0.049644 0.200781
v -0.112920 -0.051776 0.232702
v -0.113438 0.049887 0.207452
vn 0.3212 0.0595 0.9451
vn 0.6071 0.6859 0.4013
vn 0.0000 0.0000 1.0000
vn 0.2715 0.0000 0.9624
vn 0.6696 0.7421 0.0292
vn 0.5698 0.8215 -0.0211
vn 0.1739 0.9712 0.1630
vn 0.0262 0.9802 0.1963
vn 0.6068 -0.6487 0.4594
vn 0.2819 -0.0074 0.9594
vn 0.9831 0.1822 0.0153
vn 0.7374 0.6754 -0.0131
vn -0.3433 0.9343 0.0961
vn -0.4027 0.8975 0.1796
vn -0.3804 0.5508 0.7429
vn -0.3818 -0.5297 0.7574
vn -0.8241 -0.5558 0.1093
vn 0.0261 -0.9808 0.1932
vn 0.2036 -0.9670 0.1534
vn 0.6080 -0.7939 -0.0067
vn 0.6828 -0.7300 0.0285
vn 0.7255 -0.6882 0.0001
vn 0.9989 -0.0460 -0.0066
vn 0.9996 -0.0261 0.0106
vn 0.9980 0.0554 -0.0319
vn 0.4221 0.9049 -0.0546
vn -0.8427 0.2766 0.4620
vn -0.5329 0.4347 0.7260
vn -0.5893 0.0000 0.8080
vn -0.5218 -0.4241 0.7402
vn -0.9485 -0.1575 0.2749
vn -0.9593 -0.2580 0.1149
vn -0.9622 -0.2648 -0.0638
vn 0.5136 -0.8576 -0.0261
vn 0.9231 -0.3834 -0.0307
vn 0.8404 0.5133 -0.1740
vn 0.5626 0.8200 -0.1054
vn 0.4473 0.8938 -0.0328
vn -0.3290 0.8953 -0.3004
vn -0.9269 -0.1298 -0.3521
vn -0.9396 -0.1625 -0.3011
vn -0.9609 -0.2378 -0.1418
vn -0.8795 0.0000 0.4760
vn 0.0498 -0.9709 -0.2341
vn 0.1320 -0.9743 -0.1825
vn 0.1311 -0.9667 -0.2198
vn 0.4433 -0.8961 -0.0217
vn 0.2196 0.9643 -0.1477
vn -0.0633 0.9865 -0.1513
vn -0.6064 0.6637 -0.4380
vn -0.8421 0.2490 -0.4784
vn 0.8397 -0.5146 -0.1737
vn 0.4524 0.8835 -0.1220
vn -0.0138 0.9739 -0.2266
vn -0.1257 -0.0153 -0.9919
vn 0.0077 0.0000 -1.0000
vn 0.0116 -0.0031 -0.9999
vn 0.0177 -0.4749 -0.8799
vn 0.0167 -0.8588 -0.5120
vn 0.0575 -0.9299 -0.3634
vn 0.2935 -0.8910 -0.3464
vn 0.7473 -0.6371 -0.1887
vn 0.9277 -0.2839 -0.2423
vn 0.9410 0.2033 -0.2704
vn 0.7399 0.6468 -0.1852
vn -0.2178 0.4133 -0.8842
vn 0.0028 -0.0167 -0.9999
vn 0.0508 -0.6362 -0.7699
vn 0.3248 -0.9313 -0.1650
vn 0.6352 -0.7601 -0.1366
vn 0.9451 -0.1827 -0.2710
vn 0.9519 0.0004 -0.3064
vn 0.6732 0.5828 -0.4551
vn 0.0735 0.9653 -0.2507
vn 0.0693 0.3135 -0.9471
vn 0.3875 0.1951 -0.9010
vn 0.7164 0.1435 -0.6828
vn 0.8857 0.0000 -0.4642
vn 0.1183 -0.1518 -0.9813
vn 0.1284 -0.1542 -0.9797
vn 0.6087 -0.5526 -0.5693
vn 0.4753 -0.8712 -0.1230
vn 0.9564 -0.0498 -0.2878
vn 0.9568 0.0615 -0.2840
vn 0.8245 0.3066 -0.4756
vn 0.0506 0.9711 -0.2332
vn 0.0272 0.4726 -0.8808
vn 0.8839 -0.0012 -0.4676
vn -0.3982 -0.4849 -0.7787
vn 0.6257 0.5976 -0.5013
vn 0.2475 0.9484 -0.1983
vn 0.2167 0.1673 -0.9618
vn 0.7896 -0.1695 -0.5898
vn 0.5558 0.5777 -0.5978
vn 0.0217 0.8344 -0.5507
vn 0.0558 0.6332 -0.7720
vn 0.5353 -0.6195 -0.5742
vn 0.6724 -0.5523 -0.4928
vn -0.3700 -0.6523 -0.6615
vn -0.2218 -0.9433 -0.2468
vn -1.0000 0.0000 0.0000
vn -0.4962 0.0000 -0.8682
vn -0.3539 0.0000 -0.9353
vn -0.3540 0.0000 -0.9352
vn 0.0580 -0.9898 -0.1305
vn -0.9549 -0.2870 0.0765
vn -0.1926 0.9544 -0.2279
vn -0.3821 0.5443 -0.7468
vn 0.0011 -0.0000 -1.0000
vn 0.0013 -0.0002 -1.0000
vn 0.0075 -0.0085 -0.9999
vn -0.9821 -0.1029 0.1579
vn -0.9838 -0.0751 0.1626
vn -0.9999 0.0007 0.0100
vn 0.1866 -0.9808 -0.0559
vn 0.1682 -0.9233 0.3452
vn -0.9337 0.3494 0.0781
vn 0.0565 0.9901 -0.1286
vn -0.9060 0.3779 0.1906
vn 0.0076 0.0085 -0.9999
vn 0.0021 0.0012 -1.0000
vn 0.0012 0.0001 -1.0000
vn 0.9912 -0.1213 -0.0527
vn 0.6626 -0.7470 -0.0546
vn 0.3642 -0.9313 -0.0049
vn -0.2969 -0.5212 0.8001
vn -0.7130 0.0953 0.6946
vn -0.9999 0.0014 0.0102
vn -0.8402 -0.0795 0.5365
vn -0.3348 0.3230 0.8852
vn 0.2094 0.9769 -0.0431
vn 0.4004 0.9163 -0.0024
vn 0.6627 0.7473 -0.0489
vn 0.8416 -0.5400 0.0016
vn 0.6949 -0.7191 0.0016
vn 0.4920 -0.8706 -0.0080
vn -0.1227 -0.3260 0.9374
vn -0.7170 -0.0981 0.6902
vn -0.0211 -0.0026 0.9998
vn -0.0023 0.0085 1.0000
vn 0.1620 -0.9308 0.3277
vn 0.1715 0.8796 0.4436
vn 0.9743 -0.2239 -0.0252
vn 0.4079 -0.9095 0.0801
vn 0.3911 -0.8437 0.3678
vn 0.1223 -0.3519 0.9280
vn 0.0688 -0.3276 0.9423
vn 0.0263 0.3259 0.9450
vn 0.2419 0.9361 0.2554
vn 0.3164 0.8765 0.3627
vn 0.6974 0.7165 0.0151
vn 0.8622 0.5058 0.0292
vn 0.7142 0.6999 -0.0106
vn 0.9946 0.1029 0.0142
vn 0.9978 0.0661 -0.0049
vn 0.6908 -0.7186 0.0801
vn 0.0029 0.0350 0.9994
vn 0.0062 0.3335 0.9427
vn 0.2515 0.3795 0.8904
vn 0.3939 0.9191 -0.0072
vn 0.4601 0.8821 0.1013
vn 0.6956 0.7175 0.0360
vn 0.9995 -0.0308 0.0073
vn 0.9735 -0.0489 0.2235
vn 0.7124 -0.6337 0.3015
vn 0.6829 -0.6289 0.3717
vn 0.4758 0.3543 0.8050
vn 0.3212 0.3997 0.8585
vn 0.3448 -0.3940 0.8520
vn 0.5312 -0.3135 0.7871
vn 0.5757 -0.4796 0.6622
vn 0.4364 -0.4602 0.7731
vn 0.3737 0.4464 0.8131
vn 0.5572 0.4742 0.6817
vn 0.6935 0.6292 0.3509
vn 0.7039 0.6273 0.3333
vn 0.0721 0.0050 0.9974
vn 0.5468 0.3433 0.7636
vn 0.5620 -0.3089 0.7673
vn 0.1247 -0.0099 0.9921
vn 0.1030 0.0178 0.9945
vn 0.6990 0.1288 0.7034
vn 0.6692 0.2077 0.7135
vn 0.6686 -0.1899 0.7189
vn 0.7434 0.0035 0.6688
vn 0.6924 0.6500 0.3131
vn 0.7353 -0.5862 0.3403
vn 0.7408 0.0487 0.6700
vn 0.7249 -0.0626 0.6860
vn 0.7249 -0.0518 0.6869
vn 0.7524 0.5487 0.3645
vn 0.7074 -0.6338 0.3129
vn 0.8435 0.0382 0.5358
vn 0.8124 0.0829 0.5772
vn 0.8386 -0.0075 0.5446
vn 0.8037 -0.1004 0.5865
vn 0.8470 -0.0232 0.5310
vn 0.0600 0.1778 0.9822
vn -0.5535 0.1484 0.8195
vn -0.5511 0.0000 0.8344
vn 0.3833 0.4232 0.8209
vn 0.4381 0.2690 0.8577
vn 0.4265 0.0000 0.9045
vn -0.7035 0.7066 -0.0758
vn -0.7773 0.6212 -0.0994
vn -0.5522 -0.1450 0.8210
vn 0.0399 -0.1738 0.9840
vn 1.0000 0.0000 0.0000
vn -0.5976 0.5785 0.5551
vn 0.4337 -0.2698 0.8597
vn 0.3871 -0.4037 0.8290
vn -1.0000 0.0000 0.0001
vn -0.7763 -0.6220 -0.1018
vn -0.7037 -0.7061 -0.0792
vn -0.5973 -0.5761 0.5580
vn 0.2840 0.9304 0.2318
vn -0.1430 0.9127 0.3828
vn 0.2888 0.9384 0.1896
vn 0.2209 0.9679 0.1195
vn -0.7990 0.5866 -0.1323
vn -1.0000 0.0000 -0.0004
vn -0.3551 -0.8160 0.4561
vn 0.0876 0.9954 0.0398
vn -0.3155 0.9428 -0.1080
vn -0.5352 0.8327 -0.1419
vn -0.9553 0.2704 -0.1191
vn -0.9937 0.0904 -0.0665
vn -0.7968 -0.5897 -0.1320
vn 0.2817 -0.9315 0.2301
vn 0.3436 0.9229 -0.1735
vn -0.1540 0.9823 -0.1065
vn -0.9987 -0.0083 -0.0500
vn -0.9987 -0.0079 -0.0505
vn -0.9558 -0.2695 -0.1175
vn -0.3967 -0.9115 -0.1085
vn 0.2864 -0.9389 0.1907
vn 0.0929 -0.9947 0.0438
vn 0.2049 -0.9733 0.1036
vn 0.1765 0.9512 -0.2531
vn -0.7002 -0.6933 -0.1704
vn -0.5698 -0.8123 -0.1249
vn 0.9912 0.0000 -0.1321
vn 0.9807 0.0352 -0.1923
vn 0.5334 0.3839 -0.7538
vn 0.7826 0.1122 -0.6124
vn -0.0064 0.9641 -0.2656
vn -0.0151 0.9644 -0.2640
vn -0.1810 0.9506 -0.2524
vn -0.5138 0.8339 -0.2015
vn -0.5574 0.8039 -0.2076
vn -0.9391 0.2684 -0.2148
vn -0.6191 -0.6554 -0.4326
vn -0.4442 -0.8862 -0.1315
vn 0.0420 0.8747 -0.4828
vn -0.2794 0.9327 -0.2282
vn -0.9397 0.0629 -0.3362
vn -0.9074 -0.2983 -0.2959
vn -0.5908 -0.7867 -0.1789
vn 0.1389 -0.9592 -0.2464
vn -0.0175 -0.9642 -0.2644
vn 0.2640 -0.9486 -0.1747
vn 0.8799 -0.4053 -0.2479
vn 0.9793 -0.0977 -0.1774
vn -0.0152 0.0017 -0.9999
vn -0.4116 0.4412 -0.7974
vn -0.9313 0.0886 -0.3532
vn -0.9697 0.0008 -0.2443
vn -0.1813 -0.9445 -0.2738
vn -0.0308 -0.8534 -0.5203
vn -0.1722 -0.1921 -0.9661
vn -0.0996 -0.1684 -0.9807
vn -0.0130 0.0001 -0.9999
vn -0.0510 -0.4817 -0.8748
vn -0.9102 -0.1341 -0.3919
vn -0.2103 -0.9499 -0.2311
vn -0.5507 0.3895 -0.7383
vn -0.5140 0.7246 -0.4590
vn -0.6999 -0.2490 -0.6694
vn -0.2736 0.2796 -0.9203
vn -0.1758 0.5528 -0.8146
vn -0.6757 0.2767 -0.6833
vn -0.4924 -0.6988 -0.5189
vn -0.3185 -0.9149 -0.2480
vn -0.1139 -0.7332 -0.6705
vn -0.5570 0.8140 -0.1649
vn -0.5588 -0.3970 -0.7281
vn -0.5407 -0.7570 -0.3670
vn 0.0620 -0.9942 0.0874
vn -0.2292 -0.9733 -0.0144
vn 0.0044 -0.9999 -0.0148
vn -0.1705 -0.9496 0.2631
vn -0.3125 -0.9343 0.1713
vn -0.6746 -0.7382 -0.0024
vn -0.3650 -0.9166 -0.1628
vn -0.3426 -0.9113 -0.2284
vn -0.1561 -0.9380 -0.3095
vn 0.0362 -0.9912 -0.1276
vn -0.1852 -0.7134 0.6758
vn -0.2652 -0.7865 0.5578
vn -0.4334 -0.8836 0.1769
vn -0.9898 -0.1425 -0.0021
vn -0.9914 -0.1238 -0.0426
vn -0.5968 -0.6639 -0.4507
vn -0.5678 -0.6403 -0.5172
vn -0.1631 -0.7436 -0.6484
vn -0.1751 -0.4764 0.8616
vn -0.2118 -0.4344 0.8755
vn -0.6332 -0.6016 0.4870
vn -0.6710 -0.5871 0.4529
vn -0.9945 -0.0860 0.0600
vn -0.9969 -0.0714 0.0325
vn -0.1488 -0.7286 -0.6686
vn -0.1863 -0.1961 0.9627
vn -0.2495 -0.0593 0.9665
vn -0.6676 -0.0891 0.7392
vn -0.4251 -0.4005 0.8117
vn -1.0000 -0.0092 0.0014
vn -0.9972 -0.0581 -0.0475
vn -0.6263 -0.5325 -0.5694
vn -0.4960 -0.4144 -0.7631
vn -0.5995 -0.1141 -0.7922
vn -0.1438 -0.0717 -0.9870
vn -0.1570 -0.4823 -0.8618
vn -0.1435 -0.4695 -0.8712
vn -0.7649 0.0006 0.6442
vn -0.9920 0.0005 0.1265
vn -0.9950 0.0185 -0.0980
vn -1.0000 0.0019 0.0019
vn -0.9807 0.0001 -0.1953
vn -0.9952 -0.0626 -0.0749
vn -0.6808 -0.1753 -0.7112
vn -0.9668 0.0001 -0.2557
vn -0.1834 0.1954 0.9634
vn -0.2496 0.0530 0.9669
vn -0.6796 0.0803 0.7291
vn -0.9985 0.0246 0.0497
vn -0.9995 0.0252 0.0171
vn -0.9960 0.0869 -0.0184
vn -0.5994 0.1159 -0.7920
vn -0.6790 0.1762 -0.7126
vn -0.1323 0.0709 -0.9887
vn -0.0975 0.0135 -0.9951
vn -0.1732 0.4772 0.8616
vn -0.2083 0.4371 0.8750
vn -0.4355 0.4009 0.8060
vn -0.5806 0.5400 0.6094
vn -0.9993 0.0385 -0.0011
vn -0.9972 0.0738 0.0068
vn -0.9929 0.0770 -0.0907
vn -0.1740 0.4669 -0.8670
vn -0.6258 0.5321 -0.5703
vn -0.4954 0.4139 -0.7637
vn -0.1830 0.6933 0.6970
vn -0.2653 0.7864 0.5578
vn -0.4940 0.6918 0.5267
vn -0.6223 0.6810 0.3860
vn -0.6722 0.7404 -0.0005
vn -0.5670 0.6407 -0.5177
vn -0.1510 0.7447 -0.6501
vn -0.1487 0.7425 -0.6532
vn -0.1451 0.5020 -0.8526
vn -0.1472 0.9502 0.2746
vn -0.3109 0.9351 0.1702
vn -0.4345 0.8834 0.1759
vn -0.3602 0.9190 -0.1600
vn -0.3350 0.9132 -0.2318
vn -0.2275 0.9737 -0.0154
vn -0.5925 0.6616 -0.4596
vn -0.1810 0.9376 0.2968
vn -0.1618 0.9379 -0.3070
vn -0.0110 0.9998 -0.0158
vn 0.0157 0.9967 0.0790
vn 0.0390 0.9938 -0.1042
vn -0.3239 0.4357 -0.8398
vn 0.4286 0.0067 0.9035
vn -0.3142 0.4205 -0.8512
vn -0.5335 0.3653 -0.7629
vn -0.6017 0.3831 -0.7008
vn 0.0000 -1.0000 0.0000
vn -0.2290 0.3313 0.9153
vn -0.0172 -0.0056 0.9998
vn -0.0054 0.0006 1.0000
vn -0.2534 0.3380 0.9064
vn -0.0798 -0.0018 0.9968
vn -0.0008 0.0263 0.9997
vn -0.4028 -0.2854 0.8696
vn -0.2810 -0.3682 0.8863
vn 0.8731 0.1213 0.4722
vn 0.0972 -0.3512 0.9312
vn -0.2974 0.3891 0.8719
vn -0.6493 0.1646 0.7425
vn -0.6782 0.1234 0.7244
vn -0.7358 0.0725 0.6733
vn -0.7277 -0.0818 0.6810
vn -0.6041 -0.2192 0.7662
vn -0.0591 -0.3255 0.9437
vn 0.9959 0.0709 0.0567
vn 0.7288 -0.5928 0.3428
vn 0.9041 -0.3880 -0.1791
vn 0.9884 -0.0001 -0.1519
vn 0.9884 0.0000 -0.1517
vn -0.4898 0.5194 0.7002
vn 0.9974 0.0696 0.0181
vn -0.0675 0.9657 0.2507
vn 0.9014 -0.3931 -0.1816
vn 0.8714 0.0000 -0.4905
vn 0.8713 -0.0000 -0.4907
vn 0.9968 0.0637 -0.0474
vn -0.5912 0.5300 0.6080
vn -0.4443 -0.5437 0.7120
vn 0.0066 -1.0000 -0.0008
vn 0.1477 -0.9876 -0.0535
vn 0.6880 -0.2951 -0.6630
vn 0.8509 0.0000 -0.5252
vn 0.9051 0.3765 -0.1977
vn -0.6639 0.6353 0.3946
vn -0.8404 0.0783 0.5363
vn -0.8413 -0.0014 0.5405
vn -0.7920 -0.0168 0.6103
vn -0.7853 -0.0300 0.6183
vn -0.5534 -0.5391 0.6349
vn -0.3642 -0.8210 0.4397
vn 0.8464 0.0040 -0.5325
vn 0.5286 0.4868 -0.6954
vn 0.3043 0.9491 -0.0810
vn 0.0415 0.8244 -0.5645
vn -0.0531 -0.8550 -0.5160
vn -0.9175 -0.1617 -0.3634
vn -0.9334 -0.0028 -0.3589
vn -0.0888 0.9806 0.1745
vn -0.1969 0.9466 0.2555
vn -0.6461 0.6302 0.4305
vn -0.8160 -0.1196 0.5655
vn -0.6585 -0.6065 0.4456
vn 0.2096 -0.9744 -0.0818
vn -0.9299 0.0028 -0.3678
vn -0.9317 0.0180 -0.3627
vn -0.9069 0.2416 -0.3451
vn -0.2358 0.8618 -0.4491
vn -0.0053 0.9997 0.0250
vn -0.4250 -0.8341 -0.3516
vn -0.8223 -0.5243 -0.2211
vn -0.8581 0.0078 0.5134
vn -0.2639 0.9644 -0.0172
vn 0.0297 0.9996 -0.0016
vn -0.3841 -0.9233 -0.0005
vn -0.8043 -0.5660 -0.1808
vn -0.9297 0.1833 0.3194
vn -0.8824 0.1558 0.4440
vn -0.6856 0.7120 0.1516
vn -0.6726 -0.6804 0.2909
vn -0.5612 0.7859 -0.2596
vn -0.6903 -0.6994 0.1856
vn -0.6794 -0.7324 -0.0452
vn -0.7043 -0.7012 -0.1113
vn -0.8628 0.4739 0.1760
vn -0.6714 0.7357 0.0896
vn -0.8023 0.5667 -0.1872
vn -0.7008 0.7055 -0.1051
vn -0.6712 -0.7394 0.0523
vn -0.7478 -0.6517 -0.1265
vn -0.9893 0.0178 -0.1446
vn -0.9317 -0.0047 0.3631
vn -0.9394 -0.1233 0.3200
vn -0.9954 0.0518 -0.0805
vn -0.6718 0.7399 -0.0345
vn -0.9912 -0.0109 -0.1317
vn -0.9462 -0.1030 0.3068
vn -0.7853 0.6044 -0.1339
vn -0.9980 -0.0287 0.0556
vn -0.9349 -0.0030 0.3549
vn -0.9915 0.0883 -0.0952
vn -0.8611 0.4969 -0.1075
vn -0.9957 0.0052 -0.0920
vn -0.9992 0.0048 0.0398
vn -0.9957 -0.0915 -0.0132
vn -0.9974 -0.0722 0.0085
vn -0.9999 -0.0018 0.0132
usemtl Default_OBJ.006
s off
f 1//1 2//1 3//1
f 1//2 3//2 4//2
f 1//3 5//3 6//3
f 1//3 6//3 7//3
f 1//4 7//4 2//4
f 3//5 8//5 4//5
f 4//6 8//6 9//6
f 1//7 4//7 10//7
f 1//8 10//8 11//8
f 7//9 12//9 13//9
f 7//10 13//10 2//10
f 2//11 14//11 3//11
f 3//12 14//12 8//12
f 10//13 15//13 16//13
f 10//14 16//14 11//14
f 11//15 5//15 1//15
f 7//16 6//16 17//16
f 17//17 18//17 19//17
f 17//18 19//18 7//18
f 7//19 19//19 12//19
f 12//20 20//20 21//20
f 12//21 21//21 13//21
f 13//22 21//22 22//22
f 13//23 23//23 24//23
f 13//24 24//24 2//24
f 2//25 24//25 14//25
f 10//26 9//26 25//26
f 11//27 16//27 26//27
f 11//28 26//28 5//28
f 5//29 26//29 27//29
f 5//29 27//29 6//29
f 6//30 27//30 17//30
f 17//31 27//31 16//31
f 17//32 16//32 18//32
f 18//33 16//33 28//33
f 12//34 29//34 20//34
f 13//35 22//35 23//35
f 14//36 30//36 8//36
f 9//37 8//37 31//37
f 10//38 4//38 9//38
f 16//39 15//39 32//39
f 16//40 33//40 34//40
f 16//41 34//41 35//41
f 16//42 35//42 28//42
f 16//43 27//43 26//43
f 18//44 28//44 36//44
f 18//45 36//45 29//45
f 18//46 29//46 19//46
f 19//47 29//47 12//47
f 25//48 37//48 10//48
f 15//49 10//49 37//49
f 16//50 32//50 38//50
f 16//51 38//51 33//51
f 21//52 39//52 22//52
f 25//53 9//53 31//53
f 32//54 15//54 37//54
f 33//55 40//55 34//55
f 34//56 41//56 42//56
f 34//57 40//57 41//57
f 34//58 43//58 35//58
f 28//59 35//59 44//59
f 36//60 28//60 44//60
f 36//61 44//61 45//61
f 21//62 45//62 39//62
f 22//63 39//63 23//63
f 14//64 46//64 30//64
f 31//65 8//65 30//65
f 38//66 40//66 33//66
f 40//67 47//67 41//67
f 35//68 43//68 44//68
f 36//69 45//69 29//69
f 20//70 45//70 21//70
f 23//71 39//71 48//71
f 24//72 48//72 46//72
f 30//73 49//73 31//73
f 37//74 25//74 32//74
f 47//75 40//75 50//75
f 41//76 50//76 49//76
f 41//77 49//77 46//77
f 41//78 48//78 42//78
f 42//79 51//79 43//79
f 42//80 43//80 34//80
f 44//81 43//81 45//81
f 29//82 45//82 20//82
f 23//83 48//83 24//83
f 24//84 46//84 14//84
f 46//85 49//85 30//85
f 52//86 32//86 25//86
f 40//87 38//87 50//87
f 41//88 46//88 48//88
f 39//89 42//89 48//89
f 49//90 52//90 31//90
f 31//91 52//91 25//91
f 47//92 50//92 41//92
f 42//93 39//93 51//93
f 49//94 50//94 52//94
f 32//95 52//95 38//95
f 50//96 38//96 52//96
f 43//97 51//97 45//97
f 39//98 45//98 51//98
f 53//99 54//99 55//99
f 53//100 55//100 56//100
f 53//101 57//101 58//101
f 53//102 58//102 54//102
f 54//102 58//102 59//102
f 54//103 59//103 60//103
f 54//104 60//104 55//104
f 55//105 61//105 56//105
f 56//106 57//106 53//106
f 58//107 62//107 60//107
f 58//108 60//108 59//108
f 55//109 60//109 63//109
f 55//110 63//110 64//110
f 55//111 64//111 61//111
f 57//112 56//112 65//112
f 57//113 65//113 66//113
f 57//114 66//114 58//114
f 61//115 67//115 56//115
f 56//116 67//116 68//116
f 58//117 69//117 62//117
f 62//118 70//118 60//118
f 62//119 69//119 71//119
f 60//120 70//120 72//120
f 60//121 72//121 73//121
f 60//122 73//122 63//122
f 63//123 74//123 64//123
f 64//124 75//124 61//124
f 61//125 76//125 67//125
f 68//126 65//126 56//126
f 66//127 77//127 69//127
f 66//128 69//128 58//128
f 66//129 65//129 77//129
f 69//130 77//130 71//130
f 70//131 62//131 78//131
f 70//132 78//132 79//132
f 72//133 70//133 79//133
f 80//134 64//134 81//134
f 75//135 64//135 80//135
f 61//136 75//136 76//136
f 82//137 65//137 68//137
f 77//138 65//138 82//138
f 77//139 82//139 83//139
f 77//140 83//140 84//140
f 68//141 67//141 85//141
f 62//142 71//142 86//142
f 74//143 81//143 64//143
f 67//144 76//144 87//144
f 85//145 67//145 87//145
f 68//146 85//146 83//146
f 68//147 83//147 82//147
f 71//148 77//148 86//148
f 62//149 86//149 78//149
f 78//150 86//150 88//150
f 79//151 89//151 72//151
f 73//152 72//152 89//152
f 73//153 89//153 90//153
f 73//154 90//154 91//154
f 73//155 91//155 63//155
f 75//156 80//156 76//156
f 84//157 92//157 77//157
f 86//158 77//158 92//158
f 86//159 92//159 84//159
f 79//160 78//160 93//160
f 88//161 93//161 78//161
f 79//162 93//162 89//162
f 63//163 91//163 74//163
f 74//164 91//164 81//164
f 76//165 80//165 94//165
f 76//166 94//166 87//166
f 84//167 95//167 96//167
f 84//168 96//168 86//168
f 83//169 85//169 97//169
f 83//170 97//170 98//170
f 87//171 94//171 97//171
f 87//172 97//172 85//172
f 86//173 96//173 88//173
f 88//174 96//174 99//174
f 93//175 88//175 99//175
f 93//176 99//176 89//176
f 84//177 83//177 100//177
f 95//178 99//178 96//178
f 98//179 97//179 94//179
f 83//180 98//180 100//180
f 84//181 100//181 95//181
f 95//182 100//182 101//182
f 95//183 101//183 99//183
f 98//184 94//184 102//184
f 100//185 103//185 104//185
f 89//186 99//186 101//186
f 80//187 102//187 94//187
f 100//188 104//188 101//188
f 98//189 102//189 103//189
f 98//190 103//190 100//190
f 101//191 90//191 89//191
f 80//192 81//192 102//192
f 90//193 104//193 91//193
f 90//194 101//194 104//194
f 104//195 103//195 91//195
f 103//196 102//196 81//196
f 91//197 103//197 81//197
f 105//198 106//198 107//198
f 105//199 107//199 108//199
f 105//200 108//200 109//200
f 105//200 109//200 110//200
f 105//3 110//3 111//3
f 105//3 111//3 106//3
f 106//201 112//201 113//201
f 106//202 113//202 107//202
f 106//203 111//203 114//203
f 106//203 114//203 112//203
f 108//204 115//204 116//204
f 108//205 116//205 117//205
f 110//206 109//206 118//206
f 110//207 118//207 111//207
f 112//208 114//208 119//208
f 112//208 119//208 120//208
f 112//208 120//208 121//208
f 112//208 121//208 122//208
f 112//208 122//208 123//208
f 112//208 123//208 113//208
f 107//209 115//209 108//209
f 111//210 118//210 119//210
f 111//211 119//211 114//211
f 108//212 124//212 109//212
f 109//213 124//213 125//213
f 109//214 125//214 126//214
f 109//215 126//215 118//215
f 107//216 113//216 127//216
f 107//217 127//217 115//217
f 108//101 117//101 124//101
f 113//218 123//218 127//218
f 127//219 123//219 128//219
f 117//220 116//220 129//220
f 117//221 130//221 124//221
f 126//222 131//222 118//222
f 127//223 128//223 132//223
f 127//224 132//224 133//224
f 115//225 133//225 116//225
f 117//226 129//226 134//226
f 117//227 134//227 130//227
f 124//228 135//228 125//228
f 118//229 131//229 119//229
f 128//230 123//230 122//230
f 127//231 133//231 115//231
f 130//232 134//232 136//232
f 130//233 136//233 124//233
f 124//234 136//234 135//234
f 126//235 137//235 131//235
f 119//236 131//236 120//236
f 131//237 137//237 138//237
f 131//238 138//238 120//238
f 128//239 122//239 139//239
f 135//240 140//240 125//240
f 126//241 125//241 141//241
f 122//242 121//242 142//242
f 122//243 142//243 139//243
f 139//244 143//244 144//244
f 139//245 142//245 143//245
f 128//246 139//246 145//246
f 132//247 128//247 145//247
f 132//248 145//248 146//248
f 116//249 133//249 146//249
f 116//250 146//250 129//250
f 129//251 147//251 134//251
f 135//252 148//252 140//252
f 126//253 141//253 137//253
f 144//254 145//254 139//254
f 132//255 146//255 133//255
f 134//256 147//256 149//256
f 135//257 136//257 148//257
f 140//258 141//258 125//258
f 138//259 150//259 121//259
f 138//260 151//260 150//260
f 138//261 121//261 120//261
f 121//262 150//262 152//262
f 121//263 152//263 142//263
f 142//264 153//264 143//264
f 143//265 145//265 144//265
f 134//266 149//266 153//266
f 134//267 153//267 136//267
f 138//268 137//268 141//268
f 152//269 150//269 151//269
f 153//270 142//270 154//270
f 153//271 154//271 155//271
f 153//272 149//272 143//272
f 142//273 152//273 154//273
f 136//274 153//274 148//274
f 141//275 151//275 138//275
f 129//276 146//276 145//276
f 129//277 145//277 147//277
f 155//278 148//278 153//278
f 143//279 149//279 156//279
f 143//280 156//280 145//280
f 149//281 147//281 156//281
f 140//282 148//282 151//282
f 151//283 141//283 140//283
f 152//284 151//284 154//284
f 147//285 145//285 156//285
f 155//286 154//286 148//286
f 151//287 148//287 154//287
f 157//288 158//288 159//288
f 157//289 160//289 161//289
f 157//290 161//290 158//290
f 159//208 158//208 162//208
f 159//208 162//208 163//208
f 159//208 163//208 164//208
f 159//208 164//208 165//208
f 159//208 165//208 166//208
f 159//208 166//208 167//208
f 159//208 167//208 168//208
f 159//208 168//208 169//208
f 159//208 169//208 170//208
f 159//208 170//208 171//208
f 159//208 171//208 172//208
f 159//208 172//208 173//208
f 159//208 173//208 174//208
f 159//208 174//208 175//208
f 157//291 159//291 176//291
f 157//292 176//292 160//292
f 160//293 177//293 178//293
f 160//294 178//294 161//294
f 161//295 178//295 179//295
f 161//296 179//296 162//296
f 161//297 162//297 158//297
f 159//298 175//298 180//298
f 159//299 180//299 176//299
f 176//300 177//300 160//300
f 177//301 181//301 178//301
f 178//302 181//302 182//302
f 179//303 178//303 182//303
f 179//304 182//304 183//304
f 179//305 183//305 162//305
f 180//306 175//306 174//306
f 180//307 174//307 184//307
f 180//308 185//308 176//308
f 176//309 185//309 177//309
f 185//310 186//310 177//310
f 177//311 186//311 181//311
f 183//312 163//312 162//312
f 174//313 173//313 184//313
f 184//314 173//314 187//314
f 184//315 187//315 185//315
f 184//316 185//316 180//316
f 181//317 186//317 188//317
f 181//318 188//318 182//318
f 182//319 189//319 183//319
f 183//320 189//320 190//320
f 190//321 191//321 192//321
f 190//322 192//322 164//322
f 190//323 164//323 163//323
f 190//324 163//324 183//324
f 187//325 193//325 185//325
f 185//326 193//326 186//326
f 188//327 194//327 195//327
f 188//328 186//328 194//328
f 188//329 195//329 189//329
f 188//330 189//330 182//330
f 189//331 191//331 190//331
f 191//332 189//332 195//332
f 173//333 172//333 196//333
f 173//334 196//334 187//334
f 187//335 196//335 193//335
f 186//336 193//336 197//336
f 186//337 197//337 194//337
f 194//338 198//338 199//338
f 191//339 200//339 192//339
f 191//340 195//340 200//340
f 192//341 200//341 165//341
f 192//342 165//342 164//342
f 172//343 171//343 201//343
f 172//344 201//344 196//344
f 196//345 201//345 193//345
f 193//346 201//346 197//346
f 197//347 202//347 198//347
f 197//348 198//348 194//348
f 199//349 195//349 194//349
f 200//350 203//350 165//350
f 195//351 199//351 203//351
f 195//352 203//352 200//352
f 201//353 171//353 170//353
f 201//354 170//354 204//354
f 197//355 201//355 204//355
f 197//356 204//356 202//356
f 202//357 205//357 198//357
f 203//358 199//358 206//358
f 203//359 206//359 167//359
f 203//360 167//360 166//360
f 165//361 203//361 166//361
f 204//362 170//362 207//362
f 204//363 207//363 205//363
f 204//364 205//364 202//364
f 198//365 205//365 208//365
f 198//366 208//366 206//366
f 205//367 207//367 208//367
f 199//368 198//368 206//368
f 170//369 169//369 207//369
f 208//370 167//370 206//370
f 207//371 168//371 208//371
f 207//372 169//372 168//372
f 208//373 168//373 167//373
f 209//374 210//374 211//374
f 209//3 211//3 212//3
f 209//3 212//3 213//3
f 209//3 213//3 214//3
f 209//3 214//3 215//3
f 209//375 215//375 210//375
f 210//208 215//208 214//208
f 210//208 214//208 216//208
f 210//376 216//376 211//376
f 211//377 216//377 217//377
f 211//378 217//378 212//378
f 216//379 214//379 213//379
f 216//379 213//379 217//379
f 212//101 217//101 213//101
f 218//380 219//380 220//380
f 218//381 221//381 222//381
f 218//382 222//382 219//382
f 220//383 223//383 218//383
f 218//384 224//384 221//384
f 221//385 225//385 222//385
f 222//208 226//208 227//208
f 225//386 221//386 228//386
f 225//387 228//387 229//387
f 219//388 222//388 220//388
f 222//389 229//389 226//389
f 220//390 230//390 223//390
f 218//391 223//391 231//391
f 218//392 231//392 224//392
f 224//393 231//393 232//393
f 221//394 224//394 233//394
f 221//395 233//395 228//395
f 225//396 229//396 222//396
f 220//397 222//397 227//397
f 226//398 229//398 234//398
f 226//399 234//399 235//399
f 226//400 235//400 236//400
f 226//401 236//401 227//401
f 223//402 230//402 237//402
f 227//403 238//403 220//403
f 220//404 238//404 230//404
f 234//405 239//405 235//405
f 235//406 239//406 240//406
f 235//407 240//407 236//407
f 227//408 236//408 238//408
f 223//409 237//409 231//409
f 228//410 241//410 229//410
f 234//411 242//411 243//411
f 234//412 243//412 239//412
f 239//413 244//413 245//413
f 239//414 245//414 240//414
f 238//415 236//415 240//415
f 231//416 237//416 246//416
f 232//417 231//417 247//417
f 232//418 247//418 248//418
f 232//419 248//419 224//419
f 224//420 248//420 233//420
f 228//421 233//421 241//421
f 242//422 234//422 229//422
f 240//423 245//423 249//423
f 240//424 249//424 250//424
f 240//425 251//425 238//425
f 240//426 250//426 251//426
f 243//427 244//427 239//427
f 244//428 252//428 245//428
f 245//429 252//429 253//429
f 230//430 238//430 246//430
f 230//431 246//431 237//431
f 246//432 254//432 231//432
f 248//433 255//433 233//433
f 233//434 255//434 241//434
f 241//435 242//435 229//435
f 245//436 253//436 249//436
f 249//437 253//437 256//437
f 249//438 256//438 250//438
f 251//439 250//439 257//439
f 251//440 258//440 238//440
f 243//441 259//441 244//441
f 244//442 259//442 252//442
f 231//443 254//443 260//443
f 251//444 257//444 258//444
f 258//445 246//445 238//445
f 242//446 261//446 243//446
f 252//447 259//447 262//447
f 254//448 263//448 260//448
f 231//449 260//449 247//449
f 246//450 264//450 254//450
f 241//451 255//451 242//451
f 257//452 250//452 265//452
f 242//453 255//453 266//453
f 243//454 261//454 266//454
f 243//455 266//455 259//455
f 254//456 264//456 263//456
f 264//457 246//457 258//457
f 256//458 265//458 250//458
f 257//459 265//459 264//459
f 242//460 266//460 261//460
f 259//461 266//461 262//461
f 252//462 262//462 267//462
f 248//463 247//463 268//463
f 255//464 248//464 266//464
f 256//465 253//465 263//465
f 257//466 264//466 258//466
f 252//467 267//467 253//467
f 248//468 268//468 266//468
f 256//469 264//469 265//469
f 263//470 269//470 260//470
f 260//471 268//471 247//471
f 263//472 253//472 269//472
f 264//473 256//473 263//473
f 253//474 267//474 269//474
f 268//475 260//475 269//475
f 262//476 266//476 267//476
f 266//477 268//477 267//477
f 269//478 267//478 268//478
